<?xml version="1.0" standalone="no"?>
<!DOCTYPE svg PUBLIC "-//W3C//DTD SVG 1.1//EN" "http://www.w3.org/Graphics/SVG/1.1/DTD/svg11.dtd" >
<svg xmlns="http://www.w3.org/2000/svg" xmlns:xlink="http://www.w3.org/1999/xlink" version="1.1">
<metadata>
Created by FontForge 20230101 at Sat May 29 15:16:37 2021
 By Unknown
Tour de Force Font Foundry &#38; Dusan Jelesijevic
</metadata>
<defs>
<font id="Lupio-LightItalic" horiz-adv-x="1282" >
  <font-face 
    font-family="Lupio-LightItalic"
    font-weight="300"
    font-style="italic"
    font-stretch="normal"
    units-per-em="2048"
    panose-1="0 0 0 0 0 0 0 0 0 0"
    ascent="1638"
    descent="-410"
    x-height="1024"
    cap-height="1434"
    bbox="-270 -512 2936.12 2005"
    underline-thickness="102"
    underline-position="-358"
    slope="-10"
    unicode-range="U+000D-FB02"
  />
<missing-glyph horiz-adv-x="1024" 
 />
    <glyph glyph-name=".notdef" horiz-adv-x="1024" 
 />
    <glyph glyph-name="uni0000" horiz-adv-x="0" 
 />
    <glyph glyph-name="uni000D" unicode="&#xd;" horiz-adv-x="512" 
 />
    <glyph glyph-name="space" unicode=" " horiz-adv-x="532" 
 />
    <glyph glyph-name="exclam" unicode="!" horiz-adv-x="516" 
d="M438 1436h148l-90 -506l-97 -481h-120l69 481zM154 104q9 52 51.5 87.5t95.5 35.5q52 0 80.5 -35t19.5 -88q-9 -54 -50.5 -89t-94.5 -35t-82 35t-20 89z" />
    <glyph glyph-name="quotedbl" unicode="&#x22;" horiz-adv-x="716" 
d="M354 983l78 451h113l-109 -451h-82zM600 983l78 451h113l-109 -451h-82z" />
    <glyph glyph-name="numbersign" unicode="#" horiz-adv-x="1390" 
d="M203 475h227l154 483h-295l18 107h311l117 369h107l-117 -369h412l116 369h111l-117 -369h215l-18 -107h-232l-153 -483h299l-19 -106h-315l-117 -369h-110l116 369h-411l-117 -369h-106l116 369h-211zM537 475h411l154 483h-412z" />
    <glyph glyph-name="dollar" unicode="$" horiz-adv-x="1519" 
d="M1018 1843h123l-70 -389q100 -4 180 -25t133 -54t91 -76.5t53.5 -93.5t20.5 -104.5t-7 -109.5h-151q11 45 8 88.5t-13.5 81.5t-41 69.5t-75 54.5t-114.5 35.5t-160 12.5q-118 0 -213.5 -26.5t-164.5 -88.5t-85 -153q-24 -132 68.5 -183.5t362.5 -99.5q207 -37 268 -55
q158 -46 206 -139q40 -76 19 -197q-31 -175 -190.5 -287t-434.5 -122l-67 -392h-123l68 392q-86 5 -159 21.5t-126 42.5t-95 60.5t-66.5 74t-40 84t-16 91t6.5 93.5h152q-13 -72 1 -131.5t59.5 -109.5t139.5 -78t230 -28q214 0 349.5 74.5t158.5 204.5q12 67 -3 110t-72 69
t-105.5 37.5t-159.5 29.5q-68 11 -105 18q-60 11 -108 22t-95.5 25t-83 29t-69.5 34.5t-55 42t-40 50.5t-25 60t-9 71t8 84q30 175 184 276t383 115z" />
    <glyph glyph-name="percent" unicode="%" horiz-adv-x="2074" 
d="M297 1012q36 208 158 325t297 117q174 0 254.5 -117t44.5 -325q-37 -208 -159 -325.5t-296 -117.5t-255 117.5t-44 325.5zM702 0l824 1434h96l-823 -1434h-97zM739 1380q-130 0 -226 -98t-126 -270q-31 -177 24.5 -273t196.5 -96q129 0 226 98.5t127 270.5
q31 176 -25.5 272t-196.5 96zM1319 97q-81 117 -45 325t158 325t297 117q174 0 254.5 -117t44.5 -325t-158 -325t-297 -117q-174 0 -254 117zM1716 791q-130 0 -226 -98.5t-126 -270.5q-31 -177 25.5 -273t197.5 -96q128 0 224 98.5t126 270.5q31 177 -25 273t-196 96z" />
    <glyph glyph-name="ampersand" unicode="&#x26;" horiz-adv-x="1501" 
d="M1522 657h-211l-39 -223q-12 -69 -40.5 -132.5t-79 -122.5t-118 -103t-163 -70t-207.5 -26q-89 0 -165.5 15t-138 47t-102 78.5t-56 113.5t-1.5 149q25 139 120.5 223t241.5 115q-209 74 -160 342q22 127 105.5 217.5t200 132t256.5 41.5q79 0 144.5 -13t110.5 -35.5
t78.5 -54t52 -67t28 -76.5t9 -80t-7.5 -79h-151q6 44 8.5 85t-13.5 77t-46 62.5t-89 42t-143 15.5q-67 0 -129.5 -15.5t-118 -46.5t-94 -85.5t-51.5 -126.5q-25 -139 30.5 -208t198.5 -69h760zM1159 657h-422q-337 0 -383 -260q-14 -80 5 -138.5t67 -92t113 -49t151 -15.5
q95 0 173 28t130 76t84 106t43 122z" />
    <glyph glyph-name="quotesingle" unicode="'" horiz-adv-x="471" 
d="M354 983l78 451h113l-109 -451h-82z" />
    <glyph glyph-name="parenleft" unicode="(" horiz-adv-x="747" 
d="M379 522q-20 -112 -23.5 -211.5t4.5 -173t28 -139t42 -109.5t53 -85.5t53 -64.5t49 -49q15 -14 21 -20l-86 -80q-31 22 -59 45.5t-67 67.5t-68.5 94t-57 125.5t-40.5 160t-10.5 198.5t24.5 241t60.5 241.5t80.5 198t95 159t97.5 124t96 92t82 64.5t63.5 41l57 -80
q-8 -7 -44 -35.5t-60.5 -49t-67 -64t-74.5 -85t-72.5 -107t-70.5 -135.5t-59 -164.5t-47 -199.5z" />
    <glyph glyph-name="parenright" unicode=")" horiz-adv-x="747" 
d="M555 522q18 105 22.5 199.5t-1 164.5t-23 135.5t-34.5 107t-45 85t-45 64t-43 49t-32 35.5l86 80q26 -20 49 -40.5t59.5 -64.5t64 -92.5t54.5 -124t39.5 -159t10 -198t-24.5 -241.5q-31 -175 -92 -325.5t-125 -245.5t-145 -175t-134 -117t-110 -69l-57 80q104 77 117 88
q256 208 362 565q29 94 47 199z" />
    <glyph glyph-name="asterisk" unicode="*" horiz-adv-x="1093" 
d="M381 805l305 276l-311 174l59 78l287 -209l49 400h90l-92 -400l360 209l31 -78l-371 -174l205 -276l-78 -57l-180 315l-295 -315z" />
    <glyph glyph-name="plus" unicode="+" horiz-adv-x="1003" 
d="M252 563h297l53 297h103l-54 -297h297l-16 -102h-297l-53 -297h-103l53 297h-296z" />
    <glyph glyph-name="comma" unicode="," horiz-adv-x="561" 
d="M403 47l-192 -270h-84l127 205q-43 9 -65 44.5t-15 82.5q9 53 53 88.5t99 35.5q52 0 81.5 -35.5t20.5 -88.5q-6 -33 -25 -62z" />
    <glyph glyph-name="hyphen" unicode="-" horiz-adv-x="921" 
d="M252 563h614l-16 -102h-614z" />
    <glyph glyph-name="period" unicode="." horiz-adv-x="561" 
d="M172 109q9 53 53 88.5t99 35.5q52 0 81.5 -35.5t20.5 -88.5q-9 -55 -51.5 -92t-95.5 -37q-55 0 -85.5 36.5t-21.5 92.5z" />
    <glyph glyph-name="slash" unicode="/" horiz-adv-x="802" 
d="M119 0l702 1434h117l-702 -1434h-117z" />
    <glyph glyph-name="zero" unicode="0" horiz-adv-x="1554" 
d="M350 176q-135 196 -74 541t265 541t493 196q291 0 426 -196t74 -541t-265 -541t-495 -196q-289 0 -424 196zM1014 1331q-214 0 -375 -164t-211 -450q-53 -295 40 -455t329 -160q213 0 373 164t212 451q52 296 -40 455t-328 159z" />
    <glyph glyph-name="one" unicode="1" horiz-adv-x="952" 
d="M913 1434h107l-252 -1434h-147l225 1278l-531 -225l-26 114z" />
    <glyph glyph-name="two" unicode="2" horiz-adv-x="1380" 
d="M209 123l602 465q148 114 224 189.5t104.5 129.5t42.5 129q29 160 -52.5 228.5t-250.5 68.5q-94 0 -171 -33.5t-128 -91t-83 -125t-46 -143.5h-152q13 74 40 143t76 138t113.5 120t158.5 83t206 32q84 0 155.5 -15t132 -46.5t98.5 -81.5t54.5 -120t-0.5 -161
q-16 -87 -54.5 -156.5t-138.5 -167.5t-280 -231l-473 -354h885l-23 -123h-1063z" />
    <glyph glyph-name="three" unicode="3" horiz-adv-x="1339" 
d="M653 657l4 21h-2l19 102h168q140 0 218.5 66.5t104.5 210.5q25 145 -51.5 212.5t-243.5 67.5q-90 0 -160.5 -27.5t-116 -77t-73.5 -110t-41 -135.5h-151q13 74 39 139.5t72 127t107.5 105.5t150 70.5t194.5 26.5q142 0 244 -42t152 -131.5t28 -215.5q-46 -248 -230 -338
q112 -37 163.5 -122t27.5 -218q-24 -132 -114 -226t-215.5 -137.5t-274.5 -43.5q-91 0 -167 18.5t-128 51t-91 77t-56.5 96t-24 107.5t5.5 112h151q-7 -54 -5.5 -103.5t24 -93t60.5 -75t103.5 -50t151.5 -18.5q71 0 139 17t129 51t104 92.5t56 134.5q25 138 -51.5 198
t-234.5 60h-185z" />
    <glyph glyph-name="four" unicode="4" horiz-adv-x="1478" 
d="M1204 1436h139l-159 -904h286l-22 -122h-287l-71 -410h-148l72 410h-840l16 92zM375 532h661l131 736z" />
    <glyph glyph-name="five" unicode="5" horiz-adv-x="1271" 
d="M358 711l230 723h733l-21 -123h-604l-145 -459q136 82 278 82q86 0 164.5 -32t136.5 -90t84 -150t7 -201t-76.5 -201t-137.5 -152.5t-175.5 -94t-194.5 -33.5t-184 33t-145.5 93t-87 152t-7.5 201h147q-29 -162 55 -258.5t238 -96.5q132 0 259 98.5t155 254.5
q29 162 -51.5 257t-233.5 95q-161 0 -276 -98h-148z" />
    <glyph glyph-name="six" unicode="6" horiz-adv-x="1312" 
d="M825 950q99 0 184 -34t145 -95t86 -154t7 -202t-78 -202t-141 -154t-179 -95t-196 -34q-100 0 -185.5 34t-145 95t-85 153.5t-6.5 202.5q33 185 175 317l626 652h174l-473 -492q62 8 92 8zM676 102q62 0 128.5 25t126.5 70t105 115.5t60 152.5q30 169 -53 265.5
t-240 96.5q-83 0 -170 -41t-159 -126.5t-91 -194.5q-30 -167 54 -265t239 -98z" />
    <glyph glyph-name="seven" unicode="7" horiz-adv-x="1110" 
d="M1280 1434l-18 -115l-826 -1319h-166l830 1311h-787l21 123h946z" />
    <glyph glyph-name="eight" unicode="8" horiz-adv-x="1386" 
d="M567 1358q155 98 383 98t349 -98t90 -281q-21 -118 -99 -204.5t-196 -133.5q118 -46 176.5 -138t36.5 -222q-18 -99 -75.5 -176.5t-142 -125.5t-186 -72.5t-213.5 -24.5t-204.5 24.5t-160 72.5t-97 125.5t-11.5 176.5q22 130 113 221.5t225 138.5q-102 47 -148.5 133
t-25.5 205q31 183 186 281zM587 864q81 -67 249 -67t271.5 67t127.5 201q23 134 -57 201t-248 67q-157 0 -267.5 -68.5t-132.5 -199.5q-24 -134 57 -201zM713 102q77 0 148.5 17t133.5 50.5t105.5 90t56.5 129.5q17 99 -25.5 164.5t-123.5 93t-195 27.5t-204.5 -27.5
t-155.5 -93t-82 -164.5q-27 -146 64 -216.5t278 -70.5z" />
    <glyph glyph-name="nine" unicode="9" horiz-adv-x="1312" 
d="M745 487q-99 0 -184.5 34t-145.5 94.5t-86 153t-7 202.5q19 109 77 202t139.5 154t179.5 95t197 34q100 0 185.5 -34t144.5 -95t85 -153.5t7 -202.5q-36 -194 -184 -326l-616 -645h-175l474 494q-54 -7 -91 -7zM895 1333q-84 0 -171.5 -41t-159.5 -126t-91 -195
q-30 -168 53.5 -265.5t239.5 -97.5q61 0 127.5 25t126.5 70t105.5 115.5t60.5 152.5q30 169 -53 265.5t-238 96.5z" />
    <glyph glyph-name="colon" unicode=":" horiz-adv-x="561" 
d="M315 920q9 53 53 88.5t99 35.5q52 0 81.5 -35.5t20.5 -88.5q-9 -55 -51.5 -92t-95.5 -37q-55 0 -85.5 36.5t-21.5 92.5zM172 109q9 53 53 88.5t99 35.5q52 0 81.5 -35.5t20.5 -88.5q-9 -55 -51.5 -92t-95.5 -37q-55 0 -85.5 36.5t-21.5 92.5z" />
    <glyph glyph-name="semicolon" unicode=";" horiz-adv-x="561" 
d="M315 920q9 53 53 88.5t99 35.5q52 0 81.5 -35.5t20.5 -88.5q-9 -55 -51.5 -92t-95.5 -37q-55 0 -85.5 36.5t-21.5 92.5zM172 109q9 53 53 90t99 37q52 0 81.5 -37t20.5 -90q-6 -44 -37 -78l-180 -254h-82l125 205q-43 9 -65 44.5t-15 82.5z" />
    <glyph glyph-name="less" unicode="&#x3c;" horiz-adv-x="985" 
d="M209 510l825 430l-22 -137l-676 -342l555 -342l-23 -117l-673 430z" />
    <glyph glyph-name="equal" unicode="=" horiz-adv-x="1003" 
d="M283 737h696l-16 -102h-697zM223 389h697l-19 -102h-696z" />
    <glyph glyph-name="greater" unicode="&#x3e;" horiz-adv-x="985" 
d="M958 510l-14 -78l-825 -430l22 135l678 344l-557 344l23 115z" />
    <glyph glyph-name="question" unicode="?" horiz-adv-x="1247" 
d="M616 446l15 72q10 57 21.5 93t26.5 65t45.5 55t64 48t96.5 57q12 7 44.5 24.5t45.5 26t39 26.5t39 34.5t30 40.5t27.5 54.5t17.5 67.5q12 69 -0.5 114t-50 67.5t-85.5 31t-120 8.5q-90 0 -159 -25.5t-112 -72t-69 -102t-38 -123.5h-152q13 75 35.5 136t65 120.5
t101.5 99.5t149 65t204 25q61 0 112 -6.5t100.5 -21.5t83.5 -40t60 -63t31 -89.5t-4 -119.5q-11 -63 -32.5 -115t-46.5 -87.5t-63.5 -69t-72 -55t-84.5 -50.5q-114 -66 -140 -88q-41 -36 -58 -102l-7 -35l-12 -66h-148zM508 104q9 52 51.5 87.5t95.5 35.5q52 0 81 -35
t20 -88q-9 -54 -51 -89t-95 -35t-82 35t-20 89z" />
    <glyph glyph-name="at" unicode="@" horiz-adv-x="2269" 
d="M641 512q37 212 184.5 346.5t345.5 134.5q114 0 203 -53.5t131 -142.5l31 178h139l-151 -850h381q88 154 123 346q28 172 8.5 315t-84 256t-162 191t-224.5 119t-272 41q-111 0 -225.5 -29t-223 -83t-207.5 -135.5t-178 -181.5t-136.5 -227t-81.5 -266q-29 -171 -10 -314
t82.5 -255.5t160 -190.5t223.5 -119t273 -41q71 0 157 13v-62q-80 -14 -167 -14q-146 0 -279.5 43t-241.5 125.5t-181 202.5t-98.5 273.5t5.5 338.5q32 180 114 339t196 275.5t252 201t286 127t293 42.5q146 0 279.5 -43t241 -125.5t180.5 -202.5t98.5 -274t-5.5 -340
q-42 -231 -159 -420h-568l33 182q-74 -91 -181 -145.5t-222 -54.5q-198 0 -299.5 133.5t-63.5 345.5zM1059 147q70 0 151.5 34t148.5 101t81 146l33 178q18 119 -66.5 196t-218.5 77q-146 0 -261.5 -103t-144.5 -264q-30 -167 39 -266t238 -99z" />
    <glyph glyph-name="A" unicode="A" horiz-adv-x="1601" 
d="M979 1434h147l394 -1434h-140l-100 373h-811l-231 -373h-156zM547 496h702l-213 792z" />
    <glyph glyph-name="B" unicode="B" horiz-adv-x="1439" 
d="M184 0l254 1434h566q53 0 98 -4.5t112.5 -26t110 -59t66.5 -112.5t6 -177q-40 -221 -238 -316q39 -13 71 -30.5t63.5 -46.5t48 -66t25 -89t-4.5 -116q-13 -74 -43 -134.5t-67 -100.5t-85 -70t-92 -46t-93.5 -25.5t-83 -12t-67.5 -2.5h-647zM471 782h406h31t39 2t48 6
t49 13t52 21.5t47 33t44 46.5t32.5 62.5t23.5 80.5q13 75 -3 128.5t-43.5 79t-77.5 39.5t-77.5 15.5t-70.5 1.5h-408zM354 123h484q18 0 36.5 1t53.5 7t66 16t67.5 30.5t64.5 48t51 71.5t33 98q13 76 -3.5 130.5t-45 80t-78.5 39.5t-77 15.5t-67 1.5h-3.5h-3.5h-483z" />
    <glyph glyph-name="C" unicode="C" horiz-adv-x="1683" 
d="M430 717q-14 -79 -14 -149q0 -62 17.5 -147t82.5 -162.5t161 -117t216 -39.5q112 0 217 38t180 98t125 133t62 145h151q-13 -72 -52 -146.5t-107 -144.5t-154.5 -124.5t-202 -87.5t-242.5 -33q-148 0 -270.5 51.5t-204 145t-106 200t-24.5 186.5q0 74 14 154
q29 167 111 307t196.5 233.5t255 145t288.5 51.5q127 0 231 -33t171.5 -87.5t110.5 -124.5t53 -126t10 -94q0 -36 -6 -71h-152q7 29 7 57q0 20 -5.5 54.5t-22 80t-54 86t-86 70.5t-120.5 47.5t-157 17.5q-106 0 -213 -40t-202.5 -114t-167 -194t-97.5 -266z" />
    <glyph glyph-name="D" unicode="D" horiz-adv-x="1640" 
d="M995 1434q118 0 223 -30t189 -89t139.5 -145.5t75.5 -200t-4 -252.5q-24 -135 -85 -251.5t-146 -201t-190.5 -145t-220.5 -90t-233 -29.5h-559l252 1434h559zM354 123h412q113 0 224.5 39t209 111.5t169.5 187.5t97 256q25 142 -0.5 256t-93.5 187.5t-169 112t-228 38.5
h-412z" />
    <glyph glyph-name="E" unicode="E" horiz-adv-x="1292" 
d="M438 1434h989l-20 -123h-842l-90 -504h780l-20 -123h-780l-99 -561h842l-22 -123h-990z" />
    <glyph glyph-name="F" unicode="F" horiz-adv-x="1251" 
d="M438 1434h979l-20 -123h-834l-94 -541h770l-20 -123h-773l-112 -645h-148z" />
    <glyph glyph-name="G" unicode="G" horiz-adv-x="1703" 
d="M430 727q-15 -85 -15 -158q0 -182 112 -317t393 -135q215 0 389 128.5t223 336.5h-614l20 118h741l-123 -700h-126l47 268q-101 -128 -254.5 -201t-341.5 -73q-154 0 -278.5 50.5t-207 143t-107 198.5t-24.5 185q0 75 15 156q39 221 170.5 388.5t314 253t385.5 85.5
q145 0 261.5 -46t183.5 -118.5t92 -145t25 -129.5q0 -29 -5 -57h-152q5 26 5 52q0 42 -16 94.5t-65.5 106.5t-140.5 87t-211 33q-117 0 -230 -40t-208 -114t-164 -190.5t-94 -259.5z" />
    <glyph glyph-name="H" unicode="H" horiz-adv-x="1726" 
d="M436 1434h148l-113 -639h1063l113 639h147l-252 -1434h-147l118 672h-1062l-119 -672h-148z" />
    <glyph glyph-name="I" unicode="I" horiz-adv-x="516" 
d="M436 1434h148l-252 -1434h-148z" />
    <glyph glyph-name="J" unicode="J" horiz-adv-x="1318" 
d="M1239 1434h147l-161 -922q-42 -242 -202.5 -387t-395.5 -145q-242 0 -348.5 144.5t-63.5 393.5h147q-35 -199 33.5 -307.5t253.5 -108.5q154 0 275 113t153 297z" />
    <glyph glyph-name="K" unicode="K" horiz-adv-x="1400" 
d="M436 1434h148l-121 -695h229l645 695h176l-704 -750l510 -684h-186l-453 616h-240l-108 -616h-148z" />
    <glyph glyph-name="L" unicode="L" horiz-adv-x="1323" 
d="M436 1434h148l-230 -1311h873l-23 -123h-1020z" />
    <glyph glyph-name="M" unicode="M" horiz-adv-x="1896" 
d="M436 1434h144l397 -1272l844 1272h143l-252 -1434h-143l194 1112l-731 -1112h-151l-351 1153l-202 -1153h-144z" />
    <glyph glyph-name="N" unicode="N" horiz-adv-x="1722" 
d="M436 1434h148l843 -1229l215 1229h148l-252 -1434h-147l-844 1217l-215 -1217h-148z" />
    <glyph glyph-name="O" unicode="O" horiz-adv-x="1789" 
d="M287 408q-21 79 -21 166q0 69 21.5 190t108.5 262.5t207.5 233.5t263 143t286.5 51q145 0 270.5 -51t214 -143t118 -202.5t29.5 -197.5q0 -69 -13 -143q-24 -135 -85.5 -254t-148.5 -206t-192.5 -150.5t-221 -95t-231.5 -31.5q-145 0 -269.5 51t-212 143t-124.5 234z
M1133 1331q-109 0 -222.5 -42.5t-211.5 -119t-171 -195t-98 -257.5q-12 -69 -12 -132q0 -65 19.5 -153.5t86 -166t167 -120.5t224.5 -43q109 0 222.5 43t212.5 120t172 195.5t98 256.5q12 69 12 132q0 66 -19.5 154.5t-86.5 165.5t-168 119.5t-225 42.5z" />
    <glyph glyph-name="P" unicode="P" horiz-adv-x="1425" 
d="M1057 1434q23 0 48.5 -2.5t61 -9t68.5 -18.5t70 -30.5t66 -44.5t56 -61.5t39.5 -81t18 -103t-9.5 -127.5q-15 -87 -49.5 -159t-78 -120t-97 -85.5t-103.5 -58t-103 -33.5t-89 -17t-66 -4h-473l-84 -479h-148l252 1434h621zM438 602h463q16 0 39 3t60.5 12t74.5 24
t77.5 42.5t73.5 63.5t59.5 90t37.5 119q11 53 8 96t-11 77t-26.5 60t-38 45.5t-46 33t-49.5 22t-49.5 13.5t-46 6.5t-38.5 1.5h-465z" />
    <glyph glyph-name="Q" unicode="Q" horiz-adv-x="1789" 
d="M1411 -410l-285 422q-109 -32 -235 -32q-115 0 -219 32t-186.5 94t-138.5 151.5t-75.5 205t4.5 254.5q24 135 85.5 254t148 206t191.5 150.5t220 95t230 31.5q116 0 220 -32t187.5 -94t139.5 -151.5t75 -205t-4 -254.5q-40 -226 -176.5 -394.5t-330.5 -259.5l319 -473
h-170zM1130 1331q-87 0 -177 -26.5t-175.5 -79.5t-156 -125.5t-122 -171.5t-71.5 -211q-25 -140 1 -257t92.5 -194.5t167 -120.5t224.5 -43q109 0 222.5 43t212.5 120t172 195.5t98 256.5q25 141 -1 258t-93.5 194t-168.5 119.5t-225 42.5z" />
    <glyph glyph-name="R" unicode="R" horiz-adv-x="1464" 
d="M1073 1434q24 0 51 -2.5t62.5 -9t69 -18t70 -29t65.5 -42t55.5 -57t40 -74t19.5 -94t-7 -115.5q-16 -93 -59 -168.5t-96 -122.5t-119 -81t-121 -50t-111 -24l307 -547h-172l-301 541h-399l-96 -541h-148l252 1434h637zM449 664h479q26 0 63.5 6t96 27t108.5 53.5t93 94.5
t57 142t-3.5 141t-52 94.5t-83.5 54.5t-88.5 27.5t-76.5 6.5h-479z" />
    <glyph glyph-name="S" unicode="S" horiz-adv-x="1519" 
d="M365 449q-13 -72 1 -131.5t59.5 -109.5t139.5 -78t230 -28q214 0 349.5 74.5t158.5 204.5q12 67 -3 110t-72 69t-105.5 37.5t-159.5 29.5q-68 11 -105 18q-54 10 -98 20t-87.5 22t-78 25t-66.5 29t-55.5 34.5t-43.5 41t-32 48.5t-19 56t-6.5 65.5t7.5 76.5
q23 126 113.5 216t224.5 133.5t299 43.5q111 0 200.5 -18.5t148 -51t101 -76.5t60 -95.5t23.5 -108.5t-7 -115h-151q11 45 8 88.5t-13.5 81.5t-41 69.5t-75 54.5t-114.5 35.5t-160 12.5q-118 0 -213.5 -26.5t-164.5 -88.5t-85 -153q-24 -132 68.5 -183.5t362.5 -99.5
q207 -37 268 -55q158 -46 206 -139q40 -76 19 -197q-32 -184 -205.5 -297.5t-472.5 -113.5q-86 0 -160 10.5t-131 30t-104 47t-78 60.5t-54.5 71t-32.5 79t-11.5 84.5t6.5 86.5h152z" />
    <glyph glyph-name="T" unicode="T" horiz-adv-x="1452" 
d="M340 1434h1278l-21 -123h-565l-231 -1311h-148l232 1311h-566z" />
    <glyph glyph-name="U" unicode="U" horiz-adv-x="1574" 
d="M1495 1434h147l-147 -840q-54 -311 -237.5 -462.5t-481.5 -151.5q-296 0 -400 127t-104 309q0 81 17 178l147 840h148l-148 -840q-16 -89 -16 -162q0 -136 70.5 -233t308.5 -97q218 0 362 122t187 370z" />
    <glyph glyph-name="V" unicode="V" horiz-adv-x="1611" 
d="M733 0l-393 1434h147l338 -1284l787 1284h166l-897 -1434h-148z" />
    <glyph glyph-name="W" unicode="W" horiz-adv-x="2140" 
d="M549 0l-209 1434h149l166 -1217l578 1217h166l149 -1215l590 1215h166l-717 -1434h-151l-154 1198l-575 -1198h-158z" />
    <glyph glyph-name="X" unicode="X" horiz-adv-x="1624" 
d="M88 0l766 745l-440 689h178l369 -603l573 603h197l-684 -699l483 -735h-178l-412 657l-653 -657h-199z" />
    <glyph glyph-name="Y" unicode="Y" horiz-adv-x="1540" 
d="M772 430l-432 1004h160l358 -875l668 875h180l-786 -1004l-76 -430h-148z" />
    <glyph glyph-name="Z" unicode="Z" horiz-adv-x="1292" 
d="M1403 1434l-19 -115l-1085 -1196h928l-23 -123h-1116l21 115l1087 1196h-860l20 123h1047z" />
    <glyph glyph-name="bracketleft" unicode="[" horiz-adv-x="841" 
d="M436 1434h525l-21 -123h-399l-279 -1598h395l-20 -123h-524l20 123h2z" />
    <glyph glyph-name="backslash" unicode="\" horiz-adv-x="802" 
d="M686 0h-117l-198 1434h116z" />
    <glyph glyph-name="bracketright" unicode="]" horiz-adv-x="841" 
d="M954 1434l-20 -123h-2l-301 -1721h-522l20 123h397l279 1598h-393l20 123h522z" />
    <glyph glyph-name="asciicircum" unicode="^" horiz-adv-x="1003" 
d="M303 850l397 584h107l192 -584h-118l-146 473l-311 -473h-121z" />
    <glyph glyph-name="underscore" unicode="_" horiz-adv-x="1003" 
d="M219 369h696l-18 -103h-696z" />
    <glyph glyph-name="grave" unicode="`" horiz-adv-x="468" 
d="M549 1145h-107l-80 330h121z" />
    <glyph glyph-name="a" unicode="a" horiz-adv-x="1224" 
d="M420 1024h362q126 0 204.5 -30.5t109.5 -85.5t34.5 -102t3.5 -66q0 -61 -14 -130l-53 -297q-9 -50 -9 -86q0 -43 18.5 -75.5t119.5 -32.5h21l-21 -119h-96q-118 1 -151 39.5t-33 111.5q0 21 2 46q-66 -98 -172.5 -157.5t-245.5 -59.5q-188 0 -256 58.5t-68 160.5
q0 38 19 144.5t116.5 175.5t292.5 69h369l2 20q15 91 16.5 125.5t1.5 36.5q0 63 -57 99t-191 36h-346zM952 471h-362q-223 0 -258 -188q-6 -32 -6 -59q0 -63 41.5 -94.5t185.5 -31.5q137 0 249 82t134 199z" />
    <glyph glyph-name="b" unicode="b" horiz-adv-x="1353" 
d="M1246 896q112 -149 71 -384t-206.5 -383.5t-389.5 -148.5q-130 0 -232.5 59.5t-146.5 161.5l-35 -201h-143l252 1434h143l-106 -611q82 103 204.5 162t251.5 59q224 0 337 -148zM381 416q-25 -135 69 -226.5t252 -91.5q106 0 204.5 51t170 147t92.5 216q34 190 -49.5 302
t-269.5 112q-85 0 -179 -40t-167 -114.5t-88 -161.5z" />
    <glyph glyph-name="c" unicode="c" 
d="M367 512q-10 -55 -10 -103q0 -123 74.5 -217t258.5 -94q138 0 251.5 85.5t131.5 183.5h148q-12 -67 -54 -134t-109.5 -124.5t-168.5 -93t-217 -35.5q-240 0 -352 125.5t-112 289.5q0 55 11 117q29 163 122 285t227.5 184.5t291.5 62.5q116 0 204.5 -35.5t135.5 -92.5
t62 -111t15 -95q0 -26 -5 -53h-148q3 19 3 38q0 28 -9.5 65t-41 77t-93 64.5t-145.5 24.5q-161 0 -299 -112.5t-172 -301.5z" />
    <glyph glyph-name="d" unicode="d" horiz-adv-x="1353" 
d="M291 129q-113 148 -72 383t206.5 383.5t389.5 148.5q126 0 228.5 -59t148.5 -158l106 607h144l-252 -1434h-143l34 197q-83 -101 -205 -159t-249 -58q-224 0 -336 149zM684 98q85 0 179 40.5t167.5 115.5t89.5 162l35 194q23 135 -71.5 225.5t-252.5 90.5
q-163 0 -297 -115.5t-167 -298.5q-33 -190 49 -302t268 -112z" />
    <glyph glyph-name="e" unicode="e" 
d="M354 469q-4 -35 -4 -67q0 -135 77 -219.5t239 -84.5q133 0 251 75.5t134 158.5h147q-15 -62 -61 -123t-115.5 -113t-170 -84t-212.5 -32q-105 0 -191.5 36.5t-145 103.5t-76.5 144t-18 135q0 54 16.5 144.5t75 192t141 168.5t182 103.5t204.5 36.5q231 0 330.5 -122
t99.5 -284q0 -50 -8 -106l-12 -63h-883zM1108 588q2 29 2 55q0 134 -69 208.5t-228 74.5q-84 0 -167.5 -35.5t-157 -114.5t-107.5 -188h727z" />
    <glyph glyph-name="f" unicode="f" horiz-adv-x="872" 
d="M1026 1337h-152q-128 0 -186 -48.5t-82 -186.5l-14 -78h381l-21 -119h-381l-159 -905h-144l160 905h-184l20 119h187l16 98q57 331 383 334h197z" />
    <glyph glyph-name="g" unicode="g" horiz-adv-x="1353" 
d="M231 -291h387q184 0 297.5 94.5t145.5 274.5l20 119q-83 -101 -205 -159t-249 -58q-224 0 -321.5 128.5t-97.5 284.5q0 56 26 205t191.5 297.5t389.5 148.5q126 0 228.5 -59t148.5 -158l35 197h143l-164 -932q-42 -242 -190.5 -372t-407.5 -130h-397zM684 98
q85 0 179 40.5t167.5 115.5t89.5 162l35 194q5 26 5 51q0 102 -85.5 183.5t-243.5 81.5q-163 0 -297 -115.5t-167 -298.5q-9 -55 -9 -103q0 -119 70 -215t256 -96z" />
    <glyph glyph-name="h" unicode="h" horiz-adv-x="1277" 
d="M416 1434h143l-108 -621q81 106 199.5 168.5t244.5 62.5q111 0 185.5 -30.5t109 -85t44.5 -130.5t-9 -167l-111 -631h-143l106 600q15 72 11.5 132t-27 103t-84 67t-158.5 24q-84 0 -171 -43.5t-154 -123.5t-84 -175l-103 -584h-143z" />
    <glyph glyph-name="i" unicode="i" horiz-adv-x="440" 
d="M358 1370q8 43 45 74t82 31q43 0 67.5 -31t16.5 -74q-8 -44 -42.5 -75t-77.5 -31q-46 0 -72.5 31t-18.5 75zM330 1024h143l-180 -1024h-143z" />
    <glyph glyph-name="j" unicode="j" horiz-adv-x="440" 
d="M356 1370q8 43 45 74t82 31q43 0 67.5 -31t16.5 -74q-7 -44 -42.5 -75t-78.5 -31q-46 0 -72 31t-18 75zM-250 -291h119q128 0 188 52t84 188l189 1075h143l-194 -1100q-57 -334 -383 -334h-166z" />
    <glyph glyph-name="k" unicode="k" horiz-adv-x="1208" 
d="M416 1434h143l-147 -842h213l444 432h166l-508 -487l383 -537h-172l-330 473h-217l-84 -473h-143z" />
    <glyph glyph-name="l" unicode="l" horiz-adv-x="522" 
d="M512 119l-20 -119h-95q-137 1 -175 59t-11 207l205 1168h143l-197 -1121q-24 -120 -2.5 -157t125.5 -37h27z" />
    <glyph glyph-name="m" unicode="m" horiz-adv-x="1990" 
d="M344 1024h143l-41 -238q73 118 186.5 188t235.5 70q164 0 242 -75.5t80 -210.5q70 129 189.5 207.5t248.5 78.5q382 0 309 -413l-110 -631h-144l107 604q15 72 10 131.5t-29 102t-78.5 65.5t-138.5 23q-127 0 -242 -97t-141 -239l-104 -590h-143l106 604q16 98 5.5 169.5
t-70 112t-170.5 40.5q-127 0 -243 -97t-140 -239l-105 -590h-143z" />
    <glyph glyph-name="n" unicode="n" horiz-adv-x="1277" 
d="M344 1024h143l-36 -211q81 106 199.5 168.5t244.5 62.5q111 0 185.5 -30.5t109 -85t44.5 -130.5t-9 -167l-111 -631h-143l106 600q15 72 11.5 132t-27 103t-84 67t-158.5 24q-84 0 -171 -43.5t-154 -123.5t-84 -175l-103 -584h-143z" />
    <glyph glyph-name="o" unicode="o" horiz-adv-x="1345" 
d="M860 1044q107 0 198.5 -37t155.5 -103.5t85 -146t21 -143.5q0 -49 -9 -102q-28 -161 -128 -284.5t-233.5 -185.5t-277.5 -62q-107 0 -198.5 37t-155.5 103.5t-85 146t-21 143.5q0 49 9 102q28 161 128 284.5t233.5 185.5t277.5 62zM692 98q71 0 146.5 29.5t142 81.5
t116.5 131.5t66 171.5q9 50 9 95q0 123 -79 221t-253 98q-71 0 -146.5 -29.5t-142 -81.5t-116.5 -131.5t-66 -171.5q-9 -50 -9 -95q0 -123 79 -221t253 -98z" />
    <glyph glyph-name="p" unicode="p" horiz-adv-x="1353" 
d="M344 1024h143l-34 -201q82 102 204.5 161.5t251.5 59.5q224 0 321.5 -128.5t97.5 -284.5q0 -56 -26 -205t-191.5 -297.5t-389.5 -148.5q-129 0 -232 59t-147 160l-106 -609h-144zM381 416q-5 -28 -5 -55q0 -99 84 -181t242 -82q106 0 204.5 51t170 147t92.5 216
q10 55 10 103q0 119 -71.5 215t-257.5 96q-85 0 -179 -40t-167 -114.5t-88 -161.5l-35 -188v-6z" />
    <glyph glyph-name="q" unicode="q" horiz-adv-x="1353" 
d="M1370 1024l-252 -1434h-143l106 607q-83 -101 -205 -159t-249 -58q-224 0 -321.5 128.5t-97.5 284.5q0 56 26 205t191.5 297.5t389.5 148.5q126 0 228 -58t149 -157l35 195h143zM1118 403l39 230q1 14 1 28q0 108 -88 186.5t-239 78.5q-163 0 -297 -115.5t-167 -298.5
q-9 -55 -9 -103q0 -119 70 -215t256 -96q83 0 175 38.5t165.5 110.5t93.5 156z" />
    <glyph glyph-name="r" unicode="r" horiz-adv-x="829" 
d="M344 1024h143l-32 -190q72 98 174 154t219 56h100l-20 -118h-142q-140 0 -245 -97t-133 -256l-101 -573h-143z" />
    <glyph glyph-name="s" unicode="s" horiz-adv-x="1185" 
d="M334 322q-19 -99 50 -161.5t241 -62.5q133 0 231.5 49t110.5 119q14 79 -47.5 109t-247.5 63q-104 18 -173 40.5t-122 59t-72 91.5t-6 131q18 96 87.5 162t165 95.5t210.5 29.5t201 -30.5t132 -81t64 -109.5t8 -121h-147q17 100 -48.5 161.5t-236.5 61.5
q-109 0 -195.5 -44t-99.5 -118q-16 -86 49 -124q46 -26 193 -53q8 -1 25 -4l26 -5q85 -15 139.5 -28.5t109.5 -37t83 -53t41 -75t2 -105.5q-24 -133 -161 -217t-341 -84q-96 0 -173 20t-126 54t-80 78.5t-40.5 92.5t-0.5 97h148z" />
    <glyph glyph-name="t" unicode="t" horiz-adv-x="878" 
d="M262 1024h187l43 246h143l-43 -246h385l-21 -119h-385l-96 -547q-24 -136 17.5 -187.5t169.5 -51.5h155l-20 -119h-203q-327 0 -266 334l100 571h-186z" />
    <glyph glyph-name="u" unicode="u" horiz-adv-x="1329" 
d="M1319 119l-21 -119h-94q-124 1 -165 48t-29 163q-80 -105 -200.5 -168t-246.5 -63q-404 0 -330 415l111 629h143l-104 -598q-16 -72 -12.5 -132.5t26.5 -104t83.5 -67.5t158.5 -24q84 0 171.5 43.5t154.5 123.5t84 175l102 584h143l-125 -711q-24 -104 -0.5 -149
t123.5 -45h27z" />
    <glyph glyph-name="v" unicode="v" horiz-adv-x="1241" 
d="M262 1024h158l223 -840l518 840h178l-647 -1024h-143z" />
    <glyph glyph-name="w" unicode="w" horiz-adv-x="1579" 
d="M262 1024h154l80 -803l387 803h168l104 -793l358 793h164l-487 -1024h-148l-108 807l-391 -807h-154z" />
    <glyph glyph-name="x" unicode="x" horiz-adv-x="1280" 
d="M82 0l557 535l-328 489h174l256 -395l394 395h202l-503 -492l364 -532h-178l-289 438l-442 -438h-207z" />
    <glyph glyph-name="y" unicode="y" horiz-adv-x="1202" 
d="M1300 1024l-632 -1044q-97 -160 -136 -209q-82 -104 -194 -143q-109 -38 -297 -38l20 119q88 0 152 11t104 26.5t75 49t54 61t52 81.5q18 30 28 46l11 20l-273 1020h144l225 -848l508 848h159z" />
    <glyph glyph-name="z" unicode="z" horiz-adv-x="1081" 
d="M1133 1024l-17 -100l-811 -805h717l-21 -119h-903l19 100l813 805h-656l21 119h838z" />
    <glyph glyph-name="braceleft" unicode="{" horiz-adv-x="972" 
d="M274 582q97 10 149 41.5t85 104.5t59 220q26 148 62.5 243t92 149.5t123 75t167.5 20.5h133l-23 -125h-135q-87 0 -139.5 -31t-91 -117t-66.5 -250q-18 -102 -46 -173t-68.5 -116.5t-88.5 -70t-114 -39.5q49 -12 83 -29.5t60 -47.5t37.5 -73t11 -105t-15.5 -144
q-16 -90 -23 -144t-7 -104t9.5 -75t33 -44t57.5 -25t88 -6h135l-23 -125h-133q-80 0 -133 13t-92 45t-55 88t-14.5 140.5t22.5 203.5q16 88 19.5 146t-3 99.5t-30 65t-58 36.5t-90.5 20l-49 6l20 118z" />
    <glyph glyph-name="bar" unicode="|" horiz-adv-x="485" 
d="M436 1434h117l-324 -1844h-116z" />
    <glyph glyph-name="braceright" unicode="}" horiz-adv-x="972" 
d="M903 582l47 -9l-20 -118l-49 -6q-74 -9 -118 -26.5t-78.5 -59t-55.5 -106.5t-41 -175q-26 -149 -62.5 -244t-92 -150t-123 -75.5t-167.5 -20.5h-133l23 125h135q88 0 140.5 31t90 117t66.5 250q35 198 108 284t207 115q-49 12 -83 29.5t-59.5 47.5t-36.5 73t-10.5 105
t15.5 144q12 68 18.5 112t10.5 88.5t2 70t-10 51t-21.5 37.5t-36 22.5t-51.5 13.5t-69 3h-136l23 125h133q80 0 133 -13t92 -45t55 -88t14.5 -139.5t-22.5 -202.5q-16 -89 -19.5 -147t3 -99.5t30 -65t58 -36t90.5 -18.5z" />
    <glyph glyph-name="asciitilde" unicode="~" horiz-adv-x="1298" 
d="M322 831q50 87 100 134t112 60t131 -2t166 -58q59 -26 97.5 -40t77.5 -23t65.5 -5.5t54 17.5t50 41t47.5 69l28 47l78 -35l-26 -47q-51 -87 -101 -133.5t-112 -59t-130 3t-167 58.5q-59 26 -97.5 40t-78 23t-66 5.5t-53.5 -17.5t-50 -41t-47 -69l-28 -49l-78 34z" />
    <glyph glyph-name="exclamdown" unicode="&#xa1;" horiz-adv-x="516" 
d="M297 922q10 54 52 89.5t95 35.5t82 -35.5t19 -89.5q-9 -53 -50.5 -88t-93.5 -35q-53 0 -83 35.5t-21 87.5zM113 -410l88 506l100 484h121l-74 -484l-88 -506h-147z" />
    <glyph glyph-name="cent" unicode="&#xa2;" horiz-adv-x="1292" 
d="M872 1434h123l-67 -394q98 -10 172 -48t113.5 -92.5t54.5 -117t4 -125.5h-148q8 48 -4 94t-43.5 86t-93 64.5t-145.5 24.5q-161 0 -299 -112.5t-172 -301.5q-34 -195 52.5 -304.5t270.5 -109.5q138 0 251.5 85.5t131.5 183.5h148q-24 -134 -154 -249t-328 -134l-67 -394
h-123l67 392q-216 18 -326.5 159t-70.5 371q27 153 111.5 270.5t207 182.5t267.5 77z" />
    <glyph glyph-name="sterling" unicode="&#xa3;" horiz-adv-x="1492" 
d="M575 1059q34 194 183 294.5t370 100.5q82 0 147.5 -14.5t111 -39.5t77.5 -60.5t49.5 -75.5t25 -88t6 -93.5t-10.5 -95.5h-152q11 61 13.5 105.5t-9 92.5t-40.5 77.5t-87 49t-143 19.5q-66 0 -128 -16t-117 -48.5t-94 -89t-52 -130.5l-61 -345h694l-21 -122h-694l-80 -457
h819l-22 -123h-971l103 580h-287l20 122h287z" />
    <glyph glyph-name="currency" unicode="&#xa4;" horiz-adv-x="1462" 
d="M1528 1247l-342 -289q65 -100 42.5 -230.5t-122.5 -231.5l237 -291l-65 -55l-238 288q-116 -82 -245 -82t-217 82l-340 -288l-48 57l340 289q-63 101 -40 231t122 229l-237 291l65 56l238 -289q116 82 245.5 82t217.5 -82l340 289zM621 522q69 -85 188 -85t217 85
q100 85 121.5 204t-47.5 204q-71 85 -190.5 85t-217.5 -85q-100 -85 -120.5 -204t49.5 -204z" />
    <glyph glyph-name="yen" unicode="&#xa5;" horiz-adv-x="1540" 
d="M416 506h323l-399 928h160l358 -875l668 875h180l-727 -928h328l-19 -103h-373l-20 -112h373l-19 -103h-372l-33 -188h-148l33 188h-371l19 103h371l20 112h-371z" />
    <glyph glyph-name="brokenbar" unicode="&#xa6;" horiz-adv-x="485" 
d="M436 1434h117l-125 -719h-117zM240 309h116l-127 -719h-116z" />
    <glyph glyph-name="section" unicode="&#xa7;" horiz-adv-x="1546" 
d="M276 -43q-12 -72 2 -131.5t59.5 -109t139.5 -77.5t230 -28q215 0 350 74.5t157 203.5q22 119 -58 172q-57 37 -220 65q-20 3 -63 10q-67 12 -103 18q-54 10 -97.5 19.5t-87 21.5t-77.5 25.5t-66 29.5t-55.5 34.5t-43.5 40.5t-32 48t-19 56.5t-6.5 65.5t7.5 76
q27 155 156 254q-67 85 -41 238q33 188 207 290.5t427 102.5q96 0 175.5 -13.5t136 -38t100.5 -58.5t68.5 -75t40 -87t14.5 -94.5t-8 -98.5h-152q11 45 8 88.5t-13.5 81.5t-40.5 69.5t-74.5 54.5t-114.5 35.5t-160 12.5q-118 0 -213.5 -26.5t-164.5 -88.5t-85 -153
q-10 -56 2 -96.5t39 -67.5t89.5 -49t125.5 -36t174 -34q207 -37 268 -55q159 -46 207 -139q40 -76 19 -197q-28 -158 -154 -260q64 -83 39 -231q-32 -184 -204.5 -298t-471.5 -114q-114 0 -207 18.5t-156.5 51.5t-110.5 78t-68 97t-29.5 109t4.5 115h151zM547 745
q-86 -70 -103 -172q-10 -56 3 -96.5t40 -67.5t90 -49t125.5 -35.5t174.5 -33.5q14 -3 75 -14t81.5 -15.5t63.5 -14t71.5 -19t54.5 -21.5q88 70 106 174q10 54 -3 93t-33 62t-76.5 41.5t-96.5 26.5t-130 23q-68 11 -105 18q-239 46 -338 100z" />
    <glyph glyph-name="dieresis" unicode="&#xa8;" horiz-adv-x="878" 
d="M348 1282q9 46 47.5 78.5t85.5 32.5q46 0 72.5 -32.5t17.5 -78.5q-7 -47 -45 -80t-84 -33q-47 0 -74.5 33t-19.5 80zM758 1282q9 46 47.5 78.5t85.5 32.5q46 0 72.5 -32.5t17.5 -78.5q-7 -47 -45 -80t-84 -33q-47 0 -74.5 33t-19.5 80z" />
    <glyph glyph-name="copyright" unicode="&#xa9;" horiz-adv-x="1783" 
d="M283 717q27 150 109 286.5t197.5 235.5t261.5 157t296 58t276.5 -58t208 -157t116 -235.5t7.5 -286.5q-35 -200 -164 -369.5t-316 -268.5t-388 -99q-200 0 -351.5 99t-219.5 268.5t-33 369.5zM336 717q-34 -186 27.5 -343t202.5 -249t331 -92q181 0 354.5 91.5
t295.5 249.5t155 343q33 187 -29 344t-203 248.5t-331 91.5q-135 0 -270.5 -54t-244 -145.5t-186.5 -218.5t-102 -266zM760 717q-24 -134 35 -209.5t178 -75.5q104 0 180.5 56.5t89.5 129.5h90q-8 -45 -36.5 -90t-74 -84t-114.5 -63.5t-147 -24.5q-152 0 -237.5 99
t-55.5 262q29 163 148 261.5t271 98.5q78 0 138.5 -24.5t92.5 -63.5t45 -84t5 -90h-90q13 77 -38 133t-167 56q-107 0 -199 -78t-114 -209z" />
    <glyph glyph-name="ordfeminine" unicode="&#xaa;" horiz-adv-x="833" 
d="M461 1454h182q62 0 100 -16t52 -44t17 -67t-7 -84l-27 -156q-10 -56 1 -76t61 -20h10l-10 -59h-43q-56 0 -76.5 18t-18.5 62q-76 -90 -200 -90q-94 0 -133.5 34t-26.5 115q15 86 63.5 120t147.5 34h182l4 18q7 46 8.5 80t-27.5 54t-95 20h-174zM721 1133v4l6 30h-180
q-58 0 -91.5 -19.5t-41.5 -70.5q-11 -63 12.5 -80.5t101.5 -17.5q68 0 124 41.5t65 99.5z" />
    <glyph glyph-name="guillemotleft" unicode="&#xab;" horiz-adv-x="976" 
d="M213 512l336 446h137l-348 -460l172 -430h-119zM561 512l336 446h137l-348 -460l172 -430h-119z" />
    <glyph glyph-name="logicalnot" unicode="&#xac;" horiz-adv-x="960" 
d="M305 860h653l-8 -41h2l-59 -327h-117l45 251h-536z" />
    <glyph glyph-name="registered" unicode="&#xae;" horiz-adv-x="1783" 
d="M283 717q35 200 163.5 369.5t315 268.5t387.5 99q200 0 352 -99t220.5 -268.5t33.5 -369.5q-35 -201 -164 -370.5t-315.5 -268t-386.5 -98.5q-120 0 -226.5 37.5t-184 104.5t-131 159.5t-68.5 202.5t4 233zM336 717q-34 -186 28 -343t203.5 -249t331.5 -92
q180 0 353 91.5t295 249.5t155 343q33 186 -29 343t-202.5 249t-329.5 92q-135 0 -271 -54.5t-245 -146t-187 -218.5t-102 -265zM1141 1067q23 0 49 -4.5t60 -19t58.5 -37.5t37.5 -65t4 -97q-10 -54 -36 -96t-61.5 -67t-68.5 -39t-68 -21l141 -256h-104l-139 249h-178
l-45 -249h-91l125 702h316zM848 688h219q20 0 44.5 6t55.5 21t55.5 48t32.5 79q9 46 -2.5 78.5t-36.5 47t-47.5 20t-46.5 5.5h-219z" />
    <glyph glyph-name="macron" unicode="&#xaf;" horiz-adv-x="722" 
d="M348 1280h477l-14 -82h-477z" />
    <glyph glyph-name="degree" unicode="&#xb0;" horiz-adv-x="774" 
d="M334 1196q20 110 110 187t199 77q110 0 173.5 -77t43.5 -187q-20 -109 -110.5 -185.5t-200.5 -76.5q-109 0 -172 76.5t-43 185.5zM387 1196q-15 -88 32.5 -148.5t139.5 -60.5q81 0 157 62t91 147q15 90 -33 150.5t-141 60.5q-80 0 -155.5 -62.5t-90.5 -148.5z" />
    <glyph glyph-name="plusminus" unicode="&#xb1;" horiz-adv-x="1003" 
d="M283 727h295l53 297h102l-53 -297h299l-18 -102h-297l-54 -297h-102l53 297h-297zM172 102h696l-18 -102h-696z" />
    <glyph glyph-name="twosuperior" unicode="&#xb2;" horiz-adv-x="917" 
d="M270 655l361 279q129 99 170.5 150.5t54.5 117.5q31 182 -182 182q-110 0 -174.5 -70t-81.5 -169h-90q10 56 34 107.5t65 99t107 76t148 28.5q134 0 209.5 -63t52.5 -193q-13 -78 -70 -149.5t-212 -186.5l-281 -209h524l-12 -73h-635z" />
    <glyph glyph-name="threesuperior" unicode="&#xb3;" horiz-adv-x="892" 
d="M537 979l12 68h102q167 0 193 165q17 89 -29.5 130.5t-146.5 41.5q-197 0 -234 -210h-90q10 57 33 105t62.5 89t101.5 64.5t141 23.5q130 0 201.5 -60t50.5 -173q-27 -152 -146 -205q148 -48 123 -201q-21 -119 -122 -182.5t-238 -63.5q-81 0 -141 24.5t-91 65t-42.5 89
t-2.5 100.5h91q-15 -90 30.5 -148.5t167.5 -58.5q93 0 168.5 46.5t91.5 137.5q14 78 -33.5 115t-142.5 37h-110z" />
    <glyph glyph-name="acute" unicode="&#xb4;" horiz-adv-x="466" 
d="M326 1145l178 330h121l-193 -330h-106z" />
    <glyph glyph-name="paragraph" unicode="&#xb6;" horiz-adv-x="1538" 
d="M887 1434h719l-324 -1844h-137l303 1729h-350l-303 -1729h-138l152 869h-94q-20 0 -42.5 2t-53.5 7t-60.5 14.5t-63 23.5t-61.5 34.5t-55.5 47.5t-45.5 62t-31.5 79.5t-12.5 98t10 118.5q16 89 51 163t78.5 123t97.5 87t104 59t102.5 34.5t88.5 17.5t66 4zM829 573
l132 746h-93q-20 0 -44.5 -3t-62.5 -12.5t-74.5 -25t-76.5 -44.5t-72.5 -67t-59 -95t-38.5 -126q-11 -56 -7 -101.5t13 -81t29 -63.5t40.5 -48t47.5 -34t50 -23t48.5 -14t42.5 -6.5t31 -1.5h94z" />
    <glyph glyph-name="periodcentered" unicode="&#xb7;" horiz-adv-x="622" 
d="M274 512q9 53 53 89t99 36q52 0 81.5 -36t20.5 -89q-9 -55 -51.5 -92t-95.5 -37q-55 0 -85.5 36.5t-21.5 92.5z" />
    <glyph glyph-name="cedilla" unicode="&#xb8;" horiz-adv-x="632" 
d="M45 -442l14 86q73 -19 137.5 -19.5t113 30.5t59.5 91q8 44 -12 65t-43.5 23.5t-82.5 1.5h-34h-4l69 176h78l-47 -108q24 -1 43 -3t40 -7t35 -12.5t28.5 -19.5t20 -28t9 -38.5t-3.5 -51.5q-12 -72 -57 -119.5t-107 -65t-127.5 -17.5t-128.5 16z" />
    <glyph glyph-name="onesuperior" unicode="&#xb9;" horiz-adv-x="657" 
d="M723 1434h63l-151 -861h-88l135 764l-317 -135l-17 72z" />
    <glyph glyph-name="ordmasculine" unicode="&#xba;" horiz-adv-x="790" 
d="M569 989q48 0 97.5 24.5t88.5 73t50 109.5q17 94 -28.5 150.5t-133.5 56.5q-75 0 -147 -58t-88 -149q-17 -94 28.5 -150.5t132.5 -56.5zM449 1390q93 72 204 72t179 -72.5t47 -193.5q-21 -120 -115 -193t-205 -73t-178.5 73t-46.5 193q21 121 115 194z" />
    <glyph glyph-name="guillemotright" unicode="&#xbb;" horiz-adv-x="976" 
d="M944 512l-334 -444h-139l350 460l-172 430h119zM596 512l-334 -444h-139l350 460l-172 430h119z" />
    <glyph glyph-name="onequarter" unicode="&#xbc;" horiz-adv-x="1761" 
d="M473 0l827 1436h97l-828 -1436h-96zM719 1436h63l-151 -861h-88l135 766l-322 -139l-14 74zM1538 862h84l-96 -551h172l-12 -65h-173l-43 -246h-88l43 246h-503l10 55zM1030 311h408l80 453z" />
    <glyph glyph-name="onehalf" unicode="&#xbd;" horiz-adv-x="1798" 
d="M473 0l830 1436h96l-830 -1436h-96zM719 1436h63l-153 -863h-88l135 766l-318 -135l-16 72zM1055 74l360 278q129 99 170.5 151t52.5 118q33 182 -180 182q-109 0 -173.5 -70t-84.5 -170h-90q10 56 34.5 108t65.5 99t107.5 75.5t148.5 28.5q134 0 210 -63t53 -193
q-13 -76 -69 -145.5t-212 -187.5l-283 -211h525l-13 -74h-635z" />
    <glyph glyph-name="threequarters" unicode="&#xbe;" horiz-adv-x="1929" 
d="M537 979l12 68h102q167 0 193 165q17 89 -29.5 130.5t-146.5 41.5q-197 0 -234 -210h-90q10 57 33 105t62.5 89t101.5 64.5t141 23.5q130 0 201.5 -60t50.5 -173q-27 -152 -146 -205q148 -48 123 -201q-21 -119 -122 -182.5t-238 -63.5q-81 0 -141 24.5t-91 65t-42.5 89
t-2.5 100.5h91q-15 -90 30.5 -148.5t167.5 -58.5q93 0 168.5 46.5t91.5 137.5q14 78 -33.5 115t-142.5 37h-110zM641 0l825 1434h97l-826 -1434h-96zM1706 862h84l-96 -551h172l-13 -65h-172l-43 -246h-88l43 246h-506l11 55zM1196 311h410l80 453z" />
    <glyph glyph-name="questiondown" unicode="&#xbf;" horiz-adv-x="1247" 
d="M926 942q-9 -52 -51 -87.5t-95 -35.5t-82 35.5t-20 87.5q9 54 50.5 89.5t94.5 35.5t82.5 -35.5t20.5 -89.5zM817 600l-14 -72q-12 -70 -25 -110t-44.5 -76.5t-68.5 -61.5t-116 -69q-13 -7 -39 -21.5t-39.5 -22t-36 -22.5t-35 -27t-29.5 -31.5t-27.5 -40t-20 -48.5
t-15.5 -61q-10 -40 -6.5 -71.5t10.5 -55t26 -40t39.5 -27.5t51 -17t62 -8.5t71.5 -2.5q90 0 159.5 26t113 72.5t69.5 102t37 123.5h152q-13 -75 -35.5 -136t-65 -120.5t-101.5 -100t-149 -65.5t-204 -25q-61 0 -112 6.5t-100.5 21.5t-83.5 40t-60 63t-31 89.5t4 119.5
q14 78 41 137.5t70.5 103.5t83 71.5t104.5 64.5l1 1h1l1 1h1l1 1l1 1h1l1 1h1l1 1h1l1 1l1 1h1q106 61 133 88q37 36 53 110q2 9 4 20l13 65h147z" />
    <glyph glyph-name="Agrave" unicode="&#xc0;" horiz-adv-x="1601" 
d="M1116 1554h-106l-80 330h121zM979 1434h147l394 -1434h-140l-100 373h-811l-231 -373h-156zM547 496h702l-213 792z" />
    <glyph glyph-name="Aacute" unicode="&#xc1;" horiz-adv-x="1601" 
d="M1040 1554l179 330h120l-192 -330h-107zM979 1434h147l394 -1434h-140l-100 373h-811l-231 -373h-156zM547 496h702l-213 792z" />
    <glyph glyph-name="Acircumflex" unicode="&#xc2;" horiz-adv-x="1601" 
d="M770 1571l322 299h84l18 -27h4l-4 -2l197 -270h-117l-146 207l-219 -207h-139zM979 1434h147l394 -1434h-140l-100 373h-811l-231 -373h-156zM547 496h702l-213 792z" />
    <glyph glyph-name="Atilde" unicode="&#xc3;" horiz-adv-x="1601" 
d="M1108 1708q93 -43 121 -47q48 -7 91 42q20 25 46 66l70 -26q-35 -62 -71 -99t-66 -52.5t-71 -13t-70.5 11.5t-80.5 30q-92 41 -120 44q-47 5 -88 -45q-20 -24 -44 -65l-71 25q29 51 57.5 86t58 52.5t55 25t58.5 2.5t59.5 -13t65.5 -24zM979 1434h147l394 -1434h-140
l-100 373h-811l-231 -373h-156zM547 496h702l-213 792z" />
    <glyph glyph-name="Adieresis" unicode="&#xc4;" horiz-adv-x="1601" 
d="M784 1692q8 46 46 78t85 32q46 0 73 -32t20 -78q-9 -47 -47 -80t-84 -33q-47 0 -74.5 33t-18.5 80zM1194 1692q8 46 46 78t85 32q46 0 72.5 -32t19.5 -78q-9 -47 -47 -80t-84 -33q-47 0 -74 33t-18 80zM979 1434h147l394 -1434h-140l-100 373h-811l-231 -373h-156z
M547 496h702l-213 792z" />
    <glyph glyph-name="Aring" unicode="&#xc5;" horiz-adv-x="1601" 
d="M862 1759q19 100 105 173t186 73q101 0 161.5 -73t41.5 -173q-17 -100 -103.5 -173t-187.5 -73q-100 0 -160 73t-43 173zM946 1759q-11 -63 28 -111.5t107 -48.5q57 0 118 50t71 110q12 65 -26 113.5t-107 48.5q-56 0 -117.5 -50.5t-73.5 -111.5zM979 1434h147l394 -1434
h-140l-100 373h-811l-231 -373h-156zM547 496h702l-213 792z" />
    <glyph glyph-name="AE" unicode="&#xc6;" horiz-adv-x="2207" 
d="M979 1434h1362l-21 -123h-843l-88 -504h780l-21 -123h-780l-98 -561h841l-22 -123h-989l65 373h-694l-229 -373h-160zM547 496h641l141 815h-280z" />
    <glyph glyph-name="Ccedilla" unicode="&#xc7;" horiz-adv-x="1683" 
d="M430 717q-26 -151 -2.5 -266t88.5 -192.5t161 -117t216 -39.5q112 0 217 38t180 98t125 133t62 145h151q-13 -72 -52 -146.5t-107 -144.5t-154.5 -124.5t-202 -87.5t-242.5 -33h-18l-33 -76q24 -1 43 -3t40 -7t35 -12.5t28.5 -19.5t20 -28t9 -38.5t-3.5 -51.5
q-12 -72 -57 -119.5t-107 -65t-127.5 -17.5t-128.5 16l15 86q73 -19 137.5 -19.5t112.5 30.5t59 91q8 44 -12 65t-43.5 23.5t-82.5 1.5h-34h-4l59 150q-130 15 -234.5 72t-172.5 151t-93.5 222t1.5 286q29 167 111 307t196.5 233.5t255 145t288.5 51.5q127 0 231 -33
t171.5 -87.5t110.5 -124.5t56.5 -144.5t0.5 -146.5h-152q11 48 3.5 97t-24 94.5t-54 86t-86 70.5t-120.5 47.5t-157 17.5q-106 0 -213 -40t-202.5 -114t-167 -194t-97.5 -266z" />
    <glyph glyph-name="Egrave" unicode="&#xc8;" horiz-adv-x="1292" 
d="M1022 1554h-107l-79 330h120zM438 1434h989l-20 -123h-842l-90 -504h780l-20 -123h-780l-99 -561h842l-22 -123h-990z" />
    <glyph glyph-name="Eacute" unicode="&#xc9;" horiz-adv-x="1292" 
d="M924 1554l178 330h121l-193 -330h-106zM438 1434h989l-20 -123h-842l-90 -504h780l-20 -123h-780l-99 -561h842l-22 -123h-990z" />
    <glyph glyph-name="Ecircumflex" unicode="&#xca;" horiz-adv-x="1292" 
d="M649 1571l322 299h84l18 -27h4l-4 -2l197 -270h-117l-145 207l-220 -207h-139zM438 1434h989l-20 -123h-842l-90 -504h780l-20 -123h-780l-99 -561h842l-22 -123h-990z" />
    <glyph glyph-name="Edieresis" unicode="&#xcb;" horiz-adv-x="1292" 
d="M664 1692q8 46 46 78t85 32q46 0 72.5 -32t19.5 -78q-9 -47 -47 -80t-84 -33q-47 0 -74 33t-18 80zM1073 1692q8 46 46 78t85 32q46 0 72.5 -32t19.5 -78q-9 -47 -47 -80t-84 -33q-47 0 -74 33t-18 80zM438 1434h989l-20 -123h-842l-90 -504h780l-20 -123h-780l-99 -561
h842l-22 -123h-990z" />
    <glyph glyph-name="Igrave" unicode="&#xcc;" horiz-adv-x="516" 
d="M569 1554h-106l-80 330h121zM436 1434h148l-252 -1434h-148z" />
    <glyph glyph-name="Iacute" unicode="&#xcd;" horiz-adv-x="516" 
d="M498 1554l178 330h121l-193 -330h-106zM436 1434h148l-252 -1434h-148z" />
    <glyph glyph-name="Icircumflex" unicode="&#xce;" horiz-adv-x="516" 
d="M225 1571l322 299h84l18 -27h4l-4 -2l197 -270h-117l-145 207l-219 -207h-140zM436 1434h148l-252 -1434h-148z" />
    <glyph glyph-name="Idieresis" unicode="&#xcf;" horiz-adv-x="516" 
d="M240 1692q8 46 46 78t85 32q46 0 72.5 -32t19.5 -78q-9 -47 -47 -80t-84 -33q-47 0 -74 33t-18 80zM649 1692q8 46 46 78t85 32q46 0 72.5 -32t19.5 -78q-9 -47 -47 -80t-84 -33q-47 0 -74 33t-18 80zM436 1434h148l-252 -1434h-148z" />
    <glyph glyph-name="Eth" unicode="&#xd0;" horiz-adv-x="1640" 
d="M88 768h231l117 666h559q118 0 223 -30t189 -89t139.5 -145.5t75.5 -200t-4 -252.5q-24 -135 -85 -251.5t-146 -201t-190.5 -145t-220.5 -90t-233 -29.5h-559l117 666h-231zM354 123h412q113 0 224.5 39t209 111.5t169.5 187.5t97 256q25 142 -0.5 256t-93.5 187.5
t-169 112t-228 38.5h-414l-94 -543h405l-18 -102h-405z" />
    <glyph glyph-name="Ntilde" unicode="&#xd1;" horiz-adv-x="1722" 
d="M1169 1708q93 -43 121 -47q48 -7 91 42q20 25 46 66l70 -26q-35 -62 -71 -99t-65.5 -52.5t-70.5 -13t-70 11.5t-81 30q-92 41 -120 44q-47 5 -88 -45q-20 -24 -44 -65l-72 25q29 51 57.5 86t58 52.5t55 25t58.5 2.5t59.5 -13t65.5 -24zM436 1434h148l843 -1229l215 1229
h148l-252 -1434h-147l-844 1217l-215 -1217h-148z" />
    <glyph glyph-name="Ograve" unicode="&#xd2;" horiz-adv-x="1789" 
d="M1214 1554h-106l-80 330h121zM287 408q-38 141 -8 309t117 309.5t207.5 233.5t263 143t286.5 51q145 0 270.5 -51t214 -143t126.5 -233.5t8 -309.5q-24 -135 -85.5 -254t-148.5 -206t-192.5 -150.5t-221 -95t-231.5 -31.5q-145 0 -269.5 51t-212 143t-124.5 234z
M1133 1331q-109 0 -222.5 -42.5t-211.5 -119t-171 -195t-98 -257.5q-25 -140 1 -257t92.5 -194.5t167 -120.5t224.5 -43q109 0 222.5 43t212.5 120t172 195.5t98 256.5q25 141 -1 258t-93 194t-168 119.5t-225 42.5z" />
    <glyph glyph-name="Oacute" unicode="&#xd3;" horiz-adv-x="1789" 
d="M1126 1554l179 330h120l-192 -330h-107zM287 408q-38 141 -8 309t117 309.5t207.5 233.5t263 143t286.5 51q145 0 270.5 -51t214 -143t126.5 -233.5t8 -309.5q-24 -135 -85.5 -254t-148.5 -206t-192.5 -150.5t-221 -95t-231.5 -31.5q-145 0 -269.5 51t-212 143
t-124.5 234zM1133 1331q-109 0 -222.5 -42.5t-211.5 -119t-171 -195t-98 -257.5q-25 -140 1 -257t92.5 -194.5t167 -120.5t224.5 -43q109 0 222.5 43t212.5 120t172 195.5t98 256.5q25 141 -1 258t-93 194t-168 119.5t-225 42.5z" />
    <glyph glyph-name="Ocircumflex" unicode="&#xd4;" horiz-adv-x="1789" 
d="M864 1571l322 299h84l18 -27h4l-4 -2l197 -270h-117l-145 207l-219 -207h-140zM287 408q-38 141 -8 309t117 309.5t207.5 233.5t263 143t286.5 51q145 0 270.5 -51t214 -143t126.5 -233.5t8 -309.5q-24 -135 -85.5 -254t-148.5 -206t-192.5 -150.5t-221 -95t-231.5 -31.5
q-145 0 -269.5 51t-212 143t-124.5 234zM1133 1331q-109 0 -222.5 -42.5t-211.5 -119t-171 -195t-98 -257.5q-25 -140 1 -257t92.5 -194.5t167 -120.5t224.5 -43q109 0 222.5 43t212.5 120t172 195.5t98 256.5q25 141 -1 258t-93 194t-168 119.5t-225 42.5z" />
    <glyph glyph-name="Otilde" unicode="&#xd5;" horiz-adv-x="1789" 
d="M1223 1708q93 -43 121 -47q48 -7 91 42q20 25 46 66l69 -26q-35 -62 -71 -99t-65.5 -52.5t-70.5 -13t-70 11.5t-81 30q-92 41 -120 44q-47 5 -88 -45q-20 -24 -44 -65l-72 25q35 61 70.5 98.5t66 53.5t70 15t70.5 -10t78 -28zM287 408q-38 141 -8 309t117 309.5
t207.5 233.5t263 143t286.5 51q145 0 270.5 -51t214 -143t126.5 -233.5t8 -309.5q-24 -135 -85.5 -254t-148.5 -206t-192.5 -150.5t-221 -95t-231.5 -31.5q-145 0 -269.5 51t-212 143t-124.5 234zM1133 1331q-109 0 -222.5 -42.5t-211.5 -119t-171 -195t-98 -257.5
q-25 -140 1 -257t92.5 -194.5t167 -120.5t224.5 -43q109 0 222.5 43t212.5 120t172 195.5t98 256.5q25 141 -1 258t-93 194t-168 119.5t-225 42.5z" />
    <glyph glyph-name="Odieresis" unicode="&#xd6;" horiz-adv-x="1789" 
d="M879 1692q8 46 46 78t85 32q46 0 72.5 -32t19.5 -78q-9 -47 -47 -80t-84 -33q-47 0 -74 33t-18 80zM1288 1692q8 46 46 78t85 32q46 0 72.5 -32t19.5 -78q-9 -47 -47 -80t-84 -33q-47 0 -74 33t-18 80zM287 408q-38 141 -8 309t117 309.5t207.5 233.5t263 143t286.5 51
q145 0 270.5 -51t214 -143t126.5 -233.5t8 -309.5q-24 -135 -85.5 -254t-148.5 -206t-192.5 -150.5t-221 -95t-231.5 -31.5q-145 0 -269.5 51t-212 143t-124.5 234zM1133 1331q-109 0 -222.5 -42.5t-211.5 -119t-171 -195t-98 -257.5q-25 -140 1 -257t92.5 -194.5
t167 -120.5t224.5 -43q109 0 222.5 43t212.5 120t172 195.5t98 256.5q25 141 -1 258t-93 194t-168 119.5t-225 42.5z" />
    <glyph glyph-name="multiply" unicode="&#xd7;" horiz-adv-x="872" 
d="M203 279l248 208l-175 211l86 72l173 -209l247 209l60 -72l-246 -211l172 -208l-84 -74l-174 211l-246 -211z" />
    <glyph glyph-name="Oslash" unicode="&#xd8;" horiz-adv-x="1789" 
d="M510 -205l115 234q-195 77 -294 257t-55 431q24 135 85.5 254t148 206t191.5 150.5t220 95t230 31.5q87 0 166 -18l98 202h117l-115 -233q197 -77 296.5 -257t55.5 -431q-24 -135 -85.5 -254t-148 -206t-192.5 -150.5t-221 -95t-231 -31.5q-87 0 -166 18l-98 -203h-117z
M1130 1331q-87 0 -177 -26.5t-175.5 -79.5t-156 -125.5t-122 -171.5t-71.5 -211q-36 -208 33.5 -356.5t220.5 -213.5l575 1172q-62 12 -127 12zM784 115q67 -13 129 -13q109 0 222.5 43t212.5 120t172 195.5t98 256.5q37 209 -34 357.5t-224 213.5z" />
    <glyph glyph-name="Ugrave" unicode="&#xd9;" horiz-adv-x="1574" 
d="M1122 1554h-106l-80 330h121zM1495 1434h147l-147 -840q-54 -311 -237.5 -462.5t-481.5 -151.5q-296 0 -419 150.5t-68 463.5l147 840h148l-148 -840q-45 -258 40 -375t323 -117q218 0 362 122t187 370z" />
    <glyph glyph-name="Uacute" unicode="&#xda;" horiz-adv-x="1574" 
d="M1018 1554l178 330h121l-193 -330h-106zM1495 1434h147l-147 -840q-54 -311 -237.5 -462.5t-481.5 -151.5q-296 0 -419 150.5t-68 463.5l147 840h148l-148 -840q-45 -258 40 -375t323 -117q218 0 362 122t187 370z" />
    <glyph glyph-name="Ucircumflex" unicode="&#xdb;" horiz-adv-x="1574" 
d="M756 1571l321 299h84l19 -27h4l-4 -2l196 -270h-116l-146 207l-219 -207h-139zM1495 1434h147l-147 -840q-54 -311 -237.5 -462.5t-481.5 -151.5q-296 0 -419 150.5t-68 463.5l147 840h148l-148 -840q-45 -258 40 -375t323 -117q218 0 362 122t187 370z" />
    <glyph glyph-name="Udieresis" unicode="&#xdc;" horiz-adv-x="1574" 
d="M770 1692q8 46 46 78t85 32q46 0 72.5 -32t19.5 -78q-9 -47 -47 -80t-84 -33q-47 0 -74 33t-18 80zM1180 1692q8 46 46 78t85 32q46 0 72.5 -32t19.5 -78q-9 -47 -47 -80t-84 -33q-47 0 -74 33t-18 80zM1495 1434h147l-147 -840q-54 -311 -237.5 -462.5t-481.5 -151.5
q-296 0 -419 150.5t-68 463.5l147 840h148l-148 -840q-45 -258 40 -375t323 -117q218 0 362 122t187 370z" />
    <glyph glyph-name="Yacute" unicode="&#xdd;" horiz-adv-x="1540" 
d="M1016 1554l178 330h121l-193 -330h-106zM772 430l-432 1004h160l358 -875l668 875h180l-786 -1004l-76 -430h-148z" />
    <glyph glyph-name="Thorn" unicode="&#xde;" horiz-adv-x="1456" 
d="M1016 1194q20 0 42.5 -2t53.5 -7t60.5 -14t63.5 -23t61.5 -34t55.5 -46.5t46 -60.5t31.5 -77t13 -95.5t-9.5 -115.5q-15 -87 -49.5 -159t-78 -120t-97 -85.5t-103.5 -58t-103 -33.5t-89 -17t-66 -4h-473l-43 -242h-148l252 1434h148l-43 -240h475zM395 365h463
q25 0 61.5 5.5t96 27.5t110 58t95.5 104.5t61 158.5q16 89 -1 157t-51 103.5t-83.5 57.5t-88 28t-75.5 6h-463z" />
    <glyph glyph-name="germandbls" unicode="&#xdf;" horiz-adv-x="1325" 
d="M307 987q14 78 41.5 145.5t74.5 127.5t109.5 102.5t149.5 67t192 24.5q145 0 248.5 -41.5t154 -131t28.5 -216.5q-46 -257 -263 -340q127 -34 187.5 -117t36.5 -219q-36 -200 -211 -303.5t-443 -103.5l21 114q89 0 168.5 17.5t147.5 53t114.5 96t60.5 140.5
q24 136 -56.5 201.5t-238.5 65.5h-92l4 20h-2l15 78h75q283 0 332 281q27 151 -53.5 220.5t-251.5 69.5q-91 0 -163.5 -27t-120.5 -76t-77.5 -111t-43.5 -138l-175 -987h-143z" />
    <glyph glyph-name="agrave" unicode="&#xe0;" horiz-adv-x="1216" 
d="M913 1145h-106l-80 330h121zM420 1024h362q126 0 204.5 -30.5t109.5 -85.5t37 -131t-13 -167l-53 -297q-20 -110 4 -152t125 -42h21l-21 -119h-96q-118 1 -155.5 44.5t-26.5 152.5q-66 -98 -172.5 -157.5t-245.5 -59.5q-188 0 -267 68t-49 235t127.5 236t292.5 69h369
l2 20q15 91 17.5 157t-55.5 103t-192 37h-346zM952 471h-362q-223 0 -258 -188q-20 -111 28.5 -148t192.5 -37q137 0 249 82t134 199z" />
    <glyph glyph-name="aacute" unicode="&#xe1;" horiz-adv-x="1216" 
d="M717 1145l178 330h121l-193 -330h-106zM420 1024h362q126 0 204.5 -30.5t109.5 -85.5t37 -131t-13 -167l-53 -297q-20 -110 4 -152t125 -42h21l-21 -119h-96q-118 1 -155.5 44.5t-26.5 152.5q-66 -98 -172.5 -157.5t-245.5 -59.5q-188 0 -267 68t-49 235t127.5 236
t292.5 69h369l2 20q15 91 17.5 157t-55.5 103t-192 37h-346zM952 471h-362q-223 0 -258 -188q-20 -111 28.5 -148t192.5 -37q137 0 249 82t134 199z" />
    <glyph glyph-name="acircumflex" unicode="&#xe2;" horiz-adv-x="1216" 
d="M504 1161l321 299h84l17 -26h4l-2 -2l196 -271h-116l-146 207l-219 -207h-139zM420 1024h362q126 0 204.5 -30.5t109.5 -85.5t37 -131t-13 -167l-53 -297q-20 -110 4 -152t125 -42h21l-21 -119h-96q-118 1 -155.5 44.5t-26.5 152.5q-66 -98 -172.5 -157.5t-245.5 -59.5
q-188 0 -267 68t-49 235t127.5 236t292.5 69h369l2 20q15 91 17.5 157t-55.5 103t-192 37h-346zM952 471h-362q-223 0 -258 -188q-20 -111 28.5 -148t192.5 -37q137 0 249 82t134 199z" />
    <glyph glyph-name="atilde" unicode="&#xe3;" horiz-adv-x="1216" 
d="M844 1298q92 -44 123 -47q50 -6 95 49q19 23 42 60l67 -27q-29 -52 -57.5 -86.5t-58 -51.5t-55 -24t-60 -1t-60 14.5t-67.5 25.5q-93 41 -120 44q-47 6 -87 -42q-19 -24 -45 -67l-72 24q35 61 70.5 98.5t66 53.5t70 15t70.5 -10t78 -28zM420 1024h362q126 0 204.5 -30.5
t109.5 -85.5t37 -131t-13 -167l-53 -297q-20 -110 4 -152t125 -42h21l-21 -119h-96q-118 1 -155.5 44.5t-26.5 152.5q-66 -98 -172.5 -157.5t-245.5 -59.5q-188 0 -267 68t-49 235t127.5 236t292.5 69h369l2 20q15 91 17.5 157t-55.5 103t-192 37h-346zM952 471h-362
q-223 0 -258 -188q-20 -111 28.5 -148t192.5 -37q137 0 249 82t134 199z" />
    <glyph glyph-name="adieresis" unicode="&#xe4;" horiz-adv-x="1216" 
d="M516 1282q9 46 47.5 78.5t85.5 32.5q46 0 72.5 -32.5t17.5 -78.5q-7 -47 -45 -80t-84 -33q-47 0 -74.5 33t-19.5 80zM926 1282q9 46 47.5 78.5t85.5 32.5q46 0 72.5 -32.5t17.5 -78.5q-7 -47 -45 -80t-84 -33q-47 0 -74.5 33t-19.5 80zM420 1024h362q126 0 204.5 -30.5
t109.5 -85.5t37 -131t-13 -167l-53 -297q-20 -110 4 -152t125 -42h21l-21 -119h-96q-118 1 -155.5 44.5t-26.5 152.5q-66 -98 -172.5 -157.5t-245.5 -59.5q-188 0 -267 68t-49 235t127.5 236t292.5 69h369l2 20q15 91 17.5 157t-55.5 103t-192 37h-346zM952 471h-362
q-223 0 -258 -188q-20 -111 28.5 -148t192.5 -37q137 0 249 82t134 199z" />
    <glyph glyph-name="aring" unicode="&#xe5;" horiz-adv-x="1216" 
d="M598 1350q19 100 104 172.5t185 72.5q101 0 162.5 -72.5t42.5 -172.5q-17 -100 -103.5 -173t-187.5 -73q-100 0 -160 73t-43 173zM682 1350q-11 -63 27.5 -111.5t105.5 -48.5q57 0 119 50t72 110q11 65 -27 113t-107 48q-56 0 -118 -50t-72 -111zM420 1024h362
q126 0 204.5 -30.5t109.5 -85.5t37 -131t-13 -167l-53 -297q-20 -110 4 -152t125 -42h21l-21 -119h-96q-118 1 -155.5 44.5t-26.5 152.5q-66 -98 -172.5 -157.5t-245.5 -59.5q-188 0 -267 68t-49 235t127.5 236t292.5 69h369l2 20q15 91 17.5 157t-55.5 103t-192 37h-346z
M952 471h-362q-223 0 -258 -188q-20 -111 28.5 -148t192.5 -37q137 0 249 82t134 199z" />
    <glyph glyph-name="ae" unicode="&#xe6;" horiz-adv-x="2015" 
d="M420 1024h362q160 0 239 -47.5t99 -138.5q85 100 199 153t242 53q231 0 343.5 -137.5t77.5 -371.5v-3l-12 -63h-883q-21 -184 64.5 -277.5t247.5 -93.5q133 0 251 75.5t134 158.5h147q-15 -62 -61 -123t-115.5 -113t-170 -84t-212.5 -32q-146 0 -249.5 69.5t-141.5 196.5
q-68 -115 -196 -190.5t-285 -75.5q-188 0 -267 68t-49 235t127.5 236t292.5 69h367l4 20q15 91 17.5 157t-55.5 103t-192 37h-346zM1841 588q15 175 -60.5 256.5t-234.5 81.5q-84 0 -167.5 -35.5t-157.5 -114.5t-109 -188h729zM950 471h-360q-223 0 -258 -188
q-20 -111 28.5 -148t192.5 -37q137 0 249 82t134 199z" />
    <glyph glyph-name="ccedilla" unicode="&#xe7;" 
d="M367 512q-34 -195 52.5 -304.5t270.5 -109.5q138 0 251.5 85.5t131.5 183.5h148q-12 -67 -53.5 -133t-107 -122.5t-163.5 -93t-211 -38.5l-41 -93q45 -2 75.5 -8t58.5 -22t38 -48t2 -81q-13 -72 -58 -119.5t-106.5 -65.5t-127 -18t-128.5 16l15 86q72 -19 136.5 -19.5
t113 31t59.5 91.5q8 44 -12.5 65t-44.5 23.5t-83 1.5h-34h-4l65 162q-211 19 -321 160.5t-70 369.5q29 163 122 285t227.5 184.5t291.5 62.5q116 0 204.5 -35.5t135.5 -92.5t65.5 -124t6.5 -135h-148q8 48 -4 94t-43.5 86t-93 64.5t-145.5 24.5q-161 0 -299 -112.5
t-172 -301.5z" />
    <glyph glyph-name="egrave" unicode="&#xe8;" 
d="M889 1145h-107l-80 330h121zM354 469q-20 -184 65 -277.5t247 -93.5q133 0 251 75.5t134 158.5h147q-15 -62 -61 -123t-115.5 -113t-170 -84t-212.5 -32q-105 0 -191.5 36.5t-145 103.5t-82 168.5t-1.5 223.5t80.5 223.5t141 168.5t182 103.5t204.5 36.5
q231 0 344 -138.5t78 -373.5l-12 -63h-883zM1108 588q15 175 -60.5 256.5t-234.5 81.5q-84 0 -167.5 -35.5t-157 -114.5t-107.5 -188h727z" />
    <glyph glyph-name="eacute" unicode="&#xe9;" 
d="M815 1145l178 330h121l-192 -330h-107zM354 469q-20 -184 65 -277.5t247 -93.5q133 0 251 75.5t134 158.5h147q-15 -62 -61 -123t-115.5 -113t-170 -84t-212.5 -32q-105 0 -191.5 36.5t-145 103.5t-82 168.5t-1.5 223.5t80.5 223.5t141 168.5t182 103.5t204.5 36.5
q231 0 344 -138.5t78 -373.5l-12 -63h-883zM1108 588q15 175 -60.5 256.5t-234.5 81.5q-84 0 -167.5 -35.5t-157 -114.5t-107.5 -188h727z" />
    <glyph glyph-name="ecircumflex" unicode="&#xea;" 
d="M539 1161l321 299h84l17 -26h4l-2 -2l196 -271h-117l-145 207l-219 -207h-139zM354 469q-20 -184 65 -277.5t247 -93.5q133 0 251 75.5t134 158.5h147q-15 -62 -61 -123t-115.5 -113t-170 -84t-212.5 -32q-105 0 -191.5 36.5t-145 103.5t-82 168.5t-1.5 223.5t80.5 223.5
t141 168.5t182 103.5t204.5 36.5q231 0 344 -138.5t78 -373.5l-12 -63h-883zM1108 588q15 175 -60.5 256.5t-234.5 81.5q-84 0 -167.5 -35.5t-157 -114.5t-107.5 -188h727z" />
    <glyph glyph-name="edieresis" unicode="&#xeb;" 
d="M551 1282q9 46 47.5 78.5t85.5 32.5q46 0 72.5 -32.5t17.5 -78.5q-7 -47 -45 -80t-84 -33q-47 0 -74.5 33t-19.5 80zM961 1282q9 46 47.5 78.5t85.5 32.5q46 0 72.5 -32.5t17.5 -78.5q-7 -47 -45 -80t-84 -33q-47 0 -74.5 33t-19.5 80zM354 469q-20 -184 65 -277.5
t247 -93.5q133 0 251 75.5t134 158.5h147q-15 -62 -61 -123t-115.5 -113t-170 -84t-212.5 -32q-105 0 -191.5 36.5t-145 103.5t-82 168.5t-1.5 223.5t80.5 223.5t141 168.5t182 103.5t204.5 36.5q231 0 344 -138.5t78 -373.5l-12 -63h-883zM1108 588q15 175 -60.5 256.5
t-234.5 81.5q-84 0 -167.5 -35.5t-157 -114.5t-107.5 -188h727z" />
    <glyph glyph-name="igrave" unicode="&#xec;" horiz-adv-x="440" 
d="M461 1145h-107l-80 330h121zM330 1024h143l-180 -1024h-143z" />
    <glyph glyph-name="iacute" unicode="&#xed;" horiz-adv-x="440" 
d="M387 1145l178 330h121l-192 -330h-107zM330 1024h143l-180 -1024h-143z" />
    <glyph glyph-name="icircumflex" unicode="&#xee;" horiz-adv-x="440" 
d="M117 1161l321 299h84l17 -26h4l-2 -2l196 -271h-116l-146 207l-219 -207h-139zM330 1024h143l-180 -1024h-143z" />
    <glyph glyph-name="idieresis" unicode="&#xef;" horiz-adv-x="440" 
d="M129 1282q9 46 47.5 78.5t85.5 32.5q46 0 72.5 -32.5t17.5 -78.5q-7 -47 -45 -80t-84 -33q-47 0 -74.5 33t-19.5 80zM539 1282q9 46 47.5 78.5t85.5 32.5q46 0 72.5 -32.5t17.5 -78.5q-7 -47 -45 -80t-84 -33q-47 0 -74.5 33t-19.5 80zM330 1024h143l-180 -1024h-143z
" />
    <glyph glyph-name="eth" unicode="&#xf0;" horiz-adv-x="1312" 
d="M827 948q43 0 84 -6l-104 170h-330l19 102h247l-135 220h174l136 -220h376l-18 -102h-295l195 -315q107 -133 71 -332q-26 -145 -117 -257.5t-215.5 -170t-259.5 -57.5q-99 0 -185 34t-146 95t-86 153.5t-7 202.5q19 109 78 201.5t141 153.5t180 94.5t197 33.5zM676 94
q83 0 171 42t161 129.5t92 199.5q30 170 -54 270.5t-239 100.5q-49 0 -102.5 -16t-106.5 -48t-97.5 -75.5t-77 -104t-44.5 -127.5q-30 -172 55 -271.5t242 -99.5z" />
    <glyph glyph-name="ntilde" unicode="&#xf1;" horiz-adv-x="1277" 
d="M895 1298q92 -44 123 -47q50 -6 95 49q19 23 42 60l68 -27q-25 -44 -50.5 -76t-48 -51t-49.5 -27.5t-48.5 -10.5t-52 5t-53 14.5t-57.5 22.5q-93 41 -120 44q-47 6 -87 -42q-19 -24 -45 -67l-71 24q29 51 57.5 86t58 52.5t55 25t58.5 2.5t59.5 -13t65.5 -24zM344 1024
h143l-36 -211q81 106 199.5 168.5t244.5 62.5q111 0 185.5 -30.5t109 -85t44.5 -130.5t-9 -167l-111 -631h-143l106 600q15 72 11.5 132t-27 103t-84 67t-158.5 24q-84 0 -171 -43.5t-154 -123.5t-84 -175l-103 -584h-143z" />
    <glyph glyph-name="ograve" unicode="&#xf2;" horiz-adv-x="1345" 
d="M922 1145h-107l-80 330h121zM692 98q71 0 146.5 29.5t142 81.5t116.5 131.5t66 171.5q33 188 -58 301t-265 113q-71 0 -146.5 -29.5t-142 -81.5t-116.5 -131.5t-66 -171.5q-33 -188 58 -301t265 -113zM860 1044q107 0 198.5 -37t155.5 -103.5t91 -168.5t6 -223
q-28 -161 -128 -284.5t-233.5 -185.5t-277.5 -62q-107 0 -198.5 37t-155.5 103.5t-91 168.5t-6 223q28 161 128 284.5t233.5 185.5t277.5 62z" />
    <glyph glyph-name="oacute" unicode="&#xf3;" horiz-adv-x="1345" 
d="M831 1145l179 330h120l-192 -330h-107zM692 98q71 0 146.5 29.5t142 81.5t116.5 131.5t66 171.5q33 188 -58 301t-265 113q-71 0 -146.5 -29.5t-142 -81.5t-116.5 -131.5t-66 -171.5q-33 -188 58 -301t265 -113zM860 1044q107 0 198.5 -37t155.5 -103.5t91 -168.5t6 -223
q-28 -161 -128 -284.5t-233.5 -185.5t-277.5 -62q-107 0 -198.5 37t-155.5 103.5t-91 168.5t-6 223q28 161 128 284.5t233.5 185.5t277.5 62z" />
    <glyph glyph-name="ocircumflex" unicode="&#xf4;" horiz-adv-x="1345" 
d="M569 1161l322 299h84l16 -26h4l-2 -2l197 -271h-117l-145 207l-219 -207h-140zM692 98q71 0 146.5 29.5t142 81.5t116.5 131.5t66 171.5q33 188 -58 301t-265 113q-71 0 -146.5 -29.5t-142 -81.5t-116.5 -131.5t-66 -171.5q-33 -188 58 -301t265 -113zM860 1044
q107 0 198.5 -37t155.5 -103.5t91 -168.5t6 -223q-28 -161 -128 -284.5t-233.5 -185.5t-277.5 -62q-107 0 -198.5 37t-155.5 103.5t-91 168.5t-6 223q28 161 128 284.5t233.5 185.5t277.5 62z" />
    <glyph glyph-name="otilde" unicode="&#xf5;" horiz-adv-x="1345" 
d="M907 1298q92 -44 123 -47q50 -6 95 49q19 23 42 60l68 -27q-29 -52 -57.5 -86.5t-58 -51.5t-55 -24t-60 -1t-60 14.5t-67.5 25.5q-93 41 -120 44q-47 6 -87 -42q-19 -24 -45 -67l-72 24q29 51 57.5 86t58 52.5t55 25t58.5 2.5t59.5 -13t65.5 -24zM692 98q71 0 146.5 29.5
t142 81.5t116.5 131.5t66 171.5q33 188 -58 301t-265 113q-71 0 -146.5 -29.5t-142 -81.5t-116.5 -131.5t-66 -171.5q-33 -188 58 -301t265 -113zM860 1044q107 0 198.5 -37t155.5 -103.5t91 -168.5t6 -223q-28 -161 -128 -284.5t-233.5 -185.5t-277.5 -62q-107 0 -198.5 37
t-155.5 103.5t-91 168.5t-6 223q28 161 128 284.5t233.5 185.5t277.5 62z" />
    <glyph glyph-name="odieresis" unicode="&#xf6;" horiz-adv-x="1345" 
d="M582 1282q9 46 47.5 78.5t85.5 32.5q46 0 72.5 -32.5t17.5 -78.5q-7 -47 -45 -80t-84 -33q-47 0 -74.5 33t-19.5 80zM991 1282q9 46 47.5 78.5t85.5 32.5q46 0 72.5 -32.5t17.5 -78.5q-7 -47 -45 -80t-84 -33q-47 0 -74.5 33t-19.5 80zM692 98q71 0 146.5 29.5t142 81.5
t116.5 131.5t66 171.5q33 188 -58 301t-265 113q-71 0 -146.5 -29.5t-142 -81.5t-116.5 -131.5t-66 -171.5q-33 -188 58 -301t265 -113zM860 1044q107 0 198.5 -37t155.5 -103.5t91 -168.5t6 -223q-28 -161 -128 -284.5t-233.5 -185.5t-277.5 -62q-107 0 -198.5 37
t-155.5 103.5t-91 168.5t-6 223q28 161 128 284.5t233.5 185.5t277.5 62z" />
    <glyph glyph-name="divide" unicode="&#xf7;" horiz-adv-x="921" 
d="M502 981q9 53 52.5 89t98.5 36q52 0 82 -36t21 -89q-9 -55 -52 -92t-96 -37q-55 0 -85 36.5t-21 92.5zM258 594h614l-18 -102h-614zM348 109q9 53 53 88.5t99 35.5q52 0 81.5 -35.5t20.5 -88.5q-9 -55 -51.5 -92t-95.5 -37q-55 0 -85.5 36.5t-21.5 92.5z" />
    <glyph glyph-name="oslash" unicode="&#xf8;" horiz-adv-x="1355" 
d="M694 98q71 0 146.5 29.5t142 81.5t116.5 131.5t66 171.5q33 188 -58 301t-265 113q-71 0 -146.5 -29.5t-142 -81.5t-116.5 -131.5t-66 -171.5q-33 -188 58 -301t265 -113zM862 1044q50 0 105 -10l96 195h117l-111 -223q138 -58 206.5 -187t37.5 -307
q-28 -161 -128 -284.5t-233.5 -185.5t-277.5 -62q-48 0 -103 10l-96 -195h-117l111 223q-139 58 -208 186.5t-38 307.5q28 161 128 284.5t233.5 185.5t277.5 62z" />
    <glyph glyph-name="ugrave" unicode="&#xf9;" horiz-adv-x="1329" 
d="M915 1145h-106l-80 330h121zM1319 119l-21 -119h-94q-124 1 -165 48t-29 163q-80 -105 -200.5 -168t-246.5 -63q-404 0 -330 415l111 629h143l-104 -598q-16 -72 -12.5 -132.5t26.5 -104t83.5 -67.5t158.5 -24q84 0 171.5 43.5t154.5 123.5t84 175l102 584h143l-125 -711
q-24 -104 -0.5 -149t123.5 -45h27z" />
    <glyph glyph-name="uacute" unicode="&#xfa;" horiz-adv-x="1329" 
d="M797 1145l178 330h121l-193 -330h-106zM1319 119l-21 -119h-94q-124 1 -165 48t-29 163q-80 -105 -200.5 -168t-246.5 -63q-404 0 -330 415l111 629h143l-104 -598q-16 -72 -12.5 -132.5t26.5 -104t83.5 -67.5t158.5 -24q84 0 171.5 43.5t154.5 123.5t84 175l102 584h143
l-125 -711q-24 -104 -0.5 -149t123.5 -45h27z" />
    <glyph glyph-name="ucircumflex" unicode="&#xfb;" horiz-adv-x="1329" 
d="M551 1161l321 299h84l17 -26h4l-2 -2l196 -271h-116l-146 207l-219 -207h-139zM1319 119l-21 -119h-94q-124 1 -165 48t-29 163q-80 -105 -200.5 -168t-246.5 -63q-404 0 -330 415l111 629h143l-104 -598q-15 -72 -11.5 -132.5t26 -104t83 -67.5t158.5 -24
q84 0 171.5 43.5t154.5 123.5t84 175l102 584h143l-125 -711q-24 -104 -0.5 -149t123.5 -45h27z" />
    <glyph glyph-name="udieresis" unicode="&#xfc;" horiz-adv-x="1329" 
d="M561 1282q9 46 47.5 78.5t85.5 32.5q46 0 72.5 -32.5t17.5 -78.5q-7 -47 -45 -80t-84 -33q-47 0 -74.5 33t-19.5 80zM971 1282q9 46 47.5 78.5t85.5 32.5q46 0 72.5 -32.5t17.5 -78.5q-7 -47 -45 -80t-84 -33q-47 0 -74.5 33t-19.5 80zM1319 119l-21 -119h-94
q-124 1 -165 48t-29 163q-80 -105 -200.5 -168t-246.5 -63q-404 0 -330 415l111 629h143l-104 -598q-16 -72 -12.5 -132.5t26.5 -104t83.5 -67.5t158.5 -24q84 0 171.5 43.5t154.5 123.5t84 175l102 584h143l-125 -711q-24 -104 -0.5 -149t123.5 -45h27z" />
    <glyph glyph-name="yacute" unicode="&#xfd;" horiz-adv-x="1202" 
d="M776 1145l178 330h121l-192 -330h-107zM1300 1024l-632 -1044q-97 -160 -136 -209q-82 -104 -194 -143q-109 -38 -297 -38l20 119q88 0 152 11t104 26.5t75 49t54 61t52 81.5q18 30 28 46l11 20l-273 1020h144l225 -848l508 848h159z" />
    <glyph glyph-name="thorn" unicode="&#xfe;" horiz-adv-x="1353" 
d="M1246 896q112 -149 71 -384t-206.5 -383.5t-389.5 -148.5q-130 0 -232.5 59.5t-146.5 161.5l-106 -611h-144l324 1844h143l-106 -611q82 103 204.5 162t251.5 59q224 0 337 -148zM381 416q-25 -135 69 -226.5t252 -91.5q106 0 204.5 51t170 147t92.5 216
q34 190 -49.5 302t-269.5 112q-85 0 -179 -40t-167 -114.5t-88 -161.5l-35 -186v-8z" />
    <glyph glyph-name="ydieresis" unicode="&#xff;" horiz-adv-x="1202" 
d="M510 1282q9 46 47.5 78.5t85.5 32.5q46 0 72.5 -32.5t17.5 -78.5q-7 -47 -45 -80t-84 -33q-47 0 -74.5 33t-19.5 80zM920 1282q9 46 47.5 78.5t85.5 32.5q46 0 72.5 -32.5t17.5 -78.5q-7 -47 -45 -80t-84 -33q-47 0 -74.5 33t-19.5 80zM1300 1024l-632 -1044
q-97 -160 -136 -209q-82 -104 -194 -143q-109 -38 -297 -38l20 119q88 0 152 11t104 26.5t75 49t54 61t52 81.5q18 30 28 46l11 20l-273 1020h144l225 -848l508 848h159z" />
    <glyph glyph-name="Amacron" unicode="&#x100;" horiz-adv-x="1601" 
d="M860 1690h477l-14 -82h-477zM979 1434h147l394 -1434h-140l-100 373h-811l-231 -373h-156zM547 496h702l-213 792z" />
    <glyph glyph-name="amacron" unicode="&#x101;" horiz-adv-x="1216" 
d="M596 1280h477l-14 -82h-477zM420 1024h362q126 0 204.5 -30.5t109.5 -85.5t37 -131t-13 -167l-53 -297q-20 -110 4 -152t125 -42h21l-21 -119h-96q-118 1 -155.5 44.5t-26.5 152.5q-66 -98 -172.5 -157.5t-245.5 -59.5q-188 0 -267 68t-49 235t127.5 236t292.5 69h369
l2 20q15 91 17.5 157t-55.5 103t-192 37h-346zM952 471h-362q-223 0 -258 -188q-20 -111 28.5 -148t192.5 -37q137 0 249 82t134 199z" />
    <glyph glyph-name="Abreve" unicode="&#x102;" horiz-adv-x="1601" 
d="M834 1905h90q-21 -121 23 -181.5t147 -60.5q93 0 164 62t92 180h90q-28 -163 -127.5 -249.5t-235.5 -86.5t-203.5 86.5t-39.5 249.5zM979 1434h147l394 -1434h-140l-100 373h-811l-231 -373h-156zM547 496h702l-213 792z" />
    <glyph glyph-name="abreve" unicode="&#x103;" horiz-adv-x="1216" 
d="M569 1495h90q-21 -121 23 -181.5t147 -60.5q93 0 164 62t92 180h91q-30 -163 -128.5 -249.5t-234.5 -86.5t-205 86.5t-39 249.5zM420 1024h362q126 0 204.5 -30.5t109.5 -85.5t37 -131t-13 -167l-53 -297q-20 -110 4 -152t125 -42h21l-21 -119h-96q-118 1 -155.5 44.5
t-26.5 152.5q-66 -98 -172.5 -157.5t-245.5 -59.5q-188 0 -267 68t-49 235t127.5 236t292.5 69h369l2 20q15 91 17.5 157t-55.5 103t-192 37h-346zM952 471h-362q-223 0 -258 -188q-20 -111 28.5 -148t192.5 -37q137 0 249 82t134 199z" />
    <glyph glyph-name="Aogonek" unicode="&#x104;" horiz-adv-x="1601" 
d="M979 1434h147l394 -1434h-74l2 -2q-40 -42 -56.5 -60t-41 -50.5t-36.5 -60.5t-18 -60q-9 -49 11 -78.5t62.5 -37t94 -2.5t113.5 21l-16 -92q-67 -16 -133.5 -17t-123.5 15t-87.5 60.5t-18.5 113.5q3 15 8 30.5t10 28t15.5 29.5t16 26.5t20 27.5t19.5 25t22.5 26
t21.5 23.5t23.5 25t21.5 22.5l-96 359h-811l-231 -373h-156zM547 496h702l-213 792z" />
    <glyph glyph-name="aogonek" unicode="&#x105;" horiz-adv-x="1216" 
d="M420 1024h362q126 0 204.5 -30.5t109.5 -85.5t37 -131t-13 -167l-53 -297q-20 -110 4 -152t125 -42h21l-21 -119h-96q-56 0 -107 14q-56 -61 -84.5 -104t-38.5 -98q-9 -49 11 -78.5t62 -37t93.5 -2.5t112.5 21l-14 -92q-67 -16 -133.5 -17t-123.5 15t-87.5 60.5
t-18.5 113.5q8 45 39 96t55 78t74 80q-34 43 -22 148q-66 -98 -172.5 -157.5t-245.5 -59.5q-188 0 -267 68t-49 235t127.5 236t292.5 69h369l2 20q15 91 17.5 157t-55.5 103t-192 37h-346zM952 471h-362q-223 0 -258 -188q-20 -111 28.5 -148t192.5 -37q137 0 249 82
t134 199z" />
    <glyph glyph-name="Cacute" unicode="&#x106;" horiz-adv-x="1683" 
d="M1067 1554l178 330h121l-192 -330h-107zM430 717q-26 -151 -2.5 -266t88.5 -192.5t161 -117t216 -39.5q112 0 217 38t180 98t125 133t62 145h151q-13 -72 -52 -146.5t-107 -144.5t-154.5 -124.5t-202 -87.5t-242.5 -33q-148 0 -270.5 51.5t-204 145t-114 233.5t-2.5 307
q29 167 111 307t196.5 233.5t255 145t288.5 51.5q127 0 231 -33t171.5 -87.5t110.5 -124.5t56.5 -144.5t0.5 -146.5h-152q11 48 3.5 97t-24 94.5t-54 86t-86 70.5t-120.5 47.5t-157 17.5q-106 0 -213 -40t-202.5 -114t-167 -194t-97.5 -266z" />
    <glyph glyph-name="cacute" unicode="&#x107;" 
d="M805 1145l178 330h121l-193 -330h-106zM367 512q-34 -195 52.5 -304.5t270.5 -109.5q138 0 251.5 85.5t131.5 183.5h148q-12 -67 -54 -134t-109.5 -124.5t-168.5 -93t-217 -35.5q-240 0 -368 143.5t-85 388.5q29 163 122 285t227.5 184.5t291.5 62.5q116 0 204.5 -35.5
t135.5 -92.5t65.5 -124t6.5 -135h-148q8 48 -4 94t-43.5 86t-93 64.5t-145.5 24.5q-161 0 -299 -112.5t-172 -301.5z" />
    <glyph glyph-name="Ccircumflex" unicode="&#x108;" horiz-adv-x="1683" 
d="M811 1571l322 299h84l18 -27h4l-4 -2l197 -270h-117l-146 207l-219 -207h-139zM430 717q-26 -151 -2.5 -266t88.5 -192.5t161 -117t216 -39.5q112 0 217 38t180 98t125 133t62 145h151q-13 -72 -52 -146.5t-107 -144.5t-154.5 -124.5t-202 -87.5t-242.5 -33
q-148 0 -270.5 51.5t-204 145t-114 233.5t-2.5 307q29 167 111 307t196.5 233.5t255 145t288.5 51.5q127 0 231 -33t171.5 -87.5t110.5 -124.5t56.5 -144.5t0.5 -146.5h-152q11 48 3.5 97t-24 94.5t-54 86t-86 70.5t-120.5 47.5t-157 17.5q-106 0 -213 -40t-202.5 -114
t-167 -194t-97.5 -266z" />
    <glyph glyph-name="ccircumflex" unicode="&#x109;" 
d="M539 1161l321 299h84l17 -26h4l-2 -2l196 -271h-117l-145 207l-219 -207h-139zM367 512q-34 -195 52.5 -304.5t270.5 -109.5q138 0 251.5 85.5t131.5 183.5h148q-12 -67 -54 -134t-109.5 -124.5t-168.5 -93t-217 -35.5q-240 0 -368 143.5t-85 388.5q29 163 122 285
t227.5 184.5t291.5 62.5q116 0 204.5 -35.5t135.5 -92.5t65.5 -124t6.5 -135h-148q8 48 -4 94t-43.5 86t-93 64.5t-145.5 24.5q-161 0 -299 -112.5t-172 -301.5z" />
    <glyph glyph-name="Cdotaccent" unicode="&#x10a;" horiz-adv-x="1683" 
d="M1030 1692q8 46 46 78t85 32q46 0 72.5 -32t19.5 -78q-9 -47 -47 -80t-84 -33q-47 0 -74 33t-18 80zM430 717q-26 -151 -2.5 -266t88.5 -192.5t161 -117t216 -39.5q112 0 217 38t180 98t125 133t62 145h151q-13 -72 -52 -146.5t-107 -144.5t-154.5 -124.5t-202 -87.5
t-242.5 -33q-148 0 -270.5 51.5t-204 145t-114 233.5t-2.5 307q29 167 111 307t196.5 233.5t255 145t288.5 51.5q127 0 231 -33t171.5 -87.5t110.5 -124.5t56.5 -144.5t0.5 -146.5h-152q11 48 3.5 97t-24 94.5t-54 86t-86 70.5t-120.5 47.5t-157 17.5q-106 0 -213 -40
t-202.5 -114t-167 -194t-97.5 -266z" />
    <glyph glyph-name="cdotaccent" unicode="&#x10b;" 
d="M756 1282q9 46 47.5 78.5t85.5 32.5q46 0 72.5 -32.5t17.5 -78.5q-7 -47 -45 -80t-84 -33q-47 0 -74.5 33t-19.5 80zM367 512q-34 -195 52.5 -304.5t270.5 -109.5q138 0 251.5 85.5t131.5 183.5h148q-12 -67 -54 -134t-109.5 -124.5t-168.5 -93t-217 -35.5
q-240 0 -368 143.5t-85 388.5q29 163 122 285t227.5 184.5t291.5 62.5q116 0 204.5 -35.5t135.5 -92.5t65.5 -124t6.5 -135h-148q8 48 -4 94t-43.5 86t-93 64.5t-145.5 24.5q-161 0 -299 -112.5t-172 -301.5z" />
    <glyph glyph-name="Ccaron" unicode="&#x10c;" horiz-adv-x="1683" 
d="M860 1853h117l145 -206l219 206h140l-322 -299h-84zM430 717q-26 -151 -2.5 -266t88.5 -192.5t161 -117t216 -39.5q112 0 217 38t180 98t125 133t62 145h151q-13 -72 -52 -146.5t-107 -144.5t-154.5 -124.5t-202 -87.5t-242.5 -33q-148 0 -270.5 51.5t-204 145
t-114 233.5t-2.5 307q29 167 111 307t196.5 233.5t255 145t288.5 51.5q127 0 231 -33t171.5 -87.5t110.5 -124.5t56.5 -144.5t0.5 -146.5h-152q11 48 3.5 97t-24 94.5t-54 86t-86 70.5t-120.5 47.5t-157 17.5q-106 0 -213 -40t-202.5 -114t-167 -194t-97.5 -266z" />
    <glyph glyph-name="ccaron" unicode="&#x10d;" 
d="M586 1444h116l146 -207l219 207h139l-319 -299h-84zM367 512q-34 -195 52.5 -304.5t270.5 -109.5q138 0 251.5 85.5t131.5 183.5h148q-12 -67 -54 -134t-109.5 -124.5t-168.5 -93t-217 -35.5q-240 0 -368 143.5t-85 388.5q29 163 122 285t227.5 184.5t291.5 62.5
q116 0 204.5 -35.5t135.5 -92.5t65.5 -124t6.5 -135h-148q8 48 -4 94t-43.5 86t-93 64.5t-145.5 24.5q-161 0 -299 -112.5t-172 -301.5z" />
    <glyph glyph-name="Dcaron" unicode="&#x10e;" horiz-adv-x="1640" 
d="M838 1853h116l146 -206l219 206h139l-321 -299h-84zM995 1434q118 0 223 -30t189 -89t139.5 -145.5t75.5 -200t-4 -252.5q-24 -135 -85 -251.5t-146 -201t-190.5 -145t-220.5 -90t-233 -29.5h-559l252 1434h559zM354 123h412q113 0 224.5 39t209 111.5t169.5 187.5
t97 256q25 142 -0.5 256t-93.5 187.5t-169 112t-228 38.5h-412z" />
    <glyph glyph-name="dcaron" unicode="&#x10f;" horiz-adv-x="1812" 
d="M1878 1266l-192 -269h-82l125 205q-42 9 -64.5 44.5t-15.5 82.5q9 53 52.5 89t98.5 36q52 0 82 -36t21 -89q-5 -30 -25 -63zM291 129q-113 148 -72 383t206.5 383.5t389.5 148.5q126 0 228.5 -59t148.5 -158l106 607h144l-252 -1434h-143l34 197q-83 -101 -205 -159
t-249 -58q-224 0 -336 149zM684 98q85 0 179 40.5t167.5 115.5t89.5 162l35 194q23 135 -71.5 225.5t-252.5 90.5q-163 0 -297 -115.5t-167 -298.5q-33 -190 49 -302t268 -112z" />
    <glyph glyph-name="Dcroat" unicode="&#x110;" horiz-adv-x="1640" 
d="M88 768h231l117 666h559q118 0 223 -30t189 -89t139.5 -145.5t75.5 -200t-4 -252.5q-24 -135 -85 -251.5t-146 -201t-190.5 -145t-220.5 -90t-233 -29.5h-559l117 666h-231zM354 123h412q113 0 224.5 39t209 111.5t169.5 187.5t97 256q25 142 -0.5 256t-93.5 187.5
t-169 112t-228 38.5h-414l-94 -543h405l-18 -102h-405z" />
    <glyph glyph-name="dcroat" unicode="&#x111;" horiz-adv-x="1353" 
d="M836 1270h434l28 164h144l-29 -164h211l-14 -82h-211l-209 -1188h-143l34 197q-83 -100 -205.5 -158.5t-248.5 -58.5q-224 0 -336.5 148.5t-71.5 383.5t206.5 383.5t389.5 148.5q126 0 228 -58t149 -157l63 359h-434zM1122 426v8l37 201q10 127 -84 209t-244 82
q-163 0 -297 -115.5t-167 -298.5q-33 -190 49 -302t268 -112q129 0 265 88.5t167 212.5z" />
    <glyph glyph-name="Emacron" unicode="&#x112;" horiz-adv-x="1292" 
d="M741 1690h478l-15 -82h-477zM438 1434h989l-20 -123h-842l-90 -504h780l-20 -123h-780l-99 -561h842l-22 -123h-990z" />
    <glyph glyph-name="emacron" unicode="&#x113;" 
d="M629 1280h477l-14 -82h-478zM354 469q-20 -184 65 -277.5t247 -93.5q133 0 251 75.5t134 158.5h147q-15 -62 -61 -123t-115.5 -113t-170 -84t-212.5 -32q-105 0 -191.5 36.5t-145 103.5t-82 168.5t-1.5 223.5t80.5 223.5t141 168.5t182 103.5t204.5 36.5
q231 0 344 -138.5t78 -373.5l-12 -63h-883zM1108 588q15 175 -60.5 256.5t-234.5 81.5q-84 0 -167.5 -35.5t-157 -114.5t-107.5 -188h727z" />
    <glyph glyph-name="Ebreve" unicode="&#x114;" horiz-adv-x="1292" 
d="M715 1905h90q-21 -121 23 -181.5t147 -60.5q93 0 164 62t92 180h90q-28 -163 -127.5 -249.5t-235.5 -86.5t-203.5 86.5t-39.5 249.5zM438 1434h989l-20 -123h-842l-90 -504h780l-20 -123h-780l-99 -561h842l-22 -123h-990z" />
    <glyph glyph-name="ebreve" unicode="&#x115;" 
d="M623 1495h90q-21 -121 23 -181.5t147 -60.5q93 0 164 62t92 180h90q-30 -163 -128.5 -249.5t-234.5 -86.5t-204.5 86.5t-38.5 249.5zM354 469q-20 -184 65 -277.5t247 -93.5q133 0 251 75.5t134 158.5h147q-15 -62 -61 -123t-115.5 -113t-170 -84t-212.5 -32
q-105 0 -191.5 36.5t-145 103.5t-82 168.5t-1.5 223.5t80.5 223.5t141 168.5t182 103.5t204.5 36.5q231 0 344 -138.5t78 -373.5l-12 -63h-883zM1108 588q15 175 -60.5 256.5t-234.5 81.5q-84 0 -167.5 -35.5t-157 -114.5t-107.5 -188h727z" />
    <glyph glyph-name="Edotaccent" unicode="&#x116;" horiz-adv-x="1292" 
d="M868 1692q8 46 46 78t85 32q46 0 73 -32t20 -78q-9 -47 -47 -80t-84 -33q-47 0 -74.5 33t-18.5 80zM438 1434h989l-20 -123h-842l-90 -504h780l-20 -123h-780l-99 -561h842l-22 -123h-990z" />
    <glyph glyph-name="edotaccent" unicode="&#x117;" 
d="M756 1282q9 46 47.5 78.5t85.5 32.5q46 0 72.5 -32.5t17.5 -78.5q-7 -47 -45 -80t-84 -33q-47 0 -74.5 33t-19.5 80zM354 469q-20 -184 65 -277.5t247 -93.5q133 0 251 75.5t134 158.5h147q-15 -62 -61 -123t-115.5 -113t-170 -84t-212.5 -32q-105 0 -191.5 36.5
t-145 103.5t-82 168.5t-1.5 223.5t80.5 223.5t141 168.5t182 103.5t204.5 36.5q231 0 344 -138.5t78 -373.5l-12 -63h-883zM1108 588q15 175 -60.5 256.5t-234.5 81.5q-84 0 -167.5 -35.5t-157 -114.5t-107.5 -188h727z" />
    <glyph glyph-name="Eogonek" unicode="&#x118;" horiz-adv-x="1292" 
d="M438 1434h989l-20 -123h-842l-90 -504h780l-20 -123h-780l-99 -561h842l-22 -123h-193l4 -4q-40 -42 -56.5 -60.5t-41.5 -50.5t-36.5 -60.5t-16.5 -60.5q-9 -49 10.5 -78t62 -36.5t93 -2.5t112.5 21l-14 -92q-67 -16 -133.5 -17t-123.5 15t-87.5 60.5t-18.5 113.5
q12 64 54.5 122.5t111.5 129.5h-717z" />
    <glyph glyph-name="eogonek" unicode="&#x119;" 
d="M815 -438q-67 -16 -132.5 -17t-122.5 15t-87 60.5t-18 113.5q11 63 51.5 120t107.5 126q-207 9 -321.5 153t-73.5 379q22 122 80.5 223.5t141 168.5t182 103.5t204.5 36.5q231 0 344 -138.5t78 -373.5l-12 -63h-883q-20 -184 65 -277.5t247 -93.5q133 0 251 75.5
t134 158.5h147q-30 -123 -165 -227.5t-331 -122.5q-50 -52 -73 -79t-46.5 -68.5t-31.5 -84.5q-8 -49 12 -78t62 -36.5t93 -2.5t113 21zM1108 588q15 175 -60.5 256.5t-234.5 81.5q-84 0 -167.5 -35.5t-157 -114.5t-107.5 -188h727z" />
    <glyph glyph-name="Ecaron" unicode="&#x11a;" horiz-adv-x="1292" 
d="M705 1853h116l146 -206l219 206h139l-321 -299h-84zM438 1434h989l-20 -123h-842l-90 -504h780l-20 -123h-780l-99 -561h842l-22 -123h-990z" />
    <glyph glyph-name="ecaron" unicode="&#x11b;" 
d="M586 1444h116l146 -207l219 207h139l-319 -299h-84zM354 469q-20 -184 65 -277.5t247 -93.5q133 0 251 75.5t134 158.5h147q-15 -62 -61 -123t-115.5 -113t-170 -84t-212.5 -32q-105 0 -191.5 36.5t-145 103.5t-82 168.5t-1.5 223.5t80.5 223.5t141 168.5t182 103.5
t204.5 36.5q231 0 344 -138.5t78 -373.5l-12 -63h-883zM1108 588q15 175 -60.5 256.5t-234.5 81.5q-84 0 -167.5 -35.5t-157 -114.5t-107.5 -188h727z" />
    <glyph glyph-name="Gcircumflex" unicode="&#x11c;" horiz-adv-x="1703" 
d="M821 1571l322 299h84l18 -27h4l-4 -2l197 -270h-117l-145 207l-219 -207h-140zM430 727q-53 -294 78 -452t412 -158q215 0 389 128.5t223 336.5h-614l20 118h741l-123 -700h-126l47 268q-101 -128 -254.5 -201t-341.5 -73q-154 0 -278.5 50.5t-207 143t-114.5 232
t-2 307.5q39 221 170.5 388.5t314 253t385.5 85.5q145 0 261.5 -46t183.5 -118.5t97 -159.5t15 -172h-152q12 69 -7.5 134t-69 119t-140.5 87t-211 33q-117 0 -230 -40t-208 -114t-164 -190.5t-94 -259.5z" />
    <glyph glyph-name="gcircumflex" unicode="&#x11d;" horiz-adv-x="1353" 
d="M573 1161l322 299h84l16 -26h4l-2 -2l197 -271h-117l-145 207l-219 -207h-140zM231 -291h387q184 0 297.5 94.5t145.5 274.5l20 119q-83 -101 -205 -159t-249 -58q-224 0 -336.5 148.5t-71.5 383.5t206.5 383.5t389.5 148.5q126 0 228.5 -59t148.5 -158l35 197h143
l-164 -932q-42 -242 -190.5 -372t-407.5 -130h-397zM684 98q85 0 179 40.5t167.5 115.5t89.5 162l35 194q23 135 -71.5 225.5t-252.5 90.5q-163 0 -297 -115.5t-167 -298.5q-33 -190 49 -302t268 -112z" />
    <glyph glyph-name="Gbreve" unicode="&#x11e;" horiz-adv-x="1703" 
d="M885 1905h90q-21 -121 23 -181.5t147 -60.5q93 0 164 62t92 180h90q-28 -163 -127.5 -249.5t-235.5 -86.5t-203.5 86.5t-39.5 249.5zM430 727q-53 -294 78 -452t412 -158q215 0 389 128.5t223 336.5h-614l20 118h741l-123 -700h-126l47 268q-101 -128 -254.5 -201
t-341.5 -73q-154 0 -278.5 50.5t-207 143t-114.5 232t-2 307.5q39 221 170.5 388.5t314 253t385.5 85.5q145 0 261.5 -46t183.5 -118.5t97 -159.5t15 -172h-152q12 69 -7.5 134t-69 119t-140.5 87t-211 33q-117 0 -230 -40t-208 -114t-164 -190.5t-94 -259.5z" />
    <glyph glyph-name="gbreve" unicode="&#x11f;" horiz-adv-x="1353" 
d="M639 1495h90q-21 -121 23 -181.5t147 -60.5q93 0 164 62t92 180h90q-30 -163 -128 -249.5t-234 -86.5t-205 86.5t-39 249.5zM231 -291h387q184 0 297.5 94.5t145.5 274.5l20 119q-83 -101 -205 -159t-249 -58q-224 0 -336.5 148.5t-71.5 383.5t206.5 383.5t389.5 148.5
q126 0 228.5 -59t148.5 -158l35 197h143l-164 -932q-42 -242 -190.5 -372t-407.5 -130h-397zM684 98q85 0 179 40.5t167.5 115.5t89.5 162l35 194q23 135 -71.5 225.5t-252.5 90.5q-163 0 -297 -115.5t-167 -298.5q-33 -190 49 -302t268 -112z" />
    <glyph glyph-name="Gdotaccent" unicode="&#x120;" horiz-adv-x="1703" 
d="M1040 1692q8 46 46 78t85 32q46 0 73 -32t20 -78q-9 -47 -47 -80t-84 -33q-47 0 -74.5 33t-18.5 80zM430 727q-53 -294 78 -452t412 -158q215 0 389 128.5t223 336.5h-614l20 118h741l-123 -700h-126l47 268q-101 -128 -254.5 -201t-341.5 -73q-154 0 -278.5 50.5
t-207 143t-114.5 232t-2 307.5q39 221 170.5 388.5t314 253t385.5 85.5q145 0 261.5 -46t183.5 -118.5t97 -159.5t15 -172h-152q12 69 -7.5 134t-69 119t-140.5 87t-211 33q-117 0 -230 -40t-208 -114t-164 -190.5t-94 -259.5z" />
    <glyph glyph-name="gdotaccent" unicode="&#x121;" horiz-adv-x="1353" 
d="M791 1282q9 46 47.5 78.5t85.5 32.5q46 0 72.5 -32.5t17.5 -78.5q-7 -47 -45 -80t-84 -33q-47 0 -74.5 33t-19.5 80zM231 -291h387q184 0 297.5 94.5t145.5 274.5l20 119q-83 -101 -205 -159t-249 -58q-224 0 -336.5 148.5t-71.5 383.5t206.5 383.5t389.5 148.5
q126 0 228.5 -59t148.5 -158l35 197h143l-164 -932q-42 -242 -190.5 -372t-407.5 -130h-397zM684 98q85 0 179 40.5t167.5 115.5t89.5 162l35 194q23 135 -71.5 225.5t-252.5 90.5q-163 0 -297 -115.5t-167 -298.5q-33 -190 49 -302t268 -112z" />
    <glyph glyph-name="uni0122" unicode="&#x122;" horiz-adv-x="1703" 
d="M430 727q-53 -294 78 -452t412 -158q215 0 389 128.5t223 336.5h-614l20 118h741l-123 -700h-126l47 268q-101 -128 -254.5 -201t-341.5 -73q-154 0 -278.5 50.5t-207 143t-114.5 232t-2 307.5q39 221 170.5 388.5t314 253t385.5 85.5q145 0 261.5 -46t183.5 -118.5
t97 -159.5t15 -172h-152q12 69 -7.5 134t-69 119t-140.5 87t-211 33q-117 0 -230 -40t-208 -114t-164 -190.5t-94 -259.5zM756 -197q8 42 42 70.5t76 28.5q41 0 64.5 -29t15.5 -70q-6 -35 -30 -63l-148 -205h-57l104 170q-37 6 -55 33t-12 65z" />
    <glyph glyph-name="uni0123" unicode="&#x123;" horiz-adv-x="1353" 
d="M1016 1268q-8 -42 -41.5 -70.5t-75.5 -28.5q-41 0 -65 29t-17 70q6 32 29 59l147 209h58l-103 -170q37 -5 56 -32.5t12 -65.5zM231 -291h387q184 0 297.5 94.5t145.5 274.5l12 65h-2l8 52q-83 -100 -204.5 -157.5t-247.5 -57.5q-224 0 -336.5 148.5t-71.5 383.5
t206.5 383.5t389.5 148.5q126 0 228 -58t149 -157l35 195h143l-70 -389h3l-97 -543q-42 -242 -190.5 -372t-407.5 -130h-397zM1122 434l37 203q9 125 -84.5 207t-243.5 82q-163 0 -297 -115.5t-167 -298.5q-33 -190 49 -302t268 -112q82 0 173 37.5t164 107.5t95 152l6 37v2
z" />
    <glyph glyph-name="Hcircumflex" unicode="&#x124;" horiz-adv-x="1726" 
d="M831 1571l322 299h84l18 -27h5l-5 -2l197 -270h-117l-145 207l-219 -207h-140zM436 1434h148l-113 -639h1063l113 639h147l-252 -1434h-147l118 672h-1062l-119 -672h-148z" />
    <glyph glyph-name="hcircumflex" unicode="&#x125;" horiz-adv-x="1277" 
d="M633 1151l321 299h84l19 -27h4l-4 -2l196 -270h-116l-146 207l-219 -207h-139zM416 1434h143l-108 -621q81 106 199.5 168.5t244.5 62.5q111 0 185.5 -30.5t109 -85t44.5 -130.5t-9 -167l-111 -631h-143l106 600q15 72 11.5 132t-27 103t-84 67t-158.5 24
q-84 0 -171 -43.5t-154 -123.5t-84 -175l-103 -584h-143z" />
    <glyph glyph-name="Hbar" unicode="&#x126;" horiz-adv-x="1726" 
d="M436 1434h148l-76 -430h1063l76 430h147l-252 -1434h-147l71 406h-1063l-71 -406h-148zM424 528h1063l63 353h-1063z" />
    <glyph glyph-name="hbar" unicode="&#x127;" horiz-adv-x="1277" 
d="M967 1270l-15 -82h-436l-65 -375q80 107 198.5 169t245.5 62q111 0 185.5 -30.5t109 -85t44.5 -130.5t-9 -167l-111 -631h-143l106 600q15 72 11.5 132t-27 103t-84 67t-158.5 24q-83 0 -169 -42t-152.5 -119.5t-85.5 -170.5l-4 -29h-2l-99 -565h-143l209 1188h-211
l14 82h211l29 164h143l-29 -164h437z" />
    <glyph glyph-name="Itilde" unicode="&#x128;" horiz-adv-x="516" 
d="M565 1708q93 -44 123 -47q49 -7 93 45q20 24 44 63l68 -26q-25 -45 -50.5 -76t-47.5 -50.5t-49 -28t-48 -10.5t-51.5 5t-53 14.5t-58.5 22.5q-92 41 -120 44q-47 5 -88 -45q-19 -23 -44 -65l-72 25q29 51 57.5 86t58 52.5t55 25t58.5 2.5t59.5 -13t65.5 -24zM436 1434
h148l-252 -1434h-148z" />
    <glyph glyph-name="itilde" unicode="&#x129;" horiz-adv-x="440" 
d="M457 1298q92 -44 123 -47q50 -6 95 49q19 22 42 60l67 -27q-29 -52 -57.5 -86.5t-58 -51.5t-55 -24t-60 -1t-60 14.5t-67.5 25.5q-93 41 -120 44q-47 6 -87 -42q-19 -24 -45 -67l-72 24q35 61 70.5 98.5t66 53.5t70 15t70.5 -10t78 -28zM330 1024h143l-180 -1024h-143z
" />
    <glyph glyph-name="Imacron" unicode="&#x12a;" horiz-adv-x="516" 
d="M317 1690h478l-15 -82h-477zM436 1434h148l-252 -1434h-148z" />
    <glyph glyph-name="imacron" unicode="&#x12b;" horiz-adv-x="440" 
d="M207 1280h477l-14 -82h-477zM330 1024h143l-180 -1024h-143z" />
    <glyph glyph-name="Iogonek" unicode="&#x12e;" horiz-adv-x="516" 
d="M436 1434h148l-252 -1434h-37l4 -4q-42 -44 -57 -60.5t-41 -50t-37.5 -61.5t-16.5 -60q-9 -49 11 -78t62 -36.5t93.5 -2.5t112.5 21l-14 -92q-67 -16 -133.5 -17t-123.5 15t-87.5 60.5t-18.5 113.5q12 64 54.5 122.5t111.5 129.5h-31z" />
    <glyph glyph-name="iogonek" unicode="&#x12f;" horiz-adv-x="440" 
d="M358 1370q8 43 45 74t82 31q43 0 67.5 -31t16.5 -74q-8 -44 -42.5 -75t-77.5 -31q-46 0 -72.5 31t-18.5 75zM330 1024h143l-180 -1024h-41l4 -4q-42 -44 -57 -60.5t-41 -50t-37.5 -61.5t-16.5 -60q-9 -49 11 -78t62 -36.5t93.5 -2.5t112.5 21l-14 -92q-67 -16 -133.5 -17
t-123.5 15t-87.5 60.5t-18.5 113.5q12 64 54.5 122.5t111.5 129.5h-22z" />
    <glyph glyph-name="Idotaccent" unicode="&#x130;" horiz-adv-x="516" 
d="M446 1692q7 46 46 78t86 32q46 0 72.5 -32t19.5 -78q-9 -47 -47 -80t-84 -33q-47 0 -74.5 33t-18.5 80zM436 1434h148l-252 -1434h-148z" />
    <glyph glyph-name="dotlessi" unicode="&#x131;" horiz-adv-x="440" 
d="M330 1024h143l-180 -1024h-143z" />
    <glyph glyph-name="IJ" unicode="&#x132;" horiz-adv-x="1835" 
d="M436 1434h148l-252 -1434h-148zM1755 1434h148l-162 -922q-42 -242 -202.5 -387t-395.5 -145q-242 0 -348.5 144.5t-63.5 393.5h148q-73 -416 286 -416q154 0 275 113t153 297z" />
    <glyph glyph-name="ij" unicode="&#x133;" horiz-adv-x="880" 
d="M358 1370q8 43 45 74t82 31q43 0 67.5 -31t16.5 -74q-8 -44 -42.5 -75t-77.5 -31q-46 0 -72.5 31t-18.5 75zM797 1370q8 43 45 74t82 31q43 0 67.5 -31t16.5 -74q-7 -44 -42.5 -75t-78.5 -31q-46 0 -72 31t-18 75zM330 1024h143l-180 -1024h-143zM190 -291h119
q128 0 188.5 52t84.5 188l188 1075h143l-194 -1100q-57 -334 -383 -334h-166z" />
    <glyph glyph-name="Jcircumflex" unicode="&#x134;" horiz-adv-x="1318" 
d="M1026 1571l322 299h84l18 -27h4l-4 -2l197 -270h-117l-146 207l-219 -207h-139zM1239 1434h147l-161 -922q-42 -242 -202.5 -387t-395.5 -145q-242 0 -348.5 144.5t-63.5 393.5h147q-35 -199 33.5 -307.5t253.5 -108.5q154 0 275 113t153 297z" />
    <glyph glyph-name="jcircumflex" unicode="&#x135;" horiz-adv-x="440" 
d="M117 1161l321 299h84l19 -26h2l194 -273h-116l-148 207l-217 -207h-139zM-252 -301h119q123 0 187.5 61.5t86.5 188.5l189 1075h143l-194 -1102q-57 -332 -383 -332h-166z" />
    <glyph glyph-name="uni0136" unicode="&#x136;" horiz-adv-x="1400" 
d="M436 1434h148l-121 -695h229l645 695h176l-704 -750l510 -684h-186l-453 616h-240l-108 -616h-148zM594 -197q8 41 42 70t77 29q41 0 64.5 -29t15.5 -70q-5 -34 -31 -63l-148 -205h-57l105 170q-37 6 -55.5 33t-12.5 65z" />
    <glyph glyph-name="uni0137" unicode="&#x137;" horiz-adv-x="1208" 
d="M416 1434h143l-147 -842h213l444 432h166l-508 -487l383 -537h-172l-330 473h-217l-84 -473h-143zM508 -197q8 41 42 70t77 29q41 0 64.5 -29t15.5 -70q-5 -34 -31 -63l-148 -205h-57l104 170q-37 6 -55 33t-12 65z" />
    <glyph glyph-name="kgreenlandic" unicode="&#x138;" horiz-adv-x="1208" 
d="M344 1024h143l-75 -432h213l444 432h166l-510 -487l385 -537h-172l-330 473h-217l-84 -473h-143z" />
    <glyph glyph-name="Lacute" unicode="&#x139;" horiz-adv-x="1323" 
d="M436 1434h148l-230 -1311h873l-23 -123h-1020zM971 1104l178 330h121l-193 -330h-106z" />
    <glyph glyph-name="lacute" unicode="&#x13a;" horiz-adv-x="522" 
d="M473 1554l178 330h121l-192 -330h-107zM512 119l-20 -119h-95q-137 1 -175 59t-11 207l205 1168h143l-197 -1121q-24 -120 -2.5 -157t125.5 -37h27z" />
    <glyph glyph-name="uni013B" unicode="&#x13b;" horiz-adv-x="1323" 
d="M436 1434h148l-230 -1311h873l-23 -123h-1020zM580 -197q8 42 42 70.5t76 28.5q41 0 64.5 -29t15.5 -70q-6 -35 -30 -63l-148 -205h-57l104 170q-37 6 -55 33t-12 65z" />
    <glyph glyph-name="uni013C" unicode="&#x13c;" horiz-adv-x="522" 
d="M512 119l-20 -119h-95q-137 1 -175 59t-11 207l205 1168h143l-197 -1121q-24 -120 -2.5 -157t125.5 -37h27zM201 -197q8 41 41.5 70t76.5 29q41 0 64.5 -29t15.5 -70q-6 -35 -30 -63l-148 -205h-57l104 170q-37 6 -55 33t-12 65z" />
    <glyph glyph-name="Lcaron" unicode="&#x13d;" horiz-adv-x="1323" 
d="M436 1434h148l-230 -1311h873l-23 -123h-1020zM1309 1245l-193 -268h-82l127 205q-43 9 -66 44.5t-14 82.5q9 53 52 89t98 36q53 0 83 -36.5t21 -88.5q-5 -29 -26 -64z" />
    <glyph glyph-name="lcaron" unicode="&#x13e;" horiz-adv-x="966" 
d="M1030 1249l-194 -268h-82l127 205q-43 9 -65 44.5t-15 82.5q9 53 52.5 89t98.5 36q52 0 82 -36t21 -89q-4 -21 -25 -64zM512 119l-20 -119h-95q-137 1 -175 59t-11 207l205 1168h143l-197 -1121q-24 -120 -2.5 -157t125.5 -37h27z" />
    <glyph glyph-name="Ldot" unicode="&#x13f;" horiz-adv-x="1323" 
d="M436 1434h148l-230 -1311h873l-23 -123h-1020zM918 1309q9 53 51.5 89t97.5 36q53 0 83 -36.5t21 -88.5q-10 -55 -52 -92t-95 -37q-56 0 -86 37t-20 92z" />
    <glyph glyph-name="ldot" unicode="&#x140;" horiz-adv-x="1005" 
d="M512 119l-20 -119h-95q-137 1 -175 59t-11 207l205 1168h143l-197 -1121q-24 -120 -2.5 -157t125.5 -37h27zM780 1309q9 53 52 89t98 36q53 0 83 -36.5t21 -88.5q-10 -55 -52 -92t-95 -37q-56 0 -86.5 37t-20.5 92z" />
    <glyph glyph-name="Lslash" unicode="&#x141;" horiz-adv-x="1323" 
d="M-76 707l410 139l102 588h148l-95 -535l377 129l17 -96l-412 -141l-117 -668h873l-23 -123h-1020l129 737l-370 -127z" />
    <glyph glyph-name="lslash" unicode="&#x142;" horiz-adv-x="522" 
d="M-102 707l415 141l103 586h143l-94 -535l377 129l16 -96l-412 -141l-84 -478q-24 -120 -2.5 -157t125.5 -37h27l-20 -119h-95q-137 1 -175 59t-11 207l82 473l-375 -129z" />
    <glyph glyph-name="Nacute" unicode="&#x143;" horiz-adv-x="1722" 
d="M1128 1554l179 330h120l-192 -330h-107zM436 1434h148l843 -1229l215 1229h148l-252 -1434h-147l-844 1217l-215 -1217h-148z" />
    <glyph glyph-name="nacute" unicode="&#x144;" horiz-adv-x="1277" 
d="M788 1145l179 330h120l-192 -330h-107zM344 1024h143l-36 -211q81 106 199.5 168.5t244.5 62.5q111 0 185.5 -30.5t109 -85t44.5 -130.5t-9 -167l-111 -631h-143l106 600q15 72 11.5 132t-27 103t-84 67t-158.5 24q-84 0 -171 -43.5t-154 -123.5t-84 -175l-103 -584h-143
z" />
    <glyph glyph-name="uni0145" unicode="&#x145;" horiz-adv-x="1722" 
d="M436 1434h148l843 -1229l215 1229h148l-252 -1434h-147l-844 1217l-215 -1217h-148zM754 -197q8 42 42 70.5t76 28.5q41 0 64.5 -29t15.5 -70q-6 -35 -30 -63l-148 -205h-57l104 170q-37 6 -55 33t-12 65z" />
    <glyph glyph-name="uni0146" unicode="&#x146;" horiz-adv-x="1277" 
d="M344 1024h143l-36 -211q81 106 199.5 168.5t244.5 62.5q111 0 185.5 -30.5t109 -85t44.5 -130.5t-9 -167l-111 -631h-143l106 600q15 72 11.5 132t-27 103t-84 67t-158.5 24q-84 0 -171 -43.5t-154 -123.5t-84 -175l-103 -584h-143zM526 -197q8 41 42 70t77 29
q41 0 64.5 -29t15.5 -70q-5 -34 -31 -63l-147 -205h-58l105 170q-37 6 -55.5 33t-12.5 65z" />
    <glyph glyph-name="Ncaron" unicode="&#x147;" horiz-adv-x="1722" 
d="M909 1853h117l145 -206l220 206h139l-322 -299h-84zM436 1434h148l843 -1229l215 1229h148l-252 -1434h-147l-844 1217l-215 -1217h-148z" />
    <glyph glyph-name="ncaron" unicode="&#x148;" horiz-adv-x="1277" 
d="M582 1444h116l146 -207l219 207h139l-319 -299h-84zM344 1024h143l-36 -211q81 106 199.5 168.5t244.5 62.5q111 0 185.5 -30.5t109 -85t44.5 -130.5t-9 -167l-111 -631h-143l106 600q15 72 11.5 132t-27 103t-84 67t-158.5 24q-84 0 -171 -43.5t-154 -123.5t-84 -175
l-103 -584h-143z" />
    <glyph glyph-name="napostrophe" unicode="&#x149;" horiz-adv-x="1277" 
d="M983 1323l-158 -221h-57l102 170q-37 4 -56 32t-11 66q8 41 41 69.5t76 28.5q41 0 64.5 -28.5t16.5 -69.5q-8 -34 -18 -47zM344 1024h143l-36 -211q81 106 199.5 168.5t244.5 62.5q111 0 185.5 -30.5t109 -85t44.5 -130.5t-9 -167l-111 -631h-143l106 600q15 72 11.5 132
t-27 103t-84 67t-158.5 24q-84 0 -171 -43.5t-154 -123.5t-84 -175l-103 -584h-143z" />
    <glyph glyph-name="Omacron" unicode="&#x14c;" horiz-adv-x="1789" 
d="M954 1690h478l-15 -82h-477zM287 408q-38 141 -8 309t117 309.5t207.5 233.5t263 143t286.5 51q145 0 270.5 -51t214 -143t126.5 -233.5t8 -309.5q-24 -135 -85.5 -254t-148.5 -206t-192.5 -150.5t-221 -95t-231.5 -31.5q-145 0 -269.5 51t-212 143t-124.5 234z
M1133 1331q-109 0 -222.5 -42.5t-211.5 -119t-171 -195t-98 -257.5q-25 -140 1 -257t92.5 -194.5t167 -120.5t224.5 -43q109 0 222.5 43t212.5 120t172 195.5t98 256.5q25 141 -1 258t-93 194t-168 119.5t-225 42.5z" />
    <glyph glyph-name="omacron" unicode="&#x14d;" horiz-adv-x="1345" 
d="M659 1280h478l-15 -82h-477zM692 98q71 0 146.5 29.5t142 81.5t116.5 131.5t66 171.5q33 188 -58 301t-265 113q-71 0 -146.5 -29.5t-142 -81.5t-116.5 -131.5t-66 -171.5q-33 -188 58 -301t265 -113zM860 1044q107 0 198.5 -37t155.5 -103.5t91 -168.5t6 -223
q-28 -161 -128 -284.5t-233.5 -185.5t-277.5 -62q-107 0 -198.5 37t-155.5 103.5t-91 168.5t-6 223q28 161 128 284.5t233.5 185.5t277.5 62z" />
    <glyph glyph-name="Obreve" unicode="&#x14e;" horiz-adv-x="1789" 
d="M928 1905h90q-21 -121 23 -181.5t147 -60.5q93 0 164 62t92 180h90q-28 -163 -127.5 -249.5t-235.5 -86.5t-203.5 86.5t-39.5 249.5zM287 408q-38 141 -8 309t117 309.5t207.5 233.5t263 143t286.5 51q145 0 270.5 -51t214 -143t126.5 -233.5t8 -309.5
q-24 -135 -85.5 -254t-148.5 -206t-192.5 -150.5t-221 -95t-231.5 -31.5q-145 0 -269.5 51t-212 143t-124.5 234zM1133 1331q-109 0 -222.5 -42.5t-211.5 -119t-171 -195t-98 -257.5q-25 -140 1 -257t92.5 -194.5t167 -120.5t224.5 -43q109 0 222.5 43t212.5 120t172 195.5
t98 256.5q25 141 -1 258t-93 194t-168 119.5t-225 42.5z" />
    <glyph glyph-name="obreve" unicode="&#x14f;" horiz-adv-x="1345" 
d="M635 1495h90q-21 -121 23 -181.5t147 -60.5q93 0 164 62t92 180h90q-30 -163 -128 -249.5t-234 -86.5t-205 86.5t-39 249.5zM692 98q71 0 146.5 29.5t142 81.5t116.5 131.5t66 171.5q33 188 -58 301t-265 113q-71 0 -146.5 -29.5t-142 -81.5t-116.5 -131.5t-66 -171.5
q-33 -188 58 -301t265 -113zM860 1044q107 0 198.5 -37t155.5 -103.5t91 -168.5t6 -223q-28 -161 -128 -284.5t-233.5 -185.5t-277.5 -62q-107 0 -198.5 37t-155.5 103.5t-91 168.5t-6 223q28 161 128 284.5t233.5 185.5t277.5 62z" />
    <glyph glyph-name="Ohungarumlaut" unicode="&#x150;" horiz-adv-x="1789" 
d="M1260 1554l178 330h121l-193 -330h-106zM940 1554l178 330h121l-192 -330h-107zM287 408q-38 141 -8 309t117 309.5t207.5 233.5t263 143t286.5 51q145 0 270.5 -51t214 -143t126.5 -233.5t8 -309.5q-24 -135 -85.5 -254t-148.5 -206t-192.5 -150.5t-221 -95
t-231.5 -31.5q-145 0 -269.5 51t-212 143t-124.5 234zM1133 1331q-109 0 -222.5 -42.5t-211.5 -119t-171 -195t-98 -257.5q-25 -140 1 -257t92.5 -194.5t167 -120.5t224.5 -43q109 0 222.5 43t212.5 120t172 195.5t98 256.5q25 141 -1 258t-93 194t-168 119.5t-225 42.5z
" />
    <glyph glyph-name="ohungarumlaut" unicode="&#x151;" horiz-adv-x="1345" 
d="M967 1145l178 330h121l-193 -330h-106zM647 1145l178 330h121l-192 -330h-107zM692 98q71 0 146.5 29.5t142 81.5t116.5 131.5t66 171.5q33 188 -58 301t-265 113q-71 0 -146.5 -29.5t-142 -81.5t-116.5 -131.5t-66 -171.5q-33 -188 58 -301t265 -113zM860 1044
q107 0 198.5 -37t155.5 -103.5t91 -168.5t6 -223q-28 -161 -128 -284.5t-233.5 -185.5t-277.5 -62q-107 0 -198.5 37t-155.5 103.5t-91 168.5t-6 223q28 161 128 284.5t233.5 185.5t277.5 62z" />
    <glyph glyph-name="OE" unicode="&#x152;" horiz-adv-x="2603" 
d="M287 408q-38 141 -8 309t117 309.5t207.5 233.5t263 143t286.5 51q176 0 322 -75t229 -210l45 265h989l-20 -123h-842l-90 -504h780l-20 -123h-781l-98 -561h842l-23 -123h-989l47 264q-129 -135 -301.5 -209.5t-349.5 -74.5q-145 0 -269.5 51t-212 143t-124.5 234z
M1133 1331q-109 0 -222.5 -42.5t-211.5 -119t-171 -195t-98 -257.5q-25 -140 1 -257t92.5 -194.5t167 -120.5t224.5 -43q109 0 222.5 43t212.5 120t172 195.5t98 256.5q25 141 -1 258t-93 194t-168 119.5t-225 42.5z" />
    <glyph glyph-name="oe" unicode="&#x153;" horiz-adv-x="2230" 
d="M692 98q71 0 146.5 29.5t142 81.5t116.5 131.5t66 171.5q33 188 -58 301t-265 113q-71 0 -146.5 -29.5t-142 -81.5t-116.5 -131.5t-66 -171.5q-33 -188 58 -301t265 -113zM2056 588q15 175 -60.5 256.5t-234.5 81.5q-84 0 -167.5 -35.5t-157 -114.5t-107.5 -188h727z
M860 1044q145 0 258.5 -65.5t165.5 -185.5q88 120 218.5 185.5t273.5 65.5q231 0 344 -138.5t78 -373.5l-13 -63h-882q-20 -184 64.5 -277.5t246.5 -93.5q133 0 251 75.5t134 158.5h147q-15 -62 -61 -123t-115.5 -113t-170 -84t-212.5 -32q-143 0 -249.5 65.5t-151.5 185.5
q-94 -119 -231.5 -185t-282.5 -66q-107 0 -198.5 37t-155.5 103.5t-91 168.5t-6 223q28 161 128 284.5t233.5 185.5t277.5 62z" />
    <glyph glyph-name="Racute" unicode="&#x154;" horiz-adv-x="1464" 
d="M958 1554l179 330h120l-192 -330h-107zM1073 1434q24 0 51 -2.5t62.5 -9t69 -18t70 -29t65.5 -42t55.5 -57t40 -74t19.5 -94t-7 -115.5q-16 -93 -59 -168.5t-96 -122.5t-119 -81t-121 -50t-111 -24l307 -547h-172l-301 541h-399l-96 -541h-148l252 1434h637zM449 664h479
q26 0 63.5 6t96 27t108.5 53.5t93 94.5t57 142t-3.5 141t-52 94.5t-83.5 54.5t-88.5 27.5t-76.5 6.5h-479z" />
    <glyph glyph-name="racute" unicode="&#x155;" horiz-adv-x="829" 
d="M610 1145l178 330h121l-192 -330h-107zM344 1024h143l-32 -190q72 98 174 154t219 56h100l-20 -118h-142q-140 0 -245 -97t-133 -256l-101 -573h-143z" />
    <glyph glyph-name="uni0156" unicode="&#x156;" horiz-adv-x="1464" 
d="M1073 1434q24 0 51 -2.5t62.5 -9t69 -18t70 -29t65.5 -42t55.5 -57t40 -74t19.5 -94t-7 -115.5q-16 -93 -59 -168.5t-96 -122.5t-119 -81t-121 -50t-111 -24l307 -547h-172l-301 541h-399l-96 -541h-148l252 1434h637zM449 664h479q26 0 63.5 6t96 27t108.5 53.5t93 94.5
t57 142t-3.5 141t-52 94.5t-83.5 54.5t-88.5 27.5t-76.5 6.5h-479zM569 -197q8 41 42 70t77 29q41 0 64.5 -29t15.5 -70q-5 -34 -31 -63l-147 -205h-58l105 170q-37 6 -55.5 33t-12.5 65z" />
    <glyph glyph-name="uni0157" unicode="&#x157;" horiz-adv-x="829" 
d="M344 1024h143l-32 -190q72 98 174 154t219 56h100l-20 -118h-142q-140 0 -244.5 -97t-133.5 -256l-101 -573h-143zM109 -197q8 41 41.5 70t76.5 29q41 0 64.5 -29t15.5 -70q-5 -34 -31 -63l-147 -205h-57l104 170q-37 6 -55 33t-12 65z" />
    <glyph glyph-name="Rcaron" unicode="&#x158;" horiz-adv-x="1464" 
d="M750 1853h116l146 -206l219 206h139l-321 -299h-84zM1073 1434q24 0 51 -2.5t62.5 -9t69 -18t70 -29t65.5 -42t55.5 -57t40 -74t19.5 -94t-7 -115.5q-16 -93 -59 -168.5t-96 -122.5t-119 -81t-121 -50t-111 -24l307 -547h-172l-301 541h-399l-96 -541h-148l252 1434h637z
M449 664h479q26 0 63.5 6t96 27t108.5 53.5t93 94.5t57 142t-3.5 141t-52 94.5t-83.5 54.5t-88.5 27.5t-76.5 6.5h-479z" />
    <glyph glyph-name="rcaron" unicode="&#x159;" horiz-adv-x="829" 
d="M389 1444h117l145 -207l219 207h140l-320 -299h-84zM344 1024h143l-32 -190q72 98 174 154t219 56h100l-20 -118h-142q-140 0 -245 -97t-133 -256l-101 -573h-143z" />
    <glyph glyph-name="Sacute" unicode="&#x15a;" horiz-adv-x="1519" 
d="M971 1554l178 330h121l-193 -330h-106zM365 449q-13 -72 1 -131.5t59.5 -109.5t139.5 -78t230 -28q214 0 349.5 74.5t158.5 204.5q12 67 -3 110t-72 69t-105.5 37.5t-159.5 29.5q-68 11 -105 18q-54 10 -98 20t-87.5 22t-78 25t-66.5 29t-55.5 34.5t-43.5 41t-32 48.5
t-19 56t-6.5 65.5t7.5 76.5q23 126 113.5 216t224.5 133.5t299 43.5q111 0 200.5 -18.5t148 -51t101 -76.5t60 -95.5t23.5 -108.5t-7 -115h-151q11 45 8 88.5t-13.5 81.5t-41 69.5t-75 54.5t-114.5 35.5t-160 12.5q-118 0 -213.5 -26.5t-164.5 -88.5t-85 -153
q-24 -132 68.5 -183.5t362.5 -99.5q207 -37 268 -55q158 -46 206 -139q40 -76 19 -197q-32 -184 -205.5 -297.5t-472.5 -113.5q-86 0 -160 10.5t-131 30t-104 47t-78 60.5t-54.5 71t-32.5 79t-11.5 84.5t6.5 86.5h152z" />
    <glyph glyph-name="sacute" unicode="&#x15b;" horiz-adv-x="1185" 
d="M731 1145l178 330h121l-192 -330h-107zM334 322q-19 -99 50 -161.5t241 -62.5q133 0 231.5 49t110.5 119q14 79 -47.5 109t-247.5 63q-104 18 -173 40.5t-122 59t-72 91.5t-6 131q18 96 87.5 162t165 95.5t210.5 29.5t201 -30.5t132 -81t64 -109.5t8 -121h-147
q17 100 -48.5 161.5t-236.5 61.5q-109 0 -195.5 -44t-99.5 -118q-16 -86 49 -124q46 -26 193 -53q8 -1 25 -4l26 -5q85 -15 139.5 -28.5t109.5 -37t83 -53t41 -75t2 -105.5q-24 -133 -161 -217t-341 -84q-96 0 -173 20t-126 54t-80 78.5t-40.5 92.5t-0.5 97h148z" />
    <glyph glyph-name="Scircumflex" unicode="&#x15c;" horiz-adv-x="1519" 
d="M729 1571l322 299h84l18 -27h4l-4 -2l197 -270h-117l-146 207l-219 -207h-139zM365 449q-13 -72 1 -131.5t59.5 -109.5t139.5 -78t230 -28q214 0 349.5 74.5t158.5 204.5q12 67 -3 110t-72 69t-105.5 37.5t-159.5 29.5q-68 11 -105 18q-54 10 -98 20t-87.5 22t-78 25
t-66.5 29t-55.5 34.5t-43.5 41t-32 48.5t-19 56t-6.5 65.5t7.5 76.5q23 126 113.5 216t224.5 133.5t299 43.5q111 0 200.5 -18.5t148 -51t101 -76.5t60 -95.5t23.5 -108.5t-7 -115h-151q11 45 8 88.5t-13.5 81.5t-41 69.5t-75 54.5t-114.5 35.5t-160 12.5
q-118 0 -213.5 -26.5t-164.5 -88.5t-85 -153q-24 -132 68.5 -183.5t362.5 -99.5q207 -37 268 -55q158 -46 206 -139q40 -76 19 -197q-32 -184 -205.5 -297.5t-472.5 -113.5q-86 0 -160 10.5t-131 30t-104 47t-78 60.5t-54.5 71t-32.5 79t-11.5 84.5t6.5 86.5h152z" />
    <glyph glyph-name="scircumflex" unicode="&#x15d;" horiz-adv-x="1185" 
d="M489 1161l322 299h84l16 -26h4l-2 -2l197 -271h-117l-145 207l-219 -207h-140zM334 322q-19 -99 50 -161.5t241 -62.5q133 0 231.5 49t110.5 119q14 79 -47.5 109t-247.5 63q-104 18 -173 40.5t-122 59t-72 91.5t-6 131q18 96 87.5 162t165 95.5t210.5 29.5t201 -30.5
t132 -81t64 -109.5t8 -121h-147q17 100 -48.5 161.5t-236.5 61.5q-109 0 -195.5 -44t-99.5 -118q-16 -86 49 -124q46 -26 193 -53q8 -1 25 -4l26 -5q85 -15 139.5 -28.5t109.5 -37t83 -53t41 -75t2 -105.5q-24 -133 -161 -217t-341 -84q-96 0 -173 20t-126 54t-80 78.5
t-40.5 92.5t-0.5 97h148z" />
    <glyph glyph-name="Scedilla" unicode="&#x15e;" horiz-adv-x="1519" 
d="M365 449q-13 -72 1 -131.5t59.5 -109.5t139.5 -78t230 -28q214 0 349.5 74.5t158.5 204.5q12 67 -3 110t-72 69t-105.5 37.5t-159.5 29.5q-68 11 -105 18q-54 10 -98 20t-87.5 22t-78 25t-66.5 29t-55.5 34.5t-43.5 41t-32 48.5t-19 56t-6.5 65.5t7.5 76.5
q23 126 113.5 216t224.5 133.5t299 43.5q111 0 200.5 -18.5t148 -51t101 -76.5t60 -95.5t23.5 -108.5t-7 -115h-151q11 45 8 88.5t-13.5 81.5t-41 69.5t-75 54.5t-114.5 35.5t-160 12.5q-118 0 -213.5 -26.5t-164.5 -88.5t-85 -153q-24 -132 68.5 -183.5t362.5 -99.5
q207 -37 268 -55q158 -46 206 -139q40 -76 19 -197q-32 -179 -195.5 -291.5t-445.5 -119.5l-41 -93q45 -2 75.5 -8t58.5 -22t38 -48t2 -81q-13 -72 -58 -119.5t-106.5 -65.5t-127 -18t-128.5 16l15 86q72 -19 136.5 -19.5t113 31t59.5 91.5q8 44 -12.5 65t-44.5 23.5
t-83 1.5h-34h-4l63 160q-157 5 -270 47t-171 109t-78.5 146t-4.5 167h152z" />
    <glyph glyph-name="scedilla" unicode="&#x15f;" horiz-adv-x="1185" 
d="M334 322q-19 -99 50 -161.5t241 -62.5q133 0 231.5 49t110.5 119q14 79 -47.5 109t-247.5 63q-104 18 -173 40.5t-122 59t-72 91.5t-6 131q18 96 87.5 162t165 95.5t210.5 29.5t201 -30.5t132 -81t64 -109.5t8 -121h-147q17 100 -48.5 161.5t-236.5 61.5
q-109 0 -195.5 -44t-99.5 -118q-16 -86 49 -124q46 -26 193 -53q8 -1 25 -4l26 -5q85 -15 139.5 -28.5t109.5 -37t83 -53t41 -75t2 -105.5q-22 -126 -147 -209t-314 -92l-41 -93q45 -2 75.5 -8t58.5 -22t38 -48t2 -81q-13 -72 -58 -119.5t-106.5 -65.5t-127 -18t-128.5 16
l15 86q72 -19 136.5 -19.5t113 31t59.5 91.5q8 44 -12.5 65t-44.5 23.5t-83 1.5h-34h-4l63 160q-109 4 -191 36.5t-125.5 81.5t-60.5 106.5t-6 117.5h148z" />
    <glyph glyph-name="Scaron" unicode="&#x160;" horiz-adv-x="1519" 
d="M778 1853h117l145 -206l220 206h139l-322 -299h-84zM365 449q-13 -72 1 -131.5t59.5 -109.5t139.5 -78t230 -28q214 0 349.5 74.5t158.5 204.5q12 67 -3 110t-72 69t-105.5 37.5t-159.5 29.5q-68 11 -105 18q-54 10 -98 20t-87.5 22t-78 25t-66.5 29t-55.5 34.5t-43.5 41
t-32 48.5t-19 56t-6.5 65.5t7.5 76.5q23 126 113.5 216t224.5 133.5t299 43.5q111 0 200.5 -18.5t148 -51t101 -76.5t60 -95.5t23.5 -108.5t-7 -115h-151q11 45 8 88.5t-13.5 81.5t-41 69.5t-75 54.5t-114.5 35.5t-160 12.5q-118 0 -213.5 -26.5t-164.5 -88.5t-85 -153
q-24 -132 68.5 -183.5t362.5 -99.5q207 -37 268 -55q158 -46 206 -139q40 -76 19 -197q-32 -184 -205.5 -297.5t-472.5 -113.5q-86 0 -160 10.5t-131 30t-104 47t-78 60.5t-54.5 71t-32.5 79t-11.5 84.5t6.5 86.5h152z" />
    <glyph glyph-name="scaron" unicode="&#x161;" horiz-adv-x="1185" 
d="M537 1444h116l146 -207l219 207h139l-319 -299h-84zM334 322q-19 -99 50 -161.5t241 -62.5q133 0 231.5 49t110.5 119q14 79 -47.5 109t-247.5 63q-104 18 -173 40.5t-122 59t-72 91.5t-6 131q18 96 87.5 162t165 95.5t210.5 29.5t201 -30.5t132 -81t64 -109.5t8 -121
h-147q17 100 -48.5 161.5t-236.5 61.5q-109 0 -195.5 -44t-99.5 -118q-16 -86 49 -124q46 -26 193 -53q8 -1 25 -4l26 -5q85 -15 139.5 -28.5t109.5 -37t83 -53t41 -75t2 -105.5q-24 -133 -161 -217t-341 -84q-96 0 -173 20t-126 54t-80 78.5t-40.5 92.5t-0.5 97h148z" />
    <glyph glyph-name="uni0162" unicode="&#x162;" horiz-adv-x="1452" 
d="M340 1434h1278l-21 -123h-565l-231 -1311h-148l232 1311h-566zM586 -197q8 41 42 70t77 29q41 0 64 -29t15 -70q-6 -35 -30 -63l-148 -205h-57l104 170q-37 6 -55 33t-12 65z" />
    <glyph glyph-name="uni0163" unicode="&#x163;" horiz-adv-x="878" 
d="M262 1024h187l43 246h143l-43 -246h385l-21 -119h-385l-96 -547q-24 -136 17.5 -187.5t169.5 -51.5h155l-20 -119h-203q-327 0 -266 334l100 571h-186zM410 -197q8 41 42 70t76 29q41 0 64.5 -29t15.5 -70q-6 -35 -30 -63l-148 -205h-57l104 170q-37 6 -55 33t-12 65z
" />
    <glyph glyph-name="Tcaron" unicode="&#x164;" horiz-adv-x="1452" 
d="M743 1853h117l146 -206l219 206h139l-322 -299h-84zM340 1434h1278l-21 -123h-565l-231 -1311h-148l232 1311h-566z" />
    <glyph glyph-name="tcaron" unicode="&#x165;" horiz-adv-x="1198" 
d="M1311 1266l-193 -269h-82l125 205q-42 9 -64.5 44.5t-15.5 82.5q9 53 53 89t99 36q52 0 81.5 -36t20.5 -89q-6 -32 -24 -63zM262 1024h187l43 246h143l-43 -246h385l-21 -119h-385l-96 -547q-24 -136 17.5 -187.5t169.5 -51.5h155l-20 -119h-203q-327 0 -266 334l100 571
h-186z" />
    <glyph glyph-name="Tbar" unicode="&#x166;" horiz-adv-x="1452" 
d="M410 723h370l103 588h-564l21 123h1278l-21 -123h-567l-102 -588h368l-18 -102h-369l-108 -621h-148l109 621h-371z" />
    <glyph glyph-name="tbar" unicode="&#x167;" horiz-adv-x="878" 
d="M262 1024h187l43 246h143l-43 -246h385l-16 -94h-386l-47 -273h385l-18 -94h-383l-37 -205q-24 -136 17.5 -187.5t169.5 -51.5h155l-20 -119h-203q-327 0 -266 334l41 229h-189l19 94h186l47 273h-186z" />
    <glyph glyph-name="Utilde" unicode="&#x168;" horiz-adv-x="1574" 
d="M1090 1708q93 -44 123 -47q49 -7 93 45q19 23 44 63l67 -26q-25 -45 -50.5 -76t-47.5 -50.5t-49 -28t-48 -10.5t-51.5 5t-53 14.5t-58.5 22.5q-92 41 -120 44q-47 5 -88 -45q-20 -24 -44 -65l-72 25q35 61 70.5 98.5t66 53.5t70 15t70.5 -10t78 -28zM1495 1434h147
l-147 -840q-54 -311 -237.5 -462.5t-481.5 -151.5q-296 0 -419 150.5t-68 463.5l147 840h148l-148 -840q-45 -258 40 -375t323 -117q218 0 362 122t187 370z" />
    <glyph glyph-name="utilde" unicode="&#x169;" horiz-adv-x="1329" 
d="M891 1298q92 -44 123 -47q50 -6 95 49q19 23 42 60l68 -27q-25 -44 -50.5 -76t-48 -51t-49.5 -27.5t-48.5 -10.5t-52 5t-53 14.5t-57.5 22.5q-93 41 -120 44q-47 6 -87 -42q-19 -24 -45 -67l-71 24q29 51 57.5 86t58 52.5t55 25t58.5 2.5t59.5 -13t65.5 -24zM1319 119
l-21 -119h-94q-124 1 -165 48t-29 163q-80 -105 -200.5 -168t-246.5 -63q-404 0 -330 415l111 629h143l-104 -598q-16 -72 -12.5 -132.5t26.5 -104t83.5 -67.5t158.5 -24q84 0 171.5 43.5t154.5 123.5t84 175l102 584h143l-125 -711q-24 -104 -0.5 -149t123.5 -45h27z" />
    <glyph glyph-name="Umacron" unicode="&#x16a;" horiz-adv-x="1574" 
d="M846 1690h477l-14 -82h-478zM1495 1434h147l-147 -840q-54 -311 -237.5 -462.5t-481.5 -151.5q-296 0 -419 150.5t-68 463.5l147 840h148l-148 -840q-45 -258 40 -375t323 -117q218 0 362 122t187 370z" />
    <glyph glyph-name="umacron" unicode="&#x16b;" horiz-adv-x="1329" 
d="M641 1280h477l-14 -82h-477zM1319 119l-21 -119h-94q-124 1 -165 48t-29 163q-80 -105 -200.5 -168t-246.5 -63q-404 0 -330 415l111 629h143l-104 -598q-16 -72 -12.5 -132.5t26.5 -104t83.5 -67.5t158.5 -24q84 0 171.5 43.5t154.5 123.5t84 175l102 584h143l-125 -711
q-24 -104 -0.5 -149t123.5 -45h27z" />
    <glyph glyph-name="Ubreve" unicode="&#x16c;" horiz-adv-x="1574" 
d="M821 1905h90q-21 -121 23 -181.5t147 -60.5q93 0 164 62t92 180h90q-28 -163 -127 -249.5t-235 -86.5t-204 86.5t-40 249.5zM1495 1434h147l-147 -840q-54 -311 -237.5 -462.5t-481.5 -151.5q-296 0 -419 150.5t-68 463.5l147 840h148l-148 -840q-45 -258 40 -375
t323 -117q218 0 362 122t187 370z" />
    <glyph glyph-name="ubreve" unicode="&#x16d;" horiz-adv-x="1329" 
d="M614 1495h91q-21 -121 22.5 -181.5t146.5 -60.5q93 0 164 62t92 180h91q-30 -163 -128.5 -249.5t-234.5 -86.5t-205 86.5t-39 249.5zM1319 119l-21 -119h-94q-124 1 -165 48t-29 163q-80 -105 -200.5 -168t-246.5 -63q-404 0 -330 415l111 629h143l-104 -598
q-16 -72 -12.5 -132.5t26.5 -104t83.5 -67.5t158.5 -24q84 0 171.5 43.5t154.5 123.5t84 175l102 584h143l-125 -711q-24 -104 -0.5 -149t123.5 -45h27z" />
    <glyph glyph-name="Uring" unicode="&#x16e;" horiz-adv-x="1574" 
d="M850 1759q19 100 105 173t186 73q101 0 161 -73t41 -173q-17 -100 -103 -173t-187 -73q-100 0 -160 73t-43 173zM934 1759q-11 -63 28 -111.5t107 -48.5q57 0 117.5 50t70.5 110q12 65 -26 113.5t-107 48.5q-56 0 -117 -50.5t-73 -111.5zM1495 1434h147l-147 -840
q-54 -311 -237.5 -462.5t-481.5 -151.5q-296 0 -419 150.5t-68 463.5l147 840h148l-148 -840q-45 -258 40 -375t323 -117q218 0 362 122t187 370z" />
    <glyph glyph-name="uring" unicode="&#x16f;" horiz-adv-x="1329" 
d="M643 1350q19 100 104 172.5t185 72.5q101 0 162.5 -72.5t42.5 -172.5q-17 -100 -103.5 -173t-187.5 -73q-100 0 -160 73t-43 173zM727 1350q-11 -63 27.5 -111.5t105.5 -48.5q57 0 119 50t72 110q11 65 -26.5 113t-106.5 48q-56 0 -118.5 -50t-72.5 -111zM1319 119
l-21 -119h-94q-124 1 -165 48t-29 163q-80 -105 -200.5 -168t-246.5 -63q-404 0 -330 415l111 629h143l-104 -598q-16 -72 -12.5 -132.5t26.5 -104t83.5 -67.5t158.5 -24q84 0 171.5 43.5t154.5 123.5t84 175l102 584h143l-125 -711q-24 -104 -0.5 -149t123.5 -45h27z" />
    <glyph glyph-name="Uhungarumlaut" unicode="&#x170;" horiz-adv-x="1574" 
d="M1167 1554l179 330h120l-192 -330h-107zM848 1554l178 330h121l-193 -330h-106zM1495 1434h147l-147 -840q-54 -311 -237.5 -462.5t-481.5 -151.5q-296 0 -419 150.5t-68 463.5l147 840h148l-148 -840q-45 -258 40 -375t323 -117q218 0 362 122t187 370z" />
    <glyph glyph-name="uhungarumlaut" unicode="&#x171;" horiz-adv-x="1329" 
d="M965 1145l178 330h121l-193 -330h-106zM645 1145l178 330h121l-192 -330h-107zM1319 119l-21 -119h-94q-124 1 -165 48t-29 163q-80 -105 -200.5 -168t-246.5 -63q-404 0 -330 415l111 629h143l-104 -598q-16 -72 -12.5 -132.5t26.5 -104t83.5 -67.5t158.5 -24
q84 0 171.5 43.5t154.5 123.5t84 175l102 584h143l-125 -711q-24 -104 -0.5 -149t123.5 -45h27z" />
    <glyph glyph-name="Uogonek" unicode="&#x172;" horiz-adv-x="1574" 
d="M1495 1434h147l-147 -840q-50 -285 -209 -436.5t-414 -173.5v-2q-50 -52 -73 -79t-46.5 -68.5t-31.5 -84.5q-8 -49 12 -78t62 -36.5t93 -2.5t113 21l-16 -92q-67 -16 -132.5 -17t-122.5 15t-87 60.5t-18 113.5q11 63 51.5 120t107.5 126q-307 0 -428 152.5t-67 461.5
l147 840h148l-148 -840q-45 -258 40 -375t323 -117q218 0 362 122t187 370z" />
    <glyph glyph-name="uogonek" unicode="&#x173;" horiz-adv-x="1329" 
d="M1319 119l-21 -119h-94q-78 0 -129 23q-86 -96 -100 -179q-9 -49 10.5 -78t62 -36.5t93 -2.5t112.5 21l-16 -92q-67 -16 -132.5 -17t-122.5 15t-87 60.5t-18 113.5q7 42 33.5 88t50 74t65.5 73q-26 42 -16 148q-80 -105 -200.5 -168t-246.5 -63q-404 0 -330 415l111 629
h143l-104 -598q-16 -72 -12.5 -132.5t26.5 -104t83.5 -67.5t158.5 -24q84 0 171.5 43.5t154.5 123.5t84 175l102 584h143l-125 -711q-24 -104 -0.5 -149t123.5 -45h27z" />
    <glyph glyph-name="Wcircumflex" unicode="&#x174;" horiz-adv-x="2140" 
d="M1038 1571l322 299h84l18 -27h4l-4 -2l197 -270h-117l-145 207l-219 -207h-140zM549 0l-209 1434h149l166 -1217l578 1217h166l149 -1215l590 1215h166l-717 -1434h-151l-154 1198l-575 -1198h-158z" />
    <glyph glyph-name="wcircumflex" unicode="&#x175;" horiz-adv-x="1579" 
d="M686 1161l322 299h84l16 -26h4l-2 -2l197 -271h-117l-146 207l-219 -207h-139zM262 1024h154l80 -803l387 803h168l104 -793l358 793h164l-487 -1024h-148l-108 807l-391 -807h-154z" />
    <glyph glyph-name="Ycircumflex" unicode="&#x176;" horiz-adv-x="1540" 
d="M739 1571l322 299h84l18 -27h4l-4 -2l197 -270h-117l-145 207l-219 -207h-140zM772 430l-432 1004h160l358 -875l668 875h180l-786 -1004l-76 -430h-148z" />
    <glyph glyph-name="ycircumflex" unicode="&#x177;" horiz-adv-x="1202" 
d="M498 1161l321 299h84l17 -26h4l-2 -2l196 -271h-117l-145 207l-219 -207h-139zM1300 1024l-632 -1044q-97 -160 -136 -209q-82 -104 -194 -143q-109 -38 -297 -38l20 119q88 0 152 11t104 26.5t75 49t54 61t52 81.5q18 30 28 46l11 20l-273 1020h144l225 -848l508 848
h159z" />
    <glyph glyph-name="Ydieresis" unicode="&#x178;" horiz-adv-x="1540" 
d="M754 1692q8 46 46 78t85 32q46 0 72.5 -32t19.5 -78q-9 -47 -47 -80t-84 -33q-47 0 -74 33t-18 80zM1163 1692q8 46 46 78t85 32q46 0 72.5 -32t19.5 -78q-9 -47 -47 -80t-84 -33q-47 0 -74 33t-18 80zM772 430l-432 1004h160l358 -875l668 875h180l-786 -1004l-76 -430
h-148z" />
    <glyph glyph-name="Zacute" unicode="&#x179;" horiz-adv-x="1292" 
d="M856 1554l178 330h121l-192 -330h-107zM1403 1434l-19 -115l-1085 -1196h928l-23 -123h-1116l21 115l1087 1196h-860l20 123h1047z" />
    <glyph glyph-name="zacute" unicode="&#x17a;" horiz-adv-x="1081" 
d="M694 1145l178 330h121l-192 -330h-107zM1133 1024l-17 -100l-811 -805h717l-21 -119h-903l19 100l813 805h-656l21 119h838z" />
    <glyph glyph-name="Zdotaccent" unicode="&#x17b;" horiz-adv-x="1292" 
d="M834 1692q8 46 46 78t85 32q46 0 72.5 -32t19.5 -78q-9 -47 -47 -80t-84 -33q-47 0 -74 33t-18 80zM1403 1434l-19 -115l-1085 -1196h928l-23 -123h-1116l21 115l1087 1196h-860l20 123h1047z" />
    <glyph glyph-name="zdotaccent" unicode="&#x17c;" horiz-adv-x="1081" 
d="M655 1282q9 46 47.5 78.5t85.5 32.5q46 0 73 -32.5t18 -78.5q-7 -47 -45 -80t-84 -33q-47 0 -75 33t-20 80zM1133 1024l-17 -100l-811 -805h717l-21 -119h-903l19 100l813 805h-656l21 119h838z" />
    <glyph glyph-name="Zcaron" unicode="&#x17d;" horiz-adv-x="1292" 
d="M664 1853h116l146 -206l219 206h139l-321 -299h-84zM1403 1434l-19 -115l-1085 -1196h928l-23 -123h-1116l21 115l1087 1196h-860l20 123h1047z" />
    <glyph glyph-name="zcaron" unicode="&#x17e;" horiz-adv-x="1081" 
d="M485 1444h117l146 -207l219 207h139l-320 -299h-84zM1133 1024l-17 -100l-811 -805h717l-21 -119h-903l19 100l813 805h-656l21 119h838z" />
    <glyph glyph-name="longs" unicode="&#x17f;" horiz-adv-x="778" 
d="M932 1337h-150q-126 0 -186.5 -52.5t-83.5 -182.5l-195 -1102h-143l199 1122q57 334 383 334h196z" />
    <glyph glyph-name="florin" unicode="&#x192;" horiz-adv-x="831" 
d="M985 1352h-149q-123 0 -187 -61.5t-86 -188.5l-16 -92h381l-21 -119h-381l-172 -967q-57 -331 -383 -334h-196l18 109h150q122 0 186 61.5t88 188.5l43 241h-2l125 701h-182l20 119h182l21 112q57 331 383 334h197z" />
    <glyph glyph-name="uni0218" unicode="&#x218;" horiz-adv-x="1519" 
d="M365 449q-13 -72 1 -131.5t59.5 -109.5t139.5 -78t230 -28q214 0 349.5 74.5t158.5 204.5q12 67 -3 110t-72 69t-105.5 37.5t-159.5 29.5q-68 11 -105 18q-54 10 -98 20t-87.5 22t-78 25t-66.5 29t-55.5 34.5t-43.5 41t-32 48.5t-19 56t-6.5 65.5t7.5 76.5
q23 126 113.5 216t224.5 133.5t299 43.5q111 0 200.5 -18.5t148 -51t101 -76.5t60 -95.5t23.5 -108.5t-7 -115h-151q11 45 8 88.5t-13.5 81.5t-41 69.5t-75 54.5t-114.5 35.5t-160 12.5q-118 0 -213.5 -26.5t-164.5 -88.5t-85 -153q-24 -132 68.5 -183.5t362.5 -99.5
q207 -37 268 -55q158 -46 206 -139q40 -76 19 -197q-32 -184 -205.5 -297.5t-472.5 -113.5q-86 0 -160 10.5t-131 30t-104 47t-78 60.5t-54.5 71t-32.5 79t-11.5 84.5t6.5 86.5h152zM618 -197q8 41 42 70t77 29q41 0 64.5 -29t15.5 -70q-5 -34 -31 -63l-147 -205h-57
l104 170q-37 6 -55.5 33t-12.5 65z" />
    <glyph glyph-name="uni0219" unicode="&#x219;" horiz-adv-x="1185" 
d="M334 322q-19 -99 50 -161.5t241 -62.5q133 0 231.5 49t110.5 119q14 79 -47.5 109t-247.5 63q-104 18 -173 40.5t-122 59t-72 91.5t-6 131q18 96 87.5 162t165 95.5t210.5 29.5t201 -30.5t132 -81t64 -109.5t8 -121h-147q17 100 -48.5 161.5t-236.5 61.5
q-109 0 -195.5 -44t-99.5 -118q-16 -86 49 -124q46 -26 193 -53q8 -1 25 -4l26 -5q85 -15 139.5 -28.5t109.5 -37t83 -53t41 -75t2 -105.5q-24 -133 -161 -217t-341 -84q-96 0 -173 20t-126 54t-80 78.5t-40.5 92.5t-0.5 97h148zM467 -197q8 41 42 70t77 29q41 0 64.5 -29
t15.5 -70q-5 -34 -31 -63l-148 -205h-57l105 170q-37 6 -55.5 33t-12.5 65z" />
    <glyph glyph-name="uni021A" unicode="&#x21a;" horiz-adv-x="1452" 
d="M340 1434h1278l-21 -123h-565l-231 -1311h-148l232 1311h-566zM584 -197q8 42 42 70.5t76 28.5q41 0 64.5 -29t15.5 -70q-6 -35 -30 -63l-148 -205h-57l104 170q-37 6 -55 33t-12 65z" />
    <glyph glyph-name="uni021B" unicode="&#x21b;" horiz-adv-x="878" 
d="M262 1024h187l43 246h143l-43 -246h385l-21 -119h-385l-96 -547q-24 -136 17.5 -187.5t169.5 -51.5h155l-20 -119h-203q-327 0 -266 334l100 571h-186zM410 -197q8 41 42 70t76 29q41 0 64.5 -29t15.5 -70q-6 -35 -30 -63l-148 -205h-57l104 170q-37 6 -55 33t-12 65z
" />
    <glyph glyph-name="uni0237" unicode="&#x237;" horiz-adv-x="440" 
d="M356 1370q8 43 45 74t82 31q43 0 67.5 -31t16.5 -74q-7 -44 -42.5 -75t-78.5 -31q-46 0 -72 31t-18 75zM-250 -291h119q128 0 188 52t84 188l189 1075h143l-194 -1100q-57 -334 -383 -334h-166z" />
    <glyph glyph-name="circumflex" unicode="&#x2c6;" horiz-adv-x="866" 
d="M330 1161l321 299h84l17 -26h4l-2 -2l196 -271h-116l-146 207l-219 -207h-139z" />
    <glyph glyph-name="caron" unicode="&#x2c7;" horiz-adv-x="866" 
d="M377 1444h117l145 -207l219 207h139l-319 -299h-84z" />
    <glyph glyph-name="uni02C9" unicode="&#x2c9;" horiz-adv-x="722" 
d="M354 1311h477l-14 -82h-477z" />
    <glyph glyph-name="breve" unicode="&#x2d8;" horiz-adv-x="851" 
d="M387 1495h90q-21 -121 23 -181.5t147 -60.5q93 0 164 62t92 180h90q-30 -163 -128 -249.5t-234 -86.5t-205 86.5t-39 249.5z" />
    <glyph glyph-name="dotaccent" unicode="&#x2d9;" horiz-adv-x="468" 
d="M348 1282q9 46 47.5 78.5t85.5 32.5q46 0 72.5 -32.5t17.5 -78.5q-7 -47 -45 -80t-84 -33q-47 0 -74.5 33t-19.5 80z" />
    <glyph glyph-name="ring" unicode="&#x2da;" horiz-adv-x="720" 
d="M350 1350q19 100 104 172.5t185 72.5q101 0 162.5 -72.5t42.5 -172.5q-17 -100 -103.5 -173t-187.5 -73q-100 0 -160 73t-43 173zM434 1350q-11 -63 27.5 -111.5t105.5 -48.5q57 0 119 50t72 110q11 65 -26.5 113t-106.5 48q-56 0 -118.5 -50t-72.5 -111z" />
    <glyph glyph-name="ogonek" unicode="&#x2db;" horiz-adv-x="636" 
d="M279 20l45 -43q-40 -42 -56.5 -60t-41 -50.5t-36.5 -60.5t-18 -60q-9 -49 11 -78t62.5 -36.5t94 -2.5t113.5 21l-17 -92q-67 -16 -133 -17t-123 15t-86.5 60.5t-17.5 113.5q5 28 17.5 57t25.5 50t38 51.5t38 44.5t44.5 46t39.5 41z" />
    <glyph glyph-name="tilde" unicode="&#x2dc;" horiz-adv-x="903" 
d="M686 1298q92 -44 123 -47q50 -6 95 49q19 22 42 60l68 -27q-25 -44 -50.5 -76t-48 -51t-49.5 -27.5t-48.5 -10.5t-52 5t-53 14.5t-57.5 22.5q-93 41 -120 44q-47 6 -87 -42q-20 -25 -45 -67l-71 24q29 51 57.5 86t58 52.5t55 25t58.5 2.5t59.5 -13t65.5 -24z" />
    <glyph glyph-name="hungarumlaut" unicode="&#x2dd;" horiz-adv-x="806" 
d="M645 1145l178 330h121l-192 -330h-107zM326 1145l178 330h121l-193 -330h-106z" />
    <glyph glyph-name="uni0326" unicode="&#x326;" horiz-adv-x="505" 
d="M119 -197q8 41 42 70t77 29q41 0 64 -29t15 -70q-6 -35 -30 -63l-148 -205h-57l104 170q-37 6 -55 33t-12 65z" />
    <glyph glyph-name="uni0394" unicode="&#x394;" horiz-adv-x="1501" 
d="M113 0l827 1434h129l320 -1434h-1276zM303 119h938l-260 1171z" />
    <glyph glyph-name="uni03A9" unicode="&#x3a9;" horiz-adv-x="1769" 
d="M1014 119q268 105 414.5 256t187.5 389q22 127 -6 234.5t-96.5 180t-170 112.5t-223.5 40q-85 0 -174.5 -25t-174.5 -74.5t-155.5 -117t-121 -158.5t-68.5 -192q-28 -162 7 -283.5t124.5 -206.5t241.5 -155l-15 -88l-6 -31h-639l21 119h434q-393 228 -318 655
q22 123 81.5 232t145 190t190 140t219 88.5t229.5 29.5t220 -30t188.5 -87.5t141 -140.5t78.5 -189t0 -233q-75 -426 -548 -655h430l-21 -119h-637z" />
    <glyph glyph-name="uni03BC" unicode="&#x3bc;" horiz-adv-x="1298" 
d="M1319 119l-21 -119h-94q-125 1 -166.5 47.5t-27.5 163.5q-80 -106 -200 -168.5t-247 -62.5q-162 0 -248 67l-79 -457h-144l252 1434h143l-104 -598q-16 -72 -12.5 -132.5t26.5 -104t83.5 -67.5t158.5 -24q127 0 252.5 96.5t155.5 233.5l104 596h143l-125 -711
q-24 -104 -0.5 -149t123.5 -45h27z" />
    <glyph glyph-name="pi" unicode="&#x3c0;" horiz-adv-x="1368" 
d="M303 1024h1061l-180 -1024h-148l158 901h-551l-321 -901h-148l322 901h-213z" />
    <glyph glyph-name="Wgrave" unicode="&#x1e80;" horiz-adv-x="2140" 
d="M1370 1554h-106l-80 330h121zM549 0l-209 1434h149l166 -1217l578 1217h166l149 -1215l590 1215h166l-717 -1434h-151l-154 1198l-575 -1198h-158z" />
    <glyph glyph-name="wgrave" unicode="&#x1e81;" horiz-adv-x="1579" 
d="M1018 1145h-107l-80 330h121zM262 1024h154l80 -803l387 803h168l104 -793l358 793h164l-487 -1024h-148l-108 807l-391 -807h-154z" />
    <glyph glyph-name="Wacute" unicode="&#x1e82;" horiz-adv-x="2140" 
d="M1321 1554l178 330h121l-193 -330h-106zM549 0l-209 1434h149l166 -1217l578 1217h166l149 -1215l590 1215h166l-717 -1434h-151l-154 1198l-575 -1198h-158z" />
    <glyph glyph-name="wacute" unicode="&#x1e83;" horiz-adv-x="1579" 
d="M969 1145l178 330h121l-193 -330h-106zM262 1024h154l80 -803l387 803h168l104 -793l358 793h164l-487 -1024h-148l-108 807l-391 -807h-154z" />
    <glyph glyph-name="Wdieresis" unicode="&#x1e84;" horiz-adv-x="2140" 
d="M1053 1692q8 46 46 78t85 32q46 0 72.5 -32t19.5 -78q-9 -47 -47 -80t-84 -33q-47 0 -74 33t-18 80zM1462 1692q8 46 46 78t85 32q46 0 73 -32t20 -78q-9 -47 -47.5 -80t-84.5 -33q-47 0 -74 33t-18 80zM549 0l-209 1434h149l166 -1217l578 1217h166l149 -1215l590 1215
h166l-717 -1434h-151l-154 1198l-575 -1198h-158z" />
    <glyph glyph-name="wdieresis" unicode="&#x1e85;" horiz-adv-x="1579" 
d="M698 1282q9 46 47.5 78.5t85.5 32.5q46 0 73 -32.5t18 -78.5q-7 -47 -45 -80t-84 -33q-47 0 -75 33t-20 80zM1108 1282q9 46 47.5 78.5t85.5 32.5q46 0 72.5 -32.5t17.5 -78.5q-7 -47 -45 -80t-84 -33q-47 0 -74.5 33t-19.5 80zM262 1024h154l80 -803l387 803h168
l104 -793l358 793h164l-487 -1024h-148l-108 807l-391 -807h-154z" />
    <glyph glyph-name="endash" unicode="&#x2013;" horiz-adv-x="1126" 
d="M252 563h819l-16 -102h-819z" />
    <glyph glyph-name="emdash" unicode="&#x2014;" horiz-adv-x="1331" 
d="M252 563h1024l-16 -102h-1024z" />
    <glyph glyph-name="quoteleft" unicode="&#x2018;" horiz-adv-x="561" 
d="M377 1184l192 270h82l-125 -205q43 -9 65 -43.5t15 -83.5q-9 -53 -52.5 -89t-98.5 -36q-52 0 -82 36t-21 89q6 33 25 62z" />
    <glyph glyph-name="quoteright" unicode="&#x2019;" horiz-adv-x="561" 
d="M616 1266l-192 -269h-82l125 205q-42 9 -64.5 44.5t-15.5 82.5q9 53 53 89t99 36q52 0 81.5 -36t20.5 -89q-5 -30 -25 -63z" />
    <glyph glyph-name="quotesinglbase" unicode="&#x201a;" horiz-adv-x="514" 
d="M164 55q8 43 43.5 73t79.5 30q43 0 67.5 -30t16.5 -73q-6 -32 -29 -59l-156 -219h-59l106 176q-37 6 -56.5 34.5t-12.5 67.5z" />
    <glyph glyph-name="quotedblleft" unicode="&#x201c;" horiz-adv-x="946" 
d="M762 1184l192 270h82l-125 -205q43 -9 65 -43.5t15 -83.5q-9 -53 -52.5 -89t-98.5 -36q-52 0 -82 36t-21 89q6 33 25 62zM377 1184l192 270h82l-125 -205q43 -9 65 -43.5t15 -83.5q-9 -53 -52.5 -89t-98.5 -36q-52 0 -82 36t-21 89q6 33 25 62z" />
    <glyph glyph-name="quotedblright" unicode="&#x201d;" horiz-adv-x="946" 
d="M618 1268l-192 -271h-84l127 205q-43 9 -65 44.5t-15 82.5q9 53 53 89t99 36q52 0 81.5 -36t20.5 -89q-6 -32 -25 -61zM1004 1268l-193 -271h-84l127 205q-43 9 -65 44.5t-15 82.5q9 53 53 89t99 36q52 0 81.5 -36t20.5 -89q-6 -34 -24 -61z" />
    <glyph glyph-name="quotedblbase" unicode="&#x201e;" horiz-adv-x="716" 
d="M158 -123l80 451h112l-110 -451h-82zM403 -123l80 451h113l-111 -451h-82z" />
    <glyph glyph-name="dagger" unicode="&#x2020;" horiz-adv-x="888" 
d="M639 1434h117l-72 -410h268l-20 -117h-268l-232 -1317h-117l232 1317h-268l20 117h268z" />
    <glyph glyph-name="daggerdbl" unicode="&#x2021;" horiz-adv-x="888" 
d="M307 1065h266l66 369h117l-66 -369h271l-21 -117h-270l-152 -872h268l-22 -117h-266l-66 -369h-117l66 369h-270l22 117h268l152 872h-266z" />
    <glyph glyph-name="bullet" unicode="&#x2022;" horiz-adv-x="813" 
d="M274 514q17 93 93 156t172 63q92 0 144.5 -63.5t35.5 -155.5q-17 -96 -91 -160.5t-167 -64.5q-97 0 -150.5 64t-36.5 161z" />
    <glyph glyph-name="ellipsis" unicode="&#x2026;" horiz-adv-x="1685" 
d="M172 109q9 53 53 88.5t99 35.5q52 0 81.5 -35.5t20.5 -88.5q-9 -55 -51.5 -92t-95.5 -37q-55 0 -85.5 36.5t-21.5 92.5zM733 109q9 53 53 88.5t99 35.5q52 0 81.5 -35.5t20.5 -88.5q-9 -55 -51.5 -92t-95.5 -37q-55 0 -85.5 36.5t-21.5 92.5zM1296 109q9 53 53 88.5
t99 35.5q52 0 81.5 -35.5t20.5 -88.5q-9 -55 -51.5 -92t-95.5 -37q-55 0 -85.5 36.5t-21.5 92.5z" />
    <glyph glyph-name="perthousand" unicode="&#x2030;" horiz-adv-x="2971" 
d="M297 1012q36 208 158 325t297 117q174 0 254.5 -117t44.5 -325q-37 -208 -159 -325.5t-296 -117.5t-255 117.5t-44 325.5zM702 0l824 1434h96l-823 -1434h-97zM739 1380q-130 0 -226 -98t-126 -270q-31 -177 24.5 -273t196.5 -96q129 0 226 98.5t127 270.5
q31 176 -25.5 272t-196.5 96zM1319 97q-81 117 -45 325t158 325t297 117q174 0 254.5 -117t44.5 -325t-158 -325t-297 -117q-174 0 -254 117zM2216 97q-81 117 -45 325t158 325t297 117q174 0 254.5 -117t44.5 -325t-158 -325t-297 -117q-174 0 -254 117zM1716 791
q-130 0 -226 -98.5t-126 -270.5q-31 -177 25.5 -273t197.5 -96q128 0 224 98.5t126 270.5q31 177 -25 273t-196 96zM2613 791q-130 0 -226 -98.5t-126 -270.5q-31 -177 25.5 -273t197.5 -96q128 0 224 98.5t126 270.5q31 177 -25 273t-196 96z" />
    <glyph glyph-name="guilsinglleft" unicode="&#x2039;" horiz-adv-x="628" 
d="M213 512l336 446h137l-348 -460l172 -430h-119z" />
    <glyph glyph-name="guilsinglright" unicode="&#x203a;" horiz-adv-x="628" 
d="M596 514l-336 -446h-137l348 460l-172 430h119z" />
    <glyph glyph-name="fraction" unicode="&#x2044;" horiz-adv-x="905" 
d="M119 0l825 1434h96l-825 -1434h-96z" />
    <glyph glyph-name="Euro" unicode="&#x20ac;" horiz-adv-x="1681" 
d="M84 938h262q106 240 320 378t464 138q127 0 231 -33t171.5 -87.5t110.5 -124.5t56.5 -144.5t0.5 -146.5h-152q11 48 3.5 97t-24 94.5t-54 86t-86 70.5t-120.5 47.5t-157 17.5q-113 0 -226 -43t-216 -134t-166 -216h694l-18 -102h-717q-38 -114 -43 -215h721l-17 -103
h-704q15 -200 144.5 -308t330.5 -108q112 0 217 38t180 98t125 133t62 145h151q-13 -72 -52 -146.5t-107 -144.5t-154.5 -124.5t-202 -87.5t-242.5 -33q-255 0 -422 144.5t-182 393.5h-256l17 103h239q6 109 41 215h-241z" />
    <glyph glyph-name="trademark" unicode="&#x2122;" horiz-adv-x="1783" 
d="M375 1434h639l-10 -62h-283l-115 -655h-74l115 655h-282zM1149 1434h74l198 -633l418 633h74l-125 -717h-72l101 571l-375 -571h-72l-174 573l-100 -573h-72z" />
    <glyph glyph-name="partialdiff" unicode="&#x2202;" horiz-adv-x="1312" 
d="M827 950q43 0 84 -6l-301 490h174l390 -635q109 -132 73 -334q-26 -145 -117 -257.5t-215.5 -170t-259.5 -57.5q-99 0 -185 34t-146 95t-86 153.5t-7 202.5q19 109 78 202t141 154t180 95t197 34zM676 98q61 0 128 25t128 70.5t107 116.5t61 155q30 172 -53.5 269
t-239.5 97q-85 0 -173.5 -41t-162 -127t-92.5 -198q-30 -170 55 -268.5t242 -98.5z" />
    <glyph glyph-name="product" unicode="&#x220f;" horiz-adv-x="1296" 
d="M438 1434h930l-326 -1844h-122l305 1725h-684l-305 -1725h-123z" />
    <glyph glyph-name="summation" unicode="&#x2211;" horiz-adv-x="1183" 
d="M1321 1434l-21 -109h-782l180 -811l-469 -815h785l-19 -109h-948l531 924l-205 920h948z" />
    <glyph glyph-name="minus" unicode="&#x2212;" horiz-adv-x="1003" 
d="M252 563h696l-16 -102h-696z" />
    <glyph glyph-name="uni2215" unicode="&#x2215;" horiz-adv-x="1028" 
d="M119 0l948 1434h96l-948 -1434h-96z" />
    <glyph glyph-name="uni2219" unicode="&#x2219;" horiz-adv-x="622" 
d="M274 512q9 53 53 89t99 36q52 0 81.5 -36t20.5 -89q-9 -55 -51.5 -92t-95.5 -37q-55 0 -85.5 36.5t-21.5 92.5z" />
    <glyph glyph-name="radical" unicode="&#x221a;" horiz-adv-x="1624" 
d="M233 649h383l154 -731l870 1516h117l-944 -1639h-127l-162 737h-311z" />
    <glyph glyph-name="infinity" unicode="&#x221e;" horiz-adv-x="1271" 
d="M1257 610q-22 -115 -116.5 -195.5t-208.5 -80.5q-77 0 -132 37.5t-79 101.5q-47 -64 -116 -101.5t-146 -37.5q-115 0 -182.5 80.5t-45.5 195.5q20 115 116 197t210 82q77 0 133 -38.5t80 -102.5q45 64 114 102.5t146 38.5q114 0 180.5 -82t46.5 -197zM780 610
q-15 -85 30 -142.5t134 -57.5q77 0 150 59.5t88 140.5q14 87 -31.5 145t-134.5 58q-77 0 -150 -60t-86 -143zM711 610q14 85 -31.5 143t-134.5 58q-77 0 -150 -60t-86 -141q-15 -86 30 -144t134 -58q77 0 150 59.5t88 142.5z" />
    <glyph glyph-name="integral" unicode="&#x222b;" horiz-adv-x="856" 
d="M979 1335q-134 0 -200 -62.5t-89 -191.5l-22 -123h2l-183 -1030q-16 -93 -43.5 -153t-78.5 -103t-129 -62t-195 -20l20 119q135 0 200.5 62.5t88.5 191.5l203 1153q21 123 65.5 193.5t136 107t244.5 37.5z" />
    <glyph glyph-name="approxequal" unicode="&#x2248;" horiz-adv-x="1298" 
d="M322 831q50 87 100 134t112 60t131 -2t166 -58q59 -26 97.5 -40t77.5 -23t65.5 -5.5t54 17.5t50 41t47.5 69l28 47l78 -35l-26 -47q-51 -87 -101 -133.5t-112 -59t-130 3t-167 58.5q-59 26 -97.5 40t-78 23t-66 5.5t-53.5 -17.5t-50 -41t-47 -69l-28 -49l-78 34z" />
    <glyph glyph-name="notequal" unicode="&#x2260;" horiz-adv-x="1034" 
d="M199 -203l239 490h-219l19 102h249l121 246h-327l16 102h362l242 496h117l-242 -496h217l-16 -102h-252l-121 -246h330l-19 -102h-360l-240 -490h-116z" />
    <glyph glyph-name="lessequal" unicode="&#x2264;" horiz-adv-x="985" 
d="M244 700l825 430l-22 -137l-676 -342l555 -342l-23 -116l-674 430zM137 102h750l-19 -102h-749z" />
    <glyph glyph-name="greaterequal" unicode="&#x2265;" horiz-adv-x="985" 
d="M979 623l-825 -430l22 137l676 342l-555 342l22 116l674 -430zM887 102l-19 -102h-749l18 102h750z" />
    <glyph glyph-name="uni24C5" unicode="&#x24c5;" horiz-adv-x="1783" 
d="M283 717q35 200 163.5 369.5t315 268.5t387.5 99q200 0 352 -99t220.5 -268.5t33.5 -369.5q-35 -201 -164 -370.5t-315.5 -268t-386.5 -98.5q-120 0 -226.5 37.5t-184 104.5t-131 159.5t-68.5 202.5t4 233zM336 717q-34 -186 28 -343t203.5 -249t331.5 -92
q180 0 353 91.5t295 249.5t155 343q33 186 -29 343t-202.5 249t-329.5 92q-135 0 -271 -54.5t-245 -146t-187 -218.5t-102 -265zM1141 1067q23 0 49 -4.5t60 -19t58.5 -37.5t37.5 -65t4 -97q-10 -55 -38 -98t-61 -67t-72 -39.5t-67.5 -20.5t-50.5 -5h-225l-45 -249h-91
l125 702h316zM848 688h219q20 0 44.5 6t55.5 21t55.5 48t32.5 79q9 46 -2.5 78.5t-36.5 47t-47.5 20t-46.5 5.5h-219z" />
    <glyph glyph-name="lozenge" unicode="&#x25ca;" horiz-adv-x="1091" 
d="M203 510l530 924h129l207 -924l-530 -920h-129zM948 510l-174 780l-448 -780l174 -776z" />
    <glyph glyph-name="fi" unicode="&#xfb01;" horiz-adv-x="1312" 
d="M1231 1370q8 43 45 74t82 31q43 0 67.5 -31t16.5 -74q-7 -44 -42.5 -75t-78.5 -31q-46 0 -72 31t-18 75zM264 1024h187l16 98q57 334 383 334h197l-21 -119h-152q-128 0 -186 -48.5t-82 -186.5l-14 -78h754l-181 -1024h-143l160 905h-611l-159 -905h-144l160 905h-184z
" />
    <glyph glyph-name="fl" unicode="&#xfb02;" horiz-adv-x="1394" 
d="M264 1024h187l16 98q57 334 383 334h586l-201 -1143q-24 -120 -2.5 -157t125.5 -37h26l-20 -119h-94q-137 1 -175.5 59t-11.5 207l189 1071h-398q-128 0 -186 -48.5t-82 -186.5l-14 -78h364l-20 -119h-365l-159 -905h-144l160 905h-184z" />
    <glyph glyph-name="zero.lnum_tnum" horiz-adv-x="1638" 
d="M391 176q-135 196 -74 541t265 541t493 196q291 0 426 -196t74 -541t-265 -541t-495 -196q-289 0 -424 196zM1055 1331q-214 0 -375 -164t-211 -450q-53 -295 40 -455t329 -160q213 0 373 164t212 451q52 296 -40 455t-328 159z" />
    <glyph glyph-name="one.lnum_tnum" horiz-adv-x="1638" 
d="M1309 1434h106l-252 -1434h-147l225 1278l-530 -225l-27 114z" />
    <glyph glyph-name="two.lnum_tnum" horiz-adv-x="1638" 
d="M338 123l602 465q148 114 224 189.5t104.5 129.5t42.5 129q29 160 -52.5 228.5t-250.5 68.5q-94 0 -171 -33.5t-128 -91t-83 -125t-46 -143.5h-152q13 74 40 143t76 138t113.5 120t158.5 83t206 32q84 0 155.5 -15t132 -46.5t98.5 -81.5t54.5 -120t-0.5 -161
q-16 -87 -54.5 -156.5t-138.5 -167.5t-280 -231l-473 -354h885l-23 -123h-1063z" />
    <glyph glyph-name="three.lnum_tnum" horiz-adv-x="1587" 
d="M778 657l4 21h-2l19 102h168q140 0 218.5 66.5t104.5 210.5q25 145 -51.5 212.5t-243.5 67.5q-90 0 -160.5 -27.5t-116 -77t-73.5 -110t-41 -135.5h-151q13 74 39 139.5t72 127t107.5 105.5t150 70.5t194.5 26.5q142 0 244 -42t152 -131.5t28 -215.5q-46 -248 -230 -338
q112 -37 163.5 -122t27.5 -218q-24 -132 -114 -226t-215.5 -137.5t-274.5 -43.5q-91 0 -167 18.5t-128 51t-91 77t-56.5 96t-24 107.5t5.5 112h151q-7 -54 -5.5 -103.5t24 -93t60.5 -75t103.5 -50t151.5 -18.5q71 0 139 17t129 51t104 92.5t56 134.5q25 138 -51.5 198
t-234.5 60h-185z" />
    <glyph glyph-name="four.lnum_tnum" horiz-adv-x="1638" 
d="M1282 1436h139l-159 -904h286l-22 -122h-287l-72 -410h-147l72 410h-840l16 92zM453 532h661l131 736z" />
    <glyph glyph-name="five.lnum_tnum" horiz-adv-x="1638" 
d="M541 711l229 723h733l-20 -123h-604l-146 -459q136 82 279 82q86 0 164 -32t136 -90t84 -150t7 -201t-76.5 -201t-137.5 -152.5t-175.5 -94t-194.5 -33.5t-184 33t-145.5 93t-87 152t-7.5 201h148q-29 -162 55 -258.5t238 -96.5q132 0 258.5 98.5t154.5 254.5
q29 162 -51 257t-233 95q-162 0 -277 -98h-147z" />
    <glyph glyph-name="six.lnum_tnum" horiz-adv-x="1638" 
d="M991 950q99 0 184 -34t145 -95t86 -154t7 -202t-78 -202t-141 -154t-179 -95t-196 -34q-100 0 -185.5 34t-145 95t-85 153.5t-6.5 202.5q33 186 174 317l627 652h174l-473 -492q62 8 92 8zM842 102q62 0 128.5 25t126.5 70t105 115.5t60 152.5q30 169 -53 265.5
t-240 96.5q-83 0 -170 -41t-159 -126.5t-91 -194.5q-30 -167 54 -265t239 -98z" />
    <glyph glyph-name="seven.lnum_tnum" horiz-adv-x="1638" 
d="M1544 1434l-18 -115l-826 -1319h-165l829 1311h-786l20 123h946z" />
    <glyph glyph-name="eight.lnum_tnum" horiz-adv-x="1638" 
d="M1075 1456q227 0 348 -97.5t90 -281.5q-21 -118 -98.5 -204.5t-195.5 -133.5q118 -46 176.5 -138t36.5 -222q-18 -99 -75.5 -176.5t-142 -125.5t-186 -72.5t-213.5 -24.5t-204.5 24.5t-160 72.5t-97 125.5t-11.5 176.5q22 130 113 221.5t225 138.5q-102 47 -148.5 133
t-25.5 205q31 183 186 281t383 98zM712 864q81 -67 249 -67t271.5 67t127.5 201q23 137 -51 202.5t-254 65.5q-157 0 -267.5 -68.5t-132.5 -199.5q-24 -134 57 -201zM838 102q77 0 148.5 17t133.5 50.5t105.5 90t56.5 129.5q17 99 -25.5 164.5t-123.5 93t-195 27.5
t-204.5 -27.5t-155.5 -93t-82 -164.5q-27 -146 64 -216.5t278 -70.5z" />
    <glyph glyph-name="nine.lnum_tnum" horiz-adv-x="1638" 
d="M913 487q-99 0 -185 34t-146 94.5t-86 153t-7 202.5q19 109 77.5 202t140 154t179.5 95t197 34q100 0 185.5 -34t144.5 -95t85 -153.5t7 -202.5q-36 -194 -184 -326l-616 -645h-175l474 494q-54 -7 -91 -7zM1063 1333q-84 0 -171.5 -41t-159.5 -126t-91 -195
q-30 -168 53.5 -265.5t239.5 -97.5q61 0 127.5 25t126.5 70t105.5 115.5t60.5 152.5q30 169 -53 265.5t-238 96.5z" />
    </font>
</defs>
</svg>
