<?xml version="1.0" standalone="no"?>
<!DOCTYPE svg PUBLIC "-//W3C//DTD SVG 1.1//EN" "http://www.w3.org/Graphics/SVG/1.1/DTD/svg11.dtd" >
<svg xmlns="http://www.w3.org/2000/svg" xmlns:xlink="http://www.w3.org/1999/xlink" version="1.1">
<metadata>
Created by FontForge 20230101 at Sat May 29 15:12:30 2021
 By Unknown
Tour de Force Font Foundry &#38; Dusan Jelesijevic
</metadata>
<defs>
<font id="Lupio-BlackItalic" horiz-adv-x="1189" >
  <font-face 
    font-family="Lupio-BlackItalic"
    font-weight="900"
    font-style="italic"
    font-stretch="normal"
    units-per-em="2048"
    panose-1="0 0 0 0 0 0 0 0 0 0"
    ascent="1638"
    descent="-410"
    x-height="1024"
    cap-height="1434"
    bbox="-225 -514.083 3129.7 2126"
    underline-thickness="102"
    underline-position="-358"
    slope="-10"
    unicode-range="U+000D-FB02"
  />
<missing-glyph horiz-adv-x="1024" 
 />
    <glyph glyph-name=".notdef" horiz-adv-x="1024" 
 />
    <glyph glyph-name="uni0000" horiz-adv-x="0" 
 />
    <glyph glyph-name="uni000D" unicode="&#xd;" horiz-adv-x="512" 
 />
    <glyph glyph-name="space" unicode=" " horiz-adv-x="532" 
 />
    <glyph glyph-name="exclam" unicode="!" horiz-adv-x="577" 
d="M313 1434h455l-88 -506l-117 -432h-373l35 432zM100 209q17 94 94 158.5t175 64.5q94 0 147.5 -64.5t36.5 -158.5q-17 -98 -93.5 -163.5t-170.5 -65.5q-98 0 -152 65.5t-37 163.5z" />
    <glyph glyph-name="quotedbl" unicode="&#x22;" horiz-adv-x="778" 
d="M215 983l78 451h328l-170 -451h-236zM584 983l78 451h327l-170 -451h-235z" />
    <glyph glyph-name="numbersign" unicode="#" horiz-adv-x="1329" 
d="M141 567h164l96 299h-206l55 322h254l78 246h321l-78 -246h211l78 246h342l-78 -246h119l-55 -322h-166l-96 -299h209l-58 -321h-254l-78 -246h-342l78 246h-211l-78 -246h-321l78 246h-119zM627 567h211l96 299h-211z" />
    <glyph glyph-name="dollar" unicode="$" horiz-adv-x="1488" 
d="M864 1843h369l-72 -401q122 -19 210 -65t134.5 -111t62.5 -142t1 -163h-459q13 76 -34.5 110.5t-151.5 34.5q-71 0 -125 -24.5t-60 -63.5q-8 -42 10 -59q24 -22 156 -49q36 -8 132 -26l1 -1h1h1q112 -22 172.5 -36.5t140 -46.5t115.5 -71.5t56.5 -106t5.5 -155.5
q-33 -190 -187.5 -318t-416.5 -159l-70 -400h-369l70 406q-128 21 -220.5 70.5t-141.5 117.5t-66 146t-2 164h459q-12 -77 48.5 -121.5t168.5 -44.5q245 0 262 98q2 15 -0.5 26.5t-12 21t-22 16.5t-34.5 13.5t-44 11.5t-57.5 10.5t-67.5 10.5t-80.5 13t-91.5 16
q-126 23 -209 63.5t-123.5 95t-52 125t5.5 152.5q30 166 173.5 280.5t343.5 154.5z" />
    <glyph glyph-name="percent" unicode="%" horiz-adv-x="2160" 
d="M275 686q-91 117 -54 326t168.5 325.5t331.5 116.5q201 0 292 -116.5t54 -325.5t-169 -326t-333 -117q-199 0 -290 117zM653 0l826 1434h280l-825 -1434h-281zM682 1233q-77 0 -122 -56t-64 -165t6 -165t102 -56q150 0 189 221t-111 221zM1400 97q-91 116 -54 325
t168.5 325.5t330.5 116.5q201 0 292 -116.5t54 -325.5t-168.5 -325.5t-332.5 -116.5q-200 0 -290 117zM1806 643q-77 0 -122 -56t-64 -165q-39 -221 109 -221q149 0 188 221t-111 221z" />
    <glyph glyph-name="ampersand" unicode="&#x26;" horiz-adv-x="1484" 
d="M1563 557h-207l-23 -123q-12 -69 -43 -132t-87.5 -123t-133.5 -103.5t-189.5 -69.5t-246.5 -26q-135 0 -238.5 24t-174.5 72.5t-100 126t-11 180.5q24 130 125 213t251 117q-223 79 -180 319q18 101 80.5 183t151 133t191 78.5t206.5 27.5q81 0 150 -12t119.5 -33.5
t92 -50.5t67 -63t44.5 -71.5t25 -75.5t8 -75.5t-6 -71.5h-459q5 30 -1.5 48.5t-25.5 25.5t-33 8.5t-41 1.5q-49 0 -79.5 -27.5t-38.5 -74.5q-7 -42 15.5 -72t90.5 -30h758l-35 -201h-2zM897 557h-195q-58 0 -85.5 -25t-36.5 -77q-10 -58 23.5 -81.5t107.5 -23.5
q63 0 100.5 13t48 29.5t14.5 41.5z" />
    <glyph glyph-name="quotesingle" unicode="'" horiz-adv-x="409" 
d="M215 983l78 451h328l-170 -451h-236z" />
    <glyph glyph-name="parenleft" unicode="(" horiz-adv-x="860" 
d="M530 522q-14 -80 -14.5 -153t8 -128t29.5 -109t40.5 -88.5t51.5 -74t51.5 -58.5t51 -48.5t40.5 -38.5l-239 -234q-41 19 -84.5 49.5t-93 77t-91.5 105t-79.5 133t-57.5 161t-26 189.5t16 217q27 153 93.5 295t146.5 242.5t172.5 183t166.5 129.5t134 70l158 -234
q-12 -10 -62 -48t-87.5 -69t-93 -91.5t-96 -123t-78.5 -156t-57 -198.5z" />
    <glyph glyph-name="parenright" unicode=")" horiz-adv-x="860" 
d="M475 369q25 73 39 153t15 153t-8 128.5t-28 107.5t-39.5 88t-47 72t-47 57t-44 45t-32.5 35l239 234q42 -19 89 -55t101.5 -95t97 -134.5t76.5 -173t39.5 -212t-14.5 -250.5q-27 -154 -93.5 -295.5t-148 -242.5t-177 -185t-175.5 -133t-149 -76l-158 234q12 9 54 38.5
t68 48.5t72 58.5t77.5 74t71.5 88.5t68 109t54 128z" />
    <glyph glyph-name="asterisk" unicode="*" horiz-adv-x="991" 
d="M272 850l291 207l-293 110l162 215l213 -219l-4 369h250l-135 -369l291 219l88 -215l-334 -110l217 -207l-219 -162l-125 326l-240 -326z" />
    <glyph glyph-name="plus" unicode="+" horiz-adv-x="819" 
d="M176 655h205l37 205h287l-37 -205h204l-49 -286h-205l-36 -205h-287l37 205h-205z" />
    <glyph glyph-name="comma" unicode="," horiz-adv-x="606" 
d="M539 111l-310 -435h-221l207 320q-67 26 -97.5 87t-17.5 142q19 99 101.5 168.5t187.5 69.5q98 0 156 -70t39 -168q-11 -59 -47 -114h2z" />
    <glyph glyph-name="hyphen" unicode="-" horiz-adv-x="737" 
d="M176 655h615l-50 -286h-614z" />
    <glyph glyph-name="period" unicode="." horiz-adv-x="606" 
d="M100 225q19 99 101.5 168.5t187.5 69.5q98 0 156 -70t39 -168q-19 -105 -100.5 -175t-180.5 -70q-106 0 -164 69.5t-39 175.5z" />
    <glyph glyph-name="slash" unicode="/" horiz-adv-x="894" 
d="M41 0l702 1434h363l-703 -1434h-362z" />
    <glyph glyph-name="zero" unicode="0" horiz-adv-x="1492" 
d="M257 175q-151 194 -89 542t281 542.5t552 194.5q334 0 487 -195t91 -542q-62 -348 -283 -542.5t-555 -194.5q-333 0 -484 195zM1109 992q-44 93 -173 93t-203 -92.5t-106 -275.5q-33 -182 9 -275.5t171 -93.5t204.5 93t108.5 276q32 182 -11 275z" />
    <glyph glyph-name="one" unicode="1" horiz-adv-x="983" 
d="M852 1434h322l-252 -1434h-455l176 1004l-340 -146l-76 309z" />
    <glyph glyph-name="two" unicode="2" horiz-adv-x="1288" 
d="M160 369l612 448q69 50 100 90t39 84q6 36 -0.5 60.5t-23.5 35.5t-33 15t-35 4q-74 0 -109 -54.5t-55 -172.5h-458q12 69 34.5 133.5t59 131.5t91 121.5t124.5 97.5t166 67t209 24q60 0 115 -7t110.5 -22.5t99.5 -41t82 -63t58.5 -88t28.5 -116t-9 -147.5
q-4 -26 -13 -54.5t-39 -81.5t-75 -106t-128 -124.5t-191 -141.5l-144 -92h537l-66 -369h-1153z" />
    <glyph glyph-name="three" unicode="3" horiz-adv-x="1277" 
d="M561 578l49 282h154q106 0 127 129q11 60 -8.5 88.5t-73.5 28.5q-46 0 -76 -33t-47 -133h-459q19 108 69.5 200t129.5 163t194 111t252 40q112 0 205 -27t157.5 -77t93 -128.5t11.5 -174.5q-18 -103 -78 -183t-151 -131q111 -42 166 -124.5t33 -205.5q-22 -127 -114 -223
t-232.5 -147t-309.5 -51q-88 0 -163.5 14.5t-131.5 41t-101.5 62.5t-73 79.5t-45.5 92t-19 100t6 103.5h459q-12 -70 18.5 -107.5t97.5 -37.5q69 0 109.5 39t50.5 98q10 56 -13.5 83.5t-70.5 27.5h-215z" />
    <glyph glyph-name="four" unicode="4" horiz-adv-x="1386" 
d="M979 1434h455l-138 -779h164l-53 -307h-164l-61 -348h-455l61 348h-686l50 277zM567 655h275l57 328z" />
    <glyph glyph-name="five" unicode="5" horiz-adv-x="1271" 
d="M172 526l262 908h948l-63 -369h-537l-51 -180q85 33 184 33q62 0 124 -17t118.5 -54t97 -89t57.5 -128.5t1 -166.5q-38 -216 -221.5 -349.5t-438.5 -133.5q-171 0 -300 56t-193 166.5t-39 256.5h454q-10 -64 21.5 -99.5t97.5 -35.5q140 0 160 122q12 64 -15.5 95.5
t-84.5 31.5q-61 0 -127 -47h-455z" />
    <glyph glyph-name="six" unicode="6" horiz-adv-x="1312" 
d="M846 1434h561l-414 -471q192 -43 294 -172t69 -312q-26 -147 -129.5 -262t-254.5 -176t-321 -61q-271 0 -418 137.5t-108 361.5q24 138 115 246zM713 324q69 0 122.5 42.5t65.5 112.5q13 70 -25.5 113t-107.5 43q-68 0 -121.5 -43t-66.5 -113q-12 -70 26.5 -112.5
t106.5 -42.5z" />
    <glyph glyph-name="seven" unicode="7" horiz-adv-x="1093" 
d="M1325 1434l-63 -361l-672 -1073h-498l680 1065h-563l63 369h1053z" />
    <glyph glyph-name="eight" unicode="8" horiz-adv-x="1294" 
d="M903 1454q247 0 387 -112t107 -298q-33 -183 -238 -303q94 -57 139.5 -141t26.5 -190q-23 -132 -125 -231.5t-247.5 -149t-309.5 -49.5q-122 0 -226 29.5t-178 83t-108.5 136t-17.5 181.5q19 106 94 190t188 141q-162 119 -129 303q22 124 112 217.5t226.5 143
t298.5 49.5zM712 923q27 -34 93 -34t104 33.5t45 76.5q7 44 -18.5 77.5t-91.5 33.5t-105.5 -34t-46.5 -77t20 -76zM705 324q69 0 117 38t57 93q9 54 -25 90.5t-104 36.5t-118 -36.5t-57 -90.5q-9 -55 25.5 -93t104.5 -38z" />
    <glyph glyph-name="nine" unicode="9" horiz-adv-x="1312" 
d="M719 0h-561l413 471q-192 43 -293.5 171.5t-68.5 311.5q26 147 129.5 262t254 176.5t320.5 61.5q271 0 418.5 -138t108.5 -362q-24 -137 -115 -245zM852 1110q-69 0 -122.5 -43t-65.5 -113q-13 -70 25.5 -112.5t107.5 -42.5q68 0 121.5 42.5t66.5 112.5q12 70 -26.5 113
t-106.5 43z" />
    <glyph glyph-name="colon" unicode=":" horiz-adv-x="606" 
d="M203 807q19 99 101.5 168t187.5 69q98 0 155.5 -69.5t38.5 -167.5q-19 -105 -100 -175.5t-180 -70.5q-106 0 -164 70t-39 176zM100 225q19 99 101.5 168.5t187.5 69.5q98 0 156 -70t39 -168q-19 -105 -100.5 -175t-180.5 -70q-106 0 -164 69.5t-39 175.5z" />
    <glyph glyph-name="semicolon" unicode=";" horiz-adv-x="606" 
d="M203 807q19 99 101.5 168t187.5 69q98 0 155.5 -69.5t38.5 -167.5q-19 -105 -100 -175.5t-180 -70.5q-106 0 -164 70t-39 176zM539 111l-310 -435h-221l207 320q-67 26 -97.5 87t-17.5 142q19 99 101.5 168.5t187.5 69.5q98 0 156 -70t39 -168q-11 -59 -47 -114h2z" />
    <glyph glyph-name="less" unicode="&#x3c;" horiz-adv-x="892" 
d="M141 571l893 457l-69 -389l-416 -188l348 -191l-59 -346l-732 457z" />
    <glyph glyph-name="equal" unicode="=" horiz-adv-x="819" 
d="M213 860h696l-51 -287h-696zM141 451h697l-52 -287h-696z" />
    <glyph glyph-name="greater" unicode="&#x3e;" horiz-adv-x="892" 
d="M952 571l-34 -200l-891 -457l67 387l416 191l-348 188l61 348l617 -385h2z" />
    <glyph glyph-name="question" unicode="?" horiz-adv-x="1277" 
d="M485 492l4 24q18 99 37 158t53 102.5t73.5 69t111.5 59.5q49 23 71 34t57 32t52 41.5t21 42.5q6 38 -21 54.5t-92 16.5q-81 0 -124.5 -42t-57.5 -123h-459q14 84 42 152.5t82 133.5t130.5 109.5t194 71t266.5 26.5q101 0 182.5 -12.5t148.5 -40.5t108.5 -72t58 -110
t1.5 -150q-10 -60 -26 -105t-46 -93.5t-81 -91t-125 -79.5q-99 -49 -146.5 -93t-58.5 -111l-2 -4h-455zM438 207q17 95 93.5 160t173.5 65q95 0 149 -65t37 -160q-17 -97 -94 -162t-172 -65q-97 0 -150.5 65t-36.5 162z" />
    <glyph glyph-name="at" unicode="@" horiz-adv-x="2054" 
d="M525 167q-91 133 -54 345t174.5 345.5t317.5 133.5q173 0 231 -133l20 115h431l-132 -740h232q40 84 67 238q30 172 -1.5 322t-115 258.5t-219.5 170.5t-307 62q-172 0 -330 -62t-279 -170.5t-204.5 -258.5t-113.5 -322q-22 -140 -9.5 -262.5t65.5 -224t134 -174
t197 -112.5t254 -40q63 0 135 10l2 -166q-77 -14 -166 -14q-146 0 -279.5 43t-241.5 125.5t-181.5 202.5t-99 273.5t6.5 338.5q27 150 89 286t147.5 243t192.5 193.5t224.5 143t242 87t245.5 30.5q145 0 278.5 -43t241.5 -125.5t181.5 -202.5t99 -273.5t-5.5 -338.5
q-43 -232 -162 -420h-782l20 113q-103 -131 -276 -131q-180 0 -270 134zM1122 459l21 108q3 43 -25 61.5t-74 18.5q-52 0 -90 -38t-49 -97t13.5 -97t76.5 -38q105 0 127 82z" />
    <glyph glyph-name="A" unicode="A" horiz-adv-x="1724" 
d="M887 1434h454l363 -1434h-442l-43 221h-590l-121 -221h-488zM819 569h332l-88 445z" />
    <glyph glyph-name="B" unicode="B" horiz-adv-x="1439" 
d="M61 0l252 1434h734q74 0 138 -8.5t132.5 -34.5t112.5 -68t65 -115.5t4 -171.5q-33 -186 -215 -284q102 -40 157 -118.5t34 -203.5q-17 -98 -64 -175t-108 -123.5t-137.5 -77.5t-147 -42.5t-141.5 -11.5h-816zM668 860h237q105 0 125 115t-84 115h-239zM578 344h299
q62 0 99 35t48 94q9 59 -16 92t-88 33h-299z" />
    <glyph glyph-name="C" unicode="C" horiz-adv-x="1591" 
d="M627 717q-11 -55 -11 -100q0 -28 7.5 -72t31 -86t64 -66.5t81.5 -34.5t87 -10q111 0 203 73t112 179h455q-15 -86 -58.5 -172.5t-118 -167t-169.5 -143t-222.5 -100t-267.5 -37.5q-165 0 -299 51.5t-223 145t-117 201.5t-28 192q0 71 14 147q29 168 114.5 307.5
t207.5 233t274 145t317 51.5q89 0 168 -15t140 -42t113 -65t87.5 -83t62.5 -95.5t38.5 -104t13.5 -87.5t2 -47q0 -41 -8 -81h-455q4 23 4 45q0 77 -59.5 141.5t-171.5 64.5q-46 0 -90.5 -9.5t-93 -35t-88 -65.5t-71 -106t-46.5 -152z" />
    <glyph glyph-name="D" unicode="D" horiz-adv-x="1562" 
d="M965 1434q176 0 315.5 -47.5t232.5 -137t129.5 -226t6.5 -306.5q-40 -226 -174.5 -390t-330 -245.5t-431.5 -81.5h-652l252 1434h652zM580 365h196q179 0 280.5 86t133.5 266q31 180 -39.5 266t-249.5 86h-196z" />
    <glyph glyph-name="E" unicode="E" horiz-adv-x="1214" 
d="M313 1434h1112l-63 -369h-657l-31 -174h596l-62 -348h-596l-30 -174h657l-65 -369h-1113z" />
    <glyph glyph-name="F" unicode="F" horiz-adv-x="1173" 
d="M313 1434h1071l-63 -369h-619l-32 -188h555l-64 -369h-555l-90 -508h-455z" />
    <glyph glyph-name="G" unicode="G" horiz-adv-x="1611" 
d="M627 717q-10 -56 -10 -103q0 -117 71 -201.5t258 -84.5q237 0 328 180h-371l53 307h758l-143 -815h-373l16 98q-166 -118 -393 -118q-120 0 -229 33t-196.5 95t-148 152t-76 174.5t-15.5 144.5q0 66 12 138q29 166 120 307t218.5 233.5t279.5 144.5t306 52
q101 0 192.5 -22.5t162 -61t126.5 -90.5t90 -110.5t44.5 -107.5t10.5 -84q0 -26 -4 -52h-454q2 12 2 22q0 59 -64.5 98t-179.5 39q-326 0 -391 -368z" />
    <glyph glyph-name="H" unicode="H" horiz-adv-x="1665" 
d="M313 1434h455l-90 -516h633l90 516h454l-251 -1434h-455l96 549h-633l-96 -549h-455z" />
    <glyph glyph-name="I" unicode="I" horiz-adv-x="577" 
d="M313 1434h455l-252 -1434h-455z" />
    <glyph glyph-name="J" unicode="J" horiz-adv-x="1349" 
d="M1085 1434h455l-151 -861q-21 -124 -74 -228t-139 -187.5t-215 -130.5t-289 -47q-111 0 -198.5 22t-146.5 61.5t-99 96t-56.5 125t-18.5 148.5t15 167h455q-10 -65 -12 -121t29 -93.5t97 -37.5q46 0 82.5 21t59 56t35.5 71.5t20 76.5z" />
    <glyph glyph-name="K" unicode="K" horiz-adv-x="1599" 
d="M313 1434h455l-104 -594h94l456 594h545l-606 -740l426 -694h-528l-281 512h-164l-90 -512h-455z" />
    <glyph glyph-name="L" unicode="L" horiz-adv-x="1214" 
d="M313 1434h455l-186 -1065h657l-65 -369h-1113z" />
    <glyph glyph-name="M" unicode="M" horiz-adv-x="1880" 
d="M313 1434h435l278 -947l610 947h435l-252 -1434h-435l105 594l-389 -594h-320l-180 596l-104 -596h-435z" />
    <glyph glyph-name="N" unicode="N" horiz-adv-x="1644" 
d="M313 1434h455l467 -826l145 826h455l-252 -1434h-455l-473 793l-139 -793h-455z" />
    <glyph glyph-name="O" unicode="O" horiz-adv-x="1697" 
d="M168 717q24 136 86 254t151.5 206t201 150.5t238 94.5t259.5 32q168 0 306 -50.5t232 -143.5t124.5 -203t30.5 -198q0 -69 -21.5 -190t-110 -261.5t-215 -233.5t-283 -143.5t-323.5 -50.5t-304.5 50.5t-231 143.5t-123.5 202.5t-30 197.5q0 69 13 143zM1038 1085
q-160 0 -271.5 -102t-139.5 -266q-8 -46 -8 -88q0 -105 65 -193t225 -88t273 102.5t143 266.5q7 44 7 83q0 108 -66.5 196.5t-227.5 88.5z" />
    <glyph glyph-name="P" unicode="P" horiz-adv-x="1378" 
d="M1026 1434q29 0 59 -2.5t67 -8.5t70.5 -15.5t70.5 -25t67 -36.5t59 -48.5t47.5 -63t32.5 -79.5t13.5 -97t-9.5 -116q-15 -87 -50 -160t-79.5 -122.5t-100.5 -88t-111 -60.5t-114 -36t-105 -19t-89 -5h-258l-80 -451h-455l252 1434h713zM655 795h217q71 0 115.5 37.5
t56.5 109.5q12 71 -18 109.5t-100 38.5h-219z" />
    <glyph glyph-name="Q" unicode="Q" horiz-adv-x="1697" 
d="M1178 -410l-263 392q-25 -2 -71 -2q-167 0 -304.5 50.5t-231 143.5t-132 233.5t-8.5 309.5q24 136 86 254t151.5 206t201 150.5t238 94.5t259.5 32q168 0 306 -50.5t232 -143.5t133 -233.5t9 -309.5q-36 -202 -151.5 -359t-286.5 -252l368 -516h-536zM1038 1085
q-160 0 -271.5 -102t-139.5 -266q-30 -164 46 -266.5t236 -102.5t273 102.5t143 266.5q28 164 -49 266t-238 102z" />
    <glyph glyph-name="R" unicode="R" horiz-adv-x="1540" 
d="M1087 1434q73 0 142.5 -12t141.5 -44.5t122 -83.5t72.5 -136.5t3.5 -194.5q-30 -167 -129.5 -279t-237.5 -172l297 -512h-506l-250 451h-147l-80 -451h-455l252 1434h774zM655 795h279q80 0 121 41t51 106q24 148 -119 148h-278z" />
    <glyph glyph-name="S" unicode="S" horiz-adv-x="1488" 
d="M586 494q-13 -76 48 -121t169 -45q245 0 262 98q2 15 -0.5 26.5t-12 21t-22 16.5t-34.5 13.5t-44 11.5t-57.5 10.5t-67.5 10.5t-80.5 13t-91.5 16q-126 23 -209 63.5t-123.5 95t-52 125t5.5 152.5q19 105 86.5 192t165 143.5t216 87t241.5 30.5q99 0 183 -13.5
t146.5 -38.5t112 -59.5t79.5 -77.5t49 -92t20.5 -102.5t-6.5 -109.5h-459q13 76 -34.5 110.5t-151.5 34.5q-71 0 -125 -24.5t-60 -63.5q-8 -42 10 -59q24 -22 156 -49q36 -8 132 -26l1 -1h1h1q112 -22 172.5 -36.5t140 -46.5t115.5 -71.5t56.5 -106t5.5 -155.5
q-19 -106 -76.5 -194t-151.5 -154t-232 -102.5t-308 -36.5q-125 0 -228 20t-174 55t-124 83.5t-78 105.5t-35 120.5t4 129.5h459z" />
    <glyph glyph-name="T" unicode="T" horiz-adv-x="1359" 
d="M293 1434h1278l-64 -369h-411l-189 -1065h-454l188 1065h-412z" />
    <glyph glyph-name="U" unicode="U" horiz-adv-x="1513" 
d="M1249 1434h455l-148 -840q-55 -315 -252.5 -464.5t-549.5 -149.5q-351 0 -477 129.5t-126 324.5q0 74 15 160l147 840h455l-147 -840q-8 -44 -8 -80q0 -70 37.5 -118t168.5 -48t195.5 57t87.5 189z" />
    <glyph glyph-name="V" unicode="V" horiz-adv-x="1765" 
d="M655 0l-362 1434h495l183 -932l510 932h495l-866 -1434h-455z" />
    <glyph glyph-name="W" unicode="W" horiz-adv-x="2277" 
d="M471 0l-178 1434h434l72 -875l375 875h413l68 -875l379 875h454l-702 -1434h-475l-58 709l-307 -709h-475z" />
    <glyph glyph-name="X" unicode="X" horiz-adv-x="1839" 
d="M41 0l735 745l-409 689h551l182 -361l289 361h591l-614 -689l432 -745h-551l-200 416l-371 -416h-635z" />
    <glyph glyph-name="Y" unicode="Y" horiz-adv-x="1724" 
d="M711 430l-418 1004h504l190 -609l404 609h544l-770 -1004l-75 -430h-455z" />
    <glyph glyph-name="Z" unicode="Z" horiz-adv-x="1306" 
d="M1464 1434l-63 -361l-696 -704h626l-65 -369h-1225l63 360l699 705h-557l63 369h1155z" />
    <glyph glyph-name="bracketleft" unicode="[" horiz-adv-x="763" 
d="M313 1434h662l-64 -369h-290l-193 -1106h287l-64 -369h-661l63 369h2z" />
    <glyph glyph-name="backslash" unicode="\" horiz-adv-x="894" 
d="M854 0h-362l-199 1434h362z" />
    <glyph glyph-name="bracketright" unicode="]" horiz-adv-x="763" 
d="M954 1434l-63 -369h-2l-258 -1475h-662l64 369h291l192 1106h-287l64 369h661z" />
    <glyph glyph-name="asciicircum" unicode="^" horiz-adv-x="1175" 
d="M205 815l489 619h291l272 -619h-344l-120 344l-244 -344h-344z" />
    <glyph glyph-name="underscore" unicode="_" horiz-adv-x="819" 
d="M127 369h696l-51 -287h-696z" />
    <glyph glyph-name="grave" unicode="`" horiz-adv-x="514" 
d="M649 1114h-223l-104 361h268z" />
    <glyph glyph-name="a" unicode="a" horiz-adv-x="1169" 
d="M342 1024h455q126 0 207.5 -28.5t117.5 -80.5t42 -100.5t6 -74.5q0 -53 -13 -115l-27 -144q-4 -25 -4 -44q0 -32 16.5 -52t78.5 -20h12l-64 -365h-278q-102 0 -140 34t-38 104v7q-95 -165 -307 -165q-180 0 -250.5 68t-70.5 165q0 34 7 72q14 79 47 137.5t94 102.5
t158.5 66.5t231.5 22.5h122q2 12 2 22q0 22 -12 33t-67 11h-385zM717 455h-103q-37 0 -62 -21.5t-32 -62.5q-3 -16 -3 -29q0 -26 15 -42.5t56 -16.5q15 0 37 6.5t48.5 30t31.5 59.5z" />
    <glyph glyph-name="b" unicode="b" horiz-adv-x="1292" 
d="M1303 897q101 -148 59 -385t-195 -384.5t-366 -147.5q-209 0 -287 147l-22 -127h-451l252 1434h450l-94 -537q129 147 340 147q213 0 314 -147zM588 545l-15 -84q-8 -45 34.5 -81t107.5 -36q69 0 124 44.5t68 123.5q14 79 -25 123.5t-108 44.5q-62 0 -115 -32.5
t-67 -76.5l-4 -18v-8z" />
    <glyph glyph-name="c" unicode="c" 
d="M607 636q-48 -44 -57 -96t-9 -73q0 -48 27 -85.5t100 -37.5q58 0 101 32t50 83h430q-12 -70 -41 -135t-81.5 -128.5t-122.5 -110.5t-172 -76t-222 -29q-282 0 -396 123t-114 289q0 57 27.5 214t208.5 297.5t463 140.5q87 0 159 -15t123 -41.5t90.5 -62.5t60.5 -78.5
t33.5 -87t12.5 -86.5q0 -6 -1 -33t-7 -75h-430q1 9 1 18q0 39 -28.5 68t-85.5 29q-73 0 -120 -44z" />
    <glyph glyph-name="d" unicode="d" horiz-adv-x="1292" 
d="M170 128q-101 147 -59 384t195 384.5t366 147.5q206 0 286 -147l95 537h450l-252 -1434h-450l22 127q-131 -147 -340 -147q-213 0 -313 148zM700 344q65 0 120 36t63 81l16 102q9 45 -32.5 81t-106.5 36q-69 0 -125 -44.5t-70 -123.5q-13 -80 27 -124t108 -44z" />
    <glyph glyph-name="e" unicode="e" 
d="M537 432v-5q0 -75 30 -99.5t88 -24.5q137 0 150 74h430q-31 -87 -83 -156t-129.5 -124.5t-190.5 -86t-254 -30.5q-253 0 -365.5 124.5t-112.5 288.5q0 56 27.5 211t206.5 297.5t432 142.5q297 0 401.5 -120.5t104.5 -281.5q0 -59 -12 -126l-15 -84h-708zM838 592
q0 129 -109 129q-118 0 -164 -129h273z" />
    <glyph glyph-name="f" unicode="f" horiz-adv-x="782" 
d="M961 1139h-105q-50 0 -72 -13t-30 -63l-6 -39h194l-63 -365h-197l-117 -659h-450l116 659h-94l64 365h94l20 113q27 158 134 237.5t278 79.5h289z" />
    <glyph glyph-name="g" unicode="g" horiz-adv-x="1292" 
d="M172 -106h479q72 0 107 31t49 106l16 96q-131 -147 -340 -147q-213 0 -298.5 126t-85.5 274q0 62 27 215.5t180 301t366 147.5q206 0 286 -147l23 127h451l-164 -932q-46 -261 -194.5 -381.5t-434.5 -120.5h-520zM700 344q65 0 120 36t63 81l16 102q2 8 2 16q0 35 -38 68
t-103 33q-69 0 -125 -44.5t-70 -123.5q-3 -20 -3 -37q0 -54 35 -92.5t103 -38.5z" />
    <glyph glyph-name="h" unicode="h" horiz-adv-x="1230" 
d="M293 1434h450l-98 -566q69 85 165.5 130.5t209.5 45.5q175 0 246.5 -106.5t38.5 -292.5l-115 -645h-451l92 522q14 80 -5.5 119t-88.5 39q-126 0 -153 -158l-92 -522h-451z" />
    <glyph glyph-name="i" unicode="i" horiz-adv-x="532" 
d="M256 1298q17 99 100 168.5t187 69.5q98 0 155.5 -70t40.5 -168q-19 -104 -100 -174.5t-180 -70.5q-104 0 -163 70.5t-40 174.5zM221 1024h451l-180 -1024h-451z" />
    <glyph glyph-name="j" unicode="j" horiz-adv-x="532" 
d="M250 1298q17 99 100 168.5t187 69.5q98 0 155.5 -70t40.5 -168q-19 -104 -100 -174.5t-180 -70.5q-104 0 -163 70.5t-40 174.5zM-168 -86h105q46 0 71.5 22t34.5 74l178 1014h451l-197 -1116q-27 -158 -134 -238t-278 -80h-288z" />
    <glyph glyph-name="k" unicode="k" horiz-adv-x="1290" 
d="M293 1434h450l-129 -740h39l215 330h521l-355 -481l236 -543h-512l-127 371h-74l-65 -371h-451z" />
    <glyph glyph-name="l" unicode="l" horiz-adv-x="614" 
d="M678 365l-64 -365h-278q-151 0 -210 74.5t-32 222.5l199 1137h450l-168 -953q-12 -67 8.5 -91.5t82.5 -24.5h12z" />
    <glyph glyph-name="m" unicode="m" horiz-adv-x="1806" 
d="M221 1024h451l-25 -141q133 161 332 161q113 0 181 -55.5t87 -157.5q139 213 369 213q160 0 228.5 -107t35.5 -292l-115 -645h-450l96 543q14 75 0.5 106t-68.5 31q-46 0 -74 -26t-42 -97l-99 -557h-450l96 543q14 75 1 106t-68 31q-48 0 -76.5 -28.5t-42.5 -108.5
l-96 -543h-451z" />
    <glyph glyph-name="n" unicode="n" horiz-adv-x="1230" 
d="M221 1024h451l-27 -156q69 85 165.5 130.5t209.5 45.5q175 0 246.5 -106.5t38.5 -292.5l-115 -645h-451l92 522q14 80 -5.5 119t-88.5 39q-126 0 -153 -158l-92 -522h-451z" />
    <glyph glyph-name="o" unicode="o" horiz-adv-x="1253" 
d="M491 982q147 62 320 62t298.5 -62.5t174.5 -164.5t49 -201q0 -50 -19.5 -158.5t-121 -230.5t-249 -184.5t-320.5 -62.5t-298.5 62.5t-174.5 164.5t-49 201q0 50 19.5 158.5t121 230.5t249.5 185zM688 344q79 0 124 51.5t56 116.5q4 17 4 35q0 10 -2.5 30t-13 45
t-38.5 41.5t-70 16.5q-79 0 -125.5 -52t-57.5 -116q-4 -21 -4 -40q0 -18 5 -44.5t36 -55t86 -28.5z" />
    <glyph glyph-name="p" unicode="p" horiz-adv-x="1292" 
d="M221 1024h451l-23 -127q129 147 340 147q213 0 299 -126t86 -275q0 -61 -27 -214.5t-180 -301t-366 -147.5q-207 0 -287 147l-94 -537h-451zM588 545l-15 -84q-1 -7 -1 -14q0 -37 39 -70t104 -33q69 0 124 44.5t68 123.5q4 21 4 39q0 52 -34 90.5t-103 38.5
q-62 0 -115 -32.5t-67 -74.5l-4 -24v-4z" />
    <glyph glyph-name="q" unicode="q" horiz-adv-x="1292" 
d="M1432 1024l-252 -1434h-451l94 537q-131 -147 -340 -147q-213 0 -298.5 126t-85.5 274q0 62 27 215.5t180 301t366 147.5q207 0 286 -145l23 125h451zM885 471v8l14 84q2 8 2 16q0 35 -38 68t-103 33q-69 0 -125 -44.5t-70 -123.5q-3 -20 -3 -37q0 -54 35 -92.5
t103 -38.5q62 0 115.5 32.5t65.5 74.5z" />
    <glyph glyph-name="r" unicode="r" horiz-adv-x="890" 
d="M221 1024h451l-27 -156q68 81 153 128.5t156 47.5h101l-64 -364h-264q-64 0 -94.5 -26t-44.5 -111l-96 -543h-451z" />
    <glyph glyph-name="s" unicode="s" horiz-adv-x="1155" 
d="M492 346q-8 -47 29.5 -75.5t125.5 -28.5q101 0 109 43q4 27 -37.5 43t-179.5 43q-199 40 -297.5 118.5t-75.5 212.5q16 91 75.5 160t144.5 107t176 56.5t186 18.5q105 0 190 -23t138 -60t86 -85t43 -98.5t1 -99.5h-409q18 104 -99 104q-39 0 -65.5 -12.5t-30.5 -36.5
q-5 -31 50 -50q43 -16 220 -48q87 -16 138 -31.5t105.5 -47t73.5 -85t5 -131.5q-29 -164 -196.5 -262t-419.5 -98q-116 0 -208 23t-149 60t-92 85.5t-45.5 98t-1.5 99.5h410z" />
    <glyph glyph-name="t" unicode="t" horiz-adv-x="813" 
d="M201 1024h106l43 246h451l-43 -246h215l-64 -365h-215l-43 -239q-9 -52 9.5 -74t64.5 -22h125l-57 -324h-310q-171 0 -249.5 79.5t-51.5 237.5l62 342h-107z" />
    <glyph glyph-name="u" unicode="u" horiz-adv-x="1312" 
d="M1376 365l-63 -365h-279q-233 0 -248 180q-152 -200 -395 -200q-174 0 -244.5 106t-37.5 293l112 645h451l-92 -522q-13 -80 7.5 -119t88.5 -39q124 0 151 158l93 522h450l-96 -543q-12 -67 8 -91.5t82 -24.5h12z" />
    <glyph glyph-name="v" unicode="v" horiz-adv-x="1394" 
d="M201 1024h432l125 -561l323 561h473l-651 -1024h-411z" />
    <glyph glyph-name="w" unicode="w" horiz-adv-x="1763" 
d="M201 1024h452l11 -485l213 485h370l41 -485l182 485h453l-487 -1024h-432l-31 508l-213 -508h-432z" />
    <glyph glyph-name="x" unicode="x" horiz-adv-x="1402" 
d="M20 0l482 535l-269 489h500l94 -219l183 219h520l-440 -489l292 -535h-503l-113 268l-221 -268h-525z" />
    <glyph glyph-name="y" unicode="y" horiz-adv-x="1292" 
d="M1452 1024l-602 -1044q-50 -88 -87.5 -142.5t-87 -102t-99 -72.5t-125.5 -43.5t-164 -24t-217 -5.5l63 369q191 0 216 4q40 5 58 32q1 2 3 5l14 25l-223 999h452l80 -557l266 557h453z" />
    <glyph glyph-name="z" unicode="z" horiz-adv-x="1019" 
d="M1147 1024l-55 -315l-398 -344h369l-64 -365h-979l56 315l397 344h-319l63 365h930z" />
    <glyph glyph-name="braceleft" unicode="{" horiz-adv-x="911" 
d="M233 702q42 5 66.5 11t49.5 20.5t40 40.5t28.5 67.5t24.5 104.5q20 115 62 202t94.5 140.5t122.5 87t139 46t150 12.5h133l-68 -385h-141q-60 0 -91 -51.5t-57 -192.5q-23 -136 -95.5 -202.5t-186.5 -90.5q40 -9 70 -22.5t57.5 -36.5t40.5 -54t19 -75.5t-7 -102.5
q-25 -141 -12 -192.5t73 -51.5h142l-68 -385h-133q-50 0 -93 5t-85.5 15.5t-76.5 29.5t-63.5 45.5t-49 64.5t-30.5 85t-10.5 108.5t13.5 134.5q11 63 12 104.5t-4.5 67.5t-25.5 40.5t-42.5 20.5t-62.5 11l-49 6l65 366z" />
    <glyph glyph-name="bar" unicode="|" horiz-adv-x="485" 
d="M313 1434h363l-324 -1844h-362z" />
    <glyph glyph-name="braceright" unicode="}" horiz-adv-x="911" 
d="M924 702l49 -6l-66 -366l-49 -6q-52 -6 -80.5 -15t-55.5 -34t-43 -71t-30 -124q-20 -115 -62 -202t-94.5 -140.5t-122 -87t-138.5 -46t-150 -12.5h-133l67 385h142q60 0 91 51.5t56 192.5q13 71 40 123.5t66 85.5t82 52.5t97 31.5q-40 9 -70 22.5t-57.5 36.5t-41 54
t-19.5 75.5t6 102.5q26 141 12.5 192.5t-74.5 51.5h-141l67 385h134q50 0 93 -5t85.5 -15.5t76.5 -29.5t63.5 -45.5t49 -64.5t30.5 -85t10.5 -108.5t-13.5 -134.5q-11 -63 -12 -104.5t5 -67.5t26 -40.5t42 -20.5t62 -11z" />
    <glyph glyph-name="asciitilde" unicode="~" horiz-adv-x="1267" 
d="M231 862q79 139 161.5 201t186.5 60.5t252 -66.5q41 -18 60 -26t48.5 -20t41.5 -15.5t32.5 -9t28 -4.5t21.5 3t20 7.5t16.5 14.5t18 20.5t17.5 27.5l28 47l221 -96l-26 -48q-79 -139 -161.5 -200.5t-185.5 -59t-251 67.5q-47 20 -72 30.5t-56.5 22t-46 15t-34.5 5
t-29.5 -3t-22.5 -13t-22.5 -21.5t-21.5 -33l-29 -49l-221 96z" />
    <glyph glyph-name="exclamdown" unicode="&#xa1;" horiz-adv-x="577" 
d="M207 815q17 98 94.5 163.5t175.5 65.5q94 0 146.5 -65.5t35.5 -163.5q-17 -94 -92.5 -158.5t-169.5 -64.5q-98 0 -152.5 64.5t-37.5 158.5zM-10 -410l88 506l117 432h372l-35 -432l-88 -506h-454z" />
    <glyph glyph-name="cent" unicode="&#xa2;" horiz-adv-x="1230" 
d="M627 636q-48 -44 -62 -124t18 -124t105 -44q58 0 101.5 32.5t50.5 82.5h430q-13 -73 -45 -141t-84 -132t-134 -113t-184 -73l-71 -410h-369l70 408q-192 41 -275.5 174t-46.5 340t168.5 341t337.5 175l70 406h368l-71 -410q75 -19 132 -55.5t89.5 -82t52.5 -99.5
t20 -109.5t-8 -112.5h-430q7 51 -24 83t-88 32q-73 0 -121 -44z" />
    <glyph glyph-name="sterling" unicode="&#xa3;" horiz-adv-x="1339" 
d="M383 1012q39 219 195 330.5t397 111.5q100 0 180.5 -17t134.5 -46t92 -70t58 -85.5t28.5 -97t6.5 -100t-11 -98.5h-458q14 79 -0.5 112t-63.5 33q-45 0 -71.5 -27.5t-36.5 -88.5l-21 -113h512l-65 -369h-510l-21 -118h635l-66 -369h-1093l86 487h-164l66 369h163z" />
    <glyph glyph-name="currency" unicode="&#xa4;" horiz-adv-x="1247" 
d="M1384 1135l-280 -238q32 -84 15 -179t-77 -179l197 -238l-172 -145l-195 237q-91 -46 -188 -46t-172 46l-276 -235l-121 143l280 240q-29 83 -12.5 177t76.5 177l-195 238l170 145l197 -238q91 44 185 44t167 -44l281 240zM612 612l15 -16q38 -39 99 -38t112 42l8 8
q51 46 62 110t-27 109q-35 44 -97 46.5t-116 -37.5l-21 -17q-46 -44 -56 -103.5t21 -103.5z" />
    <glyph glyph-name="yen" unicode="&#xa5;" horiz-adv-x="1724" 
d="M418 612h217l-342 822h504l188 -609l406 609h544l-630 -822h219l-37 -204h-326l-14 -82h326l-37 -205h-326l-20 -121h-455l20 121h-325l37 205h325l15 82h-326z" />
    <glyph glyph-name="brokenbar" unicode="&#xa6;" horiz-adv-x="485" 
d="M313 1434h363l-125 -719h-363zM117 309h362l-127 -719h-362z" />
    <glyph glyph-name="section" unicode="&#xa7;" horiz-adv-x="1591" 
d="M500 2q-13 -76 48 -121t169 -45q243 0 260 98q3 15 0.5 26.5t-12 21t-21.5 16.5t-34.5 14t-44.5 11.5t-57.5 10.5t-67.5 11t-81 13t-92 16q-125 23 -208 63.5t-123 95t-51.5 125t5.5 152.5q34 177 193 295q-24 75 -4 196q19 105 86.5 192t165 143.5t215.5 87t241 30.5
q99 0 183 -13.5t146.5 -38.5t112 -59.5t79.5 -77.5t49 -92t20.5 -102.5t-6.5 -109.5h-459q13 76 -34.5 110.5t-151.5 34.5q-71 0 -124.5 -24.5t-59.5 -63.5q-8 -42 10 -59q24 -22 156 -49q36 -8 132 -26l1 -1h1h1q112 -22 172.5 -36.5t139.5 -46.5t115.5 -71.5t56.5 -106
t5 -155.5q-36 -199 -194 -324q23 -73 6 -168q-19 -106 -76.5 -194t-151.5 -154t-232 -102.5t-308 -36.5q-125 0 -228 20t-174 55t-124 83.5t-78 105.5t-35 120.5t4 129.5h459zM692 580q-34 -21 -41 -54q-9 -54 33 -72t267 -62q2 -1 3 -1q84 -16 154 -33q50 21 59 68
q2 15 -0.5 26.5t-12 21t-21.5 16.5t-34.5 13.5t-44.5 11.5t-57 10.5t-67 10.5t-80.5 13t-91.5 16q-13 2 -35.5 7.5t-30.5 7.5z" />
    <glyph glyph-name="dieresis" unicode="&#xa8;" horiz-adv-x="952" 
d="M293 1296q12 74 73.5 125.5t137.5 51.5q73 0 115 -51.5t30 -125.5q-13 -76 -74 -128t-135 -52q-76 0 -118.5 51.5t-28.5 128.5zM764 1296q12 74 73.5 125.5t137.5 51.5q73 0 115 -51.5t30 -125.5q-13 -76 -74 -128t-135 -52q-76 0 -118.5 51.5t-28.5 128.5z" />
    <glyph glyph-name="copyright" unicode="&#xa9;" horiz-adv-x="1599" 
d="M224 348q-69 169 -34 369t163.5 369.5t315.5 268.5t388 99q200 0 352.5 -99t221.5 -268.5t34 -369.5q-27 -150 -109.5 -286t-199 -235t-263 -157.5t-296.5 -58.5q-201 0 -353 99t-220 269zM437 1034q-110 -146 -140 -317t28.5 -316.5t188.5 -230t301 -84.5
q170 0 331 84.5t272 230t141 316.5q16 105 2.5 199t-60 173.5t-113 137t-157.5 89.5t-193 32q-171 0 -331 -84.5t-270 -229.5zM778 717q-18 -98 21.5 -139t105.5 -41q55 0 100 35t54 87h223q-10 -53 -41.5 -105.5t-81.5 -97t-125 -72.5t-160 -28q-167 0 -259 98.5t-62 262.5
q29 164 155 262t293 98q85 0 150 -28t99.5 -72.5t48 -97t4.5 -105.5h-224q9 52 -23.5 87.5t-86.5 35.5q-66 0 -120 -41t-71 -139z" />
    <glyph glyph-name="ordfeminine" unicode="&#xaa;" horiz-adv-x="688" 
d="M379 1454h227q121 0 159 -54.5t19 -154.5l-12 -78q-4 -31 6 -42t39 -11h6l-32 -182h-140q-54 0 -72.5 21t-15.5 67q-41 -98 -153 -98q-91 0 -130.5 39t-25.5 114q13 80 73.5 122t190.5 42h62q3 22 -4.5 32.5t-34.5 10.5h-193zM565 1159h-51q-38 0 -47 -41q-8 -45 33 -45
q8 0 18.5 3t23.5 15t17 31z" />
    <glyph glyph-name="guillemotleft" unicode="&#xab;" horiz-adv-x="1234" 
d="M152 512l366 492h361l-385 -508l192 -476h-340zM623 512l366 492h361l-385 -508l192 -476h-340z" />
    <glyph glyph-name="logicalnot" unicode="&#xac;" horiz-adv-x="899" 
d="M238 983h776l-99 -553h-362l35 191h-414z" />
    <glyph glyph-name="registered" unicode="&#xae;" horiz-adv-x="1599" 
d="M190 717q35 200 163.5 369.5t315.5 268.5t388 99q200 0 352.5 -99t221.5 -268.5t34 -369.5q-35 -201 -164.5 -370.5t-316.5 -268t-387 -98.5q-201 0 -353 98.5t-220.5 268t-33.5 370.5zM297 717q-30 -171 28.5 -316.5t188.5 -230t301 -84.5t332 84.5t271.5 230
t140.5 316.5q22 127 -7.5 244t-99 201.5t-178 135t-236.5 50.5q-171 0 -331 -85t-270 -230.5t-140 -315.5zM1077 1067q36 0 70 -5.5t69.5 -21.5t59.5 -40.5t35 -66.5t2 -95q-14 -82 -63 -137.5t-117 -84.5l145 -251h-248l-123 221h-71l-39 -221h-224l125 702h379zM866 754
h135q72 0 84 73q12 72 -59 72h-135z" />
    <glyph glyph-name="macron" unicode="&#xaf;" horiz-adv-x="737" 
d="M303 1372h615l-37 -205h-615z" />
    <glyph glyph-name="degree" unicode="&#xb0;" horiz-adv-x="690" 
d="M274 1198q22 117 118.5 200t213.5 83t186.5 -83t47.5 -200q-20 -117 -117.5 -200t-214.5 -83t-185.5 83t-48.5 200zM455 1322q-62 -52 -74 -124t30.5 -124t114.5 -52t133.5 52t73.5 124t-30.5 124t-114.5 52t-133 -52z" />
    <glyph glyph-name="plusminus" unicode="&#xb1;" horiz-adv-x="819" 
d="M207 819h203l36 205h287l-37 -205h207l-51 -287h-205l-37 -204h-286l36 204h-204zM113 287h696l-51 -287h-697z" />
    <glyph glyph-name="twosuperior" unicode="&#xb2;" horiz-adv-x="849" 
d="M238 803l366 268q75 54 84 105q14 69 -55 69q-45 0 -66.5 -33t-34.5 -104h-274q12 65 38 121.5t72.5 109.5t124 84t177.5 31q65 0 119.5 -14t100.5 -45t66 -90.5t5 -141.5q-3 -21 -13.5 -46t-36.5 -65.5t-82.5 -91.5t-136.5 -102l-86 -55h322l-39 -221h-690z" />
    <glyph glyph-name="threesuperior" unicode="&#xb3;" horiz-adv-x="843" 
d="M477 928l21 121h2l8 49h92q64 0 76 78q12 69 -49 69q-29 0 -46.5 -19.5t-27.5 -80.5h-274q23 135 123.5 222t261.5 87q140 0 220.5 -65t59.5 -181q-20 -123 -137 -186q144 -56 119 -197q-20 -115 -129 -184.5t-262 -69.5q-91 0 -159.5 26t-105 68.5t-50 94.5t-3.5 108
h275q-7 -42 11 -65t58 -23q42 0 66.5 23.5t29.5 58.5q11 66 -51 66h-129z" />
    <glyph glyph-name="acute" unicode="&#xb4;" horiz-adv-x="505" 
d="M258 1114l178 361h269l-224 -361h-223z" />
    <glyph glyph-name="paragraph" unicode="&#xb6;" horiz-adv-x="1767" 
d="M856 1434h1102l-324 -1844h-413l264 1500h-150l-264 -1500h-414l138 779h-125q-29 0 -59 2.5t-67 8.5t-70.5 16.5t-70 26.5t-66 38.5t-58.5 52.5t-47 68t-31 86t-11.5 106t11.5 127q17 96 52.5 175t80.5 133t102 95.5t111.5 65.5t114 39t105.5 20t89 5zM854 713l68 377
h-125q-61 0 -112 -47t-67 -142q-17 -96 16 -142t95 -46h125z" />
    <glyph glyph-name="periodcentered" unicode="&#xb7;" horiz-adv-x="606" 
d="M152 512q17 99 100 168.5t188 69.5q98 0 155 -70t40 -168q-19 -105 -100.5 -175.5t-180.5 -70.5q-106 0 -163.5 70t-38.5 176z" />
    <glyph glyph-name="cedilla" unicode="&#xb8;" horiz-adv-x="585" 
d="M-25 -487l33 184q104 -31 169 -20t73 61q7 38 -16 47.5t-107 9.5h-21l87 217h163l-51 -102q98 -11 142 -53t30 -127q-12 -66 -51 -114.5t-92.5 -73.5t-117.5 -36.5t-125 -8.5t-116 16z" />
    <glyph glyph-name="onesuperior" unicode="&#xb9;" horiz-adv-x="663" 
d="M662 1434h192l-152 -861h-272l107 603l-203 -89l-47 187z" />
    <glyph glyph-name="ordmasculine" unicode="&#xba;" horiz-adv-x="729" 
d="M561 1112q40 0 62 25.5t28 58.5t-7.5 58.5t-53.5 25.5q-39 0 -62 -26t-28 -58t8.5 -58t52.5 -26zM623 1462q132 0 204.5 -71.5t51.5 -194.5q-21 -122 -120 -194t-231 -72t-204.5 72t-51.5 194q21 123 119.5 194.5t231.5 71.5z" />
    <glyph glyph-name="guillemotright" unicode="&#xbb;" horiz-adv-x="1234" 
d="M1264 512l-367 -492h-360l385 508l-193 476h340zM793 512l-367 -492h-360l385 508l-193 476h340z" />
    <glyph glyph-name="onequarter" unicode="&#xbc;" horiz-adv-x="1861" 
d="M477 0l826 1434h280l-825 -1434h-281zM641 1434h193l-152 -861h-272l106 603l-203 -89l-47 187zM1599 860h273l-82 -467h98l-33 -184h-98l-37 -209h-272l37 209h-412l29 166zM1352 393h166l34 199z" />
    <glyph glyph-name="onehalf" unicode="&#xbd;" horiz-adv-x="1892" 
d="M477 0l826 1434h280l-825 -1434h-281zM641 1434h193l-152 -861h-272l106 603l-203 -89l-47 187zM1198 221l367 268q75 54 84 105q11 70 -56 70q-44 0 -65.5 -33t-34.5 -105h-274q9 51 26.5 97t50 93t76.5 80.5t110.5 54.5t147.5 21q42 0 80 -5.5t76 -18.5t65 -35
t48.5 -54t25.5 -76t-4 -101q-3 -21 -13.5 -46t-36.5 -65.5t-82.5 -92t-135.5 -102.5l-86 -55h321l-39 -221h-690z" />
    <glyph glyph-name="threequarters" unicode="&#xbe;" horiz-adv-x="1955" 
d="M457 928l20 121h2l8 49h93q63 0 75 78q12 69 -49 69q-29 0 -46.5 -19.5t-27.5 -80.5h-274q23 135 123.5 222t261.5 87q140 0 221 -65t60 -181q-20 -122 -138 -186q144 -56 119 -197q-20 -115 -129 -184.5t-262 -69.5q-91 0 -159 26t-104.5 68.5t-50 94.5t-3.5 108h274
q-7 -42 11.5 -65t58.5 -23q42 0 66.5 23.5t29.5 58.5q11 66 -51 66h-129zM571 0l826 1434h280l-825 -1434h-281zM1694 862h272l-82 -469h98l-32 -184h-99l-36 -209h-273l37 209h-412l29 166zM1446 393h166l35 199z" />
    <glyph glyph-name="questiondown" unicode="&#xbf;" horiz-adv-x="1277" 
d="M1024 838q-17 -96 -93.5 -161t-172.5 -65q-95 0 -149.5 65.5t-37.5 160.5q17 96 94 161.5t173 65.5q97 0 150 -65t36 -162zM977 553l-6 -25q-14 -79 -29.5 -132t-34.5 -92t-50.5 -67.5t-66 -49.5t-92.5 -48q-35 -16 -47 -22l-42 -21t-42.5 -24.5t-30.5 -24t-26.5 -28.5
t-11.5 -29q-6 -38 20.5 -55t91.5 -17q154 0 183 166h458q-14 -84 -42 -152.5t-82 -134t-130.5 -109.5t-193.5 -71t-266 -27q-127 0 -223.5 20.5t-167 64t-99.5 119.5t-10 181q10 60 26 105t46 93.5t81 91t125 79.5q187 93 205 205l2 4h455z" />
    <glyph glyph-name="Agrave" unicode="&#xc0;" horiz-adv-x="1724" 
d="M1245 1524h-223l-104 360h268zM887 1434h454l363 -1434h-442l-43 221h-590l-121 -221h-488zM819 569h332l-88 445z" />
    <glyph glyph-name="Aacute" unicode="&#xc1;" horiz-adv-x="1724" 
d="M1026 1524l178 360h269l-224 -360h-223zM887 1434h454l363 -1434h-442l-43 221h-590l-121 -221h-488zM819 569h332l-88 445z" />
    <glyph glyph-name="Acircumflex" unicode="&#xc2;" horiz-adv-x="1724" 
d="M743 1524l332 360h238l205 -360h-258l-78 176l-140 -176h-299zM887 1434h454l363 -1434h-442l-43 221h-590l-121 -221h-488zM819 569h332l-88 445z" />
    <glyph glyph-name="Atilde" unicode="&#xc3;" horiz-adv-x="1724" 
d="M1133 1567q-36 18 -54.5 26.5t-43.5 17.5t-38.5 9t-30.5 -2.5t-28.5 -14.5t-24.5 -29.5t-26 -45.5l-187 67q48 90 97.5 145.5t108 82.5t127.5 19.5t151 -48.5q48 -24 73.5 -34.5t55 -17t47 2t35.5 29.5t35 59l186 -70q-67 -125 -141 -185t-158 -60t-184 49zM887 1434h454
l363 -1434h-442l-43 221h-590l-121 -221h-488zM819 569h332l-88 445z" />
    <glyph glyph-name="Adieresis" unicode="&#xc4;" horiz-adv-x="1724" 
d="M752 1706q12 74 73.5 125t137.5 51q73 0 115 -51t30 -125q-13 -76 -74 -128t-135 -52q-76 0 -118.5 51.5t-28.5 128.5zM1223 1706q12 74 73.5 125t137.5 51q73 0 115 -51t30 -125q-13 -76 -74 -128t-135 -52q-76 0 -118.5 51.5t-28.5 128.5zM887 1434h454l363 -1434h-442
l-43 221h-590l-121 -221h-488zM819 569h332l-88 445z" />
    <glyph glyph-name="Aring" unicode="&#xc5;" horiz-adv-x="1724" 
d="M920 1588q-77 93 -54 222t132.5 222.5t238.5 93.5t206 -93.5t54 -222.5t-132.5 -222t-238.5 -93t-206 93zM1108 1900q-46 -39 -55 -90t23.5 -90t82.5 -39q51 0 97 39t55 90t-23.5 90t-83.5 39q-50 0 -96 -39zM887 1434h454l363 -1434h-442l-43 221h-590l-121 -221h-488z
M819 569h332l-88 445z" />
    <glyph glyph-name="AE" unicode="&#xc6;" horiz-adv-x="2283" 
d="M887 1434h1607l-63 -369h-659l-31 -174h598l-62 -348h-596l-30 -174h657l-65 -369h-1113l39 221h-528l-125 -221h-496zM836 569h395l86 496h-203z" />
    <glyph glyph-name="Ccedilla" unicode="&#xc7;" horiz-adv-x="1591" 
d="M627 717q-18 -88 -7 -152t34.5 -106t64 -66.5t81.5 -34.5t87 -10q111 0 203 73t112 179h455q-15 -84 -57.5 -169.5t-114.5 -165.5t-164 -142t-216 -101t-261 -42l-35 -70q98 -11 142 -53t30 -127q-12 -66 -51 -114.5t-92.5 -73.5t-117.5 -36.5t-125 -8.5t-116 16l33 184
q104 -31 169 -20t73 61q7 38 -16 47.5t-107 9.5h-21l78 195q-136 19 -244 77.5t-178.5 152t-97.5 219t0 278.5q29 168 114.5 307.5t207.5 233t274 145t317 51.5q89 0 168 -15t140 -42t113 -65t87.5 -83t62.5 -95.5t38.5 -104t15 -108t-7.5 -107.5h-455q19 106 -48 178.5
t-179 72.5q-46 0 -90.5 -9.5t-93 -35t-88 -65.5t-71 -106t-46.5 -152z" />
    <glyph glyph-name="Egrave" unicode="&#xc8;" horiz-adv-x="1214" 
d="M1030 1524h-223l-105 360h269zM313 1434h1112l-63 -369h-657l-31 -174h596l-62 -348h-596l-30 -174h657l-65 -369h-1113z" />
    <glyph glyph-name="Eacute" unicode="&#xc9;" horiz-adv-x="1214" 
d="M766 1524l178 360h268l-223 -360h-223zM313 1434h1112l-63 -369h-657l-31 -174h596l-62 -348h-596l-30 -174h657l-65 -369h-1113z" />
    <glyph glyph-name="Ecircumflex" unicode="&#xca;" horiz-adv-x="1214" 
d="M510 1524l332 360h237l205 -360h-258l-78 176l-139 -176h-299zM313 1434h1112l-63 -369h-657l-31 -174h596l-62 -348h-596l-30 -174h657l-65 -369h-1113z" />
    <glyph glyph-name="Edieresis" unicode="&#xcb;" horiz-adv-x="1214" 
d="M516 1706q12 74 73.5 125t137.5 51q73 0 115 -51t30 -125q-13 -76 -73.5 -128t-134.5 -52q-76 0 -119 51.5t-29 128.5zM987 1706q12 74 73.5 125t137.5 51q73 0 115 -51t30 -125q-13 -76 -73.5 -128t-134.5 -52q-76 0 -119 51.5t-29 128.5zM313 1434h1112l-63 -369h-657
l-31 -174h596l-62 -348h-596l-30 -174h657l-65 -369h-1113z" />
    <glyph glyph-name="Igrave" unicode="&#xcc;" horiz-adv-x="577" 
d="M670 1524h-224l-104 360h268zM313 1434h455l-252 -1434h-455z" />
    <glyph glyph-name="Iacute" unicode="&#xcd;" horiz-adv-x="577" 
d="M449 1524l178 360h268l-223 -360h-223zM313 1434h455l-252 -1434h-455z" />
    <glyph glyph-name="Icircumflex" unicode="&#xce;" horiz-adv-x="577" 
d="M170 1524l332 360h237l205 -360h-258l-78 176l-139 -176h-299zM313 1434h455l-252 -1434h-455z" />
    <glyph glyph-name="Idieresis" unicode="&#xcf;" horiz-adv-x="577" 
d="M176 1706q12 74 73.5 125t137.5 51q73 0 115 -51t30 -125q-13 -76 -73.5 -128t-134.5 -52q-76 0 -119 51.5t-29 128.5zM647 1706q12 74 73.5 125t137.5 51q73 0 115.5 -51t30.5 -125q-13 -76 -74 -128t-135 -52q-76 0 -119 51.5t-29 128.5zM313 1434h455l-252 -1434h-455
z" />
    <glyph glyph-name="Eth" unicode="&#xd0;" horiz-adv-x="1562" 
d="M90 860h123l100 574h652q176 0 315.5 -47.5t232.5 -137t129.5 -226t6.5 -306.5q-40 -226 -174.5 -390t-330 -245.5t-431.5 -81.5h-652l101 573h-123zM580 365h196q179 0 280.5 86t133.5 266q31 180 -39.5 266t-249.5 86h-196l-37 -209h221l-51 -287h-222z" />
    <glyph glyph-name="Ntilde" unicode="&#xd1;" horiz-adv-x="1644" 
d="M1094 1567q-36 18 -54.5 26.5t-43.5 17.5t-38.5 9t-30.5 -2.5t-28.5 -14.5t-24.5 -29.5t-26 -45.5l-186 67q48 90 97.5 145.5t108 82.5t127 19.5t150.5 -48.5q48 -24 73.5 -34.5t55 -17t47 2t35.5 29.5t35 59l186 -70q-67 -125 -141 -185t-158 -60t-184 49zM313 1434h455
l467 -826l145 826h455l-252 -1434h-455l-473 793l-139 -793h-455z" />
    <glyph glyph-name="Ograve" unicode="&#xd2;" horiz-adv-x="1697" 
d="M1231 1524h-223l-105 360h268zM168 717q24 136 86 254t151.5 206t201 150.5t238 94.5t259.5 32q168 0 306 -50.5t232 -143.5t133 -233.5t9 -309.5t-118.5 -309.5t-215 -233.5t-283 -143.5t-323.5 -50.5t-304.5 50.5t-231 143.5t-132 233.5t-8.5 309.5zM1038 1085
q-160 0 -271.5 -102t-139.5 -266q-30 -164 46 -266.5t236 -102.5t273 102.5t143 266.5q28 164 -49 266t-238 102z" />
    <glyph glyph-name="Oacute" unicode="&#xd3;" horiz-adv-x="1697" 
d="M1008 1524l178 360h268l-223 -360h-223zM168 717q24 136 86 254t151.5 206t201 150.5t238 94.5t259.5 32q168 0 306 -50.5t232 -143.5t133 -233.5t9 -309.5t-118.5 -309.5t-215 -233.5t-283 -143.5t-323.5 -50.5t-304.5 50.5t-231 143.5t-132 233.5t-8.5 309.5z
M1038 1085q-160 0 -271.5 -102t-139.5 -266q-30 -164 46 -266.5t236 -102.5t273 102.5t143 266.5q28 164 -49 266t-238 102z" />
    <glyph glyph-name="Ocircumflex" unicode="&#xd4;" horiz-adv-x="1697" 
d="M731 1524l332 360h237l205 -360h-258l-78 176l-139 -176h-299zM168 717q24 136 86 254t151.5 206t201 150.5t238 94.5t259.5 32q168 0 306 -50.5t232 -143.5t133 -233.5t9 -309.5t-118.5 -309.5t-215 -233.5t-283 -143.5t-323.5 -50.5t-304.5 50.5t-231 143.5t-132 233.5
t-8.5 309.5zM1038 1085q-160 0 -271.5 -102t-139.5 -266q-30 -164 46 -266.5t236 -102.5t273 102.5t143 266.5q28 164 -49 266t-238 102z" />
    <glyph glyph-name="Otilde" unicode="&#xd5;" horiz-adv-x="1697" 
d="M1120 1567q-36 18 -54.5 26.5t-43.5 17.5t-38.5 9t-30.5 -2.5t-28.5 -14.5t-24.5 -29.5t-26 -45.5l-186 67q48 90 97.5 145.5t108 82.5t127 19.5t150.5 -48.5q48 -24 73.5 -34.5t55 -17t47 2t35.5 29.5t35 59l187 -70q-67 -125 -141.5 -185t-158.5 -60t-184 49zM168 717
q24 136 86 254t151.5 206t201 150.5t238 94.5t259.5 32q168 0 306 -50.5t232 -143.5t133 -233.5t9 -309.5t-118.5 -309.5t-215 -233.5t-283 -143.5t-323.5 -50.5t-304.5 50.5t-231 143.5t-132 233.5t-8.5 309.5zM1038 1085q-160 0 -271.5 -102t-139.5 -266
q-30 -164 46 -266.5t236 -102.5t273 102.5t143 266.5q28 164 -49 266t-238 102z" />
    <glyph glyph-name="Odieresis" unicode="&#xd6;" horiz-adv-x="1697" 
d="M737 1706q12 74 73.5 125t137.5 51q73 0 115.5 -51t30.5 -125q-13 -76 -74 -128t-135 -52q-76 0 -119 51.5t-29 128.5zM1208 1706q12 74 73.5 125t137.5 51q73 0 115.5 -51t30.5 -125q-13 -76 -74 -128t-135 -52q-76 0 -119 51.5t-29 128.5zM168 717q24 136 86 254
t151.5 206t201 150.5t238 94.5t259.5 32q168 0 306 -50.5t232 -143.5t133 -233.5t9 -309.5t-118.5 -309.5t-215 -233.5t-283 -143.5t-323.5 -50.5t-304.5 50.5t-231 143.5t-132 233.5t-8.5 309.5zM1038 1085q-160 0 -271.5 -102t-139.5 -266q-30 -164 46 -266.5t236 -102.5
t273 102.5t143 266.5q28 164 -49 266t-238 102z" />
    <glyph glyph-name="multiply" unicode="&#xd7;" horiz-adv-x="819" 
d="M123 344l168 143l-119 146l240 203l118 -144l170 144l166 -203l-168 -144l119 -145l-239 -203l-119 146l-170 -146z" />
    <glyph glyph-name="Oslash" unicode="&#xd8;" horiz-adv-x="1697" 
d="M340 -205l129 264q-177 87 -259 257.5t-42 400.5q24 136 86 254t151.5 206t201 150.5t238 94.5t259.5 32q8 0 25.5 -1t25.5 -1l90 186h363l-129 -264q179 -88 262 -257t43 -400q-30 -169 -118.5 -309.5t-215 -233.5t-283 -143.5t-323.5 -50.5q-8 0 -25.5 1t-25.5 1
l-91 -187h-362zM971 1079q-136 -22 -227.5 -119t-116.5 -243q-27 -154 39 -256zM977 352q135 22 228.5 120.5t119.5 244.5q27 155 -43 258z" />
    <glyph glyph-name="Ugrave" unicode="&#xd9;" horiz-adv-x="1513" 
d="M1139 1524h-224l-104 360h268zM1249 1434h455l-148 -840q-55 -315 -252.5 -464.5t-549.5 -149.5q-351 0 -497 150t-91 464l147 840h455l-147 -840q-23 -131 22 -188.5t176 -57.5t195.5 57t87.5 189z" />
    <glyph glyph-name="Uacute" unicode="&#xda;" horiz-adv-x="1513" 
d="M915 1524l179 360h268l-223 -360h-224zM1249 1434h455l-148 -840q-55 -315 -252.5 -464.5t-549.5 -149.5q-351 0 -497 150t-91 464l147 840h455l-147 -840q-23 -131 22 -188.5t176 -57.5t195.5 57t87.5 189z" />
    <glyph glyph-name="Ucircumflex" unicode="&#xdb;" horiz-adv-x="1513" 
d="M639 1524l332 360h237l205 -360h-258l-78 176l-139 -176h-299zM1249 1434h455l-148 -840q-55 -315 -252.5 -464.5t-549.5 -149.5q-351 0 -497 150t-91 464l147 840h455l-147 -840q-23 -131 22 -188.5t176 -57.5t195.5 57t87.5 189z" />
    <glyph glyph-name="Udieresis" unicode="&#xdc;" horiz-adv-x="1513" 
d="M645 1706q12 74 73.5 125t137.5 51q73 0 115 -51t30 -125q-13 -76 -73.5 -128t-134.5 -52q-76 0 -119 51.5t-29 128.5zM1116 1706q12 74 73.5 125t137.5 51q73 0 115.5 -51t30.5 -125q-13 -76 -74 -128t-135 -52q-76 0 -119 51.5t-29 128.5zM1249 1434h455l-148 -840
q-55 -315 -252.5 -464.5t-549.5 -149.5q-351 0 -497 150t-91 464l147 840h455l-147 -840q-23 -131 22 -188.5t176 -57.5t195.5 57t87.5 189z" />
    <glyph glyph-name="Yacute" unicode="&#xdd;" horiz-adv-x="1724" 
d="M1022 1524l178 360h268l-223 -360h-223zM711 430l-418 1004h504l190 -609l404 609h544l-770 -1004l-75 -430h-455z" />
    <glyph glyph-name="Thorn" unicode="&#xde;" horiz-adv-x="1378" 
d="M987 1208q29 0 59 -2.5t67 -8t70.5 -15.5t70.5 -25t67 -36t59 -49t47.5 -63t32.5 -79t13.5 -97t-9.5 -116q-16 -87 -51 -160t-79.5 -122.5t-101 -88t-111.5 -61t-114 -36.5t-105 -19t-89 -5h-258l-39 -225h-455l252 1434h455l-39 -226h258zM616 569h218q144 0 172 148
q12 71 -19.5 109t-101.5 38h-217z" />
    <glyph glyph-name="germandbls" unicode="&#xdf;" horiz-adv-x="1277" 
d="M207 940q45 253 217.5 383.5t441.5 130.5q250 0 389 -109t105 -305q-18 -100 -78.5 -178t-151.5 -129q241 -92 199 -325q-34 -201 -220.5 -313.5t-510.5 -112.5l61 348q117 0 167.5 32.5t60.5 92.5q10 58 -14 90.5t-76 32.5h-92l49 282h30q115 0 134 119q12 65 -16.5 96
t-88.5 31q-25 0 -45.5 -6t-43 -22t-40 -51t-27.5 -87l-165 -940h-451z" />
    <glyph glyph-name="agrave" unicode="&#xe0;" horiz-adv-x="1169" 
d="M936 1114h-223l-105 361h269zM342 1024h455q126 0 207.5 -28.5t117.5 -80.5t45 -125.5t-10 -164.5l-27 -144q-12 -67 8.5 -91.5t82.5 -24.5h12l-64 -365h-278q-102 0 -141 35t-37 110q-95 -165 -307 -165q-180 0 -261 78t-53 227q14 79 47 137.5t94 102.5t158.5 66.5
t231.5 22.5h122q6 40 -8 53t-69 13h-385zM717 455h-103q-37 0 -62 -21.5t-32 -62.5q-9 -48 9 -68t59 -20q15 0 37 6.5t48.5 30t31.5 59.5z" />
    <glyph glyph-name="aacute" unicode="&#xe1;" horiz-adv-x="1169" 
d="M651 1114l178 361h269l-224 -361h-223zM342 1024h455q126 0 207.5 -28.5t117.5 -80.5t45 -125.5t-10 -164.5l-27 -144q-12 -67 8.5 -91.5t82.5 -24.5h12l-64 -365h-278q-102 0 -141 35t-37 110q-95 -165 -307 -165q-180 0 -261 78t-53 227q14 79 47 137.5t94 102.5
t158.5 66.5t231.5 22.5h122q6 40 -8 53t-69 13h-385zM717 455h-103q-37 0 -62 -21.5t-32 -62.5q-9 -48 9 -68t59 -20q15 0 37 6.5t48.5 30t31.5 59.5z" />
    <glyph glyph-name="acircumflex" unicode="&#xe2;" horiz-adv-x="1169" 
d="M395 1114l332 361h238l204 -361h-258l-77 176l-140 -176h-299zM342 1024h455q126 0 207.5 -28.5t117.5 -80.5t45 -125.5t-10 -164.5l-27 -144q-12 -67 8.5 -91.5t82.5 -24.5h12l-64 -365h-278q-102 0 -141 35t-37 110q-95 -165 -307 -165q-180 0 -261 78t-53 227
q14 79 47 137.5t94 102.5t158.5 66.5t231.5 22.5h122q6 40 -8 53t-69 13h-385zM717 455h-103q-37 0 -62 -21.5t-32 -62.5q-9 -48 9 -68t59 -20q15 0 37 6.5t48.5 30t31.5 59.5z" />
    <glyph glyph-name="atilde" unicode="&#xe3;" horiz-adv-x="1169" 
d="M784 1157q-33 16 -49 23.5t-40 17t-35 11t-28 2t-26.5 -6t-22.5 -17.5t-23.5 -28t-22.5 -41l-185 68q48 90 97.5 145.5t108 82.5t127.5 19t151 -49q47 -24 72.5 -34.5t54.5 -17t47 2t36 29.5t35 59l187 -69q-67 -125 -141.5 -185t-158.5 -60.5t-184 48.5zM342 1024h455
q126 0 207.5 -28.5t117.5 -80.5t45 -125.5t-10 -164.5l-27 -144q-12 -67 8.5 -91.5t82.5 -24.5h12l-64 -365h-278q-102 0 -141 35t-37 110q-95 -165 -307 -165q-180 0 -261 78t-53 227q14 79 47 137.5t94 102.5t158.5 66.5t231.5 22.5h122q6 40 -8 53t-69 13h-385zM717 455
h-103q-37 0 -62 -21.5t-32 -62.5q-9 -48 9 -68t59 -20q15 0 37 6.5t48.5 30t31.5 59.5z" />
    <glyph glyph-name="adieresis" unicode="&#xe4;" horiz-adv-x="1169" 
d="M401 1296q12 74 73.5 125.5t137.5 51.5q73 0 115.5 -51.5t30.5 -125.5q-13 -76 -74 -128t-135 -52q-76 0 -119 51.5t-29 128.5zM872 1296q12 74 73.5 125.5t137.5 51.5q73 0 115.5 -51.5t30.5 -125.5q-13 -76 -74 -128t-135 -52q-76 0 -119 51.5t-29 128.5zM342 1024h455
q126 0 207.5 -28.5t117.5 -80.5t45 -125.5t-10 -164.5l-27 -144q-12 -67 8.5 -91.5t82.5 -24.5h12l-64 -365h-278q-102 0 -141 35t-37 110q-95 -165 -307 -165q-180 0 -261 78t-53 227q14 79 47 137.5t94 102.5t158.5 66.5t231.5 22.5h122q6 40 -8 53t-69 13h-385zM717 455
h-103q-37 0 -62 -21.5t-32 -62.5q-9 -48 9 -68t59 -20q15 0 37 6.5t48.5 30t31.5 59.5z" />
    <glyph glyph-name="aring" unicode="&#xe5;" horiz-adv-x="1169" 
d="M518 1401q22 129 132 222t239 93t205.5 -93t54.5 -222q-23 -129 -133.5 -222.5t-239.5 -93.5t-205 93.5t-53 222.5zM705 1401q-9 -51 22.5 -90t81.5 -39q51 0 98 39t56 90q8 51 -24 90t-83 39q-50 0 -97 -39.5t-54 -89.5zM342 1024h455q126 0 207.5 -28.5t117.5 -80.5
t45 -125.5t-10 -164.5l-27 -144q-12 -67 8.5 -91.5t82.5 -24.5h12l-64 -365h-278q-102 0 -141 35t-37 110q-95 -165 -307 -165q-180 0 -261 78t-53 227q14 79 47 137.5t94 102.5t158.5 66.5t231.5 22.5h122q6 40 -8 53t-69 13h-385zM717 455h-103q-37 0 -62 -21.5t-32 -62.5
q-9 -48 9 -68t59 -20q15 0 37 6.5t48.5 30t31.5 59.5z" />
    <glyph glyph-name="ae" unicode="&#xe6;" horiz-adv-x="1785" 
d="M322 1024h454q173 0 262 -53q146 73 324 73q297 0 417 -139t76 -391l-14 -82h-708q-1 -79 29.5 -104t88.5 -25q137 0 150 74h430q-31 -87 -83 -156t-129.5 -124.5t-190.5 -86t-254 -30.5t-247.5 46t-164.5 134q-142 -180 -377 -180q-180 0 -260.5 78t-52.5 227
q14 79 47 137.5t93.5 102.5t158 66.5t231.5 22.5h123q6 40 -8.5 53t-69.5 13h-385zM1434 592q0 129 -109 129q-118 0 -164 -129h273zM696 455h-102q-37 0 -62 -21.5t-32 -62.5q-9 -49 8.5 -68.5t58.5 -19.5q15 0 37 6.5t48.5 30t31.5 59.5z" />
    <glyph glyph-name="ccedilla" unicode="&#xe7;" 
d="M607 636q-48 -44 -62 -124t18 -124t105 -44q58 0 101 32t50 83h430q-10 -56 -31 -109.5t-55 -107t-84 -99t-112 -81.5t-145.5 -57.5t-178.5 -24.5l-35 -70q98 -11 142 -53t30 -127q-12 -66 -51 -114.5t-92 -73.5t-117.5 -36.5t-125 -8.5t-115.5 16l32 184
q104 -31 169 -20t73 61q7 38 -16 47.5t-107 9.5h-20l75 193q-219 31 -315.5 166.5t-58.5 357.5q44 251 225 391.5t463 140.5q87 0 159 -15t123 -41.5t90.5 -62.5t60.5 -78.5t34.5 -90t11.5 -95.5t-8 -96h-430q7 51 -24.5 83t-88.5 32q-73 0 -120 -44z" />
    <glyph glyph-name="egrave" unicode="&#xe8;" 
d="M905 1114h-223l-104 361h268zM537 432q-1 -79 29.5 -104t88.5 -25q137 0 150 74h430q-31 -87 -83 -156t-129.5 -124.5t-190.5 -86t-254 -30.5q-253 0 -382 142.5t-85 389.5t223 389.5t432 142.5q297 0 417.5 -139t76.5 -389l-15 -84h-708zM838 592q0 129 -109 129
q-118 0 -164 -129h273z" />
    <glyph glyph-name="eacute" unicode="&#xe9;" 
d="M682 1114l178 361h268l-223 -361h-223zM537 432q-1 -79 29.5 -104t88.5 -25q137 0 150 74h430q-31 -87 -83 -156t-129.5 -124.5t-190.5 -86t-254 -30.5q-253 0 -382 142.5t-85 389.5t223 389.5t432 142.5q297 0 417.5 -139t76.5 -389l-15 -84h-708zM838 592
q0 129 -109 129q-118 0 -164 -129h273z" />
    <glyph glyph-name="ecircumflex" unicode="&#xea;" 
d="M406 1114l331 361h238l205 -361h-258l-78 176l-139 -176h-299zM537 432q-1 -79 29.5 -104t88.5 -25q137 0 150 74h430q-31 -87 -83 -156t-129.5 -124.5t-190.5 -86t-254 -30.5q-253 0 -382 142.5t-85 389.5t223 389.5t432 142.5q297 0 417.5 -139t76.5 -389l-15 -84h-708
zM838 592q0 129 -109 129q-118 0 -164 -129h273z" />
    <glyph glyph-name="edieresis" unicode="&#xeb;" 
d="M412 1296q12 74 73.5 125.5t137.5 51.5q73 0 115 -51.5t30 -125.5q-13 -76 -74 -128t-135 -52q-76 0 -118.5 51.5t-28.5 128.5zM883 1296q12 74 73.5 125.5t137.5 51.5q73 0 115 -51.5t30 -125.5q-13 -76 -74 -128t-135 -52q-76 0 -118.5 51.5t-28.5 128.5zM537 432
q-1 -79 29.5 -104t88.5 -25q137 0 150 74h430q-31 -87 -83 -156t-129.5 -124.5t-190.5 -86t-254 -30.5q-253 0 -382 142.5t-85 389.5t223 389.5t432 142.5q297 0 417.5 -139t76.5 -389l-15 -84h-708zM838 592q0 129 -109 129q-118 0 -164 -129h273z" />
    <glyph glyph-name="igrave" unicode="&#xec;" horiz-adv-x="532" 
d="M575 1114h-223l-104 361h268zM221 1024h451l-180 -1024h-451z" />
    <glyph glyph-name="iacute" unicode="&#xed;" horiz-adv-x="532" 
d="M354 1114l178 361h269l-223 -361h-224zM221 1024h451l-180 -1024h-451z" />
    <glyph glyph-name="icircumflex" unicode="&#xee;" horiz-adv-x="532" 
d="M76 1114l332 361h237l205 -361h-258l-78 176l-139 -176h-299zM221 1024h451l-180 -1024h-451z" />
    <glyph glyph-name="idieresis" unicode="&#xef;" horiz-adv-x="532" 
d="M82 1296q12 74 73.5 125.5t137.5 51.5q73 0 115 -51.5t30 -125.5q-13 -76 -74 -128t-135 -52q-76 0 -118.5 51.5t-28.5 128.5zM553 1296q12 74 73.5 125.5t137.5 51.5q73 0 115 -51.5t30 -125.5q-13 -76 -74 -128t-135 -52q-76 0 -118.5 51.5t-28.5 128.5zM221 1024h451
l-180 -1024h-451z" />
    <glyph glyph-name="eth" unicode="&#xf0;" horiz-adv-x="1312" 
d="M950 1434l99 -185h364l-37 -200h-221l158 -297q2 -4 7 -12.5t7 -12.5v-2q52 -111 29 -246q-26 -148 -125 -262t-249.5 -175.5t-328.5 -61.5q-170 0 -299 61t-192 176t-37 262q21 121 96.5 222t186.5 166.5t245 93.5l-49 88h-338l37 200h189l-103 185h561zM715 324
q68 0 121 42.5t65 112.5q13 70 -25 113t-106 43q-69 0 -123 -43t-67 -113q-12 -70 27 -112.5t108 -42.5z" />
    <glyph glyph-name="ntilde" unicode="&#xf1;" horiz-adv-x="1230" 
d="M815 1157q-37 18 -55 26t-44 18t-38.5 9.5t-30 -3t-29 -14.5t-24.5 -29.5t-27 -45.5l-184 68q48 90 97.5 145.5t108 82.5t127 19t150.5 -49q39 -20 61.5 -30t49 -18t42.5 -6t33.5 11.5t31.5 29.5t28 52l186 -69q-67 -125 -141 -185t-158 -60.5t-184 48.5zM221 1024h451
l-27 -156q69 85 165.5 130.5t209.5 45.5q175 0 246.5 -106.5t38.5 -292.5l-115 -645h-451l92 522q14 80 -5.5 119t-88.5 39q-126 0 -153 -158l-92 -522h-451z" />
    <glyph glyph-name="ograve" unicode="&#xf2;" horiz-adv-x="1253" 
d="M938 1114h-223l-105 361h269zM688 344q79 0 124 51.5t56 116.5q7 26 3 55.5t-14.5 54.5t-38.5 41.5t-70 16.5q-79 0 -125.5 -52t-57.5 -116q-7 -40 -0.5 -75.5t37.5 -64t86 -28.5zM491 982q147 62 320 62t298.5 -62.5t184 -184.5t29.5 -285t-130.5 -285t-249 -184.5
t-320.5 -62.5t-298.5 62.5t-184 184.5t-29.5 285t130.5 285t249.5 185z" />
    <glyph glyph-name="oacute" unicode="&#xf3;" horiz-adv-x="1253" 
d="M715 1114l178 361h268l-223 -361h-223zM688 344q79 0 124 51.5t56 116.5q7 26 3 55.5t-14.5 54.5t-38.5 41.5t-70 16.5q-79 0 -125.5 -52t-57.5 -116q-7 -40 -0.5 -75.5t37.5 -64t86 -28.5zM491 982q147 62 320 62t298.5 -62.5t184 -184.5t29.5 -285t-130.5 -285
t-249 -184.5t-320.5 -62.5t-298.5 62.5t-184 184.5t-29.5 285t130.5 285t249.5 185z" />
    <glyph glyph-name="ocircumflex" unicode="&#xf4;" horiz-adv-x="1253" 
d="M436 1114l332 361h238l204 -361h-258l-78 176l-139 -176h-299zM688 344q79 0 124 51.5t56 116.5q7 26 3 55.5t-14.5 54.5t-38.5 41.5t-70 16.5q-79 0 -125.5 -52t-57.5 -116q-7 -40 -0.5 -75.5t37.5 -64t86 -28.5zM491 982q147 62 320 62t298.5 -62.5t184 -184.5
t29.5 -285t-130.5 -285t-249 -184.5t-320.5 -62.5t-298.5 62.5t-184 184.5t-29.5 285t130.5 285t249.5 185z" />
    <glyph glyph-name="otilde" unicode="&#xf5;" horiz-adv-x="1253" 
d="M825 1157q-33 16 -49 23.5t-40 17t-35 11t-28 2t-26.5 -6t-22.5 -17.5t-23.5 -28t-22.5 -41l-185 68q48 90 97.5 145.5t108 82.5t127.5 19t151 -49q47 -24 72.5 -34.5t54.5 -17t47 2t36 29.5t35 59l187 -69q-67 -125 -141.5 -185t-158.5 -60.5t-184 48.5zM688 344
q79 0 124 51.5t56 116.5q7 26 3 55.5t-14.5 54.5t-38.5 41.5t-70 16.5q-79 0 -125.5 -52t-57.5 -116q-7 -40 -0.5 -75.5t37.5 -64t86 -28.5zM491 982q147 62 320 62t298.5 -62.5t184 -184.5t29.5 -285t-130.5 -285t-249 -184.5t-320.5 -62.5t-298.5 62.5t-184 184.5
t-29.5 285t130.5 285t249.5 185z" />
    <glyph glyph-name="odieresis" unicode="&#xf6;" horiz-adv-x="1253" 
d="M444 1296q12 74 73.5 125.5t137.5 51.5q73 0 115.5 -51.5t30.5 -125.5q-13 -76 -74 -128t-135 -52q-76 0 -119 51.5t-29 128.5zM915 1296q12 74 73.5 125.5t137.5 51.5q73 0 115.5 -51.5t30.5 -125.5q-13 -76 -74 -128t-135 -52q-76 0 -119 51.5t-29 128.5zM688 344
q79 0 124 51.5t56 116.5q7 26 3 55.5t-14.5 54.5t-38.5 41.5t-70 16.5q-79 0 -125.5 -52t-57.5 -116q-7 -40 -0.5 -75.5t37.5 -64t86 -28.5zM491 982q147 62 320 62t298.5 -62.5t184 -184.5t29.5 -285t-130.5 -285t-249 -184.5t-320.5 -62.5t-298.5 62.5t-184 184.5
t-29.5 285t130.5 285t249.5 185z" />
    <glyph glyph-name="divide" unicode="&#xf7;" horiz-adv-x="737" 
d="M305 1053q17 99 99.5 168t187.5 69q98 0 155.5 -69.5t40.5 -167.5q-20 -105 -101.5 -175.5t-180.5 -70.5q-106 0 -163.5 70t-37.5 176zM199 778h614l-51 -286h-615zM158 225q19 100 101.5 169t186.5 69q98 0 156 -70t39 -168q-19 -105 -100.5 -175t-180.5 -70
q-106 0 -163.5 69.5t-38.5 175.5z" />
    <glyph glyph-name="oslash" unicode="&#xf8;" horiz-adv-x="1294" 
d="M205 -205l125 256q-120 66 -174 184t-25 277q29 161 128.5 282t243.5 184t314 66l92 185h363l-125 -256q120 -66 172.5 -184.5t23.5 -276.5q-29 -161 -128.5 -282t-243.5 -184t-314 -66l-90 -185h-362zM709 344q79 0 124 51.5t56 116.5q7 40 1 75.5t-36.5 64t-85.5 28.5
q-79 0 -125 -52t-57 -116q-7 -40 -0.5 -75.5t37.5 -64t86 -28.5z" />
    <glyph glyph-name="ugrave" unicode="&#xf9;" horiz-adv-x="1312" 
d="M913 1114h-223l-104 361h268zM1376 365l-63 -365h-279q-233 0 -248 180q-152 -200 -395 -200q-174 0 -244.5 106t-37.5 293l112 645h451l-92 -522q-13 -80 7.5 -119t88.5 -39q124 0 151 158l93 522h450l-96 -543q-12 -67 8 -91.5t82 -24.5h12z" />
    <glyph glyph-name="uacute" unicode="&#xfa;" horiz-adv-x="1312" 
d="M696 1114l178 361h269l-223 -361h-224zM1376 365l-63 -365h-279q-233 0 -248 180q-152 -200 -395 -200q-174 0 -244.5 106t-37.5 293l112 645h451l-92 -522q-13 -80 7.5 -119t88.5 -39q124 0 151 158l93 522h450l-96 -543q-12 -67 8 -91.5t82 -24.5h12z" />
    <glyph glyph-name="ucircumflex" unicode="&#xfb;" horiz-adv-x="1312" 
d="M424 1114l332 361h237l205 -361h-258l-78 176l-139 -176h-299zM1376 365l-63 -365h-279q-233 0 -248 180q-152 -200 -395 -200q-174 0 -244.5 106t-37.5 293l112 645h451l-92 -522q-13 -80 7.5 -119t88.5 -39q124 0 151 158l93 522h450l-96 -543q-12 -67 8 -91.5
t82 -24.5h12z" />
    <glyph glyph-name="udieresis" unicode="&#xfc;" horiz-adv-x="1312" 
d="M428 1296q12 74 73.5 125.5t137.5 51.5q73 0 115 -51.5t30 -125.5q-13 -76 -74 -128t-135 -52q-76 0 -118.5 51.5t-28.5 128.5zM899 1296q12 74 73.5 125.5t137.5 51.5q73 0 115 -51.5t30 -125.5q-13 -76 -73.5 -128t-134.5 -52q-76 0 -119 51.5t-29 128.5zM1376 365
l-63 -365h-279q-233 0 -248 180q-152 -200 -395 -200q-174 0 -244.5 106t-37.5 293l112 645h451l-92 -522q-13 -80 7.5 -119t88.5 -39q124 0 151 158l93 522h450l-96 -543q-12 -67 8 -91.5t82 -24.5h12z" />
    <glyph glyph-name="yacute" unicode="&#xfd;" horiz-adv-x="1292" 
d="M733 1114l178 361h269l-224 -361h-223zM1452 1024l-602 -1044q-50 -88 -87.5 -142.5t-87 -102t-99 -72.5t-125.5 -43.5t-164 -24t-217 -5.5l63 369q191 0 216 4q40 5 58 32q1 2 3 5l14 25l-223 999h452l80 -557l266 557h453z" />
    <glyph glyph-name="thorn" unicode="&#xfe;" horiz-adv-x="1292" 
d="M1303 897q101 -148 59 -385t-195 -384.5t-366 -147.5q-207 0 -287 147l-94 -537h-451l324 1844h450l-94 -537q129 147 340 147q213 0 314 -147zM588 551v-6l-15 -84q-8 -45 34.5 -81t107.5 -36q69 0 124 44.5t68 123.5q14 79 -25 123.5t-108 44.5q-61 0 -114.5 -33
t-67.5 -76z" />
    <glyph glyph-name="ydieresis" unicode="&#xff;" horiz-adv-x="1292" 
d="M463 1296q12 74 73.5 125.5t137.5 51.5q73 0 115 -51.5t30 -125.5q-13 -76 -74 -128t-135 -52q-76 0 -118.5 51.5t-28.5 128.5zM934 1296q12 74 73.5 125.5t137.5 51.5q73 0 115 -51.5t30 -125.5q-13 -76 -74 -128t-135 -52q-76 0 -118.5 51.5t-28.5 128.5zM1452 1024
l-602 -1044q-50 -88 -87.5 -142.5t-87 -102t-99 -72.5t-125.5 -43.5t-164 -24t-217 -5.5l63 369q191 0 216 4q40 5 58 32q1 2 3 5l14 25l-223 999h452l80 -557l266 557h453z" />
    <glyph glyph-name="Amacron" unicode="&#x100;" horiz-adv-x="1724" 
d="M868 1782h615l-35 -205h-614zM887 1434h454l363 -1434h-442l-43 221h-590l-121 -221h-488zM819 569h332l-88 445z" />
    <glyph glyph-name="amacron" unicode="&#x101;" horiz-adv-x="1169" 
d="M520 1372h615l-37 -205h-615zM342 1024h455q126 0 207.5 -28.5t117.5 -80.5t45 -125.5t-10 -164.5l-27 -144q-12 -67 8.5 -91.5t82.5 -24.5h12l-64 -365h-278q-102 0 -141 35t-37 110q-95 -165 -307 -165q-180 0 -261 78t-53 227q14 79 47 137.5t94 102.5t158.5 66.5
t231.5 22.5h122q6 40 -8 53t-69 13h-385zM717 455h-103q-37 0 -62 -21.5t-32 -62.5q-9 -48 9 -68t59 -20q15 0 37 6.5t48.5 30t31.5 59.5z" />
    <glyph glyph-name="Abreve" unicode="&#x102;" horiz-adv-x="1724" 
d="M834 1905h202q-7 -32 -2.5 -63.5t17.5 -56t42.5 -39.5t73.5 -15q84 0 132.5 50.5t60.5 123.5h203q-18 -102 -64 -179t-107.5 -119.5t-127 -62.5t-134.5 -20q-55 0 -102.5 12.5t-91.5 40t-70 71.5t-37.5 108t5.5 149zM887 1434h454l363 -1434h-442l-43 221h-590l-121 -221
h-488zM819 569h332l-88 445z" />
    <glyph glyph-name="abreve" unicode="&#x103;" horiz-adv-x="1169" 
d="M485 1495h203q-14 -73 16.5 -123.5t114.5 -50.5t131.5 50t61.5 124h202q-15 -83 -48 -149t-76 -108.5t-96 -71t-105 -40.5t-107 -12t-103 12.5t-91.5 40t-70 71.5t-38 108t5.5 149zM342 1024h455q126 0 207.5 -28.5t117.5 -80.5t45 -125.5t-10 -164.5l-27 -144
q-12 -67 8.5 -91.5t82.5 -24.5h12l-64 -365h-278q-102 0 -141 35t-37 110q-95 -165 -307 -165q-180 0 -261 78t-53 227q14 79 47 137.5t94 102.5t158.5 66.5t231.5 22.5h122q6 40 -8 53t-69 13h-385zM717 455h-103q-37 0 -62 -21.5t-32 -62.5q-9 -48 9 -68t59 -20
q15 0 37 6.5t48.5 30t31.5 59.5z" />
    <glyph glyph-name="Aogonek" unicode="&#x104;" horiz-adv-x="1724" 
d="M887 1434h454l363 -1434h-268q-82 -73 -125.5 -124.5t-53.5 -102.5q-6 -38 12 -57.5t59.5 -20t87.5 7.5t112 25l-37 -205q-54 -13 -116 -18t-127 2t-115 27t-77 64t-16 107q21 130 217 309l-38 207h-590l-121 -221h-488zM819 569h332l-88 445z" />
    <glyph glyph-name="aogonek" unicode="&#x105;" horiz-adv-x="1169" 
d="M342 1024h455q126 0 207.5 -28.5t117.5 -80.5t45 -125.5t-10 -164.5l-27 -144q-12 -67 8.5 -91.5t82.5 -24.5h12l-64 -365h-143q-78 -70 -121 -121.5t-51 -101.5q-6 -38 11.5 -57.5t58.5 -20t86.5 7.5t111.5 25l-37 -205q-54 -13 -115.5 -18t-126.5 2t-115 27t-77 64
t-16 107q22 128 201 295q-71 9 -98 42.5t-25 98.5q-95 -165 -307 -165q-180 0 -261 78t-53 227q14 79 47 137.5t94 102.5t158.5 66.5t231.5 22.5h122q6 40 -8 53t-69 13h-385zM717 455h-103q-37 0 -62 -21.5t-32 -62.5q-9 -48 9 -68t59 -20q15 0 37 6.5t48.5 30t31.5 59.5z
" />
    <glyph glyph-name="Cacute" unicode="&#x106;" horiz-adv-x="1591" 
d="M934 1524l178 360h268l-223 -360h-223zM627 717q-18 -88 -7 -152t34.5 -106t64 -66.5t81.5 -34.5t87 -10q111 0 203 73t112 179h455q-15 -86 -58.5 -172.5t-118 -167t-169.5 -143t-222.5 -100t-267.5 -37.5q-165 0 -299 51.5t-223 145t-125 233t-6 307.5
q29 168 114.5 307.5t207.5 233t274 145t317 51.5q89 0 168 -15t140 -42t113 -65t87.5 -83t62.5 -95.5t38.5 -104t15 -108t-7.5 -107.5h-455q19 106 -48 178.5t-179 72.5q-46 0 -90.5 -9.5t-93 -35t-88 -65.5t-71 -106t-46.5 -152z" />
    <glyph glyph-name="cacute" unicode="&#x107;" 
d="M702 1114l179 361h268l-223 -361h-224zM607 636q-48 -44 -62 -124t18 -124t105 -44q58 0 101 32t50 83h430q-12 -70 -41 -135t-81.5 -128.5t-122.5 -110.5t-172 -76t-222 -29q-282 0 -412.5 140.5t-86.5 391.5t225 391.5t463 140.5q87 0 159 -15t123 -41.5t90.5 -62.5
t60.5 -78.5t34.5 -90t11.5 -95.5t-8 -96h-430q7 51 -24.5 83t-88.5 32q-73 0 -120 -44z" />
    <glyph glyph-name="Ccircumflex" unicode="&#x108;" horiz-adv-x="1591" 
d="M678 1524l332 360h237l205 -360h-258l-78 176l-139 -176h-299zM627 717q-18 -88 -7 -152t34.5 -106t64 -66.5t81.5 -34.5t87 -10q111 0 203 73t112 179h455q-15 -86 -58.5 -172.5t-118 -167t-169.5 -143t-222.5 -100t-267.5 -37.5q-165 0 -299 51.5t-223 145t-125 233
t-6 307.5q29 168 114.5 307.5t207.5 233t274 145t317 51.5q89 0 168 -15t140 -42t113 -65t87.5 -83t62.5 -95.5t38.5 -104t15 -108t-7.5 -107.5h-455q19 106 -48 178.5t-179 72.5q-46 0 -90.5 -9.5t-93 -35t-88 -65.5t-71 -106t-46.5 -152z" />
    <glyph glyph-name="ccircumflex" unicode="&#x109;" 
d="M406 1114l331 361h238l205 -361h-258l-78 176l-139 -176h-299zM607 636q-48 -44 -62 -124t18 -124t105 -44q58 0 101 32t50 83h430q-12 -70 -41 -135t-81.5 -128.5t-122.5 -110.5t-172 -76t-222 -29q-282 0 -412.5 140.5t-86.5 391.5t225 391.5t463 140.5q87 0 159 -15
t123 -41.5t90.5 -62.5t60.5 -78.5t34.5 -90t11.5 -95.5t-8 -96h-430q7 51 -24.5 83t-88.5 32q-73 0 -120 -44z" />
    <glyph glyph-name="Cdotaccent" unicode="&#x10a;" horiz-adv-x="1591" 
d="M920 1704q12 74 73 125t137 51q73 0 115.5 -51t30.5 -125q-13 -76 -74 -128t-135 -52q-76 0 -118.5 51.5t-28.5 128.5zM627 717q-18 -88 -7 -152t34.5 -106t64 -66.5t81.5 -34.5t87 -10q111 0 203 73t112 179h455q-15 -86 -58.5 -172.5t-118 -167t-169.5 -143
t-222.5 -100t-267.5 -37.5q-165 0 -299 51.5t-223 145t-125 233t-6 307.5q29 168 114.5 307.5t207.5 233t274 145t317 51.5q89 0 168 -15t140 -42t113 -65t87.5 -83t62.5 -95.5t38.5 -104t15 -108t-7.5 -107.5h-455q19 106 -48 178.5t-179 72.5q-46 0 -90.5 -9.5t-93 -35
t-88 -65.5t-71 -106t-46.5 -152z" />
    <glyph glyph-name="cdotaccent" unicode="&#x10b;" 
d="M645 1294q14 74 75.5 125t137.5 51q73 0 115 -51t28 -125q-12 -76 -72 -128t-134 -52q-76 0 -119 51.5t-31 128.5zM607 636q-48 -44 -62 -124t18 -124t105 -44q58 0 101 32t50 83h430q-12 -70 -41 -135t-81.5 -128.5t-122.5 -110.5t-172 -76t-222 -29
q-282 0 -412.5 140.5t-86.5 391.5t225 391.5t463 140.5q87 0 159 -15t123 -41.5t90.5 -62.5t60.5 -78.5t34.5 -90t11.5 -95.5t-8 -96h-430q7 51 -24.5 83t-88.5 32q-73 0 -120 -44z" />
    <glyph glyph-name="Ccaron" unicode="&#x10c;" horiz-adv-x="1591" 
d="M741 1884h273l82 -176l135 176h285l-332 -360h-238zM627 717q-18 -88 -7 -152t34.5 -106t64 -66.5t81.5 -34.5t87 -10q111 0 203 73t112 179h455q-15 -86 -58.5 -172.5t-118 -167t-169.5 -143t-222.5 -100t-267.5 -37.5q-165 0 -299 51.5t-223 145t-125 233t-6 307.5
q29 168 114.5 307.5t207.5 233t274 145t317 51.5q89 0 168 -15t140 -42t113 -65t87.5 -83t62.5 -95.5t38.5 -104t15 -108t-7.5 -107.5h-455q19 106 -48 178.5t-179 72.5q-46 0 -90.5 -9.5t-93 -35t-88 -65.5t-71 -106t-46.5 -152z" />
    <glyph glyph-name="ccaron" unicode="&#x10d;" 
d="M469 1475h272l82 -177l135 177h285l-332 -361h-237zM607 636q-48 -44 -62 -124t18 -124t105 -44q58 0 101 32t50 83h430q-12 -70 -41 -135t-81.5 -128.5t-122.5 -110.5t-172 -76t-222 -29q-282 0 -412.5 140.5t-86.5 391.5t225 391.5t463 140.5q87 0 159 -15t123 -41.5
t90.5 -62.5t60.5 -78.5t34.5 -90t11.5 -95.5t-8 -96h-430q7 51 -24.5 83t-88.5 32q-73 0 -120 -44z" />
    <glyph glyph-name="Dcaron" unicode="&#x10e;" horiz-adv-x="1562" 
d="M727 1884h272l82 -176l136 176h284l-332 -360h-237zM965 1434q176 0 315.5 -47.5t232.5 -137t129.5 -226t6.5 -306.5q-40 -226 -174.5 -390t-330 -245.5t-431.5 -81.5h-652l252 1434h652zM580 365h196q179 0 280.5 86t133.5 266q31 180 -39.5 266t-249.5 86h-196z" />
    <glyph glyph-name="dcaron" unicode="&#x10f;" horiz-adv-x="1898" 
d="M1569 1217q17 99 99 168t187 69q98 0 156 -69.5t41 -167.5q-15 -76 -61 -134l-295 -415h-221l208 319q-66 27 -97.5 88.5t-16.5 141.5zM170 128q-101 147 -59 384t195 384.5t366 147.5q206 0 286 -147l95 537h450l-252 -1434h-450l22 127q-131 -147 -340 -147
q-213 0 -313 148zM700 344q65 0 120 36t63 81l16 102q9 45 -32.5 81t-106.5 36q-69 0 -125 -44.5t-70 -123.5q-13 -80 27 -124t108 -44z" />
    <glyph glyph-name="Dcroat" unicode="&#x110;" horiz-adv-x="1562" 
d="M90 860h123l100 574h652q176 0 315.5 -47.5t232.5 -137t129.5 -226t6.5 -306.5q-40 -226 -174.5 -390t-330 -245.5t-431.5 -81.5h-652l101 573h-123zM580 365h196q179 0 280.5 86t133.5 266q31 180 -39.5 266t-249.5 86h-196l-37 -209h221l-51 -287h-222z" />
    <glyph glyph-name="dcroat" unicode="&#x111;" horiz-adv-x="1292" 
d="M770 1331h264l19 103h450l-18 -103h166l-37 -205h-164l-199 -1126h-450l24 143q-123 -163 -342 -163q-213 0 -313.5 147.5t-58.5 384.5t195 384.5t366 147.5q218 0 284 -163l43 245h-266zM881 449l4 26v4l14 84q9 45 -32.5 81t-106.5 36q-69 0 -125 -44.5t-70 -123.5
q-13 -80 27 -124t108 -44q61 0 114 31.5t67 73.5z" />
    <glyph glyph-name="Emacron" unicode="&#x112;" horiz-adv-x="1214" 
d="M635 1782h614l-35 -205h-614zM313 1434h1112l-63 -369h-657l-31 -174h596l-62 -348h-596l-30 -174h657l-65 -369h-1113z" />
    <glyph glyph-name="emacron" unicode="&#x113;" 
d="M530 1372h615l-37 -205h-614zM537 432q-1 -79 29.5 -104t88.5 -25q137 0 150 74h430q-31 -87 -83 -156t-129.5 -124.5t-190.5 -86t-254 -30.5q-253 0 -382 142.5t-85 389.5t223 389.5t432 142.5q297 0 417.5 -139t76.5 -389l-15 -84h-708zM838 592q0 129 -109 129
q-118 0 -164 -129h273z" />
    <glyph glyph-name="Ebreve" unicode="&#x114;" horiz-adv-x="1214" 
d="M600 1905h203q-7 -32 -2.5 -63.5t17.5 -56t42.5 -39.5t73.5 -15q84 0 132 50.5t60 123.5h203q-15 -83 -48 -149t-76 -108.5t-96 -71t-105 -40.5t-107 -12t-103 12.5t-91.5 40t-70 71.5t-38 108t5.5 149zM313 1434h1112l-63 -369h-657l-31 -174h596l-62 -348h-596
l-30 -174h657l-65 -369h-1113z" />
    <glyph glyph-name="ebreve" unicode="&#x115;" 
d="M516 1495h203q-14 -73 16.5 -123.5t114.5 -50.5t131 50t61 124h203q-15 -83 -48 -149t-76 -108.5t-96 -71t-105 -40.5t-107 -12t-103 12.5t-91.5 40t-70 71.5t-38 108t5.5 149zM537 432q-1 -79 29.5 -104t88.5 -25q137 0 150 74h430q-31 -87 -83 -156t-129.5 -124.5
t-190.5 -86t-254 -30.5q-253 0 -382 142.5t-85 389.5t223 389.5t432 142.5q297 0 417.5 -139t76.5 -389l-15 -84h-708zM838 592q0 129 -109 129q-118 0 -164 -129h273z" />
    <glyph glyph-name="Edotaccent" unicode="&#x116;" horiz-adv-x="1214" 
d="M752 1704q12 74 73.5 125t137.5 51q73 0 115 -51t30 -125q-13 -76 -74 -128t-135 -52q-76 0 -118.5 51.5t-28.5 128.5zM313 1434h1112l-63 -369h-657l-31 -174h596l-62 -348h-596l-30 -174h657l-65 -369h-1113z" />
    <glyph glyph-name="edotaccent" unicode="&#x117;" 
d="M645 1294q14 74 75.5 125t137.5 51q73 0 115 -51t28 -125q-12 -76 -72 -128t-134 -52q-76 0 -119 51.5t-31 128.5zM537 432q-1 -79 29.5 -104t88.5 -25q137 0 150 74h430q-31 -87 -83 -156t-129.5 -124.5t-190.5 -86t-254 -30.5q-253 0 -382 142.5t-85 389.5t223 389.5
t432 142.5q297 0 417.5 -139t76.5 -389l-15 -84h-708zM838 592q0 129 -109 129q-118 0 -164 -129h273z" />
    <glyph glyph-name="Eogonek" unicode="&#x118;" horiz-adv-x="1214" 
d="M313 1434h1112l-63 -369h-657l-31 -174h596l-62 -348h-596l-30 -174h657l-65 -369h-138q-82 -73 -126 -125.5t-54 -103.5q-6 -38 11.5 -57.5t59 -20t87 7.5t110.5 25l-34 -205q-54 -13 -116 -18t-127.5 2t-115.5 27t-77.5 64t-16.5 107q23 121 207 297h-783z" />
    <glyph glyph-name="eogonek" unicode="&#x119;" 
d="M715 -494q-54 -13 -116.5 -18t-127.5 2t-115.5 27.5t-77.5 64.5t-16 107q21 121 207 299q-202 30 -299 168t-59 356q44 247 223 389.5t432 142.5q297 0 417.5 -139t76.5 -389l-15 -84h-708q-1 -79 29.5 -104t88.5 -25q137 0 150 74h430q-60 -167 -202 -273t-378 -122
q-79 -72 -122.5 -124.5t-51.5 -101.5q-6 -38 12 -57.5t59.5 -20t87 7.5t110.5 25zM838 592q0 129 -109 129q-118 0 -164 -129h273z" />
    <glyph glyph-name="Ecaron" unicode="&#x11a;" horiz-adv-x="1214" 
d="M594 1884h272l82 -176l135 176h285l-332 -360h-237zM313 1434h1112l-63 -369h-657l-31 -174h596l-62 -348h-596l-30 -174h657l-65 -369h-1113z" />
    <glyph glyph-name="ecaron" unicode="&#x11b;" 
d="M469 1475h272l82 -177l135 177h285l-332 -361h-237zM537 432q-1 -79 29.5 -104t88.5 -25q137 0 150 74h430q-31 -87 -83 -156t-129.5 -124.5t-190.5 -86t-254 -30.5q-253 0 -382 142.5t-85 389.5t223 389.5t432 142.5q297 0 417.5 -139t76.5 -389l-15 -84h-708zM838 592
q0 129 -109 129q-118 0 -164 -129h273z" />
    <glyph glyph-name="Gcircumflex" unicode="&#x11c;" horiz-adv-x="1611" 
d="M688 1524l332 360h237l205 -360h-258l-78 176l-139 -176h-299zM627 717q-34 -191 49 -290t270 -99q237 0 328 180h-371l53 307h758l-143 -815h-373l16 98q-166 -118 -393 -118q-120 0 -229 33t-196.5 95t-148 152t-81.5 204.5t2 252.5q29 166 120 307t218.5 233.5
t279.5 144.5t306 52q101 0 192.5 -22.5t162 -61t126.5 -90.5t90 -110.5t47.5 -121t3.5 -122.5h-454q13 74 -57 116.5t-185 42.5q-326 0 -391 -368z" />
    <glyph glyph-name="gcircumflex" unicode="&#x11d;" horiz-adv-x="1292" 
d="M457 1114l331 361h238l205 -361h-258l-78 176l-139 -176h-299zM172 -106h479q72 0 107 31t49 106l16 96q-131 -147 -340 -147q-213 0 -313.5 147.5t-58.5 384.5t195 384.5t366 147.5q206 0 286 -147l23 127h451l-164 -932q-46 -261 -194.5 -381.5t-434.5 -120.5h-520z
M700 344q65 0 120 36t63 81l16 102q9 45 -32.5 81t-106.5 36q-69 0 -125 -44.5t-70 -123.5q-13 -80 27 -124t108 -44z" />
    <glyph glyph-name="Gbreve" unicode="&#x11e;" horiz-adv-x="1611" 
d="M778 1905h203q-7 -32 -2.5 -63.5t17.5 -56t42.5 -39.5t73.5 -15q84 0 132.5 50.5t60.5 123.5h202q-15 -83 -48 -149t-76 -108.5t-96 -71t-105 -40.5t-107 -12t-103 12.5t-91.5 40t-70 71.5t-38 108t5.5 149zM627 717q-34 -191 49 -290t270 -99q237 0 328 180h-371l53 307
h758l-143 -815h-373l16 98q-166 -118 -393 -118q-120 0 -229 33t-196.5 95t-148 152t-81.5 204.5t2 252.5q29 166 120 307t218.5 233.5t279.5 144.5t306 52q101 0 192.5 -22.5t162 -61t126.5 -90.5t90 -110.5t47.5 -121t3.5 -122.5h-454q13 74 -57 116.5t-185 42.5
q-326 0 -391 -368z" />
    <glyph glyph-name="gbreve" unicode="&#x11f;" horiz-adv-x="1292" 
d="M547 1495h203q-14 -73 16.5 -123.5t114.5 -50.5t131 50t61 124h203q-15 -83 -48 -149t-76 -108.5t-96 -71t-105 -40.5t-107 -12t-103 12.5t-91.5 40t-70 71.5t-38 108t5.5 149zM172 -106h479q72 0 107 31t49 106l16 96q-131 -147 -340 -147q-213 0 -313.5 147.5
t-58.5 384.5t195 384.5t366 147.5q206 0 286 -147l23 127h451l-164 -932q-46 -261 -194.5 -381.5t-434.5 -120.5h-520zM700 344q65 0 120 36t63 81l16 102q9 45 -32.5 81t-106.5 36q-69 0 -125 -44.5t-70 -123.5q-13 -80 27 -124t108 -44z" />
    <glyph glyph-name="Gdotaccent" unicode="&#x120;" horiz-adv-x="1611" 
d="M930 1704q12 74 73.5 125t137.5 51q73 0 115 -51t30 -125q-13 -76 -74 -128t-135 -52q-76 0 -118.5 51.5t-28.5 128.5zM627 717q-34 -191 49 -290t270 -99q237 0 328 180h-371l53 307h758l-143 -815h-373l16 98q-166 -118 -393 -118q-120 0 -229 33t-196.5 95t-148 152
t-81.5 204.5t2 252.5q29 166 120 307t218.5 233.5t279.5 144.5t306 52q101 0 192.5 -22.5t162 -61t126.5 -90.5t90 -110.5t47.5 -121t3.5 -122.5h-454q13 74 -57 116.5t-185 42.5q-326 0 -391 -368z" />
    <glyph glyph-name="gdotaccent" unicode="&#x121;" horiz-adv-x="1292" 
d="M696 1294q14 74 75.5 125t137.5 51q74 0 115.5 -51.5t28.5 -124.5q-12 -76 -72.5 -128t-134.5 -52q-76 0 -119 51.5t-31 128.5zM172 -106h479q72 0 107 31t49 106l16 96q-131 -147 -340 -147q-213 0 -313.5 147.5t-58.5 384.5t195 384.5t366 147.5q206 0 286 -147l23 127
h451l-164 -932q-46 -261 -194.5 -381.5t-434.5 -120.5h-520zM700 344q65 0 120 36t63 81l16 102q9 45 -32.5 81t-106.5 36q-69 0 -125 -44.5t-70 -123.5q-13 -80 27 -124t108 -44z" />
    <glyph glyph-name="uni0122" unicode="&#x122;" horiz-adv-x="1611" 
d="M627 717q-34 -191 49 -290t270 -99q237 0 328 180h-371l53 307h758l-143 -815h-373l16 98q-166 -118 -393 -118q-120 0 -229 33t-196.5 95t-148 152t-81.5 204.5t2 252.5q29 166 120 307t218.5 233.5t279.5 144.5t306 52q101 0 192.5 -22.5t162 -61t126.5 -90.5
t90 -110.5t47.5 -121t3.5 -122.5h-454q13 74 -57 116.5t-185 42.5q-326 0 -391 -368zM637 -217q9 54 53.5 91.5t102.5 37.5q53 0 83 -37.5t21 -91.5q-6 -41 -31 -72l-159 -223h-119l112 172q-37 14 -53.5 46.5t-9.5 76.5z" />
    <glyph glyph-name="uni0123" unicode="&#x123;" horiz-adv-x="1292" 
d="M817 1305l166 233h119l-111 -172q36 -14 52.5 -46.5t9.5 -76.5q-9 -54 -53 -91.5t-101 -37.5q-54 0 -84.5 37.5t-21.5 91.5q6 35 24 62zM172 -106h479q72 0 107 31t49 106l16 98q-130 -149 -340 -149q-213 0 -313.5 147.5t-58.5 384.5t195 384.5t366 147.5
q211 0 286 -147l23 127h451l-70 -389h2l-96 -543q-46 -261 -194.5 -381.5t-434.5 -120.5h-520zM899 555v8q9 45 -32.5 81t-106.5 36q-69 0 -125 -44.5t-70 -123.5q-13 -80 27 -124t108 -44q61 0 113 30t66 72z" />
    <glyph glyph-name="Hcircumflex" unicode="&#x124;" horiz-adv-x="1665" 
d="M715 1524l332 360h237l205 -360h-258l-78 176l-139 -176h-299zM313 1434h455l-90 -516h633l90 516h454l-251 -1434h-455l96 549h-633l-96 -549h-455z" />
    <glyph glyph-name="hcircumflex" unicode="&#x125;" horiz-adv-x="1230" 
d="M293 1434h450l-98 -566q69 85 165.5 130.5t209.5 45.5q175 0 246.5 -106.5t38.5 -292.5l-115 -645h-451l92 522q14 80 -5.5 119t-88.5 39q-126 0 -153 -158l-92 -522h-451zM692 1073l332 361h238l204 -361h-258l-75 176l-142 -176h-299z" />
    <glyph glyph-name="Hbar" unicode="&#x126;" horiz-adv-x="1665" 
d="M313 1434h455l-43 -246h633l43 246h454l-251 -1434h-455l39 221h-633l-39 -221h-455zM621 590h632l39 229h-633z" />
    <glyph glyph-name="hbar" unicode="&#x127;" horiz-adv-x="1230" 
d="M993 1331l-37 -205h-266l-47 -260q145 178 377 178q175 0 246.5 -106.5t38.5 -292.5l-115 -645h-451l92 522q14 80 -5.5 119t-88.5 39q-126 0 -153 -158l-92 -522h-451l199 1126h-164l37 205h161l19 103h450l-18 -103h268z" />
    <glyph glyph-name="Itilde" unicode="&#x128;" horiz-adv-x="577" 
d="M559 1567q-36 18 -54.5 26.5t-43.5 17.5t-38.5 9t-30.5 -2.5t-28.5 -14.5t-24.5 -29.5t-26 -45.5l-186 67q48 90 97.5 145.5t108 82.5t127 19.5t150.5 -48.5q48 -24 73.5 -34.5t55 -17t47 2t35.5 29.5t35 59l186 -70q-67 -125 -141 -185t-158 -60t-184 49zM313 1434h455
l-252 -1434h-455z" />
    <glyph glyph-name="itilde" unicode="&#x129;" horiz-adv-x="532" 
d="M465 1157q-37 18 -55 26t-44 18t-38.5 9.5t-30 -3t-29 -14.5t-24.5 -29.5t-27 -45.5l-184 68q48 90 97.5 145.5t108 82.5t127 19t150.5 -49q39 -20 61.5 -30t49 -18t42.5 -6t33.5 11.5t31.5 29.5t28 52l186 -69q-67 -125 -141 -185t-158 -60.5t-184 48.5zM221 1024h451
l-180 -1024h-451z" />
    <glyph glyph-name="Imacron" unicode="&#x12a;" horiz-adv-x="577" 
d="M295 1782h614l-35 -205h-614zM313 1434h455l-252 -1434h-455z" />
    <glyph glyph-name="imacron" unicode="&#x12b;" horiz-adv-x="532" 
d="M201 1372h614l-37 -205h-614zM221 1024h451l-180 -1024h-451z" />
    <glyph glyph-name="Iogonek" unicode="&#x12e;" horiz-adv-x="577" 
d="M313 1434h455l-252 -1434h-139l2 -2q-83 -74 -127.5 -126.5t-52.5 -102.5q-6 -38 11.5 -57.5t59 -20t87 7.5t110.5 25l-35 -205q-54 -13 -116 -18t-127.5 2t-115.5 27t-77 64t-16 107q20 120 208 299h-127z" />
    <glyph glyph-name="iogonek" unicode="&#x12f;" horiz-adv-x="532" 
d="M256 1298q17 99 100 168.5t187 69.5q98 0 155.5 -70t40.5 -168q-19 -104 -100 -174.5t-180 -70.5q-104 0 -163 70.5t-40 174.5zM221 1024h451l-180 -1024h-123l2 -2q-84 -75 -128.5 -127t-52.5 -102q-6 -38 12 -57.5t59.5 -20t87 7.5t110.5 25l-35 -205
q-54 -13 -116.5 -18t-127.5 2t-115.5 27t-77.5 64t-16 107q20 119 209 299h-139z" />
    <glyph glyph-name="Idotaccent" unicode="&#x130;" horiz-adv-x="577" 
d="M414 1704q12 74 73.5 125t137.5 51q73 0 115 -51t30 -125q-13 -76 -74 -128t-135 -52q-76 0 -118.5 51.5t-28.5 128.5zM313 1434h455l-252 -1434h-455z" />
    <glyph glyph-name="dotlessi" unicode="&#x131;" horiz-adv-x="532" 
d="M221 1024h451l-180 -1024h-451z" />
    <glyph glyph-name="IJ" unicode="&#x132;" horiz-adv-x="1927" 
d="M313 1434h455l-252 -1434h-455zM1663 1434h455l-152 -861q-21 -124 -74 -228t-139 -187.5t-215 -130.5t-289 -47q-111 0 -198.5 22t-146.5 61.5t-99 96t-56.5 125t-18.5 148.5t15 167h455q-8 -42 -11 -74.5t1 -67.5t17 -58t40 -37.5t68 -14.5q46 0 82.5 21t58.5 56
t35 71.5t20 76.5z" />
    <glyph glyph-name="ij" unicode="&#x133;" horiz-adv-x="1064" 
d="M256 1298q17 99 100 168.5t187 69.5q98 0 155.5 -70t40.5 -168q-19 -104 -100 -174.5t-180 -70.5q-104 0 -163 70.5t-40 174.5zM782 1298q17 99 100 168.5t187 69.5q98 0 156 -70t41 -168q-19 -104 -100.5 -174.5t-180.5 -70.5q-104 0 -163 70.5t-40 174.5zM221 1024h451
l-180 -1024h-451zM365 -86h104q46 0 71.5 22t34.5 74l179 1014h450l-196 -1116q-27 -158 -134 -238t-278 -80h-289z" />
    <glyph glyph-name="Jcircumflex" unicode="&#x134;" horiz-adv-x="1349" 
d="M926 1524l331 360h238l205 -360h-258l-78 176l-139 -176h-299zM1085 1434h455l-151 -861q-21 -124 -74 -228t-139 -187.5t-215 -130.5t-289 -47q-111 0 -198.5 22t-146.5 61.5t-99 96t-56.5 125t-18.5 148.5t15 167h455q-10 -65 -12 -121t29 -93.5t97 -37.5q46 0 82.5 21
t59 56t35.5 71.5t20 76.5z" />
    <glyph glyph-name="jcircumflex" unicode="&#x135;" horiz-adv-x="532" 
d="M76 1114l332 361h237l205 -361h-258l-78 176l-139 -176h-299zM-168 -86h105q46 0 71.5 22t34.5 74l178 1014h451l-197 -1116q-27 -158 -134 -238t-278 -80h-288z" />
    <glyph glyph-name="uni0136" unicode="&#x136;" horiz-adv-x="1599" 
d="M313 1434h455l-104 -594h94l456 594h545l-606 -740l426 -694h-528l-281 512h-164l-90 -512h-455zM590 -217q9 55 53 92t102 37q53 0 83.5 -37.5t21.5 -91.5q-6 -41 -31 -72l-160 -223h-118l112 172q-37 14 -53.5 46.5t-9.5 76.5z" />
    <glyph glyph-name="uni0137" unicode="&#x137;" horiz-adv-x="1290" 
d="M293 1434h450l-129 -740h39l215 330h521l-355 -481l236 -543h-512l-127 371h-74l-65 -371h-451zM475 -217q9 54 53.5 91.5t102.5 37.5q53 0 83 -37.5t21 -91.5q-6 -42 -30 -72l-160 -223h-119l113 172q-37 14 -54 46.5t-10 76.5z" />
    <glyph glyph-name="kgreenlandic" unicode="&#x138;" horiz-adv-x="1290" 
d="M221 1024h451l-58 -330h39l215 330h521l-357 -479l238 -545h-533l-127 371h-53l-65 -371h-451z" />
    <glyph glyph-name="Lacute" unicode="&#x139;" horiz-adv-x="1214" 
d="M313 1434h455l-186 -1065h657l-65 -369h-1113zM891 1073l178 361h268l-223 -361h-223z" />
    <glyph glyph-name="lacute" unicode="&#x13a;" horiz-adv-x="614" 
d="M432 1524l178 360h269l-224 -360h-223zM678 365l-64 -365h-278q-151 0 -210 74.5t-32 222.5l199 1137h450l-168 -953q-12 -67 8.5 -91.5t82.5 -24.5h12z" />
    <glyph glyph-name="uni013B" unicode="&#x13b;" horiz-adv-x="1214" 
d="M313 1434h455l-186 -1065h657l-65 -369h-1113zM438 -217q9 54 53.5 91.5t102.5 37.5q53 0 83 -37.5t21 -91.5q-6 -42 -30 -72l-160 -223h-119l113 172q-37 14 -54 46.5t-10 76.5z" />
    <glyph glyph-name="uni013C" unicode="&#x13c;" horiz-adv-x="614" 
d="M678 365l-64 -365h-278q-151 0 -210 74.5t-32 222.5l199 1137h450l-168 -953q-12 -67 8.5 -91.5t82.5 -24.5h12zM219 -217q9 54 53.5 91.5t102.5 37.5q53 0 83 -37.5t21 -91.5q-6 -42 -30 -72l-160 -223h-119l113 172q-37 14 -54 46.5t-10 76.5z" />
    <glyph glyph-name="Lcaron" unicode="&#x13d;" horiz-adv-x="1214" 
d="M313 1434h455l-186 -1065h657l-65 -369h-1113zM862 1196q17 99 99.5 168.5t187.5 69.5q98 0 156 -70t41 -168q-12 -73 -62 -133l-293 -416h-221l207 320q-65 27 -96.5 87.5t-18.5 141.5z" />
    <glyph glyph-name="lcaron" unicode="&#x13e;" horiz-adv-x="1220" 
d="M891 1217q17 99 99.5 168t187.5 69q98 0 155.5 -69.5t40.5 -167.5q-15 -76 -61 -134l-295 -415h-221l209 319q-66 27 -98 88.5t-17 141.5zM678 365l-64 -365h-278q-151 0 -210 74.5t-32 222.5l199 1137h450l-168 -953q-12 -67 8.5 -91.5t82.5 -24.5h12z" />
    <glyph glyph-name="Ldot" unicode="&#x13f;" horiz-adv-x="1214" 
d="M313 1434h455l-186 -1065h657l-65 -369h-1113zM864 1196q17 99 99.5 168.5t187.5 69.5q98 0 156 -70t41 -168q-19 -105 -100.5 -175.5t-180.5 -70.5q-106 0 -164 70t-39 176z" />
    <glyph glyph-name="ldot" unicode="&#x140;" horiz-adv-x="1130" 
d="M678 365l-64 -365h-278q-151 0 -210 74.5t-32 222.5l199 1137h450l-168 -953q-12 -67 8.5 -91.5t82.5 -24.5h12zM805 1196q17 99 99.5 168.5t187.5 69.5q98 0 155.5 -70t40.5 -168q-19 -105 -100 -175.5t-180 -70.5q-106 0 -164 70t-39 176z" />
    <glyph glyph-name="Lslash" unicode="&#x141;" horiz-adv-x="1214" 
d="M-61 793l278 94l96 547h455l-68 -381l181 61l51 -270l-285 -96l-65 -379h657l-65 -369h-1113l103 582l-174 -60z" />
    <glyph glyph-name="lslash" unicode="&#x142;" horiz-adv-x="614" 
d="M-102 793l301 102l94 539h450l-65 -375l162 55l51 -270l-268 -92l-48 -271q-12 -67 8.5 -91.5t82.5 -24.5h12l-64 -365h-278q-151 0 -210 74.5t-32 222.5l51 293l-196 -68z" />
    <glyph glyph-name="Nacute" unicode="&#x143;" horiz-adv-x="1644" 
d="M1001 1524l179 360h268l-223 -360h-224zM313 1434h455l467 -826l145 826h455l-252 -1434h-455l-473 793l-139 -793h-455z" />
    <glyph glyph-name="nacute" unicode="&#x144;" horiz-adv-x="1230" 
d="M662 1114l178 361h268l-223 -361h-223zM221 1024h451l-27 -156q69 85 165.5 130.5t209.5 45.5q175 0 246.5 -106.5t38.5 -292.5l-115 -645h-451l92 522q14 80 -5.5 119t-88.5 39q-126 0 -153 -158l-92 -522h-451z" />
    <glyph glyph-name="uni0145" unicode="&#x145;" horiz-adv-x="1644" 
d="M313 1434h455l467 -826l145 826h455l-252 -1434h-455l-473 793l-139 -793h-455zM674 -217q9 55 53 92t102 37q53 0 83.5 -37.5t21.5 -91.5q-6 -41 -31 -72l-160 -223h-118l112 172q-37 14 -53.5 46.5t-9.5 76.5z" />
    <glyph glyph-name="uni0146" unicode="&#x146;" horiz-adv-x="1230" 
d="M221 1024h451l-27 -156q69 85 165.5 130.5t209.5 45.5q175 0 246.5 -106.5t38.5 -292.5l-115 -645h-451l92 522q14 80 -5.5 119t-88.5 39q-126 0 -153 -158l-92 -522h-451zM446 -217q9 54 53.5 91.5t102.5 37.5q53 0 83.5 -37.5t21.5 -91.5q-6 -41 -31 -72l-160 -223
h-119l113 172q-37 14 -54 46.5t-10 76.5z" />
    <glyph glyph-name="Ncaron" unicode="&#x147;" horiz-adv-x="1644" 
d="M768 1884h272l82 -176l135 176h285l-332 -360h-237zM313 1434h455l467 -826l145 826h455l-252 -1434h-455l-473 793l-139 -793h-455z" />
    <glyph glyph-name="ncaron" unicode="&#x148;" horiz-adv-x="1230" 
d="M489 1475h273l82 -177l135 177h285l-332 -361h-238zM221 1024h451l-27 -156q69 85 165.5 130.5t209.5 45.5q175 0 246.5 -106.5t38.5 -292.5l-115 -645h-451l92 522q14 80 -5.5 119t-88.5 39q-126 0 -153 -158l-92 -522h-451z" />
    <glyph glyph-name="napostrophe" unicode="&#x149;" horiz-adv-x="1230" 
d="M221 1024h451l-29 -158q145 178 377 178q175 0 246.5 -106.5t38.5 -292.5l-115 -645h-451l92 522q14 80 -5.5 119t-88.5 39q-126 0 -153 -158l-92 -522h-451z" />
    <glyph glyph-name="Omacron" unicode="&#x14c;" horiz-adv-x="1697" 
d="M856 1782h614l-34 -205h-615zM168 717q24 136 86 254t151.5 206t201 150.5t238 94.5t259.5 32q168 0 306 -50.5t232 -143.5t133 -233.5t9 -309.5t-118.5 -309.5t-215 -233.5t-283 -143.5t-323.5 -50.5t-304.5 50.5t-231 143.5t-132 233.5t-8.5 309.5zM1038 1085
q-160 0 -271.5 -102t-139.5 -266q-30 -164 46 -266.5t236 -102.5t273 102.5t143 266.5q28 164 -49 266t-238 102z" />
    <glyph glyph-name="omacron" unicode="&#x14d;" horiz-adv-x="1253" 
d="M561 1372h615l-37 -205h-615zM688 344q79 0 124 51.5t56 116.5q7 26 3 55.5t-14.5 54.5t-38.5 41.5t-70 16.5q-79 0 -125.5 -52t-57.5 -116q-7 -40 -0.5 -75.5t37.5 -64t86 -28.5zM491 982q147 62 320 62t298.5 -62.5t184 -184.5t29.5 -285t-130.5 -285t-249 -184.5
t-320.5 -62.5t-298.5 62.5t-184 184.5t-29.5 285t130.5 285t249.5 185z" />
    <glyph glyph-name="Obreve" unicode="&#x14e;" horiz-adv-x="1697" 
d="M821 1905h203q-7 -32 -2.5 -63.5t17.5 -56t42.5 -39.5t73.5 -15q84 0 132.5 50.5t60.5 123.5h202q-15 -83 -48 -149t-76 -108.5t-96 -71t-105 -40.5t-107 -12t-103 12.5t-91.5 40t-70 71.5t-38 108t5.5 149zM168 717q24 136 86 254t151.5 206t201 150.5t238 94.5
t259.5 32q168 0 306 -50.5t232 -143.5t133 -233.5t9 -309.5t-118.5 -309.5t-215 -233.5t-283 -143.5t-323.5 -50.5t-304.5 50.5t-231 143.5t-132 233.5t-8.5 309.5zM1038 1085q-160 0 -271.5 -102t-139.5 -266q-30 -164 46 -266.5t236 -102.5t273 102.5t143 266.5
q28 164 -49 266t-238 102z" />
    <glyph glyph-name="obreve" unicode="&#x14f;" horiz-adv-x="1253" 
d="M526 1495h203q-14 -73 16.5 -123.5t114.5 -50.5t131.5 50t61.5 124h202q-15 -83 -48 -149t-76 -108.5t-96 -71t-105 -40.5t-107 -12t-103 12.5t-91.5 40t-70 71.5t-38 108t5.5 149zM688 344q79 0 124 51.5t56 116.5q7 26 3 55.5t-14.5 54.5t-38.5 41.5t-70 16.5
q-79 0 -125.5 -52t-57.5 -116q-7 -40 -0.5 -75.5t37.5 -64t86 -28.5zM491 982q147 62 320 62t298.5 -62.5t184 -184.5t29.5 -285t-130.5 -285t-249 -184.5t-320.5 -62.5t-298.5 62.5t-184 184.5t-29.5 285t130.5 285t249.5 185z" />
    <glyph glyph-name="Ohungarumlaut" unicode="&#x150;" horiz-adv-x="1697" 
d="M1194 1524l178 360h268l-223 -360h-223zM823 1524l178 360h269l-223 -360h-224zM168 717q24 136 86 254t151.5 206t201 150.5t238 94.5t259.5 32q168 0 306 -50.5t232 -143.5t133 -233.5t9 -309.5t-118.5 -309.5t-215 -233.5t-283 -143.5t-323.5 -50.5t-304.5 50.5
t-231 143.5t-132 233.5t-8.5 309.5zM1038 1085q-160 0 -271.5 -102t-139.5 -266q-30 -164 46 -266.5t236 -102.5t273 102.5t143 266.5q28 164 -49 266t-238 102z" />
    <glyph glyph-name="ohungarumlaut" unicode="&#x151;" horiz-adv-x="1253" 
d="M899 1114l178 361h269l-224 -361h-223zM528 1114l179 361h268l-223 -361h-224zM688 344q79 0 124 51.5t56 116.5q7 26 3 55.5t-14.5 54.5t-38.5 41.5t-70 16.5q-79 0 -125.5 -52t-57.5 -116q-7 -40 -0.5 -75.5t37.5 -64t86 -28.5zM491 982q147 62 320 62t298.5 -62.5
t184 -184.5t29.5 -285t-130.5 -285t-249 -184.5t-320.5 -62.5t-298.5 62.5t-184 184.5t-29.5 285t130.5 285t249.5 185z" />
    <glyph glyph-name="OE" unicode="&#x152;" horiz-adv-x="2357" 
d="M168 717q24 136 86 254t151.5 206t201 150.5t238 94.5t259.5 32q193 0 344 -65l6 45h1112l-63 -369h-658l-30 -174h595l-61 -348h-596l-31 -174h658l-66 -369h-1112l8 45q-174 -65 -366 -65q-167 0 -304.5 50.5t-231 143.5t-132 233.5t-8.5 309.5zM1038 1085
q-160 0 -271.5 -102t-139.5 -266q-30 -164 46 -266.5t236 -102.5t273 102.5t143 266.5q28 164 -49 266t-238 102z" />
    <glyph glyph-name="oe" unicode="&#x153;" horiz-adv-x="1970" 
d="M688 344q79 0 124 51.5t56 116.5q7 26 3 55.5t-14.5 54.5t-38.5 41.5t-70 16.5q-79 0 -125.5 -52t-57.5 -116q-7 -40 -0.5 -75.5t37.5 -64t86 -28.5zM1616 592q0 129 -109 129q-118 0 -164 -129h273zM811 1044q222 0 358 -100q161 100 375 100q297 0 417.5 -139
t76.5 -389l-15 -84h-708q-1 -79 30 -104t89 -25q136 0 149 74h430q-31 -87 -83 -156t-129.5 -124.5t-190.5 -86t-254 -30.5q-214 0 -338 100q-174 -100 -395 -100q-173 0 -298.5 62.5t-184 184.5t-29.5 285t130.5 285t249 184.5t320.5 62.5z" />
    <glyph glyph-name="Racute" unicode="&#x154;" horiz-adv-x="1540" 
d="M848 1524l178 360h268l-223 -360h-223zM1087 1434q73 0 142.5 -12t141.5 -44.5t122 -83.5t72.5 -136.5t3.5 -194.5q-30 -167 -129.5 -279t-237.5 -172l297 -512h-506l-250 451h-147l-80 -451h-455l252 1434h774zM655 795h279q80 0 121 41t51 106q24 148 -119 148h-278z
" />
    <glyph glyph-name="racute" unicode="&#x155;" horiz-adv-x="890" 
d="M553 1114l178 361h268l-223 -361h-223zM221 1024h451l-27 -156q68 81 153 128.5t156 47.5h101l-64 -364h-264q-64 0 -94.5 -26t-44.5 -111l-96 -543h-451z" />
    <glyph glyph-name="uni0156" unicode="&#x156;" horiz-adv-x="1540" 
d="M1087 1434q73 0 142.5 -12t141.5 -44.5t122 -83.5t72.5 -136.5t3.5 -194.5q-30 -167 -129.5 -279t-237.5 -172l297 -512h-506l-250 451h-147l-80 -451h-455l252 1434h774zM655 795h279q80 0 121 41t51 106q24 148 -119 148h-278zM580 -217q9 55 53 92t102 37
q53 0 83.5 -37.5t21.5 -91.5q-6 -41 -31 -72l-160 -223h-119l113 172q-37 14 -53.5 46.5t-9.5 76.5z" />
    <glyph glyph-name="uni0157" unicode="&#x157;" horiz-adv-x="890" 
d="M221 1024h451l-27 -156q68 81 153 128.5t156 47.5h101l-64 -364h-264q-64 0 -94.5 -26t-44.5 -111l-96 -543h-451zM113 -217q9 55 53 92t102 37q53 0 83.5 -37.5t21.5 -91.5q-6 -41 -31 -72l-160 -223h-119l113 172q-37 14 -53.5 46.5t-9.5 76.5z" />
    <glyph glyph-name="Rcaron" unicode="&#x158;" horiz-adv-x="1540" 
d="M715 1884h272l82 -176l135 176h285l-332 -360h-237zM1087 1434q73 0 142.5 -12t141.5 -44.5t122 -83.5t72.5 -136.5t3.5 -194.5q-30 -167 -129.5 -279t-237.5 -172l297 -512h-506l-250 451h-147l-80 -451h-455l252 1434h774zM655 795h279q80 0 121 41t51 106
q24 148 -119 148h-278z" />
    <glyph glyph-name="rcaron" unicode="&#x159;" horiz-adv-x="890" 
d="M317 1475h273l82 -177l135 177h285l-332 -361h-238zM221 1024h451l-27 -156q68 81 153 128.5t156 47.5h101l-64 -364h-264q-64 0 -94.5 -26t-44.5 -111l-96 -543h-451z" />
    <glyph glyph-name="Sacute" unicode="&#x15a;" horiz-adv-x="1488" 
d="M883 1524l178 360h268l-223 -360h-223zM586 494q-13 -76 48 -121t169 -45q245 0 262 98q2 15 -0.5 26.5t-12 21t-22 16.5t-34.5 13.5t-44 11.5t-57.5 10.5t-67.5 10.5t-80.5 13t-91.5 16q-126 23 -209 63.5t-123.5 95t-52 125t5.5 152.5q19 105 86.5 192t165 143.5
t216 87t241.5 30.5q99 0 183 -13.5t146.5 -38.5t112 -59.5t79.5 -77.5t49 -92t20.5 -102.5t-6.5 -109.5h-459q13 76 -34.5 110.5t-151.5 34.5q-71 0 -125 -24.5t-60 -63.5q-8 -42 10 -59q24 -22 156 -49q36 -8 132 -26l1 -1h1h1q112 -22 172.5 -36.5t140 -46.5t115.5 -71.5
t56.5 -106t5.5 -155.5q-19 -106 -76.5 -194t-151.5 -154t-232 -102.5t-308 -36.5q-125 0 -228 20t-174 55t-124 83.5t-78 105.5t-35 120.5t4 129.5h459z" />
    <glyph glyph-name="sacute" unicode="&#x15b;" horiz-adv-x="1155" 
d="M645 1114l178 361h269l-224 -361h-223zM492 346q-8 -47 29.5 -75.5t125.5 -28.5q101 0 109 43q4 27 -37.5 43t-179.5 43q-199 40 -297.5 118.5t-75.5 212.5q16 91 75.5 160t144.5 107t176 56.5t186 18.5q105 0 190 -23t138 -60t86 -85t43 -98.5t1 -99.5h-409
q18 104 -99 104q-39 0 -65.5 -12.5t-30.5 -36.5q-5 -31 50 -50q43 -16 220 -48q87 -16 138 -31.5t105.5 -47t73.5 -85t5 -131.5q-29 -164 -196.5 -262t-419.5 -98q-116 0 -208 23t-149 60t-92 85.5t-45.5 98t-1.5 99.5h410z" />
    <glyph glyph-name="Scircumflex" unicode="&#x15c;" horiz-adv-x="1488" 
d="M627 1524l331 360h238l205 -360h-258l-78 176l-139 -176h-299zM586 494q-13 -76 48 -121t169 -45q245 0 262 98q2 15 -0.5 26.5t-12 21t-22 16.5t-34.5 13.5t-44 11.5t-57.5 10.5t-67.5 10.5t-80.5 13t-91.5 16q-126 23 -209 63.5t-123.5 95t-52 125t5.5 152.5
q19 105 86.5 192t165 143.5t216 87t241.5 30.5q99 0 183 -13.5t146.5 -38.5t112 -59.5t79.5 -77.5t49 -92t20.5 -102.5t-6.5 -109.5h-459q13 76 -34.5 110.5t-151.5 34.5q-71 0 -125 -24.5t-60 -63.5q-8 -42 10 -59q24 -22 156 -49q36 -8 132 -26l1 -1h1h1
q112 -22 172.5 -36.5t140 -46.5t115.5 -71.5t56.5 -106t5.5 -155.5q-19 -106 -76.5 -194t-151.5 -154t-232 -102.5t-308 -36.5q-125 0 -228 20t-174 55t-124 83.5t-78 105.5t-35 120.5t4 129.5h459z" />
    <glyph glyph-name="scircumflex" unicode="&#x15d;" horiz-adv-x="1155" 
d="M387 1114l332 361h237l205 -361h-258l-78 176l-139 -176h-299zM492 346q-8 -47 29.5 -75.5t125.5 -28.5q101 0 109 43q4 27 -37.5 43t-179.5 43q-199 40 -297.5 118.5t-75.5 212.5q16 91 75.5 160t144.5 107t176 56.5t186 18.5q105 0 190 -23t138 -60t86 -85t43 -98.5
t1 -99.5h-409q18 104 -99 104q-39 0 -65.5 -12.5t-30.5 -36.5q-5 -31 50 -50q43 -16 220 -48q87 -16 138 -31.5t105.5 -47t73.5 -85t5 -131.5q-29 -164 -196.5 -262t-419.5 -98q-116 0 -208 23t-149 60t-92 85.5t-45.5 98t-1.5 99.5h410z" />
    <glyph glyph-name="Scedilla" unicode="&#x15e;" horiz-adv-x="1488" 
d="M586 494q-13 -76 48 -121t169 -45q245 0 262 98q2 15 -0.5 26.5t-12 21t-22 16.5t-34.5 13.5t-44 11.5t-57.5 10.5t-67.5 10.5t-80.5 13t-91.5 16q-126 23 -209 63.5t-123.5 95t-52 125t5.5 152.5q19 105 86.5 192t165 143.5t216 87t241.5 30.5q99 0 183 -13.5
t146.5 -38.5t112 -59.5t79.5 -77.5t49 -92t20.5 -102.5t-6.5 -109.5h-459q13 76 -34.5 110.5t-151.5 34.5q-71 0 -125 -24.5t-60 -63.5q-8 -42 10 -59q24 -22 156 -49q36 -8 132 -26l1 -1h1h1q112 -22 172.5 -36.5t140 -46.5t115.5 -71.5t56.5 -106t5.5 -155.5
q-18 -100 -70.5 -184.5t-138 -149.5t-210 -104.5t-277.5 -46.5l-35 -72q98 -11 142 -53t30 -127q-12 -66 -51 -114.5t-92.5 -73.5t-117.5 -36.5t-125 -8.5t-116 16l33 184q104 -31 168.5 -20t72.5 61q7 38 -15.5 47.5t-106.5 9.5h-21l74 187q-160 10 -277 56.5t-179 118
t-85 157t-6 180.5h459z" />
    <glyph glyph-name="scedilla" unicode="&#x15f;" horiz-adv-x="1155" 
d="M492 346q-8 -47 29.5 -75.5t125.5 -28.5q101 0 109 43q4 27 -37.5 43t-179.5 43q-199 40 -297.5 118.5t-75.5 212.5q16 91 75.5 160t144.5 107t176 56.5t186 18.5q105 0 190 -23t138 -60t86 -85t43 -98.5t1 -99.5h-409q18 104 -99 104q-39 0 -65.5 -12.5t-30.5 -36.5
q-5 -31 50 -50q43 -16 220 -48q87 -16 138 -31.5t105.5 -47t73.5 -85t5 -131.5q-26 -149 -167 -244t-359 -112l-37 -74q98 -11 142 -53t30 -127q-12 -66 -51 -114.5t-92.5 -73.5t-117.5 -36.5t-125 -8.5t-116 16l33 184q104 -31 168.5 -20t72.5 61q7 38 -15.5 47.5
t-106.5 9.5h-21l74 187q-123 8 -214 45t-138 90t-65 111.5t-7 117.5h410z" />
    <glyph glyph-name="Scaron" unicode="&#x160;" horiz-adv-x="1488" 
d="M690 1884h273l81 -176l136 176h284l-331 -360h-238zM586 494q-13 -76 48 -121t169 -45q245 0 262 98q2 15 -0.5 26.5t-12 21t-22 16.5t-34.5 13.5t-44 11.5t-57.5 10.5t-67.5 10.5t-80.5 13t-91.5 16q-126 23 -209 63.5t-123.5 95t-52 125t5.5 152.5q19 105 86.5 192
t165 143.5t216 87t241.5 30.5q99 0 183 -13.5t146.5 -38.5t112 -59.5t79.5 -77.5t49 -92t20.5 -102.5t-6.5 -109.5h-459q13 76 -34.5 110.5t-151.5 34.5q-71 0 -125 -24.5t-60 -63.5q-8 -42 10 -59q24 -22 156 -49q36 -8 132 -26l1 -1h1h1q112 -22 172.5 -36.5t140 -46.5
t115.5 -71.5t56.5 -106t5.5 -155.5q-19 -106 -76.5 -194t-151.5 -154t-232 -102.5t-308 -36.5q-125 0 -228 20t-174 55t-124 83.5t-78 105.5t-35 120.5t4 129.5h459z" />
    <glyph glyph-name="scaron" unicode="&#x161;" horiz-adv-x="1155" 
d="M451 1475h272l82 -177l135 177h285l-332 -361h-238zM492 346q-8 -47 29.5 -75.5t125.5 -28.5q101 0 109 43q4 27 -37.5 43t-179.5 43q-199 40 -297.5 118.5t-75.5 212.5q16 91 75.5 160t144.5 107t176 56.5t186 18.5q105 0 190 -23t138 -60t86 -85t43 -98.5t1 -99.5h-409
q18 104 -99 104q-39 0 -65.5 -12.5t-30.5 -36.5q-5 -31 50 -50q43 -16 220 -48q87 -16 138 -31.5t105.5 -47t73.5 -85t5 -131.5q-29 -164 -196.5 -262t-419.5 -98q-116 0 -208 23t-149 60t-92 85.5t-45.5 98t-1.5 99.5h410z" />
    <glyph glyph-name="uni0162" unicode="&#x162;" horiz-adv-x="1359" 
d="M293 1434h1278l-64 -369h-411l-189 -1065h-454l188 1065h-412zM510 -217q9 54 53.5 91.5t102.5 37.5q53 0 83 -37.5t21 -91.5q-6 -41 -31 -72l-159 -223h-119l112 172q-37 14 -53.5 46.5t-9.5 76.5z" />
    <glyph glyph-name="uni0163" unicode="&#x163;" horiz-adv-x="813" 
d="M201 1024h106l43 246h451l-43 -246h215l-64 -365h-215l-43 -239q-9 -52 9.5 -74t64.5 -22h125l-57 -324h-310q-171 0 -249.5 79.5t-51.5 237.5l62 342h-107zM319 -217q9 54 53.5 91.5t102.5 37.5q53 0 83.5 -37.5t21.5 -91.5q-6 -41 -31 -72l-160 -223h-119l113 172
q-37 14 -54 46.5t-10 76.5z" />
    <glyph glyph-name="Tcaron" unicode="&#x164;" horiz-adv-x="1359" 
d="M625 1884h272l82 -176l135 176h285l-332 -360h-238zM293 1434h1278l-64 -369h-411l-189 -1065h-454l188 1065h-412z" />
    <glyph glyph-name="tcaron" unicode="&#x165;" horiz-adv-x="1419" 
d="M1090 1217q17 99 99 168t187 69q98 0 156 -69.5t41 -167.5q-15 -74 -62 -134l-294 -415h-222l209 319q-66 27 -97.5 88.5t-16.5 141.5zM201 1024h106l43 246h451l-43 -246h215l-64 -365h-215l-43 -239q-9 -52 9.5 -74t64.5 -22h125l-57 -324h-310q-171 0 -249.5 79.5
t-51.5 237.5l62 342h-107z" />
    <glyph glyph-name="Tbar" unicode="&#x166;" horiz-adv-x="1359" 
d="M297 737h285l57 328h-410l64 369h1278l-64 -369h-413l-58 -328h285l-35 -205h-285l-94 -532h-454l94 532h-285z" />
    <glyph glyph-name="tbar" unicode="&#x167;" horiz-adv-x="813" 
d="M201 1024h106l43 246h451l-43 -246h215l-45 -262h-217l-15 -82h217l-47 -262h-215q-9 -51 9.5 -72.5t64.5 -21.5h125l-57 -324h-310q-171 0 -249.5 79.5t-51.5 237.5l19 101h-107l47 262h105l14 82h-104z" />
    <glyph glyph-name="Utilde" unicode="&#x168;" horiz-adv-x="1513" 
d="M1008 1567q-36 18 -54.5 26.5t-43.5 17.5t-38.5 9t-30.5 -2.5t-28.5 -14.5t-24.5 -29.5t-26 -45.5l-187 67q48 90 97.5 145.5t108 82.5t127.5 19.5t151 -48.5q48 -24 73.5 -34.5t55 -17t47 2t35.5 29.5t35 59l186 -70q-67 -125 -141 -185t-158 -60t-184 49zM1249 1434
h455l-148 -840q-55 -315 -252.5 -464.5t-549.5 -149.5q-351 0 -497 150t-91 464l147 840h455l-147 -840q-23 -131 22 -188.5t176 -57.5t195.5 57t87.5 189z" />
    <glyph glyph-name="utilde" unicode="&#x169;" horiz-adv-x="1312" 
d="M815 1157q-37 18 -55 26t-44 18t-38.5 9.5t-30 -3t-29 -14.5t-24.5 -29.5t-27 -45.5l-184 68q48 90 97.5 145.5t108 82.5t127 19t150.5 -49q39 -20 61.5 -30t49 -18t42.5 -6t33.5 11.5t31.5 29.5t28 52l186 -69q-67 -125 -141 -185t-158 -60.5t-184 48.5zM1376 365
l-63 -365h-279q-233 0 -248 180q-152 -200 -395 -200q-174 0 -244.5 106t-37.5 293l112 645h451l-92 -522q-13 -80 7.5 -119t88.5 -39q124 0 151 158l93 522h450l-96 -543q-12 -67 8 -91.5t82 -24.5h12z" />
    <glyph glyph-name="Umacron" unicode="&#x16a;" horiz-adv-x="1513" 
d="M764 1782h614l-35 -205h-614zM1249 1434h455l-148 -840q-55 -315 -252.5 -464.5t-549.5 -149.5q-351 0 -497 150t-91 464l147 840h455l-147 -840q-23 -131 22 -188.5t176 -57.5t195.5 57t87.5 189z" />
    <glyph glyph-name="umacron" unicode="&#x16b;" horiz-adv-x="1312" 
d="M551 1372h614l-37 -205h-614zM1376 365l-63 -365h-279q-233 0 -248 180q-152 -200 -395 -200q-174 0 -244.5 106t-37.5 293l112 645h451l-92 -522q-13 -80 7.5 -119t88.5 -39q124 0 151 158l93 522h450l-96 -543q-12 -67 8 -91.5t82 -24.5h12z" />
    <glyph glyph-name="Ubreve" unicode="&#x16c;" horiz-adv-x="1513" 
d="M729 1905h203q-7 -32 -2.5 -63.5t17.5 -56t42.5 -39.5t73.5 -15q84 0 132 50.5t60 123.5h203q-15 -83 -48 -149t-76 -108.5t-96 -71t-105 -40.5t-107 -12t-103 12.5t-91.5 40t-70 71.5t-38 108t5.5 149zM1249 1434h455l-148 -840q-55 -315 -252.5 -464.5t-549.5 -149.5
q-351 0 -497 150t-91 464l147 840h455l-147 -840q-23 -131 22 -188.5t176 -57.5t195.5 57t87.5 189z" />
    <glyph glyph-name="ubreve" unicode="&#x16d;" horiz-adv-x="1312" 
d="M516 1495h203q-14 -73 16.5 -123.5t114.5 -50.5t131 50t61 124h203q-15 -83 -48 -149t-76 -108.5t-96 -71t-105 -40.5t-107 -12t-103 12.5t-91.5 40t-70 71.5t-38 108t5.5 149zM1376 365l-63 -365h-279q-233 0 -248 180q-152 -200 -395 -200q-174 0 -244.5 106t-37.5 293
l112 645h451l-92 -522q-13 -80 7.5 -119t88.5 -39q124 0 151 158l93 522h450l-96 -543q-12 -67 8 -91.5t82 -24.5h12z" />
    <glyph glyph-name="Uring" unicode="&#x16e;" horiz-adv-x="1513" 
d="M816 1588q-77 93 -54 222t132.5 222.5t238.5 93.5t206 -93.5t54 -222.5t-132.5 -222t-238.5 -93t-206 93zM1004 1900q-47 -39 -56 -90t24 -90t83 -39q51 0 96.5 39t54.5 90t-23 90t-83 39q-50 0 -96 -39zM1249 1434h455l-148 -840q-55 -315 -252.5 -464.5t-549.5 -149.5
q-351 0 -497 150t-91 464l147 840h455l-147 -840q-23 -131 22 -188.5t176 -57.5t195.5 57t87.5 189z" />
    <glyph glyph-name="uring" unicode="&#x16f;" horiz-adv-x="1312" 
d="M549 1401q22 129 132 222t239 93t205.5 -93t54.5 -222q-23 -129 -133.5 -222.5t-239.5 -93.5t-205 93.5t-53 222.5zM735 1401q-9 -51 23 -90t82 -39q51 0 97.5 39t55.5 90q8 51 -23.5 90t-82.5 39q-50 0 -97.5 -39.5t-54.5 -89.5zM1376 365l-63 -365h-279
q-233 0 -248 180q-152 -200 -395 -200q-174 0 -244.5 106t-37.5 293l112 645h451l-92 -522q-13 -80 7.5 -119t88.5 -39q124 0 151 158l93 522h450l-96 -543q-12 -67 8 -91.5t82 -24.5h12z" />
    <glyph glyph-name="Uhungarumlaut" unicode="&#x170;" horiz-adv-x="1513" 
d="M1096 1524l178 360h268l-223 -360h-223zM725 1524l178 360h268l-223 -360h-223zM1249 1434h455l-148 -840q-55 -315 -252.5 -464.5t-549.5 -149.5q-351 0 -497 150t-91 464l147 840h455l-147 -840q-23 -131 22 -188.5t176 -57.5t195.5 57t87.5 189z" />
    <glyph glyph-name="uhungarumlaut" unicode="&#x171;" horiz-adv-x="1312" 
d="M897 1114l178 361h268l-223 -361h-223zM526 1114l179 361h268l-223 -361h-224zM1376 365l-63 -365h-279q-233 0 -248 180q-152 -200 -395 -200q-174 0 -244.5 106t-37.5 293l112 645h451l-92 -522q-13 -80 7.5 -119t88.5 -39q124 0 151 158l93 522h450l-96 -543
q-12 -67 8 -91.5t82 -24.5h12z" />
    <glyph glyph-name="Uogonek" unicode="&#x172;" horiz-adv-x="1513" 
d="M1249 1434h455l-148 -840q-49 -276 -204.5 -424t-429.5 -180q-80 -71 -124.5 -124t-52.5 -104q-7 -38 10.5 -57.5t59 -20t87.5 7.5t112 25l-37 -204q-54 -13 -115.5 -18t-127 2t-115.5 27t-77 64t-16 107q19 119 193 285q-331 8 -469 157.5t-84 456.5l147 840h455
l-147 -840q-23 -131 22 -188.5t176 -57.5t195.5 57t87.5 189z" />
    <glyph glyph-name="uogonek" unicode="&#x173;" horiz-adv-x="1312" 
d="M1376 365l-63 -365h-150q-76 -69 -117 -119t-49 -98q-6 -38 12 -57.5t59.5 -20t87 7.5t110.5 25l-35 -205q-54 -13 -116 -18t-127.5 2t-115.5 27t-77.5 64t-16.5 107q21 122 197 289q-174 21 -189 176q-152 -200 -395 -200q-174 0 -244.5 106t-37.5 293l112 645h451
l-92 -522q-13 -80 7.5 -119t88.5 -39q124 0 151 158l93 522h450l-96 -543q-12 -67 8 -91.5t82 -24.5h12z" />
    <glyph glyph-name="Wcircumflex" unicode="&#x174;" horiz-adv-x="2277" 
d="M1020 1524l332 360h237l205 -360h-258l-78 176l-139 -176h-299zM471 0l-178 1434h434l72 -875l375 875h413l68 -875l379 875h454l-702 -1434h-475l-58 709l-307 -709h-475z" />
    <glyph glyph-name="wcircumflex" unicode="&#x175;" horiz-adv-x="1763" 
d="M692 1114l332 361h238l204 -361h-258l-78 176l-139 -176h-299zM201 1024h452l11 -485l213 485h370l41 -485l182 485h453l-487 -1024h-432l-31 508l-213 -508h-432z" />
    <glyph glyph-name="Ycircumflex" unicode="&#x176;" horiz-adv-x="1724" 
d="M743 1524l332 360h238l205 -360h-258l-78 176l-140 -176h-299zM711 430l-418 1004h504l190 -609l404 609h544l-770 -1004l-75 -430h-455z" />
    <glyph glyph-name="ycircumflex" unicode="&#x177;" horiz-adv-x="1292" 
d="M457 1114l331 361h238l205 -361h-258l-78 176l-139 -176h-299zM1452 1024l-602 -1044q-50 -88 -87.5 -142.5t-87 -102t-99 -72.5t-125.5 -43.5t-164 -24t-217 -5.5l63 369q191 0 216 4q40 5 58 32q1 2 3 5l14 25l-223 999h452l80 -557l266 557h453z" />
    <glyph glyph-name="Ydieresis" unicode="&#x178;" horiz-adv-x="1724" 
d="M752 1706q12 74 73.5 125t137.5 51q73 0 115 -51t30 -125q-13 -76 -74 -128t-135 -52q-76 0 -118.5 51.5t-28.5 128.5zM1223 1706q12 74 73.5 125t137.5 51q73 0 115 -51t30 -125q-13 -76 -74 -128t-135 -52q-76 0 -118.5 51.5t-28.5 128.5zM711 430l-418 1004h504
l190 -609l404 609h544l-770 -1004l-75 -430h-455z" />
    <glyph glyph-name="Zacute" unicode="&#x179;" horiz-adv-x="1306" 
d="M793 1524l178 360h268l-223 -360h-223zM1464 1434l-63 -361l-696 -704h626l-65 -369h-1225l63 360l699 705h-557l63 369h1155z" />
    <glyph glyph-name="zacute" unicode="&#x17a;" horiz-adv-x="1019" 
d="M578 1114l178 361h268l-223 -361h-223zM1147 1024l-55 -315l-398 -344h369l-64 -365h-979l56 315l397 344h-319l63 365h930z" />
    <glyph glyph-name="Zdotaccent" unicode="&#x17b;" horiz-adv-x="1306" 
d="M778 1704q12 74 73.5 125t137.5 51q73 0 115.5 -51t30.5 -125q-13 -76 -74 -128t-135 -52q-76 0 -119 51.5t-29 128.5zM1464 1434l-63 -361l-696 -704h626l-65 -369h-1225l63 360l699 705h-557l63 369h1155z" />
    <glyph glyph-name="zdotaccent" unicode="&#x17c;" horiz-adv-x="1019" 
d="M561 1294q14 74 75.5 125t137.5 51q74 0 115.5 -51.5t28.5 -124.5q-12 -76 -72.5 -128t-134.5 -52q-76 0 -119 51.5t-31 128.5zM1147 1024l-55 -315l-398 -344h369l-64 -365h-979l56 315l397 344h-319l63 365h930z" />
    <glyph glyph-name="Zcaron" unicode="&#x17d;" horiz-adv-x="1306" 
d="M598 1884h272l82 -176l135 176h285l-332 -360h-237zM1464 1434l-63 -361l-696 -704h626l-65 -369h-1225l63 360l699 705h-557l63 369h1155z" />
    <glyph glyph-name="zcaron" unicode="&#x17e;" horiz-adv-x="1019" 
d="M383 1475h272l82 -177l135 177h285l-332 -361h-237zM1147 1024l-55 -315l-398 -344h369l-64 -365h-979l56 315l397 344h-319l63 365h930z" />
    <glyph glyph-name="longs" unicode="&#x17f;" horiz-adv-x="686" 
d="M868 1151h-104q-46 0 -72 -22t-35 -74l-186 -1055h-451l201 1137q27 158 134 237.5t278 79.5h289z" />
    <glyph glyph-name="florin" unicode="&#x192;" horiz-adv-x="882" 
d="M1063 1151h-105q-46 0 -71.5 -22t-34.5 -74l-6 -31h196l-63 -365h-197l-133 -751q-27 -158 -133.5 -238t-277.5 -80h-289l57 324h105q46 0 71.5 22t34.5 74l115 649h-94l63 365h94l21 113q27 158 133.5 237.5t277.5 79.5h289z" />
    <glyph glyph-name="uni0218" unicode="&#x218;" horiz-adv-x="1488" 
d="M586 494q-13 -76 48 -121t169 -45q245 0 262 98q2 15 -0.5 26.5t-12 21t-22 16.5t-34.5 13.5t-44 11.5t-57.5 10.5t-67.5 10.5t-80.5 13t-91.5 16q-126 23 -209 63.5t-123.5 95t-52 125t5.5 152.5q19 105 86.5 192t165 143.5t216 87t241.5 30.5q99 0 183 -13.5
t146.5 -38.5t112 -59.5t79.5 -77.5t49 -92t20.5 -102.5t-6.5 -109.5h-459q13 76 -34.5 110.5t-151.5 34.5q-71 0 -125 -24.5t-60 -63.5q-8 -42 10 -59q24 -22 156 -49q36 -8 132 -26l1 -1h1h1q112 -22 172.5 -36.5t140 -46.5t115.5 -71.5t56.5 -106t5.5 -155.5
q-19 -106 -76.5 -194t-151.5 -154t-232 -102.5t-308 -36.5q-125 0 -228 20t-174 55t-124 83.5t-78 105.5t-35 120.5t4 129.5h459zM575 -217q9 54 53.5 91.5t102.5 37.5q53 0 83.5 -37.5t21.5 -91.5q-6 -41 -31 -72l-160 -223h-119l113 172q-37 14 -54 46.5t-10 76.5z" />
    <glyph glyph-name="uni0219" unicode="&#x219;" horiz-adv-x="1155" 
d="M492 346q-8 -47 29.5 -75.5t125.5 -28.5q101 0 109 43q4 27 -37.5 43t-179.5 43q-199 40 -297.5 118.5t-75.5 212.5q16 91 75.5 160t144.5 107t176 56.5t186 18.5q105 0 190 -23t138 -60t86 -85t43 -98.5t1 -99.5h-409q18 104 -99 104q-39 0 -65.5 -12.5t-30.5 -36.5
q-5 -31 50 -50q43 -16 220 -48q87 -16 138 -31.5t105.5 -47t73.5 -85t5 -131.5q-29 -164 -196.5 -262t-419.5 -98q-116 0 -208 23t-149 60t-92 85.5t-45.5 98t-1.5 99.5h410zM408 -217q9 55 53 92t102 37q53 0 83.5 -37.5t21.5 -91.5q-6 -41 -31 -72l-160 -223h-119l113 172
q-37 14 -53.5 46.5t-9.5 76.5z" />
    <glyph glyph-name="uni021A" unicode="&#x21a;" horiz-adv-x="1359" 
d="M293 1434h1278l-64 -369h-411l-189 -1065h-454l188 1065h-412zM510 -217q9 54 53.5 91.5t102.5 37.5q53 0 83 -37.5t21 -91.5q-6 -41 -31 -72l-159 -223h-119l112 172q-37 14 -53.5 46.5t-9.5 76.5z" />
    <glyph glyph-name="uni021B" unicode="&#x21b;" horiz-adv-x="813" 
d="M201 1024h106l43 246h451l-43 -246h215l-64 -365h-215l-43 -239q-9 -52 9.5 -74t64.5 -22h125l-57 -324h-310q-171 0 -249.5 79.5t-51.5 237.5l62 342h-107zM319 -217q9 54 53.5 91.5t102.5 37.5q53 0 83.5 -37.5t21.5 -91.5q-6 -41 -31 -72l-160 -223h-119l113 172
q-37 14 -54 46.5t-10 76.5z" />
    <glyph glyph-name="uni0237" unicode="&#x237;" horiz-adv-x="532" 
d="M250 1298q17 99 100 168.5t187 69.5q98 0 155.5 -70t40.5 -168q-19 -104 -100 -174.5t-180 -70.5q-104 0 -163 70.5t-40 174.5zM-168 -86h105q46 0 71.5 22t34.5 74l178 1014h451l-197 -1116q-27 -158 -134 -238t-278 -80h-288z" />
    <glyph glyph-name="circumflex" unicode="&#x2c6;" horiz-adv-x="897" 
d="M258 1114l332 361h237l205 -361h-258l-78 176l-139 -176h-299z" />
    <glyph glyph-name="caron" unicode="&#x2c7;" horiz-adv-x="897" 
d="M322 1475h272l82 -177l135 177h285l-332 -361h-238z" />
    <glyph glyph-name="uni02C9" unicode="&#x2c9;" horiz-adv-x="737" 
d="M303 1372h615l-35 -205h-615z" />
    <glyph glyph-name="breve" unicode="&#x2d8;" horiz-adv-x="851" 
d="M326 1495h202q-14 -73 16.5 -123.5t114.5 -50.5t131.5 50t61.5 124h203q-15 -83 -48 -149t-76 -108.5t-96 -71t-105 -40.5t-107 -12t-103 12.5t-91.5 40t-70 71.5t-38 108t5.5 149z" />
    <glyph glyph-name="dotaccent" unicode="&#x2d9;" horiz-adv-x="481" 
d="M291 1294q14 74 75.5 125t137.5 51q73 0 115 -51t28 -125q-12 -76 -72.5 -128t-134.5 -52q-76 0 -118.5 51.5t-30.5 128.5z" />
    <glyph glyph-name="ring" unicode="&#x2da;" horiz-adv-x="757" 
d="M311 1401q22 129 132 222t239 93t205.5 -93t54.5 -222q-23 -129 -133.5 -222.5t-239.5 -93.5t-205 93.5t-53 222.5zM498 1401q-9 -51 22.5 -90t81.5 -39q51 0 98 39t56 90q8 51 -24 90t-83 39q-50 0 -97 -39.5t-54 -89.5z" />
    <glyph glyph-name="ogonek" unicode="&#x2db;" horiz-adv-x="606" 
d="M311 80l95 -88q-82 -73 -126.5 -126t-52.5 -104q-7 -38 10.5 -57.5t59 -20t87.5 7.5t112 25l-37 -204q-54 -13 -115.5 -18t-127 2t-115.5 27t-77 64t-16 107q4 22 13 45.5t19.5 43.5t28.5 45t30.5 42t36.5 42.5t36 38.5t38.5 37.5t35.5 32.5t35.5 31.5t29.5 26.5z" />
    <glyph glyph-name="tilde" unicode="&#x2dc;" horiz-adv-x="1007" 
d="M702 1157q-33 16 -49 23.5t-40 17t-35 11t-28 2t-26.5 -6t-22.5 -17.5t-23.5 -28t-22.5 -41l-185 68q48 90 97.5 145.5t108 82.5t127.5 19t151 -49q47 -24 72.5 -34.5t54.5 -17t47 2t36 29.5t35 59l187 -69q-67 -125 -141.5 -185t-158.5 -60.5t-184 48.5z" />
    <glyph glyph-name="hungarumlaut" unicode="&#x2dd;" horiz-adv-x="876" 
d="M629 1114l178 361h268l-223 -361h-223zM258 1114l178 361h269l-224 -361h-223z" />
    <glyph glyph-name="uni0326" unicode="&#x326;" horiz-adv-x="385" 
d="M23 -217q9 55 53 92t102 37q53 0 83.5 -37.5t21.5 -91.5q-6 -41 -31 -72l-160 -223h-119l113 172q-37 14 -53.5 46.5t-9.5 76.5z" />
    <glyph glyph-name="uni0394" unicode="&#x394;" horiz-adv-x="1562" 
d="M20 0l826 1434h375l321 -1434h-1522zM573 348h539l-151 674z" />
    <glyph glyph-name="uni03A9" unicode="&#x3a9;" horiz-adv-x="1738" 
d="M991 348q81 33 142 72t98.5 77.5t63 87.5t38.5 91.5t23 101.5q26 142 -59 224.5t-238 82.5q-152 0 -264 -82t-138 -225q-10 -59 -13 -101.5t5.5 -91.5t32 -87.5t70 -77.5t116.5 -72l-24 -143l-37 -205h-746l62 348h336q-305 182 -252 471q27 154 111.5 276.5t208.5 200
t276 118t321 40.5q135 0 251 -25t209 -77t153.5 -126.5t84 -178.5t1.5 -228q-54 -292 -420 -471h334l-62 -348h-745z" />
    <glyph glyph-name="uni03BC" unicode="&#x3bc;" horiz-adv-x="1312" 
d="M1376 365l-63 -365h-279q-233 0 -248 180q-115 -155 -297 -190l-69 -400h-451l187 1065h2l63 369h451l-92 -522q-13 -80 7.5 -119t88.5 -39q124 0 151 158l4 14l37 221l52 287h450l-96 -543q-10 -68 9.5 -92t80.5 -24h12z" />
    <glyph glyph-name="pi" unicode="&#x3c0;" horiz-adv-x="1337" 
d="M242 1024h1214l-180 -1024h-455l115 655h-166l-233 -655h-455l233 655h-139z" />
    <glyph glyph-name="Wgrave" unicode="&#x1e80;" horiz-adv-x="2277" 
d="M1501 1524h-223l-104 360h268zM471 0l-178 1434h434l72 -875l375 875h413l68 -875l379 875h454l-702 -1434h-475l-58 709l-307 -709h-475z" />
    <glyph glyph-name="wgrave" unicode="&#x1e81;" horiz-adv-x="1763" 
d="M1171 1114h-223l-104 361h268zM201 1024h452l11 -485l213 485h370l41 -485l182 485h453l-487 -1024h-432l-31 508l-213 -508h-432z" />
    <glyph glyph-name="Wacute" unicode="&#x1e82;" horiz-adv-x="2277" 
d="M1319 1524l178 360h268l-223 -360h-223zM471 0l-178 1434h434l72 -875l375 875h413l68 -875l379 875h454l-702 -1434h-475l-58 709l-307 -709h-475z" />
    <glyph glyph-name="wacute" unicode="&#x1e83;" horiz-adv-x="1763" 
d="M989 1114l178 361h269l-224 -361h-223zM201 1024h452l11 -485l213 485h370l41 -485l182 485h453l-487 -1024h-432l-31 508l-213 -508h-432z" />
    <glyph glyph-name="Wdieresis" unicode="&#x1e84;" horiz-adv-x="2277" 
d="M1028 1706q12 74 73.5 125t137.5 51q73 0 115 -51t30 -125q-13 -76 -73.5 -128t-134.5 -52q-76 0 -119 51.5t-29 128.5zM1499 1706q12 74 73.5 125t137.5 51q73 0 115 -51t30 -125q-13 -76 -73.5 -128t-134.5 -52q-76 0 -119 51.5t-29 128.5zM471 0l-178 1434h434
l72 -875l375 875h413l68 -875l379 875h454l-702 -1434h-475l-58 709l-307 -709h-475z" />
    <glyph glyph-name="wdieresis" unicode="&#x1e85;" horiz-adv-x="1763" 
d="M698 1296q12 74 73.5 125.5t137.5 51.5q73 0 115.5 -51.5t30.5 -125.5q-13 -76 -74 -128t-135 -52q-76 0 -119 51.5t-29 128.5zM1169 1296q12 74 73.5 125.5t137.5 51.5q73 0 115.5 -51.5t30.5 -125.5q-13 -76 -74 -128t-135 -52q-76 0 -119 51.5t-29 128.5zM201 1024
h452l11 -485l213 485h370l41 -485l182 485h453l-487 -1024h-432l-31 508l-213 -508h-432z" />
    <glyph glyph-name="endash" unicode="&#x2013;" horiz-adv-x="942" 
d="M176 655h819l-49 -286h-819z" />
    <glyph glyph-name="emdash" unicode="&#x2014;" horiz-adv-x="1146" 
d="M176 655h1024l-49 -286h-1024z" />
    <glyph glyph-name="quoteleft" unicode="&#x2018;" horiz-adv-x="606" 
d="M705 905q-17 -99 -100.5 -168t-188.5 -69q-98 0 -155 69.5t-40 167.5q12 77 64 139l290 410h222l-207 -319q66 -26 97 -87.5t18 -142.5z" />
    <glyph glyph-name="quoteright" unicode="&#x2019;" horiz-adv-x="606" 
d="M276 1217q17 99 99.5 168t187.5 69q98 0 156 -69.5t41 -167.5q-15 -74 -62 -134l-295 -415h-221l209 319q-66 27 -98 88.5t-17 141.5z" />
    <glyph glyph-name="quotesinglbase" unicode="&#x201a;" horiz-adv-x="417" 
 />
    <glyph glyph-name="quotedblleft" unicode="&#x201c;" horiz-adv-x="1159" 
d="M1257 905q-17 -99 -100 -168t-188 -69q-98 0 -155 69.5t-40 167.5q12 77 64 139l290 410h222l-207 -319q66 -26 96.5 -87.5t17.5 -142.5zM705 905q-17 -99 -100.5 -168t-188.5 -69q-98 0 -155 69.5t-40 167.5q12 77 64 139l290 410h222l-207 -319q66 -26 97 -87.5
t18 -142.5z" />
    <glyph glyph-name="quotedblright" unicode="&#x201d;" horiz-adv-x="1159" 
d="M276 1217q17 99 99.5 168t187.5 69q98 0 156 -69.5t41 -167.5q-15 -80 -66 -140l-291 -409h-221l207 319q-65 27 -95.5 88t-17.5 142zM829 1217q17 99 99.5 168t187.5 69q98 0 156 -69.5t41 -167.5q-15 -80 -66 -140l-291 -409h-221l207 319q-65 27 -95.5 88t-17.5 142z
" />
    <glyph glyph-name="quotedblbase" unicode="&#x201e;" horiz-adv-x="778" 
d="M18 -123l80 451h328l-172 -451h-236zM387 -123l80 451h328l-172 -451h-236z" />
    <glyph glyph-name="dagger" unicode="&#x2020;" horiz-adv-x="858" 
d="M500 1434h362l-71 -410h206l-63 -362h-207l-188 -1072h-363l189 1072h-207l63 362h207z" />
    <glyph glyph-name="daggerdbl" unicode="&#x2021;" horiz-adv-x="858" 
d="M250 1188h207l43 246h362l-43 -246h207l-63 -363h-207l-111 -626h207l-64 -363h-206l-43 -246h-363l43 246h-207l64 363h207l110 626h-207z" />
    <glyph glyph-name="bullet" unicode="&#x2022;" horiz-adv-x="567" 
d="M152 514q17 93 92.5 156t171.5 63q92 0 144.5 -63.5t35.5 -155.5q-17 -96 -91 -160.5t-167 -64.5q-97 0 -150 64t-36 161z" />
    <glyph glyph-name="ellipsis" unicode="&#x2026;" horiz-adv-x="1818" 
d="M100 225q19 99 101.5 168.5t187.5 69.5q98 0 156 -70t39 -168q-19 -105 -100.5 -175t-180.5 -70q-106 0 -164 69.5t-39 175.5zM707 225q19 100 101.5 169t186.5 69q98 0 156 -70t39 -168q-19 -105 -100.5 -175t-180.5 -70q-106 0 -163.5 69.5t-38.5 175.5zM1313 225
q19 99 101.5 168.5t187.5 69.5q98 0 155.5 -70t38.5 -168q-19 -105 -100 -175t-180 -70q-106 0 -164 69.5t-39 175.5z" />
    <glyph glyph-name="perthousand" unicode="&#x2030;" horiz-adv-x="3088" 
d="M275 686q-91 117 -54 326t168.5 325.5t331.5 116.5q201 0 292 -116.5t54 -325.5t-169 -326t-333 -117q-199 0 -290 117zM653 0l826 1434h280l-825 -1434h-281zM682 1233q-77 0 -122 -56t-64 -165t6 -165t102 -56q150 0 189 221t-111 221zM1400 97q-91 116 -54 325
t168.5 325.5t330.5 116.5q201 0 292 -116.5t54 -325.5t-168.5 -325.5t-332.5 -116.5q-200 0 -290 117zM2327 97q-91 116 -54 325t168.5 325.5t331.5 116.5q201 0 292 -116.5t54 -325.5t-169 -325.5t-333 -116.5q-200 0 -290 117zM1806 643q-77 0 -122 -56t-64 -165
q-39 -221 109 -221q149 0 188 221t-111 221zM2734 643q-77 0 -122 -56t-64 -165t6 -165t102 -56q150 0 189 221t-111 221z" />
    <glyph glyph-name="guilsinglleft" unicode="&#x2039;" horiz-adv-x="763" 
d="M152 512l366 492h361l-385 -508l192 -476h-340z" />
    <glyph glyph-name="guilsinglright" unicode="&#x203a;" horiz-adv-x="763" 
d="M793 512l-367 -492h-360l385 508l-193 476h340z" />
    <glyph glyph-name="fraction" unicode="&#x2044;" horiz-adv-x="935" 
d="M41 0l825 1434h281l-825 -1434h-281z" />
    <glyph glyph-name="Euro" unicode="&#x20ac;" horiz-adv-x="1755" 
d="M791 717q-1 -5 -2.5 -15.5t-2.5 -15.5h426l-36 -205h-369q33 -71 98.5 -102t145.5 -31q111 0 203 73t112 179h455q-15 -86 -58.5 -172.5t-118 -167t-169.5 -143t-222.5 -100t-267.5 -37.5q-179 0 -321 59t-231 173t-109 269h-199l37 205h166q1 5 2 15.5t2 15.5
q3 22 10 51h-166l37 205h205q116 225 339 353t488 128q89 0 168 -15t140 -42t113 -65t87.5 -83t62.5 -95.5t38.5 -104t15 -108t-7.5 -107.5h-455q19 106 -48 178.5t-179 72.5q-166 0 -273 -112h357l-37 -205h-426q-2 -9 -5 -26t-5 -25z" />
    <glyph glyph-name="trademark" unicode="&#x2122;" horiz-adv-x="1691" 
d="M315 1434h637l-30 -185h-207l-92 -532h-228l92 532h-202zM1004 1434h227l131 -465l293 465h227l-125 -717h-217l57 330l-198 -330h-160l-86 334l-57 -334h-217z" />
    <glyph glyph-name="partialdiff" unicode="&#x2202;" horiz-adv-x="1312" 
d="M950 1434l363 -682q2 -4 7 -12.5t7 -12.5v-2q52 -111 29 -246q-26 -148 -125 -262t-249.5 -175.5t-328.5 -61.5q-170 0 -299 61t-192 176t-37 262q21 121 96.5 222t186.5 166.5t245 93.5l-264 473h561zM715 324q68 0 121 42.5t65 112.5q13 70 -25 113t-106 43
q-69 0 -123 -43t-67 -113q-12 -70 27 -112.5t108 -42.5z" />
    <glyph glyph-name="product" unicode="&#x220f;" horiz-adv-x="1234" 
d="M313 1434h1112l-323 -1844h-352l262 1495h-408l-262 -1495h-352z" />
    <glyph glyph-name="summation" unicode="&#x2211;" horiz-adv-x="1030" 
d="M1241 1434l-53 -308h-473l137 -614l-354 -614h473l-53 -308h-949l531 922l-207 922h948z" />
    <glyph glyph-name="minus" unicode="&#x2212;" horiz-adv-x="819" 
d="M176 655h696l-49 -286h-696z" />
    <glyph glyph-name="uni2215" unicode="&#x2215;" horiz-adv-x="1058" 
d="M41 0l948 1434h281l-948 -1434h-281z" />
    <glyph glyph-name="uni2219" unicode="&#x2219;" horiz-adv-x="606" 
d="M152 512q17 99 100 168.5t188 69.5q98 0 155 -70t40 -168q-19 -105 -100.5 -175.5t-180.5 -70.5q-106 0 -163.5 70t-38.5 176z" />
    <glyph glyph-name="radical" unicode="&#x221a;" horiz-adv-x="1671" 
d="M156 649h561l90 -481l713 1266h362l-942 -1639h-403l-109 508h-334z" />
    <glyph glyph-name="infinity" unicode="&#x221e;" horiz-adv-x="1255" 
d="M1298 594q-25 -141 -141 -240.5t-256 -99.5q-139 0 -209 100q-108 -100 -246 -100q-141 0 -223 99.5t-57 240.5q25 140 141.5 240t257.5 100q137 0 211 -103q103 103 244 103q139 0 221 -100t57 -240zM821 594q-10 -58 24 -99.5t93 -41.5q57 0 105.5 41.5t58.5 99.5
t-24 99.5t-91 41.5q-58 0 -106.5 -41t-59.5 -100zM649 586q11 59 -22.5 100t-91.5 41q-59 0 -108.5 -41.5t-59.5 -99.5q-9 -59 24.5 -100.5t91.5 -41.5q59 0 108 42t58 100z" />
    <glyph glyph-name="integral" unicode="&#x222b;" horiz-adv-x="794" 
d="M967 1090q-51 0 -84 -7.5t-50.5 -24.5t-25 -35.5t-12.5 -49.5l-185 -1045q-11 -63 -19.5 -100t-26 -77t-36 -60.5t-55 -41.5t-78 -30t-110.5 -17t-145.5 -10t-190.5 -2l63 365q51 0 84 7.5t50.5 24.5t25 35.5t12.5 49.5l185 1044q11 63 19.5 100t26 77t36 60.5t55 41.5
t78 30t110.5 17t145.5 10t190.5 2z" />
    <glyph glyph-name="approxequal" unicode="&#x2248;" horiz-adv-x="1267" 
d="M231 862q79 139 161.5 201t186.5 60.5t252 -66.5q41 -18 60 -26t48.5 -20t41.5 -15.5t32.5 -9t28 -4.5t21.5 3t20 7.5t16.5 14.5t18 20.5t17.5 27.5l28 47l221 -96l-26 -48q-79 -139 -161.5 -200.5t-185.5 -59t-251 67.5q-47 20 -72 30.5t-56.5 22t-46 15t-34.5 5
t-29.5 -3t-22.5 -13t-22.5 -21.5t-21.5 -33l-29 -49l-221 96z" />
    <glyph glyph-name="notequal" unicode="&#x2260;" horiz-adv-x="937" 
d="M27 -205l180 369h-57l51 287h147l62 122h-189l51 287h279l180 369h363l-181 -369h56l-51 -287h-146l-61 -122h186l-51 -287h-277l-180 -369h-362z" />
    <glyph glyph-name="lessequal" unicode="&#x2264;" horiz-adv-x="892" 
d="M217 997l891 457l-70 -389l-415 -188l350 -191l-62 -346l-729 457zM92 287h811l-51 -287h-811z" />
    <glyph glyph-name="greaterequal" unicode="&#x2265;" horiz-adv-x="892" 
d="M1028 997l-35 -200l-893 -457l70 387l416 191l-350 188l61 348l616 -385h2zM903 287l-51 -287h-811l51 287h811z" />
    <glyph glyph-name="uni24C5" unicode="&#x24c5;" horiz-adv-x="1599" 
d="M190 715q27 150 109 287t198 236t263 157.5t297 58.5t276 -58.5t207.5 -157.5t116.5 -236t8 -287q-35 -200 -164.5 -369t-316.5 -267.5t-387 -98.5q-201 0 -353 98.5t-220.5 267.5t-33.5 369zM297 715q-30 -170 28.5 -315t188.5 -229.5t301 -84.5t332 84.5t271.5 229.5
t140.5 315q22 128 -7.5 245t-99 202t-178 135.5t-236.5 50.5q-171 0 -331 -85t-270 -231t-140 -317zM1077 1067q36 0 70 -5.5t69.5 -21.5t59.5 -41t35 -67t2 -96q-12 -66 -48.5 -117t-85 -78.5t-96.5 -41t-92 -13.5h-155l-39 -221h-224l125 702h379zM866 754h135q73 0 84 73
q12 72 -59 72h-135z" />
    <glyph glyph-name="lozenge" unicode="&#x25ca;" horiz-adv-x="1153" 
d="M111 510l530 924h375l207 -924l-531 -920h-375zM870 510l-114 510l-293 -510l115 -508z" />
    <glyph glyph-name="fi" unicode="&#xfb01;" horiz-adv-x="1314" 
d="M1038 1298q17 99 100 168.5t187 69.5q98 0 156 -70t41 -168q-19 -104 -100.5 -174.5t-180.5 -70.5q-104 0 -163 70.5t-40 174.5zM963 1151h-105q-46 0 -71.5 -22t-34.5 -74l-7 -31h709l-180 -1024h-451l117 659h-258l-117 -659h-450l116 659h-94l64 365h94l20 113
q27 158 134 237.5t278 79.5h289z" />
    <glyph glyph-name="fl" unicode="&#xfb02;" horiz-adv-x="1396" 
d="M1358 481q-12 -67 8 -91.5t82 -24.5h12l-63 -365h-279q-150 0 -209 74.5t-32 222.5l149 854h-168q-46 0 -71.5 -22t-34.5 -74l-7 -31h136l-64 -365h-135l-117 -659h-450l116 659h-94l64 365h94l20 113q27 158 134 237.5t278 79.5h803z" />
    <glyph glyph-name="zero.lnum_tnum" horiz-adv-x="1638" 
d="M329 175q-151 194 -89 542t281 542.5t552 194.5q334 0 487 -195t91 -542q-62 -348 -283 -542.5t-555 -194.5q-333 0 -484 195zM1181 992q-44 93 -173 93t-203.5 -93t-106.5 -275q-33 -182 9.5 -275.5t171.5 -93.5t204.5 93t108.5 276q32 182 -11 275z" />
    <glyph glyph-name="one.lnum_tnum" horiz-adv-x="1638" 
d="M1200 1434h322l-252 -1434h-455l176 1004l-340 -146l-76 309z" />
    <glyph glyph-name="two.lnum_tnum" horiz-adv-x="1638" 
d="M334 369l612 448q69 50 100 90t39 84q6 36 -0.5 60.5t-23.5 35.5t-33 15t-35 4q-74 0 -109 -54.5t-55 -172.5h-458q12 69 34.5 133.5t59 131.5t91 121.5t124.5 97.5t166 67t209 24q60 0 115 -7t110.5 -22.5t99.5 -41t82 -63t58.5 -88t28.5 -116t-9 -147.5
q-4 -26 -13 -54.5t-39 -81.5t-75 -106t-128 -124.5t-191 -141.5l-144 -92h537l-66 -369h-1153z" />
    <glyph glyph-name="three.lnum_tnum" horiz-adv-x="1433" 
d="M639 578l49 282h154q106 0 127 129q11 60 -8.5 88.5t-73.5 28.5q-46 0 -76 -33t-47 -133h-459q19 108 69.5 200t129.5 163t194 111t252 40q112 0 205 -27t157.5 -77t93 -128.5t11.5 -174.5q-18 -103 -78 -183t-151 -131q111 -42 165.5 -124.5t32.5 -205.5
q-22 -127 -113.5 -223t-232 -147t-309.5 -51q-88 0 -163.5 14.5t-131.5 41t-101.5 62.5t-73 79.5t-45.5 92t-19 100t6 103.5h459q-12 -70 18.5 -107.5t97.5 -37.5q69 0 109.5 39t50.5 98q10 56 -13.5 83.5t-70.5 27.5h-215z" />
    <glyph glyph-name="four.lnum_tnum" horiz-adv-x="1638" 
d="M1104 1434h455l-138 -779h164l-53 -307h-164l-61 -348h-455l61 348h-686l49 277zM692 655h275l57 328z" />
    <glyph glyph-name="five.lnum_tnum" horiz-adv-x="1638" 
d="M354 526l262 908h949l-64 -369h-536l-52 -180q85 33 185 33q62 0 124 -17t118.5 -54t96.5 -89t57 -128.5t1 -166.5q-38 -216 -221.5 -349.5t-437.5 -133.5q-171 0 -300 56t-193.5 166.5t-39.5 256.5h455q-10 -64 21.5 -99.5t97.5 -35.5q139 0 159 122q12 64 -15.5 95.5
t-84.5 31.5q-61 0 -127 -47h-455z" />
    <glyph glyph-name="six.lnum_tnum" horiz-adv-x="1638" 
d="M1028 1434h561l-430 -473q190 -42 290 -171t69 -311q-26 -147 -129.5 -262t-254.5 -176t-321 -61q-271 0 -418 137.5t-108 361.5q24 140 114 246zM874 324q70 0 123.5 42.5t65.5 112.5q13 70 -25.5 113t-107.5 43q-68 0 -122 -43t-67 -113q-12 -70 26.5 -112.5
t106.5 -42.5z" />
    <glyph glyph-name="seven.lnum_tnum" horiz-adv-x="1638" 
d="M1597 1434l-63 -361l-672 -1073h-497l679 1065h-563l64 369h1052z" />
    <glyph glyph-name="eight.lnum_tnum" horiz-adv-x="1638" 
d="M1075 1454q247 0 387 -112t107 -298q-33 -183 -238 -303q94 -57 139.5 -141t26.5 -190q-23 -132 -125 -231.5t-247.5 -149t-309.5 -49.5q-122 0 -226 29.5t-178 83t-108.5 136t-17.5 181.5q19 106 94 190t188 141q-162 119 -129 303q22 124 112 217.5t226.5 143
t298.5 49.5zM884 923q27 -34 93 -34t104 33.5t45 76.5q7 44 -18.5 77.5t-91.5 33.5t-105.5 -34t-46.5 -77t20 -76zM774 362q34 -38 103 -38t117 38t57 93q9 54 -25 90.5t-104 36.5t-117.5 -36.5t-56.5 -90.5q-9 -55 26 -93z" />
    <glyph glyph-name="nine.lnum_tnum" horiz-adv-x="1638" 
d="M883 0h-561l413 471q-192 43 -293.5 171.5t-68.5 311.5q26 147 129.5 262t254 176.5t320.5 61.5q271 0 418.5 -138t108.5 -362q-24 -137 -115 -245zM1016 1110q-69 0 -123 -43t-66 -113q-13 -70 26 -112.5t108 -42.5q68 0 121.5 42.5t66.5 112.5q12 70 -26.5 113
t-106.5 43z" />
    </font>
</defs>
</svg>
