<?xml version="1.0" standalone="no"?>
<!DOCTYPE svg PUBLIC "-//W3C//DTD SVG 1.1//EN" "http://www.w3.org/Graphics/SVG/1.1/DTD/svg11.dtd" >
<svg xmlns="http://www.w3.org/2000/svg" xmlns:xlink="http://www.w3.org/1999/xlink" version="1.1">
<metadata>
Created by FontForge 20230101 at Sat May 29 15:16:17 2021
 By Unknown
Tour de Force Font Foundry &#38; Dusan Jelesijevic
</metadata>
<defs>
<font id="Lupio-Light" horiz-adv-x="1282" >
  <font-face 
    font-family="Lupio Light"
    font-weight="300"
    font-stretch="normal"
    units-per-em="2048"
    panose-1="0 0 0 0 0 0 0 0 0 0"
    ascent="1638"
    descent="-410"
    x-height="1024"
    cap-height="1434"
    bbox="-227 -512 2851 2005"
    underline-thickness="102"
    underline-position="-358"
    unicode-range="U+000D-FB02"
  />
<missing-glyph horiz-adv-x="1024" 
 />
    <glyph glyph-name=".notdef" horiz-adv-x="1024" 
 />
    <glyph glyph-name="uni0000" horiz-adv-x="0" 
 />
    <glyph glyph-name="uni000D" unicode="&#xd;" horiz-adv-x="512" 
 />
    <glyph glyph-name="space" unicode=" " horiz-adv-x="532" 
 />
    <glyph glyph-name="exclam" unicode="!" horiz-adv-x="516" 
d="M184 1436h148v-506l-13 -481h-120l-15 481v506zM135 104q0 52 36 87.5t89 35.5q52 0 87.5 -35.5t35.5 -87.5q0 -54 -35 -89t-88 -35t-89 35t-36 89z" />
    <glyph glyph-name="quotedbl" unicode="&#x22;" horiz-adv-x="716" 
d="M180 983v451h113l-31 -451h-82zM426 983v451h113l-31 -451h-82z" />
    <glyph glyph-name="numbersign" unicode="#" horiz-adv-x="1390" 
d="M119 475h227l70 483h-297v107h311l53 369h107l-53 -369h411l53 369h111l-53 -369h215v-107h-230l-69 -483h299v-106h-313l-54 -369h-110l53 369h-412l-53 -369h-106l53 369h-213v106zM453 475h411l70 483h-412z" />
    <glyph glyph-name="dollar" unicode="$" horiz-adv-x="1519" 
d="M692 1843h123v-389q149 -6 260 -48t173 -108.5t91 -143t29 -163.5h-151q0 57 -13.5 105.5t-46.5 93t-84.5 75.5t-131 49.5t-181.5 18.5q-194 0 -305 -65.5t-111 -202.5q0 -35 6.5 -63.5t22.5 -52t34.5 -41.5t52 -33.5t66 -27t84 -23.5t98.5 -21t117 -21q215 -37 280 -55
q171 -48 234 -147q47 -75 47 -189q0 -176 -138.5 -287.5t-411.5 -121.5v-392h-123v392q-150 8 -265 51t-182 109.5t-100 144t-33 162.5h152q0 -71 27.5 -131.5t84 -110t153.5 -77.5t226 -28q226 0 342.5 73.5t116.5 205.5q0 31 -6 57t-15.5 46t-28 37t-35.5 29t-48 22.5
t-54.5 17.5t-65 15t-71.5 12.5t-81.5 13t-86.5 14.5q-114 20 -193.5 41.5t-151 54.5t-114 75.5t-67 104.5t-24.5 142q0 175 136.5 276t362.5 115v389z" />
    <glyph glyph-name="percent" unicode="%" horiz-adv-x="2074" 
d="M221 687q-102 117 -102 325t101 325t276 117q174 0 275 -117t101 -325t-101 -325.5t-275 -117.5t-275 118zM702 0l572 1434h96l-571 -1434h-97zM496 1380q-135 0 -211 -97t-76 -271t76 -271.5t211 -97.5q134 0 210 97.5t76 271.5t-76 271t-210 97zM1301 97
q-101 117 -101 325t101 325t276 117t276 -117t101 -325t-101 -325t-276 -117t-276 117zM1577 791q-135 0 -211 -97.5t-76 -271.5t76 -271.5t211 -97.5q134 0 210.5 97.5t76.5 271.5t-76.5 271.5t-210.5 97.5z" />
    <glyph glyph-name="ampersand" unicode="&#x26;" horiz-adv-x="1501" 
d="M1405 657h-209v-223q0 -69 -17.5 -132.5t-57.5 -122.5t-99.5 -103t-150.5 -70t-203 -26q-89 0 -168 15t-146.5 47t-116.5 78.5t-76.5 113.5t-27.5 149q0 139 80 223t221 115q-219 73 -219 342q0 96 38.5 172t106.5 123t156.5 71.5t192.5 24.5q110 0 196.5 -25t140 -65
t88.5 -95t48.5 -108.5t13.5 -111.5h-152q0 282 -333 282q-156 0 -250 -66.5t-94 -207.5q0 -140 67.5 -208.5t210.5 -68.5h760v-123zM1044 657h-423q-336 0 -336 -260q0 -80 32 -139t87.5 -92t122 -48.5t145.5 -15.5q102 0 177 28t116 76.5t60 105t19 122.5v223z" />
    <glyph glyph-name="quotesingle" unicode="'" horiz-adv-x="471" 
d="M180 983v451h113l-31 -451h-82z" />
    <glyph glyph-name="parenleft" unicode="(" horiz-adv-x="747" 
d="M287 522q0 -112 14 -212t33.5 -172t54.5 -140.5t61 -109t68.5 -86t63 -63.5t58.5 -49q17 -14 24 -20l-72 -80q-35 22 -67 45.5t-78.5 67.5t-85 94t-79 125.5t-68.5 160t-46 198.5t-18 241t18 241.5t45 198t67 159t76 124t80 92.5t70.5 64.5t56.5 40.5l72 -80
q-7 -7 -38 -35.5t-51.5 -49t-56 -64t-60 -85t-53.5 -107t-47 -135.5t-30 -164.5t-12 -199.5z" />
    <glyph glyph-name="parenright" unicode=")" horiz-adv-x="747" 
d="M463 522q0 105 -12 199.5t-30 164.5t-47 135.5t-53.5 107t-60 85t-56 64t-51.5 49t-38 35.5l71 80q30 -20 56.5 -40.5t70.5 -64.5t80 -92.5t76 -124t67.5 -159t45.5 -198t18 -241.5t-18 -241t-46 -198.5t-68.5 -160t-79 -125.5t-85 -94t-78.5 -67.5t-67 -45.5l-72 80
q7 6 24 20q36 30 58 49t64 63.5t68.5 86t60.5 109t54 140t34 172.5t14 212z" />
    <glyph glyph-name="asterisk" unicode="*" horiz-adv-x="1093" 
d="M240 805l256 276l-342 174l45 78l323 -209l-20 400h90l-23 -400l324 209l45 -78l-340 -174l254 -276l-68 -57l-237 315l-238 -315z" />
    <glyph glyph-name="plus" unicode="+" horiz-adv-x="1003" 
d="M154 563h297v297h102v-297h297v-102h-297v-297h-102v297h-297v102z" />
    <glyph glyph-name="comma" unicode="," horiz-adv-x="561" 
d="M393 45l-145 -268h-82l90 205q-45 9 -73.5 44.5t-28.5 82.5q0 53 37 88.5t92 35.5q53 0 89 -36t36 -88q0 -27 -15 -64z" />
    <glyph glyph-name="hyphen" unicode="-" horiz-adv-x="921" 
d="M154 563h614v-102h-614v102z" />
    <glyph glyph-name="period" unicode="." horiz-adv-x="561" 
d="M154 109q0 53 37 88.5t92 35.5q53 0 89 -36t36 -88q0 -55 -36 -92t-89 -37q-55 0 -92 37t-37 92z" />
    <glyph glyph-name="slash" unicode="/" horiz-adv-x="802" 
d="M119 0l450 1434h117l-450 -1434h-117z" />
    <glyph glyph-name="zero" unicode="0" horiz-adv-x="1554" 
d="M320 176q-170 196 -170 541t169.5 541t458.5 196q291 0 460 -196t169 -541t-169 -541t-460 -196q-289 0 -458 196zM1129 1170q-126 161 -351 161t-351 -161.5t-126 -452.5t126 -453t351 -162t351 162t126 453t-126 453z" />
    <glyph glyph-name="one" unicode="1" horiz-adv-x="952" 
d="M662 1434h106v-1434h-147v1278l-492 -225l-47 114z" />
    <glyph glyph-name="two" unicode="2" horiz-adv-x="1380" 
d="M186 123l521 465q97 86 154.5 146.5t88 112t40 92t9.5 97.5q0 81 -28.5 140.5t-79.5 92.5t-112.5 48.5t-135.5 15.5q-81 0 -144.5 -22.5t-103 -59.5t-65 -89.5t-35.5 -106.5t-10 -115h-152q0 73 15 142.5t51.5 138.5t92.5 120t144.5 83t200.5 32q106 0 196 -24t162.5 -73
t114 -132.5t41.5 -194.5q0 -86 -27 -156.5t-109.5 -167.5t-238.5 -231l-409 -354h882v-123h-1063v123z" />
    <glyph glyph-name="three" unicode="3" horiz-adv-x="1339" 
d="M537 657v123h168q140 0 207 66.5t67 210.5q0 142 -94 211t-250 69q-97 0 -164 -27t-102 -77.5t-49.5 -109.5t-14.5 -136h-151q0 74 14.5 139.5t50 127t89 105.5t137.5 70.5t190 26.5q218 0 354.5 -100.5t136.5 -288.5q0 -246 -170 -338q118 -37 184 -121.5t66 -218.5
q0 -100 -42 -179t-115 -128t-168 -74.5t-205 -25.5q-135 0 -242 40t-171 107t-97 147.5t-33 167.5h152q0 -69 23 -128.5t69 -107.5t123.5 -76t177.5 -28q79 0 145 17t119 51t83 92t30 135q0 258 -334 258h-184z" />
    <glyph glyph-name="four" unicode="4" horiz-adv-x="1478" 
d="M950 1436h140v-904h286v-122h-286v-410h-148v410h-840v92zM281 532h661v734z" />
    <glyph glyph-name="five" unicode="5" horiz-adv-x="1271" 
d="M233 711l103 723h733v-123h-602l-66 -457q118 80 265 80q86 0 169.5 -32t151.5 -90t110 -150t42 -201t-41 -201t-110 -152.5t-158.5 -94t-188.5 -33.5t-190 33t-162 93t-113.5 152t-42.5 201h148q0 -159 106 -257t248 -98q143 0 247.5 97t104.5 256q0 106 -50.5 188
t-128.5 123t-169 41q-160 0 -258 -98h-148z" />
    <glyph glyph-name="six" unicode="6" horiz-adv-x="1312" 
d="M657 950q99 0 190 -34t162 -95t113.5 -154t42.5 -202t-42.5 -202t-113.5 -154t-162 -95t-190 -34q-135 0 -249.5 57.5t-186 170t-71.5 257.5q0 198 124 328l506 641h174l-385 -490q43 6 88 6zM657 102q144 0 250.5 99.5t106.5 263.5q0 165 -106 263.5t-251 98.5
q-68 0 -131.5 -24.5t-114 -69.5t-80.5 -114.5t-30 -153.5q0 -164 106.5 -263.5t249.5 -99.5z" />
    <glyph glyph-name="seven" unicode="7" horiz-adv-x="1110" 
d="M1028 1434v-115l-592 -1319h-166l600 1311h-788v123h946z" />
    <glyph glyph-name="eight" unicode="8" horiz-adv-x="1386" 
d="M328 1358q138 98 366 98t366 -98t138 -281q0 -118 -62 -204.5t-171 -133.5q126 -46 200 -138t74 -222q0 -99 -43.5 -176.5t-119.5 -125.5t-173 -72.5t-209 -24.5t-209 24.5t-172.5 72.5t-119 125.5t-43.5 176.5q0 130 74 222t200 138q-109 47 -171.5 133.5t-62.5 204.5
q0 183 138 281zM434 864q92 -67 260 -67t260.5 67t92.5 201t-92.5 201t-260.5 67t-260 -67t-92 -201t92 -201zM495 131q86 -29 199 -29t199.5 29t140 95t53.5 163q0 60 -20 108t-55 81t-85 54.5t-108 31.5t-125 10t-125 -10t-108 -31.5t-85 -54.5t-55 -81t-20 -108
q0 -97 53.5 -163t140.5 -95z" />
    <glyph glyph-name="nine" unicode="9" horiz-adv-x="1312" 
d="M659 487q-99 0 -191 34t-162.5 94.5t-113 153t-42.5 202.5t42.5 202.5t113 153.5t162.5 95t191 34q135 0 249 -57.5t185.5 -170t71.5 -257.5q0 -189 -123 -322l-505 -649h-175l388 496q-65 -9 -91 -9zM659 1333q-145 0 -251.5 -98.5t-106.5 -263.5q0 -110 52 -194.5
t132.5 -126.5t173.5 -42q143 0 249 99.5t106 263.5q0 111 -52 195.5t-131.5 125.5t-171.5 41z" />
    <glyph glyph-name="colon" unicode=":" horiz-adv-x="561" 
d="M154 920q0 53 37 88.5t92 35.5q53 0 89 -36t36 -88q0 -55 -36 -92t-89 -37q-55 0 -92 36.5t-37 92.5zM154 109q0 53 37 88.5t92 35.5q53 0 89 -36t36 -88q0 -55 -36 -92t-89 -37q-55 0 -92 37t-37 92z" />
    <glyph glyph-name="semicolon" unicode=";" horiz-adv-x="561" 
d="M154 920q0 53 37 88.5t92 35.5q53 0 89 -36t36 -88q0 -55 -36 -92t-89 -37q-55 0 -92 36.5t-37 92.5zM154 109q0 53 37 90t92 37q52 0 88.5 -37t36.5 -90q0 -42 -25 -78l-135 -254h-82l88 205q-44 9 -72 44.5t-28 82.5z" />
    <glyph glyph-name="less" unicode="&#x3c;" horiz-adv-x="985" 
d="M119 510l749 430v-129l-612 -340l612 -340v-129l-749 430v78z" />
    <glyph glyph-name="equal" unicode="=" horiz-adv-x="1003" 
d="M154 737h696v-102h-696v102zM154 389h696v-102h-696v102z" />
    <glyph glyph-name="greater" unicode="&#x3e;" horiz-adv-x="985" 
d="M868 510v-78l-749 -430v129l610 340l-610 340v129z" />
    <glyph glyph-name="question" unicode="?" horiz-adv-x="1247" 
d="M539 446v72q0 57 5 93t15 65.5t35.5 54.5t55.5 47.5t87 57.5q12 7 35.5 21.5t35.5 22t32 22.5t31 27t24.5 31.5t20 40t11.5 48.5t5 61q0 55 -16 95t-42 64t-66 38t-80 19t-91 5q-78 0 -136 -17.5t-93 -46t-56.5 -72t-29 -87.5t-7.5 -100h-151q0 74 11.5 135.5t44 121
t84.5 99.5t137.5 65t199.5 25q442 0 442 -340q0 -63 -12 -115t-30.5 -87.5t-51.5 -69t-62 -55t-75 -50.5q-7 -4 -20 -13q-89 -57 -111 -81q-32 -37 -35 -110v-21v-66h-147zM489 104q0 52 36 87.5t89 35.5q52 0 87.5 -35.5t35.5 -87.5q0 -54 -35 -89t-88 -35t-89 35t-36 89z
" />
    <glyph glyph-name="at" unicode="@" horiz-adv-x="2269" 
d="M641 512q37 212 184.5 346.5t345.5 134.5q114 0 203 -53.5t131 -142.5l31 178h139l-151 -850h381q88 154 123 346q36 208 -7.5 384t-147.5 292t-254 181t-325 65q-140 0 -279 -40.5t-264.5 -120t-229 -189.5t-177 -257.5t-102.5 -314.5q-37 -207 5.5 -382.5t145.5 -291.5
t252.5 -181t325.5 -65q71 0 157 13v-62q-80 -14 -167 -14q-146 0 -279.5 43t-241.5 125.5t-181 202.5t-98.5 273.5t5.5 338.5q32 180 114 339t196 275.5t252 201t286 127t293 42.5q146 0 279.5 -43t241 -125.5t180.5 -202.5t98.5 -274t-5.5 -340q-42 -231 -159 -420h-568
l33 182q-74 -91 -181 -145.5t-222 -54.5q-198 0 -299.5 133.5t-63.5 345.5zM1059 147q130 0 245 80t136 201l30 178q18 118 -68 195.5t-214 77.5q-152 0 -264.5 -102t-141.5 -265q-29 -161 48 -263t229 -102z" />
    <glyph glyph-name="A" unicode="A" horiz-adv-x="1601" 
d="M727 1434h147l646 -1434h-148l-166 373h-811l-166 -373h-147zM451 496h702l-352 792z" />
    <glyph glyph-name="B" unicode="B" horiz-adv-x="1439" 
d="M184 0v1434h566q35 0 66.5 -2t80.5 -10.5t89 -23t83 -43.5t72.5 -67.5t49 -98.5t19.5 -134q0 -221 -182 -316q52 -16 95.5 -41t83.5 -65.5t62.5 -102t22.5 -139.5q0 -74 -19 -134.5t-49 -100.5t-73 -70t-84 -46t-88.5 -25.5t-80.5 -12t-67 -2.5h-647zM332 782h407h31
t38.5 2t47 6t47 13t48.5 21.5t41 33t36 46.5t22 62.5t9 80.5q0 264 -320 264h-407v-529zM332 123h483q23 0 43 1t55 7t63.5 16t60.5 30.5t53.5 48t36 71.5t14.5 98q0 43 -8.5 79.5t-21.5 62.5t-34 46.5t-40.5 33.5t-47 22t-46.5 13.5t-47 7t-40.5 2.5h-33.5h-3.5h-3.5h-483
v-539z" />
    <glyph glyph-name="C" unicode="C" horiz-adv-x="1683" 
d="M303 717q0 -118 31 -218.5t84.5 -172.5t126 -123t156 -76t173.5 -25q119 0 219 37.5t162.5 98.5t96.5 133t34 145h152q0 -72 -26.5 -146.5t-82 -144.5t-132 -124.5t-186.5 -87.5t-237 -33q-148 0 -279.5 51.5t-229.5 145t-155.5 233.5t-57.5 307t57.5 307t155.5 233.5
t229.5 145t279.5 51.5q127 0 237 -33t186.5 -87.5t132 -124.5t82 -144.5t26.5 -146.5h-152q0 73 -34 145t-96.5 132.5t-162.5 98t-219 37.5q-113 0 -214.5 -39.5t-182 -114.5t-127.5 -194t-47 -266z" />
    <glyph glyph-name="D" unicode="D" horiz-adv-x="1640" 
d="M743 1434q118 0 228 -29.5t204.5 -90t165 -145t110.5 -201t40 -251.5t-40 -251.5t-110.5 -201t-165 -145t-204.5 -90t-228 -29.5h-559v1434h559zM332 123h411q120 0 226.5 39t189.5 111.5t131.5 187.5t48.5 256t-48.5 256t-131.5 187.5t-189.5 111.5t-226.5 39h-411
v-1188z" />
    <glyph glyph-name="E" unicode="E" horiz-adv-x="1292" 
d="M186 1434h990v-123h-842v-504h780v-123h-780v-561h842v-123h-990v1434z" />
    <glyph glyph-name="F" unicode="F" horiz-adv-x="1251" 
d="M186 1434h979v-123h-831v-541h770v-123h-770v-645h-148v1432z" />
    <glyph glyph-name="G" unicode="G" horiz-adv-x="1703" 
d="M301 727q0 -146 44.5 -262.5t124 -192t189 -115.5t240.5 -40q227 0 374 127t157 338h-615v118h741v-700h-126v268q-79 -128 -219 -201t-328 -73q-154 0 -287.5 50.5t-232.5 143t-156 232t-57 307.5q0 221 102.5 388.5t270 253t370.5 85.5q145 0 269.5 -46t204 -118.5
t124.5 -159.5t45 -172h-152q0 68 -34 133.5t-94.5 119.5t-156 87t-208.5 33q-125 0 -231.5 -39.5t-187 -114.5t-126 -190.5t-45.5 -259.5z" />
    <glyph glyph-name="H" unicode="H" horiz-adv-x="1726" 
d="M184 1434h148v-639h1063v639h147v-1434h-147v672h-1063v-672h-148v1434z" />
    <glyph glyph-name="I" unicode="I" horiz-adv-x="516" 
d="M184 1434h148v-1434h-148v1434z" />
    <glyph glyph-name="J" unicode="J" horiz-adv-x="1318" 
d="M987 1434h148v-922q0 -242 -134.5 -387t-369.5 -145q-242 0 -375 145t-133 393h147q0 -194 94 -305t267 -111q165 0 260.5 111t95.5 299v922z" />
    <glyph glyph-name="K" unicode="K" horiz-adv-x="1400" 
d="M184 1434h148v-695h229l524 695h177l-574 -750l631 -684h-186l-562 616h-239v-616h-148v1434z" />
    <glyph glyph-name="L" unicode="L" horiz-adv-x="1323" 
d="M184 1434h148v-1311h872v-123h-1020v1434z" />
    <glyph glyph-name="M" unicode="M" horiz-adv-x="1896" 
d="M184 1434h144l620 -1272l621 1272h143v-1434h-143v1133l-545 -1133h-152l-544 1133v-1133h-144v1434z" />
    <glyph glyph-name="N" unicode="N" horiz-adv-x="1722" 
d="M184 1434h148l1059 -1229v1229h147v-1434h-147l-1059 1217v-1217h-148v1434z" />
    <glyph glyph-name="O" unicode="O" horiz-adv-x="1789" 
d="M215 408q-63 141 -63 309t62.5 309.5t166.5 233.5t237.5 143t278.5 51q116 0 225.5 -31.5t204 -95t166 -150.5t112 -206t40.5 -254t-40.5 -254t-112 -206t-166 -150.5t-204 -95t-225.5 -31.5q-145 0 -278.5 51t-237.5 143t-166 234zM1121 1289q-108 42 -224 42
t-223 -42.5t-189.5 -119.5t-132 -194.5t-49.5 -257.5q0 -139 49.5 -257t132 -195t189.5 -120t223 -43q93 0 180.5 27t163 80t132 126t88.5 171.5t32 210.5q0 140 -49.5 257.5t-132.5 194.5t-190 120z" />
    <glyph glyph-name="P" unicode="P" horiz-adv-x="1425" 
d="M805 1434q30 0 65.5 -4t85.5 -17t96.5 -34t94 -58t82 -85.5t56.5 -120.5t22 -159t-22 -159t-56.5 -120t-82 -85.5t-93.5 -58t-96.5 -33.5t-86 -17t-65.5 -4h-473v-479h-148v1434h621zM332 602h463q32 0 69 6t91.5 28t96.5 58t72.5 104t30.5 158t-30.5 158t-72.5 104
t-96.5 58.5t-92 28.5t-68.5 6h-463v-709z" />
    <glyph glyph-name="Q" unicode="Q" horiz-adv-x="1789" 
d="M1483 -410l-359 422q-103 -32 -229 -32q-145 0 -278.5 51t-237.5 143t-166.5 233.5t-62.5 309.5t62.5 309.5t166.5 233.5t237.5 143t278.5 51t279 -51t238.5 -143t167 -233.5t62.5 -309.5q0 -226 -107 -395t-286 -259l404 -473h-170zM1119 1289q-108 42 -224 42
t-223 -42.5t-189.5 -119.5t-132 -194.5t-49.5 -257.5q0 -139 49.5 -257t132 -195t189.5 -120t223 -43q93 0 180.5 27t163 80t132 126t88.5 171.5t32 210.5q0 140 -49.5 257.5t-132.5 194.5t-190 120z" />
    <glyph glyph-name="R" unicode="R" horiz-adv-x="1464" 
d="M821 1434q32 0 69 -4t87 -17t96 -32.5t92.5 -54t80.5 -79t55.5 -110.5t21.5 -144q0 -92 -29 -167t-72.5 -122t-103 -81.5t-111.5 -51t-106 -24.5l404 -547h-177l-397 541h-399v-541h-148v1434h637zM332 664h479q32 0 70.5 6t92 27t95.5 54t72 94.5t30 141.5t-30 141.5
t-72 94.5t-95.5 54.5t-92 27.5t-70.5 6h-479v-647z" />
    <glyph glyph-name="S" unicode="S" horiz-adv-x="1519" 
d="M285 449q0 -71 27.5 -131.5t84 -110t153.5 -77.5t226 -28q226 0 342.5 73.5t116.5 205.5q0 31 -6 57t-15.5 46t-28 37t-35.5 29t-48 22.5t-54.5 17.5t-65 15t-71.5 12.5t-81.5 13t-86.5 14.5q-114 20 -193.5 41.5t-151 54.5t-114 75.5t-67 104.5t-24.5 142
q0 126 74.5 216t201 133.5t291.5 43.5q133 0 238.5 -26.5t173.5 -70.5t113 -105t64 -126t19 -137h-151q0 57 -13.5 105.5t-46.5 93t-84.5 75.5t-131 49.5t-181.5 18.5q-194 0 -305 -65.5t-111 -202.5q0 -35 6.5 -63.5t22.5 -52t34.5 -41.5t52 -33.5t66 -27t84 -23.5
t98.5 -21t117 -21q215 -37 280 -55q171 -48 234 -147q47 -75 47 -189q0 -184 -152.5 -297.5t-451.5 -113.5q-136 0 -246.5 26.5t-184 71.5t-124 106t-72.5 127.5t-22 137.5h152z" />
    <glyph glyph-name="T" unicode="T" horiz-adv-x="1452" 
d="M88 1434h1278v-123h-565v-1311h-148v1311h-565v123z" />
    <glyph glyph-name="U" unicode="U" horiz-adv-x="1574" 
d="M1243 1434h148v-840q0 -311 -156.5 -462.5t-454.5 -151.5q-296 0 -446 150.5t-150 463.5v840h148v-840q0 -254 110.5 -373t337.5 -119q229 0 346 120t117 372v840z" />
    <glyph glyph-name="V" unicode="V" horiz-adv-x="1611" 
d="M733 0l-645 1434h158l561 -1280l561 1280h158l-645 -1434h-148z" />
    <glyph glyph-name="W" unicode="W" horiz-adv-x="2140" 
d="M549 0l-461 1434h154l379 -1219l366 1219h162l369 -1231l380 1231h154l-465 -1434h-153l-367 1204l-367 -1204h-151z" />
    <glyph glyph-name="X" unicode="X" horiz-adv-x="1624" 
d="M88 0l635 745l-561 689h186l469 -598l465 598h186l-553 -689l623 -745h-186l-535 664l-541 -664h-188z" />
    <glyph glyph-name="Y" unicode="Y" horiz-adv-x="1540" 
d="M696 430l-608 1004h170l512 -875l514 875h170l-610 -1004v-430h-148v430z" />
    <glyph glyph-name="Z" unicode="Z" horiz-adv-x="1292" 
d="M1151 1434v-115l-875 -1196h928v-123h-1116v115l877 1196h-861v123h1047z" />
    <glyph glyph-name="bracketleft" unicode="[" horiz-adv-x="841" 
d="M184 1434h525v-123h-398v-1598h398v-123h-525v1844z" />
    <glyph glyph-name="backslash" unicode="\" horiz-adv-x="802" 
d="M686 0h-117l-450 1434h117z" />
    <glyph glyph-name="bracketright" unicode="]" horiz-adv-x="841" 
d="M702 1434v-1844h-522v123h395v1598h-395v123h522z" />
    <glyph glyph-name="asciicircum" unicode="^" horiz-adv-x="1003" 
d="M154 850l295 584h106l295 -584h-119l-229 473l-228 -473h-120z" />
    <glyph glyph-name="underscore" unicode="_" horiz-adv-x="1003" 
d="M154 369h696v-103h-696v103z" />
    <glyph glyph-name="grave" unicode="`" horiz-adv-x="468" 
d="M346 1145h-106l-138 330h121z" />
    <glyph glyph-name="a" unicode="a" horiz-adv-x="1224" 
d="M240 1024h362q101 0 175 -20.5t119 -55t71.5 -89t35.5 -113t9 -136.5v-297q0 -110 31.5 -152t132.5 -42h20v-119h-96q-119 1 -164 44.5t-53 152.5q-47 -98 -143.5 -157.5t-235.5 -59.5q-188 0 -278.5 68t-90.5 235t85 236t280 69h368v20q0 51 -3 85t-12.5 71.5
t-28.5 60.5t-49.5 42.5t-77.5 28.5t-111 9h-346v119zM868 471h-362q-118 0 -170.5 -42t-52.5 -146q0 -108 60 -146.5t194 -38.5q149 0 240 80.5t91 200.5v92z" />
    <glyph glyph-name="b" unicode="b" horiz-adv-x="1353" 
d="M1088 896q139 -149 139 -384t-139 -383.5t-363 -148.5q-129 0 -242 59t-176 160v-199h-143v1434h143v-609q63 101 176 160t242 59q224 0 363 -148zM307 416q0 -132 116.5 -225t262.5 -93q174 0 283.5 114.5t109.5 299.5q0 186 -109.5 300t-283.5 114q-146 0 -262.5 -92
t-116.5 -224v-194z" />
    <glyph glyph-name="c" unicode="c" 
d="M276 512q0 -191 112.5 -302.5t285.5 -111.5q150 0 242 84t92 185h147q0 -67 -30 -134t-87 -124.5t-151.5 -93t-210.5 -35.5q-240 0 -393.5 143.5t-153.5 388.5t153.5 388.5t393.5 143.5q116 0 210.5 -35.5t151.5 -92.5t87 -124t30 -135h-147q0 101 -92 185t-242 84
q-173 0 -285.5 -111t-112.5 -303z" />
    <glyph glyph-name="d" unicode="d" horiz-adv-x="1353" 
d="M268 129q-139 148 -139 383t139 383.5t363 148.5q126 0 239 -58.5t177 -158.5v607h143v-1434h-143v197q-64 -101 -176.5 -159t-239.5 -58q-224 0 -363 149zM668 98q146 0 262.5 93t116.5 225v194q0 132 -116.5 224t-262.5 92q-174 0 -283 -114t-109 -300
q0 -185 109 -299.5t283 -114.5z" />
    <glyph glyph-name="e" unicode="e" 
d="M272 469q6 -92 39 -164.5t85.5 -117t116.5 -67t136 -22.5q146 0 244 74t98 160h148q-4 -62 -39 -123t-95.5 -113t-155 -84t-206.5 -32q-105 0 -198 36.5t-163.5 103.5t-111.5 168.5t-41 223.5t41 223.5t111.5 168.5t163.5 103.5t198 36.5q231 0 368.5 -138.5
t143.5 -373.5v-63h-883zM1004 588q-18 172 -112.5 255t-242.5 83q-144 0 -249 -87t-126 -251h730z" />
    <glyph glyph-name="f" unicode="f" horiz-adv-x="872" 
d="M791 1337h-152q-128 0 -177.5 -48.5t-49.5 -186.5v-78h381v-119h-381v-905h-144v905h-184v119h184v98q0 331 326 334h197v-119z" />
    <glyph glyph-name="g" unicode="g" horiz-adv-x="1353" 
d="M283 -291h387q196 0 286.5 92.5t90.5 276.5v119q-64 -101 -176.5 -159t-239.5 -58q-224 0 -363 148.5t-139 383.5t139 383.5t363 148.5q126 0 239 -58.5t177 -158.5v197h143v-932q0 -242 -125.5 -372t-384.5 -130h-397v119zM668 98q146 0 262.5 93t116.5 225v194
q0 132 -116.5 224t-262.5 92q-174 0 -283 -114t-109 -300q0 -185 109 -299.5t283 -114.5z" />
    <glyph glyph-name="h" unicode="h" horiz-adv-x="1277" 
d="M164 1434h143v-621q62 106 170 168.5t234 62.5q111 0 190.5 -30t125 -86.5t66.5 -129.5t21 -167v-631h-143v600q0 77 -14.5 133.5t-49 101.5t-98 68t-154.5 23q-142 0 -245 -98.5t-103 -243.5v-584h-143v1434z" />
    <glyph glyph-name="i" unicode="i" horiz-adv-x="440" 
d="M117 1370q0 43 31.5 74t76.5 31q43 0 73 -31t30 -74q0 -44 -30 -75t-73 -31q-46 0 -77 31t-31 75zM150 1024h143v-1024h-143v1024z" />
    <glyph glyph-name="j" unicode="j" horiz-adv-x="440" 
d="M115 1370q0 43 31.5 74t76.5 31q43 0 73 -31t30 -74q0 -44 -30 -75t-73 -31q-46 0 -77 31t-31 75zM-199 -291h119q128 0 179 52t51 188v1075h143v-1100q0 -334 -326 -334h-166v119z" />
    <glyph glyph-name="k" unicode="k" horiz-adv-x="1208" 
d="M164 1434h143v-842h213l369 432h166l-422 -487l477 -537h-172l-414 473h-217v-473h-143v1434z" />
    <glyph glyph-name="l" unicode="l" horiz-adv-x="522" 
d="M492 119v-119h-95q-137 1 -185 59t-48 207v1168h143v-1121q0 -52 3 -82t11.5 -54.5t27 -35.5t45.5 -16.5t71 -5.5h27z" />
    <glyph glyph-name="m" unicode="m" horiz-adv-x="1990" 
d="M164 1024h143v-207q59 103 160.5 165t216.5 62q303 0 367 -260q56 118 162.5 189t230.5 71q383 0 383 -413v-631h-144v604q0 157 -64 239.5t-226 82.5q-129 0 -227.5 -97t-98.5 -239v-590h-143v604q0 157 -64.5 239.5t-226.5 82.5q-129 0 -227.5 -97t-98.5 -239v-590
h-143v1024z" />
    <glyph glyph-name="n" unicode="n" horiz-adv-x="1277" 
d="M164 1024h143v-211q62 106 170 168.5t234 62.5q111 0 190.5 -30t125 -86.5t66.5 -129.5t21 -167v-631h-143v600q0 77 -14.5 133.5t-49 101.5t-98 68t-154.5 23q-142 0 -245 -98.5t-103 -243.5v-584h-143v1024z" />
    <glyph glyph-name="o" unicode="o" horiz-adv-x="1345" 
d="M396 213q117 -115 280 -115t280 115t117 299t-117 299t-280 115t-280 -115t-117 -299t117 -299zM471 1007q98 37 205 37t205 -37t173.5 -103.5t121 -168.5t45.5 -223t-45.5 -223t-121 -168.5t-173.5 -103.5t-205 -37t-205 37t-173.5 103.5t-121 168.5t-45.5 223t45.5 223
t121 168.5t173.5 103.5z" />
    <glyph glyph-name="p" unicode="p" horiz-adv-x="1353" 
d="M164 1024h143v-199q63 101 176 160t242 59q224 0 363 -148.5t139 -383.5t-139 -383.5t-363 -148.5q-129 0 -242 59t-176 160v-609h-143v1434zM307 416q0 -132 116.5 -225t262.5 -93q174 0 283.5 114.5t109.5 299.5q0 186 -109.5 300t-283.5 114q-146 0 -262.5 -92
t-116.5 -224v-194z" />
    <glyph glyph-name="q" unicode="q" horiz-adv-x="1353" 
d="M1190 1024v-1434h-143v607q-64 -101 -176.5 -159t-239.5 -58q-224 0 -363 148.5t-139 383.5t139 383.5t363 148.5q126 0 239 -58.5t177 -158.5v197h143zM668 98q146 0 262.5 93t116.5 225v194q0 132 -116.5 224t-262.5 92q-174 0 -283 -114t-109 -300q0 -185 109 -299.5
t283 -114.5z" />
    <glyph glyph-name="r" unicode="r" horiz-adv-x="829" 
d="M164 1024h143v-190q55 98 147.5 154t209.5 56h100v-118h-141q-140 0 -228 -97t-88 -256v-573h-143v1024z" />
    <glyph glyph-name="s" unicode="s" horiz-adv-x="1185" 
d="M276 322q0 -96 86 -160t246 -64q146 0 229 48t83 120q0 21 -4 38t-15.5 31t-23 24.5t-36 20.5t-44 16.5t-57 14.5t-66.5 13t-80 14q-85 14 -147.5 30.5t-117.5 42.5t-89.5 59.5t-54 81t-19.5 108.5q0 96 58 162t148.5 95.5t205.5 29.5t206.5 -30.5t146 -81t83 -109.5
t28.5 -121h-147q0 97 -82.5 160t-241.5 63q-121 0 -193.5 -42.5t-72.5 -119.5q0 -86 72 -124q50 -26 205 -54q8 -1 23 -3q17 -3 26 -5q88 -15 145 -28.5t116 -37t92 -53t54 -75t21 -105.5q0 -132 -122.5 -216.5t-326.5 -84.5q-119 0 -213.5 30.5t-151.5 80.5t-86.5 109.5
t-29.5 121.5h147z" />
    <glyph glyph-name="t" unicode="t" horiz-adv-x="878" 
d="M82 1024h186v246h144v-246h385v-119h-385v-547q0 -136 50.5 -187.5t178.5 -51.5h156v-119h-203q-326 0 -326 334v571h-186v119z" />
    <glyph glyph-name="u" unicode="u" horiz-adv-x="1329" 
d="M1298 119v-119h-94q-124 1 -173.5 48t-57.5 163q-62 -105 -171 -168t-235 -63q-403 0 -403 415v629h143v-598q0 -77 14.5 -133.5t49 -102t98 -69t154.5 -23.5q142 0 245 98.5t103 243.5v584h143v-711q0 -57 5 -89.5t21 -58.5t47.5 -36t84.5 -10h26z" />
    <glyph glyph-name="v" unicode="v" horiz-adv-x="1241" 
d="M82 1024h158l381 -864l380 864h158l-467 -1024h-143z" />
    <glyph glyph-name="w" unicode="w" horiz-adv-x="1579" 
d="M82 1024h151l232 -838l256 838h137l258 -836l230 836h151l-307 -1024h-148l-251 813l-252 -813h-150z" />
    <glyph glyph-name="x" unicode="x" horiz-adv-x="1280" 
d="M82 0l463 535l-414 489h174l336 -408l334 408h176l-414 -489l461 -535h-178l-379 455l-379 -455h-180z" />
    <glyph glyph-name="y" unicode="y" horiz-adv-x="1202" 
d="M1120 1024l-448 -1044q-69 -160 -99 -208q-62 -100 -158 -139q-105 -43 -302 -43v119q87 0 150 12t98.5 24.5t67 51t42 59t36.5 81.5q5 10 7.5 15.5t6.5 14.5t7 17l9 20l-453 1020h147l379 -860l365 860h145z" />
    <glyph glyph-name="z" unicode="z" horiz-adv-x="1081" 
d="M952 1024v-100l-667 -805h716v-119h-903v100l672 805h-655v119h837z" />
    <glyph glyph-name="braceleft" unicode="{" horiz-adv-x="972" 
d="M172 582q57 6 93.5 18.5t64.5 36t42 65t20.5 99.5t6.5 147q0 148 19.5 243t65.5 149.5t110 75t164 20.5h133v-125h-135q-48 0 -81.5 -6.5t-60 -24t-42.5 -45t-26 -74t-14 -105t-4 -143.5q0 -135 -28.5 -218t-79.5 -122t-137 -59q86 -20 137 -59t79.5 -122t28.5 -218
q0 -85 4 -143.5t14 -105t26 -74t42.5 -45t60 -24t81.5 -6.5h135v-125h-133q-100 0 -164 20.5t-110 75.5t-65.5 150t-19.5 244q0 110 -9.5 175t-36.5 106.5t-68 59t-113 26.5l-49 6v118z" />
    <glyph glyph-name="bar" unicode="|" horiz-adv-x="485" 
d="M184 1434h117v-1844h-117v1844z" />
    <glyph glyph-name="braceright" unicode="}" horiz-adv-x="972" 
d="M801 582l49 -9v-118l-49 -6q-95 -12 -141.5 -43.5t-66.5 -105t-20 -218.5q0 -149 -19.5 -244t-65 -150t-109.5 -75.5t-164 -20.5h-133v125h135q73 0 115 15t68.5 61.5t35 120t8.5 201.5q0 135 29 218t80 122t137 59q-86 20 -137 59t-80 122t-29 218q0 128 -8.5 201.5
t-35 120t-68.5 61.5t-115 15h-135v125h133q100 0 164 -20.5t109.5 -75t65 -149.5t19.5 -243q0 -146 20 -219.5t66.5 -105t141.5 -41.5z" />
    <glyph glyph-name="asciitilde" unicode="~" horiz-adv-x="1298" 
d="M174 831q35 87 77 134t102.5 60t132.5 -2t176 -58q64 -26 104 -40t81 -23t66 -5.5t50 17.5t43 41t36 69l21 47l84 -35l-19 -47q-68 -168 -178 -193t-309 62q-54 22 -90.5 35t-73.5 23t-62 10.5t-49 -5t-41.5 -21.5t-33.5 -40.5t-31 -60.5l-20 -49l-84 34z" />
    <glyph glyph-name="exclamdown" unicode="&#xa1;" horiz-adv-x="516" 
d="M135 922q0 54 36 89.5t89 35.5t88 -35.5t35 -89.5q0 -52 -35.5 -87.5t-87.5 -35.5q-53 0 -89 35.5t-36 87.5zM184 -410v506l15 484h120l13 -484v-506h-148z" />
    <glyph glyph-name="cent" unicode="&#xa2;" horiz-adv-x="1292" 
d="M621 1434h122v-394q100 -10 181 -48t130 -92.5t75 -117t26 -125.5h-147q0 101 -92 185t-242 84q-173 0 -285.5 -111t-112.5 -303q0 -191 112.5 -302.5t285.5 -111.5q150 0 242 84t92 185h147q0 -63 -26 -125t-75 -117t-130 -93t-181 -48v-394h-122v392
q-219 18 -355.5 159t-136.5 371t136.5 371t355.5 159v392z" />
    <glyph glyph-name="sterling" unicode="&#xa3;" horiz-adv-x="1492" 
d="M389 1059q0 131 62.5 221t169.5 132t251 42q113 0 200.5 -28t140.5 -72.5t87 -107t47 -125.5t13 -134h-152q0 58 -7.5 105t-29.5 93t-57.5 77t-94.5 50t-138 19q-153 0 -246.5 -69t-93.5 -215v-345h694v-122h-694v-457h819v-123h-971v580h-287v122h287v357z" />
    <glyph glyph-name="currency" unicode="&#xa4;" horiz-adv-x="1462" 
d="M1307 1247l-289 -289q83 -100 82.5 -230t-82.5 -232l291 -291l-58 -55l-288 288q-101 -82 -231.5 -82t-231.5 82l-289 -288l-55 57l286 289q-80 101 -79.5 232t81.5 230l-288 289l55 56l289 -289q101 82 231.5 82t231.5 -82l288 289zM528 522q83 -85 203 -85t203 85
q85 85 85 204t-85 204q-83 85 -203 85t-203 -85q-85 -85 -85 -204t85 -204z" />
    <glyph glyph-name="yen" unicode="&#xa5;" horiz-adv-x="1540" 
d="M326 506h325l-563 928h170l512 -875l514 875h170l-563 -928h326v-103h-373v-112h373v-103h-373v-188h-148v188h-370v103h370v112h-370v103z" />
    <glyph glyph-name="brokenbar" unicode="&#xa6;" horiz-adv-x="485" 
d="M184 1434h117v-719h-117v719zM184 309h117v-719h-117v719z" />
    <glyph glyph-name="section" unicode="&#xa7;" horiz-adv-x="1546" 
d="M285 -43q0 -71 27.5 -131.5t84 -109.5t153.5 -77t226 -28q226 0 342.5 73t116.5 205q0 119 -90 171q-63 38 -236 67q-19 3 -60 9q-69 12 -106 18q-114 20 -193.5 41.5t-151 54t-114 75.5t-67 104.5t-24.5 141.5q0 155 110 254q-84 87 -84 238q0 126 74.5 216t201 133.5
t291.5 43.5q133 0 238.5 -26.5t174 -70.5t113.5 -105t64 -126t19 -137h-152q0 57 -13.5 105.5t-46.5 93t-84.5 75.5t-131 49.5t-181.5 18.5q-194 0 -304.5 -65.5t-110.5 -202.5q0 -35 6.5 -63.5t22.5 -52t34.5 -41.5t52 -33.5t66 -27t84 -23.5t98.5 -21t117 -21
q215 -37 280 -55q171 -48 234 -147q47 -75 47 -189q0 -157 -106 -260q79 -82 79 -231q0 -184 -152.5 -298t-451.5 -114q-136 0 -246.5 26.5t-184 71.5t-124 106t-72.5 127.5t-22 137.5h152zM414 745q-70 -67 -70 -172q0 -35 6.5 -63.5t22.5 -52t34.5 -41.5t52 -33.5
t65.5 -27t84.5 -23t98.5 -20.5t117 -21q18 -3 77.5 -13.5t84 -15.5t68 -14.5t74.5 -19t59 -21.5q74 68 74 174q0 31 -6 57t-15.5 46t-28 37t-35.5 29t-48 22.5t-54.5 17.5t-65 15t-71.5 12.5t-81.5 13t-86.5 14.5q-249 46 -356 100z" />
    <glyph glyph-name="dieresis" unicode="&#xa8;" horiz-adv-x="878" 
d="M123 1282q0 46 33 78.5t80 32.5q46 0 78 -32.5t32 -78.5q0 -47 -32 -80t-78 -33q-47 0 -80 33t-33 80zM532 1282q0 46 33 78.5t80 32.5q46 0 78.5 -32.5t32.5 -78.5q0 -47 -32.5 -80t-78.5 -33q-47 0 -80 33t-33 80z" />
    <glyph glyph-name="copyright" unicode="&#xa9;" horiz-adv-x="1783" 
d="M156 717q0 201 98.5 370.5t267.5 268t369 98.5q150 0 286.5 -58t235.5 -157t157 -235.5t58 -286.5q0 -200 -98.5 -369.5t-268 -268.5t-370.5 -99q-200 0 -369 99t-267.5 268.5t-98.5 369.5zM209 717q0 -139 54 -265.5t145 -218t217.5 -146t265.5 -54.5t265.5 54.5
t218 146t146 218t54.5 265.5q0 140 -54.5 266.5t-146 218t-218 145.5t-265.5 54t-265 -54t-217.5 -145.5t-145.5 -218t-54 -266.5zM709 927q-76 -78 -76 -210t75.5 -208.5t188.5 -76.5q111 0 174.5 55.5t63.5 130.5h90q0 -45 -21 -90t-60 -84t-104 -63.5t-143 -24.5
q-152 0 -254 99t-102 262t102 261.5t254 98.5q78 0 143 -24.5t104 -63.5t60 -84t21 -90h-90q0 75 -64 132t-174 57q-113 0 -188 -77z" />
    <glyph glyph-name="ordfeminine" unicode="&#xaa;" horiz-adv-x="833" 
d="M205 1454h182q62 0 102.5 -15t61 -45.5t28 -65.5t7.5 -85v-156q0 -56 15 -76t65 -20h10v-59h-43q-55 0 -80 18.5t-31 61.5q-62 -90 -182 -90q-94 0 -140 34t-46 115q0 86 42.5 120t141.5 34h182v18q0 39 -4 63t-17.5 47t-43 33.5t-76.5 10.5h-174v57zM520 1167h-180
q-63 0 -90 -19t-27 -71q0 -62 30 -80t103 -18t118.5 40.5t45.5 100.5v47z" />
    <glyph glyph-name="guillemotleft" unicode="&#xab;" horiz-adv-x="976" 
d="M123 512l256 446h127l-256 -446l256 -444h-127zM471 512l256 446h127l-256 -446l256 -444h-127z" />
    <glyph glyph-name="logicalnot" unicode="&#xac;" horiz-adv-x="960" 
d="M154 860h653v-368h-117v251h-536v117z" />
    <glyph glyph-name="registered" unicode="&#xae;" horiz-adv-x="1783" 
d="M156 717q0 200 98.5 369.5t268 268.5t370.5 99q200 0 369 -99t267.5 -268.5t98.5 -369.5q0 -201 -98.5 -370.5t-267.5 -268t-369 -98.5q-150 0 -286.5 58t-235.5 157t-157 235.5t-58 286.5zM264 983q-55 -127 -55 -266t54.5 -265.5t146 -218t218 -146t265.5 -54.5
q138 0 264.5 54.5t218 146t145.5 218t54 265.5t-54 265.5t-145.5 218t-218 146t-264.5 54.5q-139 0 -265.5 -54.5t-218 -146t-145.5 -217.5zM952 1067q30 0 65.5 -8.5t80 -30t73.5 -69.5t29 -115q0 -54 -18.5 -96t-49.5 -67t-61.5 -39t-64.5 -21l188 -256h-104l-183 249
h-180v-249h-90v702h315zM727 688h219q15 0 33 3t41.5 13.5t42.5 26.5t32 45t13 66q0 46 -19 78.5t-47.5 47t-52 20t-43.5 5.5h-219v-305z" />
    <glyph glyph-name="macron" unicode="&#xaf;" horiz-adv-x="722" 
d="M123 1280h477v-82h-477v82z" />
    <glyph glyph-name="degree" unicode="&#xb0;" horiz-adv-x="774" 
d="M123 1196q0 110 76.5 187t185.5 77q110 0 187 -77t77 -187q0 -109 -77 -185.5t-187 -76.5q-109 0 -185.5 76.5t-76.5 185.5zM176 1196q0 -86 61.5 -147.5t147.5 -61.5q88 0 149.5 61.5t61.5 147.5q0 88 -61.5 149.5t-149.5 61.5q-86 0 -147.5 -61.5t-61.5 -149.5z" />
    <glyph glyph-name="plusminus" unicode="&#xb1;" horiz-adv-x="1003" 
d="M154 727h297v297h102v-297h297v-102h-297v-297h-102v297h-297v102zM154 102h696v-102h-696v102z" />
    <glyph glyph-name="twosuperior" unicode="&#xb2;" horiz-adv-x="917" 
d="M156 655l311 279q111 99 143.5 150.5t32.5 117.5q0 96 -59.5 139t-153.5 43q-60 0 -104 -20.5t-67 -56t-33.5 -75.5t-10.5 -87h-90q0 56 15 108t48 99t94.5 75.5t143.5 28.5q86 0 153 -24.5t110.5 -84t43.5 -147.5q0 -78 -44.5 -149.5t-178.5 -186.5l-246 -209h527v-73
h-635v73z" />
    <glyph glyph-name="threesuperior" unicode="&#xb3;" horiz-adv-x="892" 
d="M365 979v68h102q83 0 123.5 40.5t40.5 124.5q0 88 -56.5 130t-150.5 42q-111 0 -154 -56t-43 -154h-90q0 57 15 105t47 89t90 64.5t137 23.5q130 0 211.5 -60t81.5 -173q0 -151 -111 -205q160 -48 160 -201q0 -119 -90 -182.5t-227 -63.5q-81 0 -145.5 24.5t-102.5 65
t-58 89t-20 100.5h90q0 -87 59.5 -147t176.5 -60q99 0 163 45.5t64 138.5q0 78 -54.5 115t-148.5 37h-110z" />
    <glyph glyph-name="acute" unicode="&#xb4;" horiz-adv-x="466" 
d="M123 1145l121 330h121l-136 -330h-106z" />
    <glyph glyph-name="paragraph" unicode="&#xb6;" horiz-adv-x="1538" 
d="M635 1434h719v-1844h-137v1729h-351v-1729h-137v869h-94q-30 0 -65.5 4t-86 17t-96.5 34t-93.5 59t-82 87t-56.5 123t-22 163t22 163t56.5 123t82 87t93.5 59t96.5 34.5t86 17.5t65.5 4zM729 573v746h-94q-20 0 -44 -3t-60 -12.5t-69.5 -25t-68.5 -44.5t-60.5 -67
t-42 -95t-16.5 -126t16.5 -126t42 -95t60.5 -67t68.5 -44.5t69.5 -25t60 -12.5t44 -3h94z" />
    <glyph glyph-name="periodcentered" unicode="&#xb7;" horiz-adv-x="622" 
d="M184 512q0 53 37 89t92 36q53 0 89 -36.5t36 -88.5q0 -55 -36 -92t-89 -37q-55 0 -92 36.5t-37 92.5z" />
    <glyph glyph-name="cedilla" unicode="&#xb8;" horiz-adv-x="632" 
d="M123 -442v86q76 -19 140.5 -20t107.5 30.5t43 91.5q0 17 -2.5 30.5t-9.5 23t-13 16t-19 10.5t-22 6.5t-27 3.5t-29 1t-33 -0.5t-34 -0.5h-4l39 176h78l-29 -108q45 -2 76.5 -8t62 -22t46.5 -49t16 -81q0 -72 -36.5 -119.5t-95 -65t-124 -17.5t-131.5 16z" />
    <glyph glyph-name="onesuperior" unicode="&#xb9;" horiz-adv-x="657" 
d="M471 1434h64v-861h-89v764l-294 -135l-29 72z" />
    <glyph glyph-name="ordmasculine" unicode="&#xba;" horiz-adv-x="790" 
d="M256 1047q58 -58 139 -58t140 57.5t59 149.5t-59 149.5t-140 57.5t-139.5 -57.5t-58.5 -149.5t59 -149zM204 1390q80 72 191 72t192 -72.5t81 -193.5q0 -120 -81 -193t-192 -73t-191.5 73t-80.5 193q0 121 81 194z" />
    <glyph glyph-name="guillemotright" unicode="&#xbb;" horiz-adv-x="976" 
d="M854 512l-256 -444h-127l258 444l-258 446h127zM506 512l-256 -444h-127l258 444l-258 446h127z" />
    <glyph glyph-name="onequarter" unicode="&#xbc;" horiz-adv-x="1761" 
d="M473 0l574 1436h96l-574 -1436h-96zM465 1436h63v-861h-88v764l-297 -137l-26 74zM1386 862h84v-551h172v-65h-172v-246h-88v246h-503v55zM975 311h407v453z" />
    <glyph glyph-name="onehalf" unicode="&#xbd;" horiz-adv-x="1798" 
d="M473 0l576 1436h96l-576 -1436h-96zM465 1436h63v-863h-88v766l-295 -135l-28 72zM1042 74l312 278q111 99 143.5 151t32.5 118q0 96 -59.5 139t-153.5 43q-60 0 -104 -20.5t-67 -56t-33.5 -76t-10.5 -87.5h-90q0 56 15 108t48 99t94.5 75.5t143.5 28.5q86 0 153 -24.5
t110.5 -84t43.5 -147.5q0 -76 -44 -146t-179 -187l-246 -211h526v-74h-635v74z" />
    <glyph glyph-name="threequarters" unicode="&#xbe;" horiz-adv-x="1929" 
d="M365 979v68h102q83 0 123.5 40.5t40.5 124.5q0 88 -56.5 130t-150.5 42q-111 0 -154 -56t-43 -154h-90q0 57 15 105t47 89t90 64.5t137 23.5q130 0 211.5 -60t81.5 -173q0 -151 -111 -205q160 -48 160 -201q0 -119 -90 -182.5t-227 -63.5q-81 0 -145.5 24.5t-102.5 65
t-58 89t-20 100.5h90q0 -87 59.5 -147t176.5 -60q99 0 163 45.5t64 138.5q0 78 -54.5 115t-148.5 37h-110zM641 0l573 1434h97l-574 -1434h-96zM1554 862h84v-551h172v-65h-172v-246h-88v246h-506v55zM1141 311h409v453z" />
    <glyph glyph-name="questiondown" unicode="&#xbf;" horiz-adv-x="1247" 
d="M760 942q0 -52 -36 -87.5t-89 -35.5t-88 35.5t-35 87.5q0 54 35 89.5t88 35.5t89 -35.5t36 -89.5zM711 600v-72q0 -71 -6 -110.5t-31 -76t-58 -61.5t-104 -69q-12 -7 -35.5 -21.5t-35.5 -22t-32 -22.5t-31 -27t-24.5 -31.5t-20 -40t-11.5 -48.5t-5 -61q0 -68 23 -113.5
t67 -68.5t92 -31.5t113 -8.5q97 0 163 25.5t99 73t46.5 101t13.5 124.5h151q0 -75 -11.5 -136t-44 -120.5t-84.5 -100t-137.5 -65.5t-199.5 -25q-442 0 -442 340q0 63 12 115t30.5 87.5t51.5 69t62 55t75 50.5q100 64 122 86q38 36 43 100q1 17 1 40v65h148z" />
    <glyph glyph-name="Agrave" unicode="&#xc0;" horiz-adv-x="1601" 
d="M842 1554h-107l-137 330h121zM727 1434h147l646 -1434h-148l-166 373h-811l-166 -373h-147zM451 496h702l-352 792z" />
    <glyph glyph-name="Aacute" unicode="&#xc1;" horiz-adv-x="1601" 
d="M766 1554l121 330h121l-136 -330h-106zM727 1434h147l646 -1434h-148l-166 373h-811l-166 -373h-147zM451 496h702l-352 792z" />
    <glyph glyph-name="Acircumflex" unicode="&#xc2;" horiz-adv-x="1601" 
d="M494 1571l268 299h84l268 -299h-131l-180 205l-180 -205h-129zM727 1434h147l646 -1434h-148l-166 373h-811l-166 -373h-147zM451 496h702l-352 792z" />
    <glyph glyph-name="Atilde" unicode="&#xc3;" horiz-adv-x="1601" 
d="M809 1706q102 -42 129 -46q48 -6 82 39q18 25 39 68l74 -22q-18 -45 -38 -77t-39 -51.5t-44 -28t-45.5 -10.5t-52 5.5t-55.5 15.5t-62 23q-101 40 -131 42q-49 4 -81 -48q-15 -24 -32 -64l-74 29q24 61 52.5 98t56.5 53t66.5 15t71.5 -11t83 -30zM727 1434h147l646 -1434
h-148l-166 373h-811l-166 -373h-147zM451 496h702l-352 792z" />
    <glyph glyph-name="Adieresis" unicode="&#xc4;" horiz-adv-x="1601" 
d="M485 1692q0 46 33 78t80 32q46 0 78.5 -32t32.5 -78q0 -47 -32.5 -80t-78.5 -33q-47 0 -80 33t-33 80zM895 1692q0 46 33 78t80 32q46 0 78 -32t32 -78q0 -47 -32 -80t-78 -33q-47 0 -80 33t-33 80zM727 1434h147l646 -1434h-148l-166 373h-811l-166 -373h-147zM451 496
h702l-352 792z" />
    <glyph glyph-name="Aring" unicode="&#xc5;" horiz-adv-x="1601" 
d="M626 1586q-73 73 -73 173t73 173t173 73q101 0 174.5 -73t73.5 -173t-73.5 -173t-174.5 -73q-100 0 -173 73zM637 1759q0 -61 50 -110.5t112 -49.5q63 0 112.5 49t49.5 111q0 63 -49.5 112.5t-112.5 49.5q-62 0 -112 -49.5t-50 -112.5zM727 1434h147l646 -1434h-148
l-166 373h-811l-166 -373h-147zM451 496h702l-352 792z" />
    <glyph glyph-name="AE" unicode="&#xc6;" horiz-adv-x="2207" 
d="M727 1434h1362v-123h-842v-504h781v-123h-781v-561h842v-123h-989v373h-707l-164 -373h-147zM446 496h654v815h-293z" />
    <glyph glyph-name="Ccedilla" unicode="&#xc7;" horiz-adv-x="1683" 
d="M303 717q0 -118 31 -218.5t84.5 -172.5t126 -123t156 -76t173.5 -25q119 0 219 37.5t162.5 98.5t96.5 133t34 145h152q0 -72 -26.5 -146.5t-82 -144.5t-132 -124.5t-186.5 -87.5t-237 -33h-18l-20 -76q45 -2 76 -8t62 -22.5t46.5 -48.5t15.5 -81q0 -72 -36.5 -119.5
t-95 -65t-124 -17.5t-131.5 16v86q76 -19 140.5 -20t107.5 30.5t43 91.5q0 17 -2.5 30.5t-9.5 23t-13 16t-19 10.5t-21.5 6.5t-27 3.5t-29 1t-32.5 -0.5t-34 -0.5h-4l32 150q-132 15 -246.5 73t-199.5 150t-133.5 223t-48.5 285q0 167 57.5 307t155.5 233.5t229.5 145
t279.5 51.5q127 0 237 -33t186.5 -87.5t132 -124.5t82 -144.5t26.5 -146.5h-152q0 73 -34 145t-96.5 132.5t-162.5 98t-219 37.5q-113 0 -214.5 -39.5t-182 -114.5t-127.5 -194t-47 -266z" />
    <glyph glyph-name="Egrave" unicode="&#xc8;" horiz-adv-x="1292" 
d="M748 1554h-107l-137 330h121zM186 1434h990v-123h-842v-504h780v-123h-780v-561h842v-123h-990v1434z" />
    <glyph glyph-name="Eacute" unicode="&#xc9;" horiz-adv-x="1292" 
d="M649 1554l121 330h121l-135 -330h-107zM186 1434h990v-123h-842v-504h780v-123h-780v-561h842v-123h-990v1434z" />
    <glyph glyph-name="Ecircumflex" unicode="&#xca;" horiz-adv-x="1292" 
d="M373 1571l268 299h84l268 -299h-131l-180 205l-180 -205h-129zM186 1434h990v-123h-842v-504h780v-123h-780v-561h842v-123h-990v1434z" />
    <glyph glyph-name="Edieresis" unicode="&#xcb;" horiz-adv-x="1292" 
d="M365 1692q0 46 32.5 78t79.5 32q46 0 78.5 -32t32.5 -78q0 -47 -32.5 -80t-78.5 -33q-47 0 -79.5 33t-32.5 80zM774 1692q0 46 33 78t80 32q46 0 78 -32t32 -78q0 -47 -32 -80t-78 -33q-47 0 -80 33t-33 80zM186 1434h990v-123h-842v-504h780v-123h-780v-561h842v-123
h-990v1434z" />
    <glyph glyph-name="Igrave" unicode="&#xcc;" horiz-adv-x="516" 
d="M295 1554h-107l-137 330h121zM184 1434h148v-1434h-148v1434z" />
    <glyph glyph-name="Iacute" unicode="&#xcd;" horiz-adv-x="516" 
d="M223 1554l121 330h121l-135 -330h-107zM184 1434h148v-1434h-148v1434z" />
    <glyph glyph-name="Icircumflex" unicode="&#xce;" horiz-adv-x="516" 
d="M-51 1571l268 299h84l268 -299h-131l-180 205l-180 -205h-129zM184 1434h148v-1434h-148v1434z" />
    <glyph glyph-name="Idieresis" unicode="&#xcf;" horiz-adv-x="516" 
d="M-59 1692q0 46 32.5 78t79.5 32q46 0 78.5 -32t32.5 -78q0 -47 -32.5 -80t-78.5 -33q-47 0 -79.5 33t-32.5 80zM350 1692q0 46 33 78t80 32q46 0 78 -32t32 -78q0 -47 -32 -80t-78 -33q-47 0 -80 33t-33 80zM184 1434h148v-1434h-148v1434z" />
    <glyph glyph-name="Eth" unicode="&#xd0;" horiz-adv-x="1640" 
d="M-47 768h231v666h559q118 0 228 -29.5t204.5 -90t165 -145t110.5 -201t40 -251.5t-40 -251.5t-110.5 -201t-165 -145t-204.5 -90t-228 -29.5h-559v666h-231v102zM332 123h411q120 0 226.5 39t189.5 111.5t131.5 187.5t48.5 256t-48.5 256t-131.5 187.5t-189.5 111.5
t-226.5 39h-411v-543h405v-102h-405v-543z" />
    <glyph glyph-name="Ntilde" unicode="&#xd1;" horiz-adv-x="1722" 
d="M879 1706q101 -42 128 -46q47 -6 81 38q18 24 40 69l74 -22q-18 -45 -38 -77t-39 -51.5t-44 -28t-45.5 -10.5t-52 5.5t-55.5 15.5t-62 23q-101 40 -131 42q-47 4 -79 -47q-16 -24 -33 -65l-74 29q24 61 52.5 98t56.5 53t66.5 15t71.5 -11t83 -30zM184 1434h148
l1059 -1229v1229h147v-1434h-147l-1059 1217v-1217h-148v1434z" />
    <glyph glyph-name="Ograve" unicode="&#xd2;" horiz-adv-x="1789" 
d="M940 1554h-106l-138 330h121zM215 408q-63 141 -63 309t62.5 309.5t166.5 233.5t237.5 143t278.5 51q116 0 225.5 -31.5t204 -95t166 -150.5t112 -206t40.5 -254t-40.5 -254t-112 -206t-166 -150.5t-204 -95t-225.5 -31.5q-145 0 -278.5 51t-237.5 143t-166 234z
M1121 1289q-108 42 -224 42t-223 -42.5t-189.5 -119.5t-132 -194.5t-49.5 -257.5q0 -139 49.5 -257t132 -195t189.5 -120t223 -43q93 0 180.5 27t163 80t132 126t88.5 171.5t32 210.5q0 140 -49.5 257.5t-132.5 194.5t-190 120z" />
    <glyph glyph-name="Oacute" unicode="&#xd3;" horiz-adv-x="1789" 
d="M852 1554l121 330h121l-136 -330h-106zM215 408q-63 141 -63 309t62.5 309.5t166.5 233.5t237.5 143t278.5 51q116 0 225.5 -31.5t204 -95t166 -150.5t112 -206t40.5 -254t-40.5 -254t-112 -206t-166 -150.5t-204 -95t-225.5 -31.5q-145 0 -278.5 51t-237.5 143t-166 234
zM1121 1289q-108 42 -224 42t-223 -42.5t-189.5 -119.5t-132 -194.5t-49.5 -257.5q0 -139 49.5 -257t132 -195t189.5 -120t223 -43q93 0 180.5 27t163 80t132 126t88.5 171.5t32 210.5q0 140 -49.5 257.5t-132.5 194.5t-190 120z" />
    <glyph glyph-name="Ocircumflex" unicode="&#xd4;" horiz-adv-x="1789" 
d="M588 1571l268 299h84l268 -299h-131l-180 205l-180 -205h-129zM215 408q-63 141 -63 309t62.5 309.5t166.5 233.5t237.5 143t278.5 51q116 0 225.5 -31.5t204 -95t166 -150.5t112 -206t40.5 -254t-40.5 -254t-112 -206t-166 -150.5t-204 -95t-225.5 -31.5
q-145 0 -278.5 51t-237.5 143t-166 234zM1121 1289q-108 42 -224 42t-223 -42.5t-189.5 -119.5t-132 -194.5t-49.5 -257.5q0 -139 49.5 -257t132 -195t189.5 -120t223 -43q93 0 180.5 27t163 80t132 126t88.5 171.5t32 210.5q0 140 -49.5 257.5t-132.5 194.5t-190 120z" />
    <glyph glyph-name="Otilde" unicode="&#xd5;" horiz-adv-x="1789" 
d="M911 1706q102 -42 129 -46q48 -6 82 39q18 25 39 68l74 -22q-18 -45 -38 -77t-39 -51.5t-44 -28t-45.5 -10.5t-52 5.5t-55.5 15.5t-62 23q-101 40 -131 42q-49 4 -81 -48q-15 -24 -32 -64l-73 29q24 61 52.5 98t56 53t66.5 14.5t71.5 -11t82.5 -29.5zM215 408
q-63 141 -63 309t62.5 309.5t166.5 233.5t237.5 143t278.5 51q116 0 225.5 -31.5t204 -95t166 -150.5t112 -206t40.5 -254t-40.5 -254t-112 -206t-166 -150.5t-204 -95t-225.5 -31.5q-145 0 -278.5 51t-237.5 143t-166 234zM1121 1289q-108 42 -224 42t-223 -42.5
t-189.5 -119.5t-132 -194.5t-49.5 -257.5q0 -139 49.5 -257t132 -195t189.5 -120t223 -43q93 0 180.5 27t163 80t132 126t88.5 171.5t32 210.5q0 140 -49.5 257.5t-132.5 194.5t-190 120z" />
    <glyph glyph-name="Odieresis" unicode="&#xd6;" horiz-adv-x="1789" 
d="M580 1692q0 46 32.5 78t79.5 32q46 0 78.5 -32t32.5 -78q0 -47 -32.5 -80t-78.5 -33q-47 0 -79.5 33t-32.5 80zM989 1692q0 46 33 78t80 32q46 0 78 -32t32 -78q0 -47 -32 -80t-78 -33q-47 0 -80 33t-33 80zM215 408q-63 141 -63 309t62.5 309.5t166.5 233.5t237.5 143
t278.5 51q116 0 225.5 -31.5t204 -95t166 -150.5t112 -206t40.5 -254t-40.5 -254t-112 -206t-166 -150.5t-204 -95t-225.5 -31.5q-145 0 -278.5 51t-237.5 143t-166 234zM1121 1289q-108 42 -224 42t-223 -42.5t-189.5 -119.5t-132 -194.5t-49.5 -257.5q0 -139 49.5 -257
t132 -195t189.5 -120t223 -43q93 0 180.5 27t163 80t132 126t88.5 171.5t32 210.5q0 140 -49.5 257.5t-132.5 194.5t-190 120z" />
    <glyph glyph-name="multiply" unicode="&#xd7;" horiz-adv-x="872" 
d="M154 279l211 208l-211 211l73 72l209 -209l211 209l72 -72l-209 -211l209 -208l-72 -74l-211 211l-209 -211z" />
    <glyph glyph-name="Oslash" unicode="&#xd8;" horiz-adv-x="1789" 
d="M547 -205l74 234q-208 77 -339.5 257t-131.5 431q0 168 62.5 309.5t166.5 233.5t237.5 143t278.5 51q85 0 168 -18l63 202h117l-74 -233q101 -37 186 -100.5t150 -149t101 -198.5t36 -240q0 -168 -62.5 -309.5t-167 -233.5t-238.5 -143t-279 -51q-85 0 -168 18l-63 -203
h-117zM895 1331q-116 0 -223 -42.5t-189.5 -119.5t-132 -194.5t-49.5 -257.5q0 -204 98 -352t258 -215l369 1167q-75 14 -131 14zM764 117q64 -15 131 -15q93 0 180.5 27t163 80t132 126t88.5 171.5t32 210.5q0 204 -98.5 351.5t-259.5 215.5z" />
    <glyph glyph-name="Ugrave" unicode="&#xd9;" horiz-adv-x="1574" 
d="M848 1554h-107l-137 330h121zM1243 1434h148v-840q0 -311 -156.5 -462.5t-454.5 -151.5q-296 0 -446 150.5t-150 463.5v840h148v-840q0 -254 110.5 -373t337.5 -119q229 0 346 120t117 372v840z" />
    <glyph glyph-name="Uacute" unicode="&#xda;" horiz-adv-x="1574" 
d="M743 1554l121 330h121l-135 -330h-107zM1243 1434h148v-840q0 -311 -156.5 -462.5t-454.5 -151.5q-296 0 -446 150.5t-150 463.5v840h148v-840q0 -254 110.5 -373t337.5 -119q229 0 346 120t117 372v840z" />
    <glyph glyph-name="Ucircumflex" unicode="&#xdb;" horiz-adv-x="1574" 
d="M479 1571l269 299h83l269 -299h-131l-181 205l-180 -205h-129zM1243 1434h148v-840q0 -311 -156.5 -462.5t-454.5 -151.5q-296 0 -446 150.5t-150 463.5v840h148v-840q0 -254 110.5 -373t337.5 -119q229 0 346 120t117 372v840z" />
    <glyph glyph-name="Udieresis" unicode="&#xdc;" horiz-adv-x="1574" 
d="M471 1692q0 46 33 78t80 32q46 0 78 -32t32 -78q0 -47 -32 -80t-78 -33q-47 0 -80 33t-33 80zM881 1692q0 46 32.5 78t79.5 32q46 0 78.5 -32t32.5 -78q0 -47 -32.5 -80t-78.5 -33q-47 0 -79.5 33t-32.5 80zM1243 1434h148v-840q0 -311 -156.5 -462.5t-454.5 -151.5
q-296 0 -446 150.5t-150 463.5v840h148v-840q0 -254 110.5 -373t337.5 -119q229 0 346 120t117 372v840z" />
    <glyph glyph-name="Yacute" unicode="&#xdd;" horiz-adv-x="1540" 
d="M741 1554l121 330h121l-135 -330h-107zM696 430l-608 1004h170l512 -875l514 875h170l-610 -1004v-430h-148v430z" />
    <glyph glyph-name="Thorn" unicode="&#xde;" horiz-adv-x="1456" 
d="M805 1194q30 0 65.5 -4t85.5 -17t96.5 -33.5t94 -57.5t82 -85t56.5 -120t22 -158q0 -87 -22 -159t-56.5 -120t-82 -85.5t-93.5 -58t-96.5 -33.5t-86 -17t-65.5 -4h-473v-242h-148v1434h148v-240h473zM332 365h463q32 0 69 5.5t91.5 27.5t96.5 58t72.5 104.5t30.5 158.5
q0 89 -30.5 157t-72.5 103.5t-96.5 57.5t-92 28t-68.5 6h-463v-706z" />
    <glyph glyph-name="germandbls" unicode="&#xdf;" horiz-adv-x="1325" 
d="M133 987q0 98 26 179.5t81.5 147.5t151.5 103t226 37q145 0 255.5 -41.5t176.5 -131t66 -216.5q0 -257 -201 -340q132 -34 206.5 -117t74.5 -219q0 -200 -156 -303.5t-424 -103.5v114q96 0 174 17t138 53t92.5 96t32.5 141q0 136 -92 201.5t-250 65.5h-93v98h76
q283 0 283 281q0 148 -98.5 219t-257.5 71q-98 0 -167.5 -27t-107 -77t-54 -110t-16.5 -138v-987h-143v987z" />
    <glyph glyph-name="agrave" unicode="&#xe0;" horiz-adv-x="1216" 
d="M711 1145h-107l-137 330h121zM240 1024h362q101 0 175 -20.5t119 -55t71.5 -89t35.5 -113t9 -136.5v-297q0 -110 31.5 -152t132.5 -42h20v-119h-96q-119 1 -164 44.5t-53 152.5q-47 -98 -143.5 -157.5t-235.5 -59.5q-188 0 -278.5 68t-90.5 235t85 236t280 69h368v20
q0 51 -3 85t-12.5 71.5t-28.5 60.5t-49.5 42.5t-77.5 28.5t-111 9h-346v119zM868 471h-362q-118 0 -170.5 -42t-52.5 -146q0 -108 60 -146.5t194 -38.5q149 0 240 80.5t91 200.5v92z" />
    <glyph glyph-name="aacute" unicode="&#xe1;" horiz-adv-x="1216" 
d="M514 1145l121 330h121l-135 -330h-107zM240 1024h362q101 0 175 -20.5t119 -55t71.5 -89t35.5 -113t9 -136.5v-297q0 -110 31.5 -152t132.5 -42h20v-119h-96q-119 1 -164 44.5t-53 152.5q-47 -98 -143.5 -157.5t-235.5 -59.5q-188 0 -278.5 68t-90.5 235t85 236t280 69
h368v20q0 51 -3 85t-12.5 71.5t-28.5 60.5t-49.5 42.5t-77.5 28.5t-111 9h-346v119zM868 471h-362q-118 0 -170.5 -42t-52.5 -146q0 -108 60 -146.5t194 -38.5q149 0 240 80.5t91 200.5v92z" />
    <glyph glyph-name="acircumflex" unicode="&#xe2;" horiz-adv-x="1216" 
d="M299 1161l268 299h84l269 -299h-132l-180 205l-180 -205h-129zM240 1024h362q101 0 175 -20.5t119 -55t71.5 -89t35.5 -113t9 -136.5v-297q0 -110 31.5 -152t132.5 -42h20v-119h-96q-119 1 -164 44.5t-53 152.5q-47 -98 -143.5 -157.5t-235.5 -59.5q-188 0 -278.5 68
t-90.5 235t85 236t280 69h368v20q0 51 -3 85t-12.5 71.5t-28.5 60.5t-49.5 42.5t-77.5 28.5t-111 9h-346v119zM868 471h-362q-118 0 -170.5 -42t-52.5 -146q0 -108 60 -146.5t194 -38.5q149 0 240 80.5t91 200.5v92z" />
    <glyph glyph-name="atilde" unicode="&#xe3;" horiz-adv-x="1216" 
d="M625 1296q101 -42 129 -46q47 -5 81 40q18 24 39 68l74 -23q-18 -45 -38 -77t-39 -51.5t-44 -28t-45.5 -10.5t-52 5.5t-55.5 15.5t-62 23q-100 40 -130 43q-47 4 -80 -45q-15 -24 -33 -67l-74 28q24 61 52.5 98t56.5 53t66.5 15t71.5 -11t83 -30zM240 1024h362
q101 0 175 -20.5t119 -55t71.5 -89t35.5 -113t9 -136.5v-297q0 -110 31.5 -152t132.5 -42h20v-119h-96q-119 1 -164 44.5t-53 152.5q-47 -98 -143.5 -157.5t-235.5 -59.5q-188 0 -278.5 68t-90.5 235t85 236t280 69h368v20q0 51 -3 85t-12.5 71.5t-28.5 60.5t-49.5 42.5
t-77.5 28.5t-111 9h-346v119zM868 471h-362q-118 0 -170.5 -42t-52.5 -146q0 -108 60 -146.5t194 -38.5q149 0 240 80.5t91 200.5v92z" />
    <glyph glyph-name="adieresis" unicode="&#xe4;" horiz-adv-x="1216" 
d="M291 1282q0 46 32.5 78.5t79.5 32.5q46 0 78.5 -32.5t32.5 -78.5q0 -47 -32.5 -80t-78.5 -33q-47 0 -79.5 33t-32.5 80zM700 1282q0 46 33 78.5t80 32.5q46 0 78.5 -32.5t32.5 -78.5q0 -47 -32.5 -80t-78.5 -33q-47 0 -80 33t-33 80zM240 1024h362q101 0 175 -20.5
t119 -55t71.5 -89t35.5 -113t9 -136.5v-297q0 -110 31.5 -152t132.5 -42h20v-119h-96q-119 1 -164 44.5t-53 152.5q-47 -98 -143.5 -157.5t-235.5 -59.5q-188 0 -278.5 68t-90.5 235t85 236t280 69h368v20q0 51 -3 85t-12.5 71.5t-28.5 60.5t-49.5 42.5t-77.5 28.5t-111 9
h-346v119zM868 471h-362q-118 0 -170.5 -42t-52.5 -146q0 -108 60 -146.5t194 -38.5q149 0 240 80.5t91 200.5v92z" />
    <glyph glyph-name="aring" unicode="&#xe5;" horiz-adv-x="1216" 
d="M433 1177q-73 73 -73 173t73 172.5t173 72.5q101 0 174.5 -72.5t73.5 -172.5t-73.5 -173t-174.5 -73q-100 0 -173 73zM444 1350q0 -61 50 -110.5t112 -49.5q63 0 112.5 49t49.5 111q0 63 -49.5 112t-112.5 49q-62 0 -112 -49t-50 -112zM240 1024h362q101 0 175 -20.5
t119 -55t71.5 -89t35.5 -113t9 -136.5v-297q0 -110 31.5 -152t132.5 -42h20v-119h-96q-119 1 -164 44.5t-53 152.5q-47 -98 -143.5 -157.5t-235.5 -59.5q-188 0 -278.5 68t-90.5 235t85 236t280 69h368v20q0 51 -3 85t-12.5 71.5t-28.5 60.5t-49.5 42.5t-77.5 28.5t-111 9
h-346v119zM868 471h-362q-118 0 -170.5 -42t-52.5 -146q0 -108 60 -146.5t194 -38.5q149 0 240 80.5t91 200.5v92z" />
    <glyph glyph-name="ae" unicode="&#xe6;" horiz-adv-x="2015" 
d="M240 1024h362q160 0 247.5 -47.5t123.5 -138.5q66 99 170.5 152.5t232.5 53.5q231 0 368.5 -138.5t143.5 -373.5v-63h-882q8 -122 63 -208t135.5 -124.5t177.5 -38.5q146 0 244 74t98 160h148q-4 -62 -39 -123t-95.5 -113t-155 -84t-206.5 -32q-146 0 -261.5 69.5
t-176.5 196.5q-49 -116 -163 -191t-271 -75q-188 0 -278.5 68t-90.5 235t85 236t280 69h368v20q0 51 -3 85t-12.5 71.5t-28.5 60.5t-49.5 42.5t-77.5 28.5t-111 9h-346v119zM1737 588q-18 172 -112.5 255t-242.5 83q-143 0 -248 -87t-126 -251h729zM868 471h-362
q-118 0 -170.5 -42t-52.5 -146q0 -108 60 -146.5t194 -38.5q149 0 240 80.5t91 200.5v92z" />
    <glyph glyph-name="ccedilla" unicode="&#xe7;" 
d="M276 512q0 -191 112.5 -302.5t285.5 -111.5q150 0 242 84t92 185h147q0 -67 -29.5 -133t-85 -122.5t-147 -93t-203.5 -38.5l-24 -93q45 -2 76 -8t62 -22t46.5 -48.5t15.5 -80.5q0 -72 -36.5 -119.5t-95 -65.5t-124 -18t-131.5 16v86q76 -19 140.5 -19.5t107.5 31t43 91.5
q0 17 -2.5 30.5t-9.5 23t-13 16t-19 10.5t-21.5 6.5t-27 3.5t-29 1t-32.5 -0.5t-34 -0.5h-4l36 162q-216 19 -350.5 160.5t-134.5 369.5q0 245 153.5 388.5t393.5 143.5q116 0 210.5 -35.5t151.5 -92.5t87 -124t30 -135h-147q0 101 -92 185t-242 84q-173 0 -285.5 -111
t-112.5 -303z" />
    <glyph glyph-name="egrave" unicode="&#xe8;" 
d="M686 1145h-106l-138 330h121zM272 469q6 -92 39 -164.5t85.5 -117t116.5 -67t136 -22.5q146 0 244 74t98 160h148q-4 -62 -39 -123t-95.5 -113t-155 -84t-206.5 -32q-105 0 -198 36.5t-163.5 103.5t-111.5 168.5t-41 223.5t41 223.5t111.5 168.5t163.5 103.5t198 36.5
q231 0 368.5 -138.5t143.5 -373.5v-63h-883zM1004 588q-18 172 -112.5 255t-242.5 83q-144 0 -249 -87t-126 -251h730z" />
    <glyph glyph-name="eacute" unicode="&#xe9;" 
d="M612 1145l121 330h121l-135 -330h-107zM272 469q6 -92 39 -164.5t85.5 -117t116.5 -67t136 -22.5q146 0 244 74t98 160h148q-4 -62 -39 -123t-95.5 -113t-155 -84t-206.5 -32q-105 0 -198 36.5t-163.5 103.5t-111.5 168.5t-41 223.5t41 223.5t111.5 168.5t163.5 103.5
t198 36.5q231 0 368.5 -138.5t143.5 -373.5v-63h-883zM1004 588q-18 172 -112.5 255t-242.5 83q-144 0 -249 -87t-126 -251h730z" />
    <glyph glyph-name="ecircumflex" unicode="&#xea;" 
d="M334 1161l268 299h84l268 -299h-131l-180 205l-180 -205h-129zM272 469q6 -92 39 -164.5t85.5 -117t116.5 -67t136 -22.5q146 0 244 74t98 160h148q-4 -62 -39 -123t-95.5 -113t-155 -84t-206.5 -32q-105 0 -198 36.5t-163.5 103.5t-111.5 168.5t-41 223.5t41 223.5
t111.5 168.5t163.5 103.5t198 36.5q231 0 368.5 -138.5t143.5 -373.5v-63h-883zM1004 588q-18 172 -112.5 255t-242.5 83q-144 0 -249 -87t-126 -251h730z" />
    <glyph glyph-name="edieresis" unicode="&#xeb;" 
d="M326 1282q0 46 32.5 78.5t79.5 32.5q46 0 78.5 -32.5t32.5 -78.5q0 -47 -32.5 -80t-78.5 -33q-47 0 -79.5 33t-32.5 80zM735 1282q0 46 33 78.5t80 32.5q46 0 78 -32.5t32 -78.5q0 -47 -32 -80t-78 -33q-47 0 -80 33t-33 80zM272 469q6 -92 39 -164.5t85.5 -117
t116.5 -67t136 -22.5q146 0 244 74t98 160h148q-4 -62 -39 -123t-95.5 -113t-155 -84t-206.5 -32q-105 0 -198 36.5t-163.5 103.5t-111.5 168.5t-41 223.5t41 223.5t111.5 168.5t163.5 103.5t198 36.5q231 0 368.5 -138.5t143.5 -373.5v-63h-883zM1004 588
q-18 172 -112.5 255t-242.5 83q-144 0 -249 -87t-126 -251h730z" />
    <glyph glyph-name="igrave" unicode="&#xec;" horiz-adv-x="440" 
d="M258 1145h-106l-138 330h121zM150 1024h143v-1024h-143v1024z" />
    <glyph glyph-name="iacute" unicode="&#xed;" horiz-adv-x="440" 
d="M184 1145l121 330h121l-135 -330h-107zM150 1024h143v-1024h-143v1024z" />
    <glyph glyph-name="icircumflex" unicode="&#xee;" horiz-adv-x="440" 
d="M-88 1161l268 299h84l268 -299h-131l-180 205l-180 -205h-129zM150 1024h143v-1024h-143v1024z" />
    <glyph glyph-name="idieresis" unicode="&#xef;" horiz-adv-x="440" 
d="M-96 1282q0 46 32.5 78.5t79.5 32.5q46 0 78.5 -32.5t32.5 -78.5q0 -47 -32.5 -80t-78.5 -33q-47 0 -79.5 33t-32.5 80zM313 1282q0 46 33 78.5t80 32.5q46 0 78.5 -32.5t32.5 -78.5q0 -47 -32.5 -80t-78.5 -33q-47 0 -80 33t-33 80zM150 1024h143v-1024h-143v1024z" />
    <glyph glyph-name="eth" unicode="&#xf0;" horiz-adv-x="1312" 
d="M659 948q45 0 89 -6l-136 170h-331v102h249l-174 220h174l175 -220h374v-102h-295l258 -324q123 -133 123 -323q0 -145 -71.5 -257.5t-185.5 -170t-249 -57.5q-99 0 -191 34t-162.5 95t-113 153.5t-42.5 202.5q0 109 42.5 201.5t113 153.5t162.5 94.5t191 33.5zM659 94
q68 0 132 25.5t115 71t81.5 117t30.5 157.5q0 84 -30.5 155.5t-81.5 118t-115 72t-132 25.5q-93 0 -174.5 -43t-134.5 -129.5t-53 -198.5q0 -113 53 -199.5t134.5 -129t174.5 -42.5z" />
    <glyph glyph-name="ntilde" unicode="&#xf1;" horiz-adv-x="1277" 
d="M655 1296q102 -42 130 -46q48 -5 82 42q17 23 38 66l74 -23q-18 -45 -38 -77t-39 -51.5t-44 -28t-45.5 -10.5t-52 5.5t-55.5 15.5t-62 23q-101 40 -130 43q-49 4 -82 -47q-15 -24 -32 -65l-73 28q24 61 52.5 98t56 53t66.5 14.5t71.5 -11t82.5 -29.5zM164 1024h143v-211
q62 106 170 168.5t234 62.5q111 0 190.5 -30t125 -86.5t66.5 -129.5t21 -167v-631h-143v600q0 77 -14.5 133.5t-49 101.5t-98 68t-154.5 23q-142 0 -245 -98.5t-103 -243.5v-584h-143v1024z" />
    <glyph glyph-name="ograve" unicode="&#xf2;" horiz-adv-x="1345" 
d="M719 1145h-107l-137 330h121zM396 213q117 -115 280 -115t280 115t117 299t-117 299t-280 115t-280 -115t-117 -299t117 -299zM471 1007q98 37 205 37t205 -37t173.5 -103.5t121 -168.5t45.5 -223t-45.5 -223t-121 -168.5t-173.5 -103.5t-205 -37t-205 37t-173.5 103.5
t-121 168.5t-45.5 223t45.5 223t121 168.5t173.5 103.5z" />
    <glyph glyph-name="oacute" unicode="&#xf3;" horiz-adv-x="1345" 
d="M629 1145l121 330h120l-135 -330h-106zM396 213q117 -115 280 -115t280 115t117 299t-117 299t-280 115t-280 -115t-117 -299t117 -299zM471 1007q98 37 205 37t205 -37t173.5 -103.5t121 -168.5t45.5 -223t-45.5 -223t-121 -168.5t-173.5 -103.5t-205 -37t-205 37
t-173.5 103.5t-121 168.5t-45.5 223t45.5 223t121 168.5t173.5 103.5z" />
    <glyph glyph-name="ocircumflex" unicode="&#xf4;" horiz-adv-x="1345" 
d="M365 1161l268 299h84l268 -299h-131l-180 205l-180 -205h-129zM396 213q117 -115 280 -115t280 115t117 299t-117 299t-280 115t-280 -115t-117 -299t117 -299zM471 1007q98 37 205 37t205 -37t173.5 -103.5t121 -168.5t45.5 -223t-45.5 -223t-121 -168.5t-173.5 -103.5
t-205 -37t-205 37t-173.5 103.5t-121 168.5t-45.5 223t45.5 223t121 168.5t173.5 103.5z" />
    <glyph glyph-name="otilde" unicode="&#xf5;" horiz-adv-x="1345" 
d="M678 1296q102 -42 130 -46q48 -5 82 42q17 23 38 66l73 -23q-16 -39 -32 -69t-35 -48.5t-36 -30.5t-40 -15t-42 -3t-47 7.5t-49 15t-54 20.5q-101 40 -130 43q-49 4 -82 -47q-15 -24 -32 -65l-74 28q24 61 52.5 98t56.5 53t66.5 15t71.5 -11t83 -30zM396 213
q117 -115 280 -115t280 115t117 299t-117 299t-280 115t-280 -115t-117 -299t117 -299zM471 1007q98 37 205 37t205 -37t173.5 -103.5t121 -168.5t45.5 -223t-45.5 -223t-121 -168.5t-173.5 -103.5t-205 -37t-205 37t-173.5 103.5t-121 168.5t-45.5 223t45.5 223t121 168.5
t173.5 103.5z" />
    <glyph glyph-name="odieresis" unicode="&#xf6;" horiz-adv-x="1345" 
d="M356 1282q0 46 33 78.5t80 32.5q46 0 78.5 -32.5t32.5 -78.5q0 -47 -32.5 -80t-78.5 -33q-47 0 -80 33t-33 80zM766 1282q0 46 33 78.5t80 32.5q46 0 78 -32.5t32 -78.5q0 -47 -32 -80t-78 -33q-47 0 -80 33t-33 80zM396 213q117 -115 280 -115t280 115t117 299t-117 299
t-280 115t-280 -115t-117 -299t117 -299zM471 1007q98 37 205 37t205 -37t173.5 -103.5t121 -168.5t45.5 -223t-45.5 -223t-121 -168.5t-173.5 -103.5t-205 -37t-205 37t-173.5 103.5t-121 168.5t-45.5 223t45.5 223t121 168.5t173.5 103.5z" />
    <glyph glyph-name="divide" unicode="&#xf7;" horiz-adv-x="921" 
d="M330 981q0 53 37 89t92 36q53 0 89 -36t36 -89q0 -55 -36 -92t-89 -37q-55 0 -92 37t-37 92zM154 594h614v-102h-614v102zM330 109q0 53 37 88.5t92 35.5q53 0 89 -36t36 -88q0 -55 -36 -92t-89 -37q-55 0 -92 37t-37 92z" />
    <glyph glyph-name="oslash" unicode="&#xf8;" horiz-adv-x="1355" 
d="M398 213q117 -115 280 -115t280 115t117 299t-117 299t-280 115t-280 -115t-117 -299t117 -299zM678 1044q48 0 106 -10l62 195h117l-70 -225q148 -58 239 -186t91 -306q0 -121 -45.5 -223t-121 -168.5t-173.5 -103.5t-205 -37q-47 0 -105 10l-61 -195h-117l70 223
q-148 58 -240 186.5t-92 307.5q0 121 45.5 223t121 168.5t173.5 103.5t205 37z" />
    <glyph glyph-name="ugrave" unicode="&#xf9;" horiz-adv-x="1329" 
d="M713 1145h-107l-137 330h121zM1298 119v-119h-94q-124 1 -173.5 48t-57.5 163q-62 -105 -171 -168t-235 -63q-403 0 -403 415v629h143v-598q0 -77 14.5 -133.5t49 -102t98 -69t154.5 -23.5q142 0 245 98.5t103 243.5v584h143v-711q0 -57 5 -89.5t21 -58.5t47.5 -36
t84.5 -10h26z" />
    <glyph glyph-name="uacute" unicode="&#xfa;" horiz-adv-x="1329" 
d="M594 1145l121 330h121l-136 -330h-106zM1298 119v-119h-94q-124 1 -173.5 48t-57.5 163q-62 -105 -171 -168t-235 -63q-403 0 -403 415v629h143v-598q0 -77 14.5 -133.5t49 -102t98 -69t154.5 -23.5q142 0 245 98.5t103 243.5v584h143v-711q0 -57 5 -89.5t21 -58.5
t47.5 -36t84.5 -10h26z" />
    <glyph glyph-name="ucircumflex" unicode="&#xfb;" horiz-adv-x="1329" 
d="M346 1161l268 299h84l269 -299h-131l-181 205l-180 -205h-129zM1298 119v-119h-94q-124 1 -173.5 48t-57.5 163q-62 -105 -171 -168t-235 -63q-403 0 -403 415v629h143v-598q0 -77 14.5 -133.5t49 -102t98 -69t154.5 -23.5q142 0 245 98.5t103 243.5v584h143v-711
q0 -57 5 -89.5t21 -58.5t47.5 -36t84.5 -10h26z" />
    <glyph glyph-name="udieresis" unicode="&#xfc;" horiz-adv-x="1329" 
d="M336 1282q0 46 33 78.5t80 32.5q46 0 78 -32.5t32 -78.5q0 -47 -32 -80t-78 -33q-47 0 -80 33t-33 80zM745 1282q0 46 33 78.5t80 32.5q46 0 78.5 -32.5t32.5 -78.5q0 -47 -32.5 -80t-78.5 -33q-47 0 -80 33t-33 80zM1298 119v-119h-94q-124 1 -173.5 48t-57.5 163
q-62 -105 -171 -168t-235 -63q-403 0 -403 415v629h143v-598q0 -77 14.5 -133.5t49 -102t98 -69t154.5 -23.5q142 0 245 98.5t103 243.5v584h143v-711q0 -57 5 -89.5t21 -58.5t47.5 -36t84.5 -10h26z" />
    <glyph glyph-name="yacute" unicode="&#xfd;" horiz-adv-x="1202" 
d="M573 1145l121 330h121l-135 -330h-107zM1120 1024l-448 -1044q-69 -160 -99 -208q-62 -100 -158 -139q-105 -43 -302 -43v119q87 0 150 12t98.5 24.5t67 51t42 59t36.5 81.5q5 10 7.5 15.5t6.5 14.5t7 17l9 20l-453 1020h147l379 -860l365 860h145z" />
    <glyph glyph-name="thorn" unicode="&#xfe;" horiz-adv-x="1353" 
d="M1088 896q139 -149 139 -384t-139 -383.5t-363 -148.5q-129 0 -242 59t-176 160v-609h-143v1844h143v-609q63 101 176 160t242 59q224 0 363 -148zM307 416q0 -132 116.5 -225t262.5 -93q174 0 283.5 114.5t109.5 299.5q0 186 -109.5 300t-283.5 114q-146 0 -262.5 -92
t-116.5 -224v-194z" />
    <glyph glyph-name="ydieresis" unicode="&#xff;" horiz-adv-x="1202" 
d="M285 1282q0 46 32.5 78.5t79.5 32.5q46 0 78.5 -32.5t32.5 -78.5q0 -47 -32.5 -80t-78.5 -33q-47 0 -79.5 33t-32.5 80zM694 1282q0 46 33 78.5t80 32.5q46 0 78.5 -32.5t32.5 -78.5q0 -47 -32.5 -80t-78.5 -33q-47 0 -80 33t-33 80zM1120 1024l-448 -1044
q-69 -160 -99 -208q-62 -100 -158 -139q-105 -43 -302 -43v119q87 0 150 12t98.5 24.5t67 51t42 59t36.5 81.5q5 10 7.5 15.5t6.5 14.5t7 17l9 20l-453 1020h147l379 -860l365 860h145z" />
    <glyph glyph-name="Amacron" unicode="&#x100;" horiz-adv-x="1601" 
d="M563 1690h477v-82h-477v82zM727 1434h147l646 -1434h-148l-166 373h-811l-166 -373h-147zM451 496h702l-352 792z" />
    <glyph glyph-name="amacron" unicode="&#x101;" horiz-adv-x="1216" 
d="M371 1280h477v-82h-477v82zM240 1024h362q101 0 175 -20.5t119 -55t71.5 -89t35.5 -113t9 -136.5v-297q0 -110 31.5 -152t132.5 -42h20v-119h-96q-119 1 -164 44.5t-53 152.5q-47 -98 -143.5 -157.5t-235.5 -59.5q-188 0 -278.5 68t-90.5 235t85 236t280 69h368v20
q0 51 -3 85t-12.5 71.5t-28.5 60.5t-49.5 42.5t-77.5 28.5t-111 9h-346v119zM868 471h-362q-118 0 -170.5 -42t-52.5 -146q0 -108 60 -146.5t194 -38.5q149 0 240 80.5t91 200.5v92z" />
    <glyph glyph-name="Abreve" unicode="&#x102;" horiz-adv-x="1601" 
d="M498 1905h90q0 -119 58 -180.5t155 -61.5q99 0 156 61.5t57 180.5h90q0 -163 -83.5 -249.5t-219.5 -86.5t-219.5 86.5t-83.5 249.5zM727 1434h147l646 -1434h-148l-166 373h-811l-166 -373h-147zM451 496h702l-352 792z" />
    <glyph glyph-name="abreve" unicode="&#x103;" horiz-adv-x="1216" 
d="M305 1495h90q0 -119 58 -180.5t155 -61.5q99 0 156 61.5t57 180.5h90q0 -163 -83.5 -249.5t-219.5 -86.5t-219.5 86.5t-83.5 249.5zM240 1024h362q101 0 175 -20.5t119 -55t71.5 -89t35.5 -113t9 -136.5v-297q0 -110 31.5 -152t132.5 -42h20v-119h-96q-119 1 -164 44.5
t-53 152.5q-47 -98 -143.5 -157.5t-235.5 -59.5q-188 0 -278.5 68t-90.5 235t85 236t280 69h368v20q0 51 -3 85t-12.5 71.5t-28.5 60.5t-49.5 42.5t-77.5 28.5t-111 9h-346v119zM868 471h-362q-118 0 -170.5 -42t-52.5 -146q0 -108 60 -146.5t194 -38.5q149 0 240 80.5
t91 200.5v92z" />
    <glyph glyph-name="Aogonek" unicode="&#x104;" horiz-adv-x="1601" 
d="M727 1434h147l646 -1434h-74l2 -2q-33 -43 -45.5 -60t-32 -50t-26.5 -61t-7 -60q0 -49 25 -78.5t69 -37t94 -2.5t109 21v-92q-64 -16 -130 -17t-126 15t-97.5 60.5t-37.5 113.5q0 46 21.5 97t43 81.5t60.5 79.5l-162 365h-811l-166 -373h-147zM451 496h702l-352 792z" />
    <glyph glyph-name="aogonek" unicode="&#x105;" horiz-adv-x="1216" 
d="M240 1024h362q101 0 175 -20.5t119 -55t71.5 -89t35.5 -113t9 -136.5v-297q0 -110 31.5 -152t132.5 -42h20v-119h-96q-58 0 -109 14q-46 -61 -67 -104t-21 -98q0 -49 25 -78.5t69 -37t94 -2.5t109 21v-92q-64 -16 -130 -17t-126 15t-97.5 60.5t-37.5 113.5q0 35 9.5 68
t32.5 70.5t36 56t45 59.5q-43 43 -49 148q-47 -98 -143.5 -157.5t-235.5 -59.5q-188 0 -278.5 68t-90.5 235t85 236t280 69h368v20q0 51 -3 85t-12.5 71.5t-28.5 60.5t-49.5 42.5t-77.5 28.5t-111 9h-346v119zM868 471h-362q-118 0 -170.5 -42t-52.5 -146q0 -108 60 -146.5
t194 -38.5q149 0 240 80.5t91 200.5v92z" />
    <glyph glyph-name="Cacute" unicode="&#x106;" horiz-adv-x="1683" 
d="M793 1554l120 330h121l-135 -330h-106zM303 717q0 -118 31 -218.5t84.5 -172.5t126 -123t156 -76t173.5 -25q119 0 219 37.5t162.5 98.5t96.5 133t34 145h152q0 -72 -26.5 -146.5t-82 -144.5t-132 -124.5t-186.5 -87.5t-237 -33q-148 0 -279.5 51.5t-229.5 145
t-155.5 233.5t-57.5 307t57.5 307t155.5 233.5t229.5 145t279.5 51.5q127 0 237 -33t186.5 -87.5t132 -124.5t82 -144.5t26.5 -146.5h-152q0 73 -34 145t-96.5 132.5t-162.5 98t-219 37.5q-113 0 -214.5 -39.5t-182 -114.5t-127.5 -194t-47 -266z" />
    <glyph glyph-name="cacute" unicode="&#x107;" 
d="M602 1145l121 330h121l-135 -330h-107zM276 512q0 -191 112.5 -302.5t285.5 -111.5q150 0 242 84t92 185h147q0 -67 -30 -134t-87 -124.5t-151.5 -93t-210.5 -35.5q-240 0 -393.5 143.5t-153.5 388.5t153.5 388.5t393.5 143.5q116 0 210.5 -35.5t151.5 -92.5t87 -124
t30 -135h-147q0 101 -92 185t-242 84q-173 0 -285.5 -111t-112.5 -303z" />
    <glyph glyph-name="Ccircumflex" unicode="&#x108;" horiz-adv-x="1683" 
d="M535 1571l268 299h84l268 -299h-131l-180 205l-180 -205h-129zM303 717q0 -118 31 -218.5t84.5 -172.5t126 -123t156 -76t173.5 -25q119 0 219 37.5t162.5 98.5t96.5 133t34 145h152q0 -72 -26.5 -146.5t-82 -144.5t-132 -124.5t-186.5 -87.5t-237 -33
q-148 0 -279.5 51.5t-229.5 145t-155.5 233.5t-57.5 307t57.5 307t155.5 233.5t229.5 145t279.5 51.5q127 0 237 -33t186.5 -87.5t132 -124.5t82 -144.5t26.5 -146.5h-152q0 73 -34 145t-96.5 132.5t-162.5 98t-219 37.5q-113 0 -214.5 -39.5t-182 -114.5t-127.5 -194
t-47 -266z" />
    <glyph glyph-name="ccircumflex" unicode="&#x109;" 
d="M334 1161l268 299h84l268 -299h-131l-180 205l-180 -205h-129zM276 512q0 -191 112.5 -302.5t285.5 -111.5q150 0 242 84t92 185h147q0 -67 -30 -134t-87 -124.5t-151.5 -93t-210.5 -35.5q-240 0 -393.5 143.5t-153.5 388.5t153.5 388.5t393.5 143.5q116 0 210.5 -35.5
t151.5 -92.5t87 -124t30 -135h-147q0 101 -92 185t-242 84q-173 0 -285.5 -111t-112.5 -303z" />
    <glyph glyph-name="Cdotaccent" unicode="&#x10a;" horiz-adv-x="1683" 
d="M731 1692q0 46 33 78t80 32q46 0 78 -32t32 -78q0 -47 -32 -80t-78 -33q-47 0 -80 33t-33 80zM303 717q0 -118 31 -218.5t84.5 -172.5t126 -123t156 -76t173.5 -25q119 0 219 37.5t162.5 98.5t96.5 133t34 145h152q0 -72 -26.5 -146.5t-82 -144.5t-132 -124.5
t-186.5 -87.5t-237 -33q-148 0 -279.5 51.5t-229.5 145t-155.5 233.5t-57.5 307t57.5 307t155.5 233.5t229.5 145t279.5 51.5q127 0 237 -33t186.5 -87.5t132 -124.5t82 -144.5t26.5 -146.5h-152q0 73 -34 145t-96.5 132.5t-162.5 98t-219 37.5q-113 0 -214.5 -39.5
t-182 -114.5t-127.5 -194t-47 -266z" />
    <glyph glyph-name="cdotaccent" unicode="&#x10b;" 
d="M530 1282q0 46 33 78.5t80 32.5q46 0 78.5 -32.5t32.5 -78.5q0 -47 -32.5 -80t-78.5 -33q-47 0 -80 33t-33 80zM276 512q0 -191 112.5 -302.5t285.5 -111.5q150 0 242 84t92 185h147q0 -67 -30 -134t-87 -124.5t-151.5 -93t-210.5 -35.5q-240 0 -393.5 143.5
t-153.5 388.5t153.5 388.5t393.5 143.5q116 0 210.5 -35.5t151.5 -92.5t87 -124t30 -135h-147q0 101 -92 185t-242 84q-173 0 -285.5 -111t-112.5 -303z" />
    <glyph glyph-name="Ccaron" unicode="&#x10c;" horiz-adv-x="1683" 
d="M532 1853h132l180 -204l180 204h129l-268 -299h-84zM303 717q0 -118 31 -218.5t84.5 -172.5t126 -123t156 -76t173.5 -25q119 0 219 37.5t162.5 98.5t96.5 133t34 145h152q0 -72 -26.5 -146.5t-82 -144.5t-132 -124.5t-186.5 -87.5t-237 -33q-148 0 -279.5 51.5
t-229.5 145t-155.5 233.5t-57.5 307t57.5 307t155.5 233.5t229.5 145t279.5 51.5q127 0 237 -33t186.5 -87.5t132 -124.5t82 -144.5t26.5 -146.5h-152q0 73 -34 145t-96.5 132.5t-162.5 98t-219 37.5q-113 0 -214.5 -39.5t-182 -114.5t-127.5 -194t-47 -266z" />
    <glyph glyph-name="ccaron" unicode="&#x10d;" 
d="M332 1444h131l180 -205l180 205h129l-268 -299h-84zM276 512q0 -191 112.5 -302.5t285.5 -111.5q150 0 242 84t92 185h147q0 -67 -30 -134t-87 -124.5t-151.5 -93t-210.5 -35.5q-240 0 -393.5 143.5t-153.5 388.5t153.5 388.5t393.5 143.5q116 0 210.5 -35.5t151.5 -92.5
t87 -124t30 -135h-147q0 101 -92 185t-242 84q-173 0 -285.5 -111t-112.5 -303z" />
    <glyph glyph-name="Dcaron" unicode="&#x10e;" horiz-adv-x="1640" 
d="M510 1853h131l180 -204l180 204h129l-268 -299h-84zM743 1434q118 0 228 -29.5t204.5 -90t165 -145t110.5 -201t40 -251.5t-40 -251.5t-110.5 -201t-165 -145t-204.5 -90t-228 -29.5h-559v1434h559zM332 123h411q120 0 226.5 39t189.5 111.5t131.5 187.5t48.5 256
t-48.5 256t-131.5 187.5t-189.5 111.5t-226.5 39h-411v-1188z" />
    <glyph glyph-name="dcaron" unicode="&#x10f;" horiz-adv-x="1812" 
d="M1655 1266l-146 -269h-82l91 205q-45 9 -74 44.5t-29 82.5q0 53 37 89t92 36q52 0 88.5 -36t36.5 -89q0 -28 -14 -63zM268 129q-139 148 -139 383t139 383.5t363 148.5q126 0 239 -58.5t177 -158.5v607h143v-1434h-143v197q-64 -101 -176.5 -159t-239.5 -58
q-224 0 -363 149zM668 98q146 0 262.5 93t116.5 225v194q0 132 -116.5 224t-262.5 92q-174 0 -283 -114t-109 -300q0 -185 109 -299.5t283 -114.5z" />
    <glyph glyph-name="Dcroat" unicode="&#x110;" horiz-adv-x="1640" 
d="M-47 768h231v666h559q118 0 228 -29.5t204.5 -90t165 -145t110.5 -201t40 -251.5t-40 -251.5t-110.5 -201t-165 -145t-204.5 -90t-228 -29.5h-559v666h-231v102zM332 123h411q120 0 226.5 39t189.5 111.5t131.5 187.5t48.5 256t-48.5 256t-131.5 187.5t-189.5 111.5
t-226.5 39h-411v-543h405v-102h-405v-543z" />
    <glyph glyph-name="dcroat" unicode="&#x111;" horiz-adv-x="1353" 
d="M612 1270h435v164h143v-164h211v-82h-211v-1188h-143v197q-64 -101 -176.5 -159t-239.5 -58q-224 0 -363 148.5t-139 383.5t139 383.5t363 148.5q126 0 239 -58.5t177 -158.5v361h-435v82zM668 98q146 0 262.5 93t116.5 225v194q0 132 -116.5 224t-262.5 92
q-174 0 -283 -114t-109 -300q0 -185 109 -299.5t283 -114.5z" />
    <glyph glyph-name="Emacron" unicode="&#x112;" horiz-adv-x="1292" 
d="M444 1690h478v-82h-478v82zM186 1434h990v-123h-842v-504h780v-123h-780v-561h842v-123h-990v1434z" />
    <glyph glyph-name="emacron" unicode="&#x113;" 
d="M403 1280h478v-82h-478v82zM272 469q6 -92 39 -164.5t85.5 -117t116.5 -67t136 -22.5q146 0 244 74t98 160h148q-4 -62 -39 -123t-95.5 -113t-155 -84t-206.5 -32q-105 0 -198 36.5t-163.5 103.5t-111.5 168.5t-41 223.5t41 223.5t111.5 168.5t163.5 103.5t198 36.5
q231 0 368.5 -138.5t143.5 -373.5v-63h-883zM1004 588q-18 172 -112.5 255t-242.5 83q-144 0 -249 -87t-126 -251h730z" />
    <glyph glyph-name="Ebreve" unicode="&#x114;" horiz-adv-x="1292" 
d="M379 1905h90q0 -119 58 -180.5t155 -61.5q99 0 156 61.5t57 180.5h90q0 -163 -83.5 -249.5t-219.5 -86.5t-219.5 86.5t-83.5 249.5zM186 1434h990v-123h-842v-504h780v-123h-780v-561h842v-123h-990v1434z" />
    <glyph glyph-name="ebreve" unicode="&#x115;" 
d="M358 1495h91q0 -119 58 -180.5t155 -61.5q98 0 155 61t57 181h91q0 -163 -83.5 -249.5t-219.5 -86.5t-220 86.5t-84 249.5zM272 469q6 -92 39 -164.5t85.5 -117t116.5 -67t136 -22.5q146 0 244 74t98 160h148q-4 -62 -39 -123t-95.5 -113t-155 -84t-206.5 -32
q-105 0 -198 36.5t-163.5 103.5t-111.5 168.5t-41 223.5t41 223.5t111.5 168.5t163.5 103.5t198 36.5q231 0 368.5 -138.5t143.5 -373.5v-63h-883zM1004 588q-18 172 -112.5 255t-242.5 83q-144 0 -249 -87t-126 -251h730z" />
    <glyph glyph-name="Edotaccent" unicode="&#x116;" horiz-adv-x="1292" 
d="M569 1692q0 46 33 78t80 32q46 0 78.5 -32t32.5 -78q0 -47 -32.5 -80t-78.5 -33q-47 0 -80 33t-33 80zM186 1434h990v-123h-842v-504h780v-123h-780v-561h842v-123h-990v1434z" />
    <glyph glyph-name="edotaccent" unicode="&#x117;" 
d="M530 1282q0 46 33 78.5t80 32.5q46 0 78.5 -32.5t32.5 -78.5q0 -47 -32.5 -80t-78.5 -33q-47 0 -80 33t-33 80zM272 469q6 -92 39 -164.5t85.5 -117t116.5 -67t136 -22.5q146 0 244 74t98 160h148q-4 -62 -39 -123t-95.5 -113t-155 -84t-206.5 -32q-105 0 -198 36.5
t-163.5 103.5t-111.5 168.5t-41 223.5t41 223.5t111.5 168.5t163.5 103.5t198 36.5q231 0 368.5 -138.5t143.5 -373.5v-63h-883zM1004 588q-18 172 -112.5 255t-242.5 83q-144 0 -249 -87t-126 -251h730z" />
    <glyph glyph-name="Eogonek" unicode="&#x118;" horiz-adv-x="1292" 
d="M186 1434h990v-123h-842v-504h780v-123h-780v-561h842v-123h-193l4 -4q-41 -53 -59 -79t-34.5 -68.5t-16.5 -84.5q0 -49 25 -78t69 -36.5t94 -2.5t109 21v-92q-64 -16 -130 -17t-126 15t-98 60.5t-38 113.5q0 45 20.5 94t42 80t58.5 78h-717v1434z" />
    <glyph glyph-name="eogonek" unicode="&#x119;" 
d="M893 -438q-64 -16 -130 -17t-126 15t-97.5 60.5t-37.5 113.5q0 44 19 91t40 78.5t57 76.5q-101 5 -189.5 43.5t-155.5 105t-105.5 166t-38.5 217.5q0 122 41 223.5t111.5 168.5t163.5 103.5t198 36.5q231 0 368.5 -138.5t143.5 -373.5v-63h-883q6 -92 39 -164.5
t85.5 -117t116.5 -67t136 -22.5q146 0 244 74t98 160h148q-8 -123 -124 -227.5t-308 -122.5q-42 -54 -59.5 -79.5t-34.5 -68t-17 -84.5q0 -49 25 -78t69 -36.5t94 -2.5t109 21v-92zM1004 588q-18 172 -112.5 255t-242.5 83q-144 0 -249 -87t-126 -251h730z" />
    <glyph glyph-name="Ecaron" unicode="&#x11a;" horiz-adv-x="1292" 
d="M377 1853h131l180 -204l180 204h129l-268 -299h-84zM186 1434h990v-123h-842v-504h780v-123h-780v-561h842v-123h-990v1434z" />
    <glyph glyph-name="ecaron" unicode="&#x11b;" 
d="M332 1444h131l180 -205l180 205h129l-268 -299h-84zM272 469q6 -92 39 -164.5t85.5 -117t116.5 -67t136 -22.5q146 0 244 74t98 160h148q-4 -62 -39 -123t-95.5 -113t-155 -84t-206.5 -32q-105 0 -198 36.5t-163.5 103.5t-111.5 168.5t-41 223.5t41 223.5t111.5 168.5
t163.5 103.5t198 36.5q231 0 368.5 -138.5t143.5 -373.5v-63h-883zM1004 588q-18 172 -112.5 255t-242.5 83q-144 0 -249 -87t-126 -251h730z" />
    <glyph glyph-name="Gcircumflex" unicode="&#x11c;" horiz-adv-x="1703" 
d="M545 1571l268 299h84l268 -299h-131l-180 205l-180 -205h-129zM301 727q0 -146 44.5 -262.5t124 -192t189 -115.5t240.5 -40q227 0 374 127t157 338h-615v118h741v-700h-126v268q-79 -128 -219 -201t-328 -73q-154 0 -287.5 50.5t-232.5 143t-156 232t-57 307.5
q0 221 102.5 388.5t270 253t370.5 85.5q145 0 269.5 -46t204 -118.5t124.5 -159.5t45 -172h-152q0 68 -34 133.5t-94.5 119.5t-156 87t-208.5 33q-125 0 -231.5 -39.5t-187 -114.5t-126 -190.5t-45.5 -259.5z" />
    <glyph glyph-name="gcircumflex" unicode="&#x11d;" horiz-adv-x="1353" 
d="M369 1161l268 299h84l268 -299h-131l-180 205l-180 -205h-129zM283 -291h387q196 0 286.5 92.5t90.5 276.5v119q-64 -101 -176.5 -159t-239.5 -58q-224 0 -363 148.5t-139 383.5t139 383.5t363 148.5q126 0 239 -58.5t177 -158.5v197h143v-932q0 -242 -125.5 -372
t-384.5 -130h-397v119zM668 98q146 0 262.5 93t116.5 225v194q0 132 -116.5 224t-262.5 92q-174 0 -283 -114t-109 -300q0 -185 109 -299.5t283 -114.5z" />
    <glyph glyph-name="Gbreve" unicode="&#x11e;" horiz-adv-x="1703" 
d="M549 1905h90q0 -119 58 -180.5t155 -61.5q99 0 156 61.5t57 180.5h90q0 -163 -83.5 -249.5t-219.5 -86.5t-219.5 86.5t-83.5 249.5zM301 727q0 -146 44.5 -262.5t124 -192t189 -115.5t240.5 -40q227 0 374 127t157 338h-615v118h741v-700h-126v268q-79 -128 -219 -201
t-328 -73q-154 0 -287.5 50.5t-232.5 143t-156 232t-57 307.5q0 221 102.5 388.5t270 253t370.5 85.5q145 0 269.5 -46t204 -118.5t124.5 -159.5t45 -172h-152q0 68 -34 133.5t-94.5 119.5t-156 87t-208.5 33q-125 0 -231.5 -39.5t-187 -114.5t-126 -190.5t-45.5 -259.5z
" />
    <glyph glyph-name="gbreve" unicode="&#x11f;" horiz-adv-x="1353" 
d="M375 1495h90q0 -119 58 -180.5t155 -61.5q99 0 156 61.5t57 180.5h90q0 -163 -83.5 -249.5t-219.5 -86.5t-219.5 86.5t-83.5 249.5zM283 -291h387q196 0 286.5 92.5t90.5 276.5v119q-64 -101 -176.5 -159t-239.5 -58q-224 0 -363 148.5t-139 383.5t139 383.5t363 148.5
q126 0 239 -58.5t177 -158.5v197h143v-932q0 -242 -125.5 -372t-384.5 -130h-397v119zM668 98q146 0 262.5 93t116.5 225v194q0 132 -116.5 224t-262.5 92q-174 0 -283 -114t-109 -300q0 -185 109 -299.5t283 -114.5z" />
    <glyph glyph-name="Gdotaccent" unicode="&#x120;" horiz-adv-x="1703" 
d="M741 1692q0 46 33 78t80 32q46 0 78.5 -32t32.5 -78q0 -47 -32.5 -80t-78.5 -33q-47 0 -80 33t-33 80zM301 727q0 -146 44.5 -262.5t124 -192t189 -115.5t240.5 -40q227 0 374 127t157 338h-615v118h741v-700h-126v268q-79 -128 -219 -201t-328 -73q-154 0 -287.5 50.5
t-232.5 143t-156 232t-57 307.5q0 221 102.5 388.5t270 253t370.5 85.5q145 0 269.5 -46t204 -118.5t124.5 -159.5t45 -172h-152q0 68 -34 133.5t-94.5 119.5t-156 87t-208.5 33q-125 0 -231.5 -39.5t-187 -114.5t-126 -190.5t-45.5 -259.5z" />
    <glyph glyph-name="gdotaccent" unicode="&#x121;" horiz-adv-x="1353" 
d="M565 1282q0 46 33 78.5t80 32.5q46 0 78 -32.5t32 -78.5q0 -47 -32 -80t-78 -33q-47 0 -80 33t-33 80zM283 -291h387q196 0 286.5 92.5t90.5 276.5v119q-64 -101 -176.5 -159t-239.5 -58q-224 0 -363 148.5t-139 383.5t139 383.5t363 148.5q126 0 239 -58.5t177 -158.5
v197h143v-932q0 -242 -125.5 -372t-384.5 -130h-397v119zM668 98q146 0 262.5 93t116.5 225v194q0 132 -116.5 224t-262.5 92q-174 0 -283 -114t-109 -300q0 -185 109 -299.5t283 -114.5z" />
    <glyph glyph-name="uni0122" unicode="&#x122;" horiz-adv-x="1703" 
d="M301 727q0 -146 44.5 -262.5t124 -192t189 -115.5t240.5 -40q227 0 374 127t157 338h-615v118h741v-700h-126v268q-79 -128 -219 -201t-328 -73q-154 0 -287.5 50.5t-232.5 143t-156 232t-57 307.5q0 221 102.5 388.5t270 253t370.5 85.5q145 0 269.5 -46t204 -118.5
t124.5 -159.5t45 -172h-152q0 68 -34 133.5t-94.5 119.5t-156 87t-208.5 33q-125 0 -231.5 -39.5t-187 -114.5t-126 -190.5t-45.5 -259.5zM791 -197q0 41 28.5 70t71.5 29q41 0 69.5 -29t28.5 -70q0 -36 -20 -63l-111 -205h-57l73 170q-37 6 -60 33t-23 65z" />
    <glyph glyph-name="uni0123" unicode="&#x123;" horiz-adv-x="1353" 
d="M793 1268q0 -41 -29 -70t-72 -29q-41 0 -69.5 29t-28.5 70q0 34 20 61l109 207h57l-71 -170q37 -4 60.5 -32t23.5 -66zM283 -291h387q196 0 286.5 92.5t90.5 276.5v119q-64 -101 -176.5 -159t-239.5 -58q-224 0 -363 148.5t-139 383.5t139 383.5t363 148.5
q126 0 239 -58.5t177 -158.5v197h143v-932q0 -242 -125.5 -372t-384.5 -130h-397v119zM668 98q146 0 262.5 93t116.5 225v194q0 132 -116.5 224t-262.5 92q-174 0 -283 -114t-109 -300q0 -185 109 -299.5t283 -114.5z" />
    <glyph glyph-name="Hcircumflex" unicode="&#x124;" horiz-adv-x="1726" 
d="M555 1571l268 299h84l269 -299h-132l-180 205l-180 -205h-129zM184 1434h148v-639h1063v639h147v-1434h-147v672h-1063v-672h-148v1434z" />
    <glyph glyph-name="hcircumflex" unicode="&#x125;" horiz-adv-x="1277" 
d="M430 1151l268 299h84l269 -299h-131l-181 205l-180 -205h-129zM164 1434h143v-621q62 106 170 168.5t234 62.5q111 0 190.5 -30t125 -86.5t66.5 -129.5t21 -167v-631h-143v600q0 77 -14.5 133.5t-49 101.5t-98 68t-154.5 23q-142 0 -245 -98.5t-103 -243.5v-584h-143
v1434z" />
    <glyph glyph-name="Hbar" unicode="&#x126;" horiz-adv-x="1726" 
d="M184 1434h148v-430h1063v430h147v-1434h-147v406h-1063v-406h-148v1434zM332 528h1063v353h-1063v-353z" />
    <glyph glyph-name="hbar" unicode="&#x127;" horiz-adv-x="1277" 
d="M743 1270v-82h-436v-375q62 106 170 168.5t234 62.5q111 0 190.5 -30t125 -86.5t66.5 -129.5t21 -167v-631h-143v600q0 77 -14.5 133.5t-49 101.5t-98 68t-154.5 23q-142 0 -245 -98.5t-103 -243.5v-584h-143v1188h-211v82h211v164h143v-164h436z" />
    <glyph glyph-name="Itilde" unicode="&#x128;" horiz-adv-x="516" 
d="M274 1706q102 -42 131 -46q48 -6 81 40q17 24 38 67l76 -22q-18 -45 -38.5 -77t-39.5 -51.5t-44.5 -28t-46 -10.5t-52.5 5t-55 14.5t-62 22.5q-101 42 -131 44q-48 4 -80 -48q-15 -24 -31 -64l-77 29q21 51 43 85.5t48.5 51.5t50.5 24.5t58 2.5t61.5 -13.5t69.5 -25.5z
M184 1434h148v-1434h-148v1434z" />
    <glyph glyph-name="itilde" unicode="&#x129;" horiz-adv-x="440" 
d="M238 1296q102 -42 131 -46q47 -5 81 42q17 23 37 66l76 -23q-18 -45 -38.5 -77t-39.5 -51.5t-44.5 -28t-46 -10.5t-52.5 5t-55 14.5t-62 22.5q-101 42 -130 44q-48 5 -79 -45q-15 -24 -32 -66l-78 28q21 51 43.5 85.5t48.5 51.5t50.5 24.5t58.5 2.5t61.5 -13.5
t69.5 -25.5zM150 1024h143v-1024h-143v1024z" />
    <glyph glyph-name="Imacron" unicode="&#x12a;" horiz-adv-x="516" 
d="M20 1690h478v-82h-478v82zM184 1434h148v-1434h-148v1434z" />
    <glyph glyph-name="imacron" unicode="&#x12b;" horiz-adv-x="440" 
d="M-18 1280h477v-82h-477v82zM150 1024h143v-1024h-143v1024z" />
    <glyph glyph-name="Iogonek" unicode="&#x12e;" horiz-adv-x="516" 
d="M184 1434h148v-1434h-37l4 -4q-42 -54 -59.5 -79.5t-34.5 -68t-17 -84.5q0 -49 25 -78t69 -36.5t94 -2.5t109 21v-92q-64 -16 -130 -17t-126 15t-97.5 60.5t-37.5 113.5q0 45 20.5 94t42 80t58.5 78h-31v1434z" />
    <glyph glyph-name="iogonek" unicode="&#x12f;" horiz-adv-x="440" 
d="M117 1370q0 43 31.5 74t76.5 31q43 0 73 -31t30 -74q0 -44 -30 -75t-73 -31q-46 0 -77 31t-31 75zM150 1024h143v-1024h-41l4 -4q-42 -54 -59.5 -79.5t-34.5 -68t-17 -84.5q0 -49 25 -78t69 -36.5t94 -2.5t109 21v-92q-64 -16 -130 -17t-126 15t-97.5 60.5t-37.5 113.5
q0 45 20.5 94t42 80t58.5 78h-22v1024z" />
    <glyph glyph-name="Idotaccent" unicode="&#x130;" horiz-adv-x="516" 
d="M147 1692q0 46 33 78t80 32q46 0 78.5 -32t32.5 -78q0 -47 -32.5 -80t-78.5 -33q-47 0 -80 33t-33 80zM184 1434h148v-1434h-148v1434z" />
    <glyph glyph-name="dotlessi" unicode="&#x131;" horiz-adv-x="440" 
d="M150 1024h143v-1024h-143v1024z" />
    <glyph glyph-name="IJ" unicode="&#x132;" horiz-adv-x="1835" 
d="M184 1434h148v-1434h-148v1434zM1503 1434h148v-922q0 -242 -134.5 -387t-369.5 -145q-242 0 -375 145t-133 393h147q0 -194 94 -305t267 -111q165 0 260.5 111t95.5 299v922z" />
    <glyph glyph-name="ij" unicode="&#x133;" horiz-adv-x="880" 
d="M117 1370q0 43 31.5 74t76.5 31q43 0 73 -31t30 -74q0 -44 -30 -75t-73 -31q-46 0 -77 31t-31 75zM555 1370q0 43 32 74t77 31q42 0 72 -31t30 -74q0 -44 -29.5 -75t-72.5 -31q-46 0 -77.5 31t-31.5 75zM150 1024h143v-1024h-143v1024zM242 -291h118q128 0 179 52t51 188
v1075h143v-1100q0 -334 -325 -334h-166v119z" />
    <glyph glyph-name="Jcircumflex" unicode="&#x134;" horiz-adv-x="1318" 
d="M750 1571l268 299h84l268 -299h-131l-180 205l-180 -205h-129zM987 1434h148v-922q0 -242 -134.5 -387t-369.5 -145q-242 0 -375 145t-133 393h147q0 -194 94 -305t267 -111q165 0 260.5 111t95.5 299v922z" />
    <glyph glyph-name="jcircumflex" unicode="&#x135;" horiz-adv-x="440" 
d="M-88 1161l268 299h84l268 -299h-131l-180 205l-180 -205h-129zM-199 -301h119q123 0 176.5 61.5t53.5 188.5v1075h143v-1102q0 -332 -326 -332h-166v109z" />
    <glyph glyph-name="uni0136" unicode="&#x136;" horiz-adv-x="1400" 
d="M184 1434h148v-695h229l524 695h177l-574 -750l631 -684h-186l-562 616h-239v-616h-148v1434zM629 -197q0 41 28.5 70t71.5 29q41 0 69.5 -29t28.5 -70q0 -36 -20 -63l-111 -205h-57l74 170q-37 6 -60.5 33t-23.5 65z" />
    <glyph glyph-name="uni0137" unicode="&#x137;" horiz-adv-x="1208" 
d="M164 1434h143v-842h213l369 432h166l-422 -487l477 -537h-172l-414 473h-217v-473h-143v1434zM543 -197q0 41 28.5 70t71.5 29q41 0 69.5 -29t28.5 -70q0 -36 -20 -63l-111 -205h-57l74 170q-37 6 -60.5 33t-23.5 65z" />
    <glyph glyph-name="kgreenlandic" unicode="&#x138;" horiz-adv-x="1208" 
d="M164 1024h143v-432h213l369 432h166l-422 -487l477 -537h-172l-414 473h-217v-473h-143v1024z" />
    <glyph glyph-name="Lacute" unicode="&#x139;" horiz-adv-x="1323" 
d="M184 1434h148v-1311h872v-123h-1020v1434zM776 1104l121 330h121l-135 -330h-107z" />
    <glyph glyph-name="lacute" unicode="&#x13a;" horiz-adv-x="522" 
d="M199 1554l120 330h121l-135 -330h-106zM492 119v-119h-95q-137 1 -185 59t-48 207v1168h143v-1121q0 -52 3 -82t11.5 -54.5t27 -35.5t45.5 -16.5t71 -5.5h27z" />
    <glyph glyph-name="uni013B" unicode="&#x13b;" horiz-adv-x="1323" 
d="M184 1434h148v-1311h872v-123h-1020v1434zM614 -197q0 41 29 70t72 29q41 0 69.5 -29t28.5 -70q0 -36 -20 -63l-111 -205h-57l73 170q-37 6 -60.5 33t-23.5 65z" />
    <glyph glyph-name="uni013C" unicode="&#x13c;" horiz-adv-x="522" 
d="M492 119v-119h-95q-137 1 -185 59t-48 207v1168h143v-1121q0 -52 3 -82t11.5 -54.5t27 -35.5t45.5 -16.5t71 -5.5h27zM236 -197q0 41 29 70t71 29q41 0 69.5 -29t28.5 -70q0 -36 -20 -63l-111 -205h-57l73 170q-37 6 -60 33t-23 65z" />
    <glyph glyph-name="Lcaron" unicode="&#x13d;" horiz-adv-x="1323" 
d="M184 1434h148v-1311h872v-123h-1020v1434zM1090 1245l-146 -268h-82l90 205q-45 9 -73.5 44.5t-28.5 82.5q0 53 37 89t92 36q53 0 89 -36t36 -89q0 -29 -14 -64z" />
    <glyph glyph-name="lcaron" unicode="&#x13e;" horiz-adv-x="966" 
d="M809 1249l-145 -268h-82l90 205q-45 9 -74 44.5t-29 82.5q0 53 37 89t92 36q52 0 88.5 -36t36.5 -89q0 -29 -14 -64zM492 119v-119h-95q-137 1 -185 59t-48 207v1168h143v-1121q0 -52 3 -82t11.5 -54.5t27 -35.5t45.5 -16.5t71 -5.5h27z" />
    <glyph glyph-name="Ldot" unicode="&#x13f;" horiz-adv-x="1323" 
d="M184 1434h148v-1311h872v-123h-1020v1434zM686 1309q0 53 37 89t92 36q53 0 89 -36t36 -89q0 -55 -36 -92t-89 -37q-55 0 -92 37t-37 92z" />
    <glyph glyph-name="ldot" unicode="&#x140;" horiz-adv-x="1005" 
d="M492 119v-119h-95q-137 1 -185 59t-48 207v1168h143v-1121q0 -52 3 -82t11.5 -54.5t27 -35.5t45.5 -16.5t71 -5.5h27zM549 1309q0 53 37 89t92 36q52 0 88.5 -36t36.5 -89q0 -55 -36 -92t-89 -37q-56 0 -92.5 37t-36.5 92z" />
    <glyph glyph-name="Lslash" unicode="&#x141;" horiz-adv-x="1323" 
d="M-201 707l385 139v588h148v-535l352 129l35 -96l-387 -141v-668h872v-123h-1020v737l-350 -127z" />
    <glyph glyph-name="lslash" unicode="&#x142;" horiz-adv-x="522" 
d="M-227 707l391 141v586h143v-533l352 127l35 -96l-387 -141v-478q0 -52 3 -82t11.5 -54.5t27 -35.5t45.5 -16.5t71 -5.5h27v-119h-95q-137 1 -185 59t-48 207v473l-354 -129z" />
    <glyph glyph-name="Nacute" unicode="&#x143;" horiz-adv-x="1722" 
d="M854 1554l121 330h121l-135 -330h-107zM184 1434h148l1059 -1229v1229h147v-1434h-147l-1059 1217v-1217h-148v1434z" />
    <glyph glyph-name="nacute" unicode="&#x144;" horiz-adv-x="1277" 
d="M586 1145l121 330h120l-135 -330h-106zM164 1024h143v-211q62 106 170 168.5t234 62.5q111 0 190.5 -30t125 -86.5t66.5 -129.5t21 -167v-631h-143v600q0 77 -14.5 133.5t-49 101.5t-98 68t-154.5 23q-142 0 -245 -98.5t-103 -243.5v-584h-143v1024z" />
    <glyph glyph-name="uni0145" unicode="&#x145;" horiz-adv-x="1722" 
d="M184 1434h148l1059 -1229v1229h147v-1434h-147l-1059 1217v-1217h-148v1434zM788 -197q0 41 29 70t72 29q41 0 69.5 -29t28.5 -70q0 -36 -20 -63l-111 -205h-57l73 170q-37 6 -60.5 33t-23.5 65z" />
    <glyph glyph-name="uni0146" unicode="&#x146;" horiz-adv-x="1277" 
d="M164 1024h143v-211q62 106 170 168.5t234 62.5q111 0 190.5 -30t125 -86.5t66.5 -129.5t21 -167v-631h-143v600q0 77 -14.5 133.5t-49 101.5t-98 68t-154.5 23q-142 0 -245 -98.5t-103 -243.5v-584h-143v1024zM561 -197q0 41 29 70t72 29q41 0 69.5 -29t28.5 -70
q0 -35 -21 -63l-110 -205h-58l74 170q-37 6 -60.5 33t-23.5 65z" />
    <glyph glyph-name="Ncaron" unicode="&#x147;" horiz-adv-x="1722" 
d="M582 1853h131l180 -204l180 204h129l-268 -299h-84zM184 1434h148l1059 -1229v1229h147v-1434h-147l-1059 1217v-1217h-148v1434z" />
    <glyph glyph-name="ncaron" unicode="&#x148;" horiz-adv-x="1277" 
d="M328 1444h131l180 -205l180 205h129l-268 -299h-84zM164 1024h143v-211q62 106 170 168.5t234 62.5q111 0 190.5 -30t125 -86.5t66.5 -129.5t21 -167v-631h-143v600q0 77 -14.5 133.5t-49 101.5t-98 68t-154.5 23q-142 0 -245 -98.5t-103 -243.5v-584h-143v1024z" />
    <glyph glyph-name="napostrophe" unicode="&#x149;" horiz-adv-x="1277" 
d="M164 1024h143v-211q62 106 170 168.5t234 62.5q111 0 190.5 -30t125 -86.5t66.5 -129.5t21 -167v-631h-143v600q0 77 -14.5 133.5t-49 101.5t-98 68t-154.5 23q-142 0 -245 -98.5t-103 -243.5v-584h-143v1024z" />
    <glyph glyph-name="Omacron" unicode="&#x14c;" horiz-adv-x="1789" 
d="M657 1690h478v-82h-478v82zM215 408q-63 141 -63 309t62.5 309.5t166.5 233.5t237.5 143t278.5 51q116 0 225.5 -31.5t204 -95t166 -150.5t112 -206t40.5 -254t-40.5 -254t-112 -206t-166 -150.5t-204 -95t-225.5 -31.5q-145 0 -278.5 51t-237.5 143t-166 234zM1121 1289
q-108 42 -224 42t-223 -42.5t-189.5 -119.5t-132 -194.5t-49.5 -257.5q0 -139 49.5 -257t132 -195t189.5 -120t223 -43q93 0 180.5 27t163 80t132 126t88.5 171.5t32 210.5q0 140 -49.5 257.5t-132.5 194.5t-190 120z" />
    <glyph glyph-name="omacron" unicode="&#x14d;" horiz-adv-x="1345" 
d="M434 1280h477v-82h-477v82zM396 213q117 -115 280 -115t280 115t117 299t-117 299t-280 115t-280 -115t-117 -299t117 -299zM471 1007q98 37 205 37t205 -37t173.5 -103.5t121 -168.5t45.5 -223t-45.5 -223t-121 -168.5t-173.5 -103.5t-205 -37t-205 37t-173.5 103.5
t-121 168.5t-45.5 223t45.5 223t121 168.5t173.5 103.5z" />
    <glyph glyph-name="Obreve" unicode="&#x14e;" horiz-adv-x="1789" 
d="M592 1905h90q0 -119 58 -180.5t155 -61.5q99 0 156 61.5t57 180.5h90q0 -163 -83.5 -249.5t-219.5 -86.5t-219.5 86.5t-83.5 249.5zM215 408q-63 141 -63 309t62.5 309.5t166.5 233.5t237.5 143t278.5 51q116 0 225.5 -31.5t204 -95t166 -150.5t112 -206t40.5 -254
t-40.5 -254t-112 -206t-166 -150.5t-204 -95t-225.5 -31.5q-145 0 -278.5 51t-237.5 143t-166 234zM1121 1289q-108 42 -224 42t-223 -42.5t-189.5 -119.5t-132 -194.5t-49.5 -257.5q0 -139 49.5 -257t132 -195t189.5 -120t223 -43q93 0 180.5 27t163 80t132 126t88.5 171.5
t32 210.5q0 140 -49.5 257.5t-132.5 194.5t-190 120z" />
    <glyph glyph-name="obreve" unicode="&#x14f;" horiz-adv-x="1345" 
d="M371 1495h90q0 -119 58 -180.5t155 -61.5q99 0 156 61.5t57 180.5h90q0 -163 -83.5 -249.5t-219.5 -86.5t-219.5 86.5t-83.5 249.5zM396 213q117 -115 280 -115t280 115t117 299t-117 299t-280 115t-280 -115t-117 -299t117 -299zM471 1007q98 37 205 37t205 -37
t173.5 -103.5t121 -168.5t45.5 -223t-45.5 -223t-121 -168.5t-173.5 -103.5t-205 -37t-205 37t-173.5 103.5t-121 168.5t-45.5 223t45.5 223t121 168.5t173.5 103.5z" />
    <glyph glyph-name="Ohungarumlaut" unicode="&#x150;" horiz-adv-x="1789" 
d="M985 1554l121 330h121l-135 -330h-107zM666 1554l120 330h121l-135 -330h-106zM215 408q-63 141 -63 309t62.5 309.5t166.5 233.5t237.5 143t278.5 51q116 0 225.5 -31.5t204 -95t166 -150.5t112 -206t40.5 -254t-40.5 -254t-112 -206t-166 -150.5t-204 -95t-225.5 -31.5
q-145 0 -278.5 51t-237.5 143t-166 234zM1121 1289q-108 42 -224 42t-223 -42.5t-189.5 -119.5t-132 -194.5t-49.5 -257.5q0 -139 49.5 -257t132 -195t189.5 -120t223 -43q93 0 180.5 27t163 80t132 126t88.5 171.5t32 210.5q0 140 -49.5 257.5t-132.5 194.5t-190 120z" />
    <glyph glyph-name="ohungarumlaut" unicode="&#x151;" horiz-adv-x="1345" 
d="M764 1145l121 330h121l-136 -330h-106zM444 1145l121 330h121l-135 -330h-107zM396 213q117 -115 280 -115t280 115t117 299t-117 299t-280 115t-280 -115t-117 -299t117 -299zM471 1007q98 37 205 37t205 -37t173.5 -103.5t121 -168.5t45.5 -223t-45.5 -223t-121 -168.5
t-173.5 -103.5t-205 -37t-205 37t-173.5 103.5t-121 168.5t-45.5 223t45.5 223t121 168.5t173.5 103.5z" />
    <glyph glyph-name="OE" unicode="&#x152;" horiz-adv-x="2603" 
d="M215 408q-63 141 -63 309t62.5 309.5t166.5 233.5t237.5 143t278.5 51q176 0 335.5 -75t264.5 -210v265h989v-123h-841v-504h780v-123h-780v-561h841v-123h-989v264q-105 -135 -264 -209.5t-336 -74.5q-145 0 -278.5 51t-237.5 143t-166 234zM1121 1289q-108 42 -224 42
t-223 -42.5t-189.5 -119.5t-132 -194.5t-49.5 -257.5q0 -139 49.5 -257t132 -195t189.5 -120t223 -43q93 0 180.5 27t163 80t132 126t88.5 171.5t32 210.5q0 140 -49.5 257.5t-132.5 194.5t-190 120z" />
    <glyph glyph-name="oe" unicode="&#x153;" horiz-adv-x="2230" 
d="M396 213q117 -115 280 -115t280 115t117 299t-117 299t-280 115t-280 -115t-117 -299t117 -299zM1952 588q-18 172 -112.5 255t-242.5 83q-143 0 -248 -87t-126 -251h729zM676 1044q145 0 271 -66t198 -185q67 120 185 185.5t261 65.5q231 0 368.5 -138.5t143.5 -373.5
v-63h-882q8 -122 63 -208t135.5 -124.5t177.5 -38.5q146 0 244 74t98 160h148q-4 -62 -39 -123t-95.5 -113t-155 -84t-206.5 -32q-143 0 -261 65.5t-185 185.5q-72 -119 -198 -185t-271 -66q-107 0 -205 37t-173.5 103.5t-121 168.5t-45.5 223t45.5 223t121 168.5
t173.5 103.5t205 37z" />
    <glyph glyph-name="Racute" unicode="&#x154;" horiz-adv-x="1464" 
d="M684 1554l121 330h121l-135 -330h-107zM821 1434q32 0 69 -4t87 -17t96 -32.5t92.5 -54t80.5 -79t55.5 -110.5t21.5 -144q0 -92 -29 -167t-72.5 -122t-103 -81.5t-111.5 -51t-106 -24.5l404 -547h-177l-397 541h-399v-541h-148v1434h637zM332 664h479q32 0 70.5 6t92 27
t95.5 54t72 94.5t30 141.5t-30 141.5t-72 94.5t-95.5 54.5t-92 27.5t-70.5 6h-479v-647z" />
    <glyph glyph-name="racute" unicode="&#x155;" horiz-adv-x="829" 
d="M408 1145l120 330h121l-135 -330h-106zM164 1024h143v-190q55 98 147.5 154t209.5 56h100v-118h-141q-140 0 -228 -97t-88 -256v-573h-143v1024z" />
    <glyph glyph-name="uni0156" unicode="&#x156;" horiz-adv-x="1464" 
d="M821 1434q32 0 69 -4t87 -17t96 -32.5t92.5 -54t80.5 -79t55.5 -110.5t21.5 -144q0 -92 -29 -167t-72.5 -122t-103 -81.5t-111.5 -51t-106 -24.5l404 -547h-177l-397 541h-399v-541h-148v1434h637zM332 664h479q32 0 70.5 6t92 27t95.5 54t72 94.5t30 141.5t-30 141.5
t-72 94.5t-95.5 54.5t-92 27.5t-70.5 6h-479v-647zM604 -197q0 41 29 70t72 29q41 0 69.5 -29t28.5 -70q0 -35 -21 -63l-110 -205h-58l74 170q-37 6 -60.5 33t-23.5 65z" />
    <glyph glyph-name="uni0157" unicode="&#x157;" horiz-adv-x="829" 
d="M164 1024h143v-190q55 98 147.5 154t209.5 56h100v-118h-141q-140 0 -228 -97t-88 -256v-573h-143v1024zM143 -197q0 41 29 70t72 29q41 0 69.5 -29t28.5 -70q0 -36 -20 -63l-111 -205h-57l73 170q-37 6 -60.5 33t-23.5 65z" />
    <glyph glyph-name="Rcaron" unicode="&#x158;" horiz-adv-x="1464" 
d="M422 1853h131l180 -204l180 204h129l-268 -299h-84zM821 1434q32 0 69 -4t87 -17t96 -32.5t92.5 -54t80.5 -79t55.5 -110.5t21.5 -144q0 -92 -29 -167t-72.5 -122t-103 -81.5t-111.5 -51t-106 -24.5l404 -547h-177l-397 541h-399v-541h-148v1434h637zM332 664h479
q32 0 70.5 6t92 27t95.5 54t72 94.5t30 141.5t-30 141.5t-72 94.5t-95.5 54.5t-92 27.5t-70.5 6h-479v-647z" />
    <glyph glyph-name="rcaron" unicode="&#x159;" horiz-adv-x="829" 
d="M135 1444h131l180 -205l181 205h129l-269 -299h-84zM164 1024h143v-190q55 98 147.5 154t209.5 56h100v-118h-141q-140 0 -228 -97t-88 -256v-573h-143v1024z" />
    <glyph glyph-name="Sacute" unicode="&#x15a;" horiz-adv-x="1519" 
d="M696 1554l121 330h121l-135 -330h-107zM285 449q0 -71 27.5 -131.5t84 -110t153.5 -77.5t226 -28q226 0 342.5 73.5t116.5 205.5q0 31 -6 57t-15.5 46t-28 37t-35.5 29t-48 22.5t-54.5 17.5t-65 15t-71.5 12.5t-81.5 13t-86.5 14.5q-114 20 -193.5 41.5t-151 54.5
t-114 75.5t-67 104.5t-24.5 142q0 126 74.5 216t201 133.5t291.5 43.5q133 0 238.5 -26.5t173.5 -70.5t113 -105t64 -126t19 -137h-151q0 57 -13.5 105.5t-46.5 93t-84.5 75.5t-131 49.5t-181.5 18.5q-194 0 -305 -65.5t-111 -202.5q0 -35 6.5 -63.5t22.5 -52t34.5 -41.5
t52 -33.5t66 -27t84 -23.5t98.5 -21t117 -21q215 -37 280 -55q171 -48 234 -147q47 -75 47 -189q0 -184 -152.5 -297.5t-451.5 -113.5q-136 0 -246.5 26.5t-184 71.5t-124 106t-72.5 127.5t-22 137.5h152z" />
    <glyph glyph-name="sacute" unicode="&#x15b;" horiz-adv-x="1185" 
d="M528 1145l121 330h121l-135 -330h-107zM276 322q0 -96 86 -160t246 -64q146 0 229 48t83 120q0 21 -4 38t-15.5 31t-23 24.5t-36 20.5t-44 16.5t-57 14.5t-66.5 13t-80 14q-85 14 -147.5 30.5t-117.5 42.5t-89.5 59.5t-54 81t-19.5 108.5q0 96 58 162t148.5 95.5
t205.5 29.5t206.5 -30.5t146 -81t83 -109.5t28.5 -121h-147q0 97 -82.5 160t-241.5 63q-121 0 -193.5 -42.5t-72.5 -119.5q0 -86 72 -124q50 -26 205 -54q8 -1 23 -3q17 -3 26 -5q88 -15 145 -28.5t116 -37t92 -53t54 -75t21 -105.5q0 -132 -122.5 -216.5t-326.5 -84.5
q-119 0 -213.5 30.5t-151.5 80.5t-86.5 109.5t-29.5 121.5h147z" />
    <glyph glyph-name="Scircumflex" unicode="&#x15c;" horiz-adv-x="1519" 
d="M453 1571l268 299h84l268 -299h-131l-180 205l-180 -205h-129zM285 449q0 -71 27.5 -131.5t84 -110t153.5 -77.5t226 -28q226 0 342.5 73.5t116.5 205.5q0 31 -6 57t-15.5 46t-28 37t-35.5 29t-48 22.5t-54.5 17.5t-65 15t-71.5 12.5t-81.5 13t-86.5 14.5
q-114 20 -193.5 41.5t-151 54.5t-114 75.5t-67 104.5t-24.5 142q0 126 74.5 216t201 133.5t291.5 43.5q133 0 238.5 -26.5t173.5 -70.5t113 -105t64 -126t19 -137h-151q0 57 -13.5 105.5t-46.5 93t-84.5 75.5t-131 49.5t-181.5 18.5q-194 0 -305 -65.5t-111 -202.5
q0 -35 6.5 -63.5t22.5 -52t34.5 -41.5t52 -33.5t66 -27t84 -23.5t98.5 -21t117 -21q215 -37 280 -55q171 -48 234 -147q47 -75 47 -189q0 -184 -152.5 -297.5t-451.5 -113.5q-136 0 -246.5 26.5t-184 71.5t-124 106t-72.5 127.5t-22 137.5h152z" />
    <glyph glyph-name="scircumflex" unicode="&#x15d;" horiz-adv-x="1185" 
d="M285 1161l268 299h84l268 -299h-131l-180 205l-180 -205h-129zM276 322q0 -96 86 -160t246 -64q146 0 229 48t83 120q0 21 -4 38t-15.5 31t-23 24.5t-36 20.5t-44 16.5t-57 14.5t-66.5 13t-80 14q-85 14 -147.5 30.5t-117.5 42.5t-89.5 59.5t-54 81t-19.5 108.5
q0 96 58 162t148.5 95.5t205.5 29.5t206.5 -30.5t146 -81t83 -109.5t28.5 -121h-147q0 97 -82.5 160t-241.5 63q-121 0 -193.5 -42.5t-72.5 -119.5q0 -86 72 -124q50 -26 205 -54q8 -1 23 -3q17 -3 26 -5q88 -15 145 -28.5t116 -37t92 -53t54 -75t21 -105.5
q0 -132 -122.5 -216.5t-326.5 -84.5q-119 0 -213.5 30.5t-151.5 80.5t-86.5 109.5t-29.5 121.5h147z" />
    <glyph glyph-name="Scedilla" unicode="&#x15e;" horiz-adv-x="1519" 
d="M285 449q0 -71 27.5 -131.5t84 -110t153.5 -77.5t226 -28q226 0 342.5 73.5t116.5 205.5q0 31 -6 57t-15.5 46t-28 37t-35.5 29t-48 22.5t-54.5 17.5t-65 15t-71.5 12.5t-81.5 13t-86.5 14.5q-114 20 -193.5 41.5t-151 54.5t-114 75.5t-67 104.5t-24.5 142
q0 126 74.5 216t201 133.5t291.5 43.5q133 0 238.5 -26.5t173.5 -70.5t113 -105t64 -126t19 -137h-151q0 57 -13.5 105.5t-46.5 93t-84.5 75.5t-131 49.5t-181.5 18.5q-194 0 -305 -65.5t-111 -202.5q0 -35 6.5 -63.5t22.5 -52t34.5 -41.5t52 -33.5t66 -27t84 -23.5
t98.5 -21t117 -21q215 -37 280 -55q171 -48 234 -147q47 -75 47 -189q0 -179 -143.5 -291.5t-423.5 -119.5l-24 -93q45 -2 76 -8t62 -22t46.5 -48.5t15.5 -80.5q0 -72 -36.5 -119.5t-95 -65.5t-124 -18t-131.5 16v86q76 -19 140.5 -19.5t107.5 31t43 91.5q0 17 -2.5 30.5
t-9.5 23t-13 16t-19 10.5t-21.5 6.5t-27 3.5t-29 1t-32.5 -0.5t-34 -0.5h-4l34 160q-127 4 -230.5 32.5t-172.5 73.5t-116 105t-68 124.5t-21 133.5h152z" />
    <glyph glyph-name="scedilla" unicode="&#x15f;" horiz-adv-x="1185" 
d="M276 322q0 -96 86 -160t246 -64q146 0 229 48t83 120q0 21 -4 38t-15.5 31t-23 24.5t-36 20.5t-44 16.5t-57 14.5t-66.5 13t-80 14q-85 14 -147.5 30.5t-117.5 42.5t-89.5 59.5t-54 81t-19.5 108.5q0 96 58 162t148.5 95.5t205.5 29.5t206.5 -30.5t146 -81t83 -109.5
t28.5 -121h-147q0 97 -82.5 160t-241.5 63q-121 0 -193.5 -42.5t-72.5 -119.5q0 -86 72 -124q50 -26 205 -54q8 -1 23 -3q17 -3 26 -5q88 -15 145 -28.5t116 -37t92 -53t54 -75t21 -105.5q0 -126 -110.5 -209t-297.5 -92l-24 -93q45 -2 76 -8t62 -22t46.5 -48.5t15.5 -80.5
q0 -72 -36.5 -119.5t-95 -65.5t-124 -18t-131.5 16v86q76 -19 140.5 -19.5t107.5 31t43 91.5q0 17 -2.5 30.5t-9.5 23t-13 16t-19 10.5t-21.5 6.5t-27 3.5t-29 1t-32.5 -0.5t-34 -0.5h-4l34 160q-88 3 -162.5 25t-125.5 56t-87 77.5t-52.5 90t-16.5 93.5h147z" />
    <glyph glyph-name="Scaron" unicode="&#x160;" horiz-adv-x="1519" 
d="M451 1853h131l180 -204l180 204h129l-268 -299h-84zM285 449q0 -71 27.5 -131.5t84 -110t153.5 -77.5t226 -28q226 0 342.5 73.5t116.5 205.5q0 31 -6 57t-15.5 46t-28 37t-35.5 29t-48 22.5t-54.5 17.5t-65 15t-71.5 12.5t-81.5 13t-86.5 14.5q-114 20 -193.5 41.5
t-151 54.5t-114 75.5t-67 104.5t-24.5 142q0 126 74.5 216t201 133.5t291.5 43.5q133 0 238.5 -26.5t173.5 -70.5t113 -105t64 -126t19 -137h-151q0 57 -13.5 105.5t-46.5 93t-84.5 75.5t-131 49.5t-181.5 18.5q-194 0 -305 -65.5t-111 -202.5q0 -35 6.5 -63.5t22.5 -52
t34.5 -41.5t52 -33.5t66 -27t84 -23.5t98.5 -21t117 -21q215 -37 280 -55q171 -48 234 -147q47 -75 47 -189q0 -184 -152.5 -297.5t-451.5 -113.5q-136 0 -246.5 26.5t-184 71.5t-124 106t-72.5 127.5t-22 137.5h152z" />
    <glyph glyph-name="scaron" unicode="&#x161;" horiz-adv-x="1185" 
d="M283 1444h131l180 -205l180 205h129l-268 -299h-84zM276 322q0 -96 86 -160t246 -64q146 0 229 48t83 120q0 21 -4 38t-15.5 31t-23 24.5t-36 20.5t-44 16.5t-57 14.5t-66.5 13t-80 14q-85 14 -147.5 30.5t-117.5 42.5t-89.5 59.5t-54 81t-19.5 108.5q0 96 58 162
t148.5 95.5t205.5 29.5t206.5 -30.5t146 -81t83 -109.5t28.5 -121h-147q0 97 -82.5 160t-241.5 63q-121 0 -193.5 -42.5t-72.5 -119.5q0 -86 72 -124q50 -26 205 -54q8 -1 23 -3q17 -3 26 -5q88 -15 145 -28.5t116 -37t92 -53t54 -75t21 -105.5q0 -132 -122.5 -216.5
t-326.5 -84.5q-119 0 -213.5 30.5t-151.5 80.5t-86.5 109.5t-29.5 121.5h147z" />
    <glyph glyph-name="uni0162" unicode="&#x162;" horiz-adv-x="1452" 
d="M88 1434h1278v-123h-565v-1311h-148v1311h-565v123zM621 -197q0 41 28.5 70t71.5 29q41 0 69.5 -29t28.5 -70q0 -36 -20 -63l-111 -205h-57l74 170q-37 6 -60.5 33t-23.5 65z" />
    <glyph glyph-name="uni0163" unicode="&#x163;" horiz-adv-x="878" 
d="M82 1024h186v246h144v-246h385v-119h-385v-547q0 -136 50.5 -187.5t178.5 -51.5h156v-119h-203q-326 0 -326 334v571h-186v119zM444 -197q0 41 29 70t72 29q41 0 69.5 -29t28.5 -70q0 -36 -20 -63l-111 -205h-57l73 170q-37 6 -60.5 33t-23.5 65z" />
    <glyph glyph-name="Tcaron" unicode="&#x164;" horiz-adv-x="1452" 
d="M416 1853h131l180 -204l180 204h129l-268 -299h-84zM88 1434h1278v-123h-565v-1311h-148v1311h-565v123z" />
    <glyph glyph-name="tcaron" unicode="&#x165;" horiz-adv-x="1198" 
d="M1087 1266l-145 -269h-82l90 205q-45 9 -73.5 44.5t-28.5 82.5q0 53 37 89t92 36q53 0 89 -36t36 -89q0 -25 -15 -63zM82 1024h186v246h144v-246h385v-119h-385v-547q0 -136 50.5 -187.5t178.5 -51.5h156v-119h-203q-326 0 -326 334v571h-186v119z" />
    <glyph glyph-name="Tbar" unicode="&#x166;" horiz-adv-x="1452" 
d="M283 723h370v588h-565v123h1278v-123h-565v-588h368v-102h-368v-621h-148v621h-370v102z" />
    <glyph glyph-name="tbar" unicode="&#x167;" horiz-adv-x="878" 
d="M82 1024h186v246h144v-246h385v-94h-385v-273h385v-94h-385v-205q0 -136 50.5 -187.5t178.5 -51.5h156v-119h-203q-326 0 -326 334v229h-186v94h186v273h-186v94z" />
    <glyph glyph-name="Utilde" unicode="&#x168;" horiz-adv-x="1574" 
d="M799 1706q102 -42 131 -46q48 -6 81 40q17 24 38 67l75 -22q-18 -45 -38.5 -77t-39.5 -51.5t-44.5 -28t-46 -10.5t-52.5 5t-55 14.5t-62 22.5q-101 42 -131 44q-48 4 -79 -48q-15 -24 -31 -64l-78 29q21 51 43.5 85.5t48.5 51.5t50.5 24.5t58.5 2.5t61.5 -13.5
t69.5 -25.5zM1243 1434h148v-840q0 -311 -156.5 -462.5t-454.5 -151.5q-296 0 -446 150.5t-150 463.5v840h148v-840q0 -254 110.5 -373t337.5 -119q229 0 346 120t117 372v840z" />
    <glyph glyph-name="utilde" unicode="&#x169;" horiz-adv-x="1329" 
d="M672 1296q103 -43 132 -46q47 -5 81 43q17 24 37 65l75 -23q-18 -45 -38.5 -77t-39.5 -51.5t-44.5 -28t-46 -10.5t-52.5 5t-55 14.5t-62 22.5q-101 42 -130 44q-48 5 -79 -45q-15 -24 -32 -66l-78 28q21 51 43.5 85.5t48.5 51.5t50.5 24.5t58.5 2.5t61.5 -13.5
t69.5 -25.5zM1298 119v-119h-94q-124 1 -173.5 48t-57.5 163q-62 -105 -171 -168t-235 -63q-403 0 -403 415v629h143v-598q0 -77 14.5 -133.5t49 -102t98 -69t154.5 -23.5q142 0 245 98.5t103 243.5v584h143v-711q0 -57 5 -89.5t21 -58.5t47.5 -36t84.5 -10h26z" />
    <glyph glyph-name="Umacron" unicode="&#x16a;" horiz-adv-x="1574" 
d="M549 1690h477v-82h-477v82zM1243 1434h148v-840q0 -311 -156.5 -462.5t-454.5 -151.5q-296 0 -446 150.5t-150 463.5v840h148v-840q0 -254 110.5 -373t337.5 -119q229 0 346 120t117 372v840z" />
    <glyph glyph-name="umacron" unicode="&#x16b;" horiz-adv-x="1329" 
d="M416 1280h477v-82h-477v82zM1298 119v-119h-94q-124 1 -173.5 48t-57.5 163q-62 -105 -171 -168t-235 -63q-403 0 -403 415v629h143v-598q0 -77 14.5 -133.5t49 -102t98 -69t154.5 -23.5q142 0 245 98.5t103 243.5v584h143v-711q0 -57 5 -89.5t21 -58.5t47.5 -36
t84.5 -10h26z" />
    <glyph glyph-name="Ubreve" unicode="&#x16c;" horiz-adv-x="1574" 
d="M485 1905h90q0 -119 58 -180.5t155 -61.5q99 0 156 61.5t57 180.5h91q0 -163 -84 -249.5t-220 -86.5t-219.5 86.5t-83.5 249.5zM1243 1434h148v-840q0 -311 -156.5 -462.5t-454.5 -151.5q-296 0 -446 150.5t-150 463.5v840h148v-840q0 -254 110.5 -373t337.5 -119
q229 0 346 120t117 372v840z" />
    <glyph glyph-name="ubreve" unicode="&#x16d;" horiz-adv-x="1329" 
d="M350 1495h90q0 -119 58 -180.5t155 -61.5q99 0 156 61.5t57 180.5h90q0 -163 -83.5 -249.5t-219.5 -86.5t-219.5 86.5t-83.5 249.5zM1298 119v-119h-94q-124 1 -173.5 48t-57.5 163q-62 -105 -171 -168t-235 -63q-403 0 -403 415v629h143v-598q0 -77 14.5 -133.5t49 -102
t98 -69t154.5 -23.5q142 0 245 98.5t103 243.5v584h143v-711q0 -57 5 -89.5t21 -58.5t47.5 -36t84.5 -10h26z" />
    <glyph glyph-name="Uring" unicode="&#x16e;" horiz-adv-x="1574" 
d="M614 1586q-73 73 -73 173t72.5 173t172.5 73q101 0 174.5 -73t73.5 -173t-73.5 -173t-174.5 -73q-100 0 -172 73zM625 1759q0 -61 49.5 -110.5t111.5 -49.5q63 0 112.5 49t49.5 111q0 63 -49.5 112.5t-112.5 49.5q-62 0 -111.5 -49.5t-49.5 -112.5zM1243 1434h148v-840
q0 -311 -156.5 -462.5t-454.5 -151.5q-296 0 -446 150.5t-150 463.5v840h148v-840q0 -254 110.5 -373t337.5 -119q229 0 346 120t117 372v840z" />
    <glyph glyph-name="uring" unicode="&#x16f;" horiz-adv-x="1329" 
d="M479 1177q-73 73 -73 173t72.5 172.5t172.5 72.5q101 0 174.5 -72.5t73.5 -172.5t-73.5 -173t-174.5 -73q-100 0 -172 73zM489 1350q0 -61 50 -110.5t112 -49.5q63 0 112.5 49t49.5 111q0 63 -49.5 112t-112.5 49q-62 0 -112 -49t-50 -112zM1298 119v-119h-94
q-124 1 -173.5 48t-57.5 163q-62 -105 -171 -168t-235 -63q-403 0 -403 415v629h143v-598q0 -77 14.5 -133.5t49 -102t98 -69t154.5 -23.5q142 0 245 98.5t103 243.5v584h143v-711q0 -57 5 -89.5t21 -58.5t47.5 -36t84.5 -10h26z" />
    <glyph glyph-name="Uhungarumlaut" unicode="&#x170;" horiz-adv-x="1574" 
d="M893 1554l121 330h121l-136 -330h-106zM573 1554l121 330h121l-135 -330h-107zM1243 1434h148v-840q0 -311 -156.5 -462.5t-454.5 -151.5q-296 0 -446 150.5t-150 463.5v840h148v-840q0 -254 110.5 -373t337.5 -119q229 0 346 120t117 372v840z" />
    <glyph glyph-name="uhungarumlaut" unicode="&#x171;" horiz-adv-x="1329" 
d="M762 1145l121 330h121l-136 -330h-106zM442 1145l121 330h121l-135 -330h-107zM1298 119v-119h-94q-124 1 -173.5 48t-57.5 163q-62 -105 -171 -168t-235 -63q-403 0 -403 415v629h143v-598q0 -77 14.5 -133.5t49 -102t98 -69t154.5 -23.5q142 0 245 98.5t103 243.5v584
h143v-711q0 -57 5 -89.5t21 -58.5t47.5 -36t84.5 -10h26z" />
    <glyph glyph-name="Uogonek" unicode="&#x172;" horiz-adv-x="1574" 
d="M1243 1434h148v-840q0 -285 -132.5 -436.5t-384.5 -173.5l3 -2q-42 -54 -59.5 -79.5t-34.5 -68t-17 -84.5q0 -49 25 -78t69 -36.5t94 -2.5t109 21v-92q-64 -16 -130 -17t-126 15t-97.5 60.5t-37.5 113.5q0 44 19 91t40 78.5t57 76.5q-307 0 -455.5 152.5t-148.5 461.5
v840h148v-840q0 -254 110.5 -373t337.5 -119q229 0 346 120t117 372v840z" />
    <glyph glyph-name="uogonek" unicode="&#x173;" horiz-adv-x="1329" 
d="M1298 119v-119h-94q-79 0 -133 23q-70 -97 -70 -179q0 -49 25 -78t69 -36.5t94 -2.5t109 21v-92q-64 -16 -130 -17t-126 15t-97.5 60.5t-37.5 113.5q0 60 28.5 114.5t80.5 120.5q-37 45 -43 148q-62 -105 -171 -168t-235 -63q-403 0 -403 415v629h143v-598
q0 -77 14.5 -133.5t49 -102t98 -69t154.5 -23.5q142 0 245 98.5t103 243.5v584h143v-711q0 -57 5 -89.5t21 -58.5t47.5 -36t84.5 -10h26z" />
    <glyph glyph-name="Wcircumflex" unicode="&#x174;" horiz-adv-x="2140" 
d="M762 1571l268 299h84l268 -299h-131l-180 205l-180 -205h-129zM549 0l-461 1434h154l379 -1219l366 1219h162l369 -1231l380 1231h154l-465 -1434h-153l-367 1204l-367 -1204h-151z" />
    <glyph glyph-name="wcircumflex" unicode="&#x175;" horiz-adv-x="1579" 
d="M481 1161l269 299h84l268 -299h-131l-180 205l-181 -205h-129zM82 1024h151l232 -838l256 838h137l258 -836l230 836h151l-307 -1024h-148l-251 813l-252 -813h-150z" />
    <glyph glyph-name="Ycircumflex" unicode="&#x176;" horiz-adv-x="1540" 
d="M463 1571l268 299h84l268 -299h-131l-180 205l-180 -205h-129zM696 430l-608 1004h170l512 -875l514 875h170l-610 -1004v-430h-148v430z" />
    <glyph glyph-name="ycircumflex" unicode="&#x177;" horiz-adv-x="1202" 
d="M293 1161l268 299h84l268 -299h-131l-180 205l-180 -205h-129zM1120 1024l-448 -1044q-69 -160 -99 -208q-62 -100 -158 -139q-105 -43 -302 -43v119q87 0 150 12t98.5 24.5t67 51t42 59t36.5 81.5q5 10 7.5 15.5t6.5 14.5t7 17l9 20l-453 1020h147l379 -860l365 860h145
z" />
    <glyph glyph-name="Ydieresis" unicode="&#x178;" horiz-adv-x="1540" 
d="M455 1692q0 46 32.5 78t79.5 32q46 0 78.5 -32t32.5 -78q0 -47 -32.5 -80t-78.5 -33q-47 0 -79.5 33t-32.5 80zM864 1692q0 46 33 78t80 32q46 0 78 -32t32 -78q0 -47 -32 -80t-78 -33q-47 0 -80 33t-33 80zM696 430l-608 1004h170l512 -875l514 875h170l-610 -1004v-430
h-148v430z" />
    <glyph glyph-name="Zacute" unicode="&#x179;" horiz-adv-x="1292" 
d="M582 1554l120 330h121l-135 -330h-106zM1151 1434v-115l-875 -1196h928v-123h-1116v115l877 1196h-861v123h1047z" />
    <glyph glyph-name="zacute" unicode="&#x17a;" horiz-adv-x="1081" 
d="M492 1145l120 330h121l-135 -330h-106zM952 1024v-100l-667 -805h716v-119h-903v100l672 805h-655v119h837z" />
    <glyph glyph-name="Zdotaccent" unicode="&#x17b;" horiz-adv-x="1292" 
d="M535 1692q0 46 32.5 78t79.5 32q46 0 78.5 -32t32.5 -78q0 -47 -32.5 -80t-78.5 -33q-47 0 -79.5 33t-32.5 80zM1151 1434v-115l-875 -1196h928v-123h-1116v115l877 1196h-861v123h1047z" />
    <glyph glyph-name="zdotaccent" unicode="&#x17c;" horiz-adv-x="1081" 
d="M430 1282q0 46 33 78.5t80 32.5q46 0 78 -32.5t32 -78.5q0 -47 -32 -80t-78 -33q-47 0 -80 33t-33 80zM952 1024v-100l-667 -805h716v-119h-903v100l672 805h-655v119h837z" />
    <glyph glyph-name="Zcaron" unicode="&#x17d;" horiz-adv-x="1292" 
d="M336 1853h131l180 -204l180 204h129l-268 -299h-84zM1151 1434v-115l-875 -1196h928v-123h-1116v115l877 1196h-861v123h1047z" />
    <glyph glyph-name="zcaron" unicode="&#x17e;" horiz-adv-x="1081" 
d="M231 1444h131l181 -205l180 205h129l-268 -299h-84zM952 1024v-100l-667 -805h716v-119h-903v100l672 805h-655v119h837z" />
    <glyph glyph-name="longs" unicode="&#x17f;" horiz-adv-x="778" 
d="M696 1337h-149q-126 0 -178 -52.5t-52 -182.5v-1102h-143v1122q0 331 326 334h196v-119z" />
    <glyph glyph-name="florin" unicode="&#x192;" horiz-adv-x="831" 
d="M748 1352h-150q-123 0 -176 -61.5t-53 -188.5v-92h381v-119h-381v-967q0 -331 -326 -334h-197v109h150q123 0 176 61.5t53 188.5v942h-182v119h182v112q0 331 326 334h197v-104z" />
    <glyph glyph-name="uni0218" unicode="&#x218;" horiz-adv-x="1519" 
d="M285 449q0 -71 27.5 -131.5t84 -110t153.5 -77.5t226 -28q226 0 342.5 73.5t116.5 205.5q0 31 -6 57t-15.5 46t-28 37t-35.5 29t-48 22.5t-54.5 17.5t-65 15t-71.5 12.5t-81.5 13t-86.5 14.5q-114 20 -193.5 41.5t-151 54.5t-114 75.5t-67 104.5t-24.5 142
q0 126 74.5 216t201 133.5t291.5 43.5q133 0 238.5 -26.5t173.5 -70.5t113 -105t64 -126t19 -137h-151q0 57 -13.5 105.5t-46.5 93t-84.5 75.5t-131 49.5t-181.5 18.5q-194 0 -305 -65.5t-111 -202.5q0 -35 6.5 -63.5t22.5 -52t34.5 -41.5t52 -33.5t66 -27t84 -23.5
t98.5 -21t117 -21q215 -37 280 -55q171 -48 234 -147q47 -75 47 -189q0 -184 -152.5 -297.5t-451.5 -113.5q-136 0 -246.5 26.5t-184 71.5t-124 106t-72.5 127.5t-22 137.5h152zM653 -197q0 41 29 70t72 29q41 0 69.5 -29t28.5 -70q0 -35 -21 -63l-110 -205h-57l73 170
q-37 6 -60.5 33t-23.5 65z" />
    <glyph glyph-name="uni0219" unicode="&#x219;" horiz-adv-x="1185" 
d="M276 322q0 -96 86 -160t246 -64q146 0 229 48t83 120q0 21 -4 38t-15.5 31t-23 24.5t-36 20.5t-44 16.5t-57 14.5t-66.5 13t-80 14q-85 14 -147.5 30.5t-117.5 42.5t-89.5 59.5t-54 81t-19.5 108.5q0 96 58 162t148.5 95.5t205.5 29.5t206.5 -30.5t146 -81t83 -109.5
t28.5 -121h-147q0 97 -82.5 160t-241.5 63q-121 0 -193.5 -42.5t-72.5 -119.5q0 -86 72 -124q50 -26 205 -54q8 -1 23 -3q17 -3 26 -5q88 -15 145 -28.5t116 -37t92 -53t54 -75t21 -105.5q0 -132 -122.5 -216.5t-326.5 -84.5q-119 0 -213.5 30.5t-151.5 80.5t-86.5 109.5
t-29.5 121.5h147zM502 -197q0 41 29 70t71 29q41 0 69.5 -29t28.5 -70q0 -36 -20 -63l-111 -205h-57l74 170q-37 6 -60.5 33t-23.5 65z" />
    <glyph glyph-name="uni021A" unicode="&#x21a;" horiz-adv-x="1452" 
d="M88 1434h1278v-123h-565v-1311h-148v1311h-565v123zM618 -197q0 41 29 70t72 29q41 0 69.5 -29t28.5 -70q0 -36 -20 -63l-111 -205h-57l73 170q-37 6 -60.5 33t-23.5 65z" />
    <glyph glyph-name="uni021B" unicode="&#x21b;" horiz-adv-x="878" 
d="M82 1024h186v246h144v-246h385v-119h-385v-547q0 -136 50.5 -187.5t178.5 -51.5h156v-119h-203q-326 0 -326 334v571h-186v119zM444 -197q0 41 29 70t72 29q41 0 69.5 -29t28.5 -70q0 -36 -20 -63l-111 -205h-57l73 170q-37 6 -60.5 33t-23.5 65z" />
    <glyph glyph-name="uni0237" unicode="&#x237;" horiz-adv-x="440" 
d="M115 1370q0 43 31.5 74t76.5 31q43 0 73 -31t30 -74q0 -44 -30 -75t-73 -31q-46 0 -77 31t-31 75zM-199 -291h119q128 0 179 52t51 188v1075h143v-1100q0 -334 -326 -334h-166v119z" />
    <glyph glyph-name="circumflex" unicode="&#x2c6;" horiz-adv-x="866" 
d="M125 1161l268 299h84l268 -299h-131l-180 205l-180 -205h-129z" />
    <glyph glyph-name="caron" unicode="&#x2c7;" horiz-adv-x="866" 
d="M123 1444h131l180 -205l180 205h129l-268 -299h-84z" />
    <glyph glyph-name="uni02C9" unicode="&#x2c9;" horiz-adv-x="722" 
d="M123 1311h477v-82h-477v82z" />
    <glyph glyph-name="breve" unicode="&#x2d8;" horiz-adv-x="851" 
d="M123 1495h90q0 -119 58 -180.5t155 -61.5q99 0 156 61.5t57 180.5h90q0 -163 -83.5 -249.5t-219.5 -86.5t-219.5 86.5t-83.5 249.5z" />
    <glyph glyph-name="dotaccent" unicode="&#x2d9;" horiz-adv-x="468" 
d="M123 1282q0 46 33 78.5t80 32.5q46 0 78 -32.5t32 -78.5q0 -47 -32 -80t-78 -33q-47 0 -80 33t-33 80z" />
    <glyph glyph-name="ring" unicode="&#x2da;" horiz-adv-x="720" 
d="M186 1177q-73 73 -73 173t72.5 172.5t172.5 72.5q101 0 174.5 -72.5t73.5 -172.5t-73.5 -173t-174.5 -73q-100 0 -172 73zM197 1350q0 -61 49.5 -110.5t111.5 -49.5q63 0 112.5 49t49.5 111q0 63 -49.5 112t-112.5 49q-62 0 -111.5 -49t-49.5 -112z" />
    <glyph glyph-name="ogonek" unicode="&#x2db;" horiz-adv-x="636" 
d="M274 20l54 -43q-33 -43 -45.5 -60t-32 -50t-26.5 -61t-7 -60q0 -49 25 -78t69 -36.5t94 -2.5t109 21v-92q-64 -16 -130 -17t-126 15t-97.5 60.5t-37.5 113.5q0 28 7.5 57t16.5 50t28.5 51.5t30.5 44.5t36 46t32 41z" />
    <glyph glyph-name="tilde" unicode="&#x2dc;" horiz-adv-x="903" 
d="M455 1296q103 -43 132 -46q47 -5 81 43q17 24 37 65l75 -23q-18 -45 -38.5 -77t-39.5 -51.5t-44.5 -28t-46 -10.5t-52.5 5t-55 14.5t-62 22.5q-101 42 -130 44q-48 5 -79 -45q-15 -24 -32 -66l-78 28q21 51 43.5 85.5t48.5 51.5t50.5 24.5t58.5 2.5t61.5 -13.5
t69.5 -25.5z" />
    <glyph glyph-name="hungarumlaut" unicode="&#x2dd;" horiz-adv-x="806" 
d="M442 1145l121 330h121l-135 -330h-107zM123 1145l121 330h121l-136 -330h-106z" />
    <glyph glyph-name="uni0326" unicode="&#x326;" horiz-adv-x="505" 
d="M154 -197q0 41 29 70t71 29q41 0 69.5 -29t28.5 -70q0 -36 -20 -63l-111 -205h-57l74 170q-37 6 -60.5 33t-23.5 65z" />
    <glyph glyph-name="uni0394" unicode="&#x394;" horiz-adv-x="1501" 
d="M113 0l573 1434h129l574 -1434h-1276zM283 119h938l-469 1171z" />
    <glyph glyph-name="uni03A9" unicode="&#x3a9;" horiz-adv-x="1769" 
d="M993 119q123 52 211.5 112t151.5 137.5t94 175.5t31 220q0 127 -50 235t-133.5 179.5t-190.5 112t-222 40.5q-114 0 -220.5 -40.5t-190 -112t-133.5 -180t-50 -234.5q0 -161 56.5 -283t161 -207t269.5 -155v-119h-639v119h434q-434 229 -434 655q0 123 40.5 232t112 190
t165.5 140t203.5 88.5t224.5 29.5t225 -30t204.5 -88.5t165.5 -139.5t111.5 -190t40.5 -232q0 -426 -434 -655h432v-119h-637v119z" />
    <glyph glyph-name="uni03BC" unicode="&#x3bc;" horiz-adv-x="1298" 
d="M1298 119v-119h-94q-124 1 -173.5 48t-57.5 163q-62 -105 -171 -168t-235 -63q-165 0 -260 67v-457h-143v1434h143v-598q0 -77 14.5 -133.5t49 -102t98 -69t154.5 -23.5q142 0 245 98.5t103 243.5v584h143v-711q0 -57 5 -89.5t21 -58.5t47.5 -36t84.5 -10h26z" />
    <glyph glyph-name="pi" unicode="&#x3c0;" horiz-adv-x="1368" 
d="M123 1024h1061v-1024h-148v901h-553l-161 -901h-148l162 901h-213v123z" />
    <glyph glyph-name="Wgrave" unicode="&#x1e80;" horiz-adv-x="2140" 
d="M1096 1554h-107l-137 330h121zM549 0l-461 1434h154l379 -1219l366 1219h162l369 -1231l380 1231h154l-465 -1434h-153l-367 1204l-367 -1204h-151z" />
    <glyph glyph-name="wgrave" unicode="&#x1e81;" horiz-adv-x="1579" 
d="M815 1145h-106l-138 330h121zM82 1024h151l232 -838l256 838h137l258 -836l230 836h151l-307 -1024h-148l-251 813l-252 -813h-150z" />
    <glyph glyph-name="Wacute" unicode="&#x1e82;" horiz-adv-x="2140" 
d="M1047 1554l120 330h121l-135 -330h-106zM549 0l-461 1434h154l379 -1219l366 1219h162l369 -1231l380 1231h154l-465 -1434h-153l-367 1204l-367 -1204h-151z" />
    <glyph glyph-name="wacute" unicode="&#x1e83;" horiz-adv-x="1579" 
d="M766 1145l121 330h121l-136 -330h-106zM82 1024h151l232 -838l256 838h137l258 -836l230 836h151l-307 -1024h-148l-251 813l-252 -813h-150z" />
    <glyph glyph-name="Wdieresis" unicode="&#x1e84;" horiz-adv-x="2140" 
d="M754 1692q0 46 32.5 78t79.5 32q46 0 78.5 -32t32.5 -78q0 -47 -32.5 -80t-78.5 -33q-47 0 -79.5 33t-32.5 80zM1163 1692q0 46 33 78t80 32q46 0 78 -32t32 -78q0 -47 -32 -80t-78 -33q-47 0 -80 33t-33 80zM549 0l-461 1434h154l379 -1219l366 1219h162l369 -1231
l380 1231h154l-465 -1434h-153l-367 1204l-367 -1204h-151z" />
    <glyph glyph-name="wdieresis" unicode="&#x1e85;" horiz-adv-x="1579" 
d="M473 1282q0 46 33 78.5t80 32.5q46 0 78 -32.5t32 -78.5q0 -47 -32 -80t-78 -33q-47 0 -80 33t-33 80zM883 1282q0 46 32.5 78.5t79.5 32.5q46 0 78.5 -32.5t32.5 -78.5q0 -47 -32.5 -80t-78.5 -33q-47 0 -79.5 33t-32.5 80zM82 1024h151l232 -838l256 838h137l258 -836
l230 836h151l-307 -1024h-148l-251 813l-252 -813h-150z" />
    <glyph glyph-name="endash" unicode="&#x2013;" horiz-adv-x="1126" 
d="M154 563h819v-102h-819v102z" />
    <glyph glyph-name="emdash" unicode="&#x2014;" horiz-adv-x="1331" 
d="M154 563h1024v-102h-1024v102z" />
    <glyph glyph-name="quoteleft" unicode="&#x2018;" horiz-adv-x="561" 
d="M168 1186l145 268h82l-90 -205q45 -9 74 -44.5t29 -82.5q0 -53 -37 -89t-92 -36q-53 0 -89 36.5t-36 88.5q0 29 14 64z" />
    <glyph glyph-name="quoteright" unicode="&#x2019;" horiz-adv-x="561" 
d="M393 1266l-145 -269h-82l90 205q-45 9 -73.5 44.5t-28.5 82.5q0 53 37 89t92 36q53 0 89 -36t36 -89q0 -25 -15 -63z" />
    <glyph glyph-name="quotesinglbase" unicode="&#x201a;" horiz-adv-x="514" 
d="M154 55q0 43 30 73t74 30q43 0 72.5 -30t29.5 -73q0 -37 -18 -61l-117 -217h-59l76 176q-39 6 -63.5 34.5t-24.5 67.5z" />
    <glyph glyph-name="quotedblleft" unicode="&#x201c;" horiz-adv-x="946" 
d="M553 1186l145 268h82l-90 -205q45 -9 74 -44.5t29 -82.5q0 -53 -37 -89t-92 -36q-52 0 -88.5 36.5t-36.5 88.5q0 29 14 64zM168 1186l145 268h82l-90 -205q45 -9 74 -44.5t29 -82.5q0 -53 -37 -89t-92 -36q-53 0 -89 36.5t-36 88.5q0 29 14 64z" />
    <glyph glyph-name="quotedblright" unicode="&#x201d;" horiz-adv-x="946" 
d="M393 1266l-145 -269h-82l90 205q-45 9 -73.5 44.5t-28.5 82.5q0 53 37 89t92 36q53 0 89 -36t36 -89q0 -25 -15 -63zM778 1266l-145 -269h-82l90 205q-45 9 -73.5 44.5t-28.5 82.5q0 53 37 89t92 36q52 0 88.5 -36t36.5 -89q0 -25 -15 -63z" />
    <glyph glyph-name="quotedblbase" unicode="&#x201e;" horiz-adv-x="716" 
d="M180 -123v451h113l-31 -451h-82zM426 -123v451h113l-31 -451h-82z" />
    <glyph glyph-name="dagger" unicode="&#x2020;" horiz-adv-x="888" 
d="M387 1434h117v-410h268v-117h-268v-1317h-117v1317h-268v117h268v410z" />
    <glyph glyph-name="daggerdbl" unicode="&#x2021;" horiz-adv-x="888" 
d="M119 1065h268v369h117v-369h268v-117h-268v-872h268v-117h-268v-369h-117v369h-268v117h268v872h-268v117z" />
    <glyph glyph-name="bullet" unicode="&#x2022;" horiz-adv-x="813" 
d="M184 514q0 93 65 156t161 63q92 0 155.5 -63.5t63.5 -155.5q0 -96 -63 -160.5t-156 -64.5q-97 0 -161.5 64t-64.5 161z" />
    <glyph glyph-name="ellipsis" unicode="&#x2026;" horiz-adv-x="1685" 
d="M154 109q0 53 37 88.5t92 35.5q53 0 89 -36t36 -88q0 -55 -36 -92t-89 -37q-55 0 -92 37t-37 92zM715 109q0 53 37 88.5t92 35.5q53 0 89 -36t36 -88q0 -55 -36 -92t-89 -37q-56 0 -92.5 37t-36.5 92zM1278 109q0 53 37 88.5t92 35.5q53 0 89 -36t36 -88q0 -55 -36 -92
t-89 -37q-55 0 -92 37t-37 92z" />
    <glyph glyph-name="perthousand" unicode="&#x2030;" horiz-adv-x="2971" 
d="M221 687q-102 117 -102 325t101 325t276 117q174 0 275 -117t101 -325t-101 -325.5t-275 -117.5t-275 118zM702 0l572 1434h96l-571 -1434h-97zM496 1380q-135 0 -211 -97t-76 -271t76 -271.5t211 -97.5q134 0 210 97.5t76 271.5t-76 271t-210 97zM1301 97
q-101 117 -101 325t101 325t276 117t276 -117t101 -325t-101 -325t-276 -117t-276 117zM2198 97q-101 117 -101 325t101 325t276 117t276 -117t101 -325t-101 -325t-276 -117t-276 117zM1577 791q-135 0 -211 -97.5t-76 -271.5t76 -271.5t211 -97.5q134 0 210.5 97.5
t76.5 271.5t-76.5 271.5t-210.5 97.5zM2474 791q-135 0 -211 -97.5t-76 -271.5t76 -271.5t211 -97.5q134 0 210.5 97.5t76.5 271.5t-76.5 271.5t-210.5 97.5z" />
    <glyph glyph-name="guilsinglleft" unicode="&#x2039;" horiz-adv-x="628" 
d="M123 512l256 446h127l-256 -446l256 -444h-127z" />
    <glyph glyph-name="guilsinglright" unicode="&#x203a;" horiz-adv-x="628" 
d="M506 512l-256 -444h-127l258 444l-258 446h127z" />
    <glyph glyph-name="fraction" unicode="&#x2044;" horiz-adv-x="905" 
d="M119 0l573 1434h96l-573 -1434h-96z" />
    <glyph glyph-name="Euro" unicode="&#x20ac;" horiz-adv-x="1681" 
d="M-82 938h262q65 240 254.5 378t439.5 138q127 0 237 -33t186.5 -87.5t132 -124.5t82 -144.5t26.5 -146.5h-152q0 73 -34 145t-96.5 132.5t-162.5 98t-219 37.5q-121 0 -227.5 -43t-190 -133.5t-122.5 -216.5h696v-102h-719q-8 -49 -8 -119q0 -49 6 -96h721v-103h-702
q54 -199 204.5 -307.5t341.5 -108.5q119 0 219 37.5t162.5 98.5t96.5 133t34 145h152q0 -72 -26.5 -146.5t-82 -144.5t-132 -124.5t-186.5 -87.5t-237 -33q-255 0 -448 144.5t-252 393.5h-256v103h238q-4 31 -4 96q0 41 8 119h-242v102z" />
    <glyph glyph-name="trademark" unicode="&#x2122;" horiz-adv-x="1783" 
d="M123 1434h639v-62h-283v-655h-73v655h-283v62zM897 1434h74l309 -633l307 633h74v-717h-72v571l-274 -571h-72l-274 571v-571h-72v717z" />
    <glyph glyph-name="partialdiff" unicode="&#x2202;" horiz-adv-x="1312" 
d="M659 950q43 0 86 -6l-389 490h174l508 -639q127 -134 127 -330q0 -145 -71.5 -257.5t-185.5 -170t-249 -57.5q-99 0 -191 34t-162.5 95t-113 153.5t-42.5 202.5t42.5 202.5t113 153.5t162.5 95t191 34zM659 98q92 0 172.5 42t133.5 127.5t53 197.5q0 168 -107.5 267
t-251.5 99q-69 0 -133.5 -24.5t-115.5 -69.5t-82 -116t-31 -156q0 -112 53 -197.5t134.5 -127.5t174.5 -42z" />
    <glyph glyph-name="product" unicode="&#x220f;" horiz-adv-x="1296" 
d="M184 1434h930v-1844h-123v1725h-684v-1725h-123v1844z" />
    <glyph glyph-name="summation" unicode="&#x2211;" horiz-adv-x="1183" 
d="M1067 1434v-109h-784l325 -811l-325 -815h784v-109h-948l368 924l-368 920h948z" />
    <glyph glyph-name="minus" unicode="&#x2212;" horiz-adv-x="1003" 
d="M154 563h696v-102h-696v102z" />
    <glyph glyph-name="uni2215" unicode="&#x2215;" horiz-adv-x="1028" 
d="M119 0l696 1434h96l-696 -1434h-96z" />
    <glyph glyph-name="uni2219" unicode="&#x2219;" horiz-adv-x="622" 
d="M184 512q0 53 37 89t92 36q53 0 89 -36.5t36 -88.5q0 -55 -36 -92t-89 -37q-55 0 -92 36.5t-37 92.5z" />
    <glyph glyph-name="radical" unicode="&#x221a;" horiz-adv-x="1624" 
d="M119 649h383l284 -731l603 1516h116l-655 -1639h-127l-291 737h-313v117z" />
    <glyph glyph-name="infinity" unicode="&#x221e;" horiz-adv-x="1271" 
d="M1068 807q81 -82 81 -197t-81.5 -195.5t-195.5 -80.5q-77 0 -139 37.5t-96 101.5q-36 -64 -98.5 -101.5t-139.5 -37.5q-114 0 -195 80.5t-81 195.5t81 197t195 82q76 0 139 -38t99 -103q35 64 97 102.5t138 38.5q114 0 196 -82zM672 610q0 -83 58.5 -141.5t141.5 -58.5
t142 58.5t59 141.5q0 85 -59 144t-142 59t-141.5 -59t-58.5 -144zM602 610q0 83 -59 142t-142 59t-141.5 -59t-58.5 -142q0 -85 58.5 -143.5t141.5 -58.5t142 59t59 143z" />
    <glyph glyph-name="integral" unicode="&#x222b;" horiz-adv-x="856" 
d="M743 1335q-134 0 -188.5 -62.5t-54.5 -191.5v-1153q0 -124 -31.5 -194t-116.5 -106.5t-239 -37.5v119q135 0 189 62t54 192v1153q0 123 32 193.5t117 107t238 37.5v-119z" />
    <glyph glyph-name="approxequal" unicode="&#x2248;" horiz-adv-x="1298" 
d="M174 831q35 87 77 134t102.5 60t132.5 -2t176 -58q64 -26 104 -40t81 -23t66 -5.5t50 17.5t43 41t36 69l21 47l84 -35l-19 -47q-68 -168 -178 -193t-309 62q-54 22 -90.5 35t-73.5 23t-62 10.5t-49 -5t-41.5 -21.5t-33.5 -40.5t-31 -60.5l-20 -49l-84 34z" />
    <glyph glyph-name="notequal" unicode="&#x2260;" horiz-adv-x="1034" 
d="M233 -203l154 490h-219v102h252l76 246h-328v102h360l156 496h117l-156 -496h219v-102h-252l-75 -246h327v-102h-360l-154 -490h-117z" />
    <glyph glyph-name="lessequal" unicode="&#x2264;" horiz-adv-x="985" 
d="M119 700l749 433v-129l-610 -342l610 -340v-129l-749 430v77zM119 102h749v-102h-749v102z" />
    <glyph glyph-name="greaterequal" unicode="&#x2265;" horiz-adv-x="985" 
d="M868 700v-77l-749 -430v129l608 340l-608 342v129zM868 102v-102h-749v102h749z" />
    <glyph glyph-name="uni24C5" unicode="&#x24c5;" horiz-adv-x="1783" 
d="M156 717q0 200 98.5 369.5t268 268.5t370.5 99q200 0 369 -99t267.5 -268.5t98.5 -369.5q0 -201 -98.5 -370.5t-267.5 -268t-369 -98.5q-150 0 -286.5 58t-235.5 157t-157 235.5t-58 286.5zM264 983q-55 -127 -55 -266t54.5 -265.5t146 -218t218 -146t265.5 -54.5
q138 0 264.5 54.5t218 146t145.5 218t54 265.5t-54 265.5t-145.5 218t-218 146t-264.5 54.5q-139 0 -265.5 -54.5t-218 -146t-145.5 -217.5zM952 1067q30 0 65.5 -8.5t80 -30t73.5 -69.5t29 -115q0 -46 -14 -84t-37 -62t-50 -41.5t-56 -26t-51 -12.5t-40 -4h-225v-249h-90
v702h315zM727 688h219q15 0 33 3t41.5 13.5t42.5 26.5t32 45t13 66q0 46 -19 78.5t-47.5 47t-52 20t-43.5 5.5h-219v-305z" />
    <glyph glyph-name="lozenge" unicode="&#x25ca;" horiz-adv-x="1091" 
d="M113 510l368 924h129l369 -924l-369 -920h-129zM858 510l-311 780l-311 -780l311 -776z" />
    <glyph glyph-name="fi" unicode="&#xfb01;" horiz-adv-x="1312" 
d="M989 1370q0 43 32 74t77 31q42 0 72 -31t30 -74q0 -44 -29.5 -75t-72.5 -31q-46 0 -77.5 31t-31.5 75zM84 1024h184v98q0 334 326 334h197v-119h-152q-128 0 -177.5 -48.5t-49.5 -186.5v-78h753v-1024h-143v905h-610v-905h-144v905h-184v119z" />
    <glyph glyph-name="fl" unicode="&#xfb02;" horiz-adv-x="1394" 
d="M84 1024h184v98q0 334 326 334h586v-1143q0 -43 1.5 -70t8 -51t16 -36.5t28 -21.5t42.5 -12t61 -3h27v-119h-94q-137 1 -185.5 59t-48.5 207v1071h-397q-128 0 -177.5 -48.5t-49.5 -186.5v-78h364v-119h-364v-905h-144v905h-184v119z" />
    <glyph glyph-name="zero.lnum_tnum" horiz-adv-x="1638" 
d="M360 176q-170 196 -170 541t170 541t459 196q291 0 460 -196t169 -541t-169 -541t-460 -196q-289 0 -459 196zM1170 1170q-126 161 -351 161t-351 -161.5t-126 -452.5t126 -453t351 -162t351 162t126 453t-126 453z" />
    <glyph glyph-name="one.lnum_tnum" horiz-adv-x="1638" 
d="M1057 1434h106v-1434h-147v1278l-492 -225l-47 114z" />
    <glyph glyph-name="two.lnum_tnum" horiz-adv-x="1638" 
d="M315 123l521 465q97 86 154.5 146.5t88 112t40 92t9.5 97.5q0 81 -28.5 140.5t-79.5 92.5t-112.5 48.5t-135.5 15.5q-81 0 -144.5 -22.5t-103 -59.5t-65 -89.5t-35.5 -106.5t-10 -115h-152q0 73 15 142.5t51.5 138.5t92.5 120t144.5 83t200.5 32q106 0 196 -24t162.5 -73
t114 -132.5t41.5 -194.5q0 -86 -27 -156.5t-109.5 -167.5t-238.5 -231l-409 -354h882v-123h-1063v123z" />
    <glyph glyph-name="three.lnum_tnum" horiz-adv-x="1587" 
d="M662 657v123h167q141 0 208 66.5t67 210.5q0 142 -94 211t-250 69q-97 0 -164 -27t-102 -77.5t-49.5 -109.5t-14.5 -136h-151q0 74 14.5 139.5t50 127t89 105.5t137.5 70.5t190 26.5q218 0 354.5 -100.5t136.5 -288.5q0 -246 -170 -338q118 -37 184 -121.5t66 -218.5
q0 -100 -42 -179t-115 -128t-168 -74.5t-205 -25.5q-135 0 -242 40t-171 107t-97 147.5t-33 167.5h152q0 -69 23 -128.5t69 -107.5t123.5 -76t177.5 -28q79 0 145 17t119 51t83 92t30 135q0 258 -334 258h-184z" />
    <glyph glyph-name="four.lnum_tnum" horiz-adv-x="1638" 
d="M1028 1436h139v-904h287v-122h-287v-410h-147v410h-840v92zM358 532h662v734z" />
    <glyph glyph-name="five.lnum_tnum" horiz-adv-x="1638" 
d="M416 711l102 723h733v-123h-602l-65 -457q118 80 264 80q86 0 169.5 -32t151.5 -90t110 -150t42 -201t-41 -201t-110 -152.5t-158.5 -94t-188.5 -33.5t-190 33t-162 93t-113.5 152t-42.5 201h148q0 -159 106 -257t248 -98q143 0 247.5 97t104.5 256q0 106 -50.5 188
t-128.5 123t-169 41q-160 0 -258 -98h-147z" />
    <glyph glyph-name="six.lnum_tnum" horiz-adv-x="1638" 
d="M823 950q99 0 190 -34t162 -95t113.5 -154t42.5 -202t-42.5 -202t-113.5 -154t-162 -95t-190 -34q-135 0 -249.5 57.5t-186.5 170t-72 257.5q0 197 125 328l506 641h174l-385 -490q43 6 88 6zM823 102q144 0 250.5 99.5t106.5 263.5q0 165 -106 263.5t-251 98.5
q-68 0 -131.5 -24.5t-114 -69.5t-80.5 -114.5t-30 -153.5q0 -164 106.5 -263.5t249.5 -99.5z" />
    <glyph glyph-name="seven.lnum_tnum" horiz-adv-x="1638" 
d="M1292 1434v-115l-592 -1319h-165l600 1311h-789v123h946z" />
    <glyph glyph-name="eight.lnum_tnum" horiz-adv-x="1638" 
d="M453 1358q138 98 366 98t366 -98t138 -281q0 -118 -62 -204.5t-171 -133.5q126 -46 200 -138t74 -222q0 -99 -43.5 -176.5t-119.5 -125.5t-173 -72.5t-209 -24.5t-209 24.5t-173 72.5t-119.5 125.5t-43.5 176.5q0 130 74.5 222t200.5 138q-109 47 -171.5 133.5
t-62.5 204.5q0 183 138 281zM559 864q92 -67 260 -67t260 67t92 201t-92 201t-260 67t-260 -67t-92 -201t92 -201zM620 131q86 -29 199 -29t199.5 29t140 95t53.5 163q0 60 -20 108t-55 81t-85 54.5t-108 31.5t-125 10t-125 -10t-108 -31.5t-85 -54.5t-55 -81t-20 -108
q0 -97 53.5 -163t140.5 -95z" />
    <glyph glyph-name="nine.lnum_tnum" horiz-adv-x="1638" 
d="M827 487q-99 0 -191 34t-163 94.5t-113.5 153.5t-42.5 202t42.5 202t113.5 154t163 95t191 34q135 0 249 -57.5t185.5 -170t71.5 -257.5q0 -189 -123 -322l-505 -649h-175l388 496q-65 -9 -91 -9zM827 1333q-145 0 -251.5 -98.5t-106.5 -263.5q0 -110 52 -194.5
t132.5 -126.5t173.5 -42q143 0 249 99.5t106 263.5q0 111 -52 195.5t-131.5 125.5t-171.5 41z" />
    </font>
</defs>
</svg>
