<?xml version="1.0" standalone="no"?>
<!DOCTYPE svg PUBLIC "-//W3C//DTD SVG 1.1//EN" "http://www.w3.org/Graphics/SVG/1.1/DTD/svg11.dtd" >
<svg xmlns="http://www.w3.org/2000/svg" xmlns:xlink="http://www.w3.org/1999/xlink" version="1.1">
<metadata>
Created by FontForge 20230101 at Sat May 29 15:12:49 2021
 By Unknown
Tour de Force Font Foundry &#38; Dusan Jelesijevic
</metadata>
<defs>
<font id="Lupio-Black" horiz-adv-x="1189" >
  <font-face 
    font-family="Lupio Black"
    font-weight="900"
    font-stretch="normal"
    units-per-em="2048"
    panose-1="0 0 0 0 0 0 0 0 0 0"
    ascent="1638"
    descent="-410"
    x-height="1024"
    cap-height="1434"
    bbox="-242 -514.083 3045 2126"
    underline-thickness="102"
    underline-position="-358"
    unicode-range="U+000D-FB02"
  />
<missing-glyph horiz-adv-x="1024" 
 />
    <glyph glyph-name=".notdef" horiz-adv-x="1024" 
 />
    <glyph glyph-name="uni0000" horiz-adv-x="0" 
 />
    <glyph glyph-name="uni000D" unicode="&#xd;" horiz-adv-x="512" 
 />
    <glyph glyph-name="space" unicode=" " horiz-adv-x="532" 
 />
    <glyph glyph-name="exclam" unicode="!" horiz-adv-x="577" 
d="M61 1434h455v-506l-41 -432h-373l-41 432v506zM63 209q0 94 66 158.5t164 64.5q94 0 158.5 -64.5t64.5 -158.5q0 -98 -64.5 -163.5t-158.5 -65.5q-98 0 -164 65.5t-66 163.5z" />
    <glyph glyph-name="quotedbl" unicode="&#x22;" horiz-adv-x="778" 
d="M41 983v451h328l-93 -451h-235zM410 983v451h327l-92 -451h-235z" />
    <glyph glyph-name="numbersign" unicode="#" horiz-adv-x="1329" 
d="M41 567h166l41 299h-207v322h254l35 246h321l-35 -246h211l35 246h342l-35 -246h119v-322h-166l-41 -299h207v-321h-254l-35 -246h-342l35 246h-211l-35 -246h-321l35 246h-119v321zM528 567h211l41 299h-211z" />
    <glyph glyph-name="dollar" unicode="$" horiz-adv-x="1488" 
d="M539 1843h368v-401q125 -19 221 -65t154.5 -111t87.5 -142t29 -163h-459q0 76 -53.5 110.5t-157.5 34.5q-71 0 -120.5 -24.5t-49.5 -63.5q0 -54 45.5 -72t276.5 -62q3 -1 4 -1q116 -22 179 -36.5t148 -46.5t128.5 -71.5t75.5 -106t32 -155.5q0 -190 -132 -318t-388 -159
v-400h-369v406q-132 21 -233 70.5t-162.5 117.5t-92 146t-30.5 164h459q0 -77 68.5 -121.5t176.5 -44.5q244 0 244 98q0 15 -4.5 26.5t-15.5 21t-24.5 16.5t-37 13.5t-46.5 11.5t-59.5 10.5t-69.5 10.5t-83 13t-94 16q-130 23 -219.5 63t-140.5 96.5t-73 123t-22 153.5
q0 166 123 280.5t316 154.5v407z" />
    <glyph glyph-name="percent" unicode="%" horiz-adv-x="2160" 
d="M155 686q-112 117 -112 326t111 325.5t311 116.5q201 0 312.5 -116.5t111.5 -325.5t-111.5 -326t-312.5 -117q-199 0 -310 117zM653 0l574 1434h280l-573 -1434h-281zM465 1233q-148 0 -148 -221t148 -221q149 0 149 221t-149 221zM1383 97q-111 116 -111 325t111 325.5
t311 116.5q201 0 312.5 -116.5t111.5 -325.5t-111.5 -325.5t-312.5 -116.5q-200 0 -311 117zM1694 643q-148 0 -148 -221t148 -221q149 0 149 221t-149 221z" />
    <glyph glyph-name="ampersand" unicode="&#x26;" horiz-adv-x="1484" 
d="M1464 557h-207v-123q0 -69 -19.5 -132t-66 -123t-116 -103.5t-177 -69.5t-241.5 -26q-181 0 -312 41.5t-207.5 133.5t-76.5 228q0 130 87 212.5t232 117.5q-237 79 -237 319q0 101 48 183t127.5 133t177.5 78.5t202 27.5q92 0 171 -15.5t137 -42.5t105 -63.5t77.5 -77.5
t51 -86t29 -86.5t8.5 -81.5h-458q0 24 -7.5 41t-17 25t-28 12.5t-29.5 5t-33 0.5q-49 0 -75.5 -27.5t-26.5 -74.5q0 -41 28.5 -71.5t96.5 -30.5h757v-324zM799 557h-195q-58 0 -81 -25t-23 -77q0 -58 37.5 -81.5t111.5 -23.5q91 0 120.5 22t29.5 62v123z" />
    <glyph glyph-name="quotesingle" unicode="'" horiz-adv-x="409" 
d="M41 983v451h328l-93 -451h-235z" />
    <glyph glyph-name="parenleft" unicode="(" horiz-adv-x="860" 
d="M438 522q0 -80 12.5 -153t30.5 -128t49 -109t56 -88.5t64.5 -74t61.5 -58.5t59.5 -48.5t47.5 -38.5l-198 -234q-64 27 -135.5 76t-152.5 133t-144.5 185t-105.5 242.5t-42 295.5q0 153 42 295t104 242.5t140 183t144 129.5t121 70l199 -234q-10 -10 -53.5 -48t-75.5 -69
t-77 -91.5t-74.5 -123t-51 -156t-21.5 -198.5z" />
    <glyph glyph-name="parenright" unicode=")" horiz-adv-x="860" 
d="M422 522q0 105 -21.5 198.5t-50.5 156t-74 123t-77 91.5t-75.5 69t-53.5 48l198 234q55 -23 121 -70t144 -129.5t140 -183t104 -242.5t42 -295q0 -154 -42 -295.5t-105.5 -242.5t-144 -185t-152 -133t-135.5 -76l-199 234q10 9 47.5 38.5t59.5 48.5t61.5 58.5t64.5 74
t56 88.5t49 109t30.5 128t12.5 153z" />
    <glyph glyph-name="asterisk" unicode="*" horiz-adv-x="991" 
d="M123 850l254 207l-314 110l125 215l252 -219l-69 369h250l-70 -369l252 219l125 -215l-314 -110l254 -207l-190 -162l-182 326l-183 -326z" />
    <glyph glyph-name="plus" unicode="+" horiz-adv-x="819" 
d="M61 655h205v205h287v-205h205v-286h-205v-205h-287v205h-205v286z" />
    <glyph glyph-name="comma" unicode="," horiz-adv-x="606" 
d="M61 225q0 99 70.5 168.5t175.5 69.5q98 0 168 -70t70 -168q0 -73 -37 -133l-221 -416h-221l151 320q-71 27 -113.5 88t-42.5 141z" />
    <glyph glyph-name="hyphen" unicode="-" horiz-adv-x="737" 
d="M61 655h615v-286h-615v286z" />
    <glyph glyph-name="period" unicode="." horiz-adv-x="606" 
d="M61 225q0 99 70.5 168.5t175.5 69.5q98 0 168 -70t70 -168q0 -105 -69.5 -175t-168.5 -70q-106 0 -176 69.5t-70 175.5z" />
    <glyph glyph-name="slash" unicode="/" horiz-adv-x="894" 
d="M41 0l451 1434h362l-451 -1434h-362z" />
    <glyph glyph-name="zero" unicode="0" horiz-adv-x="1492" 
d="M227 175q-186 194 -186 542t185.5 542.5t518.5 194.5q334 0 520.5 -194.5t186.5 -542.5t-186.5 -542.5t-520.5 -194.5q-333 0 -518 195zM934 992q-60 93 -189 93t-187 -92.5t-58 -275.5t58.5 -276t186.5 -93q129 0 188.5 93.5t59.5 275.5t-59 275z" />
    <glyph glyph-name="one" unicode="1" horiz-adv-x="983" 
d="M600 1434h322v-1434h-455v1004l-315 -146l-132 309z" />
    <glyph glyph-name="two" unicode="2" horiz-adv-x="1288" 
d="M94 369l535 448q60 50 84 90t24 84q0 36 -11 60.5t-30 35.5t-35.5 15t-35.5 4q-74 0 -99.5 -54.5t-25.5 -172.5h-459q0 85 15.5 161t56.5 154t104.5 134t168 91t239.5 35q86 0 163 -13t153.5 -47.5t131.5 -88t89 -139.5t34 -197q0 -27 -4 -55t-25 -81t-56.5 -106
t-106 -124.5t-166.5 -141.5l-127 -92h536v-369h-1153v369z" />
    <glyph glyph-name="three" unicode="3" horiz-adv-x="1277" 
d="M459 578v282h153q105 0 105 129q0 60 -24.5 88.5t-78.5 28.5q-46 0 -70 -33t-24 -133h-459q0 108 34.5 200t101 163t174.5 111t245 40q151 0 271.5 -45.5t194 -139.5t73.5 -222q0 -103 -46 -183t-128 -131q119 -42 187.5 -124.5t68.5 -205.5q0 -191 -161.5 -306
t-418.5 -115q-151 0 -271.5 42.5t-194 113.5t-112 157.5t-38.5 179.5h459q0 -70 38 -107.5t105 -37.5q69 0 102 39t33 98q0 56 -28.5 83.5t-75.5 27.5h-215z" />
    <glyph glyph-name="four" unicode="4" horiz-adv-x="1386" 
d="M727 1434h455v-779h164v-307h-164v-348h-455v348h-686v277zM453 655h274v330z" />
    <glyph glyph-name="five" unicode="5" horiz-adv-x="1271" 
d="M80 526l102 908h948v-369h-534l-21 -180q79 33 179 33q62 0 127 -17t128 -54t112 -89t79.5 -128.5t30.5 -166.5q0 -216 -160 -349.5t-414 -133.5q-171 0 -310 56t-222.5 166.5t-83.5 256.5h455q0 -64 37.5 -99.5t103.5 -35.5q139 0 139 122q0 64 -33 95.5t-90 31.5
q-61 0 -118 -47h-455z" />
    <glyph glyph-name="six" unicode="6" horiz-adv-x="1312" 
d="M594 1434h561l-330 -471q199 -42 323 -171.5t124 -312.5q0 -147 -83.5 -262t-223.5 -176t-310 -61q-178 0 -317.5 61.5t-218 175.5t-78.5 262q0 134 72 246zM655 324q69 0 115.5 42.5t46.5 112.5t-46.5 113t-115.5 43q-68 0 -113.5 -43t-45.5 -113t45.5 -112.5
t113.5 -42.5z" />
    <glyph glyph-name="seven" unicode="7" horiz-adv-x="1093" 
d="M1073 1434v-361l-483 -1073h-498l494 1065h-566v369h1053z" />
    <glyph glyph-name="eight" unicode="8" horiz-adv-x="1294" 
d="M241 1342q159 112 406 112t406 -112t159 -298q0 -184 -184 -303q104 -57 164.5 -141t60.5 -190q0 -99 -49 -181.5t-132.5 -136t-193 -83t-231.5 -29.5t-231.5 29.5t-193 83t-132.5 136t-49 181.5q0 106 60.5 190t164.5 141q-184 119 -184 303q0 186 159 298zM549 923
q32 -34 98 -34t98.5 33.5t32.5 76.5t-32.5 77t-98.5 34t-98.5 -34t-32.5 -77t33 -76zM537 362q41 -38 110 -38t110.5 38t41.5 93q0 54 -41 90.5t-111 36.5t-110.5 -36.5t-40.5 -90.5q0 -55 41 -93z" />
    <glyph glyph-name="nine" unicode="9" horiz-adv-x="1312" 
d="M719 0h-561l329 471q-199 42 -322.5 171t-123.5 312q0 147 83 262t223 176.5t310 61.5q178 0 317.5 -61.5t218.5 -176t79 -262.5q0 -133 -72 -245zM657 1110q-69 0 -115 -43t-46 -113t46 -112.5t115 -42.5q68 0 114 42.5t46 112.5t-46 113t-114 43z" />
    <glyph glyph-name="colon" unicode=":" horiz-adv-x="606" 
d="M61 807q0 99 70.5 168t175.5 69q98 0 168 -69.5t70 -167.5q0 -105 -69.5 -175.5t-168.5 -70.5q-106 0 -176 70t-70 176zM61 225q0 99 70.5 168.5t175.5 69.5q98 0 168 -70t70 -168q0 -105 -69.5 -175t-168.5 -70q-106 0 -176 69.5t-70 175.5z" />
    <glyph glyph-name="semicolon" unicode=";" horiz-adv-x="606" 
d="M61 807q0 99 70.5 168t175.5 69q98 0 168 -69.5t70 -167.5q0 -105 -69.5 -175.5t-168.5 -70.5q-106 0 -176 70t-70 176zM61 225q0 99 70.5 168.5t175.5 69.5q98 0 168 -70t70 -168q0 -73 -37 -133l-221 -416h-221l151 320q-71 27 -113.5 88t-42.5 141z" />
    <glyph glyph-name="less" unicode="&#x3c;" horiz-adv-x="892" 
d="M41 571l811 457v-369l-383 -188l383 -190v-367l-811 457v200z" />
    <glyph glyph-name="equal" unicode="=" horiz-adv-x="819" 
d="M61 860h697v-287h-697v287zM61 451h697v-287h-697v287z" />
    <glyph glyph-name="greater" unicode="&#x3e;" horiz-adv-x="892" 
d="M852 571v-200l-811 -457v367l383 190l-383 188v369z" />
    <glyph glyph-name="question" unicode="?" horiz-adv-x="1277" 
d="M399 492v24q0 99 8.5 158t34.5 102.5t60.5 69t101.5 59.5q32 17 43 22.5t38.5 21t38.5 25t26.5 23.5t21.5 28.5t6 29.5q0 38 -30 54.5t-95 16.5q-81 0 -117 -42t-36 -123h-459q0 69 11.5 127.5t37.5 116t73.5 101.5t115.5 78t167 52t224 18q567 0 567 -385q0 -60 -8 -105
t-29.5 -93.5t-65 -91t-110.5 -79.5q-91 -49 -130.5 -93t-39.5 -111v-4h-455zM401 207q0 95 65.5 160t162.5 65q95 0 160 -65t65 -160q0 -97 -65 -162t-160 -65q-97 0 -162.5 65t-65.5 162z" />
    <glyph glyph-name="at" unicode="@" horiz-adv-x="2054" 
d="M525 167q-91 133 -54 345t174.5 345.5t317.5 133.5q173 0 231 -133l20 115h431l-132 -740h232q40 84 67 238q30 172 -1.5 322t-115 258.5t-219.5 170.5t-307 62q-172 0 -330 -62t-279 -170.5t-204.5 -258.5t-113.5 -322q-22 -140 -9.5 -262.5t65.5 -224t134 -174
t197 -112.5t254 -40q63 0 135 10l2 -166q-77 -14 -166 -14q-146 0 -279.5 43t-241.5 125.5t-181.5 202.5t-99 273.5t6.5 338.5q27 150 89 286t147.5 243t192.5 193.5t224.5 143t242 87t245.5 30.5q145 0 278.5 -43t241.5 -125.5t181.5 -202.5t99 -273.5t-5.5 -338.5
q-43 -232 -162 -420h-782l20 113q-103 -131 -276 -131q-180 0 -270 134zM1122 459l21 108q3 43 -25 61.5t-74 18.5q-52 0 -90 -38t-49 -97t13.5 -97t76.5 -38q105 0 127 82z" />
    <glyph glyph-name="A" unicode="A" horiz-adv-x="1724" 
d="M635 1434h455l614 -1434h-455l-86 221h-602l-86 -221h-455zM694 569h336l-168 435z" />
    <glyph glyph-name="B" unicode="B" horiz-adv-x="1439" 
d="M61 0v1434h734q74 0 140 -8.5t138.5 -34.5t124 -68t85.5 -115.5t34 -171.5q0 -185 -166 -284q69 -26 121.5 -64t89.5 -105.5t37 -152.5q0 -98 -33.5 -175t-86 -123.5t-123.5 -77.5t-139.5 -42.5t-139.5 -11.5h-816zM516 860h238q104 0 104 115t-104 115h-238v-230z
M516 344h299q62 0 93.5 35.5t31.5 93.5q0 59 -31 92t-94 33h-299v-254z" />
    <glyph glyph-name="C" unicode="C" horiz-adv-x="1591" 
d="M521 869q-21 -66 -21 -152t20.5 -152.5t52.5 -106.5t76 -65.5t87 -35t89 -9.5q111 0 191 73t80 179h454q0 -86 -28 -172.5t-88 -167t-143.5 -143t-204.5 -100t-261 -37.5q-165 0 -308 51.5t-249 145t-166.5 233t-60.5 307.5t60.5 307.5t166.5 233t249 145t308 51.5
q140 0 261 -37.5t204.5 -100t143.5 -143t88 -167t28 -172.5h-454q0 106 -79.5 178.5t-191.5 72.5q-46 0 -89 -9.5t-87 -35t-76 -65.5t-52 -106z" />
    <glyph glyph-name="D" unicode="D" horiz-adv-x="1562" 
d="M713 1434q176 0 323.5 -47.5t256 -137t169 -226t60.5 -306.5t-60.5 -306.5t-169 -226t-256 -137t-323.5 -47.5h-652v1434h652zM516 365h197q179 0 264.5 86t85.5 266t-85.5 266t-264.5 86h-197v-704z" />
    <glyph glyph-name="E" unicode="E" horiz-adv-x="1214" 
d="M61 1434h1113v-369h-658v-174h596v-348h-596v-174h658v-369h-1113v1434z" />
    <glyph glyph-name="F" unicode="F" horiz-adv-x="1173" 
d="M61 1434h1072v-369h-617v-188h555v-369h-555v-508h-455v1434z" />
    <glyph glyph-name="G" unicode="G" horiz-adv-x="1611" 
d="M500 717q0 -191 101 -290t288 -99q109 0 187.5 43.5t107.5 136.5h-371v307h758v-815h-373v98q-147 -118 -373 -118q-150 0 -291 52t-250.5 144.5t-176 233.5t-66.5 307t66.5 307t177.5 233.5t254 144.5t297 52q101 0 196.5 -22.5t173 -61t142.5 -90.5t109 -110.5
t68.5 -121t24.5 -122.5h-454q0 74 -77 116.5t-192 42.5q-327 0 -327 -368z" />
    <glyph glyph-name="H" unicode="H" horiz-adv-x="1665" 
d="M61 1434h455v-516h633v516h455v-1434h-455v549h-633v-549h-455v1434z" />
    <glyph glyph-name="I" unicode="I" horiz-adv-x="577" 
d="M61 1434h455v-1434h-455v1434z" />
    <glyph glyph-name="J" unicode="J" horiz-adv-x="1349" 
d="M834 1434h454v-861q0 -98 -21 -184.5t-68 -162t-117 -130t-173.5 -85.5t-232.5 -31q-132 0 -236.5 31.5t-175 86.5t-116.5 134t-66.5 170t-20.5 198h455q0 -42 3 -74.5t13 -67.5t27 -58t46.5 -37.5t70.5 -14.5q46 0 79 21t49 56.5t23 71.5t7 76v861z" />
    <glyph glyph-name="K" unicode="K" horiz-adv-x="1599" 
d="M61 1434h455v-594h94l353 594h544l-477 -740l549 -694h-569l-371 512h-123v-512h-455v1434z" />
    <glyph glyph-name="L" unicode="L" horiz-adv-x="1214" 
d="M61 1434h455v-1065h658v-369h-1113v1434z" />
    <glyph glyph-name="M" unicode="M" horiz-adv-x="1880" 
d="M61 1434h435l444 -947l444 947h435v-1434h-435v596l-284 -596h-320l-284 596v-596h-435v1434z" />
    <glyph glyph-name="N" unicode="N" horiz-adv-x="1644" 
d="M61 1434h455l612 -826v826h455v-1434h-455l-612 793v-793h-455v1434z" />
    <glyph glyph-name="O" unicode="O" horiz-adv-x="1697" 
d="M105 408q-64 140 -64 309t63.5 309.5t173.5 233.5t256.5 143.5t313.5 50.5q134 0 255.5 -32t222 -94.5t175 -150.5t115.5 -206t41 -254t-41 -254t-115.5 -206t-175 -150.5t-222 -94.5t-255.5 -32q-167 0 -313.5 50.5t-256.5 143.5t-173 234zM848 1085q-160 0 -254 -102
t-94 -266t94 -266.5t254 -102.5t255 102.5t95 266.5t-94.5 266t-255.5 102z" />
    <glyph glyph-name="P" unicode="P" horiz-adv-x="1378" 
d="M774 1434q43 0 88 -5t102 -19t107.5 -36.5t100 -61t85.5 -88t58 -122.5t22 -160t-22 -160t-58 -122.5t-85.5 -88t-100 -60.5t-107.5 -36t-102 -19t-88 -5h-258v-451h-455v1434h713zM516 795h217q71 0 108.5 37.5t37.5 109.5q0 71 -38 109.5t-108 38.5h-217v-295z" />
    <glyph glyph-name="Q" unicode="Q" horiz-adv-x="1697" 
d="M1249 -410l-331 392q-23 -2 -70 -2q-167 0 -313.5 50.5t-256.5 143.5t-173.5 233.5t-63.5 309.5t63.5 309.5t173.5 233.5t256.5 143.5t313.5 50.5q134 0 255.5 -32t222 -94.5t175 -150.5t115.5 -206t41 -254q0 -202 -87.5 -359t-242.5 -252l459 -516h-537zM848 1085
q-160 0 -254 -102t-94 -266t94 -266.5t254 -102.5t255 102.5t95 266.5t-94.5 266t-255.5 102z" />
    <glyph glyph-name="R" unicode="R" horiz-adv-x="1540" 
d="M836 1434q73 0 144 -12t149 -44.5t136 -83.5t96 -136.5t38 -194.5q0 -167 -79.5 -279t-207.5 -172l387 -512h-506l-329 451h-148v-451h-455v1434h775zM516 795h279q145 0 145 147q0 148 -145 148h-279v-295z" />
    <glyph glyph-name="S" unicode="S" horiz-adv-x="1488" 
d="M500 494q0 -77 68.5 -121.5t176.5 -44.5q244 0 244 98q0 15 -4.5 26.5t-15.5 21t-24.5 16.5t-37 13.5t-46.5 11.5t-59.5 10.5t-69.5 10.5t-83 13t-94 16q-130 23 -219.5 63t-140.5 96.5t-73 123t-22 153.5q0 105 52.5 192t140 143.5t200.5 87t236 30.5q138 0 250.5 -26
t189.5 -71.5t129.5 -108.5t76.5 -135t24 -152h-459q0 76 -53.5 110.5t-157.5 34.5q-71 0 -120.5 -24.5t-49.5 -63.5q0 -54 45.5 -72t276.5 -62q3 -1 4 -1q116 -22 179 -36.5t148 -46.5t128.5 -71.5t75.5 -106t32 -155.5q0 -106 -42 -194t-124.5 -154t-214 -102.5
t-301.5 -36.5q-149 0 -271.5 28.5t-205.5 77t-140 114.5t-82.5 139.5t-25.5 154.5h459z" />
    <glyph glyph-name="T" unicode="T" horiz-adv-x="1359" 
d="M41 1434h1278v-369h-412v-1065h-454v1065h-412v369z" />
    <glyph glyph-name="U" unicode="U" horiz-adv-x="1513" 
d="M997 1434h455v-840q0 -315 -171 -464.5t-523 -149.5q-351 0 -524 150t-173 464v840h455v-840q0 -131 55.5 -188.5t186.5 -57.5t185 57t54 189v840z" />
    <glyph glyph-name="V" unicode="V" horiz-adv-x="1765" 
d="M655 0l-614 1434h496l346 -932l346 932h495l-614 -1434h-455z" />
    <glyph glyph-name="W" unicode="W" horiz-adv-x="2277" 
d="M471 0l-430 1434h434l225 -875l222 875h413l221 -875l226 875h454l-450 -1434h-475l-183 709l-182 -709h-475z" />
    <glyph glyph-name="X" unicode="X" horiz-adv-x="1839" 
d="M41 0l604 745l-530 689h551l266 -392l246 392h551l-494 -689l563 -745h-551l-313 475l-340 -475h-553z" />
    <glyph glyph-name="Y" unicode="Y" horiz-adv-x="1724" 
d="M635 430l-594 1004h524l297 -609l297 609h524l-593 -1004v-430h-455v430z" />
    <glyph glyph-name="Z" unicode="Z" horiz-adv-x="1306" 
d="M1212 1434v-361l-573 -704h627v-369h-1225v360l573 705h-557v369h1155z" />
    <glyph glyph-name="bracketleft" unicode="[" horiz-adv-x="763" 
d="M61 1434h662v-369h-289v-1106h289v-369h-662v1844z" />
    <glyph glyph-name="backslash" unicode="\" horiz-adv-x="894" 
d="M854 0h-362l-451 1434h362z" />
    <glyph glyph-name="bracketright" unicode="]" horiz-adv-x="763" 
d="M702 1434v-1844h-661v369h289v1106h-289v369h661z" />
    <glyph glyph-name="asciicircum" unicode="^" horiz-adv-x="1175" 
d="M61 815l381 619h291l381 -619h-344l-182 344l-182 -344h-345z" />
    <glyph glyph-name="underscore" unicode="_" horiz-adv-x="819" 
d="M61 369h697v-287h-697v287z" />
    <glyph glyph-name="grave" unicode="`" horiz-adv-x="514" 
d="M453 1114h-224l-168 361h269z" />
    <glyph glyph-name="a" unicode="a" horiz-adv-x="1169" 
d="M162 1024h454q126 0 212 -27.5t133 -82t66.5 -124t19.5 -165.5v-144q0 -67 24.5 -91.5t85.5 -24.5h12v-365h-278q-102 0 -147 35t-58 110q-64 -165 -276 -165q-180 0 -274.5 78t-94.5 227q0 79 23 137.5t76 102.5t146.5 66.5t227.5 22.5h123q0 39 -17 52.5t-73 13.5h-385
v344zM637 455h-102q-37 0 -58.5 -21.5t-21.5 -62.5q0 -48 21.5 -68t62.5 -20q10 0 24 4t32 13.5t30 30t12 48.5v76z" />
    <glyph glyph-name="b" unicode="b" horiz-adv-x="1292" 
d="M1145 897q127 -148 127 -385t-127 -384.5t-340 -147.5q-207 0 -313 147v-127h-451v1434h451v-537q106 147 313 147q213 0 340 -147zM492 461q0 -45 48 -81t113 -36q69 0 116.5 44.5t47.5 123.5t-47.5 123.5t-116.5 44.5q-65 0 -113 -36t-48 -81v-102z" />
    <glyph glyph-name="c" unicode="c" 
d="M494 636q-39 -44 -39 -124t39 -124t112 -44q57 0 95 32t38 83h430q0 -70 -17.5 -135t-59 -128.5t-103 -110.5t-158.5 -76t-217 -29q-282 0 -438 140.5t-156 391.5t156 391.5t438 140.5q120 0 217 -29t158.5 -76t103 -110.5t59 -128.5t17.5 -135h-430q0 51 -38 83t-95 32
q-73 0 -112 -44z" />
    <glyph glyph-name="d" unicode="d" horiz-adv-x="1292" 
d="M147 128q-127 147 -127 384t127 384.5t340 147.5q208 0 314 -147v537h450v-1434h-450v127q-106 -147 -314 -147q-213 0 -340 148zM639 344q65 0 113.5 36t48.5 81v102q0 45 -48.5 81t-113.5 36q-69 0 -116.5 -44.5t-47.5 -123.5t47.5 -123.5t116.5 -44.5z" />
    <glyph glyph-name="e" unicode="e" 
d="M461 432q12 -79 47.5 -104t93.5 -25q137 0 137 74h430q-16 -87 -55.5 -156t-107.5 -124.5t-175.5 -86t-248.5 -30.5q-253 0 -407.5 142.5t-154.5 389.5t154.5 389.5t407.5 142.5q297 0 442 -139t145 -389v-84h-708zM733 592q-21 129 -131 129q-119 0 -141 -129h272z" />
    <glyph glyph-name="f" unicode="f" horiz-adv-x="782" 
d="M760 1139h-105q-50 0 -70 -13t-20 -63v-39h197v-365h-197v-659h-450v659h-95v365h95v113q0 158 92.5 237.5t263.5 79.5h289v-315z" />
    <glyph glyph-name="g" unicode="g" horiz-adv-x="1292" 
d="M190 -106h480q72 0 101.5 31t29.5 106v96q-106 -147 -314 -147q-213 0 -340 147.5t-127 384.5t127 384.5t340 147.5q208 0 314 -147v127h450v-932q0 -261 -127 -381.5t-413 -120.5h-521v304zM639 344q65 0 113.5 36t48.5 81v102q0 45 -48.5 81t-113.5 36
q-69 0 -116.5 -44.5t-47.5 -123.5t47.5 -123.5t116.5 -44.5z" />
    <glyph glyph-name="h" unicode="h" horiz-adv-x="1230" 
d="M41 1434h451v-566q115 176 344 176q174 0 264 -106.5t90 -292.5v-645h-451v522q0 80 -27 119t-96 39q-124 0 -124 -158v-522h-451v1434z" />
    <glyph glyph-name="i" unicode="i" horiz-adv-x="532" 
d="M27 1298q0 99 70.5 168.5t174.5 69.5q98 0 168 -70t70 -168q0 -104 -69.5 -174.5t-168.5 -70.5q-104 0 -174.5 70.5t-70.5 174.5zM41 1024h451v-1024h-451v1024z" />
    <glyph glyph-name="j" unicode="j" horiz-adv-x="532" 
d="M20 1298q0 99 71 168.5t175 69.5q98 0 168 -70t70 -168q0 -104 -69.5 -174.5t-168.5 -70.5q-104 0 -175 70.5t-71 174.5zM-154 -86h105q46 0 68 22t22 74v1014h451v-1116q0 -158 -93 -238t-264 -80h-289v324z" />
    <glyph glyph-name="k" unicode="k" horiz-adv-x="1290" 
d="M41 1434h451v-740h38l158 330h520l-270 -481l332 -543h-533l-192 371h-53v-371h-451v1434z" />
    <glyph glyph-name="l" unicode="l" horiz-adv-x="614" 
d="M614 365v-365h-278q-151 0 -223 74.5t-72 222.5v1137h451v-953q0 -67 24 -91.5t86 -24.5h12z" />
    <glyph glyph-name="m" unicode="m" horiz-adv-x="1806" 
d="M41 1024h451v-141q105 161 303 161q114 0 191.5 -55.5t113.5 -157.5q48 102 133 157.5t199 55.5q160 0 246.5 -107t86.5 -292v-645h-450v543q0 78 -18.5 107.5t-73.5 29.5q-48 0 -71.5 -28.5t-23.5 -108.5v-543h-450v543q0 78 -18.5 107.5t-73.5 29.5q-47 0 -70.5 -28
t-23.5 -109v-543h-451v1024z" />
    <glyph glyph-name="n" unicode="n" horiz-adv-x="1230" 
d="M41 1024h451v-156q115 176 344 176q174 0 264 -106.5t90 -292.5v-645h-451v522q0 80 -27 119t-96 39q-124 0 -124 -158v-522h-451v1024z" />
    <glyph glyph-name="o" unicode="o" horiz-adv-x="1253" 
d="M536 373q36 -29 91 -29t90.5 28.5t48 64t12.5 75.5t-12.5 75.5t-48 64t-90.5 28.5t-91 -28.5t-48.5 -64t-12.5 -75.5t12.5 -75.5t48.5 -63.5zM318 982q136 62 309 62t309.5 -62.5t216.5 -184.5t80 -285t-80 -285t-216.5 -184.5t-309.5 -62.5t-309.5 62.5t-217 184.5
t-80.5 285t80.5 285t217.5 185z" />
    <glyph glyph-name="p" unicode="p" horiz-adv-x="1292" 
d="M41 1024h451v-127q106 147 313 147q213 0 340 -147.5t127 -384.5t-127 -384.5t-340 -147.5q-207 0 -313 147v-537h-451v1434zM492 461q0 -45 48 -81t113 -36q69 0 116.5 44.5t47.5 123.5t-47.5 123.5t-116.5 44.5q-65 0 -113 -36t-48 -81v-102z" />
    <glyph glyph-name="q" unicode="q" horiz-adv-x="1292" 
d="M1251 1024v-1434h-450v537q-106 -147 -314 -147q-213 0 -340 147.5t-127 384.5t127 384.5t340 147.5q208 0 314 -147v127h450zM639 344q65 0 113.5 36t48.5 81v102q0 45 -48.5 81t-113.5 36q-69 0 -116.5 -44.5t-47.5 -123.5t47.5 -123.5t116.5 -44.5z" />
    <glyph glyph-name="r" unicode="r" horiz-adv-x="890" 
d="M41 1024h451v-156q55 81 131 128.5t147 47.5h100v-364h-264q-64 0 -89 -25.5t-25 -111.5v-543h-451v1024z" />
    <glyph glyph-name="s" unicode="s" horiz-adv-x="1155" 
d="M430 346q0 -47 43 -75.5t131 -28.5q101 0 101 43q0 27 -44.5 43t-187.5 43q-205 40 -317.5 118.5t-112.5 212.5q0 91 47 160t125 107t165.5 56.5t182.5 18.5q105 0 194 -23t148.5 -60t101.5 -85t61 -98.5t19 -99.5h-409q0 104 -117 104q-39 0 -63.5 -12.5t-24.5 -36.5
q0 -34 79 -57q46 -12 208 -41q50 -9 83 -16t76 -19.5t71 -27t58 -36.5t47.5 -49t28.5 -64.5t11 -82.5q0 -164 -150.5 -262t-402.5 -98q-116 0 -212 23t-159.5 60t-107.5 85.5t-63.5 98t-19.5 99.5h410z" />
    <glyph glyph-name="t" unicode="t" horiz-adv-x="813" 
d="M20 1024h107v246h451v-246h215v-365h-215v-239q0 -52 22 -74t68 -22h125v-324h-310q-171 0 -263.5 79.5t-92.5 237.5v342h-107v365z" />
    <glyph glyph-name="u" unicode="u" horiz-adv-x="1312" 
d="M1313 365v-365h-279q-230 0 -280 180q-115 -200 -359 -200q-174 0 -264 106.5t-90 292.5v645h451v-522q0 -80 26.5 -119t95.5 -39q125 0 125 158v522h451v-543q0 -67 24 -91.5t86 -24.5h13z" />
    <glyph glyph-name="v" unicode="v" horiz-adv-x="1394" 
d="M20 1024h453l225 -561l224 561h452l-471 -1024h-411z" />
    <glyph glyph-name="w" unicode="w" horiz-adv-x="1763" 
d="M20 1024h453l96 -485l127 485h371l127 -485l96 485h453l-307 -1024h-432l-121 508l-123 -508h-432z" />
    <glyph glyph-name="x" unicode="x" horiz-adv-x="1402" 
d="M20 0l388 535l-355 489h520l129 -211l127 211h521l-355 -489l387 -535h-524l-156 262l-157 -262h-525z" />
    <glyph glyph-name="y" unicode="y" horiz-adv-x="1292" 
d="M1272 1024l-418 -1044q-35 -87 -63 -142t-69 -102.5t-86.5 -72.5t-118 -43t-160 -24t-216.5 -6v369q190 0 215 4q37 5 50 29q2 3 4 8l10 25l-400 999h453l178 -557l168 557h453z" />
    <glyph glyph-name="z" unicode="z" horiz-adv-x="1019" 
d="M967 1024v-315l-336 -344h368v-365h-979v315l336 344h-319v365h930z" />
    <glyph glyph-name="braceleft" unicode="{" horiz-adv-x="911" 
d="M111 702q41 5 64 11t45.5 20.5t33 40.5t16.5 67.5t6 104.5q0 115 26.5 202t69.5 140.5t107 87t131 46t148 12.5h133v-385h-141q-60 0 -82.5 -51.5t-22.5 -192.5q0 -136 -60.5 -202.5t-170.5 -90.5q110 -24 170.5 -89.5t60.5 -201.5q0 -141 22.5 -192.5t82.5 -51.5h141
v-385h-133q-81 0 -148 12.5t-131 46t-107 87t-69.5 140.5t-26.5 202q0 63 -6 104.5t-16.5 67.5t-33 40.5t-45.5 20.5t-64 11l-50 6v366z" />
    <glyph glyph-name="bar" unicode="|" horiz-adv-x="485" 
d="M61 1434h363v-1844h-363v1844z" />
    <glyph glyph-name="braceright" unicode="}" horiz-adv-x="911" 
d="M801 702l49 -6v-366l-49 -6q-34 -4 -54.5 -8.5t-42 -14.5t-32.5 -26t-20.5 -42t-13 -63t-3.5 -90q0 -115 -26 -202t-69.5 -140.5t-107 -87t-130.5 -46t-148 -12.5h-134v385h142q60 0 82 51.5t22 192.5q0 136 61 202.5t171 90.5q-110 24 -171 89.5t-61 201.5
q0 141 -22 192.5t-82 51.5h-142v385h134q81 0 148 -12.5t130.5 -46t107 -87t69.5 -140.5t26 -202q0 -53 3.5 -90t13 -63t20.5 -42t32.5 -26t42 -14.5t54.5 -8.5z" />
    <glyph glyph-name="asciitilde" unicode="~" horiz-adv-x="1267" 
d="M80 862q79 205 204.5 248t360.5 -53q103 -42 141.5 -56t78 -17t52.5 13.5t31 57.5l21 47l237 -96l-18 -48q-79 -205 -204 -246.5t-359 54.5l-77.5 31t-60.5 22t-48.5 14.5t-35.5 5t-29 -3t-20.5 -13t-18.5 -21.5t-16 -33l-20 -49l-238 96z" />
    <glyph glyph-name="uni00A0" unicode="&#xa0;" horiz-adv-x="532" 
 />
    <glyph glyph-name="exclamdown" unicode="&#xa1;" horiz-adv-x="577" 
d="M63 815q0 98 66 163.5t164 65.5q94 0 158.5 -65.5t64.5 -163.5q0 -94 -64.5 -158.5t-158.5 -64.5q-98 0 -164 64.5t-66 158.5zM61 -410v506l41 432h373l41 -432v-506h-455z" />
    <glyph glyph-name="cent" unicode="&#xa2;" horiz-adv-x="1230" 
d="M515 636q-40 -44 -40 -124t39.5 -124t112.5 -44q57 0 95 32t38 83h430q0 -72 -20 -140.5t-61.5 -132.5t-115 -113t-170.5 -73v-410h-368v406q-198 41 -306 175t-108 341t108 341t306 175v406h368v-410q97 -24 170.5 -73t115 -113t61.5 -132.5t20 -140.5h-430q0 51 -38 83
t-95 32q-73 0 -112 -44z" />
    <glyph glyph-name="sterling" unicode="&#xa3;" horiz-adv-x="1339" 
d="M205 1012q0 219 136.5 330.5t377.5 111.5q139 0 245 -33t168 -83.5t101 -121.5t52 -137t13 -139h-458q0 79 -19.5 112t-68.5 33q-45 0 -66.5 -27.5t-21.5 -88.5v-113h510v-369h-510v-118h634v-369h-1093v487h-164v369h164v156z" />
    <glyph glyph-name="currency" unicode="&#xa4;" horiz-adv-x="1247" 
d="M1184 1135l-238 -238q46 -83 46 -179t-44 -179l238 -238l-146 -145l-237 237q-83 -46 -179.5 -46t-181.5 46l-235 -235l-146 143l238 238q-44 83 -44 178t46 178l-238 238l146 145l237 -238q83 44 178 44t177 -44l237 240zM502 614l22 -20q46 -38 107 -35.5t104 45.5
q46 46 46 111.5t-46 111.5t-111.5 46t-111.5 -46q-43 -43 -45.5 -105t35.5 -108z" />
    <glyph glyph-name="yen" unicode="&#xa5;" horiz-adv-x="1724" 
d="M309 612h217l-485 822h524l297 -609l297 609h524l-485 -822h217v-204h-325v-82h325v-205h-325v-121h-455v121h-326v205h326v82h-326v204z" />
    <glyph glyph-name="brokenbar" unicode="&#xa6;" horiz-adv-x="485" 
d="M61 1434h363v-719h-363v719zM61 309h363v-719h-363v719z" />
    <glyph glyph-name="section" unicode="&#xa7;" horiz-adv-x="1591" 
d="M500 2q0 -77 68.5 -121.5t176.5 -44.5q244 0 244 98q0 15 -4.5 26.5t-16 21t-24.5 16.5t-36.5 14t-46.5 11.5t-59.5 10.5t-69 11t-83 13t-94.5 16q-130 23 -219.5 63t-140.5 96.5t-73 123t-22 153.5q0 173 142 295q-39 77 -39 196q0 105 52 192t140 143.5t200.5 87
t235.5 30.5q138 0 250.5 -26t189.5 -71.5t129.5 -108.5t76.5 -135t24 -152h-459q0 76 -53.5 110.5t-157.5 34.5q-71 0 -120 -24.5t-49 -63.5q0 -24 4 -37t23.5 -26t51 -21t96 -21.5t148.5 -29.5h2q116 -22 179 -36.5t148 -46.5t128.5 -71.5t75.5 -106t32 -155.5
q0 -199 -137 -324q35 -68 35 -168q0 -106 -42 -194t-124.5 -154t-214 -102.5t-301.5 -36.5q-149 0 -271.5 28.5t-205.5 77t-140 114.5t-82.5 139.5t-25.5 154.5h459zM590 580q-31 -22 -31 -54q0 -54 45.5 -72t276.5 -62q3 -1 4 -1q83 -15 159 -33q48 23 48 68q0 19 -7.5 33
t-27 25t-40.5 18t-62.5 14.5t-78 13t-101 16t-118.5 19.5q-13 2 -36 7.5t-31 7.5z" />
    <glyph glyph-name="dieresis" unicode="&#xa8;" horiz-adv-x="952" 
d="M63 1296q0 74 52.5 125.5t128.5 51.5q73 0 124.5 -51.5t51.5 -125.5q0 -76 -51 -128t-125 -52q-77 0 -129 52t-52 128zM535 1296q0 74 52 125.5t128 51.5q73 0 124.5 -51.5t51.5 -125.5q0 -76 -51 -128t-125 -52q-77 0 -128.5 52t-51.5 128z" />
    <glyph glyph-name="copyright" unicode="&#xa9;" horiz-adv-x="1599" 
d="M122 431q-59 136 -59 286t58.5 286t157 235t235.5 157.5t287 58.5q200 0 369.5 -99t268.5 -268.5t99 -369.5t-99 -369.5t-268.5 -268.5t-369.5 -99q-150 0 -287 58.5t-235.5 157.5t-156.5 235zM220 962q-50 -117 -50 -245t50 -245t134.5 -201.5t201.5 -134.5t245 -50
q170 0 315.5 84.5t230.5 230t85 316.5t-85 316.5t-230.5 230t-315.5 84.5q-128 0 -245 -50t-201.5 -134.5t-134.5 -201.5zM698 856q-47 -41 -47 -139t47 -139t113 -41q55 0 93 35t38 87h223q0 -53 -22.5 -105.5t-64.5 -97t-112 -72.5t-155 -28q-167 0 -276 98.5t-109 262.5
t109 262t276 98q85 0 155 -28t112 -72.5t64.5 -97t22.5 -105.5h-223q0 52 -38.5 87.5t-92.5 35.5q-66 0 -113 -41z" />
    <glyph glyph-name="ordfeminine" unicode="&#xaa;" horiz-adv-x="688" 
d="M123 1454h227q121 0 168 -54.5t47 -154.5v-71q0 -34 13 -47t43 -13h6v-182h-140q-54 0 -76.5 21t-27.5 67q-21 -98 -135 -98q-91 0 -138 39t-47 114q0 80 53 122t183 42h61q0 23 -9 33t-36 10h-192v172zM360 1159h-51q-39 0 -39 -41q0 -45 41 -45q8 0 17.5 3t20.5 15
t11 31v37z" />
    <glyph glyph-name="guillemotleft" unicode="&#xab;" horiz-adv-x="1234" 
d="M61 512l281 492h360l-284 -492l284 -492h-360zM532 512l281 492h361l-285 -492l285 -492h-361z" />
    <glyph glyph-name="logicalnot" unicode="&#xac;" horiz-adv-x="899" 
d="M61 983h777v-553h-363v191h-414v362z" />
    <glyph glyph-name="uni00AD" unicode="&#xad;" horiz-adv-x="819" 
d="M61 655h697v-286h-697v286z" />
    <glyph glyph-name="registered" unicode="&#xae;" horiz-adv-x="1599" 
d="M122 431q-59 136 -59 286t58.5 286t157 235t235.5 157.5t287 58.5q200 0 369.5 -99t268.5 -268.5t99 -369.5q0 -201 -99 -370.5t-268.5 -268t-369.5 -98.5q-150 0 -287 58t-235.5 157t-156.5 236zM170 717q0 -128 50 -245t134.5 -201.5t201.5 -134.5t245 -50t245 50
t201.5 134.5t134.5 201.5t50 245q0 170 -84.5 315.5t-230 230.5t-316.5 85t-316.5 -85t-230 -230.5t-84.5 -315.5zM889 1067q46 0 90 -10.5t88 -34t71 -71t27 -113.5q0 -82 -39 -137.5t-102 -84.5l190 -251h-247l-162 221h-72v-221h-223v702h379zM733 754h135q72 0 72 73
q0 72 -72 72h-135v-145z" />
    <glyph glyph-name="macron" unicode="&#xaf;" horiz-adv-x="737" 
d="M61 1372h615v-205h-615v205z" />
    <glyph glyph-name="degree" unicode="&#xb0;" horiz-adv-x="690" 
d="M146 998q-83 83 -83 200t83 200t200 83t200 -83t83 -200t-83 -200t-200 -83t-200 83zM222 1322q-52 -52 -52 -124t52 -124t124 -52t124 52t52 124t-52 124t-124 52t-124 -52z" />
    <glyph glyph-name="plusminus" unicode="&#xb1;" horiz-adv-x="819" 
d="M61 819h205v205h287v-205h205v-287h-205v-204h-287v204h-205v287zM61 287h697v-287h-697v287z" />
    <glyph glyph-name="twosuperior" unicode="&#xb2;" horiz-adv-x="849" 
d="M96 803l320 268q65 54 65 105q0 69 -67 69q-45 0 -60.5 -33t-15.5 -104h-275q0 51 9 97t34 92.5t63 80.5t101 55t144 21q51 0 97 -8t92 -28.5t79 -52.5t53.5 -84t20.5 -118q0 -149 -215 -305l-76 -55h321v-221h-690v221z" />
    <glyph glyph-name="threesuperior" unicode="&#xb3;" horiz-adv-x="843" 
d="M313 928v170h93q63 0 63 78q0 69 -61 69q-29 0 -43.5 -19.5t-14.5 -80.5h-274q0 135 85.5 222t246.5 87q139 0 231 -65t92 -181q0 -122 -104 -186q153 -57 153 -197q0 -116 -96.5 -185t-249.5 -69q-177 0 -274 89t-97 208h275q0 -42 23 -65t63 -23q42 0 62 23.5t20 58.5
q0 66 -64 66h-129z" />
    <glyph glyph-name="acute" unicode="&#xb4;" horiz-adv-x="505" 
d="M61 1114l115 361h268l-159 -361h-224z" />
    <glyph glyph-name="paragraph" unicode="&#xb6;" horiz-adv-x="1767" 
d="M604 1434h1102v-1844h-414v1500h-149v-1500h-414v779h-125q-43 0 -88 5t-102 20t-107.5 38.5t-100.5 65t-85.5 95.5t-57.5 133t-22 175t22 175t57.5 133t85.5 95.5t100.5 65.5t107.5 39t102 20t88 5zM729 713v377h-125q-61 0 -103 -47t-42 -142q0 -96 41.5 -142
t103.5 -46h125z" />
    <glyph glyph-name="periodcentered" unicode="&#xb7;" horiz-adv-x="606" 
d="M61 512q0 99 70.5 168.5t175.5 69.5q98 0 168 -70t70 -168q0 -105 -69.5 -175.5t-168.5 -70.5q-106 0 -176 70t-70 176z" />
    <glyph glyph-name="cedilla" unicode="&#xb8;" horiz-adv-x="585" 
d="M61 -487v184q110 -31 173 -20t63 61q0 38 -24.5 47.5t-108.5 9.5h-21l47 217h164l-32 -102q99 -11 150.5 -53t51.5 -127q0 -66 -31 -114.5t-79.5 -73.5t-111 -36.5t-123.5 -8.5t-118 16z" />
    <glyph glyph-name="onesuperior" unicode="&#xb9;" horiz-adv-x="663" 
d="M410 1434h192v-861h-272v603l-189 -89l-80 187z" />
    <glyph glyph-name="ordmasculine" unicode="&#xba;" horiz-adv-x="729" 
d="M365 1112q40 0 57.5 25.5t17.5 58.5t-17.5 58.5t-57.5 25.5q-39 0 -57.5 -26t-18.5 -58t18.5 -58t57.5 -26zM147 1391q85 71 218 71t218 -71.5t85 -194.5q0 -122 -85.5 -194t-217.5 -72t-218 72t-86 194q0 123 86 195z" />
    <glyph glyph-name="guillemotright" unicode="&#xbb;" horiz-adv-x="1234" 
d="M1174 512l-281 -492h-361l285 492l-285 492h361zM702 512l-280 -492h-361l285 492l-285 492h361z" />
    <glyph glyph-name="onequarter" unicode="&#xbc;" horiz-adv-x="1861" 
d="M477 0l574 1434h280l-573 -1434h-281zM389 1434h193v-861h-273v603l-188 -89l-80 187zM1448 860h272v-467h99v-184h-99v-209h-272v209h-412v166zM1282 393h166v199z" />
    <glyph glyph-name="onehalf" unicode="&#xbd;" horiz-adv-x="1892" 
d="M477 0l574 1434h280l-573 -1434h-281zM389 1434h193v-861h-273v603l-188 -89l-80 187zM1159 221l320 268q65 54 65 105q0 70 -67 70q-45 0 -60.5 -33t-15.5 -105h-275q0 51 9 97t34 92.5t63 80.5t101 55t144 21q51 0 97 -8t92 -28.5t79 -52.5t53.5 -83.5t20.5 -117.5
q0 -150 -215 -306l-76 -55h321v-221h-690v221z" />
    <glyph glyph-name="threequarters" unicode="&#xbe;" horiz-adv-x="1955" 
d="M293 928v170h92q64 0 64 78q0 69 -62 69q-29 0 -43 -19.5t-14 -80.5h-275q0 135 85.5 222t246.5 87q140 0 232 -65t92 -181q0 -121 -105 -186q154 -58 154 -197q0 -116 -96.5 -185t-249.5 -69q-177 0 -274 89t-97 208h274q0 -42 23 -65t63 -23q42 0 62 23.5t20 58.5
q0 66 -63 66h-129zM571 0l574 1434h280l-573 -1434h-281zM1542 862h273v-469h98v-184h-98v-209h-273v209h-412v166zM1376 393h166v199z" />
    <glyph glyph-name="questiondown" unicode="&#xbf;" horiz-adv-x="1277" 
d="M877 838q0 -95 -65.5 -160.5t-162.5 -65.5q-95 0 -160 65.5t-65 160.5q0 97 65 162t160 65q97 0 162.5 -65t65.5 -162zM879 553v-25q0 -99 -8.5 -158t-34.5 -102.5t-60.5 -69t-101.5 -59.5q-106 -54 -137 -81q-37 -33 -37 -68q0 -38 30 -55t95 -17q153 0 153 166h459
q0 -84 -16 -152.5t-58.5 -134t-111.5 -109.5t-181.5 -71t-261.5 -27q-567 0 -567 385q0 60 8 105t29.5 93.5t65 91t110.5 79.5q170 92 170 205v4h455z" />
    <glyph glyph-name="Agrave" unicode="&#xc0;" horiz-adv-x="1724" 
d="M977 1524h-223l-168 360h268zM635 1434h455l614 -1434h-455l-86 221h-602l-86 -221h-455zM694 569h336l-168 435z" />
    <glyph glyph-name="Aacute" unicode="&#xc1;" horiz-adv-x="1724" 
d="M758 1524l114 360h269l-160 -360h-223zM635 1434h455l614 -1434h-455l-86 221h-602l-86 -221h-455zM694 569h336l-168 435z" />
    <glyph glyph-name="Acircumflex" unicode="&#xc2;" horiz-adv-x="1724" 
d="M475 1524l268 360h238l268 -360h-278l-109 176l-108 -176h-279zM635 1434h455l614 -1434h-455l-86 221h-602l-86 -221h-455zM694 569h336l-168 435z" />
    <glyph glyph-name="Atilde" unicode="&#xc3;" horiz-adv-x="1724" 
d="M856 1567q-40 18 -59.5 26t-47 18t-40 9.5t-29 -3t-26 -14.5t-19.5 -29.5t-19 -45.5l-196 67q32 90 71.5 145.5t93 82.5t123.5 19.5t160 -48.5q43 -20 67 -30t52 -18t43 -6t31 11.5t26 29.5t19 52l199 -70q-45 -125 -108.5 -185t-147.5 -60t-193 49zM635 1434h455
l614 -1434h-455l-86 221h-602l-86 -221h-455zM694 569h336l-168 435z" />
    <glyph glyph-name="Adieresis" unicode="&#xc4;" horiz-adv-x="1724" 
d="M451 1706q0 74 52 125t128 51q73 0 124.5 -51t51.5 -125q0 -76 -51 -128t-125 -52q-77 0 -128.5 52t-51.5 128zM922 1706q0 74 52 125t128 51q74 0 125 -51t51 -125q0 -76 -51 -128t-125 -52q-76 0 -128 52t-52 128zM635 1434h455l614 -1434h-455l-86 221h-602l-86 -221
h-455zM694 569h336l-168 435z" />
    <glyph glyph-name="Aring" unicode="&#xc5;" horiz-adv-x="1724" 
d="M640 1588q-93 93 -93 222t93 222.5t222 93.5t222.5 -93.5t93.5 -222.5t-93.5 -222t-222.5 -93t-222 93zM773 1900q-40 -39 -40 -90t39.5 -90t89.5 -39q51 0 90 39t39 90t-39 90t-90 39q-50 0 -89 -39zM635 1434h455l614 -1434h-455l-86 221h-602l-86 -221h-455zM694 569
h336l-168 435z" />
    <glyph glyph-name="AE" unicode="&#xc6;" horiz-adv-x="2283" 
d="M635 1434h1608v-369h-658v-174h596v-348h-596v-174h658v-369h-1113v221h-569l-86 -221h-455zM694 569h436v496h-243z" />
    <glyph glyph-name="Ccedilla" unicode="&#xc7;" horiz-adv-x="1591" 
d="M521 869q-21 -66 -21 -152t20.5 -152.5t52.5 -106.5t76 -65.5t87 -35t89 -9.5q111 0 191 73t80 179h454q0 -84 -27 -169.5t-85 -165.5t-139 -142t-198 -101t-253 -42l-23 -70q100 -11 151.5 -53t51.5 -127q0 -66 -31 -114.5t-79.5 -73.5t-111 -36.5t-123.5 -8.5t-118 16
v184q110 -31 173 -20t63 61q0 38 -24.5 47.5t-108.5 9.5h-21l43 195q-140 19 -258.5 78t-205.5 151t-136 220t-49 278q0 168 60.5 307.5t166.5 233t249 145t308 51.5q140 0 261 -37.5t204.5 -100t143.5 -143t88 -167t28 -172.5h-454q0 106 -79.5 178.5t-191.5 72.5
q-46 0 -89 -9.5t-87 -35t-76 -65.5t-52 -106z" />
    <glyph glyph-name="Egrave" unicode="&#xc8;" horiz-adv-x="1214" 
d="M762 1524h-223l-168 360h268zM61 1434h1113v-369h-658v-174h596v-348h-596v-174h658v-369h-1113v1434z" />
    <glyph glyph-name="Eacute" unicode="&#xc9;" horiz-adv-x="1214" 
d="M498 1524l114 360h269l-160 -360h-223zM61 1434h1113v-369h-658v-174h596v-348h-596v-174h658v-369h-1113v1434z" />
    <glyph glyph-name="Ecircumflex" unicode="&#xca;" horiz-adv-x="1214" 
d="M242 1524l268 360h238l268 -360h-279l-108 176l-109 -176h-278zM61 1434h1113v-369h-658v-174h596v-348h-596v-174h658v-369h-1113v1434z" />
    <glyph glyph-name="Edieresis" unicode="&#xcb;" horiz-adv-x="1214" 
d="M215 1706q0 74 52 125t128 51q73 0 124.5 -51t51.5 -125q0 -76 -51 -128t-125 -52q-77 0 -128.5 52t-51.5 128zM686 1706q0 74 52 125t128 51q74 0 125 -51t51 -125q0 -76 -51 -128t-125 -52q-76 0 -128 52t-52 128zM61 1434h1113v-369h-658v-174h596v-348h-596v-174h658
v-369h-1113v1434z" />
    <glyph glyph-name="Igrave" unicode="&#xcc;" horiz-adv-x="577" 
d="M401 1524h-223l-168 360h269zM61 1434h455v-1434h-455v1434z" />
    <glyph glyph-name="Iacute" unicode="&#xcd;" horiz-adv-x="577" 
d="M180 1524l115 360h268l-160 -360h-223zM61 1434h455v-1434h-455v1434z" />
    <glyph glyph-name="Icircumflex" unicode="&#xce;" horiz-adv-x="577" 
d="M-98 1524l268 360h238l268 -360h-279l-108 176l-109 -176h-278zM61 1434h455v-1434h-455v1434z" />
    <glyph glyph-name="Idieresis" unicode="&#xcf;" horiz-adv-x="577" 
d="M-125 1706q0 74 52 125t128 51q73 0 124.5 -51t51.5 -125q0 -76 -51 -128t-125 -52q-77 0 -128.5 52t-51.5 128zM346 1706q0 74 52 125t128 51q74 0 125 -51t51 -125q0 -76 -51 -128t-125 -52q-76 0 -128 52t-52 128zM61 1434h455v-1434h-455v1434z" />
    <glyph glyph-name="Eth" unicode="&#xd0;" horiz-adv-x="1562" 
d="M-61 860h122v574h652q176 0 323.5 -47.5t256 -137t169 -226t60.5 -306.5t-60.5 -306.5t-169 -226t-256 -137t-323.5 -47.5h-652v573h-122v287zM516 365h197q179 0 264.5 86t85.5 266t-85.5 266t-264.5 86h-197v-209h221v-287h-221v-208z" />
    <glyph glyph-name="Ntilde" unicode="&#xd1;" horiz-adv-x="1644" 
d="M817 1567q-32 14 -47.5 21t-39 16t-34.5 11.5t-27.5 5t-24.5 -1.5l-19 -9.5t-18 -17.5t-14.5 -27.5t-14.5 -36.5l-197 67q32 90 71.5 145.5t93 82.5t123.5 19.5t160 -48.5q43 -20 67 -30t52 -18t43 -6t31 11.5t26 29.5t19 52l199 -70q-45 -125 -108.5 -185t-147.5 -60
t-193 49zM61 1434h455l612 -826v826h455v-1434h-455l-612 793v-793h-455v1434z" />
    <glyph glyph-name="Ograve" unicode="&#xd2;" horiz-adv-x="1697" 
d="M963 1524h-224l-168 360h269zM105 408q-64 140 -64 309t63.5 309.5t173.5 233.5t256.5 143.5t313.5 50.5q134 0 255.5 -32t222 -94.5t175 -150.5t115.5 -206t41 -254t-41 -254t-115.5 -206t-175 -150.5t-222 -94.5t-255.5 -32q-167 0 -313.5 50.5t-256.5 143.5t-173 234z
M848 1085q-160 0 -254 -102t-94 -266t94 -266.5t254 -102.5t255 102.5t95 266.5t-94.5 266t-255.5 102z" />
    <glyph glyph-name="Oacute" unicode="&#xd3;" horiz-adv-x="1697" 
d="M739 1524l115 360h268l-159 -360h-224zM105 408q-64 140 -64 309t63.5 309.5t173.5 233.5t256.5 143.5t313.5 50.5q134 0 255.5 -32t222 -94.5t175 -150.5t115.5 -206t41 -254t-41 -254t-115.5 -206t-175 -150.5t-222 -94.5t-255.5 -32q-167 0 -313.5 50.5t-256.5 143.5
t-173 234zM848 1085q-160 0 -254 -102t-94 -266t94 -266.5t254 -102.5t255 102.5t95 266.5t-94.5 266t-255.5 102z" />
    <glyph glyph-name="Ocircumflex" unicode="&#xd4;" horiz-adv-x="1697" 
d="M463 1524l268 360h238l268 -360h-279l-108 176l-109 -176h-278zM105 408q-64 140 -64 309t63.5 309.5t173.5 233.5t256.5 143.5t313.5 50.5q134 0 255.5 -32t222 -94.5t175 -150.5t115.5 -206t41 -254t-41 -254t-115.5 -206t-175 -150.5t-222 -94.5t-255.5 -32
q-167 0 -313.5 50.5t-256.5 143.5t-173 234zM848 1085q-160 0 -254 -102t-94 -266t94 -266.5t254 -102.5t255 102.5t95 266.5t-94.5 266t-255.5 102z" />
    <glyph glyph-name="Otilde" unicode="&#xd5;" horiz-adv-x="1697" 
d="M844 1567q-40 18 -59.5 26t-47 18t-40 9.5t-29 -3t-26 -14.5t-19.5 -29.5t-19 -45.5l-196 67q32 90 71.5 145.5t93 82.5t123.5 19.5t160 -48.5q43 -20 67 -30t52 -18t43 -6t31 11.5t26 29.5t19 52l198 -70q-45 -125 -108 -184.5t-147.5 -60t-192.5 48.5zM105 408
q-64 140 -64 309t63.5 309.5t173.5 233.5t256.5 143.5t313.5 50.5q134 0 255.5 -32t222 -94.5t175 -150.5t115.5 -206t41 -254t-41 -254t-115.5 -206t-175 -150.5t-222 -94.5t-255.5 -32q-167 0 -313.5 50.5t-256.5 143.5t-173 234zM848 1085q-160 0 -254 -102t-94 -266
t94 -266.5t254 -102.5t255 102.5t95 266.5t-94.5 266t-255.5 102z" />
    <glyph glyph-name="Odieresis" unicode="&#xd6;" horiz-adv-x="1697" 
d="M436 1706q0 74 52 125t128 51q74 0 125.5 -51.5t51.5 -124.5q0 -76 -51.5 -128t-125.5 -52q-76 0 -128 52t-52 128zM907 1706q0 74 52 125t128 51q74 0 125.5 -51.5t51.5 -124.5q0 -76 -51.5 -128t-125.5 -52q-77 0 -128.5 52t-51.5 128zM105 408q-64 140 -64 309
t63.5 309.5t173.5 233.5t256.5 143.5t313.5 50.5q134 0 255.5 -32t222 -94.5t175 -150.5t115.5 -206t41 -254t-41 -254t-115.5 -206t-175 -150.5t-222 -94.5t-255.5 -32q-167 0 -313.5 50.5t-256.5 143.5t-173 234zM848 1085q-160 0 -254 -102t-94 -266t94 -266.5
t254 -102.5t255 102.5t95 266.5t-94.5 266t-255.5 102z" />
    <glyph glyph-name="multiply" unicode="&#xd7;" horiz-adv-x="819" 
d="M61 344l146 145l-146 144l203 203l146 -144l143 144l203 -203l-144 -144l144 -145l-203 -203l-143 146l-146 -146z" />
    <glyph glyph-name="Oslash" unicode="&#xd8;" horiz-adv-x="1697" 
d="M377 -205l84 264q-194 88 -307 257.5t-113 400.5q0 169 63.5 309.5t173.5 233.5t256.5 143.5t313.5 50.5q8 0 25.5 -1t25.5 -1l57 186h363l-82 -264q194 -88 307 -257t113 -400q0 -136 -41 -254t-115.5 -206t-175 -150.5t-222 -94.5t-255.5 -32q-8 0 -25.5 1t-25.5 1
l-58 -187h-362zM780 1079q-131 -22 -205.5 -119t-74.5 -243q0 -155 86 -258zM915 354q132 22 207.5 119.5t75.5 243.5q0 156 -88 258z" />
    <glyph glyph-name="Ugrave" unicode="&#xd9;" horiz-adv-x="1513" 
d="M870 1524h-223l-168 360h269zM997 1434h455v-840q0 -315 -171 -464.5t-523 -149.5q-351 0 -524 150t-173 464v840h455v-840q0 -131 55.5 -188.5t186.5 -57.5t185 57t54 189v840z" />
    <glyph glyph-name="Uacute" unicode="&#xda;" horiz-adv-x="1513" 
d="M647 1524l115 360h268l-160 -360h-223zM997 1434h455v-840q0 -315 -171 -464.5t-523 -149.5q-351 0 -524 150t-173 464v840h455v-840q0 -131 55.5 -188.5t186.5 -57.5t185 57t54 189v840z" />
    <glyph glyph-name="Ucircumflex" unicode="&#xdb;" horiz-adv-x="1513" 
d="M371 1524l268 360h238l268 -360h-279l-108 176l-109 -176h-278zM997 1434h455v-840q0 -315 -171 -464.5t-523 -149.5q-351 0 -524 150t-173 464v840h455v-840q0 -131 55.5 -188.5t186.5 -57.5t185 57t54 189v840z" />
    <glyph glyph-name="Udieresis" unicode="&#xdc;" horiz-adv-x="1513" 
d="M344 1706q0 74 52 125t128 51q74 0 125 -51t51 -125q0 -76 -51 -128t-125 -52q-76 0 -128 52t-52 128zM815 1706q0 74 52 125t128 51q73 0 124.5 -51t51.5 -125q0 -76 -51 -128t-125 -52q-77 0 -128.5 52t-51.5 128zM997 1434h455v-840q0 -315 -171 -464.5t-523 -149.5
q-351 0 -524 150t-173 464v840h455v-840q0 -131 55.5 -188.5t186.5 -57.5t185 57t54 189v840z" />
    <glyph glyph-name="Yacute" unicode="&#xdd;" horiz-adv-x="1724" 
d="M754 1524l114 360h269l-160 -360h-223zM635 430l-594 1004h524l297 -609l297 609h524l-593 -1004v-430h-455v430z" />
    <glyph glyph-name="Thorn" unicode="&#xde;" horiz-adv-x="1378" 
d="M774 1208q43 0 88 -5t102 -19t107.5 -36t100 -60.5t85.5 -88t58 -122.5t22 -160t-22 -160t-58 -122.5t-85.5 -88t-100 -61t-107.5 -36.5t-102 -19t-88 -5h-258v-225h-455v1434h455v-226h258zM516 569h217q71 0 108.5 38t37.5 110q0 71 -38 109t-108 38h-217v-295z" />
    <glyph glyph-name="germandbls" unicode="&#xdf;" horiz-adv-x="1277" 
d="M41 940q0 253 150 383.5t419 130.5q250 0 408 -109t158 -305q0 -198 -175 -307q118 -43 187 -123.5t69 -201.5q0 -201 -166 -313.5t-489 -112.5v348q80 0 127 17t62.5 43t15.5 65q0 58 -30.5 90.5t-82.5 32.5h-92v282h31q112 0 112 119q0 127 -127 127q-25 0 -44.5 -6
t-39.5 -22t-31 -51t-11 -87v-940h-451v940z" />
    <glyph glyph-name="agrave" unicode="&#xe0;" horiz-adv-x="1169" 
d="M739 1114h-223l-168 361h268zM162 1024h454q126 0 212 -27.5t133 -82t66.5 -124t19.5 -165.5v-144q0 -67 24.5 -91.5t85.5 -24.5h12v-365h-278q-102 0 -147 35t-58 110q-64 -165 -276 -165q-180 0 -274.5 78t-94.5 227q0 79 23 137.5t76 102.5t146.5 66.5t227.5 22.5h123
q0 39 -17 52.5t-73 13.5h-385v344zM637 455h-102q-37 0 -58.5 -21.5t-21.5 -62.5q0 -48 21.5 -68t62.5 -20q10 0 24 4t32 13.5t30 30t12 48.5v76z" />
    <glyph glyph-name="aacute" unicode="&#xe1;" horiz-adv-x="1169" 
d="M455 1114l114 361h269l-160 -361h-223zM162 1024h454q126 0 212 -27.5t133 -82t66.5 -124t19.5 -165.5v-144q0 -67 24.5 -91.5t85.5 -24.5h12v-365h-278q-102 0 -147 35t-58 110q-64 -165 -276 -165q-180 0 -274.5 78t-94.5 227q0 79 23 137.5t76 102.5t146.5 66.5
t227.5 22.5h123q0 39 -17 52.5t-73 13.5h-385v344zM637 455h-102q-37 0 -58.5 -21.5t-21.5 -62.5q0 -48 21.5 -68t62.5 -20q10 0 24 4t32 13.5t30 30t12 48.5v76z" />
    <glyph glyph-name="acircumflex" unicode="&#xe2;" horiz-adv-x="1169" 
d="M199 1114l268 361h238l268 -361h-279l-108 176l-109 -176h-278zM162 1024h454q126 0 212 -27.5t133 -82t66.5 -124t19.5 -165.5v-144q0 -67 24.5 -91.5t85.5 -24.5h12v-365h-278q-102 0 -147 35t-58 110q-64 -165 -276 -165q-180 0 -274.5 78t-94.5 227q0 79 23 137.5
t76 102.5t146.5 66.5t227.5 22.5h123q0 39 -17 52.5t-73 13.5h-385v344zM637 455h-102q-37 0 -58.5 -21.5t-21.5 -62.5q0 -48 21.5 -68t62.5 -20q10 0 24 4t32 13.5t30 30t12 48.5v76z" />
    <glyph glyph-name="atilde" unicode="&#xe3;" horiz-adv-x="1169" 
d="M580 1157q-40 18 -59.5 26t-47 18t-40 9.5t-29 -3t-26 -14.5t-19.5 -29.5t-19 -45.5l-197 68q32 90 71.5 145.5t93.5 82.5t124 19t160 -49q43 -20 66.5 -30t51.5 -18t43 -6t31 11.5t26 29.5t19 52l199 -69q-45 -125 -108 -185t-147.5 -60.5t-192.5 48.5zM162 1024h454
q126 0 212 -27.5t133 -82t66.5 -124t19.5 -165.5v-144q0 -67 24.5 -91.5t85.5 -24.5h12v-365h-278q-102 0 -147 35t-58 110q-64 -165 -276 -165q-180 0 -274.5 78t-94.5 227q0 79 23 137.5t76 102.5t146.5 66.5t227.5 22.5h123q0 39 -17 52.5t-73 13.5h-385v344zM637 455
h-102q-37 0 -58.5 -21.5t-21.5 -62.5q0 -48 21.5 -68t62.5 -20q10 0 24 4t32 13.5t30 30t12 48.5v76z" />
    <glyph glyph-name="adieresis" unicode="&#xe4;" horiz-adv-x="1169" 
d="M172 1296q0 74 52 125.5t128 51.5q73 0 124.5 -51.5t51.5 -125.5q0 -76 -51 -128t-125 -52q-76 0 -128 52t-52 128zM643 1296q0 74 52 125.5t128 51.5q73 0 124.5 -51.5t51.5 -125.5q0 -76 -51 -128t-125 -52q-77 0 -128.5 52t-51.5 128zM162 1024h454q126 0 212 -27.5
t133 -82t66.5 -124t19.5 -165.5v-144q0 -67 24.5 -91.5t85.5 -24.5h12v-365h-278q-102 0 -147 35t-58 110q-64 -165 -276 -165q-180 0 -274.5 78t-94.5 227q0 79 23 137.5t76 102.5t146.5 66.5t227.5 22.5h123q0 39 -17 52.5t-73 13.5h-385v344zM637 455h-102
q-37 0 -58.5 -21.5t-21.5 -62.5q0 -48 21.5 -68t62.5 -20q10 0 24 4t32 13.5t30 30t12 48.5v76z" />
    <glyph glyph-name="aring" unicode="&#xe5;" horiz-adv-x="1169" 
d="M364 1179q-94 93 -94 222t93.5 222t222.5 93t222 -93t93 -222t-93 -222.5t-222 -93.5t-222 94zM497 1491q-40 -39 -40 -90t39.5 -90t89.5 -39q51 0 90 39t39 90t-39 90t-90 39q-50 0 -89 -39zM162 1024h454q126 0 212 -27.5t133 -82t66.5 -124t19.5 -165.5v-144
q0 -67 24.5 -91.5t85.5 -24.5h12v-365h-278q-102 0 -147 35t-58 110q-64 -165 -276 -165q-180 0 -274.5 78t-94.5 227q0 79 23 137.5t76 102.5t146.5 66.5t227.5 22.5h123q0 39 -17 52.5t-73 13.5h-385v344zM637 455h-102q-37 0 -58.5 -21.5t-21.5 -62.5q0 -48 21.5 -68
t62.5 -20q10 0 24 4t32 13.5t30 30t12 48.5v76z" />
    <glyph glyph-name="ae" unicode="&#xe6;" horiz-adv-x="1785" 
d="M141 1024h455q175 0 270 -53q134 73 312 73q297 0 442 -139t145 -389v-84h-708q12 -79 47.5 -104t93.5 -25q137 0 137 74h430q-16 -87 -55.5 -156t-107.5 -124.5t-175.5 -86t-248.5 -30.5t-255.5 46t-187.5 134q-50 -83 -137 -131.5t-209 -48.5q-180 0 -274.5 78
t-94.5 227q0 79 23 137.5t76.5 102.5t147 66.5t227.5 22.5h122q0 39 -17 52.5t-73 13.5h-385v344zM1329 592q-21 129 -131 129q-119 0 -141 -129h272zM616 455h-102q-37 0 -58.5 -21.5t-21.5 -62.5q0 -48 21.5 -68t62.5 -20q10 0 24 4t32 13.5t30 30t12 48.5v76z" />
    <glyph glyph-name="ccedilla" unicode="&#xe7;" 
d="M494 636q-39 -44 -39 -124t39 -124t112 -44q57 0 95 32t38 83h430q0 -68 -16.5 -131.5t-55.5 -126t-97 -109.5t-149 -78t-204 -34l-22 -70q99 -11 150.5 -53t51.5 -127q0 -66 -30.5 -114.5t-79.5 -73.5t-111 -36.5t-123 -8.5t-118 16v184q110 -31 172.5 -20t62.5 61
q0 38 -24.5 47.5t-108.5 9.5h-21l41 193q-224 31 -345.5 167t-121.5 357q0 251 156 391.5t438 140.5q120 0 217 -29t158.5 -76t103 -110.5t59 -128.5t17.5 -135h-430q0 51 -38 83t-95 32q-73 0 -112 -44z" />
    <glyph glyph-name="egrave" unicode="&#xe8;" 
d="M709 1114h-224l-168 361h269zM461 432q12 -79 47.5 -104t93.5 -25q137 0 137 74h430q-16 -87 -55.5 -156t-107.5 -124.5t-175.5 -86t-248.5 -30.5q-253 0 -407.5 142.5t-154.5 389.5t154.5 389.5t407.5 142.5q297 0 442 -139t145 -389v-84h-708zM733 592
q-21 129 -131 129q-119 0 -141 -129h272z" />
    <glyph glyph-name="eacute" unicode="&#xe9;" 
d="M485 1114l115 361h268l-159 -361h-224zM461 432q12 -79 47.5 -104t93.5 -25q137 0 137 74h430q-16 -87 -55.5 -156t-107.5 -124.5t-175.5 -86t-248.5 -30.5q-253 0 -407.5 142.5t-154.5 389.5t154.5 389.5t407.5 142.5q297 0 442 -139t145 -389v-84h-708zM733 592
q-21 129 -131 129q-119 0 -141 -129h272z" />
    <glyph glyph-name="ecircumflex" unicode="&#xea;" 
d="M209 1114l268 361h238l268 -361h-278l-109 176l-109 -176h-278zM461 432q12 -79 47.5 -104t93.5 -25q137 0 137 74h430q-16 -87 -55.5 -156t-107.5 -124.5t-175.5 -86t-248.5 -30.5q-253 0 -407.5 142.5t-154.5 389.5t154.5 389.5t407.5 142.5q297 0 442 -139t145 -389
v-84h-708zM733 592q-21 129 -131 129q-119 0 -141 -129h272z" />
    <glyph glyph-name="edieresis" unicode="&#xeb;" 
d="M182 1296q0 74 52 125.5t128 51.5q74 0 125.5 -51.5t51.5 -125.5q0 -76 -51.5 -128t-125.5 -52q-76 0 -128 52t-52 128zM653 1296q0 74 52.5 125.5t128.5 51.5q73 0 124.5 -51.5t51.5 -125.5q0 -76 -51 -128t-125 -52q-77 0 -129 52t-52 128zM461 432q12 -79 47.5 -104
t93.5 -25q137 0 137 74h430q-16 -87 -55.5 -156t-107.5 -124.5t-175.5 -86t-248.5 -30.5q-253 0 -407.5 142.5t-154.5 389.5t154.5 389.5t407.5 142.5q297 0 442 -139t145 -389v-84h-708zM733 592q-21 129 -131 129q-119 0 -141 -129h272z" />
    <glyph glyph-name="igrave" unicode="&#xec;" horiz-adv-x="532" 
d="M379 1114h-223l-168 361h268zM41 1024h451v-1024h-451v1024z" />
    <glyph glyph-name="iacute" unicode="&#xed;" horiz-adv-x="532" 
d="M158 1114l114 361h269l-160 -361h-223zM41 1024h451v-1024h-451v1024z" />
    <glyph glyph-name="icircumflex" unicode="&#xee;" horiz-adv-x="532" 
d="M-121 1114l268 361h238l268 -361h-278l-109 176l-108 -176h-279zM41 1024h451v-1024h-451v1024z" />
    <glyph glyph-name="idieresis" unicode="&#xef;" horiz-adv-x="532" 
d="M-147 1296q0 74 52 125.5t128 51.5q73 0 124.5 -51.5t51.5 -125.5q0 -76 -51 -128t-125 -52q-77 0 -128.5 52t-51.5 128zM324 1296q0 74 52 125.5t128 51.5q73 0 124.5 -51.5t51.5 -125.5q0 -76 -51 -128t-125 -52q-76 0 -128 52t-52 128zM41 1024h451v-1024h-451v1024z
" />
    <glyph glyph-name="eth" unicode="&#xf0;" horiz-adv-x="1312" 
d="M698 1434l131 -185h363v-200h-221l229 -324q72 -112 72 -246q0 -148 -79 -262t-218.5 -175.5t-317.5 -61.5q-170 0 -310 61t-223 176t-83 262q0 182 122.5 311t319.5 171l-63 88h-338v200h190l-135 185h561zM657 324q68 0 114 42.5t46 112.5t-46 113t-114 43
q-69 0 -115 -43t-46 -113t46 -112.5t115 -42.5z" />
    <glyph glyph-name="ntilde" unicode="&#xf1;" horiz-adv-x="1230" 
d="M610 1157q-32 14 -47.5 21t-39 16t-34.5 11.5t-27.5 5t-24.5 -1.5l-19 -9.5t-18 -17.5t-14.5 -27.5t-14.5 -36.5l-197 68q32 90 71.5 145.5t93.5 82.5t124 19t160 -49q43 -20 66.5 -30t51.5 -18t43 -6t31 11.5t26 29.5t19 52l199 -69q-45 -125 -108.5 -185t-147.5 -60.5
t-193 48.5zM41 1024h451v-156q115 176 344 176q174 0 264 -106.5t90 -292.5v-645h-451v522q0 80 -27 119t-96 39q-124 0 -124 -158v-522h-451v1024z" />
    <glyph glyph-name="ograve" unicode="&#xf2;" horiz-adv-x="1253" 
d="M741 1114h-223l-168 361h268zM536 373q36 -29 91 -29t90.5 28.5t48 64t12.5 75.5t-12.5 75.5t-48 64t-90.5 28.5t-91 -28.5t-48.5 -64t-12.5 -75.5t12.5 -75.5t48.5 -63.5zM318 982q136 62 309 62t309.5 -62.5t216.5 -184.5t80 -285t-80 -285t-216.5 -184.5t-309.5 -62.5
t-309.5 62.5t-217 184.5t-80.5 285t80.5 285t217.5 185z" />
    <glyph glyph-name="oacute" unicode="&#xf3;" horiz-adv-x="1253" 
d="M518 1114l115 361h268l-160 -361h-223zM536 373q36 -29 91 -29t90.5 28.5t48 64t12.5 75.5t-12.5 75.5t-48 64t-90.5 28.5t-91 -28.5t-48.5 -64t-12.5 -75.5t12.5 -75.5t48.5 -63.5zM318 982q136 62 309 62t309.5 -62.5t216.5 -184.5t80 -285t-80 -285t-216.5 -184.5
t-309.5 -62.5t-309.5 62.5t-217 184.5t-80.5 285t80.5 285t217.5 185z" />
    <glyph glyph-name="ocircumflex" unicode="&#xf4;" horiz-adv-x="1253" 
d="M240 1114l268 361h237l269 -361h-279l-108 176l-109 -176h-278zM536 373q36 -29 91 -29t90.5 28.5t48 64t12.5 75.5t-12.5 75.5t-48 64t-90.5 28.5t-91 -28.5t-48.5 -64t-12.5 -75.5t12.5 -75.5t48.5 -63.5zM318 982q136 62 309 62t309.5 -62.5t216.5 -184.5t80 -285
t-80 -285t-216.5 -184.5t-309.5 -62.5t-309.5 62.5t-217 184.5t-80.5 285t80.5 285t217.5 185z" />
    <glyph glyph-name="otilde" unicode="&#xf5;" horiz-adv-x="1253" 
d="M621 1157q-40 18 -59.5 26t-47 18t-40 9.5t-29 -3t-26 -14.5t-19.5 -29.5t-19 -45.5l-197 68q32 90 71.5 145.5t93.5 82.5t124 19t160 -49q43 -20 66.5 -30t51.5 -18t43 -6t31 11.5t26 29.5t19 52l199 -69q-45 -125 -108 -185t-147.5 -60.5t-192.5 48.5zM536 373
q36 -29 91 -29t90.5 28.5t48 64t12.5 75.5t-12.5 75.5t-48 64t-90.5 28.5t-91 -28.5t-48.5 -64t-12.5 -75.5t12.5 -75.5t48.5 -63.5zM318 982q136 62 309 62t309.5 -62.5t216.5 -184.5t80 -285t-80 -285t-216.5 -184.5t-309.5 -62.5t-309.5 62.5t-217 184.5t-80.5 285
t80.5 285t217.5 185z" />
    <glyph glyph-name="odieresis" unicode="&#xf6;" horiz-adv-x="1253" 
d="M215 1296q0 74 52 125.5t128 51.5q73 0 124.5 -51.5t51.5 -125.5q0 -76 -51 -128t-125 -52q-77 0 -128.5 52t-51.5 128zM686 1296q0 74 52 125.5t128 51.5q73 0 124.5 -51.5t51.5 -125.5q0 -76 -51 -128t-125 -52q-76 0 -128 52t-52 128zM536 373q36 -29 91 -29
t90.5 28.5t48 64t12.5 75.5t-12.5 75.5t-48 64t-90.5 28.5t-91 -28.5t-48.5 -64t-12.5 -75.5t12.5 -75.5t48.5 -63.5zM318 982q136 62 309 62t309.5 -62.5t216.5 -184.5t80 -285t-80 -285t-216.5 -184.5t-309.5 -62.5t-309.5 62.5t-217 184.5t-80.5 285t80.5 285t217.5 185z
" />
    <glyph glyph-name="divide" unicode="&#xf7;" horiz-adv-x="737" 
d="M119 1053q0 99 70.5 168t175.5 69q98 0 167.5 -69.5t69.5 -167.5q0 -105 -69 -175.5t-168 -70.5q-106 0 -176 70t-70 176zM61 778h615v-286h-615v286zM119 225q0 99 70.5 168.5t175.5 69.5q98 0 167.5 -70t69.5 -168q0 -105 -69 -175t-168 -70q-106 0 -176 69.5
t-70 175.5z" />
    <glyph glyph-name="oslash" unicode="&#xf8;" horiz-adv-x="1294" 
d="M242 -205l80 256q-132 67 -206.5 185t-74.5 276q0 161 78 282t211 184t303 66l59 185h363l-80 -256q131 -66 204.5 -184.5t73.5 -276.5q0 -161 -77.5 -282t-210.5 -184t-303 -66l-58 -185h-362zM557 373q35 -29 90 -29t91 28.5t48.5 64t12.5 75.5t-12.5 75.5t-48.5 64
t-91 28.5t-90.5 -28.5t-48 -64t-12.5 -75.5t12.5 -75.5t48.5 -63.5z" />
    <glyph glyph-name="ugrave" unicode="&#xf9;" horiz-adv-x="1312" 
d="M717 1114h-223l-168 361h268zM1313 365v-365h-279q-230 0 -280 180q-115 -200 -359 -200q-174 0 -264 106.5t-90 292.5v645h451v-522q0 -80 26.5 -119t95.5 -39q125 0 125 158v522h451v-543q0 -67 24 -91.5t86 -24.5h13z" />
    <glyph glyph-name="uacute" unicode="&#xfa;" horiz-adv-x="1312" 
d="M500 1114l114 361h269l-160 -361h-223zM1313 365v-365h-279q-230 0 -280 180q-115 -200 -359 -200q-174 0 -264 106.5t-90 292.5v645h451v-522q0 -80 26.5 -119t95.5 -39q125 0 125 158v522h451v-543q0 -67 24 -91.5t86 -24.5h13z" />
    <glyph glyph-name="ucircumflex" unicode="&#xfb;" horiz-adv-x="1312" 
d="M227 1114l269 361h237l268 -361h-278l-109 176l-108 -176h-279zM1313 365v-365h-279q-230 0 -280 180q-115 -200 -359 -200q-174 0 -264 106.5t-90 292.5v645h451v-522q0 -80 26.5 -119t95.5 -39q125 0 125 158v522h451v-543q0 -67 24 -91.5t86 -24.5h13z" />
    <glyph glyph-name="udieresis" unicode="&#xfc;" horiz-adv-x="1312" 
d="M199 1296q0 74 52 125.5t128 51.5q73 0 124.5 -51.5t51.5 -125.5q0 -76 -51 -128t-125 -52q-77 0 -128.5 52t-51.5 128zM670 1296q0 74 52 125.5t128 51.5q73 0 124.5 -51.5t51.5 -125.5q0 -76 -51 -128t-125 -52q-76 0 -128 52t-52 128zM1313 365v-365h-279
q-230 0 -280 180q-115 -200 -359 -200q-174 0 -264 106.5t-90 292.5v645h451v-522q0 -80 26.5 -119t95.5 -39q125 0 125 158v522h451v-543q0 -67 24 -91.5t86 -24.5h13z" />
    <glyph glyph-name="yacute" unicode="&#xfd;" horiz-adv-x="1292" 
d="M537 1114l114 361h269l-160 -361h-223zM1272 1024l-418 -1044q-35 -87 -63 -142t-69 -102.5t-86.5 -72.5t-118 -43t-160 -24t-216.5 -6v369q190 0 215 4q37 5 50 29q2 3 4 8l10 25l-400 999h453l178 -557l168 557h453z" />
    <glyph glyph-name="thorn" unicode="&#xfe;" horiz-adv-x="1292" 
d="M1145 897q127 -148 127 -385t-127 -384.5t-340 -147.5q-207 0 -313 147v-537h-451v1844h451v-537q106 147 313 147q213 0 340 -147zM492 461q0 -45 48 -81t113 -36q69 0 116.5 44.5t47.5 123.5t-47.5 123.5t-116.5 44.5q-65 0 -113 -36t-48 -81v-102z" />
    <glyph glyph-name="ydieresis" unicode="&#xff;" horiz-adv-x="1292" 
d="M233 1296q0 74 52.5 125.5t128.5 51.5q73 0 124.5 -51.5t51.5 -125.5q0 -76 -51 -128t-125 -52q-77 0 -129 52t-52 128zM705 1296q0 74 52 125.5t128 51.5q73 0 124.5 -51.5t51.5 -125.5q0 -76 -51 -128t-125 -52q-77 0 -128.5 52t-51.5 128zM1272 1024l-418 -1044
q-35 -87 -63 -142t-69 -102.5t-86.5 -72.5t-118 -43t-160 -24t-216.5 -6v369q190 0 215 4q37 5 50 29q2 3 4 8l10 25l-400 999h453l178 -557l168 557h453z" />
    <glyph glyph-name="Amacron" unicode="&#x100;" horiz-adv-x="1724" 
d="M555 1782h614v-205h-614v205zM635 1434h455l614 -1434h-455l-86 221h-602l-86 -221h-455zM694 569h336l-168 435z" />
    <glyph glyph-name="amacron" unicode="&#x101;" horiz-adv-x="1169" 
d="M279 1372h614v-205h-614v205zM162 1024h454q126 0 212 -27.5t133 -82t66.5 -124t19.5 -165.5v-144q0 -67 24.5 -91.5t85.5 -24.5h12v-365h-278q-102 0 -147 35t-58 110q-64 -165 -276 -165q-180 0 -274.5 78t-94.5 227q0 79 23 137.5t76 102.5t146.5 66.5t227.5 22.5h123
q0 39 -17 52.5t-73 13.5h-385v344zM637 455h-102q-37 0 -58.5 -21.5t-21.5 -62.5q0 -48 21.5 -68t62.5 -20q10 0 24 4t32 13.5t30 30t12 48.5v76z" />
    <glyph glyph-name="Abreve" unicode="&#x102;" horiz-adv-x="1724" 
d="M498 1905h202q0 -73 39 -123.5t123 -50.5t123 50.5t39 123.5h203q0 -83 -21.5 -149t-56.5 -108.5t-83.5 -71t-98.5 -40.5t-105 -12q-69 0 -131 20t-115.5 62.5t-85.5 119.5t-32 179zM635 1434h455l614 -1434h-455l-86 221h-602l-86 -221h-455zM694 569h336l-168 435z" />
    <glyph glyph-name="abreve" unicode="&#x103;" horiz-adv-x="1169" 
d="M221 1495h203q0 -73 39 -123.5t123 -50.5t123 50.5t39 123.5h202q0 -102 -32 -179t-85.5 -119.5t-115.5 -62.5t-131 -20q-55 0 -105 12t-98.5 40.5t-83.5 71t-56.5 108.5t-21.5 149zM162 1024h454q126 0 212 -27.5t133 -82t66.5 -124t19.5 -165.5v-144q0 -67 24.5 -91.5
t85.5 -24.5h12v-365h-278q-102 0 -147 35t-58 110q-64 -165 -276 -165q-180 0 -274.5 78t-94.5 227q0 79 23 137.5t76 102.5t146.5 66.5t227.5 22.5h123q0 39 -17 52.5t-73 13.5h-385v344zM637 455h-102q-37 0 -58.5 -21.5t-21.5 -62.5q0 -48 21.5 -68t62.5 -20q10 0 24 4
t32 13.5t30 30t12 48.5v76z" />
    <glyph glyph-name="Aogonek" unicode="&#x104;" horiz-adv-x="1724" 
d="M635 1434h455l614 -1434h-268q-69 -73 -103.5 -124.5t-34.5 -102.5q0 -38 21.5 -57.5t63 -20t86 7.5t106.5 25v-205q-52 -13 -113 -18t-127 2t-119.5 27t-88.5 64t-35 107q0 123 155 299l-84 217h-602l-86 -221h-455zM694 569h336l-168 435z" />
    <glyph glyph-name="aogonek" unicode="&#x105;" horiz-adv-x="1169" 
d="M162 1024h454q126 0 212 -27.5t133 -82t66.5 -124t19.5 -165.5v-144q0 -67 24.5 -91.5t85.5 -24.5h12v-365h-143q-66 -69 -99.5 -121t-33.5 -102q0 -38 21.5 -57.5t62.5 -20t85.5 7.5t106.5 25v-205q-52 -13 -113 -18t-127 2t-119.5 27t-88.5 64t-35 107q0 129 150 295
q-72 9 -105.5 42.5t-44.5 98.5q-64 -165 -276 -165q-180 0 -274.5 78t-94.5 227q0 79 23 137.5t76 102.5t146.5 66.5t227.5 22.5h123q0 39 -17 52.5t-73 13.5h-385v344zM637 455h-102q-37 0 -58.5 -21.5t-21.5 -62.5q0 -48 21.5 -68t62.5 -20q10 0 24 4t32 13.5t30 30
t12 48.5v76z" />
    <glyph glyph-name="Cacute" unicode="&#x106;" horiz-adv-x="1591" 
d="M666 1524l114 360h269l-160 -360h-223zM521 869q-21 -66 -21 -152t20.5 -152.5t52.5 -106.5t76 -65.5t87 -35t89 -9.5q111 0 191 73t80 179h454q0 -86 -28 -172.5t-88 -167t-143.5 -143t-204.5 -100t-261 -37.5q-165 0 -308 51.5t-249 145t-166.5 233t-60.5 307.5
t60.5 307.5t166.5 233t249 145t308 51.5q140 0 261 -37.5t204.5 -100t143.5 -143t88 -167t28 -172.5h-454q0 106 -79.5 178.5t-191.5 72.5q-46 0 -89 -9.5t-87 -35t-76 -65.5t-52 -106z" />
    <glyph glyph-name="cacute" unicode="&#x107;" 
d="M506 1114l115 361h268l-160 -361h-223zM494 636q-39 -44 -39 -124t39 -124t112 -44q57 0 95 32t38 83h430q0 -70 -17.5 -135t-59 -128.5t-103 -110.5t-158.5 -76t-217 -29q-282 0 -438 140.5t-156 391.5t156 391.5t438 140.5q120 0 217 -29t158.5 -76t103 -110.5
t59 -128.5t17.5 -135h-430q0 51 -38 83t-95 32q-73 0 -112 -44z" />
    <glyph glyph-name="Ccircumflex" unicode="&#x108;" horiz-adv-x="1591" 
d="M410 1524l268 360h237l269 -360h-279l-108 176l-109 -176h-278zM521 869q-21 -66 -21 -152t20.5 -152.5t52.5 -106.5t76 -65.5t87 -35t89 -9.5q111 0 191 73t80 179h454q0 -86 -28 -172.5t-88 -167t-143.5 -143t-204.5 -100t-261 -37.5q-165 0 -308 51.5t-249 145
t-166.5 233t-60.5 307.5t60.5 307.5t166.5 233t249 145t308 51.5q140 0 261 -37.5t204.5 -100t143.5 -143t88 -167t28 -172.5h-454q0 106 -79.5 178.5t-191.5 72.5q-46 0 -89 -9.5t-87 -35t-76 -65.5t-52 -106z" />
    <glyph glyph-name="ccircumflex" unicode="&#x109;" 
d="M209 1114l268 361h238l268 -361h-278l-109 176l-109 -176h-278zM494 636q-39 -44 -39 -124t39 -124t112 -44q57 0 95 32t38 83h430q0 -70 -17.5 -135t-59 -128.5t-103 -110.5t-158.5 -76t-217 -29q-282 0 -438 140.5t-156 391.5t156 391.5t438 140.5q120 0 217 -29
t158.5 -76t103 -110.5t59 -128.5t17.5 -135h-430q0 51 -38 83t-95 32q-73 0 -112 -44z" />
    <glyph glyph-name="Cdotaccent" unicode="&#x10a;" horiz-adv-x="1591" 
d="M618 1704q0 74 52.5 125t128.5 51q73 0 124.5 -51t51.5 -125q0 -76 -51 -128t-125 -52q-77 0 -129 52t-52 128zM521 869q-21 -66 -21 -152t20.5 -152.5t52.5 -106.5t76 -65.5t87 -35t89 -9.5q111 0 191 73t80 179h454q0 -86 -28 -172.5t-88 -167t-143.5 -143t-204.5 -100
t-261 -37.5q-165 0 -308 51.5t-249 145t-166.5 233t-60.5 307.5t60.5 307.5t166.5 233t249 145t308 51.5q140 0 261 -37.5t204.5 -100t143.5 -143t88 -167t28 -172.5h-454q0 106 -79.5 178.5t-191.5 72.5q-46 0 -89 -9.5t-87 -35t-76 -65.5t-52 -106z" />
    <glyph glyph-name="cdotaccent" unicode="&#x10b;" 
d="M418 1294q0 74 52 125t128 51q74 0 125 -51t51 -125q0 -76 -51 -128t-125 -52q-76 0 -128 52t-52 128zM494 636q-39 -44 -39 -124t39 -124t112 -44q57 0 95 32t38 83h430q0 -70 -17.5 -135t-59 -128.5t-103 -110.5t-158.5 -76t-217 -29q-282 0 -438 140.5t-156 391.5
t156 391.5t438 140.5q120 0 217 -29t158.5 -76t103 -110.5t59 -128.5t17.5 -135h-430q0 51 -38 83t-95 32q-73 0 -112 -44z" />
    <glyph glyph-name="Ccaron" unicode="&#x10c;" horiz-adv-x="1591" 
d="M410 1884h278l109 -176l108 176h279l-269 -360h-237zM521 869q-21 -66 -21 -152t20.5 -152.5t52.5 -106.5t76 -65.5t87 -35t89 -9.5q111 0 191 73t80 179h454q0 -86 -28 -172.5t-88 -167t-143.5 -143t-204.5 -100t-261 -37.5q-165 0 -308 51.5t-249 145t-166.5 233
t-60.5 307.5t60.5 307.5t166.5 233t249 145t308 51.5q140 0 261 -37.5t204.5 -100t143.5 -143t88 -167t28 -172.5h-454q0 106 -79.5 178.5t-191.5 72.5q-46 0 -89 -9.5t-87 -35t-76 -65.5t-52 -106z" />
    <glyph glyph-name="ccaron" unicode="&#x10d;" 
d="M209 1475h278l109 -177l109 177h278l-268 -361h-238zM494 636q-39 -44 -39 -124t39 -124t112 -44q57 0 95 32t38 83h430q0 -70 -17.5 -135t-59 -128.5t-103 -110.5t-158.5 -76t-217 -29q-282 0 -438 140.5t-156 391.5t156 391.5t438 140.5q120 0 217 -29t158.5 -76
t103 -110.5t59 -128.5t17.5 -135h-430q0 51 -38 83t-95 32q-73 0 -112 -44z" />
    <glyph glyph-name="Dcaron" unicode="&#x10e;" horiz-adv-x="1562" 
d="M395 1884h279l108 -176l109 176h278l-268 -360h-237zM713 1434q176 0 323.5 -47.5t256 -137t169 -226t60.5 -306.5t-60.5 -306.5t-169 -226t-256 -137t-323.5 -47.5h-652v1434h652zM516 365h197q179 0 264.5 86t85.5 266t-85.5 266t-264.5 86h-197v-704z" />
    <glyph glyph-name="dcaron" unicode="&#x10f;" horiz-adv-x="1898" 
d="M1354 1217q0 99 70 168t175 69q98 0 168 -69.5t70 -167.5q0 -74 -37 -134l-221 -415h-221l151 319q-70 27 -112.5 88.5t-42.5 141.5zM147 128q-127 147 -127 384t127 384.5t340 147.5q208 0 314 -147v537h450v-1434h-450v127q-106 -147 -314 -147q-213 0 -340 148z
M639 344q65 0 113.5 36t48.5 81v102q0 45 -48.5 81t-113.5 36q-69 0 -116.5 -44.5t-47.5 -123.5t47.5 -123.5t116.5 -44.5z" />
    <glyph glyph-name="Dcroat" unicode="&#x110;" horiz-adv-x="1562" 
d="M-61 860h122v574h652q176 0 323.5 -47.5t256 -137t169 -226t60.5 -306.5t-60.5 -306.5t-169 -226t-256 -137t-323.5 -47.5h-652v573h-122v287zM516 365h197q179 0 264.5 86t85.5 266t-85.5 266t-264.5 86h-197v-209h221v-287h-221v-208z" />
    <glyph glyph-name="dcroat" unicode="&#x111;" horiz-adv-x="1292" 
d="M535 1331h266v103h450v-103h164v-205h-164v-1126h-450v145q-95 -165 -314 -165q-213 0 -340 147.5t-127 384.5t127 384.5t340 147.5q219 0 314 -165v247h-266v205zM639 344q65 0 113.5 36t48.5 81v102q0 45 -48.5 81t-113.5 36q-69 0 -116.5 -44.5t-47.5 -123.5
t47.5 -123.5t116.5 -44.5z" />
    <glyph glyph-name="Emacron" unicode="&#x112;" horiz-adv-x="1214" 
d="M322 1782h614v-205h-614v205zM61 1434h1113v-369h-658v-174h596v-348h-596v-174h658v-369h-1113v1434z" />
    <glyph glyph-name="emacron" unicode="&#x113;" 
d="M289 1372h614v-205h-614v205zM461 432q12 -79 47.5 -104t93.5 -25q137 0 137 74h430q-16 -87 -55.5 -156t-107.5 -124.5t-175.5 -86t-248.5 -30.5q-253 0 -407.5 142.5t-154.5 389.5t154.5 389.5t407.5 142.5q297 0 442 -139t145 -389v-84h-708zM733 592
q-21 129 -131 129q-119 0 -141 -129h272z" />
    <glyph glyph-name="Ebreve" unicode="&#x114;" horiz-adv-x="1214" 
d="M264 1905h203q0 -73 39 -123.5t123 -50.5t123 50.5t39 123.5h202q0 -102 -32 -179t-85.5 -119.5t-115.5 -62.5t-131 -20q-55 0 -105 12t-98.5 40.5t-83.5 71t-56.5 108.5t-21.5 149zM61 1434h1113v-369h-658v-174h596v-348h-596v-174h658v-369h-1113v1434z" />
    <glyph glyph-name="ebreve" unicode="&#x115;" 
d="M252 1495h203q0 -73 38.5 -123.5t122.5 -50.5t123 50.5t39 123.5h203q0 -83 -21.5 -149t-56.5 -108.5t-83.5 -71t-98.5 -40.5t-105 -12q-69 0 -131 20t-115.5 62.5t-85.5 119.5t-32 179zM461 432q12 -79 47.5 -104t93.5 -25q137 0 137 74h430q-16 -87 -55.5 -156
t-107.5 -124.5t-175.5 -86t-248.5 -30.5q-253 0 -407.5 142.5t-154.5 389.5t154.5 389.5t407.5 142.5q297 0 442 -139t145 -389v-84h-708zM733 592q-21 129 -131 129q-119 0 -141 -129h272z" />
    <glyph glyph-name="Edotaccent" unicode="&#x116;" horiz-adv-x="1214" 
d="M451 1704q0 74 52 125t128 51q73 0 124.5 -51t51.5 -125q0 -76 -51 -128t-125 -52q-77 0 -128.5 52t-51.5 128zM61 1434h1113v-369h-658v-174h596v-348h-596v-174h658v-369h-1113v1434z" />
    <glyph glyph-name="edotaccent" unicode="&#x117;" 
d="M418 1294q0 74 52 125t128 51q74 0 125 -51t51 -125q0 -76 -51 -128t-125 -52q-76 0 -128 52t-52 128zM461 432q12 -79 47.5 -104t93.5 -25q137 0 137 74h430q-16 -87 -55.5 -156t-107.5 -124.5t-175.5 -86t-248.5 -30.5q-253 0 -407.5 142.5t-154.5 389.5t154.5 389.5
t407.5 142.5q297 0 442 -139t145 -389v-84h-708zM733 592q-21 129 -131 129q-119 0 -141 -129h272z" />
    <glyph glyph-name="Eogonek" unicode="&#x118;" horiz-adv-x="1214" 
d="M61 1434h1113v-369h-658v-174h596v-348h-596v-174h658v-369h-138q-69 -72 -104 -125t-35 -104q0 -38 21.5 -57.5t63 -20t86 7.5t106.5 25v-205q-52 -13 -113 -18t-127.5 2t-120 27t-88.5 64t-35 107q0 122 154 297h-783v1434z" />
    <glyph glyph-name="eogonek" unicode="&#x119;" 
d="M801 -494q-52 -13 -113 -18t-127.5 2t-120 27.5t-88.5 64.5t-35 107q0 124 154 299q-207 30 -329 168t-122 356q0 247 154.5 389.5t407.5 142.5q297 0 442 -139t145 -389v-84h-708q12 -79 47.5 -104t93.5 -25q137 0 137 74h430q-15 -80 -50.5 -145.5t-95 -119.5t-152 -88
t-212.5 -42q-66 -69 -100.5 -122.5t-34.5 -103.5q0 -38 21.5 -57.5t63 -20t86 7.5t106.5 25v-205zM733 592q-21 129 -131 129q-119 0 -141 -129h272z" />
    <glyph glyph-name="Ecaron" unicode="&#x11a;" horiz-adv-x="1214" 
d="M262 1884h279l108 -176l109 176h278l-268 -360h-238zM61 1434h1113v-369h-658v-174h596v-348h-596v-174h658v-369h-1113v1434z" />
    <glyph glyph-name="ecaron" unicode="&#x11b;" 
d="M209 1475h278l109 -177l109 177h278l-268 -361h-238zM461 432q12 -79 47.5 -104t93.5 -25q137 0 137 74h430q-16 -87 -55.5 -156t-107.5 -124.5t-175.5 -86t-248.5 -30.5q-253 0 -407.5 142.5t-154.5 389.5t154.5 389.5t407.5 142.5q297 0 442 -139t145 -389v-84h-708z
M733 592q-21 129 -131 129q-119 0 -141 -129h272z" />
    <glyph glyph-name="Gcircumflex" unicode="&#x11c;" horiz-adv-x="1611" 
d="M420 1524l268 360h238l268 -360h-279l-108 176l-109 -176h-278zM500 717q0 -191 101 -290t288 -99q109 0 187.5 43.5t107.5 136.5h-371v307h758v-815h-373v98q-147 -118 -373 -118q-150 0 -291 52t-250.5 144.5t-176 233.5t-66.5 307t66.5 307t177.5 233.5t254 144.5
t297 52q101 0 196.5 -22.5t173 -61t142.5 -90.5t109 -110.5t68.5 -121t24.5 -122.5h-454q0 74 -77 116.5t-192 42.5q-327 0 -327 -368z" />
    <glyph glyph-name="gcircumflex" unicode="&#x11d;" horiz-adv-x="1292" 
d="M260 1114l268 361h238l268 -361h-278l-109 176l-108 -176h-279zM190 -106h480q72 0 101.5 31t29.5 106v96q-106 -147 -314 -147q-213 0 -340 147.5t-127 384.5t127 384.5t340 147.5q208 0 314 -147v127h450v-932q0 -261 -127 -381.5t-413 -120.5h-521v304zM639 344
q65 0 113.5 36t48.5 81v102q0 45 -48.5 81t-113.5 36q-69 0 -116.5 -44.5t-47.5 -123.5t47.5 -123.5t116.5 -44.5z" />
    <glyph glyph-name="Gbreve" unicode="&#x11e;" horiz-adv-x="1611" 
d="M442 1905h203q0 -73 39 -123.5t123 -50.5t123 50.5t39 123.5h202q0 -102 -32 -179t-85.5 -119.5t-115.5 -62.5t-131 -20q-55 0 -105 12t-98.5 40.5t-83.5 71t-56.5 108.5t-21.5 149zM500 717q0 -191 101 -290t288 -99q109 0 187.5 43.5t107.5 136.5h-371v307h758v-815
h-373v98q-147 -118 -373 -118q-150 0 -291 52t-250.5 144.5t-176 233.5t-66.5 307t66.5 307t177.5 233.5t254 144.5t297 52q101 0 196.5 -22.5t173 -61t142.5 -90.5t109 -110.5t68.5 -121t24.5 -122.5h-454q0 74 -77 116.5t-192 42.5q-327 0 -327 -368z" />
    <glyph glyph-name="gbreve" unicode="&#x11f;" horiz-adv-x="1292" 
d="M283 1495h202q0 -73 39 -123.5t123 -50.5t123 50.5t39 123.5h203q0 -83 -21.5 -149t-56.5 -108.5t-83.5 -71t-98.5 -40.5t-105 -12q-69 0 -131 20t-115.5 62.5t-85.5 119.5t-32 179zM190 -106h480q72 0 101.5 31t29.5 106v96q-106 -147 -314 -147q-213 0 -340 147.5
t-127 384.5t127 384.5t340 147.5q208 0 314 -147v127h450v-932q0 -261 -127 -381.5t-413 -120.5h-521v304zM639 344q65 0 113.5 36t48.5 81v102q0 45 -48.5 81t-113.5 36q-69 0 -116.5 -44.5t-47.5 -123.5t47.5 -123.5t116.5 -44.5z" />
    <glyph glyph-name="Gdotaccent" unicode="&#x120;" horiz-adv-x="1611" 
d="M629 1704q0 74 52 125t128 51q73 0 124.5 -51t51.5 -125q0 -76 -51 -128t-125 -52q-77 0 -128.5 52t-51.5 128zM500 717q0 -191 101 -290t288 -99q109 0 187.5 43.5t107.5 136.5h-371v307h758v-815h-373v98q-147 -118 -373 -118q-150 0 -291 52t-250.5 144.5t-176 233.5
t-66.5 307t66.5 307t177.5 233.5t254 144.5t297 52q101 0 196.5 -22.5t173 -61t142.5 -90.5t109 -110.5t68.5 -121t24.5 -122.5h-454q0 74 -77 116.5t-192 42.5q-327 0 -327 -368z" />
    <glyph glyph-name="gdotaccent" unicode="&#x121;" horiz-adv-x="1292" 
d="M469 1294q0 74 52 125t128 51q73 0 124.5 -51t51.5 -125q0 -76 -51 -128t-125 -52q-77 0 -128.5 52t-51.5 128zM190 -106h480q72 0 101.5 31t29.5 106v96q-106 -147 -314 -147q-213 0 -340 147.5t-127 384.5t127 384.5t340 147.5q208 0 314 -147v127h450v-932
q0 -261 -127 -381.5t-413 -120.5h-521v304zM639 344q65 0 113.5 36t48.5 81v102q0 45 -48.5 81t-113.5 36q-69 0 -116.5 -44.5t-47.5 -123.5t47.5 -123.5t116.5 -44.5z" />
    <glyph glyph-name="uni0122" unicode="&#x122;" horiz-adv-x="1611" 
d="M500 717q0 -191 101 -290t288 -99q109 0 187.5 43.5t107.5 136.5h-371v307h758v-815h-373v98q-147 -118 -373 -118q-150 0 -291 52t-250.5 144.5t-176 233.5t-66.5 307t66.5 307t177.5 233.5t254 144.5t297 52q101 0 196.5 -22.5t173 -61t142.5 -90.5t109 -110.5
t68.5 -121t24.5 -122.5h-454q0 74 -77 116.5t-192 42.5q-327 0 -327 -368zM676 -217q0 55 37.5 92t95.5 37q53 0 90 -37.5t37 -91.5q0 -42 -18 -72l-121 -223h-119l82 172q-39 14 -61.5 46.5t-22.5 76.5z" />
    <glyph glyph-name="uni0123" unicode="&#x123;" horiz-adv-x="1292" 
d="M834 1243q0 -54 -37.5 -91.5t-94.5 -37.5q-54 0 -91.5 37.5t-37.5 91.5q0 38 19 70l121 225h118l-79 -172q37 -14 59.5 -46.5t22.5 -76.5zM190 -106h480q72 0 101.5 31t29.5 106v96q-104 -147 -314 -147q-213 0 -340 147.5t-127 384.5t127 384.5t340 147.5
q210 0 314 -147v127h450v-932q0 -261 -127 -381.5t-413 -120.5h-521v304zM639 344q65 0 113.5 36t48.5 81v102q0 45 -48.5 81t-113.5 36q-69 0 -116.5 -44.5t-47.5 -123.5t47.5 -123.5t116.5 -44.5z" />
    <glyph glyph-name="Hcircumflex" unicode="&#x124;" horiz-adv-x="1665" 
d="M446 1524l269 360h237l269 -360h-279l-108 176l-109 -176h-279zM61 1434h455v-516h633v516h455v-1434h-455v549h-633v-549h-455v1434z" />
    <glyph glyph-name="hcircumflex" unicode="&#x125;" horiz-adv-x="1230" 
d="M41 1434h451v-566q115 176 344 176q174 0 264 -106.5t90 -292.5v-645h-451v522q0 80 -27 119t-96 39q-124 0 -124 -158v-522h-451v1434zM504 1073l268 361h238l268 -361h-279l-108 176l-109 -176h-278z" />
    <glyph glyph-name="Hbar" unicode="&#x126;" horiz-adv-x="1665" 
d="M61 1434h455v-246h633v246h455v-1434h-455v221h-633v-221h-455v1434zM516 590h633v229h-633v-229z" />
    <glyph glyph-name="hbar" unicode="&#x127;" horiz-adv-x="1230" 
d="M758 1331v-205h-266v-258q115 176 344 176q174 0 264 -106.5t90 -292.5v-645h-451v522q0 80 -27 119t-96 39q-124 0 -124 -158v-522h-451v1126h-164v205h164v103h451v-103h266z" />
    <glyph glyph-name="Itilde" unicode="&#x128;" horiz-adv-x="577" 
d="M283 1567q-40 18 -59.5 26t-47 18t-40 9.5t-29 -3t-26 -14.5t-19.5 -29.5t-19 -45.5l-197 67q32 90 71.5 145.5t93.5 82.5t124 19.5t160 -48.5q43 -20 66.5 -30t51.5 -18t43 -6t31 11.5t26 29.5t19 52l199 -70q-45 -125 -108 -184.5t-147.5 -60t-192.5 48.5zM61 1434h455
v-1434h-455v1434z" />
    <glyph glyph-name="itilde" unicode="&#x129;" horiz-adv-x="532" 
d="M260 1157q-40 18 -59.5 26t-47 18t-40 9.5t-29 -3t-26 -14.5t-19.5 -29.5t-19 -45.5l-196 68q32 90 71.5 145.5t93 82.5t123.5 19t160 -49q43 -20 67 -30t52 -18t43 -6t31 11.5t26 29.5t19 52l199 -69q-45 -125 -108.5 -185t-147.5 -60.5t-193 48.5zM41 1024h451v-1024
h-451v1024z" />
    <glyph glyph-name="Imacron" unicode="&#x12a;" horiz-adv-x="577" 
d="M-18 1782h614v-205h-614v205zM61 1434h455v-1434h-455v1434z" />
    <glyph glyph-name="imacron" unicode="&#x12b;" horiz-adv-x="532" 
d="M-41 1372h614v-205h-614v205zM41 1024h451v-1024h-451v1024z" />
    <glyph glyph-name="Iogonek" unicode="&#x12e;" horiz-adv-x="577" 
d="M61 1434h455v-1434h-139l2 -2q-69 -72 -104 -125t-35 -104q0 -38 21.5 -57.5t62.5 -20t85.5 7.5t106.5 25v-205q-52 -13 -113 -18t-127 2t-119.5 27t-88.5 64t-35 107q0 123 155 299h-127v1434z" />
    <glyph glyph-name="iogonek" unicode="&#x12f;" horiz-adv-x="532" 
d="M27 1298q0 99 70.5 168.5t174.5 69.5q98 0 168 -70t70 -168q0 -104 -69.5 -174.5t-168.5 -70.5q-104 0 -174.5 70.5t-70.5 174.5zM41 1024h451v-1024h-123l2 -2q-70 -73 -105 -125.5t-35 -103.5q0 -38 21.5 -57.5t63 -20t86 7.5t106.5 25v-205q-52 -13 -113 -18t-127 2
t-119.5 27t-88.5 64t-35 107q0 123 155 299h-139v1024z" />
    <glyph glyph-name="Idotaccent" unicode="&#x130;" horiz-adv-x="577" 
d="M113 1704q0 74 52 125t128 51q73 0 124.5 -51t51.5 -125q0 -76 -51 -128t-125 -52q-77 0 -128.5 52t-51.5 128zM61 1434h455v-1434h-455v1434z" />
    <glyph glyph-name="dotlessi" unicode="&#x131;" horiz-adv-x="532" 
d="M41 1024h451v-1024h-451v1024z" />
    <glyph glyph-name="IJ" unicode="&#x132;" horiz-adv-x="1927" 
d="M61 1434h455v-1434h-455v1434zM1411 1434h455v-861q0 -98 -21 -184.5t-68.5 -162t-117.5 -130t-173.5 -85.5t-232.5 -31q-132 0 -236.5 31.5t-174.5 86.5t-116.5 134t-66.5 170t-20 198h455q0 -54 5.5 -93.5t21 -78.5t49 -59.5t83.5 -20.5q46 0 79 21t49 56.5t23 71.5
t7 76v861z" />
    <glyph glyph-name="ij" unicode="&#x133;" horiz-adv-x="1064" 
d="M27 1298q0 99 70.5 168.5t174.5 69.5q98 0 168 -70t70 -168q0 -104 -69.5 -174.5t-168.5 -70.5q-104 0 -174.5 70.5t-70.5 174.5zM553 1298q0 99 71 168.5t175 69.5q98 0 167.5 -70t69.5 -168q0 -104 -69 -174.5t-168 -70.5q-104 0 -175 70.5t-71 174.5zM41 1024h451
v-1024h-451v1024zM379 -86h104q46 0 68 22t22 74v1014h451v-1116q0 -158 -92.5 -238t-263.5 -80h-289v324z" />
    <glyph glyph-name="Jcircumflex" unicode="&#x134;" horiz-adv-x="1349" 
d="M657 1524l269 360h237l269 -360h-279l-109 176l-108 -176h-279zM834 1434h454v-861q0 -98 -21 -184.5t-68 -162t-117 -130t-173.5 -85.5t-232.5 -31q-132 0 -236.5 31.5t-175 86.5t-116.5 134t-66.5 170t-20.5 198h455q0 -42 3 -74.5t13 -67.5t27 -58t46.5 -37.5
t70.5 -14.5q46 0 79 21t49 56.5t23 71.5t7 76v861z" />
    <glyph glyph-name="jcircumflex" unicode="&#x135;" horiz-adv-x="532" 
d="M-121 1114l268 361h238l268 -361h-278l-109 176l-108 -176h-279zM-154 -86h105q46 0 68 22t22 74v1014h451v-1116q0 -158 -93 -238t-264 -80h-289v324z" />
    <glyph glyph-name="uni0136" unicode="&#x136;" horiz-adv-x="1599" 
d="M61 1434h455v-594h94l353 594h544l-477 -740l549 -694h-569l-371 512h-123v-512h-455v1434zM629 -217q0 55 37.5 92t95.5 37q53 0 90 -37.5t37 -91.5q0 -40 -19 -72l-120 -223h-119l82 172q-39 14 -61.5 46.5t-22.5 76.5z" />
    <glyph glyph-name="uni0137" unicode="&#x137;" horiz-adv-x="1290" 
d="M41 1434h451v-740h38l158 330h520l-270 -481l332 -543h-533l-192 371h-53v-371h-451v1434zM514 -217q0 55 37.5 92t95.5 37q53 0 90 -37.5t37 -91.5q0 -42 -18 -72l-121 -223h-119l82 172q-39 14 -61.5 46.5t-22.5 76.5z" />
    <glyph glyph-name="kgreenlandic" unicode="&#x138;" horiz-adv-x="1290" 
d="M41 1024h451v-330h38l158 330h520l-270 -481l332 -543h-533l-192 371h-53v-371h-451v1024z" />
    <glyph glyph-name="Lacute" unicode="&#x139;" horiz-adv-x="1214" 
d="M61 1434h455v-1065h658v-369h-1113v1434zM702 1073l115 361h268l-159 -361h-224z" />
    <glyph glyph-name="lacute" unicode="&#x13a;" horiz-adv-x="614" 
d="M164 1524l115 360h268l-160 -360h-223zM614 365v-365h-278q-151 0 -223 74.5t-72 222.5v1137h451v-953q0 -67 24 -91.5t86 -24.5h12z" />
    <glyph glyph-name="uni013B" unicode="&#x13b;" horiz-adv-x="1214" 
d="M61 1434h455v-1065h658v-369h-1113v1434zM477 -217q0 55 37.5 92t95.5 37q53 0 90 -37.5t37 -91.5q0 -42 -18 -72l-121 -223h-119l82 172q-39 14 -61.5 46.5t-22.5 76.5z" />
    <glyph glyph-name="uni013C" unicode="&#x13c;" horiz-adv-x="614" 
d="M614 365v-365h-278q-151 0 -223 74.5t-72 222.5v1137h451v-953q0 -67 24 -91.5t86 -24.5h12zM258 -217q0 55 37.5 92t95.5 37q53 0 90 -37.5t37 -91.5q0 -42 -18 -72l-121 -223h-119l82 172q-39 14 -61.5 46.5t-22.5 76.5z" />
    <glyph glyph-name="Lcaron" unicode="&#x13d;" horiz-adv-x="1214" 
d="M61 1434h455v-1065h658v-369h-1113v1434zM651 1196q0 99 70.5 168.5t175.5 69.5q98 0 168 -70t70 -168q0 -73 -37 -133l-221 -416h-222l152 320q-71 27 -113.5 88t-42.5 141z" />
    <glyph glyph-name="lcaron" unicode="&#x13e;" horiz-adv-x="1220" 
d="M676 1217q0 99 70.5 168t175.5 69q98 0 167.5 -69.5t69.5 -167.5q0 -74 -37 -134l-221 -415h-221l151 319q-70 27 -112.5 88.5t-42.5 141.5zM614 365v-365h-278q-151 0 -223 74.5t-72 222.5v1137h451v-953q0 -67 24 -91.5t86 -24.5h12z" />
    <glyph glyph-name="Ldot" unicode="&#x13f;" horiz-adv-x="1214" 
d="M61 1434h455v-1065h658v-369h-1113v1434zM653 1196q0 99 70.5 168.5t175.5 69.5q98 0 168 -70t70 -168q0 -105 -69.5 -175.5t-168.5 -70.5q-106 0 -176 70t-70 176z" />
    <glyph glyph-name="ldot" unicode="&#x140;" horiz-adv-x="1130" 
d="M614 365v-365h-278q-151 0 -223 74.5t-72 222.5v1137h451v-953q0 -67 24 -91.5t86 -24.5h12zM594 1196q0 99 70.5 168.5t175.5 69.5q98 0 167.5 -70t69.5 -168q0 -105 -69 -175.5t-168 -70.5q-106 0 -176 70t-70 176z" />
    <glyph glyph-name="Lslash" unicode="&#x141;" horiz-adv-x="1214" 
d="M-201 793l262 96v545h455v-381l168 61l98 -270l-266 -96v-379h658v-369h-1113v582l-163 -60z" />
    <glyph glyph-name="lslash" unicode="&#x142;" horiz-adv-x="614" 
d="M-242 793l283 102v539h451v-375l151 55l98 -270l-249 -90v-273q0 -67 24 -91.5t86 -24.5h12v-365h-278q-151 0 -223 74.5t-72 222.5v293l-184 -68z" />
    <glyph glyph-name="Nacute" unicode="&#x143;" horiz-adv-x="1644" 
d="M733 1524l115 360h268l-160 -360h-223zM61 1434h455l612 -826v826h455v-1434h-455l-612 793v-793h-455v1434z" />
    <glyph glyph-name="nacute" unicode="&#x144;" horiz-adv-x="1230" 
d="M465 1114l115 361h268l-160 -361h-223zM41 1024h451v-156q115 176 344 176q174 0 264 -106.5t90 -292.5v-645h-451v522q0 80 -27 119t-96 39q-124 0 -124 -158v-522h-451v1024z" />
    <glyph glyph-name="uni0145" unicode="&#x145;" horiz-adv-x="1644" 
d="M61 1434h455l612 -826v826h455v-1434h-455l-612 793v-793h-455v1434zM713 -217q0 55 37.5 92t95.5 37q53 0 90 -37.5t37 -91.5q0 -40 -19 -72l-120 -223h-119l82 172q-39 14 -61.5 46.5t-22.5 76.5z" />
    <glyph glyph-name="uni0146" unicode="&#x146;" horiz-adv-x="1230" 
d="M41 1024h451v-156q115 176 344 176q174 0 264 -106.5t90 -292.5v-645h-451v522q0 80 -27 119t-96 39q-124 0 -124 -158v-522h-451v1024zM485 -217q0 55 37.5 92t95.5 37q53 0 90 -37.5t37 -91.5q0 -42 -18 -72l-121 -223h-119l82 172q-39 14 -61.5 46.5t-22.5 76.5z" />
    <glyph glyph-name="Ncaron" unicode="&#x147;" horiz-adv-x="1644" 
d="M436 1884h279l108 -176l109 176h278l-268 -360h-237zM61 1434h455l612 -826v826h455v-1434h-455l-612 793v-793h-455v1434z" />
    <glyph glyph-name="ncaron" unicode="&#x148;" horiz-adv-x="1230" 
d="M229 1475h279l108 -177l109 177h279l-269 -361h-237zM41 1024h451v-156q115 176 344 176q174 0 264 -106.5t90 -292.5v-645h-451v522q0 80 -27 119t-96 39q-124 0 -124 -158v-522h-451v1024z" />
    <glyph glyph-name="napostrophe" unicode="&#x149;" horiz-adv-x="1230" 
d="M573 1380q0 55 38 92t96 37q53 0 90 -37.5t37 -91.5q0 -39 -19 -71l-121 -224h-119l82 172q-39 14 -61.5 46.5t-22.5 76.5zM41 1024h451v-156q115 176 344 176q174 0 264 -106.5t90 -292.5v-645h-451v522q0 80 -27 119t-96 39q-124 0 -124 -158v-522h-451v1024z" />
    <glyph glyph-name="Omacron" unicode="&#x14c;" horiz-adv-x="1697" 
d="M543 1782h614v-205h-614v205zM105 408q-64 140 -64 309t63.5 309.5t173.5 233.5t256.5 143.5t313.5 50.5q134 0 255.5 -32t222 -94.5t175 -150.5t115.5 -206t41 -254t-41 -254t-115.5 -206t-175 -150.5t-222 -94.5t-255.5 -32q-167 0 -313.5 50.5t-256.5 143.5t-173 234z
M848 1085q-160 0 -254 -102t-94 -266t94 -266.5t254 -102.5t255 102.5t95 266.5t-94.5 266t-255.5 102z" />
    <glyph glyph-name="omacron" unicode="&#x14d;" horiz-adv-x="1253" 
d="M319 1372h615v-205h-615v205zM536 373q36 -29 91 -29t90.5 28.5t48 64t12.5 75.5t-12.5 75.5t-48 64t-90.5 28.5t-91 -28.5t-48.5 -64t-12.5 -75.5t12.5 -75.5t48.5 -63.5zM318 982q136 62 309 62t309.5 -62.5t216.5 -184.5t80 -285t-80 -285t-216.5 -184.5t-309.5 -62.5
t-309.5 62.5t-217 184.5t-80.5 285t80.5 285t217.5 185z" />
    <glyph glyph-name="Obreve" unicode="&#x14e;" horiz-adv-x="1697" 
d="M485 1905h203q0 -73 39 -123.5t123 -50.5t123 50.5t39 123.5h202q0 -102 -32 -179t-85.5 -119.5t-115.5 -62.5t-131 -20q-55 0 -105 12t-98.5 40.5t-83.5 71t-56.5 108.5t-21.5 149zM105 408q-64 140 -64 309t63.5 309.5t173.5 233.5t256.5 143.5t313.5 50.5
q134 0 255.5 -32t222 -94.5t175 -150.5t115.5 -206t41 -254t-41 -254t-115.5 -206t-175 -150.5t-222 -94.5t-255.5 -32q-167 0 -313.5 50.5t-256.5 143.5t-173 234zM848 1085q-160 0 -254 -102t-94 -266t94 -266.5t254 -102.5t255 102.5t95 266.5t-94.5 266t-255.5 102z" />
    <glyph glyph-name="obreve" unicode="&#x14f;" horiz-adv-x="1253" 
d="M262 1495h203q0 -73 39 -123.5t123 -50.5t122.5 50.5t38.5 123.5h203q0 -102 -32 -179t-85.5 -119.5t-115.5 -62.5t-131 -20q-55 0 -105 12t-98.5 40.5t-83.5 71t-56.5 108.5t-21.5 149zM536 373q36 -29 91 -29t90.5 28.5t48 64t12.5 75.5t-12.5 75.5t-48 64t-90.5 28.5
t-91 -28.5t-48.5 -64t-12.5 -75.5t12.5 -75.5t48.5 -63.5zM318 982q136 62 309 62t309.5 -62.5t216.5 -184.5t80 -285t-80 -285t-216.5 -184.5t-309.5 -62.5t-309.5 62.5t-217 184.5t-80.5 285t80.5 285t217.5 185z" />
    <glyph glyph-name="Ohungarumlaut" unicode="&#x150;" horiz-adv-x="1697" 
d="M926 1524l114 360h269l-160 -360h-223zM555 1524l115 360h268l-160 -360h-223zM105 408q-64 140 -64 309t63.5 309.5t173.5 233.5t256.5 143.5t313.5 50.5q134 0 255.5 -32t222 -94.5t175 -150.5t115.5 -206t41 -254t-41 -254t-115.5 -206t-175 -150.5t-222 -94.5
t-255.5 -32q-167 0 -313.5 50.5t-256.5 143.5t-173 234zM848 1085q-160 0 -254 -102t-94 -266t94 -266.5t254 -102.5t255 102.5t95 266.5t-94.5 266t-255.5 102z" />
    <glyph glyph-name="ohungarumlaut" unicode="&#x151;" horiz-adv-x="1253" 
d="M702 1114l115 361h268l-159 -361h-224zM332 1114l114 361h269l-160 -361h-223zM536 373q36 -29 91 -29t90.5 28.5t48 64t12.5 75.5t-12.5 75.5t-48 64t-90.5 28.5t-91 -28.5t-48.5 -64t-12.5 -75.5t12.5 -75.5t48.5 -63.5zM318 982q136 62 309 62t309.5 -62.5
t216.5 -184.5t80 -285t-80 -285t-216.5 -184.5t-309.5 -62.5t-309.5 62.5t-217 184.5t-80.5 285t80.5 285t217.5 185z" />
    <glyph glyph-name="OE" unicode="&#x152;" horiz-adv-x="2357" 
d="M105 408q-64 140 -64 309t63.5 309.5t173.5 233.5t256.5 143.5t313.5 50.5q194 0 354 -65v45h1112v-369h-657v-174h596v-348h-596v-174h657v-369h-1112v45q-160 -65 -354 -65q-167 0 -313.5 50.5t-256.5 143.5t-173 234zM848 1085q-160 0 -254 -102t-94 -266t94 -266.5
t254 -102.5t255 102.5t95 266.5t-94.5 266t-255.5 102z" />
    <glyph glyph-name="oe" unicode="&#x153;" horiz-adv-x="1970" 
d="M536 373q36 -29 91 -29t90.5 28.5t48 64t12.5 75.5t-12.5 75.5t-48 64t-90.5 28.5t-91 -28.5t-48.5 -64t-12.5 -75.5t12.5 -75.5t48.5 -63.5zM1511 592q-21 129 -131 129q-119 0 -141 -129h272zM627 1044q222 0 377 -100q142 100 356 100q297 0 442.5 -139t145.5 -389
v-84h-709q12 -79 47.5 -104t93.5 -25q138 0 138 74h430q-16 -87 -55.5 -156t-108 -124.5t-176 -86t-248.5 -30.5q-214 0 -356 100q-155 -100 -377 -100q-173 0 -309.5 62.5t-217 184.5t-80.5 285t80.5 285t217 184.5t309.5 62.5z" />
    <glyph glyph-name="Racute" unicode="&#x154;" horiz-adv-x="1540" 
d="M580 1524l114 360h269l-160 -360h-223zM836 1434q73 0 144 -12t149 -44.5t136 -83.5t96 -136.5t38 -194.5q0 -167 -79.5 -279t-207.5 -172l387 -512h-506l-329 451h-148v-451h-455v1434h775zM516 795h279q145 0 145 147q0 148 -145 148h-279v-295z" />
    <glyph glyph-name="racute" unicode="&#x155;" horiz-adv-x="890" 
d="M356 1114l115 361h268l-159 -361h-224zM41 1024h451v-156q55 81 131 128.5t147 47.5h100v-364h-264q-64 0 -89 -25.5t-25 -111.5v-543h-451v1024z" />
    <glyph glyph-name="uni0156" unicode="&#x156;" horiz-adv-x="1540" 
d="M836 1434q73 0 144 -12t149 -44.5t136 -83.5t96 -136.5t38 -194.5q0 -167 -79.5 -279t-207.5 -172l387 -512h-506l-329 451h-148v-451h-455v1434h775zM516 795h279q145 0 145 147q0 148 -145 148h-279v-295zM618 -217q0 55 38 92t96 37q53 0 90 -37.5t37 -91.5
q0 -40 -19 -72l-121 -223h-118l81 172q-39 14 -61.5 46.5t-22.5 76.5z" />
    <glyph glyph-name="uni0157" unicode="&#x157;" horiz-adv-x="890" 
d="M41 1024h451v-156q55 81 131 128.5t147 47.5h100v-364h-264q-64 0 -89 -25.5t-25 -111.5v-543h-451v1024zM152 -217q0 55 37.5 92t95.5 37q53 0 90 -37.5t37 -91.5q0 -40 -19 -72l-121 -223h-118l82 172q-39 14 -61.5 46.5t-22.5 76.5z" />
    <glyph glyph-name="Rcaron" unicode="&#x158;" horiz-adv-x="1540" 
d="M383 1884h279l108 -176l109 176h278l-268 -360h-238zM836 1434q73 0 144 -12t149 -44.5t136 -83.5t96 -136.5t38 -194.5q0 -167 -79.5 -279t-207.5 -172l387 -512h-506l-329 451h-148v-451h-455v1434h775zM516 795h279q145 0 145 147q0 148 -145 148h-279v-295z" />
    <glyph glyph-name="rcaron" unicode="&#x159;" horiz-adv-x="890" 
d="M57 1475h279l108 -177l109 177h278l-268 -361h-237zM41 1024h451v-156q55 81 131 128.5t147 47.5h100v-364h-264q-64 0 -89 -25.5t-25 -111.5v-543h-451v1024z" />
    <glyph glyph-name="Sacute" unicode="&#x15a;" horiz-adv-x="1488" 
d="M614 1524l115 360h268l-159 -360h-224zM500 494q0 -77 68.5 -121.5t176.5 -44.5q244 0 244 98q0 15 -4.5 26.5t-15.5 21t-24.5 16.5t-37 13.5t-46.5 11.5t-59.5 10.5t-69.5 10.5t-83 13t-94 16q-130 23 -219.5 63t-140.5 96.5t-73 123t-22 153.5q0 105 52.5 192
t140 143.5t200.5 87t236 30.5q138 0 250.5 -26t189.5 -71.5t129.5 -108.5t76.5 -135t24 -152h-459q0 76 -53.5 110.5t-157.5 34.5q-71 0 -120.5 -24.5t-49.5 -63.5q0 -54 45.5 -72t276.5 -62q3 -1 4 -1q116 -22 179 -36.5t148 -46.5t128.5 -71.5t75.5 -106t32 -155.5
q0 -106 -42 -194t-124.5 -154t-214 -102.5t-301.5 -36.5q-149 0 -271.5 28.5t-205.5 77t-140 114.5t-82.5 139.5t-25.5 154.5h459z" />
    <glyph glyph-name="sacute" unicode="&#x15b;" horiz-adv-x="1155" 
d="M449 1114l114 361h268l-159 -361h-223zM430 346q0 -47 43 -75.5t131 -28.5q101 0 101 43q0 27 -44.5 43t-187.5 43q-205 40 -317.5 118.5t-112.5 212.5q0 91 47 160t125 107t165.5 56.5t182.5 18.5q105 0 194 -23t148.5 -60t101.5 -85t61 -98.5t19 -99.5h-409
q0 104 -117 104q-39 0 -63.5 -12.5t-24.5 -36.5q0 -34 79 -57q46 -12 208 -41q50 -9 83 -16t76 -19.5t71 -27t58 -36.5t47.5 -49t28.5 -64.5t11 -82.5q0 -164 -150.5 -262t-402.5 -98q-116 0 -212 23t-159.5 60t-107.5 85.5t-63.5 98t-19.5 99.5h410z" />
    <glyph glyph-name="Scircumflex" unicode="&#x15c;" horiz-adv-x="1488" 
d="M358 1524l269 360h237l269 -360h-279l-109 176l-108 -176h-279zM500 494q0 -77 68.5 -121.5t176.5 -44.5q244 0 244 98q0 15 -4.5 26.5t-15.5 21t-24.5 16.5t-37 13.5t-46.5 11.5t-59.5 10.5t-69.5 10.5t-83 13t-94 16q-130 23 -219.5 63t-140.5 96.5t-73 123t-22 153.5
q0 105 52.5 192t140 143.5t200.5 87t236 30.5q138 0 250.5 -26t189.5 -71.5t129.5 -108.5t76.5 -135t24 -152h-459q0 76 -53.5 110.5t-157.5 34.5q-71 0 -120.5 -24.5t-49.5 -63.5q0 -54 45.5 -72t276.5 -62q3 -1 4 -1q116 -22 179 -36.5t148 -46.5t128.5 -71.5t75.5 -106
t32 -155.5q0 -106 -42 -194t-124.5 -154t-214 -102.5t-301.5 -36.5q-149 0 -271.5 28.5t-205.5 77t-140 114.5t-82.5 139.5t-25.5 154.5h459z" />
    <glyph glyph-name="scircumflex" unicode="&#x15d;" horiz-adv-x="1155" 
d="M190 1114l269 361h237l269 -361h-279l-108 176l-109 -176h-279zM430 346q0 -47 43 -75.5t131 -28.5q101 0 101 43q0 27 -44.5 43t-187.5 43q-205 40 -317.5 118.5t-112.5 212.5q0 91 47 160t125 107t165.5 56.5t182.5 18.5q105 0 194 -23t148.5 -60t101.5 -85t61 -98.5
t19 -99.5h-409q0 104 -117 104q-39 0 -63.5 -12.5t-24.5 -36.5q0 -34 79 -57q46 -12 208 -41q50 -9 83 -16t76 -19.5t71 -27t58 -36.5t47.5 -49t28.5 -64.5t11 -82.5q0 -164 -150.5 -262t-402.5 -98q-116 0 -212 23t-159.5 60t-107.5 85.5t-63.5 98t-19.5 99.5h410z" />
    <glyph glyph-name="Scedilla" unicode="&#x15e;" horiz-adv-x="1488" 
d="M500 494q0 -77 68.5 -121.5t176.5 -44.5q244 0 244 98q0 15 -4.5 26.5t-15.5 21t-24.5 16.5t-37 13.5t-46.5 11.5t-59.5 10.5t-69.5 10.5t-83 13t-94 16q-130 23 -219.5 63t-140.5 96.5t-73 123t-22 153.5q0 105 52.5 192t140 143.5t200.5 87t236 30.5q138 0 250.5 -26
t189.5 -71.5t129.5 -108.5t76.5 -135t24 -152h-459q0 76 -53.5 110.5t-157.5 34.5q-71 0 -120.5 -24.5t-49.5 -63.5q0 -54 45.5 -72t276.5 -62q3 -1 4 -1q116 -22 179 -36.5t148 -46.5t128.5 -71.5t75.5 -106t32 -155.5q0 -100 -37.5 -184.5t-111.5 -149.5t-191.5 -104.5
t-269.5 -46.5l-23 -72q100 -11 151.5 -53t51.5 -127q0 -66 -31 -114.5t-79.5 -73.5t-111 -36.5t-123.5 -8.5t-118 16v184q110 -31 173 -20t63 61q0 38 -25 47.5t-109 9.5h-20l41 187q-163 10 -288 56.5t-199.5 118t-112 157t-37.5 180.5h459z" />
    <glyph glyph-name="scedilla" unicode="&#x15f;" horiz-adv-x="1155" 
d="M430 346q0 -47 43 -75.5t131 -28.5q101 0 101 43q0 27 -44.5 43t-187.5 43q-205 40 -317.5 118.5t-112.5 212.5q0 91 47 160t125 107t165.5 56.5t182.5 18.5q105 0 194 -23t148.5 -60t101.5 -85t61 -98.5t19 -99.5h-409q0 104 -117 104q-39 0 -63.5 -12.5t-24.5 -36.5
q0 -34 79 -57q46 -12 208 -41q50 -9 83 -16t76 -19.5t71 -27t58 -36.5t47.5 -49t28.5 -64.5t11 -82.5q0 -149 -125 -244t-340 -112l-23 -74q100 -11 151.5 -53t51.5 -127q0 -66 -31 -114.5t-79.5 -73.5t-111 -36.5t-123.5 -8.5t-118 16v184q110 -31 173 -20t63 61
q0 38 -25 47.5t-109 9.5h-20l41 187q-125 8 -222.5 45t-154 90t-85 111.5t-28.5 117.5h410z" />
    <glyph glyph-name="Scaron" unicode="&#x160;" horiz-adv-x="1488" 
d="M358 1884h279l108 -176l109 176h279l-269 -360h-237zM500 494q0 -77 68.5 -121.5t176.5 -44.5q244 0 244 98q0 15 -4.5 26.5t-15.5 21t-24.5 16.5t-37 13.5t-46.5 11.5t-59.5 10.5t-69.5 10.5t-83 13t-94 16q-130 23 -219.5 63t-140.5 96.5t-73 123t-22 153.5
q0 105 52.5 192t140 143.5t200.5 87t236 30.5q138 0 250.5 -26t189.5 -71.5t129.5 -108.5t76.5 -135t24 -152h-459q0 76 -53.5 110.5t-157.5 34.5q-71 0 -120.5 -24.5t-49.5 -63.5q0 -54 45.5 -72t276.5 -62q3 -1 4 -1q116 -22 179 -36.5t148 -46.5t128.5 -71.5t75.5 -106
t32 -155.5q0 -106 -42 -194t-124.5 -154t-214 -102.5t-301.5 -36.5q-149 0 -271.5 28.5t-205.5 77t-140 114.5t-82.5 139.5t-25.5 154.5h459z" />
    <glyph glyph-name="scaron" unicode="&#x161;" horiz-adv-x="1155" 
d="M190 1475h279l109 -177l108 177h279l-269 -361h-237zM430 346q0 -47 43 -75.5t131 -28.5q101 0 101 43q0 27 -44.5 43t-187.5 43q-205 40 -317.5 118.5t-112.5 212.5q0 91 47 160t125 107t165.5 56.5t182.5 18.5q105 0 194 -23t148.5 -60t101.5 -85t61 -98.5t19 -99.5
h-409q0 104 -117 104q-39 0 -63.5 -12.5t-24.5 -36.5q0 -34 79 -57q46 -12 208 -41q50 -9 83 -16t76 -19.5t71 -27t58 -36.5t47.5 -49t28.5 -64.5t11 -82.5q0 -164 -150.5 -262t-402.5 -98q-116 0 -212 23t-159.5 60t-107.5 85.5t-63.5 98t-19.5 99.5h410z" />
    <glyph glyph-name="uni0162" unicode="&#x162;" horiz-adv-x="1359" 
d="M41 1434h1278v-369h-412v-1065h-454v1065h-412v369zM549 -217q0 55 37.5 92t95.5 37q53 0 90 -37.5t37 -91.5q0 -42 -18 -72l-121 -223h-119l82 172q-39 14 -61.5 46.5t-22.5 76.5z" />
    <glyph glyph-name="uni0163" unicode="&#x163;" horiz-adv-x="813" 
d="M20 1024h107v246h451v-246h215v-365h-215v-239q0 -52 22 -74t68 -22h125v-324h-310q-171 0 -263.5 79.5t-92.5 237.5v342h-107v365zM358 -217q0 55 38 92t96 37q53 0 89.5 -37.5t36.5 -91.5q0 -42 -18 -72l-121 -223h-119l82 172q-39 14 -61.5 46.5t-22.5 76.5z" />
    <glyph glyph-name="Tcaron" unicode="&#x164;" horiz-adv-x="1359" 
d="M293 1884h278l109 -176l108 176h279l-268 -360h-238zM41 1434h1278v-369h-412v-1065h-454v1065h-412v369z" />
    <glyph glyph-name="tcaron" unicode="&#x165;" horiz-adv-x="1419" 
d="M874 1217q0 99 70.5 168t175.5 69q98 0 168 -69.5t70 -167.5q0 -74 -37 -134l-221 -415h-221l151 319q-70 27 -113 88.5t-43 141.5zM20 1024h107v246h451v-246h215v-365h-215v-239q0 -52 22 -74t68 -22h125v-324h-310q-171 0 -263.5 79.5t-92.5 237.5v342h-107v365z" />
    <glyph glyph-name="Tbar" unicode="&#x166;" horiz-adv-x="1359" 
d="M168 737h285v328h-412v369h1278v-369h-412v-328h285v-205h-285v-532h-454v532h-285v205z" />
    <glyph glyph-name="tbar" unicode="&#x167;" horiz-adv-x="813" 
d="M20 1024h107v246h451v-246h215v-262h-215v-82h215v-262h-215q0 -51 22 -72.5t68 -21.5h125v-324h-310q-171 0 -263.5 79.5t-92.5 237.5v101h-107v262h107v82h-107v262z" />
    <glyph glyph-name="Utilde" unicode="&#x168;" horiz-adv-x="1513" 
d="M731 1567q-32 14 -47.5 21t-39 16t-34.5 11.5t-27.5 5t-24.5 -1.5l-19 -9.5t-18 -17.5t-14.5 -27.5t-14.5 -36.5l-197 67q32 90 71.5 145.5t93 82.5t123.5 19.5t160 -48.5q43 -20 67 -30t52 -18t43 -6t31 11.5t26 29.5t19 52l199 -70q-45 -125 -108.5 -185t-147.5 -60
t-193 49zM997 1434h455v-840q0 -315 -171 -464.5t-523 -149.5q-351 0 -524 150t-173 464v840h455v-840q0 -131 55.5 -188.5t186.5 -57.5t185 57t54 189v840z" />
    <glyph glyph-name="utilde" unicode="&#x169;" horiz-adv-x="1312" 
d="M610 1157q-32 14 -47.5 21t-39 16t-34.5 11.5t-27.5 5t-24.5 -1.5l-19 -9.5t-18 -17.5t-14.5 -27.5t-14.5 -36.5l-197 68q32 90 71.5 145.5t93.5 82.5t124 19t160 -49q43 -20 66.5 -30t51.5 -18t43 -6t31 11.5t26 29.5t19 52l199 -69q-45 -125 -108.5 -185t-147.5 -60.5
t-193 48.5zM1313 365v-365h-279q-230 0 -280 180q-115 -200 -359 -200q-174 0 -264 106.5t-90 292.5v645h451v-522q0 -80 26.5 -119t95.5 -39q125 0 125 158v522h451v-543q0 -67 24 -91.5t86 -24.5h13z" />
    <glyph glyph-name="Umacron" unicode="&#x16a;" horiz-adv-x="1513" 
d="M451 1782h614v-205h-614v205zM997 1434h455v-840q0 -315 -171 -464.5t-523 -149.5q-351 0 -524 150t-173 464v840h455v-840q0 -131 55.5 -188.5t186.5 -57.5t185 57t54 189v840z" />
    <glyph glyph-name="umacron" unicode="&#x16b;" horiz-adv-x="1312" 
d="M309 1372h615v-205h-615v205zM1313 365v-365h-279q-230 0 -280 180q-115 -200 -359 -200q-174 0 -264 106.5t-90 292.5v645h451v-522q0 -80 26.5 -119t95.5 -39q125 0 125 158v522h451v-543q0 -67 24 -91.5t86 -24.5h13z" />
    <glyph glyph-name="Ubreve" unicode="&#x16c;" horiz-adv-x="1513" 
d="M393 1905h203q0 -73 39 -123.5t123 -50.5t123 50.5t39 123.5h202q0 -102 -32 -179t-85.5 -119.5t-115.5 -62.5t-131 -20q-55 0 -105 12t-98.5 40.5t-83.5 71t-56.5 108.5t-21.5 149zM997 1434h455v-840q0 -315 -171 -464.5t-523 -149.5q-351 0 -524 150t-173 464v840h455
v-840q0 -131 55.5 -188.5t186.5 -57.5t185 57t54 189v840z" />
    <glyph glyph-name="ubreve" unicode="&#x16d;" horiz-adv-x="1312" 
d="M252 1495h203q0 -73 38.5 -123.5t122.5 -50.5t123 50.5t39 123.5h203q0 -83 -21.5 -149t-56.5 -108.5t-83.5 -71t-98.5 -40.5t-105 -12q-69 0 -131 20t-115.5 62.5t-85.5 119.5t-32 179zM1313 365v-365h-279q-230 0 -280 180q-115 -200 -359 -200q-174 0 -264 106.5
t-90 292.5v645h451v-522q0 -80 26.5 -119t95.5 -39q125 0 125 158v522h451v-543q0 -67 24 -91.5t86 -24.5h13z" />
    <glyph glyph-name="Uring" unicode="&#x16e;" horiz-adv-x="1513" 
d="M536 1588q-94 93 -94 222t93.5 222.5t222.5 93.5t222 -93.5t93 -222.5t-93 -222t-222 -93t-222 93zM669 1900q-40 -39 -40 -90t39.5 -90t89.5 -39q51 0 90 39t39 90t-39 90t-90 39q-50 0 -89 -39zM997 1434h455v-840q0 -315 -171 -464.5t-523 -149.5q-351 0 -524 150
t-173 464v840h455v-840q0 -131 55.5 -188.5t186.5 -57.5t185 57t54 189v840z" />
    <glyph glyph-name="uring" unicode="&#x16f;" horiz-adv-x="1312" 
d="M394 1179q-93 93 -93 222t93 222t222 93t222.5 -93t93.5 -222t-93.5 -222.5t-222.5 -93.5t-222 94zM527 1491q-40 -39 -40 -90t39.5 -90t89.5 -39q51 0 90 39t39 90t-39 90t-90 39q-50 0 -89 -39zM1313 365v-365h-279q-230 0 -280 180q-115 -200 -359 -200
q-174 0 -264 106.5t-90 292.5v645h451v-522q0 -80 26.5 -119t95.5 -39q125 0 125 158v522h451v-543q0 -67 24 -91.5t86 -24.5h13z" />
    <glyph glyph-name="Uhungarumlaut" unicode="&#x170;" horiz-adv-x="1513" 
d="M827 1524l115 360h268l-159 -360h-224zM457 1524l114 360h269l-160 -360h-223zM997 1434h455v-840q0 -315 -171 -464.5t-523 -149.5q-351 0 -524 150t-173 464v840h455v-840q0 -131 55.5 -188.5t186.5 -57.5t185 57t54 189v840z" />
    <glyph glyph-name="uhungarumlaut" unicode="&#x171;" horiz-adv-x="1312" 
d="M700 1114l115 361h268l-159 -361h-224zM330 1114l114 361h269l-160 -361h-223zM1313 365v-365h-279q-230 0 -280 180q-115 -200 -359 -200q-174 0 -264 106.5t-90 292.5v645h451v-522q0 -80 26.5 -119t95.5 -39q125 0 125 158v522h451v-543q0 -67 24 -91.5t86 -24.5h13z
" />
    <glyph glyph-name="Uogonek" unicode="&#x172;" horiz-adv-x="1513" 
d="M997 1434h455v-840q0 -276 -130 -424t-398 -180q-68 -71 -103 -124t-35 -104q0 -38 21.5 -57.5t63 -20t86 7.5t106.5 25v-204q-52 -13 -113 -18t-127 2t-119.5 27t-88.5 64t-35 107q0 122 143 285q-333 8 -497.5 158t-164.5 456v840h455v-840q0 -131 55.5 -188.5
t186.5 -57.5t185 57t54 189v840z" />
    <glyph glyph-name="uogonek" unicode="&#x173;" horiz-adv-x="1312" 
d="M1313 365v-365h-150q-63 -68 -95 -118.5t-32 -98.5q0 -38 21.5 -57.5t63 -20t86 7.5t106.5 25v-205q-52 -13 -113 -18t-127.5 2t-120 27t-88.5 64t-35 107q0 123 146 289q-177 20 -221 176q-115 -200 -359 -200q-174 0 -264 106.5t-90 292.5v645h451v-522
q0 -80 26.5 -119t95.5 -39q125 0 125 158v522h451v-543q0 -67 24 -91.5t86 -24.5h13z" />
    <glyph glyph-name="Wcircumflex" unicode="&#x174;" horiz-adv-x="2277" 
d="M752 1524l268 360h237l269 -360h-279l-108 176l-109 -176h-278zM471 0l-430 1434h434l225 -875l222 875h413l221 -875l226 875h454l-450 -1434h-475l-183 709l-182 -709h-475z" />
    <glyph glyph-name="wcircumflex" unicode="&#x175;" horiz-adv-x="1763" 
d="M496 1114l268 361h237l269 -361h-279l-108 176l-109 -176h-278zM20 1024h453l96 -485l127 485h371l127 -485l96 485h453l-307 -1024h-432l-121 508l-123 -508h-432z" />
    <glyph glyph-name="Ycircumflex" unicode="&#x176;" horiz-adv-x="1724" 
d="M475 1524l268 360h238l268 -360h-278l-109 176l-108 -176h-279zM635 430l-594 1004h524l297 -609l297 609h524l-593 -1004v-430h-455v430z" />
    <glyph glyph-name="ycircumflex" unicode="&#x177;" horiz-adv-x="1292" 
d="M260 1114l268 361h238l268 -361h-278l-109 176l-108 -176h-279zM1272 1024l-418 -1044q-35 -87 -63 -142t-69 -102.5t-86.5 -72.5t-118 -43t-160 -24t-216.5 -6v369q190 0 215 4q37 5 50 29q2 3 4 8l10 25l-400 999h453l178 -557l168 557h453z" />
    <glyph glyph-name="Ydieresis" unicode="&#x178;" horiz-adv-x="1724" 
d="M451 1706q0 74 52 125t128 51q73 0 124.5 -51t51.5 -125q0 -76 -51 -128t-125 -52q-77 0 -128.5 52t-51.5 128zM922 1706q0 74 52 125t128 51q74 0 125 -51t51 -125q0 -76 -51 -128t-125 -52q-76 0 -128 52t-52 128zM635 430l-594 1004h524l297 -609l297 609h524
l-593 -1004v-430h-455v430z" />
    <glyph glyph-name="Zacute" unicode="&#x179;" horiz-adv-x="1306" 
d="M524 1524l115 360h268l-159 -360h-224zM1212 1434v-361l-573 -704h627v-369h-1225v360l573 705h-557v369h1155z" />
    <glyph glyph-name="zacute" unicode="&#x17a;" horiz-adv-x="1019" 
d="M381 1114l115 361h268l-160 -361h-223zM967 1024v-315l-336 -344h368v-365h-979v315l336 344h-319v365h930z" />
    <glyph glyph-name="Zdotaccent" unicode="&#x17b;" horiz-adv-x="1306" 
d="M477 1704q0 74 52 125t128 51q74 0 125.5 -51.5t51.5 -124.5q0 -76 -51.5 -128t-125.5 -52q-77 0 -128.5 52t-51.5 128zM1212 1434v-361l-573 -704h627v-369h-1225v360l573 705h-557v369h1155z" />
    <glyph glyph-name="zdotaccent" unicode="&#x17c;" horiz-adv-x="1019" 
d="M334 1294q0 74 52 125t128 51q74 0 125 -51t51 -125q0 -76 -51 -128t-125 -52q-76 0 -128 52t-52 128zM967 1024v-315l-336 -344h368v-365h-979v315l336 344h-319v365h930z" />
    <glyph glyph-name="Zcaron" unicode="&#x17d;" horiz-adv-x="1306" 
d="M266 1884h279l108 -176l109 176h278l-268 -360h-237zM1212 1434v-361l-573 -704h627v-369h-1225v360l573 705h-557v369h1155z" />
    <glyph glyph-name="zcaron" unicode="&#x17e;" horiz-adv-x="1019" 
d="M123 1475h278l109 -177l108 177h279l-268 -361h-238zM967 1024v-315l-336 -344h368v-365h-979v315l336 344h-319v365h930z" />
    <glyph glyph-name="longs" unicode="&#x17f;" horiz-adv-x="686" 
d="M666 1151h-105q-46 0 -68 -22t-22 -74v-1055h-451v1137q0 158 93 237.5t264 79.5h289v-303z" />
    <glyph glyph-name="florin" unicode="&#x192;" horiz-adv-x="882" 
d="M860 1151h-104q-46 0 -68 -22t-22 -74v-31h196v-365h-196v-751q0 -158 -93 -238t-264 -80h-289v324h105q46 0 68 22t22 74v649h-94v365h94v113q0 158 92.5 237.5t263.5 79.5h289v-303z" />
    <glyph glyph-name="uni0218" unicode="&#x218;" horiz-adv-x="1488" 
d="M500 494q0 -77 68.5 -121.5t176.5 -44.5q244 0 244 98q0 15 -4.5 26.5t-15.5 21t-24.5 16.5t-37 13.5t-46.5 11.5t-59.5 10.5t-69.5 10.5t-83 13t-94 16q-130 23 -219.5 63t-140.5 96.5t-73 123t-22 153.5q0 105 52.5 192t140 143.5t200.5 87t236 30.5q138 0 250.5 -26
t189.5 -71.5t129.5 -108.5t76.5 -135t24 -152h-459q0 76 -53.5 110.5t-157.5 34.5q-71 0 -120.5 -24.5t-49.5 -63.5q0 -54 45.5 -72t276.5 -62q3 -1 4 -1q116 -22 179 -36.5t148 -46.5t128.5 -71.5t75.5 -106t32 -155.5q0 -106 -42 -194t-124.5 -154t-214 -102.5
t-301.5 -36.5q-149 0 -271.5 28.5t-205.5 77t-140 114.5t-82.5 139.5t-25.5 154.5h459zM614 -217q0 55 38 92t96 37q53 0 89.5 -37.5t36.5 -91.5q0 -42 -18 -72l-121 -223h-119l82 172q-39 14 -61.5 46.5t-22.5 76.5z" />
    <glyph glyph-name="uni0219" unicode="&#x219;" horiz-adv-x="1155" 
d="M430 346q0 -47 43 -75.5t131 -28.5q101 0 101 43q0 27 -44.5 43t-187.5 43q-205 40 -317.5 118.5t-112.5 212.5q0 91 47 160t125 107t165.5 56.5t182.5 18.5q105 0 194 -23t148.5 -60t101.5 -85t61 -98.5t19 -99.5h-409q0 104 -117 104q-39 0 -63.5 -12.5t-24.5 -36.5
q0 -34 79 -57q46 -12 208 -41q50 -9 83 -16t76 -19.5t71 -27t58 -36.5t47.5 -49t28.5 -64.5t11 -82.5q0 -164 -150.5 -262t-402.5 -98q-116 0 -212 23t-159.5 60t-107.5 85.5t-63.5 98t-19.5 99.5h410zM446 -217q0 55 38 92t96 37q53 0 90 -37.5t37 -91.5q0 -40 -19 -72
l-121 -223h-118l81 172q-39 14 -61.5 46.5t-22.5 76.5z" />
    <glyph glyph-name="uni021A" unicode="&#x21a;" horiz-adv-x="1359" 
d="M41 1434h1278v-369h-412v-1065h-454v1065h-412v369zM549 -217q0 55 37.5 92t95.5 37q53 0 90 -37.5t37 -91.5q0 -42 -18 -72l-121 -223h-119l82 172q-39 14 -61.5 46.5t-22.5 76.5z" />
    <glyph glyph-name="uni021B" unicode="&#x21b;" horiz-adv-x="813" 
d="M20 1024h107v246h451v-246h215v-365h-215v-239q0 -52 22 -74t68 -22h125v-324h-310q-171 0 -263.5 79.5t-92.5 237.5v342h-107v365zM358 -217q0 55 38 92t96 37q53 0 89.5 -37.5t36.5 -91.5q0 -42 -18 -72l-121 -223h-119l82 172q-39 14 -61.5 46.5t-22.5 76.5z" />
    <glyph glyph-name="uni0237" unicode="&#x237;" horiz-adv-x="532" 
d="M20 1298q0 99 71 168.5t175 69.5q98 0 168 -70t70 -168q0 -104 -69.5 -174.5t-168.5 -70.5q-104 0 -175 70.5t-71 174.5zM-154 -86h105q46 0 68 22t22 74v1014h451v-1116q0 -158 -93 -238t-264 -80h-289v324z" />
    <glyph glyph-name="circumflex" unicode="&#x2c6;" horiz-adv-x="897" 
d="M61 1114l269 361h237l269 -361h-279l-108 176l-109 -176h-279z" />
    <glyph glyph-name="caron" unicode="&#x2c7;" horiz-adv-x="897" 
d="M61 1475h279l109 -177l108 177h279l-269 -361h-237z" />
    <glyph glyph-name="uni02C9" unicode="&#x2c9;" horiz-adv-x="737" 
d="M61 1372h615v-205h-615v205z" />
    <glyph glyph-name="breve" unicode="&#x2d8;" horiz-adv-x="851" 
d="M61 1495h203q0 -73 39 -123.5t123 -50.5t123 50.5t39 123.5h203q0 -83 -21.5 -149t-56.5 -108.5t-83.5 -71t-98.5 -40.5t-105 -12t-105 12t-98.5 40.5t-83.5 71t-56.5 108.5t-21.5 149z" />
    <glyph glyph-name="dotaccent" unicode="&#x2d9;" horiz-adv-x="481" 
d="M63 1294q0 74 52.5 125t128.5 51q74 0 125 -51t51 -125q0 -76 -51 -128t-125 -52q-77 0 -129 52t-52 128z" />
    <glyph glyph-name="ring" unicode="&#x2da;" horiz-adv-x="757" 
d="M157 1179q-94 93 -94 222t93.5 222t222.5 93t222 -93t93 -222t-93 -222.5t-222 -93.5t-222 94zM290 1491q-40 -39 -40 -90t39.5 -90t89.5 -39q51 0 90 39t39 90t-39 90t-90 39q-50 0 -89 -39z" />
    <glyph glyph-name="ogonek" unicode="&#x2db;" horiz-adv-x="606" 
d="M297 80l111 -88q-69 -73 -104.5 -126t-35.5 -104q0 -38 21.5 -57.5t63 -20t86 7.5t106.5 25v-204q-52 -13 -113 -18t-127.5 2t-120 27t-88.5 64t-35 107q0 22 5 45.5t11.5 43.5t20 45t23.5 42t29.5 42.5t29.5 38.5t32.5 37.5t29.5 32.5t30 31.5t25 26.5z" />
    <glyph glyph-name="tilde" unicode="&#x2dc;" horiz-adv-x="1007" 
d="M498 1157q-40 18 -59.5 26t-47 18t-40 9.5t-29 -3t-26 -14.5t-19.5 -29.5t-19 -45.5l-197 68q32 90 71.5 145.5t93.5 82.5t124 19t160 -49q43 -20 67 -30t52 -18t43 -6t31 11.5t26 29.5t19 52l198 -69q-45 -125 -108 -185t-147.5 -60.5t-192.5 48.5z" />
    <glyph glyph-name="hungarumlaut" unicode="&#x2dd;" horiz-adv-x="876" 
d="M432 1114l115 361h268l-160 -361h-223zM61 1114l115 361h268l-159 -361h-224z" />
    <glyph glyph-name="uni0326" unicode="&#x326;" horiz-adv-x="385" 
d="M61 -217q0 55 38 92t96 37q53 0 90 -37.5t37 -91.5q0 -40 -19 -72l-121 -223h-119l82 172q-39 14 -61.5 46.5t-22.5 76.5z" />
    <glyph glyph-name="uni0394" unicode="&#x394;" horiz-adv-x="1562" 
d="M20 0l574 1434h375l573 -1434h-1522zM512 348h539l-269 674z" />
    <glyph glyph-name="uni03A9" unicode="&#x3a9;" horiz-adv-x="1738" 
d="M930 348q75 33 129 72t84.5 77.5t48 87.5t22.5 92t5 101q0 142 -99 224.5t-252 82.5q-152 0 -250 -82t-98 -225q0 -59 5 -101.5t22 -92t47.5 -87.5t84 -77t128.5 -72v-348h-746v348h336q-336 181 -336 471q0 154 63.5 276.5t174 200t255.5 118t314 40.5t314.5 -40.5
t256.5 -118t174.5 -200t63.5 -276.5q0 -291 -338 -471h336v-348h-745v348z" />
    <glyph glyph-name="uni03BC" unicode="&#x3bc;" horiz-adv-x="1312" 
d="M1313 365v-365h-279q-230 0 -280 180q-87 -155 -262 -190v-400h-451v1434h451v-522q0 -80 26.5 -119t95.5 -39q125 0 125 158v522h451v-543q0 -67 24 -91.5t86 -24.5h13z" />
    <glyph glyph-name="pi" unicode="&#x3c0;" horiz-adv-x="1337" 
d="M61 1024h1215v-1024h-455v655h-166l-118 -655h-455l119 655h-140v369z" />
    <glyph glyph-name="Wgrave" unicode="&#x1e80;" horiz-adv-x="2277" 
d="M1233 1524h-223l-168 360h268zM471 0l-430 1434h434l225 -875l222 875h413l221 -875l226 875h454l-450 -1434h-475l-183 709l-182 -709h-475z" />
    <glyph glyph-name="wgrave" unicode="&#x1e81;" horiz-adv-x="1763" 
d="M975 1114h-223l-168 361h268zM20 1024h453l96 -485l127 485h371l127 -485l96 485h453l-307 -1024h-432l-121 508l-123 -508h-432z" />
    <glyph glyph-name="Wacute" unicode="&#x1e82;" horiz-adv-x="2277" 
d="M1051 1524l114 360h269l-160 -360h-223zM471 0l-430 1434h434l225 -875l222 875h413l221 -875l226 875h454l-450 -1434h-475l-183 709l-182 -709h-475z" />
    <glyph glyph-name="wacute" unicode="&#x1e83;" horiz-adv-x="1763" 
d="M793 1114l114 361h269l-160 -361h-223zM20 1024h453l96 -485l127 485h371l127 -485l96 485h453l-307 -1024h-432l-121 508l-123 -508h-432z" />
    <glyph glyph-name="Wdieresis" unicode="&#x1e84;" horiz-adv-x="2277" 
d="M727 1706q0 74 52 125t128 51q73 0 124.5 -51t51.5 -125q0 -76 -51 -128t-125 -52q-77 0 -128.5 52t-51.5 128zM1198 1706q0 74 52 125t128 51q74 0 125 -51t51 -125q0 -76 -51 -128t-125 -52q-76 0 -128 52t-52 128zM471 0l-430 1434h434l225 -875l222 875h413l221 -875
l226 875h454l-450 -1434h-475l-183 709l-182 -709h-475z" />
    <glyph glyph-name="wdieresis" unicode="&#x1e85;" horiz-adv-x="1763" 
d="M469 1296q0 74 52 125.5t128 51.5q73 0 124.5 -51.5t51.5 -125.5q0 -76 -51 -128t-125 -52q-77 0 -128.5 52t-51.5 128zM940 1296q0 74 52 125.5t128 51.5q73 0 124.5 -51.5t51.5 -125.5q0 -76 -51 -128t-125 -52q-76 0 -128 52t-52 128zM20 1024h453l96 -485l127 485
h371l127 -485l96 485h453l-307 -1024h-432l-121 508l-123 -508h-432z" />
    <glyph glyph-name="endash" unicode="&#x2013;" horiz-adv-x="942" 
d="M61 655h820v-286h-820v286z" />
    <glyph glyph-name="emdash" unicode="&#x2014;" horiz-adv-x="1146" 
d="M61 655h1024v-286h-1024v286z" />
    <glyph glyph-name="quoteleft" unicode="&#x2018;" horiz-adv-x="606" 
d="M545 905q0 -99 -70.5 -168t-175.5 -69q-98 0 -168 69.5t-70 167.5q0 73 37 133l221 416h222l-152 -319q70 -27 113 -88.5t43 -141.5z" />
    <glyph glyph-name="quoteright" unicode="&#x2019;" horiz-adv-x="606" 
d="M61 1217q0 99 70.5 168t175.5 69q98 0 168 -69.5t70 -167.5q0 -74 -37 -134l-221 -415h-221l151 319q-70 27 -113 88.5t-43 141.5z" />
    <glyph glyph-name="quotesinglbase" unicode="&#x201a;" horiz-adv-x="417" 
d="M61 10q0 61 43 103.5t107 42.5q60 0 102.5 -43t42.5 -103q0 -46 -22 -82l-135 -252h-136l93 195q-43 15 -69 52.5t-26 86.5z" />
    <glyph glyph-name="quotedblleft" unicode="&#x201c;" horiz-adv-x="1159" 
d="M1098 905q0 -99 -70.5 -168t-175.5 -69q-98 0 -168 69.5t-70 167.5q0 73 37 133l221 416h222l-152 -319q70 -27 113 -88.5t43 -141.5zM545 905q0 -99 -70.5 -168t-175.5 -69q-98 0 -168 69.5t-70 167.5q0 73 37 133l221 416h222l-152 -319q70 -27 113 -88.5t43 -141.5z
" />
    <glyph glyph-name="quotedblright" unicode="&#x201d;" horiz-adv-x="1159" 
d="M61 1217q0 99 70.5 168t175.5 69q98 0 168 -69.5t70 -167.5q0 -74 -37 -134l-221 -415h-221l151 319q-70 27 -113 88.5t-43 141.5zM614 1217q0 99 70.5 168t175.5 69q98 0 168 -69.5t70 -167.5q0 -74 -37 -134l-221 -415h-222l152 319q-70 27 -113 88.5t-43 141.5z" />
    <glyph glyph-name="quotedblbase" unicode="&#x201e;" horiz-adv-x="778" 
d="M41 -123v451h328l-93 -451h-235zM410 -123v451h327l-92 -451h-235z" />
    <glyph glyph-name="dagger" unicode="&#x2020;" horiz-adv-x="858" 
d="M248 1434h362v-410h207v-362h-207v-1072h-362v1072h-207v362h207v410z" />
    <glyph glyph-name="daggerdbl" unicode="&#x2021;" horiz-adv-x="858" 
d="M41 1188h207v246h362v-246h207v-363h-207v-626h207v-363h-207v-246h-362v246h-207v363h207v626h-207v363z" />
    <glyph glyph-name="bullet" unicode="&#x2022;" horiz-adv-x="567" 
d="M61 514q0 93 65 156t161 63q92 0 155.5 -63.5t63.5 -155.5q0 -96 -63 -160.5t-156 -64.5q-97 0 -161.5 64t-64.5 161z" />
    <glyph glyph-name="ellipsis" unicode="&#x2026;" horiz-adv-x="1818" 
d="M61 225q0 99 70.5 168.5t175.5 69.5q98 0 168 -70t70 -168q0 -105 -69.5 -175t-168.5 -70q-106 0 -176 69.5t-70 175.5zM668 225q0 99 70 168.5t175 69.5q98 0 168 -70t70 -168q0 -105 -69.5 -175t-168.5 -70q-106 0 -175.5 69.5t-69.5 175.5zM1274 225q0 99 70.5 168.5
t175.5 69.5q98 0 167.5 -70t69.5 -168q0 -105 -69 -175t-168 -70q-106 0 -176 69.5t-70 175.5z" />
    <glyph glyph-name="perthousand" unicode="&#x2030;" horiz-adv-x="3088" 
d="M155 686q-112 117 -112 326t111 325.5t311 116.5q201 0 312.5 -116.5t111.5 -325.5t-111.5 -326t-312.5 -117q-199 0 -310 117zM653 0l574 1434h280l-573 -1434h-281zM465 1233q-148 0 -148 -221t148 -221q149 0 149 221t-149 221zM1383 97q-111 116 -111 325t111 325.5
t311 116.5q201 0 312.5 -116.5t111.5 -325.5t-111.5 -325.5t-312.5 -116.5q-200 0 -311 117zM2311 97q-111 116 -111 325t111 325.5t310 116.5q201 0 312.5 -116.5t111.5 -325.5t-111.5 -325.5t-312.5 -116.5q-199 0 -310 117zM1694 643q-148 0 -148 -221t148 -221
q149 0 149 221t-149 221zM2621 643q-77 0 -112 -56t-35 -165t35 -165t112 -56q150 0 150 221t-150 221z" />
    <glyph glyph-name="guilsinglleft" unicode="&#x2039;" horiz-adv-x="763" 
d="M61 512l281 492h360l-284 -492l284 -492h-360z" />
    <glyph glyph-name="guilsinglright" unicode="&#x203a;" horiz-adv-x="763" 
d="M702 512l-280 -492h-361l285 492l-285 492h361z" />
    <glyph glyph-name="fraction" unicode="&#x2044;" horiz-adv-x="935" 
d="M41 0l573 1434h281l-573 -1434h-281z" />
    <glyph glyph-name="Euro" unicode="&#x20ac;" horiz-adv-x="1755" 
d="M664 717v-31h428v-205h-371q86 -133 268 -133q111 0 191 73t80 179h454q0 -86 -28 -172.5t-88 -167t-143.5 -143t-204.5 -100t-261 -37.5q-179 0 -331 59t-261.5 173t-156.5 269h-199v205h164v31q0 8 1 25.5t1 25.5h-166v205h205q76 225 277 353t466 128q140 0 261 -37.5
t204.5 -100t143.5 -143t88 -167t28 -172.5h-454q0 106 -79.5 178.5t-191.5 72.5q-168 0 -254 -112h357v-205h-426q-2 -16 -2 -51z" />
    <glyph glyph-name="trademark" unicode="&#x2122;" horiz-adv-x="1691" 
d="M63 1434h637v-185h-204v-532h-228v532h-205v185zM752 1434h227l213 -467l211 467h227v-717h-217v332l-141 -332h-160l-143 334v-334h-217v717z" />
    <glyph glyph-name="partialdiff" unicode="&#x2202;" horiz-adv-x="1312" 
d="M698 1434l502 -709q72 -112 72 -246q0 -148 -79 -262t-218.5 -175.5t-317.5 -61.5q-170 0 -310 61t-223 176t-83 262q0 182 122.5 311t319.5 171l-346 473h561zM657 324q68 0 114 42.5t46 112.5t-46 113t-114 43q-69 0 -115 -43t-46 -113t46 -112.5t115 -42.5z" />
    <glyph glyph-name="product" unicode="&#x220f;" horiz-adv-x="1234" 
d="M61 1434h1113v-1844h-353v1495h-407v-1495h-353v1844z" />
    <glyph glyph-name="summation" unicode="&#x2211;" horiz-adv-x="1030" 
d="M989 1434v-308h-473l246 -614l-246 -614h473v-308h-948l369 922l-369 922h948z" />
    <glyph glyph-name="minus" unicode="&#x2212;" horiz-adv-x="819" 
d="M61 655h697v-286h-697v286z" />
    <glyph glyph-name="uni2215" unicode="&#x2215;" horiz-adv-x="1058" 
d="M41 0l696 1434h281l-696 -1434h-281z" />
    <glyph glyph-name="uni2219" unicode="&#x2219;" horiz-adv-x="606" 
d="M61 512q0 99 70.5 168.5t175.5 69.5q98 0 168 -70t70 -168q0 -105 -69.5 -175.5t-168.5 -70.5q-106 0 -176 70t-70 176z" />
    <glyph glyph-name="radical" unicode="&#x221a;" horiz-adv-x="1671" 
d="M41 649h561l176 -481l490 1266h362l-653 -1639h-404l-198 508h-334v346z" />
    <glyph glyph-name="infinity" unicode="&#x221e;" horiz-adv-x="1255" 
d="M1194 594q0 -141 -99 -240.5t-239 -99.5q-138 0 -225 100q-90 -100 -230 -100q-141 0 -240.5 99.5t-99.5 240.5q0 140 99.5 240t240.5 100q140 0 230 -103q87 103 225 103q139 0 238.5 -100t99.5 -240zM759 694q-42 -42 -42 -100t41.5 -99.5t99.5 -41.5q57 0 98 41.5
t41 99.5t-41 99.5t-98 41.5q-58 0 -99 -41zM547 586q0 58 -41.5 99.5t-99.5 41.5q-59 0 -100.5 -41.5t-41.5 -99.5t42 -100t100 -42t99.5 41.5t41.5 100.5z" />
    <glyph glyph-name="integral" unicode="&#x222b;" horiz-adv-x="794" 
d="M774 1090q-51 0 -82.5 -7.5t-46 -25t-18.5 -35.5t-4 -49v-1045q0 -63 -2 -100.5t-12.5 -77t-25.5 -60t-48 -41.5t-73 -30t-107.5 -17t-144 -10t-190.5 -2v365q51 0 83 7.5t46.5 25t18.5 35.5t4 49v1044q0 63 2 100.5t12.5 77t25 60t47.5 41.5t73 30t107.5 17t144 10
t190.5 2v-364z" />
    <glyph glyph-name="approxequal" unicode="&#x2248;" horiz-adv-x="1267" 
d="M80 862q79 205 204.5 248t360.5 -53q103 -42 141.5 -56t78 -17t52.5 13.5t31 57.5l21 47l237 -96l-18 -48q-79 -205 -204 -246.5t-359 54.5l-77.5 31t-60.5 22t-48.5 14.5t-35.5 5t-29 -3t-20.5 -13t-18.5 -21.5t-16 -33l-20 -49l-238 96z" />
    <glyph glyph-name="notequal" unicode="&#x2260;" horiz-adv-x="937" 
d="M63 -205l117 369h-59v287h149l37 122h-186v287h276l117 369h363l-117 -369h57v-287h-147l-37 -122h184v-287h-274l-117 -369h-363z" />
    <glyph glyph-name="lessequal" unicode="&#x2264;" horiz-adv-x="892" 
d="M41 997l811 457v-369l-383 -188l383 -190v-367l-811 457v200zM41 287h811v-287h-811v287z" />
    <glyph glyph-name="greaterequal" unicode="&#x2265;" horiz-adv-x="892" 
d="M852 997v-200l-811 -457v367l383 190l-383 188v369zM852 287v-287h-811v287h811z" />
    <glyph glyph-name="uni24C5" unicode="&#x24c5;" horiz-adv-x="1599" 
d="M122 429q-59 136 -59 286t58.5 287t157 236t235.5 157.5t287 58.5q200 0 369.5 -99t268.5 -269t99 -371q0 -200 -99 -369t-268.5 -267.5t-369.5 -98.5q-150 0 -287 58t-235.5 156.5t-156.5 234.5zM170 715q0 -170 84.5 -315t230 -229.5t316.5 -84.5t316.5 84.5t230 229.5
t84.5 315q0 128 -50 245t-134.5 202t-201.5 135.5t-245 50.5t-245 -50.5t-201.5 -135.5t-134.5 -202t-50 -245zM889 1067q36 0 71 -5.5t73 -21.5t66.5 -41t47 -67t18.5 -96q0 -53 -18.5 -97t-47.5 -71.5t-66 -46.5t-73 -27t-71 -8h-156v-221h-223v702h379zM733 754h135
q72 0 72 73q0 72 -72 72h-135v-145z" />
    <glyph glyph-name="lozenge" unicode="&#x25ca;" horiz-adv-x="1153" 
d="M20 510l369 924h375l369 -924l-369 -920h-375zM780 510l-202 510l-205 -510l205 -508z" />
    <glyph glyph-name="uniF8FF" unicode="&#xf8ff;" horiz-adv-x="681" 
 />
    <glyph glyph-name="fi" unicode="&#xfb01;" horiz-adv-x="1314" 
d="M809 1298q0 99 71 168.5t175 69.5q98 0 167.5 -70t69.5 -168q0 -104 -69 -174.5t-168 -70.5q-104 0 -175 70.5t-71 174.5zM760 1151h-105q-46 0 -68 -22t-22 -74v-31h709v-1024h-451v659h-258v-659h-450v659h-95v365h95v113q0 158 92.5 237.5t263.5 79.5h289v-303z" />
    <glyph glyph-name="fl" unicode="&#xfb02;" horiz-adv-x="1396" 
d="M20 1024h95v113q0 158 92.5 237.5t263.5 79.5h803v-973q0 -67 24 -91.5t86 -24.5h13v-365h-279q-151 0 -223 74.5t-72 222.5v854h-168q-46 0 -68 -22t-22 -74v-31h135v-365h-135v-659h-450v659h-95v365z" />
    <glyph glyph-name="zero.lnum_tnum" horiz-adv-x="1638" 
d="M299 175q-186 194 -186 542t185.5 542.5t518.5 194.5q334 0 520.5 -194.5t186.5 -542.5t-186.5 -542.5t-520.5 -194.5q-333 0 -518 195zM1006 992q-60 93 -189 93t-187.5 -93t-58.5 -275t58.5 -275.5t187.5 -93.5t188.5 93.5t59.5 275.5t-59 275z" />
    <glyph glyph-name="one.lnum_tnum" horiz-adv-x="1638" 
d="M948 1434h322v-1434h-455v1004l-315 -146l-131 309z" />
    <glyph glyph-name="two.lnum_tnum" horiz-adv-x="1638" 
d="M268 369l535 448q60 50 84 90t24 84q0 36 -11 60.5t-30 35.5t-35.5 15t-35.5 4q-74 0 -99.5 -54.5t-25.5 -172.5h-459q0 85 15.5 161t56.5 154t104.5 134t168 91t239.5 35q86 0 163 -13t153.5 -47.5t131.5 -88t89 -139.5t34 -197q0 -27 -4 -55t-25 -81t-56.5 -106
t-106 -124.5t-166.5 -141.5l-127 -92h536v-369h-1153v369z" />
    <glyph glyph-name="three.lnum_tnum" horiz-adv-x="1433" 
d="M537 578v282h153q105 0 105 129q0 60 -24.5 88.5t-78.5 28.5q-46 0 -70 -33t-24 -133h-459q0 108 34.5 200t101 163t174.5 111t245 40q151 0 271.5 -45.5t194 -139.5t73.5 -222q0 -103 -46 -183t-128 -131q119 -42 187.5 -124.5t68.5 -205.5q0 -191 -161.5 -306
t-418.5 -115q-151 0 -271.5 42.5t-194 113.5t-112 157.5t-38.5 179.5h459q0 -70 38 -107.5t105 -37.5q69 0 102 39t33 98q0 56 -28.5 83.5t-75.5 27.5h-215z" />
    <glyph glyph-name="four.lnum_tnum" horiz-adv-x="1638" 
d="M852 1434h455v-779h163v-307h-163v-348h-455v348h-686v277zM578 655h274v330z" />
    <glyph glyph-name="five.lnum_tnum" horiz-adv-x="1638" 
d="M262 526l103 908h948v-369h-535l-20 -180q79 33 178 33q62 0 127 -17t128 -54t112 -89t79.5 -128.5t30.5 -166.5q0 -216 -159.5 -349.5t-413.5 -133.5q-171 0 -310 56t-223 166.5t-84 256.5h455q0 -64 37.5 -99.5t103.5 -35.5q139 0 139 122q0 64 -33 95.5t-89 31.5
q-62 0 -119 -47h-455z" />
    <glyph glyph-name="six.lnum_tnum" horiz-adv-x="1638" 
d="M776 1434h561l-346 -473q197 -42 320 -171t123 -311q0 -147 -83.5 -262t-223.5 -176t-310 -61q-178 0 -317.5 61.5t-218 175.5t-78.5 262q0 136 71 246zM817 324q69 0 115.5 42.5t46.5 112.5t-46.5 113t-115.5 43q-68 0 -114 -43t-46 -113t46 -112.5t114 -42.5z" />
    <glyph glyph-name="seven.lnum_tnum" horiz-adv-x="1638" 
d="M1346 1434v-361l-484 -1073h-497l493 1065h-565v369h1053z" />
    <glyph glyph-name="eight.lnum_tnum" horiz-adv-x="1638" 
d="M413 1342q159 112 406 112t406 -112t159 -298q0 -184 -184 -303q104 -57 164.5 -141t60.5 -190q0 -99 -49 -181.5t-132.5 -136t-193 -83t-231.5 -29.5t-231.5 29.5t-193 83t-132.5 136t-49 181.5q0 106 60.5 190t164.5 141q-184 119 -184 303q0 186 159 298zM721 923
q32 -34 98 -34t98.5 33.5t32.5 76.5t-32.5 77t-98.5 34t-98.5 -34t-32.5 -77t33 -76zM709 362q41 -38 110 -38t110.5 38t41.5 93q0 54 -41 90.5t-111 36.5t-110.5 -36.5t-40.5 -90.5q0 -55 41 -93z" />
    <glyph glyph-name="nine.lnum_tnum" horiz-adv-x="1638" 
d="M883 0h-561l329 471q-199 42 -322.5 171t-123.5 312q0 147 83 262t223 176.5t310 61.5q178 0 317.5 -61.5t218.5 -176t79 -262.5q0 -133 -72 -245zM821 1110q-69 0 -115.5 -43t-46.5 -113t46.5 -112.5t115.5 -42.5q68 0 114 42.5t46 112.5t-46 113t-114 43z" />
    </font>
</defs>
</svg>
