<?xml version="1.0" standalone="no"?>
<!DOCTYPE svg PUBLIC "-//W3C//DTD SVG 1.1//EN" "http://www.w3.org/Graphics/SVG/1.1/DTD/svg11.dtd" >
<svg xmlns="http://www.w3.org/2000/svg" xmlns:xlink="http://www.w3.org/1999/xlink" version="1.1">
<metadata>
Created by FontForge 20230101 at Sat May 29 15:17:12 2021
 By Unknown
Tour de Force Font Foundry &#38; Dusan Jelesijevic
</metadata>
<defs>
<font id="Lupio-Medium" horiz-adv-x="1251" >
  <font-face 
    font-family="Lupio-Medium"
    font-weight="500"
    font-stretch="normal"
    units-per-em="2048"
    panose-1="0 0 0 0 0 0 0 0 0 0"
    ascent="1638"
    descent="-410"
    x-height="1024"
    cap-height="1434"
    bbox="-231 -512 180259 89697"
    underline-thickness="102"
    underline-position="-358"
    unicode-range="U+000D-FB02"
  />
<missing-glyph horiz-adv-x="1024" 
 />
    <glyph glyph-name=".notdef" horiz-adv-x="1024" 
 />
    <glyph glyph-name="uni0000" horiz-adv-x="0" 
 />
    <glyph glyph-name="uni000D" unicode="&#xd;" horiz-adv-x="512" 
 />
    <glyph glyph-name="space" unicode=" " horiz-adv-x="532" 
 />
    <glyph glyph-name="exclam" unicode="!" horiz-adv-x="536" 
d="M143 1434h250v-506l-22 -465h-205l-23 465v506zM113 139q0 66 45 111t114 45q65 0 110.5 -45t45.5 -111q0 -67 -45.5 -113t-110.5 -46q-69 0 -114 45.5t-45 113.5z" />
    <glyph glyph-name="quotedbl" unicode="&#x22;" horiz-adv-x="737" 
d="M133 983v451h184l-51 -451h-133zM420 983v451h184l-51 -451h-133z" />
    <glyph glyph-name="numbersign" unicode="#" horiz-adv-x="1370" 
d="M92 506h207l61 422h-268v178h293l47 328h178l-47 -328h344l47 328h189l-47 -328h182v-178h-207l-61 -422h268v-178h-293l-47 -328h-188l47 328h-344l-47 -328h-179l47 328h-182v178zM477 506h344l62 422h-344z" />
    <glyph glyph-name="dollar" unicode="$" horiz-adv-x="1509" 
d="M641 1843h205v-393q113 -9 204 -39.5t151.5 -74.5t101 -102.5t58 -121t17.5 -131.5h-254q0 120 -89 194t-285 74q-152 0 -243 -51t-91 -149q0 -26 4.5 -45.5t18 -37t27.5 -30t44.5 -24.5t56.5 -20.5t76 -19t90.5 -18t112.5 -20.5q77 -13 128 -23.5t115.5 -29t106 -38.5
t85.5 -51t69 -69t41 -90.5t16 -116.5q0 -180 -136.5 -298t-404.5 -136v-392h-204v394q-116 10 -210.5 42t-158.5 78t-108 105t-63.5 122.5t-19.5 131.5h254q0 -118 104 -198.5t306 -80.5q183 0 285 56t102 155q0 31 -11.5 55t-35.5 41.5t-57 31t-79 25t-99 21t-120 21.5
q-46 8 -71 12q-269 48 -393.5 151t-124.5 289q0 172 132.5 277.5t346.5 128.5v395z" />
    <glyph glyph-name="percent" unicode="%" horiz-adv-x="2103" 
d="M199 687q-105 117 -105 325t104.5 325t286.5 117q184 0 289 -117t105 -325t-105 -325.5t-289 -117.5q-182 0 -286 118zM686 0l574 1434h157l-573 -1434h-158zM485 1331q-116 0 -177.5 -83t-61.5 -236t61.5 -236.5t177.5 -83.5q117 0 179.5 83.5t62.5 236.5t-62.5 236
t-179.5 83zM1330 97q-105 117 -105 325t104.5 325t286.5 117q184 0 288.5 -117t104.5 -325t-104.5 -325t-288.5 -117q-182 0 -286 117zM1616 741q-116 0 -178 -83t-62 -236t62 -236.5t178 -83.5q117 0 179.5 83.5t62.5 236.5t-62.5 236t-179.5 83z" />
    <glyph glyph-name="ampersand" unicode="&#x26;" horiz-adv-x="1495" 
d="M1423 616h-206v-182q0 -69 -18 -132.5t-60.5 -122.5t-105.5 -103t-160 -70t-216 -26q-161 0 -283.5 41.5t-197 134t-74.5 227.5t83.5 218t226.5 116q-109 36 -168.5 120t-59.5 216q0 97 42 175t113.5 126.5t163 74t195.5 25.5q115 0 207 -27t149 -69.5t95 -99.5
t53 -112.5t15 -113.5h-254q0 217 -261 217q-119 0 -191.5 -54.5t-72.5 -160.5t54.5 -159.5t173.5 -53.5h757v-205zM963 616h-349q-127 0 -192.5 -47.5t-65.5 -154.5q0 -80 44.5 -133t111.5 -74t154 -21q83 0 143 20.5t92.5 57t47 78.5t14.5 92v182z" />
    <glyph glyph-name="quotesingle" unicode="'" horiz-adv-x="450" 
d="M133 983v451h184l-51 -451h-133z" />
    <glyph glyph-name="parenleft" unicode="(" horiz-adv-x="786" 
d="M336 522q0 -78 8 -149.5t20 -128.5t33.5 -112.5t39.5 -94t47.5 -80.5t48.5 -66t52 -56.5t47.5 -45t45.5 -38t37 -30.5l-115 -131q-37 20 -75.5 46.5t-88 71.5t-93 97.5t-87 128t-74.5 160t-50 195.5t-19 233t19 233t49.5 195t72.5 159.5t83.5 127t88 95.5t80.5 68t65 42
l115 -131q-9 -9 -38 -35.5t-51.5 -47.5t-57 -62t-60 -81t-54 -101t-47 -126t-30.5 -152.5t-12 -183.5z" />
    <glyph glyph-name="parenright" unicode=")" horiz-adv-x="786" 
d="M451 522q0 96 -12 183.5t-30.5 152.5t-47 126t-54 101t-59.5 81t-56.5 62t-51.5 47.5t-38 35.5l113 131q31 -18 65 -42t80.5 -68t88 -95.5t84 -127t73 -159.5t49.5 -195t19 -233q0 -168 -37 -315t-89.5 -244.5t-124 -178.5t-127 -123t-110.5 -71l-112 131q5 4 37 30.5
t45.5 38.5t47 44.5t51.5 56t48.5 66t47.5 81t39 94t33.5 112t19.5 128.5t8 150z" />
    <glyph glyph-name="asterisk" unicode="*" horiz-adv-x="1058" 
d="M201 821l256 252l-334 152l74 125l299 -213l-39 389h145l-39 -389l299 213l74 -125l-334 -152l256 -252l-110 -94l-218 320l-219 -320z" />
    <glyph glyph-name="plus" unicode="+" horiz-adv-x="942" 
d="M123 594h266v266h164v-266h266v-164h-266v-266h-164v266h-266v164z" />
    <glyph glyph-name="comma" unicode="," horiz-adv-x="577" 
d="M123 147q0 68 48.5 116t119.5 48q67 0 115.5 -48.5t48.5 -115.5q0 -46 -27 -92l-166 -313h-129l111 244q-54 14 -87.5 57.5t-33.5 103.5z" />
    <glyph glyph-name="hyphen" unicode="-" horiz-adv-x="860" 
d="M123 594h614v-164h-614v164z" />
    <glyph glyph-name="period" unicode="." horiz-adv-x="577" 
d="M123 147q0 68 48.5 116t119.5 48q67 0 115.5 -48.5t48.5 -115.5q0 -71 -48 -119t-116 -48q-72 0 -120 47.5t-48 119.5z" />
    <glyph glyph-name="slash" unicode="/" horiz-adv-x="833" 
d="M92 0l451 1434h198l-450 -1434h-199z" />
    <glyph glyph-name="zero" unicode="0" horiz-adv-x="1533" 
d="M288 176q-175 195 -175 541t174.5 541.5t478.5 195.5q305 0 480 -195.5t175 -541.5t-175 -541.5t-480 -195.5q-304 0 -478 196zM1063 1110q-104 139 -297 139t-296 -138.5t-103 -393.5t103 -394t296 -139t297 139.5t104 393.5t-104 393z" />
    <glyph glyph-name="one" unicode="1" horiz-adv-x="962" 
d="M641 1434h178v-1434h-250v1176l-428 -199l-80 190z" />
    <glyph glyph-name="two" unicode="2" horiz-adv-x="1349" 
d="M156 205l524 459q144 126 187.5 197t43.5 161q0 227 -274 227q-281 0 -281 -329h-254q0 64 11 124t34.5 121.5t65 112.5t98.5 91t139.5 62.5t182.5 22.5q107 0 198 -23.5t168 -73t121.5 -138t44.5 -207.5q0 -55 -12.5 -103.5t-49 -114.5t-113 -147t-193.5 -176l-326 -266
h776v-205h-1091v205z" />
    <glyph glyph-name="three" unicode="3" horiz-adv-x="1318" 
d="M510 616v205h164q107 0 162 62.5t55 167.5q0 98 -71 148t-191 50q-140 0 -196 -71t-56 -207h-254q0 98 28 182t86 153t158.5 108.5t233.5 39.5q145 0 257.5 -43t180.5 -134t68 -218q0 -221 -146 -326q228 -88 228 -319q0 -106 -42.5 -189t-117 -135.5t-173 -80
t-214.5 -27.5q-140 0 -252 41t-179 109.5t-102 151t-35 171.5h254q0 -114 79.5 -191.5t230.5 -77.5q132 0 214.5 62t82.5 178q0 96 -69.5 143t-188.5 47h-195z" />
    <glyph glyph-name="four" unicode="4" horiz-adv-x="1447" 
d="M877 1434h245v-871h246v-174h-246v-389h-250v389h-788v154zM330 563h542v619z" />
    <glyph glyph-name="five" unicode="5" horiz-adv-x="1271" 
d="M182 649l103 785h805v-205h-582l-45 -342q106 59 231 59q67 0 133.5 -18.5t128.5 -58t109 -95.5t75.5 -137t28.5 -176q0 -144 -71 -254.5t-189 -168.5t-262 -58q-146 0 -269 56t-199.5 167t-76.5 256h250q0 -122 84 -198.5t201 -76.5q119 0 198.5 76.5t79.5 212.5
q0 130 -77.5 197t-192.5 67q-122 0 -213 -88h-250z" />
    <glyph glyph-name="six" unicode="6" horiz-adv-x="1312" 
d="M717 1434h303l-361 -476q108 -1 206 -36t172.5 -97t118.5 -154.5t44 -201.5q0 -146 -76.5 -259t-199.5 -171.5t-269 -58.5q-149 0 -271.5 58.5t-196.5 171.5t-74 259q0 182 118 313zM655 184q119 0 205 79.5t86 205.5t-86 205.5t-205 79.5q-117 0 -202.5 -79.5
t-85.5 -205.5t85.5 -205.5t202.5 -79.5z" />
    <glyph glyph-name="seven" unicode="7" horiz-adv-x="1103" 
d="M1042 1434v-197l-555 -1237h-276l563 1229h-713v205h981z" />
    <glyph glyph-name="eight" unicode="8" horiz-adv-x="1355" 
d="M299 1352q145 102 379 102t379 -102.5t145 -286.5q0 -104 -53.5 -188t-147.5 -138q111 -55 176.5 -144t65.5 -206q0 -131 -79 -225.5t-205 -139t-281 -44.5t-281 44.5t-205 139t-79 225.5q0 117 65 206t176 144q-94 54 -147 138t-53 188q0 184 145 287zM470 895
q76 -57 208 -57t208.5 57t76.5 152t-75.5 148.5t-209.5 53.5t-209.5 -53.5t-75.5 -148.5t77 -152zM451 243q88 -59 227 -59t227 58.5t88 165.5q0 106 -88.5 165.5t-226.5 59.5t-227 -59.5t-89 -165.5q0 -107 89 -165z" />
    <glyph glyph-name="nine" unicode="9" horiz-adv-x="1312" 
d="M604 0h-303l361 475q-145 1 -267 60t-198 172t-76 258q0 146 76.5 259t199.5 171.5t269 58.5q149 0 271.5 -58.5t196.5 -171.5t74 -259q0 -183 -118 -314zM666 1249q-119 0 -205 -79t-86 -205t86 -205.5t205 -79.5q117 0 202.5 79.5t85.5 205.5t-85.5 205t-202.5 79z" />
    <glyph glyph-name="colon" unicode=":" horiz-adv-x="577" 
d="M123 883q0 68 48.5 116t119.5 48q67 0 115.5 -48.5t48.5 -115.5q0 -71 -48 -119.5t-116 -48.5q-72 0 -120 48t-48 120zM123 147q0 68 48.5 116t119.5 48q67 0 115.5 -48.5t48.5 -115.5q0 -71 -48 -119t-116 -48q-72 0 -120 47.5t-48 119.5z" />
    <glyph glyph-name="semicolon" unicode=";" horiz-adv-x="577" 
d="M123 883q0 68 48.5 116t119.5 48q67 0 115.5 -48.5t48.5 -115.5q0 -71 -48 -119.5t-116 -48.5q-72 0 -120 48t-48 120z" />
    <glyph glyph-name="less" unicode="&#x3c;" horiz-adv-x="954" 
d="M92 530l770 441v-209l-538 -289l538 -293v-209l-770 441v118z" />
    <glyph glyph-name="equal" unicode="=" horiz-adv-x="942" 
d="M123 778h696v-164h-696v164zM123 410h696v-164h-696v164z" />
    <glyph glyph-name="greater" unicode="&#x3e;" horiz-adv-x="954" 
d="M862 530v-118l-770 -441v209l541 293l-541 289v209z" />
    <glyph glyph-name="question" unicode="?" horiz-adv-x="1257" 
d="M492 461v55q0 82 6.5 129t31.5 86.5t59 65t103 65.5q6 4 34 20t36 20.5t30.5 20t30 24.5t22.5 26.5t20.5 33.5t10.5 38t5 47q0 89 -63 123t-175 34q-78 0 -132.5 -20.5t-82.5 -58.5t-39.5 -81t-11.5 -98h-254q0 64 9.5 118.5t31 108.5t61.5 95.5t96.5 74t139.5 49.5
t188 17q486 0 486 -354q0 -97 -26.5 -167t-73 -117t-126.5 -95q-46 -28 -68 -42.5t-46 -34.5t-33 -37.5t-15 -42t-6 -58.5v-45h-249zM461 139q0 66 45 111t112 45q66 0 112 -45t46 -111q0 -67 -46 -113t-112 -46q-67 0 -112 45.5t-45 113.5z" />
    <glyph glyph-name="at" unicode="@" horiz-adv-x="2197" 
d="M645 167q-98 133 -61 345t181.5 345.5t336.5 133.5q106 0 182.5 -46.5t116.5 -127.5l29 156h235l-143 -811h329q74 136 105 309q34 196 -5.5 363.5t-136.5 280.5t-242 177t-319 64t-341.5 -64t-304 -177.5t-234 -280.5t-131.5 -363t4 -363t134 -280.5t241 -177.5t319 -64
q72 0 152 13v-97q-77 -14 -168 -14q-145 0 -278.5 43t-241.5 125.5t-181 202.5t-98.5 273.5t6.5 338.5q27 150 89 286t147.5 243t192.5 193.5t224.5 143t242 87t245.5 30.5q145 0 278.5 -43t241 -125.5t181 -202.5t99 -273.5t-5.5 -338.5q-43 -234 -161 -420h-639l26 152
q-68 -79 -161.5 -124.5t-196.5 -45.5q-192 0 -289 134zM1038 223q101 0 188.5 59t106.5 154l27 148q18 97 -49.5 157t-171.5 60q-118 0 -205.5 -80.5t-110.5 -208.5t37 -208.5t178 -80.5z" />
    <glyph glyph-name="A" unicode="A" horiz-adv-x="1642" 
d="M696 1434h250l635 -1434h-250l-131 313h-758l-131 -313h-250zM530 518h582l-291 692z" />
    <glyph glyph-name="B" unicode="B" horiz-adv-x="1439" 
d="M143 0v1434h621q35 0 67 -2t75.5 -8t80.5 -18.5t77 -30.5t71 -47.5t56.5 -67t39.5 -90.5t14 -117q0 -214 -182 -312q53 -17 97 -42.5t83.5 -65.5t61.5 -100t22 -134q0 -100 -35.5 -175.5t-87 -116.5t-121 -66.5t-125 -33t-112.5 -7.5h-703zM393 825h350h8q24 0 38.5 0.5
t42.5 4t46.5 10.5t42 21.5t37 35t23.5 52.5t10 73q0 42 -10.5 76t-25.5 55t-39 36.5t-44 23t-48 11.5t-43.5 4.5t-37.5 0.5h-350v-404zM393 205h422q258 0 258 217q0 179 -177 197q-23 2 -81 2h-422v-416z" />
    <glyph glyph-name="C" unicode="C" horiz-adv-x="1652" 
d="M409 955q-42 -105 -42 -238t41.5 -238t111.5 -168t155.5 -95t180.5 -32q98 0 180.5 32t136 83.5t83.5 115.5t30 130h254q0 -76 -27 -154.5t-83.5 -152.5t-135.5 -131t-192.5 -92t-245.5 -35q-154 0 -289 51.5t-236 145t-159.5 233.5t-58.5 307t58.5 307t159.5 233.5
t236 145t289 51.5q132 0 245.5 -34.5t192.5 -91.5t135.5 -130.5t83.5 -152t27 -154.5h-254q0 66 -30 129.5t-83.5 114.5t-136 82.5t-180.5 31.5q-95 0 -180.5 -32t-155.5 -94.5t-111 -167.5z" />
    <glyph glyph-name="D" unicode="D" horiz-adv-x="1613" 
d="M733 1434q157 0 295.5 -47.5t244 -136.5t167 -226.5t61.5 -306.5t-61.5 -306.5t-167 -226.5t-244 -136.5t-295.5 -47.5h-590v1434h590zM393 205h340q110 0 202.5 32.5t162.5 95t109.5 161t39.5 223.5t-39.5 223.5t-109.5 161t-162.5 95t-202.5 32.5h-340v-1024z" />
    <glyph glyph-name="E" unicode="E" horiz-adv-x="1265" 
d="M143 1434h1031v-205h-781v-391h719v-205h-719v-428h781v-205h-1031v1434z" />
    <glyph glyph-name="F" unicode="F" horiz-adv-x="1224" 
d="M143 1434h1010v-205h-760v-424h699v-205h-699v-600h-250v1434z" />
    <glyph glyph-name="G" unicode="G" horiz-adv-x="1673" 
d="M367 723q0 -250 143.5 -388t384.5 -138q190 0 294.5 90.5t119.5 257.5h-496v203h748v-748h-230v186q-162 -196 -469 -196q-152 0 -288 51t-238.5 143.5t-162.5 232t-60 306.5t61.5 306.5t166 231.5t241.5 142.5t290 50.5q147 0 275.5 -47t212.5 -121.5t132 -163.5
t48 -176h-254q0 122 -115 212.5t-301 90.5q-226 0 -364.5 -136.5t-138.5 -389.5z" />
    <glyph glyph-name="H" unicode="H" horiz-adv-x="1705" 
d="M143 1434h250v-598h920v598h250v-1434h-250v631h-920v-631h-250v1434z" />
    <glyph glyph-name="I" unicode="I" horiz-adv-x="536" 
d="M143 1434h250v-1434h-250v1434z" />
    <glyph glyph-name="J" unicode="J" horiz-adv-x="1329" 
d="M936 1434h250v-902q0 -162 -59.5 -285t-183.5 -195t-298 -72q-268 0 -405.5 153.5t-137.5 413.5h254q0 -167 72 -265t219 -98q138 0 213.5 96.5t75.5 251.5v902z" />
    <glyph glyph-name="K" unicode="K" horiz-adv-x="1466" 
d="M143 1434h250v-660h191l460 660h299l-540 -746l602 -688h-313l-490 578h-209v-578h-250v1434z" />
    <glyph glyph-name="L" unicode="L" horiz-adv-x="1286" 
d="M143 1434h250v-1229h801v-205h-1051v1434z" />
    <glyph glyph-name="M" unicode="M" horiz-adv-x="1890" 
d="M143 1434h240v-2l10 2l553 -1170l551 1170l10 -2v2h240v-1434h-240v973l-454 -973h-213l-457 1004v-1004h-240v1434z" />
    <glyph glyph-name="N" unicode="N" horiz-adv-x="1695" 
d="M143 1434h250l910 -1104v1104h249v-1434h-249l-910 1083v-1083h-250v1434z" />
    <glyph glyph-name="O" unicode="O" horiz-adv-x="1759" 
d="M176 407q-63 141 -63 310t63 310t169 233t244 143t290 51q153 0 291.5 -51t244.5 -143t169 -233t63 -310t-63 -310t-169 -233t-244.5 -143t-291.5 -51q-152 0 -290 51t-244 143t-169 233zM1136 1186q-117 63 -257 63t-256 -63.5t-186 -186.5t-70 -282t70 -282t186 -187
t256 -64q105 0 198 37.5t163.5 105.5t111.5 169t41 221q0 159 -70.5 282t-186.5 187z" />
    <glyph glyph-name="P" unicode="P" horiz-adv-x="1409" 
d="M795 1434q34 0 73 -4.5t91 -17.5t100 -34.5t96 -59t83 -86t57 -121t22 -159.5t-22 -159.5t-57 -121t-83 -86t-96 -58.5t-100 -34.5t-91 -17.5t-73 -4h-402v-471h-250v1434h652zM393 676h381q30 0 63 5.5t75 24t74 47t54.5 80.5t22.5 119q0 66 -22.5 118t-55 81t-74 47.5
t-75 24.5t-62.5 6h-381v-553z" />
    <glyph glyph-name="Q" unicode="Q" horiz-adv-x="1759" 
d="M1397 -410l-344 406q-76 -16 -174 -16q-152 0 -290 51t-244 143t-169 233t-63 310t63 310t169 233t244 143t290 51q153 0 291.5 -51t244.5 -143t169 -233t63 -310q0 -215 -97.5 -378.5t-263.5 -256.5l426 -492h-315zM1136 1186q-117 63 -257 63t-256 -63.5t-186 -186.5
t-70 -282t70 -282t186 -187t256 -64q105 0 198 37.5t163.5 105.5t111.5 169t41 221q0 159 -70.5 282t-186.5 187z" />
    <glyph glyph-name="R" unicode="R" horiz-adv-x="1490" 
d="M825 1434q38 0 79.5 -5t94 -18t100 -34t94 -56.5t80 -81t54.5 -111.5t21 -145q0 -84 -23.5 -154.5t-61 -119t-89.5 -86t-102 -59t-105 -34.5l399 -530h-285l-374 512h-314v-512h-250v1434h682zM393 717h412q31 0 66 6.5t76 25t72.5 45.5t53 74t21.5 105t-21.5 104.5
t-53 74t-72.5 45.5t-76 25t-66 7h-412v-512z" />
    <glyph glyph-name="S" unicode="S" horiz-adv-x="1509" 
d="M356 463q0 -118 104 -198.5t306 -80.5q183 0 285 56t102 155q0 31 -11.5 55t-35.5 41.5t-57 31t-79 25t-99 21t-120 21.5q-46 8 -71 12q-269 48 -393.5 151t-124.5 289q0 98 46 177t126 130t186.5 78t229.5 27q134 0 242 -26t179 -70.5t118.5 -105.5t68 -128.5
t20.5 -142.5h-254q0 120 -89 194t-285 74q-152 0 -243 -51t-91 -149q0 -26 4.5 -45.5t18 -37t27.5 -30t44.5 -24.5t56.5 -20.5t76 -19t90.5 -18t112.5 -20.5q77 -13 128 -23.5t115.5 -29t106 -38.5t85.5 -51t69 -69t41 -90.5t16 -116.5q0 -196 -160 -316t-471 -120
q-140 0 -254.5 27t-191 73t-129 108.5t-76 131t-23.5 143.5h254z" />
    <glyph glyph-name="T" unicode="T" horiz-adv-x="1421" 
d="M72 1434h1278v-205h-514v-1229h-250v1229h-514v205z" />
    <glyph glyph-name="U" unicode="U" horiz-adv-x="1554" 
d="M1161 1434h250v-840q0 -614 -639 -614q-314 0 -471.5 150.5t-157.5 463.5v840h250v-840q0 -214 92 -312t287 -98q196 0 292.5 99t96.5 311v840z" />
    <glyph glyph-name="V" unicode="V" horiz-adv-x="1662" 
d="M707 0l-635 1434h270l489 -1139l490 1139h270l-635 -1434h-249z" />
    <glyph glyph-name="W" unicode="W" horiz-adv-x="2185" 
d="M522 0l-450 1434h239l334 -1139l328 1139h229l330 -1135l332 1135h250l-461 -1434h-260l-306 1057l-305 -1057h-260z" />
    <glyph glyph-name="X" unicode="X" horiz-adv-x="1695" 
d="M72 0l624 745l-551 689h306l407 -539l391 539h305l-532 -689l602 -745h-305l-461 608l-479 -608h-307z" />
    <glyph glyph-name="Y" unicode="Y" horiz-adv-x="1601" 
d="M676 430l-604 1004h288l441 -768l440 768h289l-604 -1004v-430h-250v430z" />
    <glyph glyph-name="Z" unicode="Z" horiz-adv-x="1296" 
d="M1171 1434v-197l-780 -1032h834v-205h-1153v197l780 1032h-764v205h1083z" />
    <glyph glyph-name="bracketleft" unicode="[" horiz-adv-x="815" 
d="M143 1434h570v-205h-361v-1434h361v-205h-570v1844z" />
    <glyph glyph-name="backslash" unicode="\" horiz-adv-x="833" 
d="M741 0h-198l-451 1434h199z" />
    <glyph glyph-name="bracketright" unicode="]" horiz-adv-x="815" 
d="M702 1434v-1844h-569v205h361v1434h-361v205h569z" />
    <glyph glyph-name="asciicircum" unicode="^" horiz-adv-x="1060" 
d="M123 838l323 596h168l324 -596h-195l-213 428l-213 -428h-194z" />
    <glyph glyph-name="underscore" unicode="_" horiz-adv-x="942" 
d="M123 369h696v-164h-696v164z" />
    <glyph glyph-name="grave" unicode="`" horiz-adv-x="483" 
d="M381 1135h-152l-147 340h176z" />
    <glyph glyph-name="a" unicode="a" horiz-adv-x="1220" 
d="M213 1024h393q101 0 176.5 -20t123.5 -54.5t77.5 -87t41 -112.5t11.5 -136v-245q0 -95 30 -131.5t118 -36.5h16v-201h-170q-113 1 -159.5 41t-55.5 133q-44 -89 -129.5 -141.5t-212.5 -52.5q-191 0 -281 70t-90 247q0 173 92.5 250.5t309.5 77.5h287q-1 54 -8.5 86.5
t-29.5 60t-66.5 39.5t-115.5 12h-358v201zM791 444h-277q-162 0 -162 -133q0 -44 11.5 -71t39 -40t56 -16.5t78.5 -3.5q111 0 182.5 52t71.5 147v65z" />
    <glyph glyph-name="b" unicode="b" horiz-adv-x="1333" 
d="M1107 896q134 -148 134 -384t-134.5 -384t-354.5 -148q-119 0 -219.5 50t-163.5 140v-170h-246v1434h246v-580q63 90 163.5 140t219.5 50q220 0 355 -148zM369 430q0 -103 93.5 -176.5t213.5 -73.5q138 0 226.5 91t88.5 241t-88.5 241t-226.5 91q-120 0 -213.5 -73.5
t-93.5 -176.5v-164z" />
    <glyph glyph-name="c" unicode="c" 
d="M429 755q-87 -89 -87 -243t87 -243t222 -89q116 0 187 66.5t71 150.5h250q0 -59 -18 -116.5t-58 -112t-97.5 -96.5t-143 -67t-187.5 -25q-255 0 -409 142t-154 390t154 390t409 142q102 0 187.5 -25t143 -67t97.5 -96.5t58 -112t18 -116.5h-250q0 84 -71 150.5t-187 66.5
q-135 0 -222 -89z" />
    <glyph glyph-name="d" unicode="d" horiz-adv-x="1333" 
d="M228 128q-136 148 -136 384t136 384t356 148q118 0 218.5 -50.5t162.5 -139.5v580h245v-1434h-245v170q-62 -89 -162.5 -139.5t-218.5 -50.5q-220 0 -356 148zM659 180q119 0 212.5 73.5t93.5 176.5v164q0 103 -93.5 176.5t-212.5 73.5q-140 0 -228.5 -91t-88.5 -241
t88.5 -241t228.5 -91z" />
    <glyph glyph-name="e" unicode="e" 
d="M346 432q18 -138 96.5 -205t190.5 -67q121 0 195.5 57t74.5 129h246q-8 -70 -44.5 -133.5t-99.5 -116.5t-162 -84.5t-220 -31.5q-150 0 -269.5 62.5t-190.5 184.5t-71 285t71 285t190.5 184.5t269.5 62.5q249 0 390 -144t146 -374v-94h-813zM907 612q-38 252 -274 252
q-105 0 -182 -63.5t-101 -188.5h557z" />
    <glyph glyph-name="f" unicode="f" horiz-adv-x="841" 
d="M778 1253h-135q-103 0 -142.5 -32.5t-39.5 -135.5v-61h319v-201h-319v-823h-246v823h-154v201h154v102q0 162 84.5 245t251.5 83h227v-201z" />
    <glyph glyph-name="g" unicode="g" horiz-adv-x="1333" 
d="M252 -209h418q157 0 226 63t69 207v109q-62 -89 -162.5 -139.5t-218.5 -50.5q-220 0 -356 148t-136 384t136 384t356 148q118 0 218.5 -50.5t162.5 -139.5v170h245v-932q0 -248 -126 -375t-394 -127h-438v201zM659 180q119 0 212.5 73.5t93.5 176.5v164
q0 103 -93.5 176.5t-212.5 73.5q-140 0 -228.5 -91t-88.5 -241t88.5 -241t228.5 -91z" />
    <glyph glyph-name="h" unicode="h" horiz-adv-x="1261" 
d="M123 1434h246v-594q62 96 163 150t220 54q202 0 294.5 -108.5t92.5 -300.5v-635h-246v573q0 133 -55 202t-195 69q-115 0 -194.5 -78t-79.5 -203v-563h-246v1434z" />
    <glyph glyph-name="i" unicode="i" horiz-adv-x="471" 
d="M86 1348q0 62 45 105.5t109 43.5q62 0 105.5 -43.5t43.5 -105.5q0 -64 -43.5 -109t-105.5 -45q-64 0 -109 45t-45 109zM113 1024h245v-1024h-245v1024z" />
    <glyph glyph-name="j" unicode="j" horiz-adv-x="471" 
d="M84 1348q0 62 44.5 105.5t109.5 43.5q62 0 105.5 -43.5t43.5 -105.5q0 -64 -43.5 -109t-105.5 -45q-66 0 -110 44.5t-44 109.5zM-184 -209h114q100 0 141.5 39.5t41.5 138.5v1055h245v-1106q0 -162 -84 -245t-249 -83h-209v201z" />
    <glyph glyph-name="k" unicode="k" horiz-adv-x="1234" 
d="M123 1434h246v-801h168l284 391h285l-373 -485l430 -539h-293l-325 432h-176v-432h-246v1434z" />
    <glyph glyph-name="l" unicode="l" horiz-adv-x="552" 
d="M532 201v-201h-155q-142 1 -198 64t-56 212v1158h246v-1065q0 -97 27 -132.5t114 -35.5h22z" />
    <glyph glyph-name="m" unicode="m" horiz-adv-x="1929" 
d="M123 1024h246v-178q59 93 151.5 145.5t200.5 52.5q274 0 344 -237q56 110 155.5 173.5t219.5 63.5q187 0 276.5 -109t89.5 -300v-635h-245v584q0 130 -49.5 195t-176.5 65q-102 0 -175 -74t-73 -197v-573h-245v584q0 130 -49.5 195t-176.5 65q-101 0 -174 -74t-73 -197
v-573h-246v1024z" />
    <glyph glyph-name="n" unicode="n" horiz-adv-x="1261" 
d="M123 1024h246v-184q62 96 163 150t220 54q202 0 294.5 -108.5t92.5 -300.5v-635h-246v573q0 133 -55 202t-195 69q-115 0 -194.5 -78t-79.5 -203v-563h-246v1024z" />
    <glyph glyph-name="o" unicode="o" horiz-adv-x="1314" 
d="M657 1044q153 0 280.5 -62t206.5 -185t79 -285t-79 -285t-206.5 -185t-280.5 -62q-114 0 -216 36.5t-180 103.5t-123.5 168.5t-45.5 223.5t45.5 223.5t123.5 168.5t180 103.5t216 36.5zM657 180q135 0 225.5 94t90.5 238t-90.5 238t-225.5 94q-134 0 -224.5 -94
t-90.5 -238t90.5 -238t224.5 -94z" />
    <glyph glyph-name="p" unicode="p" horiz-adv-x="1333" 
d="M123 1024h246v-170q63 90 163.5 140t219.5 50q220 0 354.5 -148t134.5 -384t-134.5 -384t-354.5 -148q-119 0 -219.5 50t-163.5 140v-580h-246v1434zM369 430q0 -103 93.5 -176.5t213.5 -73.5q138 0 226.5 91t88.5 241t-88.5 241t-226.5 91q-120 0 -213.5 -73.5
t-93.5 -176.5v-164z" />
    <glyph glyph-name="q" unicode="q" horiz-adv-x="1333" 
d="M1210 1024v-1434h-245v580q-62 -89 -162.5 -139.5t-218.5 -50.5q-220 0 -356 148t-136 384t136 384t356 148q118 0 218.5 -50.5t162.5 -139.5v170h245zM659 180q119 0 212.5 73.5t93.5 176.5v164q0 103 -93.5 176.5t-212.5 73.5q-140 0 -228.5 -91t-88.5 -241t88.5 -241
t228.5 -91z" />
    <glyph glyph-name="r" unicode="r" horiz-adv-x="849" 
d="M123 1024h246v-168q56 88 142.5 138t186.5 50h101v-200h-183q-114 0 -180.5 -73.5t-66.5 -207.5v-563h-246v1024z" />
    <glyph glyph-name="s" unicode="s" horiz-adv-x="1175" 
d="M342 326q0 -146 264 -146q225 0 225 96q0 47 -47 66.5t-192 46.5q-14 2 -21.5 3.5t-20.5 4t-24 4.5q-63 12 -111.5 25.5t-106 39.5t-95 58t-63 83t-25.5 114q0 105 61 179.5t160.5 109t226.5 34.5q120 0 215.5 -31t152.5 -82t86.5 -111t29.5 -122h-250q0 75 -57 110.5
t-175 35.5q-198 0 -198 -94q0 -50 74 -78q47 -18 208 -51q57 -12 87.5 -18.5t78.5 -19t74 -23.5t60.5 -28.5t53 -37t37 -46t26 -59t7.5 -72.5q0 -154 -136 -245.5t-351 -91.5q-120 0 -219 31.5t-159.5 82t-93 110.5t-32.5 122h250z" />
    <glyph glyph-name="t" unicode="t" horiz-adv-x="858" 
d="M61 1024h160v246h246v-246h330v-201h-330v-444q0 -99 41.5 -138.5t140.5 -39.5h146v-201h-238q-336 3 -336 328v495h-160v201z" />
    <glyph glyph-name="u" unicode="u" horiz-adv-x="1323" 
d="M1303 201v-201h-156q-120 1 -178 46.5t-72 146.5q-62 -100 -163.5 -156.5t-223.5 -56.5q-202 0 -294.5 108.5t-92.5 300.5v635h246v-573q0 -132 55.5 -201.5t196.5 -69.5q115 0 193.5 78.5t78.5 202.5v563h246v-655q0 -97 27 -132.5t114 -35.5h23z" />
    <glyph glyph-name="v" unicode="v" horiz-adv-x="1292" 
d="M61 1024h269l317 -729l316 729h268l-471 -1024h-228z" />
    <glyph glyph-name="w" unicode="w" horiz-adv-x="1640" 
d="M61 1024h256l185 -715l207 715h223l207 -715l184 715h256l-307 -1024h-254l-197 707l-198 -707h-254z" />
    <glyph glyph-name="x" unicode="x" horiz-adv-x="1320" 
d="M61 0l439 535l-396 489h285l273 -358l270 358h285l-396 -489l439 -535h-289l-309 408l-312 -408h-289z" />
    <glyph glyph-name="y" unicode="y" horiz-adv-x="1232" 
d="M1171 1024l-438 -1044q-36 -86 -57.5 -130t-57.5 -97t-73 -77t-97 -47.5t-138 -31t-187 -7.5v201q83 0 139.5 8t91 20t59 37.5t37 49t31.5 65.5q5 13 8 19l11 20l-437 1014h269l289 -739l282 739h268z" />
    <glyph glyph-name="z" unicode="z" horiz-adv-x="1060" 
d="M956 1024v-172l-567 -651h610v-201h-927v172l567 651h-551v201h868z" />
    <glyph glyph-name="braceleft" unicode="{" horiz-adv-x="952" 
d="M152 621q52 6 84 16.5t58 31t38.5 57t19 88.5t6.5 132q0 117 17.5 202.5t49.5 140t83 87.5t110.5 45.5t139.5 12.5h133v-211h-137q-78 0 -117 -29t-54.5 -100.5t-15.5 -216.5q0 -93 -18 -159.5t-55 -107t-81.5 -63t-107.5 -35.5q63 -13 107.5 -35t81.5 -62t55 -106
t18 -159q0 -88 5 -144.5t16.5 -98.5t34 -63.5t53.5 -31t78 -9.5h137v-211h-133q-80 0 -139.5 12.5t-110.5 45.5t-83 87.5t-49.5 140t-17.5 202.5q0 100 -9 158.5t-34 95t-61.5 51t-101.5 21.5l-50 6v202z" />
    <glyph glyph-name="bar" unicode="|" horiz-adv-x="485" 
d="M143 1434h199v-1844h-199v1844z" />
    <glyph glyph-name="braceright" unicode="}" horiz-adv-x="952" 
d="M801 621l49 -7v-202l-49 -6q-86 -10 -127.5 -36.5t-60.5 -92t-19 -197.5q0 -145 -25.5 -242t-79.5 -150.5t-123.5 -74.5t-170.5 -21h-134v211h138q47 0 78 9.5t53 31t33.5 63.5t16.5 98.5t5 144.5q0 93 18 159.5t55 107t81.5 62.5t107.5 35q-63 13 -107.5 35t-81.5 62
t-55 106.5t-18 159.5q0 88 -5 144.5t-16.5 98t-33.5 63t-53 31t-78 9.5h-138v211h134q101 0 170.5 -21t123.5 -74.5t79.5 -150.5t25.5 -242q0 -80 6.5 -132t19.5 -88.5t39 -57t58 -31t84 -16.5z" />
    <glyph glyph-name="asciitilde" unicode="~" horiz-adv-x="1288" 
d="M141 842q72 181 187.5 212t326.5 -59q65 -26 104 -40t78 -23.5t61.5 -7t44.5 14.5t37 35t30 60l20 47l135 -55l-18 -47q-36 -93 -80 -144t-106.5 -67t-139 -1t-186.5 60q-63 26 -102 40t-78 23.5t-61.5 7t-45 -14.5t-38 -35t-31.5 -60l-21 -49l-135 56z" />
    <glyph glyph-name="exclamdown" unicode="&#xa1;" horiz-adv-x="536" 
d="M113 885q0 69 45 114t114 45q65 0 110.5 -45.5t45.5 -113.5q0 -65 -46 -110.5t-110 -45.5q-68 0 -113.5 45.5t-45.5 110.5zM143 -410v506l23 465h205l22 -465v-506h-250z" />
    <glyph glyph-name="cent" unicode="&#xa2;" horiz-adv-x="1271" 
d="M565 1434h205v-398q100 -15 179 -57t125.5 -99.5t70.5 -122t24 -130.5h-249q0 84 -71 150.5t-187 66.5q-135 0 -222.5 -89t-87.5 -243t87.5 -243t222.5 -89q116 0 187 66.5t71 150.5h249q0 -66 -24 -130.5t-70.5 -122t-125.5 -99.5t-179 -57v-398h-205v396
q-214 28 -338.5 166.5t-124.5 359.5t124.5 359.5t338.5 166.5v396z" />
    <glyph glyph-name="sterling" unicode="&#xa3;" horiz-adv-x="1441" 
d="M328 1042q0 203 133 307.5t360 104.5q122 0 215.5 -29.5t149.5 -76.5t91.5 -112.5t48.5 -129t13 -135.5h-254q0 63 -10.5 110t-36.5 87t-76 60.5t-124 20.5q-117 0 -186.5 -56t-69.5 -173v-266h632v-205h-632v-344h757v-205h-1011v549h-246v205h246v288z" />
    <glyph glyph-name="currency" unicode="&#xa4;" horiz-adv-x="1390" 
d="M1266 1210l-271 -272q69 -95 69 -215t-69 -215l273 -270l-86 -86l-273 272q-96 -69 -214.5 -69.5t-215.5 69.5l-270 -270l-86 84l272 270q-69 95 -69 215t69 215l-270 270l86 86l270 -270q97 68 215 68t213 -68l273 270zM522 551q72 -72 173 -72t173 72q72 71 72 172
t-72 172q-72 72 -173 72t-173 -72q-70 -71 -70 -172t70 -172z" />
    <glyph glyph-name="yen" unicode="&#xa5;" horiz-adv-x="1601" 
d="M319 582h265l-512 852h288l441 -768l440 768h289l-512 -852h264v-164h-356v-123h356v-164h-356v-131h-250v131h-357v164h357v123h-357v164z" />
    <glyph glyph-name="brokenbar" unicode="&#xa6;" horiz-adv-x="485" 
d="M143 1434h199v-719h-199v719zM143 309h199v-719h-199v719z" />
    <glyph glyph-name="section" unicode="&#xa7;" horiz-adv-x="1560" 
d="M356 -29q0 -118 104 -198t306 -80q183 0 285 56t102 155q0 31 -11.5 55t-35.5 41.5t-57 31t-79 25t-99 21t-120 21.5q-46 8 -71 12q-269 48 -393.5 151t-124.5 289q0 156 117 264q-66 89 -66 227q0 98 46 177t126 130t186.5 78t229.5 27q134 0 242 -26t179 -70.5
t119 -105.5t68.5 -128.5t20.5 -142.5h-254q0 120 -89.5 194t-285.5 74q-152 0 -243 -51t-91 -149q0 -26 4.5 -45.5t18 -37t27.5 -30t44.5 -24.5t56.5 -20.5t76 -19t90.5 -18t112.5 -20.5q77 -13 128 -23.5t115.5 -29t106 -38.5t85.5 -51t69 -69t41 -90.5t16 -116.5
q0 -170 -115 -279q64 -83 64 -213q0 -196 -160 -316t-471 -120q-140 0 -254.5 27t-191 73t-129 108.5t-76 131t-23.5 143.5h254zM467 676q-51 -48 -51 -119q0 -26 4.5 -45.5t18 -37t27.5 -30t44.5 -24.5t56.5 -20.5t76 -19t90.5 -18t112.5 -20.5q192 -31 301 -72
q57 51 57 125q0 31 -11.5 55t-35.5 41.5t-57 31t-79 25t-99 21t-120 21.5q-46 8 -71 12q-154 27 -264 74z" />
    <glyph glyph-name="dieresis" unicode="&#xa8;" horiz-adv-x="903" 
d="M102 1286q0 56 39.5 94.5t96.5 38.5q56 0 94.5 -38.5t38.5 -94.5q0 -57 -38.5 -96t-94.5 -39q-57 0 -96.5 39t-39.5 96zM532 1286q0 56 39.5 94.5t96.5 38.5q56 0 94.5 -38.5t38.5 -94.5q0 -57 -38.5 -96t-94.5 -39q-57 0 -96.5 39t-39.5 96z" />
    <glyph glyph-name="copyright" unicode="&#xa9;" horiz-adv-x="1722" 
d="M125 717q0 150 58 286.5t157 235.5t235.5 157t286.5 58q200 0 369.5 -98.5t268.5 -268t99 -370.5q0 -200 -99 -369.5t-268.5 -268.5t-369.5 -99q-201 0 -370.5 99t-268 268.5t-98.5 369.5zM197 717q0 -181 88.5 -334t242 -242.5t334.5 -89.5q180 0 333.5 89.5t243 243
t89.5 333.5q0 181 -89.5 334.5t-242.5 242t-334 88.5q-136 0 -259 -52.5t-212 -141.5t-141.5 -212t-52.5 -259zM705 904q-66 -66 -66 -187t66 -185.5t163 -64.5q92 0 147.5 49t55.5 117h135q0 -48 -22 -95.5t-62 -89t-106.5 -67t-147.5 -25.5q-156 0 -261 99t-105 262
q0 164 104.5 262t261.5 98q81 0 147.5 -25.5t106.5 -66.5t62 -88.5t22 -95.5h-135q0 68 -56 118t-147 50q-97 0 -163 -65z" />
    <glyph glyph-name="ordfeminine" unicode="&#xaa;" horiz-adv-x="786" 
d="M178 1454h197q62 0 104 -15t63.5 -45.5t29.5 -65t8 -83.5v-129q0 -47 15 -65.5t58 -18.5h9v-100h-74q-56 0 -80 19t-29 63q-54 -92 -172 -92q-92 0 -138 35t-46 114q0 89 46 126.5t155 37.5h143v8q0 59 -21 87t-90 28h-178v96zM467 1165h-137q-49 0 -70.5 -16t-21.5 -57
q0 -50 23.5 -67t78.5 -17q54 0 90.5 32.5t36.5 81.5v43z" />
    <glyph glyph-name="guillemotleft" unicode="&#xab;" horiz-adv-x="1062" 
d="M102 512l265 461h204l-266 -461l266 -461h-204zM492 512l264 461h205l-267 -461l267 -461h-205z" />
    <glyph glyph-name="logicalnot" unicode="&#xac;" horiz-adv-x="940" 
d="M123 901h694v-430h-199v231h-495v199z" />
    <glyph glyph-name="registered" unicode="&#xae;" horiz-adv-x="1722" 
d="M183 431q-58 136 -58 286t58 286.5t157 235.5t235.5 157t286.5 58t286.5 -58t235.5 -157t157 -235.5t58 -286.5t-58 -286.5t-157 -235.5t-235.5 -157t-286.5 -58t-286.5 58t-235.5 157t-157 236zM197 717q0 -181 88.5 -334t242 -242.5t334.5 -89.5q180 0 333.5 89.5
t243 243t89.5 333.5q0 181 -89.5 334.5t-242.5 242t-334 88.5q-136 0 -259 -52.5t-212 -141.5t-141.5 -212t-52.5 -259zM932 1069q27 0 57 -5t67 -20t66 -38.5t48.5 -66t19.5 -97.5q0 -93 -51 -147t-125 -77l188 -251h-153l-177 239h-143v-239h-135v702h338zM729 711h193
q46 0 88.5 30.5t42.5 96.5q0 35 -14 60.5t-35 39t-42 19.5t-40 6h-193v-252z" />
    <glyph glyph-name="macron" unicode="&#xaf;" horiz-adv-x="727" 
d="M102 1311h523v-123h-523v123z" />
    <glyph glyph-name="degree" unicode="&#xb0;" horiz-adv-x="745" 
d="M181 1007q-79 79 -79 191t79 191t192 79t191.5 -79t78.5 -191t-78.5 -191t-191.5 -79t-192 79zM232 1339q-58 -58 -58 -141t58 -141t141 -58t140.5 58t57.5 141t-57.5 141t-140.5 58t-141 -58z" />
    <glyph glyph-name="plusminus" unicode="&#xb1;" horiz-adv-x="942" 
d="M123 758h266v266h164v-266h266v-164h-266v-266h-164v266h-266v164zM123 164h696v-164h-696v164z" />
    <glyph glyph-name="twosuperior" unicode="&#xb2;" horiz-adv-x="894" 
d="M137 705l314 274q86 77 112.5 119.5t26.5 95.5q0 77 -47 110t-119 33q-168 0 -168 -204h-152q0 46 9 89t32 86t58 75t91 51.5t128 19.5q65 0 119.5 -14t100.5 -44t72.5 -83t26.5 -125q0 -70 -44 -143t-177 -181l-194 -159h465v-123h-654v123z" />
    <glyph glyph-name="threesuperior" unicode="&#xb3;" horiz-adv-x="876" 
d="M348 954v117h98q132 0 132 129q0 69 -42.5 103t-115.5 34q-85 0 -118.5 -44t-33.5 -130h-151q0 59 17 110t51.5 92.5t94.5 65t140 23.5q135 0 219 -61.5t84 -175.5q0 -132 -96 -197q145 -56 145 -201q0 -118 -92 -183t-236 -65q-84 0 -151 24.5t-107 66t-61 91t-21 103.5
h152q0 -73 47 -120.5t139 -47.5q80 0 129.5 35.5t49.5 107.5q0 123 -156 123h-117z" />
    <glyph glyph-name="acute" unicode="&#xb4;" horiz-adv-x="479" 
d="M102 1135l119 340h176l-143 -340h-152z" />
    <glyph glyph-name="paragraph" unicode="&#xb6;" horiz-adv-x="1613" 
d="M625 1434h845v-1844h-229v1653h-283v-1653h-229v840h-104q-35 0 -73.5 4.5t-91 18t-100 35.5t-96 61t-83.5 90t-57 126.5t-22 166.5t22 166.5t57 126.5t83.5 90t96 61t100 35.5t91 18t73.5 4.5zM729 621v622h-104q-27 0 -59 -6t-74.5 -26.5t-75.5 -52.5t-56.5 -91
t-23.5 -135q0 -77 23.5 -136t56.5 -91t75.5 -52t74.5 -26t59 -6h104z" />
    <glyph glyph-name="periodcentered" unicode="&#xb7;" horiz-adv-x="618" 
d="M143 512q0 68 48.5 116t119.5 48q67 0 115.5 -48t48.5 -116q0 -71 -48 -119.5t-116 -48.5q-72 0 -120 48t-48 120z" />
    <glyph glyph-name="cedilla" unicode="&#xb8;" horiz-adv-x="616" 
d="M102 -457v123q110 -34 188.5 -14.5t78.5 92.5q0 24 -7 40t-15.5 24.5t-31.5 12.5t-38.5 4.5t-52.5 0.5h-19h-10l43 186h112l-31 -104q93 -7 144 -43.5t51 -124.5q0 -61 -26.5 -105.5t-69 -67.5t-97.5 -33t-110 -7t-109 16z" />
    <glyph glyph-name="onesuperior" unicode="&#xb9;" horiz-adv-x="659" 
d="M451 1434h106v-861h-149v709l-258 -119l-48 111z" />
    <glyph glyph-name="ordmasculine" unicode="&#xba;" horiz-adv-x="770" 
d="M385 1030q68 0 113 47t45 119t-45 119t-113 47q-67 0 -112.5 -47.5t-45.5 -118.5t45.5 -118.5t112.5 -47.5zM184 1390q82 72 201 72t201 -72t82 -194q0 -121 -82.5 -193.5t-200.5 -72.5t-200.5 72.5t-82.5 193.5q0 122 82 194z" />
    <glyph glyph-name="guillemotright" unicode="&#xbb;" horiz-adv-x="1062" 
d="M961 512l-265 -461h-204l266 461l-266 461h204zM571 512l-264 -461h-205l267 461l-267 461h205z" />
    <glyph glyph-name="onequarter" unicode="&#xbc;" horiz-adv-x="1796" 
d="M475 0l574 1434h157l-573 -1434h-158zM440 1434h107v-861h-150v709l-258 -119l-47 111zM1407 860h147v-522h148v-105h-148v-233h-149v233h-473v93zM1079 338h326v371z" />
    <glyph glyph-name="onehalf" unicode="&#xbd;" horiz-adv-x="1830" 
d="M475 0l574 1434h155l-571 -1434h-158zM440 1434h107v-861h-150v709l-258 -119l-47 111zM1081 123l314 274q86 74 112.5 117.5t26.5 97.5q0 77 -47 110.5t-119 33.5q-168 0 -168 -205h-151q0 59 15.5 112t49.5 102t98.5 78t153.5 29q65 0 120 -14t101 -44t72.5 -83
t26.5 -125q0 -69 -44 -142t-178 -181l-194 -160h465v-123h-654v123z" />
    <glyph glyph-name="threequarters" unicode="&#xbe;" horiz-adv-x="1937" 
d="M338 954v117h98q131 0 131 129q0 69 -42.5 103t-114.5 34q-85 0 -118.5 -44t-33.5 -130h-152q0 59 17 110t51.5 92.5t95 65t140.5 23.5q135 0 219 -61.5t84 -175.5q0 -132 -97 -197q68 -26 107 -76.5t39 -124.5q0 -118 -92 -183t-236 -65q-84 0 -151 24.5t-107 66t-61 91
t-21 103.5h152q0 -73 47 -120.5t139 -47.5q80 0 129 35.5t49 107.5q0 123 -155 123h-117zM618 0l572 1434h160l-576 -1434h-156zM1550 862h148v-524h147v-105h-147v-233h-152v233h-473v93zM1221 338h325v369z" />
    <glyph glyph-name="questiondown" unicode="&#xbf;" horiz-adv-x="1257" 
d="M797 905q0 -66 -45.5 -110.5t-112.5 -44.5q-66 0 -112 44.5t-46 110.5q0 67 46 113.5t112 46.5q67 0 112.5 -46t45.5 -114zM766 584v-56q0 -82 -6.5 -129t-32 -86.5t-59 -64.5t-103.5 -66q-7 -4 -34.5 -19.5t-35.5 -20.5t-30 -20.5t-30 -24.5t-22.5 -26.5t-20 -33
t-10.5 -37.5t-5 -47q0 -47 18 -79t52 -48.5t74 -23.5t93 -7q78 0 132.5 20.5t83 58.5t40 81t11.5 98h254q0 -78 -13 -141.5t-49 -125t-93.5 -103.5t-152 -67.5t-219.5 -25.5q-485 0 -485 355q0 142 52.5 224.5t172.5 154.5q46 28 68 42.5t46 34.5t33 37.5t15 42t6 58.5v45
h250z" />
    <glyph glyph-name="Agrave" unicode="&#xc0;" horiz-adv-x="1642" 
d="M887 1544h-152l-147 340h176zM696 1434h250l635 -1434h-250l-131 313h-758l-131 -313h-250zM530 518h582l-291 692z" />
    <glyph glyph-name="Aacute" unicode="&#xc1;" horiz-adv-x="1642" 
d="M764 1544l119 340h176l-144 -340h-151zM696 1434h250l635 -1434h-250l-131 313h-758l-131 -313h-250zM530 518h582l-291 692z" />
    <glyph glyph-name="Acircumflex" unicode="&#xc2;" horiz-adv-x="1642" 
d="M485 1554l269 320h135l268 -320h-186l-150 195l-149 -195h-187zM696 1434h250l635 -1434h-250l-131 313h-758l-131 -313h-250zM530 518h582l-291 692z" />
    <glyph glyph-name="Atilde" unicode="&#xc3;" horiz-adv-x="1642" 
d="M823 1737q104 -42 127 -46q52 -11 84 31q19 24 39 68l115 -39q-15 -41 -33 -73t-35 -54t-39 -35.5t-40 -21t-43.5 -8t-44 1.5t-46.5 10.5t-47 15.5t-49 19q-102 40 -128 43q-47 6 -77 -38q-15 -23 -33 -65l-116 41q22 59 48 99t56 60t58 28.5t65.5 2.5t66.5 -14.5
t72 -25.5zM696 1434h250l635 -1434h-250l-131 313h-758l-131 -313h-250zM530 518h582l-291 692z" />
    <glyph glyph-name="Adieresis" unicode="&#xc4;" horiz-adv-x="1642" 
d="M473 1696q0 56 39 94.5t96 38.5q56 0 94.5 -38.5t38.5 -94.5q0 -57 -38.5 -96t-94.5 -39q-57 0 -96 39t-39 96zM903 1696q0 56 39 94.5t96 38.5q56 0 94.5 -38.5t38.5 -94.5q0 -57 -38.5 -96t-94.5 -39q-57 0 -96 39t-39 96zM696 1434h250l635 -1434h-250l-131 313h-758
l-131 -313h-250zM530 518h582l-291 692z" />
    <glyph glyph-name="Aring" unicode="&#xc5;" horiz-adv-x="1642" 
d="M549 1780q0 112 80.5 193t193.5 81q111 0 192 -81t81 -193t-81 -193.5t-192 -81.5q-112 0 -193 81t-81 194zM718 1885q-46 -47 -46 -105t46 -104t105 -46q57 0 102.5 46t45.5 104t-45.5 104.5t-102.5 46.5q-59 0 -105 -46zM696 1434h250l635 -1434h-250l-131 313h-758
l-131 -313h-250zM530 518h582l-291 692z" />
    <glyph glyph-name="AE" unicode="&#xc6;" horiz-adv-x="2232" 
d="M696 1434h1444v-205h-780v-389h719v-205h-719v-430h780v-205h-1030v317h-666l-133 -317h-250zM530 522h580v707h-281z" />
    <glyph glyph-name="Ccedilla" unicode="&#xc7;" horiz-adv-x="1652" 
d="M409 955q-42 -105 -42 -238t41.5 -238t111.5 -168t155.5 -95t180.5 -32q98 0 180.5 32t136 83.5t83.5 115.5t30 130h254q0 -76 -27 -154.5t-83.5 -152t-135 -131t-192 -92t-244.5 -35.5l-20 -72q93 -7 143.5 -43.5t50.5 -124.5q0 -61 -26.5 -105t-68.5 -67.5t-97 -33.5
t-110 -7t-109 16v123q110 -34 188 -14.5t78 92.5q0 24 -7 40t-15.5 24.5t-31.5 12.5t-38.5 4.5t-52.5 0.5h-19h-10l37 160q-135 17 -251.5 75.5t-202 150.5t-134.5 222t-49 283q0 167 58.5 307t159.5 233.5t236 145t289 51.5q132 0 245.5 -34.5t192.5 -91.5t135.5 -130.5
t83.5 -152t27 -154.5h-254q0 66 -30 129.5t-83.5 114.5t-136 82.5t-180.5 31.5q-95 0 -180.5 -32t-155.5 -94.5t-111 -167.5z" />
    <glyph glyph-name="Egrave" unicode="&#xc8;" horiz-adv-x="1265" 
d="M752 1544h-152l-147 340h176zM143 1434h1031v-205h-781v-391h719v-205h-719v-428h781v-205h-1031v1434z" />
    <glyph glyph-name="Eacute" unicode="&#xc9;" horiz-adv-x="1265" 
d="M598 1544l119 340h176l-143 -340h-152zM143 1434h1031v-205h-781v-391h719v-205h-719v-428h781v-205h-1031v1434z" />
    <glyph glyph-name="Ecircumflex" unicode="&#xca;" horiz-adv-x="1265" 
d="M328 1554l268 320h135l268 -320h-186l-149 195l-150 -195h-186zM143 1434h1031v-205h-781v-391h719v-205h-719v-428h781v-205h-1031v1434z" />
    <glyph glyph-name="Edieresis" unicode="&#xcb;" horiz-adv-x="1265" 
d="M315 1696q0 56 39.5 94.5t96.5 38.5q55 0 94 -38.5t39 -94.5q0 -57 -38.5 -96t-94.5 -39q-57 0 -96.5 39t-39.5 96zM745 1696q0 56 39.5 94.5t96.5 38.5q55 0 94 -38.5t39 -94.5q0 -57 -38.5 -96t-94.5 -39q-57 0 -96.5 39t-39.5 96zM143 1434h1031v-205h-781v-391h719
v-205h-719v-428h781v-205h-1031v1434z" />
    <glyph glyph-name="Igrave" unicode="&#xcc;" horiz-adv-x="536" 
d="M330 1544h-152l-147 340h176zM143 1434h250v-1434h-250v1434z" />
    <glyph glyph-name="Iacute" unicode="&#xcd;" horiz-adv-x="536" 
d="M209 1544l119 340h176l-144 -340h-151zM143 1434h250v-1434h-250v1434z" />
    <glyph glyph-name="Icircumflex" unicode="&#xce;" horiz-adv-x="536" 
d="M-68 1554l269 320h135l268 -320h-186l-150 195l-149 -195h-187zM143 1434h250v-1434h-250v1434z" />
    <glyph glyph-name="Idieresis" unicode="&#xcf;" horiz-adv-x="536" 
d="M-82 1696q0 56 39 94.5t96 38.5q55 0 94 -38.5t39 -94.5q0 -57 -38.5 -96t-94.5 -39q-57 0 -96 39t-39 96zM348 1696q0 56 39 94.5t96 38.5q55 0 94 -38.5t39 -94.5q0 -57 -38.5 -96t-94.5 -39q-57 0 -96 39t-39 96zM143 1434h250v-1434h-250v1434z" />
    <glyph glyph-name="Eth" unicode="&#xd0;" horiz-adv-x="1613" 
d="M-51 799h194v635h590q157 0 295.5 -47.5t244 -136.5t167 -226.5t61.5 -306.5t-61.5 -306.5t-167 -226.5t-244 -136.5t-295.5 -47.5h-590v635h-194v164zM393 205h340q110 0 202.5 32.5t162.5 95t109.5 161t39.5 223.5t-39.5 223.5t-109.5 161t-162.5 95t-202.5 32.5h-340
v-430h344v-164h-344v-430z" />
    <glyph glyph-name="Ntilde" unicode="&#xd1;" horiz-adv-x="1695" 
d="M850 1737q104 -42 127 -46q52 -11 84 31q19 24 39 68l114 -39q-15 -41 -33 -73t-35 -54t-39 -35.5t-40 -21t-43 -8t-43.5 1.5t-47 10.5t-47 15.5t-48.5 19q-102 40 -128 43q-47 6 -77 -38q-15 -23 -33 -65l-117 41q22 59 48 99t56.5 60t58.5 28.5t65.5 2.5t66.5 -14.5
t72 -25.5zM143 1434h250l910 -1104v1104h249v-1434h-249l-910 1083v-1083h-250v1434z" />
    <glyph glyph-name="Ograve" unicode="&#xd2;" horiz-adv-x="1759" 
d="M948 1544h-151l-148 340h176zM176 407q-63 141 -63 310t63 310t169 233t244 143t290 51q153 0 291.5 -51t244.5 -143t169 -233t63 -310t-63 -310t-169 -233t-244.5 -143t-291.5 -51q-152 0 -290 51t-244 143t-169 233zM1136 1186q-117 63 -257 63t-256 -63.5t-186 -186.5
t-70 -282t70 -282t186 -187t256 -64q105 0 198 37.5t163.5 105.5t111.5 169t41 221q0 159 -70.5 282t-186.5 187z" />
    <glyph glyph-name="Oacute" unicode="&#xd3;" horiz-adv-x="1759" 
d="M815 1544l119 340h176l-143 -340h-152zM176 407q-63 141 -63 310t63 310t169 233t244 143t290 51q153 0 291.5 -51t244.5 -143t169 -233t63 -310t-63 -310t-169 -233t-244.5 -143t-291.5 -51q-152 0 -290 51t-244 143t-169 233zM1136 1186q-117 63 -257 63t-256 -63.5
t-186 -186.5t-70 -282t70 -282t186 -187t256 -64q105 0 198 37.5t163.5 105.5t111.5 169t41 221q0 159 -70.5 282t-186.5 187z" />
    <glyph glyph-name="Ocircumflex" unicode="&#xd4;" horiz-adv-x="1759" 
d="M545 1554l268 320h135l269 -320h-187l-149 195l-150 -195h-186zM176 407q-63 141 -63 310t63 310t169 233t244 143t290 51q153 0 291.5 -51t244.5 -143t169 -233t63 -310t-63 -310t-169 -233t-244.5 -143t-291.5 -51q-152 0 -290 51t-244 143t-169 233zM1136 1186
q-117 63 -257 63t-256 -63.5t-186 -186.5t-70 -282t70 -282t186 -187t256 -64q105 0 198 37.5t163.5 105.5t111.5 169t41 221q0 159 -70.5 282t-186.5 187z" />
    <glyph glyph-name="Otilde" unicode="&#xd5;" horiz-adv-x="1759" 
d="M881 1737q104 -42 126 -46q52 -11 84 29q18 24 39 70l115 -39q-15 -41 -33 -73t-35 -54t-39 -35.5t-40 -21t-43.5 -8t-44 1.5t-46.5 10.5t-47 15.5t-49 19q-102 40 -127 43q-46 6 -76 -37q-16 -22 -34 -66l-117 41q22 59 48 99t56.5 60t58.5 28.5t65.5 2.5t66.5 -14.5
t72 -25.5zM176 407q-63 141 -63 310t63 310t169 233t244 143t290 51q153 0 291.5 -51t244.5 -143t169 -233t63 -310t-63 -310t-169 -233t-244.5 -143t-291.5 -51q-152 0 -290 51t-244 143t-169 233zM1136 1186q-117 63 -257 63t-256 -63.5t-186 -186.5t-70 -282t70 -282
t186 -187t256 -64q105 0 198 37.5t163.5 105.5t111.5 169t41 221q0 159 -70.5 282t-186.5 187z" />
    <glyph glyph-name="Odieresis" unicode="&#xd6;" horiz-adv-x="1759" 
d="M530 1696q0 56 39.5 94.5t96.5 38.5q56 0 94.5 -38.5t38.5 -94.5q0 -57 -38.5 -96t-94.5 -39q-57 0 -96.5 39t-39.5 96zM961 1696q0 56 39 94.5t96 38.5q56 0 94.5 -38.5t38.5 -94.5q0 -57 -38.5 -96t-94.5 -39q-57 0 -96 39t-39 96zM176 407q-63 141 -63 310t63 310
t169 233t244 143t290 51q153 0 291.5 -51t244.5 -143t169 -233t63 -310t-63 -310t-169 -233t-244.5 -143t-291.5 -51q-152 0 -290 51t-244 143t-169 233zM1136 1186q-117 63 -257 63t-256 -63.5t-186 -186.5t-70 -282t70 -282t186 -187t256 -64q105 0 198 37.5t163.5 105.5
t111.5 169t41 221q0 159 -70.5 282t-186.5 187z" />
    <glyph glyph-name="multiply" unicode="&#xd7;" horiz-adv-x="856" 
d="M123 299l188 188l-188 189l117 117l188 -189l188 189l115 -117l-188 -189l188 -188l-115 -115l-188 189l-188 -189z" />
    <glyph glyph-name="Oslash" unicode="&#xd8;" horiz-adv-x="1759" 
d="M489 -205l76 244q-204 82 -328 258t-124 420q0 169 63 310t169 233t244 143t290 51q57 0 129 -10l61 194h199l-76 -243q205 -82 330 -258t125 -420q0 -169 -63 -310t-169 -233t-244.5 -143t-291.5 -51q-57 0 -129 10l-62 -195h-199zM879 1249q-140 0 -256 -63.5
t-186 -186.5t-70 -282q0 -162 71.5 -284t192.5 -187l315 999q-46 4 -67 4zM811 188q46 -4 68 -4q105 0 198 37.5t163.5 105.5t111.5 169t41 221q0 162 -72 285t-195 188z" />
    <glyph glyph-name="Ugrave" unicode="&#xd9;" horiz-adv-x="1554" 
d="M856 1544h-151l-148 340h176zM1161 1434h250v-840q0 -614 -639 -614q-314 0 -471.5 150.5t-157.5 463.5v840h250v-840q0 -214 92 -312t287 -98q196 0 292.5 99t96.5 311v840z" />
    <glyph glyph-name="Uacute" unicode="&#xda;" horiz-adv-x="1554" 
d="M713 1544l118 340h177l-144 -340h-151zM1161 1434h250v-840q0 -614 -639 -614q-314 0 -471.5 150.5t-157.5 463.5v840h250v-840q0 -214 92 -312t287 -98q196 0 292.5 99t96.5 311v840z" />
    <glyph glyph-name="Ucircumflex" unicode="&#xdb;" horiz-adv-x="1554" 
d="M442 1554l269 320h135l268 -320h-186l-150 195l-149 -195h-187zM1161 1434h250v-840q0 -614 -639 -614q-314 0 -471.5 150.5t-157.5 463.5v840h250v-840q0 -214 92 -312t287 -98q196 0 292.5 99t96.5 311v840z" />
    <glyph glyph-name="Udieresis" unicode="&#xdc;" horiz-adv-x="1554" 
d="M428 1696q0 56 39 94.5t96 38.5q55 0 94 -38.5t39 -94.5q0 -57 -38.5 -96t-94.5 -39q-57 0 -96 39t-39 96zM858 1696q0 56 39 94.5t96 38.5q55 0 94 -38.5t39 -94.5q0 -57 -38.5 -96t-94.5 -39q-57 0 -96 39t-39 96zM1161 1434h250v-840q0 -614 -639 -614
q-314 0 -471.5 150.5t-157.5 463.5v840h250v-840q0 -214 92 -312t287 -98q196 0 292.5 99t96.5 311v840z" />
    <glyph glyph-name="Yacute" unicode="&#xdd;" horiz-adv-x="1601" 
d="M745 1544l119 340h176l-143 -340h-152zM676 430l-604 1004h288l441 -768l440 768h289l-604 -1004v-430h-250v430z" />
    <glyph glyph-name="Thorn" unicode="&#xde;" horiz-adv-x="1429" 
d="M795 1198q34 0 73 -4t91 -17.5t100 -34.5t96 -58.5t83 -86t57 -121t22 -159.5t-22 -159.5t-57 -121t-83 -86t-96 -58.5t-100 -34.5t-91 -17.5t-73 -4h-402v-236h-250v1434h250v-236h402zM393 440h381q30 0 63 6t75 24t74 47t54.5 81t22.5 119q0 66 -22.5 117.5t-55 80.5
t-74 47.5t-74.5 24.5t-63 6h-381v-553z" />
    <glyph glyph-name="germandbls" unicode="&#xdf;" horiz-adv-x="1308" 
d="M102 971q0 222 128.5 352.5t385.5 130.5q151 0 266.5 -43.5t184 -134.5t68.5 -219q0 -236 -189 -330q126 -37 198.5 -119.5t72.5 -212.5q0 -200 -159.5 -306.5t-445.5 -106.5l-2 192q172 0 266.5 61t94.5 185q0 111 -71.5 165t-194.5 54h-93v160h62q225 0 225 227
q0 121 -77 178.5t-204 57.5q-143 0 -206.5 -75t-63.5 -216v-971h-246v971z" />
    <glyph glyph-name="agrave" unicode="&#xe0;" horiz-adv-x="1200" 
d="M719 1135h-152l-147 340h176zM213 1024h393q101 0 176.5 -20t123.5 -54.5t77.5 -87t41 -112.5t11.5 -136v-245q0 -95 30 -131.5t118 -36.5h16v-201h-170q-113 1 -159.5 41t-55.5 133q-44 -89 -129.5 -141.5t-212.5 -52.5q-191 0 -281 70t-90 247q0 173 92.5 250.5
t309.5 77.5h287q-1 54 -8.5 86.5t-29.5 60t-66.5 39.5t-115.5 12h-358v201zM791 444h-277q-162 0 -162 -133q0 -44 11.5 -71t39 -40t56 -16.5t78.5 -3.5q111 0 182.5 52t71.5 147v65z" />
    <glyph glyph-name="aacute" unicode="&#xe1;" horiz-adv-x="1200" 
d="M494 1135l118 340h176l-143 -340h-151zM213 1024h393q101 0 176.5 -20t123.5 -54.5t77.5 -87t41 -112.5t11.5 -136v-245q0 -95 30 -131.5t118 -36.5h16v-201h-170q-113 1 -159.5 41t-55.5 133q-44 -89 -129.5 -141.5t-212.5 -52.5q-191 0 -281 70t-90 247
q0 173 92.5 250.5t309.5 77.5h287q-1 54 -8.5 86.5t-29.5 60t-66.5 39.5t-115.5 12h-358v201zM791 444h-277q-162 0 -162 -133q0 -44 11.5 -71t39 -40t56 -16.5t78.5 -3.5q111 0 182.5 52t71.5 147v65z" />
    <glyph glyph-name="acircumflex" unicode="&#xe2;" horiz-adv-x="1200" 
d="M264 1145l268 319h136l268 -319h-186l-150 194l-149 -194h-187zM213 1024h393q101 0 176.5 -20t123.5 -54.5t77.5 -87t41 -112.5t11.5 -136v-245q0 -95 30 -131.5t118 -36.5h16v-201h-170q-113 1 -159.5 41t-55.5 133q-44 -89 -129.5 -141.5t-212.5 -52.5q-191 0 -281 70
t-90 247q0 173 92.5 250.5t309.5 77.5h287q-1 54 -8.5 86.5t-29.5 60t-66.5 39.5t-115.5 12h-358v201zM791 444h-277q-162 0 -162 -133q0 -44 11.5 -71t39 -40t56 -16.5t78.5 -3.5q111 0 182.5 52t71.5 147v65z" />
    <glyph glyph-name="atilde" unicode="&#xe3;" horiz-adv-x="1200" 
d="M602 1327q104 -42 127 -46q52 -11 84 31q19 24 39 68l115 -39q-15 -41 -33 -73t-35 -54t-39 -35.5t-40 -21t-43.5 -8t-44 1.5t-46.5 10.5t-47 15.5t-49 19q-102 40 -127 44q-47 6 -77 -37q-16 -24 -34 -66l-116 41q19 51 42 87.5t45 58t50.5 32t52.5 13t57 -4t57.5 -15
t61.5 -22.5zM213 1024h393q101 0 176.5 -20t123.5 -54.5t77.5 -87t41 -112.5t11.5 -136v-245q0 -95 30 -131.5t118 -36.5h16v-201h-170q-113 1 -159.5 41t-55.5 133q-44 -89 -129.5 -141.5t-212.5 -52.5q-191 0 -281 70t-90 247q0 173 92.5 250.5t309.5 77.5h287
q-1 54 -8.5 86.5t-29.5 60t-66.5 39.5t-115.5 12h-358v201zM791 444h-277q-162 0 -162 -133q0 -44 11.5 -71t39 -40t56 -16.5t78.5 -3.5q111 0 182.5 52t71.5 147v65z" />
    <glyph glyph-name="adieresis" unicode="&#xe4;" horiz-adv-x="1200" 
d="M252 1286q0 56 39 94.5t96 38.5q55 0 94 -38.5t39 -94.5q0 -57 -38.5 -96t-94.5 -39q-57 0 -96 39t-39 96zM682 1286q0 56 39 94.5t96 38.5q55 0 94 -38.5t39 -94.5q0 -57 -38.5 -96t-94.5 -39q-57 0 -96 39t-39 96zM213 1024h393q101 0 176.5 -20t123.5 -54.5t77.5 -87
t41 -112.5t11.5 -136v-245q0 -95 30 -131.5t118 -36.5h16v-201h-170q-113 1 -159.5 41t-55.5 133q-44 -89 -129.5 -141.5t-212.5 -52.5q-191 0 -281 70t-90 247q0 173 92.5 250.5t309.5 77.5h287q-1 54 -8.5 86.5t-29.5 60t-66.5 39.5t-115.5 12h-358v201zM791 444h-277
q-162 0 -162 -133q0 -44 11.5 -71t39 -40t56 -16.5t78.5 -3.5q111 0 182.5 52t71.5 147v65z" />
    <glyph glyph-name="aring" unicode="&#xe5;" horiz-adv-x="1200" 
d="M328 1370q0 113 81 194t193 81q110 0 191 -81.5t81 -193.5t-80.5 -193t-191.5 -81q-112 0 -193 81t-81 193zM451 1370q0 -58 46 -103.5t105 -45.5q57 0 102.5 45.5t45.5 103.5q0 59 -45.5 105.5t-102.5 46.5q-58 0 -104.5 -46.5t-46.5 -105.5zM213 1024h393
q101 0 176.5 -20t123.5 -54.5t77.5 -87t41 -112.5t11.5 -136v-245q0 -95 30 -131.5t118 -36.5h16v-201h-170q-113 1 -159.5 41t-55.5 133q-44 -89 -129.5 -141.5t-212.5 -52.5q-191 0 -281 70t-90 247q0 173 92.5 250.5t309.5 77.5h287q-1 54 -8.5 86.5t-29.5 60t-66.5 39.5
t-115.5 12h-358v201zM791 444h-277q-162 0 -162 -133q0 -44 11.5 -71t39 -40t56 -16.5t78.5 -3.5q111 0 182.5 52t71.5 147v65z" />
    <glyph glyph-name="ae" unicode="&#xe6;" horiz-adv-x="1939" 
d="M203 1024h393q244 0 338 -121q147 141 377 141q249 0 390 -144t146 -374v-94h-813q18 -138 96.5 -205t190.5 -67q121 0 195.5 57t74.5 129h246q-8 -70 -44.5 -133.5t-99.5 -116.5t-162 -84.5t-220 -31.5q-148 0 -267.5 61.5t-187.5 175.5q-47 -106 -147.5 -171.5
t-245.5 -65.5q-191 0 -281 70t-90 247q0 173 92.5 250.5t309.5 77.5h286q-1 54 -8.5 86.5t-29.5 60t-66 39.5t-115 12h-358v201zM1595 612q-38 252 -274 252q-105 0 -182 -63.5t-101 -188.5h557zM780 444h-276q-162 0 -162 -133q0 -44 11.5 -71t38.5 -40t55.5 -16.5
t78.5 -3.5q111 0 182.5 52t71.5 147v65z" />
    <glyph glyph-name="ccedilla" unicode="&#xe7;" 
d="M429 755q-87 -89 -87 -243t87 -243t222 -89q116 0 187 66.5t71 150.5h250q0 -73 -28 -143t-83.5 -131t-150 -100t-215.5 -43l-25 -82q93 -7 144 -43.5t51 -124.5q0 -61 -26.5 -105.5t-69 -67.5t-97.5 -33t-110 -7t-109 16v123q110 -34 188.5 -14.5t78.5 92.5q0 24 -7 40
t-15.5 24.5t-31.5 12.5t-38.5 4.5t-52.5 0.5h-19h-11l39 168q-220 24 -349.5 163t-129.5 365q0 248 154 390t409 142q102 0 187.5 -25t143 -67t97.5 -96.5t58 -112t18 -116.5h-250q0 84 -71 150.5t-187 66.5q-135 0 -222 -89z" />
    <glyph glyph-name="egrave" unicode="&#xe8;" 
d="M694 1135h-151l-148 340h176zM346 432q18 -138 96.5 -205t190.5 -67q121 0 195.5 57t74.5 129h246q-8 -70 -44.5 -133.5t-99.5 -116.5t-162 -84.5t-220 -31.5q-150 0 -269.5 62.5t-190.5 184.5t-71 285t71 285t190.5 184.5t269.5 62.5q249 0 390 -144t146 -374v-94h-813z
M907 612q-38 252 -274 252q-105 0 -182 -63.5t-101 -188.5h557z" />
    <glyph glyph-name="eacute" unicode="&#xe9;" 
d="M571 1135l119 340h176l-143 -340h-152zM346 432q18 -138 96.5 -205t190.5 -67q121 0 195.5 57t74.5 129h246q-8 -70 -44.5 -133.5t-99.5 -116.5t-162 -84.5t-220 -31.5q-150 0 -269.5 62.5t-190.5 184.5t-71 285t71 285t190.5 184.5t269.5 62.5q249 0 390 -144t146 -374
v-94h-813zM907 612q-38 252 -274 252q-105 0 -182 -63.5t-101 -188.5h557z" />
    <glyph glyph-name="ecircumflex" unicode="&#xea;" 
d="M291 1145l268 319h135l269 -319h-187l-149 194l-150 -194h-186zM346 432q18 -138 96.5 -205t190.5 -67q121 0 195.5 57t74.5 129h246q-8 -70 -44.5 -133.5t-99.5 -116.5t-162 -84.5t-220 -31.5q-150 0 -269.5 62.5t-190.5 184.5t-71 285t71 285t190.5 184.5t269.5 62.5
q249 0 390 -144t146 -374v-94h-813zM907 612q-38 252 -274 252q-105 0 -182 -63.5t-101 -188.5h557z" />
    <glyph glyph-name="edieresis" unicode="&#xeb;" 
d="M276 1286q0 56 39.5 94.5t96.5 38.5q56 0 94.5 -38.5t38.5 -94.5q0 -57 -38.5 -96t-94.5 -39q-57 0 -96.5 39t-39.5 96zM707 1286q0 56 39 94.5t96 38.5q56 0 94.5 -38.5t38.5 -94.5q0 -57 -38.5 -96t-94.5 -39q-57 0 -96 39t-39 96zM346 432q18 -138 96.5 -205
t190.5 -67q121 0 195.5 57t74.5 129h246q-8 -70 -44.5 -133.5t-99.5 -116.5t-162 -84.5t-220 -31.5q-150 0 -269.5 62.5t-190.5 184.5t-71 285t71 285t190.5 184.5t269.5 62.5q249 0 390 -144t146 -374v-94h-813zM907 612q-38 252 -274 252q-105 0 -182 -63.5t-101 -188.5
h557z" />
    <glyph glyph-name="igrave" unicode="&#xec;" horiz-adv-x="471" 
d="M297 1135h-152l-147 340h176zM113 1024h245v-1024h-245v1024z" />
    <glyph glyph-name="iacute" unicode="&#xed;" horiz-adv-x="471" 
d="M176 1135l119 340h176l-143 -340h-152zM113 1024h245v-1024h-245v1024z" />
    <glyph glyph-name="icircumflex" unicode="&#xee;" horiz-adv-x="471" 
d="M-100 1145l268 319h135l268 -319h-186l-149 194l-150 -194h-186zM113 1024h245v-1024h-245v1024z" />
    <glyph glyph-name="idieresis" unicode="&#xef;" horiz-adv-x="471" 
d="M-115 1286q0 56 39 94.5t96 38.5q56 0 95 -39t39 -94q0 -57 -39 -96t-95 -39q-57 0 -96 39t-39 96zM315 1286q0 56 39.5 94.5t96.5 38.5q55 0 94 -38.5t39 -94.5q0 -57 -38.5 -96t-94.5 -39q-57 0 -96.5 39t-39.5 96zM113 1024h245v-1024h-245v1024z" />
    <glyph glyph-name="eth" unicode="&#xf0;" horiz-adv-x="1312" 
d="M586 1434l145 -191h385v-164h-260l240 -311q104 -126 104 -299q0 -146 -74 -259t-197 -171.5t-272 -58.5q-146 0 -269 58.5t-199 171.5t-76 259q0 109 43.5 201.5t117.5 154.5t171.5 97t205.5 36l-94 121h-344v164h217l-147 191h303zM657 180q118 0 205.5 80.5
t87.5 208.5t-87.5 208.5t-205.5 80.5q-119 0 -207 -80t-88 -209t88 -209t207 -80z" />
    <glyph glyph-name="ntilde" unicode="&#xf1;" horiz-adv-x="1261" 
d="M633 1327q104 -42 127 -46q52 -11 84 31q19 24 39 68l114 -39q-15 -41 -33 -73t-35 -54t-39 -35.5t-40 -21t-43 -8t-43.5 1.5t-47 10.5t-47 15.5t-48.5 19q-102 40 -127 44q-47 6 -77 -37q-16 -24 -34 -66l-117 41q19 51 42 87.5t45.5 58t50.5 32t52 13t57 -4t58 -15
t62 -22.5zM123 1024h246v-184q62 96 163 150t220 54q202 0 294.5 -108.5t92.5 -300.5v-635h-246v573q0 133 -55 202t-195 69q-115 0 -194.5 -78t-79.5 -203v-563h-246v1024z" />
    <glyph glyph-name="ograve" unicode="&#xf2;" horiz-adv-x="1314" 
d="M725 1135h-152l-147 340h176zM657 180q135 0 225.5 94t90.5 238t-90.5 238t-225.5 94q-134 0 -224.5 -94t-90.5 -238t90.5 -238t224.5 -94zM657 1044q153 0 280.5 -62t206.5 -185t79 -285t-79 -285t-206.5 -185t-280.5 -62q-114 0 -216 36.5t-180 103.5t-123.5 168.5
t-45.5 223.5t45.5 223.5t123.5 168.5t180 103.5t216 36.5z" />
    <glyph glyph-name="oacute" unicode="&#xf3;" horiz-adv-x="1314" 
d="M592 1135l119 340h176l-144 -340h-151zM657 180q135 0 225.5 94t90.5 238t-90.5 238t-225.5 94q-134 0 -224.5 -94t-90.5 -238t90.5 -238t224.5 -94zM657 1044q153 0 280.5 -62t206.5 -185t79 -285t-79 -285t-206.5 -185t-280.5 -62q-114 0 -216 36.5t-180 103.5
t-123.5 168.5t-45.5 223.5t45.5 223.5t123.5 168.5t180 103.5t216 36.5z" />
    <glyph glyph-name="ocircumflex" unicode="&#xf4;" horiz-adv-x="1314" 
d="M322 1145l268 319h135l268 -319h-186l-150 194l-149 -194h-186zM657 180q135 0 225.5 94t90.5 238t-90.5 238t-225.5 94q-134 0 -224.5 -94t-90.5 -238t90.5 -238t224.5 -94zM657 1044q153 0 280.5 -62t206.5 -185t79 -285t-79 -285t-206.5 -185t-280.5 -62
q-114 0 -216 36.5t-180 103.5t-123.5 168.5t-45.5 223.5t45.5 223.5t123.5 168.5t180 103.5t216 36.5z" />
    <glyph glyph-name="otilde" unicode="&#xf5;" horiz-adv-x="1314" 
d="M659 1327q104 -42 127 -46q52 -11 84 31q19 24 39 68l115 -39q-15 -41 -33 -73t-35 -54t-39 -35.5t-40 -21t-43.5 -8t-44 1.5t-46.5 10.5t-47 15.5t-49 19q-102 40 -126 44q-46 6 -76 -36q-16 -23 -35 -67l-117 41q19 51 42 87.5t45 58t50.5 32t52.5 13t57 -4t57.5 -15
t61.5 -22.5zM657 180q135 0 225.5 94t90.5 238t-90.5 238t-225.5 94q-134 0 -224.5 -94t-90.5 -238t90.5 -238t224.5 -94zM657 1044q153 0 280.5 -62t206.5 -185t79 -285t-79 -285t-206.5 -185t-280.5 -62q-114 0 -216 36.5t-180 103.5t-123.5 168.5t-45.5 223.5t45.5 223.5
t123.5 168.5t180 103.5t216 36.5z" />
    <glyph glyph-name="odieresis" unicode="&#xf6;" horiz-adv-x="1314" 
d="M309 1286q0 56 39 94.5t96 38.5q56 0 95 -39t39 -94q0 -57 -39 -96t-95 -39q-57 0 -96 39t-39 96zM739 1286q0 56 39 94.5t96 38.5q56 0 95 -39t39 -94q0 -57 -39 -96t-95 -39q-57 0 -96 39t-39 96zM657 180q135 0 225.5 94t90.5 238t-90.5 238t-225.5 94
q-134 0 -224.5 -94t-90.5 -238t90.5 -238t224.5 -94zM657 1044q153 0 280.5 -62t206.5 -185t79 -285t-79 -285t-206.5 -185t-280.5 -62q-114 0 -216 36.5t-180 103.5t-123.5 168.5t-45.5 223.5t45.5 223.5t123.5 168.5t180 103.5t216 36.5z" />
    <glyph glyph-name="divide" unicode="&#xf7;" horiz-adv-x="860" 
d="M260 1006q0 68 48.5 115.5t119.5 47.5q68 0 116 -48t48 -115q0 -71 -48 -119.5t-116 -48.5q-72 0 -120 48t-48 120zM125 655h614v-163h-614v163zM260 147q0 68 48.5 116t119.5 48q68 0 116 -48.5t48 -115.5q0 -71 -48 -119t-116 -48q-72 0 -120 47.5t-48 119.5z" />
    <glyph glyph-name="oslash" unicode="&#xf8;" horiz-adv-x="1335" 
d="M668 180q134 0 224.5 94t90.5 238t-90.5 238t-224.5 94q-135 0 -225.5 -94t-90.5 -238t90.5 -238t225.5 -94zM668 1044q21 0 67 -4l60 189h198l-73 -234q143 -61 228 -186t85 -297q0 -122 -45.5 -223.5t-123.5 -168.5t-180 -103.5t-216 -36.5q-22 0 -68 4l-57 -189h-199
l74 234q-144 61 -230 186.5t-86 296.5q0 162 79 285t206.5 185t280.5 62z" />
    <glyph glyph-name="ugrave" unicode="&#xf9;" horiz-adv-x="1323" 
d="M713 1135h-152l-147 340h176zM1303 201v-201h-156q-120 1 -178 46.5t-72 146.5q-62 -100 -163.5 -156.5t-223.5 -56.5q-202 0 -294.5 108.5t-92.5 300.5v635h246v-573q0 -132 55.5 -201.5t196.5 -69.5q115 0 193.5 78.5t78.5 202.5v563h246v-655q0 -97 27 -132.5
t114 -35.5h23z" />
    <glyph glyph-name="uacute" unicode="&#xfa;" horiz-adv-x="1323" 
d="M563 1135l119 340h176l-143 -340h-152zM1303 201v-201h-156q-120 1 -178 46.5t-72 146.5q-62 -100 -163.5 -156.5t-223.5 -56.5q-202 0 -294.5 108.5t-92.5 300.5v635h246v-573q0 -132 55.5 -201.5t196.5 -69.5q115 0 193.5 78.5t78.5 202.5v563h246v-655
q0 -97 27 -132.5t114 -35.5h23z" />
    <glyph glyph-name="ucircumflex" unicode="&#xfb;" horiz-adv-x="1323" 
d="M305 1145l268 319h136l268 -319h-186l-150 194l-149 -194h-187zM1303 201v-201h-156q-120 1 -178 46.5t-72 146.5q-62 -100 -163.5 -156.5t-223.5 -56.5q-202 0 -294.5 108.5t-92.5 300.5v635h246v-573q0 -132 55.5 -201.5t196.5 -69.5q115 0 193.5 78.5t78.5 202.5v563
h246v-655q0 -97 27 -132.5t114 -35.5h23z" />
    <glyph glyph-name="udieresis" unicode="&#xfc;" horiz-adv-x="1323" 
d="M291 1286q0 56 39 94.5t96 38.5q56 0 94.5 -38.5t38.5 -94.5q0 -57 -38.5 -96t-94.5 -39q-57 0 -96 39t-39 96zM721 1286q0 56 39 94.5t96 38.5q56 0 94.5 -38.5t38.5 -94.5q0 -57 -38.5 -96t-94.5 -39q-57 0 -96 39t-39 96zM1303 201v-201h-156q-120 1 -178 46.5
t-72 146.5q-62 -100 -163.5 -156.5t-223.5 -56.5q-202 0 -294.5 108.5t-92.5 300.5v635h246v-573q0 -132 55.5 -201.5t196.5 -69.5q115 0 193.5 78.5t78.5 202.5v563h246v-655q0 -97 27 -132.5t114 -35.5h23z" />
    <glyph glyph-name="yacute" unicode="&#xfd;" horiz-adv-x="1232" 
d="M561 1135l119 340h176l-143 -340h-152zM1171 1024l-438 -1044q-36 -86 -57.5 -130t-57.5 -97t-73 -77t-97 -47.5t-138 -31t-187 -7.5v201q83 0 139.5 8t91 20t59 37.5t37 49t31.5 65.5q5 13 8 19l11 20l-437 1014h269l289 -739l282 739h268z" />
    <glyph glyph-name="thorn" unicode="&#xfe;" horiz-adv-x="1333" 
d="M1107 896q134 -148 134 -384t-134.5 -384t-354.5 -148q-119 0 -219.5 50t-163.5 140v-580h-246v1844h246v-580q63 90 163.5 140t219.5 50q220 0 355 -148zM369 430q0 -103 93.5 -176.5t213.5 -73.5q138 0 226.5 91t88.5 241t-88.5 241t-226.5 91q-120 0 -213.5 -73.5
t-93.5 -176.5v-164z" />
    <glyph glyph-name="ydieresis" unicode="&#xff;" horiz-adv-x="1232" 
d="M266 1286q0 56 39 94.5t96 38.5q56 0 95 -39t39 -94q0 -57 -39 -96t-95 -39q-57 0 -96 39t-39 96zM696 1286q0 56 39 94.5t96 38.5q56 0 95 -39t39 -94q0 -57 -39 -96t-95 -39q-57 0 -96 39t-39 96zM1171 1024l-438 -1044q-36 -86 -57.5 -130t-57.5 -97t-73 -77
t-97 -47.5t-138 -31t-187 -7.5v201q83 0 139.5 8t91 20t59 37.5t37 49t31.5 65.5q5 13 8 19l11 20l-437 1014h269l289 -739l282 739h268z" />
    <glyph glyph-name="Amacron" unicode="&#x100;" horiz-adv-x="1642" 
d="M561 1720h522v-123h-522v123zM696 1434h250l635 -1434h-250l-131 313h-758l-131 -313h-250zM530 518h582l-291 692z" />
    <glyph glyph-name="amacron" unicode="&#x101;" horiz-adv-x="1200" 
d="M340 1311h522v-123h-522v123zM213 1024h393q101 0 176.5 -20t123.5 -54.5t77.5 -87t41 -112.5t11.5 -136v-245q0 -95 30 -131.5t118 -36.5h16v-201h-170q-113 1 -159.5 41t-55.5 133q-44 -89 -129.5 -141.5t-212.5 -52.5q-191 0 -281 70t-90 247q0 173 92.5 250.5
t309.5 77.5h287q-1 54 -8.5 86.5t-29.5 60t-66.5 39.5t-115.5 12h-358v201zM791 444h-277q-162 0 -162 -133q0 -44 11.5 -71t39 -40t56 -16.5t78.5 -3.5q111 0 182.5 52t71.5 147v65z" />
    <glyph glyph-name="Abreve" unicode="&#x102;" horiz-adv-x="1642" 
d="M498 1905h141q0 -91 47 -148t135 -57t135.5 57t47.5 148h141q0 -89 -26 -157.5t-71 -110t-102.5 -62.5t-124.5 -21q-140 0 -231.5 88.5t-91.5 262.5zM696 1434h250l635 -1434h-250l-131 313h-758l-131 -313h-250zM530 518h582l-291 692z" />
    <glyph glyph-name="abreve" unicode="&#x103;" horiz-adv-x="1200" 
d="M276 1495h142q0 -91 47 -148t135 -57t135 57t47 148h142q0 -173 -92 -261.5t-232 -88.5t-232 88.5t-92 261.5zM213 1024h393q101 0 176.5 -20t123.5 -54.5t77.5 -87t41 -112.5t11.5 -136v-245q0 -95 30 -131.5t118 -36.5h16v-201h-170q-113 1 -159.5 41t-55.5 133
q-44 -89 -129.5 -141.5t-212.5 -52.5q-191 0 -281 70t-90 247q0 173 92.5 250.5t309.5 77.5h287q-1 54 -8.5 86.5t-29.5 60t-66.5 39.5t-115.5 12h-358v201zM791 444h-277q-162 0 -162 -133q0 -44 11.5 -71t39 -40t56 -16.5t78.5 -3.5q111 0 182.5 52t71.5 147v65z" />
    <glyph glyph-name="Aogonek" unicode="&#x104;" horiz-adv-x="1642" 
d="M696 1434h250l635 -1434h-137l4 -4q-44 -53 -63.5 -79.5t-37.5 -67t-18 -80.5q0 -43 23.5 -67.5t65.5 -29.5t90.5 1t107.5 22v-135q-65 -16 -135 -17.5t-136 13.5t-108.5 61t-42.5 117q0 47 23 100t47.5 87t64.5 83l-129 309h-758l-131 -313h-250zM530 518h582l-291 692z
" />
    <glyph glyph-name="aogonek" unicode="&#x105;" horiz-adv-x="1200" 
d="M213 1024h393q101 0 176.5 -20t123.5 -54.5t77.5 -87t41 -112.5t11.5 -136v-245q0 -95 30 -131.5t118 -36.5h16v-201h-170q-5 0 -15.5 1t-15.5 1q-50 -63 -73 -107t-23 -94q0 -43 23.5 -67.5t65.5 -29.5t90.5 1.5t107.5 22.5v-136q-65 -16 -135 -17.5t-136 14
t-108.5 61.5t-42.5 117q0 65 34.5 127.5t92.5 132.5q-37 20 -55.5 55t-24.5 92q-44 -89 -129.5 -141.5t-212.5 -52.5q-191 0 -281 70t-90 247q0 173 92.5 250.5t309.5 77.5h287q-1 54 -8.5 86.5t-29.5 60t-66.5 39.5t-115.5 12h-358v201zM791 444h-277q-162 0 -162 -133
q0 -44 11.5 -71t39 -40t56 -16.5t78.5 -3.5q111 0 182.5 52t71.5 147v65z" />
    <glyph glyph-name="Cacute" unicode="&#x106;" horiz-adv-x="1652" 
d="M752 1544l118 340h177l-144 -340h-151zM409 955q-42 -105 -42 -238t41.5 -238t111.5 -168t155.5 -95t180.5 -32q98 0 180.5 32t136 83.5t83.5 115.5t30 130h254q0 -76 -27 -154.5t-83.5 -152.5t-135.5 -131t-192.5 -92t-245.5 -35q-154 0 -289 51.5t-236 145
t-159.5 233.5t-58.5 307t58.5 307t159.5 233.5t236 145t289 51.5q132 0 245.5 -34.5t192.5 -91.5t135.5 -130.5t83.5 -152t27 -154.5h-254q0 66 -30 129.5t-83.5 114.5t-136 82.5t-180.5 31.5q-95 0 -180.5 -32t-155.5 -94.5t-111 -167.5z" />
    <glyph glyph-name="cacute" unicode="&#x107;" 
d="M571 1135l119 340h176l-143 -340h-152zM429 755q-87 -89 -87 -243t87 -243t222 -89q116 0 187 66.5t71 150.5h250q0 -59 -18 -116.5t-58 -112t-97.5 -96.5t-143 -67t-187.5 -25q-255 0 -409 142t-154 390t154 390t409 142q102 0 187.5 -25t143 -67t97.5 -96.5t58 -112
t18 -116.5h-250q0 84 -71 150.5t-187 66.5q-135 0 -222 -89z" />
    <glyph glyph-name="Ccircumflex" unicode="&#x108;" horiz-adv-x="1652" 
d="M492 1554l268 320h135l268 -320h-186l-150 195l-149 -195h-186zM409 955q-42 -105 -42 -238t41.5 -238t111.5 -168t155.5 -95t180.5 -32q98 0 180.5 32t136 83.5t83.5 115.5t30 130h254q0 -76 -27 -154.5t-83.5 -152.5t-135.5 -131t-192.5 -92t-245.5 -35
q-154 0 -289 51.5t-236 145t-159.5 233.5t-58.5 307t58.5 307t159.5 233.5t236 145t289 51.5q132 0 245.5 -34.5t192.5 -91.5t135.5 -130.5t83.5 -152t27 -154.5h-254q0 66 -30 129.5t-83.5 114.5t-136 82.5t-180.5 31.5q-95 0 -180.5 -32t-155.5 -94.5t-111 -167.5z" />
    <glyph glyph-name="ccircumflex" unicode="&#x109;" 
d="M291 1145l268 319h135l269 -319h-187l-149 194l-150 -194h-186zM429 755q-87 -89 -87 -243t87 -243t222 -89q116 0 187 66.5t71 150.5h250q0 -59 -18 -116.5t-58 -112t-97.5 -96.5t-143 -67t-187.5 -25q-255 0 -409 142t-154 390t154 390t409 142q102 0 187.5 -25
t143 -67t97.5 -96.5t58 -112t18 -116.5h-250q0 84 -71 150.5t-187 66.5q-135 0 -222 -89z" />
    <glyph glyph-name="Cdotaccent" unicode="&#x10a;" horiz-adv-x="1652" 
d="M692 1696q0 56 39 94.5t96 38.5q56 0 95 -39t39 -94q0 -57 -39 -96t-95 -39q-57 0 -96 39t-39 96zM409 955q-42 -105 -42 -238t41.5 -238t111.5 -168t155.5 -95t180.5 -32q98 0 180.5 32t136 83.5t83.5 115.5t30 130h254q0 -76 -27 -154.5t-83.5 -152.5t-135.5 -131
t-192.5 -92t-245.5 -35q-154 0 -289 51.5t-236 145t-159.5 233.5t-58.5 307t58.5 307t159.5 233.5t236 145t289 51.5q132 0 245.5 -34.5t192.5 -91.5t135.5 -130.5t83.5 -152t27 -154.5h-254q0 66 -30 129.5t-83.5 114.5t-136 82.5t-180.5 31.5q-95 0 -180.5 -32
t-155.5 -94.5t-111 -167.5z" />
    <glyph glyph-name="cdotaccent" unicode="&#x10b;" 
d="M492 1286q0 56 39 94.5t96 38.5q55 0 94 -38.5t39 -94.5q0 -57 -38.5 -96t-94.5 -39q-57 0 -96 39t-39 96zM429 755q-87 -89 -87 -243t87 -243t222 -89q116 0 187 66.5t71 150.5h250q0 -59 -18 -116.5t-58 -112t-97.5 -96.5t-143 -67t-187.5 -25q-255 0 -409 142
t-154 390t154 390t409 142q102 0 187.5 -25t143 -67t97.5 -96.5t58 -112t18 -116.5h-250q0 84 -71 150.5t-187 66.5q-135 0 -222 -89z" />
    <glyph glyph-name="Ccaron" unicode="&#x10c;" horiz-adv-x="1652" 
d="M492 1864h186l149 -195l150 195h186l-268 -320h-135zM409 955q-42 -105 -42 -238t41.5 -238t111.5 -168t155.5 -95t180.5 -32q98 0 180.5 32t136 83.5t83.5 115.5t30 130h254q0 -76 -27 -154.5t-83.5 -152.5t-135.5 -131t-192.5 -92t-245.5 -35q-154 0 -289 51.5
t-236 145t-159.5 233.5t-58.5 307t58.5 307t159.5 233.5t236 145t289 51.5q132 0 245.5 -34.5t192.5 -91.5t135.5 -130.5t83.5 -152t27 -154.5h-254q0 66 -30 129.5t-83.5 114.5t-136 82.5t-180.5 31.5q-95 0 -180.5 -32t-155.5 -94.5t-111 -167.5z" />
    <glyph glyph-name="ccaron" unicode="&#x10d;" 
d="M291 1454h186l150 -194l149 194h187l-269 -319h-135zM429 755q-87 -89 -87 -243t87 -243t222 -89q116 0 187 66.5t71 150.5h250q0 -59 -18 -116.5t-58 -112t-97.5 -96.5t-143 -67t-187.5 -25q-255 0 -409 142t-154 390t154 390t409 142q102 0 187.5 -25t143 -67
t97.5 -96.5t58 -112t18 -116.5h-250q0 84 -71 150.5t-187 66.5q-135 0 -222 -89z" />
    <glyph glyph-name="Dcaron" unicode="&#x10e;" horiz-adv-x="1613" 
d="M471 1864h186l150 -195l149 195h187l-269 -320h-135zM733 1434q157 0 295.5 -47.5t244 -136.5t167 -226.5t61.5 -306.5t-61.5 -306.5t-167 -226.5t-244 -136.5t-295.5 -47.5h-590v1434h590zM393 205h340q110 0 202.5 32.5t162.5 95t109.5 161t39.5 223.5t-39.5 223.5
t-109.5 161t-162.5 95t-202.5 32.5h-340v-1024z" />
    <glyph glyph-name="dcaron" unicode="&#x10f;" horiz-adv-x="1841" 
d="M228 128q-136 148 -136 384t136 384t356 148q118 0 218.5 -50.5t162.5 -139.5v580h245v-1434h-245v170q-62 -89 -162.5 -139.5t-218.5 -50.5q-220 0 -356 148zM659 180q119 0 212.5 73.5t93.5 176.5v164q0 103 -93.5 176.5t-212.5 73.5q-140 0 -228.5 -91t-88.5 -241
t88.5 -241t228.5 -91zM1708 1212l-174 -325h-129l111 243q-54 14 -87.5 58t-33.5 104q0 68 48 115t120 47q68 0 115.5 -47.5t47.5 -114.5q0 -46 -18 -80z" />
    <glyph glyph-name="Dcroat" unicode="&#x110;" horiz-adv-x="1613" 
d="M-51 799h194v635h590q157 0 295.5 -47.5t244 -136.5t167 -226.5t61.5 -306.5t-61.5 -306.5t-167 -226.5t-244 -136.5t-295.5 -47.5h-590v635h-194v164zM393 205h340q110 0 202.5 32.5t162.5 95t109.5 161t39.5 223.5t-39.5 223.5t-109.5 161t-162.5 95t-202.5 32.5h-340
v-430h344v-164h-344v-430z" />
    <glyph glyph-name="dcroat" unicode="&#x111;" horiz-adv-x="1333" 
d="M586 1311h379v123h245v-123h195v-164h-195v-1147h-245v180q-58 -95 -158.5 -147.5t-222.5 -52.5q-220 0 -356 148t-136 384t136 384t356 148q122 0 222.5 -52.5t158.5 -147.5v303h-379v164zM659 180q119 0 212.5 73.5t93.5 176.5v164q0 103 -93.5 176.5t-212.5 73.5
q-140 0 -228.5 -91t-88.5 -241t88.5 -241t228.5 -91z" />
    <glyph glyph-name="Emacron" unicode="&#x112;" horiz-adv-x="1265" 
d="M403 1720h523v-123h-523v123zM143 1434h1031v-205h-781v-391h719v-205h-719v-428h781v-205h-1031v1434z" />
    <glyph glyph-name="emacron" unicode="&#x113;" 
d="M365 1311h522v-123h-522v123zM346 432q18 -138 96.5 -205t190.5 -67q121 0 195.5 57t74.5 129h246q-8 -70 -44.5 -133.5t-99.5 -116.5t-162 -84.5t-220 -31.5q-150 0 -269.5 62.5t-190.5 184.5t-71 285t71 285t190.5 184.5t269.5 62.5q249 0 390 -144t146 -374v-94h-813z
M907 612q-38 252 -274 252q-105 0 -182 -63.5t-101 -188.5h557z" />
    <glyph glyph-name="Ebreve" unicode="&#x114;" horiz-adv-x="1265" 
d="M340 1905h141q0 -91 47.5 -148t135.5 -57t135 57t47 148h141q0 -174 -91.5 -262.5t-231.5 -88.5q-67 0 -124.5 21t-102.5 62.5t-71 110t-26 157.5zM143 1434h1031v-205h-781v-391h719v-205h-719v-428h781v-205h-1031v1434z" />
    <glyph glyph-name="ebreve" unicode="&#x115;" 
d="M324 1495h141q0 -91 47 -148t135 -57t135 57t47 148h142q0 -173 -92 -261.5t-232 -88.5q-67 0 -124 21t-102.5 62t-71 109.5t-25.5 157.5zM346 432q18 -138 96.5 -205t190.5 -67q121 0 195.5 57t74.5 129h246q-8 -70 -44.5 -133.5t-99.5 -116.5t-162 -84.5t-220 -31.5
q-150 0 -269.5 62.5t-190.5 184.5t-71 285t71 285t190.5 184.5t269.5 62.5q249 0 390 -144t146 -374v-94h-813zM907 612q-38 252 -274 252q-105 0 -182 -63.5t-101 -188.5h557z" />
    <glyph glyph-name="Edotaccent" unicode="&#x116;" horiz-adv-x="1265" 
d="M530 1696q0 56 39.5 94.5t96.5 38.5q56 0 94.5 -38.5t38.5 -94.5q0 -57 -38.5 -96t-94.5 -39q-57 0 -96.5 39t-39.5 96zM143 1434h1031v-205h-781v-391h719v-205h-719v-428h781v-205h-1031v1434z" />
    <glyph glyph-name="edotaccent" unicode="&#x117;" 
d="M492 1286q0 56 39 94.5t96 38.5q55 0 94 -38.5t39 -94.5q0 -57 -38.5 -96t-94.5 -39q-57 0 -96 39t-39 96zM346 432q18 -138 96.5 -205t190.5 -67q121 0 195.5 57t74.5 129h246q-8 -70 -44.5 -133.5t-99.5 -116.5t-162 -84.5t-220 -31.5q-150 0 -269.5 62.5t-190.5 184.5
t-71 285t71 285t190.5 184.5t269.5 62.5q249 0 390 -144t146 -374v-94h-813zM907 612q-38 252 -274 252q-105 0 -182 -63.5t-101 -188.5h557z" />
    <glyph glyph-name="Eogonek" unicode="&#x118;" horiz-adv-x="1265" 
d="M143 1434h1031v-205h-781v-391h719v-205h-719v-428h781v-205h-173l5 -4q-44 -53 -63.5 -79.5t-37.5 -67t-18 -80.5q0 -43 23.5 -67.5t65.5 -29.5t90.5 1t107.5 22v-135q-65 -16 -135 -17.5t-136 13.5t-108.5 61t-42.5 117q0 47 22.5 98.5t46.5 85.5t64 82h-742v1434z" />
    <glyph glyph-name="eogonek" unicode="&#x119;" 
d="M346 432q18 -138 96.5 -205t190.5 -67q121 0 195.5 57t74.5 129h246q-7 -65 -39 -125t-87.5 -111t-141.5 -85.5t-191 -42.5l4 -2q-43 -52 -63 -79t-38 -68t-18 -81q0 -43 23.5 -67.5t65.5 -29.5t90.5 1t107.5 22v-135q-65 -16 -135 -17.5t-136 13.5t-108.5 61t-42.5 117
q0 66 35.5 129.5t95.5 135.5q-210 18 -344.5 159.5t-134.5 370.5q0 163 71 285t190.5 184.5t269.5 62.5q249 0 390 -144t146 -374v-94h-813zM907 612q-38 252 -274 252q-105 0 -182 -63.5t-101 -188.5h557z" />
    <glyph glyph-name="Ecaron" unicode="&#x11a;" horiz-adv-x="1265" 
d="M338 1864h186l150 -195l149 195h187l-269 -320h-135zM143 1434h1031v-205h-781v-391h719v-205h-719v-428h781v-205h-1031v1434z" />
    <glyph glyph-name="ecaron" unicode="&#x11b;" 
d="M291 1454h186l150 -194l149 194h187l-269 -319h-135zM346 432q18 -138 96.5 -205t190.5 -67q121 0 195.5 57t74.5 129h246q-8 -70 -44.5 -133.5t-99.5 -116.5t-162 -84.5t-220 -31.5q-150 0 -269.5 62.5t-190.5 184.5t-71 285t71 285t190.5 184.5t269.5 62.5
q249 0 390 -144t146 -374v-94h-813zM907 612q-38 252 -274 252q-105 0 -182 -63.5t-101 -188.5h557z" />
    <glyph glyph-name="Gcircumflex" unicode="&#x11c;" horiz-adv-x="1673" 
d="M502 1554l268 320h135l269 -320h-187l-149 195l-150 -195h-186zM367 723q0 -250 143.5 -388t384.5 -138q190 0 294.5 90.5t119.5 257.5h-496v203h748v-748h-230v186q-162 -196 -469 -196q-152 0 -288 51t-238.5 143.5t-162.5 232t-60 306.5t61.5 306.5t166 231.5
t241.5 142.5t290 50.5q147 0 275.5 -47t212.5 -121.5t132 -163.5t48 -176h-254q0 122 -115 212.5t-301 90.5q-226 0 -364.5 -136.5t-138.5 -389.5z" />
    <glyph glyph-name="gcircumflex" unicode="&#x11d;" horiz-adv-x="1333" 
d="M332 1145l268 319h135l269 -319h-187l-149 194l-150 -194h-186zM252 -209h418q157 0 226 63t69 207v109q-62 -89 -162.5 -139.5t-218.5 -50.5q-220 0 -356 148t-136 384t136 384t356 148q118 0 218.5 -50.5t162.5 -139.5v170h245v-932q0 -248 -126 -375t-394 -127h-438
v201zM659 180q119 0 212.5 73.5t93.5 176.5v164q0 103 -93.5 176.5t-212.5 73.5q-140 0 -228.5 -91t-88.5 -241t88.5 -241t228.5 -91z" />
    <glyph glyph-name="Gbreve" unicode="&#x11e;" horiz-adv-x="1673" 
d="M514 1905h141q0 -91 47.5 -148t135.5 -57t135 57t47 148h141q0 -174 -91.5 -262.5t-231.5 -88.5q-67 0 -124.5 21t-102.5 62.5t-71 110t-26 157.5zM367 723q0 -250 143.5 -388t384.5 -138q190 0 294.5 90.5t119.5 257.5h-496v203h748v-748h-230v186q-162 -196 -469 -196
q-152 0 -288 51t-238.5 143.5t-162.5 232t-60 306.5t61.5 306.5t166 231.5t241.5 142.5t290 50.5q147 0 275.5 -47t212.5 -121.5t132 -163.5t48 -176h-254q0 122 -115 212.5t-301 90.5q-226 0 -364.5 -136.5t-138.5 -389.5z" />
    <glyph glyph-name="gbreve" unicode="&#x11f;" horiz-adv-x="1333" 
d="M344 1495h141q0 -91 47.5 -148t135.5 -57t135 57t47 148h141q0 -89 -25.5 -157.5t-71 -109.5t-102.5 -62t-124 -21q-140 0 -232 88.5t-92 261.5zM252 -209h418q157 0 226 63t69 207v109q-62 -89 -162.5 -139.5t-218.5 -50.5q-220 0 -356 148t-136 384t136 384t356 148
q118 0 218.5 -50.5t162.5 -139.5v170h245v-932q0 -248 -126 -375t-394 -127h-438v201zM659 180q119 0 212.5 73.5t93.5 176.5v164q0 103 -93.5 176.5t-212.5 73.5q-140 0 -228.5 -91t-88.5 -241t88.5 -241t228.5 -91z" />
    <glyph glyph-name="Gdotaccent" unicode="&#x120;" horiz-adv-x="1673" 
d="M702 1696q0 56 39.5 94.5t96.5 38.5q56 0 94.5 -38.5t38.5 -94.5q0 -57 -38.5 -96t-94.5 -39q-57 0 -96.5 39t-39.5 96zM367 723q0 -250 143.5 -388t384.5 -138q190 0 294.5 90.5t119.5 257.5h-496v203h748v-748h-230v186q-162 -196 -469 -196q-152 0 -288 51
t-238.5 143.5t-162.5 232t-60 306.5t61.5 306.5t166 231.5t241.5 142.5t290 50.5q147 0 275.5 -47t212.5 -121.5t132 -163.5t48 -176h-254q0 122 -115 212.5t-301 90.5q-226 0 -364.5 -136.5t-138.5 -389.5z" />
    <glyph glyph-name="gdotaccent" unicode="&#x121;" horiz-adv-x="1333" 
d="M532 1286q0 56 39.5 94.5t96.5 38.5q56 0 94.5 -38.5t38.5 -94.5q0 -57 -38.5 -96t-94.5 -39q-57 0 -96.5 39t-39.5 96zM252 -209h418q157 0 226 63t69 207v109q-62 -89 -162.5 -139.5t-218.5 -50.5q-220 0 -356 148t-136 384t136 384t356 148q118 0 218.5 -50.5
t162.5 -139.5v170h245v-932q0 -248 -126 -375t-394 -127h-438v201zM659 180q119 0 212.5 73.5t93.5 176.5v164q0 103 -93.5 176.5t-212.5 73.5q-140 0 -228.5 -91t-88.5 -241t88.5 -241t228.5 -91z" />
    <glyph glyph-name="uni0122" unicode="&#x122;" horiz-adv-x="1673" 
d="M367 723q0 -250 143.5 -388t384.5 -138q190 0 294.5 90.5t119.5 257.5h-496v203h748v-748h-230v186q-162 -196 -469 -196q-152 0 -288 51t-238.5 143.5t-162.5 232t-60 306.5t61.5 306.5t166 231.5t241.5 142.5t290 50.5q147 0 275.5 -47t212.5 -121.5t132 -163.5
t48 -176h-254q0 122 -115 212.5t-301 90.5q-226 0 -364.5 -136.5t-138.5 -389.5zM958 -256l-120 -225h-78l76 170q-37 8 -60.5 37.5t-23.5 70.5q0 45 31.5 77t78.5 32q44 0 76.5 -32.5t32.5 -76.5q0 -27 -13 -53z" />
    <glyph glyph-name="uni0123" unicode="&#x123;" horiz-adv-x="1333" 
d="M598 1313l121 225h78l-76 -170q37 -8 60.5 -38t23.5 -70q0 -45 -32 -77t-79 -32q-44 0 -76 32.5t-32 76.5q0 29 12 53zM252 -209h418q157 0 226 63t69 207v109q-62 -89 -162.5 -139.5t-218.5 -50.5q-220 0 -356 148t-136 384t136 384t356 148q118 0 218.5 -50.5
t162.5 -139.5v170h245v-932q0 -248 -126 -375t-394 -127h-438v201zM659 180q119 0 212.5 73.5t93.5 176.5v164q0 103 -93.5 176.5t-212.5 73.5q-140 0 -228.5 -91t-88.5 -241t88.5 -241t228.5 -91z" />
    <glyph glyph-name="Hcircumflex" unicode="&#x124;" horiz-adv-x="1705" 
d="M518 1554l268 320h136l268 -320h-186l-150 195l-149 -195h-187zM143 1434h250v-598h920v598h250v-1434h-250v631h-920v-631h-250v1434z" />
    <glyph glyph-name="hcircumflex" unicode="&#x125;" horiz-adv-x="1261" 
d="M453 1124l268 320h135l268 -320h-186l-150 195l-149 -195h-186zM123 1434h246v-594q62 96 163 150t220 54q202 0 294.5 -108.5t92.5 -300.5v-635h-246v573q0 133 -55 202t-195 69q-115 0 -194.5 -78t-79.5 -203v-563h-246v1434z" />
    <glyph glyph-name="Hbar" unicode="&#x126;" horiz-adv-x="1705" 
d="M143 1434h250v-369h920v369h250v-1434h-250v344h-920v-344h-250v1434zM393 549h920v311h-920v-311z" />
    <glyph glyph-name="hbar" unicode="&#x127;" horiz-adv-x="1261" 
d="M748 1311v-164h-379v-307q62 96 163 150t220 54q202 0 294.5 -108.5t92.5 -300.5v-635h-246v573q0 133 -55 202t-195 69q-115 0 -194.5 -78t-79.5 -203v-563h-246v1147h-195v164h195v123h246v-123h379z" />
    <glyph glyph-name="Itilde" unicode="&#x128;" horiz-adv-x="536" 
d="M268 1737q104 -42 127 -46q52 -11 84 31q19 24 39 68l115 -39q-15 -41 -33 -73t-35 -54t-39 -35.5t-40 -21t-43.5 -8t-44 1.5t-46.5 10.5t-47 15.5t-49 19q-102 40 -128 43q-47 6 -77 -38q-15 -23 -33 -65l-116 41q22 59 48 99t56 60t58 28.5t65.5 2.5t66.5 -14.5
t72 -25.5zM143 1434h250v-1434h-250v1434z" />
    <glyph glyph-name="itilde" unicode="&#x129;" horiz-adv-x="471" 
d="M236 1327q104 -42 126 -46q52 -11 84 29q18 24 39 70l115 -39q-15 -41 -33 -73t-35 -54t-39 -35.5t-40 -21t-43.5 -8t-44 1.5t-46.5 10.5t-47 15.5t-49 19q-102 40 -126 44q-46 6 -76 -36q-16 -23 -35 -67l-117 41q19 51 42 87.5t45.5 58t50.5 32t52 13t57 -4t58 -15
t62 -22.5zM113 1024h245v-1024h-245v1024z" />
    <glyph glyph-name="Imacron" unicode="&#x12a;" horiz-adv-x="536" 
d="M6 1720h522v-123h-522v123zM143 1434h250v-1434h-250v1434z" />
    <glyph glyph-name="imacron" unicode="&#x12b;" horiz-adv-x="471" 
d="M-27 1311h523v-123h-523v123zM113 1024h245v-1024h-245v1024z" />
    <glyph glyph-name="Iogonek" unicode="&#x12e;" horiz-adv-x="536" 
d="M143 1434h250v-1434h-74l9 -6q-44 -53 -63.5 -79.5t-37.5 -67t-18 -80.5q0 -43 23.5 -67.5t65.5 -29.5t90.5 1t107.5 22v-135q-65 -16 -135 -17.5t-136 13.5t-108.5 61t-42.5 117q0 47 23 99t47.5 86t64.5 83h-66v1434z" />
    <glyph glyph-name="iogonek" unicode="&#x12f;" horiz-adv-x="471" 
d="M86 1348q0 62 45 105.5t109 43.5q62 0 105.5 -43.5t43.5 -105.5q0 -64 -43.5 -109t-105.5 -45q-64 0 -109 45t-45 109zM113 1024h245v-1024h-69l8 -6q-44 -53 -63.5 -79.5t-37.5 -67t-18 -80.5q0 -43 23.5 -67.5t65.5 -29.5t90.5 1t107.5 22v-135q-65 -16 -135 -17.5
t-136 13.5t-108.5 61t-42.5 117q0 47 23 99t47.5 86t64.5 83h-65v1024z" />
    <glyph glyph-name="Idotaccent" unicode="&#x130;" horiz-adv-x="536" 
d="M135 1696q0 56 39 94.5t96 38.5q56 0 94.5 -38.5t38.5 -94.5q0 -57 -38.5 -96t-94.5 -39q-57 0 -96 39t-39 96zM143 1434h250v-1434h-250v1434z" />
    <glyph glyph-name="dotlessi" unicode="&#x131;" horiz-adv-x="471" 
d="M113 1024h245v-1024h-245v1024z" />
    <glyph glyph-name="IJ" unicode="&#x132;" horiz-adv-x="1865" 
d="M143 1434h250v-1434h-250v1434zM1473 1434h249v-902q0 -248 -140 -400t-400 -152q-268 0 -405.5 153.5t-137.5 413.5h254q0 -167 72 -265t219 -98q138 0 213.5 96.5t75.5 251.5v902z" />
    <glyph glyph-name="ij" unicode="&#x133;" horiz-adv-x="942" 
d="M86 1348q0 62 45 105.5t109 43.5q62 0 105.5 -43.5t43.5 -105.5q0 -64 -43.5 -109t-105.5 -45q-64 0 -109 45t-45 109zM555 1348q0 62 44.5 105.5t109.5 43.5q61 0 105 -43.5t44 -105.5q0 -64 -43.5 -109t-105.5 -45q-66 0 -110 44.5t-44 109.5zM113 1024h245v-1024h-245
v1024zM287 -209h114q100 0 141.5 39.5t41.5 138.5v1055h245v-1106q0 -162 -84 -245t-249 -83h-209v201z" />
    <glyph glyph-name="Jcircumflex" unicode="&#x134;" horiz-adv-x="1329" 
d="M717 1554l268 320h135l269 -320h-187l-149 195l-150 -195h-186zM936 1434h250v-902q0 -162 -59.5 -285t-183.5 -195t-298 -72q-268 0 -405.5 153.5t-137.5 413.5h254q0 -167 72 -265t219 -98q138 0 213.5 96.5t75.5 251.5v902z" />
    <glyph glyph-name="jcircumflex" unicode="&#x135;" horiz-adv-x="471" 
d="M-100 1145l268 319h135l268 -319h-186l-149 194l-150 -194h-186zM-184 -229h114q97 0 140 48.5t43 149.5v1055h245v-1106q0 -162 -84 -245t-251 -83h-207v181z" />
    <glyph glyph-name="uni0136" unicode="&#x136;" horiz-adv-x="1466" 
d="M143 1434h250v-660h191l460 660h299l-540 -746l602 -688h-313l-490 578h-209v-578h-250v1434zM836 -256l-121 -225h-78l76 170q-37 8 -60.5 37.5t-23.5 70.5q0 45 31.5 77t78.5 32q44 0 76.5 -32.5t32.5 -76.5q0 -29 -12 -53z" />
    <glyph glyph-name="uni0137" unicode="&#x137;" horiz-adv-x="1234" 
d="M123 1434h246v-801h168l284 391h285l-373 -485l430 -539h-293l-325 432h-176v-432h-246v1434zM739 -256l-121 -225h-77l75 170q-37 8 -60.5 37.5t-23.5 70.5q0 45 32 77t79 32q44 0 76.5 -32.5t32.5 -76.5q0 -27 -13 -53z" />
    <glyph glyph-name="kgreenlandic" unicode="&#x138;" horiz-adv-x="1234" 
d="M123 1024h246v-391h168l284 391h285l-373 -485l430 -539h-293l-325 432h-176v-432h-246v1024z" />
    <glyph glyph-name="Lacute" unicode="&#x139;" horiz-adv-x="1286" 
d="M143 1434h250v-1229h801v-205h-1051v1434zM752 1094l118 340h177l-144 -340h-151z" />
    <glyph glyph-name="lacute" unicode="&#x13a;" horiz-adv-x="552" 
d="M186 1544l119 340h176l-143 -340h-152zM532 201v-201h-155q-142 1 -198 64t-56 212v1158h246v-1065q0 -97 27 -132.5t114 -35.5h22z" />
    <glyph glyph-name="uni013B" unicode="&#x13b;" horiz-adv-x="1286" 
d="M143 1434h250v-1229h801v-205h-1051v1434zM776 -256l-121 -225h-77l75 170q-37 8 -60.5 37.5t-23.5 70.5q0 45 32 77t79 32q44 0 76 -32.5t32 -76.5q0 -29 -12 -53z" />
    <glyph glyph-name="uni013C" unicode="&#x13c;" horiz-adv-x="552" 
d="M532 201v-201h-155q-142 1 -198 64t-56 212v1158h246v-1065q0 -97 27 -132.5t114 -35.5h22zM451 -256l-121 -225h-78l76 170q-37 8 -60.5 37.5t-23.5 70.5q0 45 31.5 77t78.5 32q44 0 76.5 -32.5t32.5 -76.5q0 -29 -12 -53z" />
    <glyph glyph-name="Lcaron" unicode="&#x13d;" horiz-adv-x="1286" 
d="M143 1434h250v-1229h801v-205h-1051v1434zM1098 1192l-174 -326h-129l110 244q-54 14 -87.5 58t-33.5 104q0 68 48 115t120 47q68 0 116 -47.5t48 -114.5q0 -46 -18 -80z" />
    <glyph glyph-name="lcaron" unicode="&#x13e;" horiz-adv-x="1050" 
d="M532 201v-201h-155q-142 1 -198 64t-56 212v1158h246v-1065q0 -97 27 -132.5t114 -35.5h22zM918 1202l-175 -325h-129l111 243q-54 14 -87.5 58t-33.5 104q0 68 48 115t120 47q68 0 116 -47.5t48 -114.5q0 -46 -18 -80z" />
    <glyph glyph-name="Ldot" unicode="&#x13f;" horiz-adv-x="1286" 
d="M676 1272q0 68 48.5 116t119.5 48q68 0 116 -48t48 -116q0 -71 -48 -119.5t-116 -48.5q-72 0 -120 48t-48 120zM143 1434h250v-1229h801v-205h-1051v1434z" />
    <glyph glyph-name="ldot" unicode="&#x140;" horiz-adv-x="1046" 
d="M563 1272q0 68 48.5 116t119.5 48q67 0 115.5 -48t48.5 -116q0 -71 -48 -119.5t-116 -48.5q-72 0 -120 48t-48 120zM532 201v-201h-155q-142 1 -198 64t-56 212v1158h246v-1065q0 -97 27 -132.5t114 -35.5h22z" />
    <glyph glyph-name="Lslash" unicode="&#x141;" horiz-adv-x="1286" 
d="M-201 735l344 125v574h250v-484l291 107l57 -154l-348 -127v-571h801v-205h-1051v684l-288 -104z" />
    <glyph glyph-name="lslash" unicode="&#x142;" horiz-adv-x="552" 
d="M-231 735l354 129v570h246v-482l284 105l58 -154l-342 -125v-409q0 -97 27 -132.5t114 -35.5h22v-201h-155q-142 1 -198 64t-56 212v412l-299 -108z" />
    <glyph glyph-name="Nacute" unicode="&#x143;" horiz-adv-x="1695" 
d="M813 1544l119 340h176l-143 -340h-152zM143 1434h250l910 -1104v1104h249v-1434h-249l-910 1083v-1083h-250v1434z" />
    <glyph glyph-name="nacute" unicode="&#x144;" horiz-adv-x="1261" 
d="M545 1135l119 340h176l-144 -340h-151zM123 1024h246v-184q62 96 163 150t220 54q202 0 294.5 -108.5t92.5 -300.5v-635h-246v573q0 133 -55 202t-195 69q-115 0 -194.5 -78t-79.5 -203v-563h-246v1024z" />
    <glyph glyph-name="uni0145" unicode="&#x145;" horiz-adv-x="1695" 
d="M143 1434h250l910 -1104v1104h249v-1434h-249l-910 1083v-1083h-250v1434zM971 -256l-121 -225h-78l76 170q-37 8 -60.5 37.5t-23.5 70.5q0 45 31.5 77t78.5 32q44 0 76.5 -32.5t32.5 -76.5q0 -29 -12 -53z" />
    <glyph glyph-name="uni0146" unicode="&#x146;" horiz-adv-x="1261" 
d="M123 1024h246v-184q62 96 163 150t220 54q202 0 294.5 -108.5t92.5 -300.5v-635h-246v573q0 133 -55 202t-195 69q-115 0 -194.5 -78t-79.5 -203v-563h-246v1024zM743 -256l-120 -225h-78l76 170q-37 8 -60.5 37.5t-23.5 70.5q0 45 31.5 77t78.5 32q44 0 76.5 -32.5
t32.5 -76.5q0 -27 -13 -53z" />
    <glyph glyph-name="Ncaron" unicode="&#x147;" horiz-adv-x="1695" 
d="M532 1864h187l149 -195l150 195h186l-268 -320h-135zM143 1434h250l910 -1104v1104h249v-1434h-249l-910 1083v-1083h-250v1434z" />
    <glyph glyph-name="ncaron" unicode="&#x148;" horiz-adv-x="1261" 
d="M295 1454h186l150 -194l149 194h187l-269 -319h-135zM123 1024h246v-184q62 96 163 150t220 54q202 0 294.5 -108.5t92.5 -300.5v-635h-246v573q0 133 -55 202t-195 69q-115 0 -194.5 -78t-79.5 -203v-563h-246v1024z" />
    <glyph glyph-name="napostrophe" unicode="&#x149;" horiz-adv-x="1261" 
d="M772 1321l-121 -225h-78l76 170q-37 8 -60.5 37.5t-23.5 70.5q0 45 32 77t79 32q45 0 76.5 -32t31.5 -77q0 -29 -12 -53zM123 1024h246v-184q62 96 163 150t220 54q202 0 294.5 -108.5t92.5 -300.5v-635h-246v573q0 133 -55 202t-195 69q-115 0 -194.5 -78t-79.5 -203
v-563h-246v1024z" />
    <glyph glyph-name="Omacron" unicode="&#x14c;" horiz-adv-x="1759" 
d="M618 1720h523v-123h-523v123zM176 407q-63 141 -63 310t63 310t169 233t244 143t290 51q153 0 291.5 -51t244.5 -143t169 -233t63 -310t-63 -310t-169 -233t-244.5 -143t-291.5 -51q-152 0 -290 51t-244 143t-169 233zM1136 1186q-117 63 -257 63t-256 -63.5t-186 -186.5
t-70 -282t70 -282t186 -187t256 -64q105 0 198 37.5t163.5 105.5t111.5 169t41 221q0 159 -70.5 282t-186.5 187z" />
    <glyph glyph-name="omacron" unicode="&#x14d;" horiz-adv-x="1314" 
d="M397 1311h523v-123h-523v123zM657 180q135 0 225.5 94t90.5 238t-90.5 238t-225.5 94q-134 0 -224.5 -94t-90.5 -238t90.5 -238t224.5 -94zM657 1044q153 0 280.5 -62t206.5 -185t79 -285t-79 -285t-206.5 -185t-280.5 -62q-114 0 -216 36.5t-180 103.5t-123.5 168.5
t-45.5 223.5t45.5 223.5t123.5 168.5t180 103.5t216 36.5z" />
    <glyph glyph-name="Obreve" unicode="&#x14e;" horiz-adv-x="1759" 
d="M557 1905h141q0 -91 47.5 -148t135.5 -57t135 57t47 148h141q0 -174 -91.5 -262.5t-231.5 -88.5q-67 0 -124.5 21t-102.5 62.5t-71 110t-26 157.5zM176 407q-63 141 -63 310t63 310t169 233t244 143t290 51q153 0 291.5 -51t244.5 -143t169 -233t63 -310t-63 -310
t-169 -233t-244.5 -143t-291.5 -51q-152 0 -290 51t-244 143t-169 233zM1136 1186q-117 63 -257 63t-256 -63.5t-186 -186.5t-70 -282t70 -282t186 -187t256 -64q105 0 198 37.5t163.5 105.5t111.5 169t41 221q0 159 -70.5 282t-186.5 187z" />
    <glyph glyph-name="obreve" unicode="&#x14f;" horiz-adv-x="1314" 
d="M334 1495h141q0 -91 47 -148t135 -57t135.5 57t47.5 148h141q0 -173 -92 -261.5t-232 -88.5q-67 0 -124 21t-102.5 62t-71 109.5t-25.5 157.5zM657 180q135 0 225.5 94t90.5 238t-90.5 238t-225.5 94q-134 0 -224.5 -94t-90.5 -238t90.5 -238t224.5 -94zM657 1044
q153 0 280.5 -62t206.5 -185t79 -285t-79 -285t-206.5 -185t-280.5 -62q-114 0 -216 36.5t-180 103.5t-123.5 168.5t-45.5 223.5t45.5 223.5t123.5 168.5t180 103.5t216 36.5z" />
    <glyph glyph-name="Ohungarumlaut" unicode="&#x150;" horiz-adv-x="1759" 
d="M958 1544l119 340h176l-143 -340h-152zM629 1544l119 340h176l-144 -340h-151zM176 407q-63 141 -63 310t63 310t169 233t244 143t290 51q153 0 291.5 -51t244.5 -143t169 -233t63 -310t-63 -310t-169 -233t-244.5 -143t-291.5 -51q-152 0 -290 51t-244 143t-169 233z
M1136 1186q-117 63 -257 63t-256 -63.5t-186 -186.5t-70 -282t70 -282t186 -187t256 -64q105 0 198 37.5t163.5 105.5t111.5 169t41 221q0 159 -70.5 282t-186.5 187z" />
    <glyph glyph-name="ohungarumlaut" unicode="&#x151;" horiz-adv-x="1314" 
d="M737 1135l119 340h176l-143 -340h-152zM408 1135l118 340h176l-143 -340h-151zM657 180q135 0 225.5 94t90.5 238t-90.5 238t-225.5 94q-134 0 -224.5 -94t-90.5 -238t90.5 -238t224.5 -94zM657 1044q153 0 280.5 -62t206.5 -185t79 -285t-79 -285t-206.5 -185
t-280.5 -62q-114 0 -216 36.5t-180 103.5t-123.5 168.5t-45.5 223.5t45.5 223.5t123.5 168.5t180 103.5t216 36.5z" />
    <glyph glyph-name="OE" unicode="&#x152;" horiz-adv-x="2521" 
d="M176 407q-63 141 -63 310t63 310t169 233t244 143t290 51q147 0 280.5 -46.5t237.5 -133.5v160h1030v-205h-780v-391h718v-205h-718v-428h780v-205h-1030v160q-104 -87 -237.5 -133.5t-280.5 -46.5q-152 0 -290 51t-244 143t-169 233zM1136 1186q-117 63 -257 63
t-256 -63.5t-186 -186.5t-70 -282t70 -282t186 -187t256 -64q105 0 198 37.5t163.5 105.5t111.5 169t41 221q0 159 -70.5 282t-186.5 187z" />
    <glyph glyph-name="oe" unicode="&#x153;" horiz-adv-x="2136" 
d="M657 180q135 0 225.5 94t90.5 238t-90.5 238t-225.5 94q-134 0 -224.5 -94t-90.5 -238t90.5 -238t224.5 -94zM1788 612q-38 252 -275 252q-105 0 -181.5 -63.5t-100.5 -188.5h557zM657 1044q130 0 244 -46t191 -132q72 86 178.5 132t232.5 46q249 0 390.5 -144
t146.5 -374v-94h-813q18 -139 96 -205.5t190 -66.5q121 0 196 57t75 129h246q-8 -70 -44.5 -133.5t-99.5 -116.5t-162.5 -84.5t-220.5 -31.5q-126 0 -232.5 46t-178.5 132q-77 -86 -191 -132t-244 -46q-114 0 -216 36.5t-180 103.5t-123.5 168.5t-45.5 223.5t45.5 223.5
t123.5 168.5t180 103.5t216 36.5z" />
    <glyph glyph-name="Racute" unicode="&#x154;" horiz-adv-x="1490" 
d="M649 1544l119 340h176l-143 -340h-152zM825 1434q38 0 79.5 -5t94 -18t100 -34t94 -56.5t80 -81t54.5 -111.5t21 -145q0 -84 -23.5 -154.5t-61 -119t-89.5 -86t-102 -59t-105 -34.5l399 -530h-285l-374 512h-314v-512h-250v1434h682zM393 717h412q31 0 66 6.5t76 25
t72.5 45.5t53 74t21.5 105t-21.5 104.5t-53 74t-72.5 45.5t-76 25t-66 7h-412v-512z" />
    <glyph glyph-name="racute" unicode="&#x155;" horiz-adv-x="849" 
d="M391 1135l119 340h176l-143 -340h-152zM123 1024h246v-168q56 88 142.5 138t186.5 50h101v-200h-183q-114 0 -180.5 -73.5t-66.5 -207.5v-563h-246v1024z" />
    <glyph glyph-name="uni0156" unicode="&#x156;" horiz-adv-x="1490" 
d="M825 1434q38 0 79.5 -5t94 -18t100 -34t94 -56.5t80 -81t54.5 -111.5t21 -145q0 -84 -23.5 -154.5t-61 -119t-89.5 -86t-102 -59t-105 -34.5l399 -530h-285l-374 512h-314v-512h-250v1434h682zM393 717h412q31 0 66 6.5t76 25t72.5 45.5t53 74t21.5 105t-21.5 104.5
t-53 74t-72.5 45.5t-76 25t-66 7h-412v-512zM817 -256l-121 -225h-78l76 170q-37 8 -60.5 37.5t-23.5 70.5q0 45 32 77t79 32q44 0 76 -32.5t32 -76.5q0 -29 -12 -53z" />
    <glyph glyph-name="uni0157" unicode="&#x157;" horiz-adv-x="849" 
d="M123 1024h246v-168q56 88 142.5 138t186.5 50h101v-200h-183q-114 0 -180.5 -73.5t-66.5 -207.5v-563h-246v1024zM352 -256l-121 -225h-77l75 170q-37 8 -60.5 37.5t-23.5 70.5q0 45 32 77t79 32q44 0 76.5 -32.5t32.5 -76.5q0 -27 -13 -53z" />
    <glyph glyph-name="Rcaron" unicode="&#x158;" horiz-adv-x="1490" 
d="M410 1864h186l149 -195l150 195h186l-268 -320h-135zM825 1434q38 0 79.5 -5t94 -18t100 -34t94 -56.5t80 -81t54.5 -111.5t21 -145q0 -84 -23.5 -154.5t-61 -119t-89.5 -86t-102 -59t-105 -34.5l399 -530h-285l-374 512h-314v-512h-250v1434h682zM393 717h412
q31 0 66 6.5t76 25t72.5 45.5t53 74t21.5 105t-21.5 104.5t-53 74t-72.5 45.5t-76 25t-66 7h-412v-512z" />
    <glyph glyph-name="rcaron" unicode="&#x159;" horiz-adv-x="849" 
d="M111 1454h186l149 -194l150 194h186l-268 -319h-135zM123 1024h246v-168q56 88 142.5 138t186.5 50h101v-200h-183q-114 0 -180.5 -73.5t-66.5 -207.5v-563h-246v1024z" />
    <glyph glyph-name="Sacute" unicode="&#x15a;" horiz-adv-x="1509" 
d="M670 1544l118 340h177l-144 -340h-151zM356 463q0 -118 104 -198.5t306 -80.5q183 0 285 56t102 155q0 31 -11.5 55t-35.5 41.5t-57 31t-79 25t-99 21t-120 21.5q-46 8 -71 12q-269 48 -393.5 151t-124.5 289q0 98 46 177t126 130t186.5 78t229.5 27q134 0 242 -26
t179 -70.5t118.5 -105.5t68 -128.5t20.5 -142.5h-254q0 120 -89 194t-285 74q-152 0 -243 -51t-91 -149q0 -26 4.5 -45.5t18 -37t27.5 -30t44.5 -24.5t56.5 -20.5t76 -19t90.5 -18t112.5 -20.5q77 -13 128 -23.5t115.5 -29t106 -38.5t85.5 -51t69 -69t41 -90.5t16 -116.5
q0 -196 -160 -316t-471 -120q-140 0 -254.5 27t-191 73t-129 108.5t-76 131t-23.5 143.5h254z" />
    <glyph glyph-name="sacute" unicode="&#x15b;" horiz-adv-x="1175" 
d="M502 1135l119 340h176l-144 -340h-151zM342 326q0 -146 264 -146q225 0 225 96q0 47 -47 66.5t-192 46.5q-14 2 -21.5 3.5t-20.5 4t-24 4.5q-63 12 -111.5 25.5t-106 39.5t-95 58t-63 83t-25.5 114q0 105 61 179.5t160.5 109t226.5 34.5q120 0 215.5 -31t152.5 -82
t86.5 -111t29.5 -122h-250q0 75 -57 110.5t-175 35.5q-198 0 -198 -94q0 -50 74 -78q47 -18 208 -51q57 -12 87.5 -18.5t78.5 -19t74 -23.5t60.5 -28.5t53 -37t37 -46t26 -59t7.5 -72.5q0 -154 -136 -245.5t-351 -91.5q-120 0 -219 31.5t-159.5 82t-93 110.5t-32.5 122h250z
" />
    <glyph glyph-name="Scircumflex" unicode="&#x15c;" horiz-adv-x="1509" 
d="M420 1554l268 320h135l269 -320h-187l-149 195l-150 -195h-186zM356 463q0 -118 104 -198.5t306 -80.5q183 0 285 56t102 155q0 31 -11.5 55t-35.5 41.5t-57 31t-79 25t-99 21t-120 21.5q-46 8 -71 12q-269 48 -393.5 151t-124.5 289q0 98 46 177t126 130t186.5 78
t229.5 27q134 0 242 -26t179 -70.5t118.5 -105.5t68 -128.5t20.5 -142.5h-254q0 120 -89 194t-285 74q-152 0 -243 -51t-91 -149q0 -26 4.5 -45.5t18 -37t27.5 -30t44.5 -24.5t56.5 -20.5t76 -19t90.5 -18t112.5 -20.5q77 -13 128 -23.5t115.5 -29t106 -38.5t85.5 -51
t69 -69t41 -90.5t16 -116.5q0 -196 -160 -316t-471 -120q-140 0 -254.5 27t-191 73t-129 108.5t-76 131t-23.5 143.5h254z" />
    <glyph glyph-name="scircumflex" unicode="&#x15d;" horiz-adv-x="1175" 
d="M252 1145l268 319h135l269 -319h-187l-149 194l-150 -194h-186zM342 326q0 -146 264 -146q225 0 225 96q0 47 -47 66.5t-192 46.5q-14 2 -21.5 3.5t-20.5 4t-24 4.5q-63 12 -111.5 25.5t-106 39.5t-95 58t-63 83t-25.5 114q0 105 61 179.5t160.5 109t226.5 34.5
q120 0 215.5 -31t152.5 -82t86.5 -111t29.5 -122h-250q0 75 -57 110.5t-175 35.5q-198 0 -198 -94q0 -50 74 -78q47 -18 208 -51q57 -12 87.5 -18.5t78.5 -19t74 -23.5t60.5 -28.5t53 -37t37 -46t26 -59t7.5 -72.5q0 -154 -136 -245.5t-351 -91.5q-120 0 -219 31.5
t-159.5 82t-93 110.5t-32.5 122h250z" />
    <glyph glyph-name="Scedilla" unicode="&#x15e;" horiz-adv-x="1509" 
d="M356 463q0 -118 104 -198.5t306 -80.5q183 0 285 56t102 155q0 31 -11.5 55t-35.5 41.5t-57 31t-79 25t-99 21t-120 21.5q-46 8 -71 12q-269 48 -393.5 151t-124.5 289q0 98 46 177t126 130t186.5 78t229.5 27q134 0 242 -26t179 -70.5t118.5 -105.5t68 -128.5
t20.5 -142.5h-254q0 120 -89 194t-285 74q-152 0 -243 -51t-91 -149q0 -26 4.5 -45.5t18 -37t27.5 -30t44.5 -24.5t56.5 -20.5t76 -19t90.5 -18t112.5 -20.5q77 -13 128 -23.5t115.5 -29t106 -38.5t85.5 -51t69 -69t41 -90.5t16 -116.5q0 -186 -146 -304t-430 -130l-24 -84
q93 -7 143.5 -43.5t50.5 -124.5q0 -61 -26.5 -105t-68.5 -67.5t-97 -33.5t-110 -7t-109 16v123q110 -34 188 -14.5t78 92.5q0 24 -7 40t-15.5 24.5t-31.5 12.5t-38.5 4.5t-52.5 0.5h-19h-10l39 166q-159 7 -281.5 50t-194 111t-107.5 149t-36 171h254z" />
    <glyph glyph-name="scedilla" unicode="&#x15f;" horiz-adv-x="1175" 
d="M342 326q0 -146 264 -146q225 0 225 96q0 47 -47 66.5t-192 46.5q-14 2 -21.5 3.5t-20.5 4t-24 4.5q-63 12 -111.5 25.5t-106 39.5t-95 58t-63 83t-25.5 114q0 105 61 179.5t160.5 109t226.5 34.5q120 0 215.5 -31t152.5 -82t86.5 -111t29.5 -122h-250q0 75 -57 110.5
t-175 35.5q-198 0 -198 -94q0 -50 74 -78q47 -18 208 -51q57 -12 87.5 -18.5t78.5 -19t74 -23.5t60.5 -28.5t53 -37t37 -46t26 -59t7.5 -72.5q0 -140 -115 -230t-302 -105l-25 -84q93 -7 144 -43.5t51 -124.5q0 -61 -26.5 -105.5t-69 -67.5t-97.5 -33t-110 -7t-109 16v123
q110 -34 188 -14.5t78 92.5q0 24 -7 40t-15.5 24.5t-31.5 12.5t-38.5 4.5t-52.5 0.5h-19h-10l39 166q-110 5 -200.5 37.5t-146.5 82t-86 107.5t-30 117h250z" />
    <glyph glyph-name="Scaron" unicode="&#x160;" horiz-adv-x="1509" 
d="M420 1864h186l150 -195l149 195h187l-269 -320h-135zM356 463q0 -118 104 -198.5t306 -80.5q183 0 285 56t102 155q0 31 -11.5 55t-35.5 41.5t-57 31t-79 25t-99 21t-120 21.5q-46 8 -71 12q-269 48 -393.5 151t-124.5 289q0 98 46 177t126 130t186.5 78t229.5 27
q134 0 242 -26t179 -70.5t118.5 -105.5t68 -128.5t20.5 -142.5h-254q0 120 -89 194t-285 74q-152 0 -243 -51t-91 -149q0 -26 4.5 -45.5t18 -37t27.5 -30t44.5 -24.5t56.5 -20.5t76 -19t90.5 -18t112.5 -20.5q77 -13 128 -23.5t115.5 -29t106 -38.5t85.5 -51t69 -69
t41 -90.5t16 -116.5q0 -196 -160 -316t-471 -120q-140 0 -254.5 27t-191 73t-129 108.5t-76 131t-23.5 143.5h254z" />
    <glyph glyph-name="scaron" unicode="&#x161;" horiz-adv-x="1175" 
d="M252 1454h186l150 -194l149 194h187l-269 -319h-135zM342 326q0 -146 264 -146q225 0 225 96q0 47 -47 66.5t-192 46.5q-14 2 -21.5 3.5t-20.5 4t-24 4.5q-63 12 -111.5 25.5t-106 39.5t-95 58t-63 83t-25.5 114q0 105 61 179.5t160.5 109t226.5 34.5q120 0 215.5 -31
t152.5 -82t86.5 -111t29.5 -122h-250q0 75 -57 110.5t-175 35.5q-198 0 -198 -94q0 -50 74 -78q47 -18 208 -51q57 -12 87.5 -18.5t78.5 -19t74 -23.5t60.5 -28.5t53 -37t37 -46t26 -59t7.5 -72.5q0 -154 -136 -245.5t-351 -91.5q-120 0 -219 31.5t-159.5 82t-93 110.5
t-32.5 122h250z" />
    <glyph glyph-name="uni0162" unicode="&#x162;" horiz-adv-x="1421" 
d="M72 1434h1278v-205h-514v-1229h-250v1229h-514v205zM803 -256l-121 -225h-78l76 170q-37 8 -60.5 37.5t-23.5 70.5q0 45 32 77t79 32q44 0 76 -32.5t32 -76.5q0 -29 -12 -53z" />
    <glyph glyph-name="uni0163" unicode="&#x163;" horiz-adv-x="858" 
d="M61 1024h160v246h246v-246h330v-201h-330v-444q0 -99 41.5 -138.5t140.5 -39.5h146v-201h-238q-167 0 -251.5 83t-84.5 245v495h-160v201zM623 -256l-121 -225h-78l76 170q-37 8 -60.5 37.5t-23.5 70.5q0 45 31.5 77t78.5 32q44 0 76.5 -32.5t32.5 -76.5q0 -29 -12 -53z
" />
    <glyph glyph-name="Tcaron" unicode="&#x164;" horiz-adv-x="1421" 
d="M375 1864h186l150 -195l149 195h187l-269 -320h-135zM72 1434h1278v-205h-514v-1229h-250v1229h-514v205z" />
    <glyph glyph-name="tcaron" unicode="&#x165;" horiz-adv-x="1271" 
d="M61 1024h160v246h246v-246h330v-201h-330v-444q0 -99 41.5 -138.5t140.5 -39.5h146v-201h-238q-167 0 -251.5 83t-84.5 245v495h-160v201zM1171 1212l-174 -325h-129l111 243q-54 14 -87.5 58t-33.5 104q0 68 48 115t120 47q68 0 116 -47.5t48 -114.5q0 -44 -19 -80z" />
    <glyph glyph-name="Tbar" unicode="&#x166;" horiz-adv-x="1421" 
d="M246 727h340v502h-514v205h1278v-205h-514v-502h342v-123h-342v-604h-250v604h-340v123z" />
    <glyph glyph-name="tbar" unicode="&#x167;" horiz-adv-x="858" 
d="M61 694h160v129h-160v201h160v246h246v-246h330v-201h-330v-129h330v-200h-330v-115q0 -99 41.5 -138.5t140.5 -39.5h146v-201h-238q-336 3 -336 328v166h-160v200z" />
    <glyph glyph-name="Utilde" unicode="&#x168;" horiz-adv-x="1554" 
d="M768 1737q104 -42 127 -46q52 -11 84 31q19 24 39 68l115 -39q-15 -41 -33 -73t-35 -54t-39 -35.5t-40 -21t-43.5 -8t-44 1.5t-46.5 10.5t-47 15.5t-49 19q-102 40 -128 43q-47 6 -77 -38q-15 -23 -33 -65l-117 41q22 59 48 99t56.5 60t58.5 28.5t65.5 2.5t66.5 -14.5
t72 -25.5zM1161 1434h250v-840q0 -614 -639 -614q-314 0 -471.5 150.5t-157.5 463.5v840h250v-840q0 -214 92 -312t287 -98q196 0 292.5 99t96.5 311v840z" />
    <glyph glyph-name="utilde" unicode="&#x169;" horiz-adv-x="1323" 
d="M643 1327q104 -42 127 -46q52 -11 84 31q19 24 39 68l115 -39q-15 -41 -33 -73t-35 -54t-39 -35.5t-40 -21t-43.5 -8t-44 1.5t-46.5 10.5t-47 15.5t-49 19q-102 40 -127 44q-47 6 -77 -37q-16 -24 -34 -66l-117 41q19 51 42 87.5t45.5 58t50.5 32t52 13t57 -4t58 -15
t62 -22.5zM1303 201v-201h-156q-120 1 -178 46.5t-72 146.5q-62 -100 -163.5 -156.5t-223.5 -56.5q-202 0 -294.5 108.5t-92.5 300.5v635h246v-573q0 -132 55.5 -201.5t196.5 -69.5q115 0 193.5 78.5t78.5 202.5v563h246v-655q0 -97 27 -132.5t114 -35.5h23z" />
    <glyph glyph-name="Umacron" unicode="&#x16a;" horiz-adv-x="1554" 
d="M516 1720h522v-123h-522v123zM1161 1434h250v-840q0 -614 -639 -614q-314 0 -471.5 150.5t-157.5 463.5v840h250v-840q0 -214 92 -312t287 -98q196 0 292.5 99t96.5 311v840z" />
    <glyph glyph-name="umacron" unicode="&#x16b;" horiz-adv-x="1323" 
d="M381 1311h522v-123h-522v123zM1303 201v-201h-156q-120 1 -178 46.5t-72 146.5q-62 -100 -163.5 -156.5t-223.5 -56.5q-202 0 -294.5 108.5t-92.5 300.5v635h246v-573q0 -132 55.5 -201.5t196.5 -69.5q115 0 193.5 78.5t78.5 202.5v563h246v-655q0 -97 27 -132.5
t114 -35.5h23z" />
    <glyph glyph-name="Ubreve" unicode="&#x16c;" horiz-adv-x="1554" 
d="M455 1905h141q0 -91 47 -148t135 -57t135.5 57t47.5 148h141q0 -89 -26 -157.5t-71 -110t-102.5 -62.5t-124.5 -21q-140 0 -231.5 88.5t-91.5 262.5zM1161 1434h250v-840q0 -614 -639 -614q-314 0 -471.5 150.5t-157.5 463.5v840h250v-840q0 -214 92 -312t287 -98
q196 0 292.5 99t96.5 311v840z" />
    <glyph glyph-name="ubreve" unicode="&#x16d;" horiz-adv-x="1323" 
d="M317 1495h142q0 -91 47 -148t135 -57t135 57t47 148h142q0 -173 -92 -261.5t-232 -88.5t-232 88.5t-92 261.5zM1303 201v-201h-156q-120 1 -178 46.5t-72 146.5q-62 -100 -163.5 -156.5t-223.5 -56.5q-202 0 -294.5 108.5t-92.5 300.5v635h246v-573q0 -132 55.5 -201.5
t196.5 -69.5q115 0 193.5 78.5t78.5 202.5v563h246v-655q0 -97 27 -132.5t114 -35.5h23z" />
    <glyph glyph-name="Uring" unicode="&#x16e;" horiz-adv-x="1554" 
d="M506 1780q0 112 81 193t193 81q111 0 192 -81t81 -193t-81 -193.5t-192 -81.5q-112 0 -193 81t-81 194zM676 1885q-47 -47 -47 -105t46 -104t105 -46q57 0 102.5 46t45.5 104t-45.5 104.5t-102.5 46.5q-58 0 -104 -46zM1161 1434h250v-840q0 -614 -639 -614
q-314 0 -471.5 150.5t-157.5 463.5v840h250v-840q0 -214 92 -312t287 -98q196 0 292.5 99t96.5 311v840z" />
    <glyph glyph-name="uring" unicode="&#x16f;" horiz-adv-x="1323" 
d="M369 1370q0 113 81 194t193 81q110 0 191 -81.5t81 -193.5t-80.5 -193t-191.5 -81q-113 0 -193.5 81t-80.5 193zM492 1370q0 -58 46 -103.5t105 -45.5q57 0 102.5 45.5t45.5 103.5q0 59 -45.5 105.5t-102.5 46.5q-58 0 -104.5 -46.5t-46.5 -105.5zM1303 201v-201h-156
q-120 1 -178 46.5t-72 146.5q-62 -100 -163.5 -156.5t-223.5 -56.5q-202 0 -294.5 108.5t-92.5 300.5v635h246v-573q0 -132 55.5 -201.5t196.5 -69.5q115 0 193.5 78.5t78.5 202.5v563h246v-655q0 -97 27 -132.5t114 -35.5h23z" />
    <glyph glyph-name="Uhungarumlaut" unicode="&#x170;" horiz-adv-x="1554" 
d="M864 1544l119 340h176l-143 -340h-152zM535 1544l118 340h176l-143 -340h-151zM1161 1434h250v-840q0 -614 -639 -614q-314 0 -471.5 150.5t-157.5 463.5v840h250v-840q0 -214 92 -312t287 -98q196 0 292.5 99t96.5 311v840z" />
    <glyph glyph-name="uhungarumlaut" unicode="&#x171;" horiz-adv-x="1323" 
d="M735 1135l119 340h176l-143 -340h-152zM406 1135l118 340h176l-143 -340h-151zM1303 201v-201h-156q-120 1 -178 46.5t-72 146.5q-62 -100 -163.5 -156.5t-223.5 -56.5q-202 0 -294.5 108.5t-92.5 300.5v635h246v-573q0 -132 55.5 -201.5t196.5 -69.5q115 0 193.5 78.5
t78.5 202.5v563h246v-655q0 -97 27 -132.5t114 -35.5h23z" />
    <glyph glyph-name="Uogonek" unicode="&#x172;" horiz-adv-x="1554" 
d="M1161 1434h250v-840q0 -554 -520 -608l4 -4q-43 -52 -63 -79t-38 -68t-18 -81q0 -43 23.5 -67.5t65.5 -29.5t90.5 1.5t107.5 22.5v-136q-65 -16 -135 -17.5t-136 13.5t-108.5 61t-42.5 117q0 66 34 128t93 133q-312 2 -468.5 152t-156.5 462v840h250v-840q0 -214 92 -312
t287 -98q196 0 292.5 99t96.5 311v840z" />
    <glyph glyph-name="uogonek" unicode="&#x173;" horiz-adv-x="1323" 
d="M1303 201v-201h-156q-35 0 -51 2q-40 -51 -60 -91t-20 -87q0 -43 23.5 -67.5t65.5 -29.5t90.5 1t107.5 22v-135q-65 -16 -135 -17.5t-136 13.5t-108.5 61t-42.5 117q0 104 112 242q-81 46 -96 162q-62 -100 -163.5 -156.5t-223.5 -56.5q-202 0 -294.5 108.5t-92.5 300.5
v635h246v-573q0 -132 55.5 -201.5t196.5 -69.5q115 0 193.5 78.5t78.5 202.5v563h246v-655q0 -97 27 -132.5t114 -35.5h23z" />
    <glyph glyph-name="Wcircumflex" unicode="&#x174;" horiz-adv-x="2185" 
d="M758 1554l268 320h135l269 -320h-187l-149 195l-150 -195h-186zM522 0l-450 1434h239l334 -1139l328 1139h229l330 -1135l332 1135h250l-461 -1434h-260l-306 1057l-305 -1057h-260z" />
    <glyph glyph-name="wcircumflex" unicode="&#x175;" horiz-adv-x="1640" 
d="M485 1145l269 319h135l268 -319h-186l-150 194l-149 -194h-187zM61 1024h256l185 -715l207 715h223l207 -715l184 715h256l-307 -1024h-254l-197 707l-198 -707h-254z" />
    <glyph glyph-name="Ycircumflex" unicode="&#x176;" horiz-adv-x="1601" 
d="M465 1554l268 320h135l269 -320h-187l-149 195l-150 -195h-186zM676 430l-604 1004h288l441 -768l440 768h289l-604 -1004v-430h-250v430z" />
    <glyph glyph-name="ycircumflex" unicode="&#x177;" horiz-adv-x="1232" 
d="M281 1145l268 319h135l268 -319h-186l-150 194l-149 -194h-186zM1171 1024l-438 -1044q-36 -86 -57.5 -130t-57.5 -97t-73 -77t-97 -47.5t-138 -31t-187 -7.5v201q83 0 139.5 8t91 20t59 37.5t37 49t31.5 65.5q5 13 8 19l11 20l-437 1014h269l289 -739l282 739h268z" />
    <glyph glyph-name="Ydieresis" unicode="&#x178;" horiz-adv-x="1601" 
d="M453 1696q0 56 39 94.5t96 38.5q56 0 94.5 -38.5t38.5 -94.5q0 -57 -38.5 -96t-94.5 -39q-57 0 -96 39t-39 96zM883 1696q0 56 39 94.5t96 38.5q56 0 94.5 -38.5t38.5 -94.5q0 -57 -38.5 -96t-94.5 -39q-57 0 -96 39t-39 96zM676 430l-604 1004h288l441 -768l440 768h289
l-604 -1004v-430h-250v430z" />
    <glyph glyph-name="Zacute" unicode="&#x179;" horiz-adv-x="1296" 
d="M563 1544l119 340h176l-143 -340h-152zM1171 1434v-197l-780 -1032h834v-205h-1153v197l780 1032h-764v205h1083z" />
    <glyph glyph-name="zacute" unicode="&#x17a;" horiz-adv-x="1060" 
d="M455 1135l118 340h177l-144 -340h-151zM956 1024v-172l-567 -651h610v-201h-927v172l567 651h-551v201h868z" />
    <glyph glyph-name="Zdotaccent" unicode="&#x17b;" horiz-adv-x="1296" 
d="M514 1696q0 56 39 94.5t96 38.5q55 0 94 -38.5t39 -94.5q0 -57 -38.5 -96t-94.5 -39q-57 0 -96 39t-39 96zM1171 1434v-197l-780 -1032h834v-205h-1153v197l780 1032h-764v205h1083z" />
    <glyph glyph-name="zdotaccent" unicode="&#x17c;" horiz-adv-x="1060" 
d="M397 1286q0 56 39 94.5t96 38.5q56 0 95 -39t39 -94q0 -57 -39 -96t-95 -39q-57 0 -96 39t-39 96zM956 1024v-172l-567 -651h610v-201h-927v172l567 651h-551v201h868z" />
    <glyph glyph-name="Zcaron" unicode="&#x17d;" horiz-adv-x="1296" 
d="M313 1864h187l149 -195l150 195h186l-268 -320h-135zM1171 1434v-197l-780 -1032h834v-205h-1153v197l780 1032h-764v205h1083z" />
    <glyph glyph-name="zcaron" unicode="&#x17e;" horiz-adv-x="1060" 
d="M195 1454h186l149 -194l150 194h186l-268 -319h-135zM956 1024v-172l-567 -651h610v-201h-927v172l567 651h-551v201h868z" />
    <glyph glyph-name="longs" unicode="&#x17f;" horiz-adv-x="747" 
d="M686 1253h-135q-97 0 -139.5 -41t-42.5 -127v-1085h-246v1126q0 162 84.5 245t251.5 83h227v-201z" />
    <glyph glyph-name="florin" unicode="&#x192;" horiz-adv-x="849" 
d="M786 1253h-135q-101 0 -141.5 -35.5t-40.5 -132.5v-71h319v-201h-319v-895q0 -162 -84.5 -245t-251.5 -83h-227v201h135q99 0 140.5 39.5t41.5 138.5v844h-153v201h153v112q0 162 84.5 245t251.5 83h227v-201z" />
    <glyph glyph-name="uni0218" unicode="&#x218;" horiz-adv-x="1509" 
d="M356 463q0 -118 104 -198.5t306 -80.5q183 0 285 56t102 155q0 31 -11.5 55t-35.5 41.5t-57 31t-79 25t-99 21t-120 21.5q-46 8 -71 12q-269 48 -393.5 151t-124.5 289q0 98 46 177t126 130t186.5 78t229.5 27q134 0 242 -26t179 -70.5t118.5 -105.5t68 -128.5
t20.5 -142.5h-254q0 120 -89 194t-285 74q-152 0 -243 -51t-91 -149q0 -26 4.5 -45.5t18 -37t27.5 -30t44.5 -24.5t56.5 -20.5t76 -19t90.5 -18t112.5 -20.5q77 -13 128 -23.5t115.5 -29t106 -38.5t85.5 -51t69 -69t41 -90.5t16 -116.5q0 -196 -160 -316t-471 -120
q-140 0 -254.5 27t-191 73t-129 108.5t-76 131t-23.5 143.5h254zM846 -256l-121 -225h-78l76 170q-37 8 -60.5 37.5t-23.5 70.5q0 45 32 77t79 32q44 0 76 -32.5t32 -76.5q0 -29 -12 -53z" />
    <glyph glyph-name="uni0219" unicode="&#x219;" horiz-adv-x="1175" 
d="M342 326q0 -146 264 -146q225 0 225 96q0 47 -47 66.5t-192 46.5q-14 2 -21.5 3.5t-20.5 4t-24 4.5q-63 12 -111.5 25.5t-106 39.5t-95 58t-63 83t-25.5 114q0 105 61 179.5t160.5 109t226.5 34.5q120 0 215.5 -31t152.5 -82t86.5 -111t29.5 -122h-250q0 75 -57 110.5
t-175 35.5q-198 0 -198 -94q0 -50 74 -78q47 -18 208 -51q57 -12 87.5 -18.5t78.5 -19t74 -23.5t60.5 -28.5t53 -37t37 -46t26 -59t7.5 -72.5q0 -154 -136 -245.5t-351 -91.5q-120 0 -219 31.5t-159.5 82t-93 110.5t-32.5 122h250zM690 -256l-121 -225h-77l75 170
q-37 8 -60.5 37.5t-23.5 70.5q0 45 32 77t79 32q44 0 76 -32.5t32 -76.5q0 -29 -12 -53z" />
    <glyph glyph-name="uni021A" unicode="&#x21a;" horiz-adv-x="1421" 
d="M72 1434h1278v-205h-514v-1229h-250v1229h-514v205zM803 -256l-121 -225h-78l76 170q-37 8 -60.5 37.5t-23.5 70.5q0 45 32 77t79 32q44 0 76 -32.5t32 -76.5q0 -29 -12 -53z" />
    <glyph glyph-name="uni021B" unicode="&#x21b;" horiz-adv-x="858" 
d="M61 1024h160v246h246v-246h330v-201h-330v-444q0 -99 41.5 -138.5t140.5 -39.5h146v-201h-238q-167 0 -251.5 83t-84.5 245v495h-160v201zM623 -256l-121 -225h-78l76 170q-37 8 -60.5 37.5t-23.5 70.5q0 45 31.5 77t78.5 32q44 0 76.5 -32.5t32.5 -76.5q0 -29 -12 -53z
" />
    <glyph glyph-name="uni0237" unicode="&#x237;" horiz-adv-x="471" 
d="M84 1348q0 62 44.5 105.5t109.5 43.5q62 0 105.5 -43.5t43.5 -105.5q0 -64 -43.5 -109t-105.5 -45q-66 0 -110 44.5t-44 109.5zM-184 -209h114q100 0 141.5 39.5t41.5 138.5v1055h245v-1106q0 -162 -84 -245t-249 -83h-209v201z" />
    <glyph glyph-name="circumflex" unicode="&#x2c6;" horiz-adv-x="876" 
d="M102 1145l269 319h135l268 -319h-186l-150 194l-149 -194h-187z" />
    <glyph glyph-name="caron" unicode="&#x2c7;" horiz-adv-x="876" 
d="M102 1454h187l149 -194l150 194h186l-268 -319h-135z" />
    <glyph glyph-name="uni02C9" unicode="&#x2c9;" horiz-adv-x="727" 
d="M102 1331h523v-123h-523v123z" />
    <glyph glyph-name="breve" unicode="&#x2d8;" horiz-adv-x="851" 
d="M102 1495h142q0 -91 47 -148t135 -57t135 57t47 148h142q0 -173 -92 -261.5t-232 -88.5t-232 88.5t-92 261.5z" />
    <glyph glyph-name="dotaccent" unicode="&#x2d9;" horiz-adv-x="473" 
d="M102 1286q0 56 39.5 94.5t96.5 38.5q56 0 94.5 -38.5t38.5 -94.5q0 -57 -38.5 -96t-94.5 -39q-57 0 -96.5 39t-39.5 96z" />
    <glyph glyph-name="ring" unicode="&#x2da;" horiz-adv-x="733" 
d="M175 1177q-81 81 -81 193t81 193.5t194 81.5q110 0 191 -81.5t81 -193.5t-80.5 -193t-191.5 -81q-113 0 -194 81zM264 1475q-47 -47 -47 -105t46.5 -103.5t105.5 -45.5q57 0 102 45.5t45 103.5q0 59 -45 105.5t-102 46.5q-59 0 -105 -47z" />
    <glyph glyph-name="ogonek" unicode="&#x2db;" horiz-adv-x="626" 
d="M283 41l73 -61q-42 -51 -62.5 -79t-38 -68.5t-17.5 -80.5q0 -43 23.5 -67.5t65 -29.5t90 1t107.5 22v-135q-65 -16 -135 -17.5t-136 13.5t-108.5 61t-42.5 117q0 30 9.5 63t21.5 58t35 58t37 51t41.5 50.5t36.5 43.5z" />
    <glyph glyph-name="tilde" unicode="&#x2dc;" horiz-adv-x="935" 
d="M469 1327q104 -42 127 -46q52 -11 84 31q19 24 39 68l115 -39q-15 -41 -33 -73t-35 -54t-39 -35.5t-40 -21t-43.5 -8t-44 1.5t-46.5 10.5t-47 15.5t-49 19q-102 40 -127 44q-47 6 -77 -37q-16 -24 -34 -66l-117 41q19 51 42 87.5t45.5 58t50.5 32t52 13t57 -4t58 -15
t62 -22.5z" />
    <glyph glyph-name="hungarumlaut" unicode="&#x2dd;" horiz-adv-x="829" 
d="M432 1135l119 340h176l-143 -340h-152zM102 1135l119 340h176l-143 -340h-152z" />
    <glyph glyph-name="uni0326" unicode="&#x326;" horiz-adv-x="466" 
d="M330 -256l-121 -225h-78l76 170q-37 8 -60.5 37.5t-23.5 70.5q0 45 31.5 77t78.5 32q44 0 76.5 -32.5t32.5 -76.5q0 -29 -12 -53z" />
    <glyph glyph-name="uni0394" unicode="&#x394;" horiz-adv-x="1521" 
d="M82 0l573 1434h211l574 -1434h-1358zM358 195h805l-401 1005z" />
    <glyph glyph-name="uni03A9" unicode="&#x3a9;" horiz-adv-x="1759" 
d="M971 195q224 97 323 231.5t99 341.5q0 108 -42.5 200t-114 152.5t-164 94.5t-193.5 34t-193.5 -34t-163 -94.5t-113 -152.5t-42.5 -200q0 -208 98 -342.5t321 -230.5v-195h-673v195h399q-187 101 -293 249.5t-106 343.5q0 154 63 281.5t169 210.5t244 128.5t290 45.5
q153 0 291.5 -45.5t244.5 -128.5t169 -210.5t63 -281.5q0 -195 -106.5 -343.5t-293.5 -249.5h398v-195h-674v195z" />
    <glyph glyph-name="uni03BC" unicode="&#x3bc;" horiz-adv-x="1302" 
d="M1303 201v-201h-156q-120 1 -178 46.5t-72 146.5q-62 -100 -163.5 -156.5t-223.5 -56.5q-80 0 -141 18v-408h-246v1434h246v-573q0 -132 55.5 -201.5t196.5 -69.5q115 0 193.5 78.5t78.5 202.5v563h246v-655q0 -97 27 -132.5t114 -35.5h23z" />
    <glyph glyph-name="pi" unicode="&#x3c0;" horiz-adv-x="1357" 
d="M102 1024h1112v-1024h-249v819h-424l-148 -819h-250l148 819h-189v205z" />
    <glyph glyph-name="Wgrave" unicode="&#x1e80;" horiz-adv-x="2185" 
d="M1141 1544h-152l-147 340h176zM522 0l-450 1434h239l334 -1139l328 1139h229l330 -1135l332 1135h250l-461 -1434h-260l-306 1057l-305 -1057h-260z" />
    <glyph glyph-name="wgrave" unicode="&#x1e81;" horiz-adv-x="1640" 
d="M868 1135h-151l-148 340h176zM61 1024h256l185 -715l207 715h223l207 -715l184 715h256l-307 -1024h-254l-197 707l-198 -707h-254z" />
    <glyph glyph-name="Wacute" unicode="&#x1e82;" horiz-adv-x="2185" 
d="M1049 1544l118 340h176l-143 -340h-151zM522 0l-450 1434h239l334 -1139l328 1139h229l330 -1135l332 1135h250l-461 -1434h-260l-306 1057l-305 -1057h-260z" />
    <glyph glyph-name="wacute" unicode="&#x1e83;" horiz-adv-x="1640" 
d="M776 1135l119 340h176l-143 -340h-152zM61 1024h256l185 -715l207 715h223l207 -715l184 715h256l-307 -1024h-254l-197 707l-198 -707h-254z" />
    <glyph glyph-name="Wdieresis" unicode="&#x1e84;" horiz-adv-x="2185" 
d="M743 1696q0 56 39.5 94.5t96.5 38.5q55 0 94 -38.5t39 -94.5q0 -57 -38.5 -96t-94.5 -39q-57 0 -96.5 39t-39.5 96zM1174 1696q0 56 39 94.5t96 38.5q55 0 94 -38.5t39 -94.5q0 -57 -38.5 -96t-94.5 -39q-57 0 -96 39t-39 96zM522 0l-450 1434h239l334 -1139l328 1139
h229l330 -1135l332 1135h250l-461 -1434h-260l-306 1057l-305 -1057h-260z" />
    <glyph glyph-name="wdieresis" unicode="&#x1e85;" horiz-adv-x="1640" 
d="M471 1286q0 56 39 94.5t96 38.5q56 0 94.5 -38.5t38.5 -94.5q0 -57 -38.5 -96t-94.5 -39q-57 0 -96 39t-39 96zM901 1286q0 56 39 94.5t96 38.5q56 0 94.5 -38.5t38.5 -94.5q0 -57 -38.5 -96t-94.5 -39q-57 0 -96 39t-39 96zM61 1024h256l185 -715l207 715h223l207 -715
l184 715h256l-307 -1024h-254l-197 707l-198 -707h-254z" />
    <glyph glyph-name="endash" unicode="&#x2013;" horiz-adv-x="1064" 
d="M123 594h819v-164h-819v164z" />
    <glyph glyph-name="emdash" unicode="&#x2014;" horiz-adv-x="1269" 
d="M123 594h1024v-164h-1024v164z" />
    <glyph glyph-name="quoteleft" unicode="&#x2018;" horiz-adv-x="577" 
d="M455 1051q0 -68 -48.5 -116t-119.5 -48q-67 0 -115.5 48.5t-48.5 115.5q0 46 27 92l165 311h129l-110 -242q55 -15 88 -58.5t33 -102.5z" />
    <glyph glyph-name="quoteright" unicode="&#x2019;" horiz-adv-x="577" 
d="M436 1212l-174 -325h-129l111 243q-54 14 -87.5 58t-33.5 104q0 68 48 115t120 47q68 0 116 -47.5t48 -114.5q0 -44 -19 -80z" />
    <glyph glyph-name="quotesinglbase" unicode="&#x201a;" horiz-adv-x="483" 
d="M346 -16l-129 -242h-86l82 182q-40 9 -65 40.5t-25 74.5q0 50 34 83.5t85 33.5q49 0 82.5 -33.5t33.5 -83.5q0 -31 -12 -55z" />
    <glyph glyph-name="quotedblleft" unicode="&#x201c;" horiz-adv-x="1017" 
d="M895 1051q0 -68 -48.5 -116t-119.5 -48q-67 0 -115.5 48.5t-48.5 115.5q0 46 27 92l166 311h129l-111 -242q55 -15 88 -58.5t33 -102.5zM455 1051q0 -68 -48.5 -116t-119.5 -48q-67 0 -115.5 48.5t-48.5 115.5q0 46 27 92l165 311h129l-110 -242q55 -15 88 -58.5
t33 -102.5z" />
    <glyph glyph-name="quotedblright" unicode="&#x201d;" horiz-adv-x="1017" 
d="M436 1212l-174 -325h-129l111 243q-54 14 -87.5 58t-33.5 104q0 68 48 115t120 47q68 0 116 -47.5t48 -114.5q0 -44 -19 -80zM877 1212l-175 -325h-129l111 243q-54 14 -87.5 58t-33.5 104q0 68 48 115t120 47q68 0 116 -47.5t48 -114.5q0 -46 -18 -80z" />
    <glyph glyph-name="quotedblbase" unicode="&#x201e;" horiz-adv-x="737" 
d="M133 -123v451h184l-51 -451h-133zM420 -123v451h184l-51 -451h-133z" />
    <glyph glyph-name="dagger" unicode="&#x2020;" horiz-adv-x="878" 
d="M340 1434h199v-410h247v-199h-247v-1235h-199v1235h-248v199h248v410z" />
    <glyph glyph-name="daggerdbl" unicode="&#x2021;" horiz-adv-x="878" 
d="M92 1106h248v328h199v-328h247v-199h-247v-790h247v-199h-247v-328h-199v328h-248v199h248v790h-248v199z" />
    <glyph glyph-name="bullet" unicode="&#x2022;" horiz-adv-x="731" 
d="M143 514q0 93 65 156t161 63q92 0 155.5 -63.5t63.5 -155.5q0 -96 -63 -160.5t-156 -64.5q-97 0 -161.5 64t-64.5 161z" />
    <glyph glyph-name="ellipsis" unicode="&#x2026;" horiz-adv-x="1730" 
d="M123 147q0 68 48.5 116t119.5 48q67 0 115.5 -48.5t48.5 -115.5q0 -71 -48 -119t-116 -48q-72 0 -120 47.5t-48 119.5zM700 147q0 68 48.5 116t119.5 48q68 0 116 -48.5t48 -115.5q0 -71 -48 -119t-116 -48q-72 0 -120 47.5t-48 119.5zM1276 147q0 68 48.5 116t119.5 48
q68 0 116 -48.5t48 -115.5q0 -71 -48 -119t-116 -48q-72 0 -120 47.5t-48 119.5z" />
    <glyph glyph-name="perthousand" unicode="&#x2030;" horiz-adv-x="3010" 
d="M199 687q-105 117 -105 325t104.5 325t286.5 117q184 0 289 -117t105 -325t-105 -325.5t-289 -117.5q-182 0 -286 118zM686 0l574 1434h157l-573 -1434h-158zM485 1331q-116 0 -177.5 -83t-61.5 -236t61.5 -236.5t177.5 -83.5q117 0 179.5 83.5t62.5 236.5t-62.5 236
t-179.5 83zM1330 97q-105 117 -105 325t104.5 325t286.5 117q184 0 288.5 -117t104.5 -325t-104.5 -325t-288.5 -117q-182 0 -286 117zM2237 97q-105 117 -105 325t104.5 325t286.5 117q184 0 288.5 -117t104.5 -325t-104.5 -325t-288.5 -117q-182 0 -286 117zM1616 741
q-116 0 -178 -83t-62 -236t62 -236.5t178 -83.5q117 0 179.5 83.5t62.5 236.5t-62.5 236t-179.5 83zM2523 741q-116 0 -177.5 -83t-61.5 -236t61.5 -236.5t177.5 -83.5q117 0 179.5 83.5t62.5 236.5t-62.5 236t-179.5 83z" />
    <glyph glyph-name="guilsinglleft" unicode="&#x2039;" horiz-adv-x="673" 
d="M102 512l265 461h204l-266 -461l266 -461h-204z" />
    <glyph glyph-name="guilsinglright" unicode="&#x203a;" horiz-adv-x="673" 
d="M571 512l-264 -461h-205l267 461l-267 461h205z" />
    <glyph glyph-name="fraction" unicode="&#x2044;" horiz-adv-x="915" 
d="M92 0l574 1434h157l-573 -1434h-158z" />
    <glyph glyph-name="Euro" unicode="&#x20ac;" horiz-adv-x="1705" 
d="M-41 963h246q71 229 263 360t443 131q132 0 245.5 -34.5t192.5 -91.5t135.5 -130.5t83.5 -152t27 -154.5h-254q0 66 -30 129.5t-83.5 114.5t-136 82.5t-180.5 31.5q-144 0 -264.5 -72.5t-179.5 -213.5h584v-164h-625q-4 -54 -4 -82q0 -42 2 -62h627v-163h-592
q56 -151 179.5 -229.5t272.5 -78.5q98 0 180.5 32t136 83.5t83.5 115.5t30 130h254q0 -76 -27 -154.5t-83.5 -152.5t-135.5 -131t-192.5 -92t-245.5 -35q-257 0 -451 137t-261 375h-240v163h211q-2 20 -2 62q0 28 4 82h-213v164z" />
    <glyph glyph-name="trademark" unicode="&#x2122;" horiz-adv-x="1753" 
d="M104 1434h639v-103h-258v-614h-125v614h-256v103zM850 1434h125l276 -568l277 568h125v-717h-121v502l-238 -502h-86l-237 502v-502h-121v717z" />
    <glyph glyph-name="partialdiff" unicode="&#x2202;" horiz-adv-x="1312" 
d="M586 1434l510 -666q104 -126 104 -299q0 -146 -74 -259t-197 -171.5t-272 -58.5q-146 0 -269 58.5t-199 171.5t-76 259q0 109 43.5 201.5t117.5 154.5t171.5 97t205.5 36l-368 476h303zM657 190q117 0 205 78.5t88 200.5t-88 200.5t-205 78.5q-119 0 -207 -78.5
t-88 -200.5t88 -200.5t207 -78.5z" />
    <glyph glyph-name="product" unicode="&#x220f;" horiz-adv-x="1275" 
d="M143 1434h990v-1844h-199v1649h-592v-1649h-199v1844z" />
    <glyph glyph-name="summation" unicode="&#x2211;" horiz-adv-x="1132" 
d="M1040 1434v-174h-680l299 -748l-299 -748h680v-174h-948l369 922l-369 922h948z" />
    <glyph glyph-name="minus" unicode="&#x2212;" horiz-adv-x="942" 
d="M123 594h696v-164h-696v164z" />
    <glyph glyph-name="uni2215" unicode="&#x2215;" horiz-adv-x="1038" 
d="M92 0l696 1434h158l-696 -1434h-158z" />
    <glyph glyph-name="uni2219" unicode="&#x2219;" horiz-adv-x="618" 
d="M143 512q0 68 48.5 116t119.5 48q67 0 115.5 -48t48.5 -116q0 -71 -48 -119.5t-116 -48.5q-72 0 -120 48t-48 120z" />
    <glyph glyph-name="radical" unicode="&#x221a;" horiz-adv-x="1640" 
d="M92 649h443l249 -651l564 1436h198l-653 -1639h-219l-262 662h-320v192z" />
    <glyph glyph-name="infinity" unicode="&#x221e;" horiz-adv-x="1267" 
d="M1165 604q0 -123 -88 -210t-211 -87q-73 0 -133 33.5t-98 91.5q-39 -58 -100.5 -91.5t-135.5 -33.5q-123 0 -210 87t-87 210q0 124 87 211.5t210 87.5q74 0 135.5 -33.5t100.5 -91.5q38 58 98 91.5t133 33.5q123 0 211 -87.5t88 -211.5zM686 604q0 -74 53.5 -127
t128.5 -53q74 0 127.5 53.5t53.5 126.5q0 75 -53.5 128.5t-127.5 53.5q-75 0 -128.5 -53.5t-53.5 -128.5zM584 602q0 73 -53.5 126.5t-127.5 53.5q-75 0 -128.5 -53t-53.5 -127q0 -75 53.5 -128.5t128.5 -53.5q74 0 127.5 53.5t53.5 128.5z" />
    <glyph glyph-name="integral" unicode="&#x222b;" horiz-adv-x="835" 
d="M754 1253q-122 0 -167.5 -51t-45.5 -158v-1116q0 -68 -6.5 -114t-24.5 -86.5t-49.5 -64t-83.5 -41t-123 -24.5t-172 -8v201q122 0 167.5 51t45.5 158v1116q0 68 6.5 114t24.5 86.5t49.5 64t83.5 41t123 24.5t172 8v-201z" />
    <glyph glyph-name="approxequal" unicode="&#x2248;" horiz-adv-x="1288" 
d="M141 842q72 181 187.5 212t326.5 -59q65 -26 104 -40t78 -23.5t61.5 -7t44.5 14.5t37 35t30 60l20 47l135 -55l-18 -47q-36 -93 -80 -144t-106.5 -67t-139 -1t-186.5 60q-63 26 -102 40t-78 23.5t-61.5 7t-45 -14.5t-38 -35t-31.5 -60l-21 -49l-135 56z" />
    <glyph glyph-name="notequal" unicode="&#x2260;" horiz-adv-x="1001" 
d="M176 -203l141 449h-163v164h215l63 204h-278v164h331l142 453h198l-141 -453h166v-164h-219l-64 -204h283v-164h-334l-141 -449h-199z" />
    <glyph glyph-name="lessequal" unicode="&#x2264;" horiz-adv-x="954" 
d="M92 801l770 438v-209l-538 -289l538 -290v-209l-770 440v119zM92 164h770v-164h-770v164z" />
    <glyph glyph-name="greaterequal" unicode="&#x2265;" horiz-adv-x="954" 
d="M862 801v-119l-770 -440v209l541 290l-541 289v209zM862 164v-164h-770v164h770z" />
    <glyph glyph-name="uni24C5" unicode="&#x24c5;" horiz-adv-x="1722" 
d="M183 431q-58 136 -58 286t58 286.5t157 235.5t235.5 157t286.5 58t286.5 -58t235.5 -157t157 -235.5t58 -286.5t-58 -286.5t-157 -235.5t-235.5 -157t-286.5 -58t-286.5 58t-235.5 157t-157 236zM250 976q-53 -123 -53 -259t52.5 -259.5t141.5 -212.5t212 -141.5
t259 -52.5q181 0 334 89t242.5 242.5t89.5 334.5t-89.5 334.5t-242.5 242t-334 88.5q-136 0 -259 -52.5t-212 -141.5t-141 -212zM932 1069q27 0 57 -5t67 -20t66 -38.5t48.5 -66t19.5 -97.5q0 -54 -19.5 -97.5t-48.5 -69t-65.5 -42.5t-67.5 -23t-57 -6h-203v-239h-135v704
h338zM729 711h193q46 0 88.5 30.5t42.5 96.5q0 35 -14 60.5t-35 39t-42 19.5t-40 6h-193v-252z" />
    <glyph glyph-name="lozenge" unicode="&#x25ca;" horiz-adv-x="1112" 
d="M82 510l369 924h211l368 -924l-368 -920h-211zM831 510l-274 690l-276 -690l276 -688z" />
    <glyph glyph-name="fi" unicode="&#xfb01;" horiz-adv-x="1312" 
d="M928 1348q0 62 44.5 105.5t108.5 43.5q62 0 106 -44t44 -105q0 -64 -44 -109t-106 -45q-64 0 -108.5 44.5t-44.5 109.5zM61 1024h154v102q0 162 84.5 245t251.5 83h227v-201h-135q-103 0 -142.5 -32.5t-39.5 -135.5v-61h739v-1024h-246v823h-493v-823h-246v823h-154v201z
" />
    <glyph glyph-name="fl" unicode="&#xfb02;" horiz-adv-x="1394" 
d="M1 -350h1v254q0 206 0.5 333t1.5 127v0v0v0h1v0v0v0h1v0v0h1v0h1v0h1v0h1v0h1v0h1v0h1h1v0h1v0h1h1h1h1v0h1h1h1h1h1h1h1h1h1h1h1h1h1h1h1h1h1h1h1h1h1h1h1h1h1h1h1h1h1h1h1h1h1h1h1h1h1h1h1h1h1h1h1h2h1h1h1h1h1h1h1h1h1h1h1h1h1h1h2h1q1 208 1.5 209t1 46t1 97.5
t1 179.5t1 190t1 166l1 206t1.5 103.5t1.5 65.5t1 169.5t1 192.5t1 185.5t1 98.5t1 91t1.5 90.5t1.5 68t1 194.5t0.5 66.5t0.5 -187t1.5 -126.5h1v-76h-2q-1 254 -1.5 314.5t-0.5 64.5v27275h257q-1 0 -2 -127t-1 -362v-254h257v-2h257v-278h-2v279h-1v1v252v0v0v0v0v1v1
v184v0v0v4v174v5v154v0v6v0v33v184v0v1v43v0v184v0v0v69v88v184v0v2v47v27v185v0v2v0v5v62v89v1v186v0v2v0v3v0v4v43v48v49v1v51v17v35v17v5v39v3v252v178v250v254v84v80v5v154v250v102v4v152v199v190v0v0v0v0v1v0v246v0v0v5v111v5v174v0v30v0v240v184v0v1v43v0v184v0v0v69
v88v184v0v15v47v27v185v0v15v0v11v62v89v184v0v0v69v88v184v0v29v47v27v185v0v29v0v5v62v89v184v0v15v16v184v0v6v220v65v5v0v217v0v6v0v233v0v6v0v2v93v65v27v0v8h257h258h257h258h257h257h513h257h513h257h513h258h257h258h257h513h257h513h258h257h513h258h257h513h258
h257h513h513h258h257h513h513h258h258h257h513h513h258h258h257h513h513h513h513h258h258h258h258h258h258h258h258h258h258h258h258h258h258h258h258h258h258h258h258h513h513h513h513h514h258h258h513h513h513h514h258h258h513h514h258h258h513h514h258h513h513h514h258
h513h514h258h514h258h513h514h258h513h514h513h514h258h514h258h514h258h514h258h514h258h514h258h514h513h514h513h514h514h258h514h514h258h514h514h258h514h514h258h514h514h514h258h514h514h514h514h258h514h514h514h514h514h514h514h514h514h514h514h514h514h514h521
h14167h5787h-29072h-322h26447h289h-289h-2406h1024h26274h-22789h-15519h18377h382h-27389h-11967h26429l-13828 6l-14077 24l14080 6l2 40l164 6l-20 56l1473 6l1454 72l10 6l19 88l41 6l-18432 104l299 6l184 120v6l17752 136l-18432 6l1071 152l7097 6l4 168l11 6
l15961 184l-18432 6l69 200l22712 6l9 13l12059 23992l-18176 29l2304 4280l1342 27l22832 -9215l12581 -18432l9744 7983l33 -18432l8192 1071l4096 16645l8480 218l294 4l8194 234l4114 4l8210 2l4097 23873l21423 6912l349 2304l304 1024l306 6400l350 1024z" />
    <glyph glyph-name="zero.lnum_tnum" horiz-adv-x="1638" 
d="M339 176q-175 195 -175 541t174.5 541.5t478.5 195.5q306 0 481 -195.5t175 -541.5t-175 -541.5t-481 -195.5q-304 0 -478 196zM1115 1110q-105 139 -298 139t-296 -138.5t-103 -393.5t103 -394t296 -139t297.5 139.5t104.5 393.5t-104 393z" />
    <glyph glyph-name="one.lnum_tnum" horiz-adv-x="1638" 
d="M1020 1434h178v-1434h-250v1176l-428 -199l-80 190z" />
    <glyph glyph-name="two.lnum_tnum" horiz-adv-x="1638" 
d="M299 205l524 459q145 127 188.5 198t43.5 160q0 227 -275 227q-280 0 -280 -329h-254q0 77 15 148.5t53 143.5t96 124.5t152.5 85t213.5 32.5q84 0 159.5 -14t144.5 -47t119 -82.5t80 -126t30 -172.5q0 -55 -13 -103.5t-49.5 -114.5t-113 -147t-193.5 -176l-326 -266h777
v-205h-1092v205z" />
    <glyph glyph-name="three.lnum_tnum" horiz-adv-x="1536" 
d="M618 616v205h164q107 0 162 62.5t55 167.5q0 98 -71 148t-191 50q-140 0 -196 -71t-56 -207h-254q0 98 28 182t86 153t158.5 108.5t233.5 39.5q145 0 257.5 -43t180.5 -134t68 -218q0 -222 -145 -326q227 -88 227 -319q0 -106 -42.5 -189t-117 -135.5t-173 -80
t-214.5 -27.5q-113 0 -208 27t-160 73t-111 107t-67 128t-21 138h254q0 -114 79 -191.5t230 -77.5q132 0 214.5 62t82.5 178q0 96 -69 143t-189 47h-195z" />
    <glyph glyph-name="four.lnum_tnum" horiz-adv-x="1638" 
d="M971 1434h246v-871h245v-174h-245v-389h-250v389h-789v154zM424 563h543v619z" />
    <glyph glyph-name="five.lnum_tnum" horiz-adv-x="1638" 
d="M365 649l102 785h805v-205h-582l-45 -342q106 59 232 59q67 0 133.5 -18.5t128.5 -58t109 -95.5t75.5 -137t28.5 -176q0 -144 -71 -254.5t-189.5 -168.5t-262.5 -58q-146 0 -268.5 56t-199 166.5t-76.5 256.5h250q0 -122 83.5 -198.5t200.5 -76.5q119 0 199 76.5
t80 212.5q0 130 -78 197t-193 67q-122 0 -213 -88h-249z" />
    <glyph glyph-name="six.lnum_tnum" horiz-adv-x="1638" 
d="M877 1434h303l-361 -476q108 -1 206 -36t172.5 -97t118.5 -154.5t44 -201.5q0 -146 -76.5 -259t-199.5 -171.5t-269 -58.5q-149 0 -272 58.5t-197 171.5t-74 259q0 181 119 313zM815 184q119 0 205 79.5t86 205.5t-86 205.5t-205 79.5q-117 0 -203 -79.5t-86 -205.5
t86 -205.5t203 -79.5z" />
    <glyph glyph-name="seven.lnum_tnum" horiz-adv-x="1638" 
d="M1311 1434v-197l-555 -1237h-277l563 1229h-712v205h981z" />
    <glyph glyph-name="eight.lnum_tnum" horiz-adv-x="1638" 
d="M442 1352q145 102 379 102t379.5 -102.5t145.5 -286.5q0 -104 -53.5 -188t-147.5 -138q111 -55 176 -144t65 -206q0 -131 -79 -225.5t-205 -139t-281 -44.5t-281 44.5t-205 139t-79 225.5q0 117 65.5 206t176.5 144q-94 54 -147.5 138t-53.5 188q0 184 145 287zM613 895
q76 -57 208 -57t208.5 57t76.5 152t-75.5 148.5t-209.5 53.5t-209 -53.5t-75 -148.5t76 -152zM594 243q88 -59 227 -59t227.5 58.5t88.5 165.5q0 106 -89 165.5t-227 59.5t-226.5 -59.5t-88.5 -165.5q0 -107 88 -165z" />
    <glyph glyph-name="nine.lnum_tnum" horiz-adv-x="1638" 
d="M756 0h-303l360 475q-145 1 -267 60t-198 172t-76 258q0 146 76.5 259t199.5 171.5t269 58.5q149 0 272 -58.5t197 -171.5t74 -259q0 -182 -119 -314zM817 1249q-119 0 -205 -79t-86 -205t86 -205.5t205 -79.5q117 0 203 79.5t86 205.5t-86 205t-203 79z" />
    </font>
</defs>
</svg>
