<?xml version="1.0" standalone="no"?>
<!DOCTYPE svg PUBLIC "-//W3C//DTD SVG 1.1//EN" "http://www.w3.org/Graphics/SVG/1.1/DTD/svg11.dtd" >
<svg xmlns="http://www.w3.org/2000/svg" xmlns:xlink="http://www.w3.org/1999/xlink" version="1.1">
<metadata>
Created by FontForge 20230101 at Sat May 29 15:14:21 2021
 By Unknown
Tour de Force Font Foundry &#38; Dusan Jelesijevic
</metadata>
<defs>
<font id="Lupio-Bold" horiz-adv-x="1220" >
  <font-face 
    font-family="Lupio-Bold"
    font-weight="700"
    font-stretch="normal"
    units-per-em="2048"
    panose-1="0 0 0 0 0 0 0 0 0 0"
    ascent="1638"
    descent="-410"
    x-height="1024"
    cap-height="1434"
    bbox="-238 -512 2980 2093"
    underline-thickness="102"
    underline-position="-358"
    unicode-range="U+000D-FB02"
  />
<missing-glyph horiz-adv-x="1024" 
 />
    <glyph glyph-name=".notdef" horiz-adv-x="1024" 
 />
    <glyph glyph-name="uni0000" horiz-adv-x="0" 
 />
    <glyph glyph-name="uni000D" unicode="&#xd;" horiz-adv-x="512" 
 />
    <glyph glyph-name="space" unicode=" " horiz-adv-x="532" 
 />
    <glyph glyph-name="exclam" unicode="!" horiz-adv-x="557" 
d="M102 1436h353v-506l-31 -449h-289l-33 449v506zM88 174q0 80 56 135.5t139 55.5q79 0 133.5 -55.5t54.5 -135.5q0 -83 -54 -138.5t-134 -55.5q-83 0 -139 55.5t-56 138.5z" />
    <glyph glyph-name="quotedbl" unicode="&#x22;" horiz-adv-x="757" 
d="M88 983v451h256l-72 -451h-184zM416 983v451h256l-72 -451h-184z" />
    <glyph glyph-name="numbersign" unicode="#" horiz-adv-x="1349" 
d="M68 537h184l53 360h-237v250h272l41 287h250l-41 -287h278l41 287h265l-41 -287h151v-250h-186l-54 -360h240v-250h-274l-41 -287h-264l40 287h-278l-41 -287h-250l41 287h-149v250zM502 537h278l54 360h-279z" />
    <glyph glyph-name="dollar" unicode="$" horiz-adv-x="1499" 
d="M590 1843h287v-395q133 -15 234 -59.5t160.5 -110.5t88.5 -143t29 -164h-357q0 196 -293 196q-113 0 -182.5 -30t-69.5 -88q0 -75 64.5 -102.5t312.5 -72.5q74 -13 128 -25t116.5 -31t106 -41t86.5 -54.5t68.5 -71.5t41.5 -92t16 -117q0 -185 -134.5 -308t-395.5 -148
v-396h-287v400q-138 17 -244 64.5t-168.5 114.5t-94 145.5t-31.5 164.5h356q0 -95 86 -153t242 -58q315 0 315 127q0 63 -77.5 91t-298.5 67q-50 9 -77 14q-257 46 -372 159t-115 296q0 170 128 280t331 142v399z" />
    <glyph glyph-name="percent" unicode="%" horiz-adv-x="2131" 
d="M176 686q-108 117 -108 326t107.5 325.5t299.5 116.5t300 -116.5t108 -325.5t-108 -326t-300 -117t-299 117zM670 0l573 1434h217l-573 -1434h-217zM475 1282q-97 0 -145.5 -69.5t-48.5 -200.5t48.5 -201t145.5 -70q96 0 145.5 70.5t49.5 200.5t-49.5 200t-145.5 70z
M1355 97q-108 116 -108 325t108 325.5t300 116.5t299.5 -116.5t107.5 -325.5t-107.5 -325.5t-299.5 -116.5t-300 117zM1655 692q-97 0 -146 -69.5t-49 -200.5t49 -200.5t146 -69.5q96 0 145 70t49 200t-49 200t-145 70z" />
    <glyph glyph-name="ampersand" unicode="&#x26;" horiz-adv-x="1490" 
d="M1446 594h-209v-160q0 -69 -19 -132.5t-63 -123t-110.5 -103t-168.5 -69.5t-229 -26q-171 0 -297.5 41.5t-202 133.5t-75.5 228q0 133 84.5 216.5t228.5 117.5q-231 77 -231 325q0 99 45 179.5t120.5 130t170 76t198.5 26.5q121 0 218 -28.5t156.5 -73t99.5 -103.5
t55.5 -116t15.5 -115h-352q0 77 -47 112t-142 35q-82 0 -132 -41t-50 -118q0 -73 41.5 -116.5t134.5 -43.5h760v-252zM881 594h-271q-188 0 -188 -156q0 -170 235 -170q224 0 224 166v160z" />
    <glyph glyph-name="quotesingle" unicode="'" horiz-adv-x="430" 
d="M88 983v451h256l-72 -451h-184z" />
    <glyph glyph-name="parenleft" unicode="(" horiz-adv-x="823" 
d="M389 522q0 -71 8 -136.5t20.5 -118t33 -103.5t39.5 -88t47 -75.5t49 -63t51.5 -53.5t48 -43.5t45.5 -37t37 -30.5l-156 -183q-59 28 -123 73.5t-139.5 128t-134 181.5t-98 243.5t-39.5 305.5q0 116 20.5 224.5t54 193t79 160t92 129.5t97 98.5t90 71t73.5 43.5l155 -182
q-7 -7 -53 -48.5t-75.5 -71.5t-76 -96t-74.5 -133t-49.5 -170t-21.5 -219z" />
    <glyph glyph-name="parenright" unicode=")" horiz-adv-x="823" 
d="M436 522q0 116 -21.5 219t-49.5 170t-74.5 133t-76 96t-75.5 71.5t-53 48.5l156 182q34 -17 73.5 -43.5t90 -71t97 -98.5t92 -129.5t79 -160t54 -193t20.5 -224.5q0 -135 -27 -258.5t-73.5 -217t-101.5 -171t-117.5 -134t-115 -92.5t-100.5 -59l-156 183q9 8 37 30.5
t45.5 37t48 43.5t51.5 53.5t49 63t47 75.5t39.5 88t33 103.5t20.5 118t8 136.5z" />
    <glyph glyph-name="asterisk" unicode="*" horiz-adv-x="1026" 
d="M162 836l256 229l-324 131l99 170l276 -215l-55 379h196l-53 -379l277 215l98 -170l-324 -131l256 -229l-151 -127l-201 321l-201 -321z" />
    <glyph glyph-name="plus" unicode="+" horiz-adv-x="880" 
d="M92 625h236v235h225v-235h235v-226h-235v-235h-225v235h-236v226z" />
    <glyph glyph-name="comma" unicode="," horiz-adv-x="591" 
d="M92 186q0 84 59.5 142.5t147.5 58.5q83 0 142 -59t59 -142q0 -61 -31 -112l-195 -365h-176l131 281q-62 20 -99.5 73t-37.5 123z" />
    <glyph glyph-name="hyphen" unicode="-" horiz-adv-x="798" 
d="M92 625h615v-226h-615v226z" />
    <glyph glyph-name="period" unicode="." horiz-adv-x="591" 
d="M92 186q0 84 59.5 142.5t147.5 58.5q83 0 142 -59t59 -142q0 -88 -58.5 -147t-142.5 -59q-89 0 -148 58.5t-59 147.5z" />
    <glyph glyph-name="slash" unicode="/" horiz-adv-x="864" 
d="M68 0l450 1434h281l-451 -1434h-280z" />
    <glyph glyph-name="zero" unicode="0" horiz-adv-x="1513" 
d="M259 175q-181 195 -181 542t180.5 542t499.5 195q320 0 500 -195t180 -542t-180 -542t-500 -195q-319 0 -499 195zM1000 1051q-81 116 -242 116t-242.5 -116t-81.5 -334t81.5 -334.5t242.5 -116.5t242 116.5t81 334.5t-81 334z" />
    <glyph glyph-name="one" unicode="1" horiz-adv-x="972" 
d="M621 1434h249v-1434h-352v1071l-362 -166l-115 262z" />
    <glyph glyph-name="two" unicode="2" horiz-adv-x="1318" 
d="M125 287l530 454q102 87 136 143t34 124q0 46 -17 79t-46.5 50t-61.5 24.5t-69 7.5q-59 0 -100.5 -21t-63 -60t-30.5 -84.5t-9 -104.5h-356q0 81 15 155t54.5 149t100.5 130t160.5 89t226.5 34q85 0 161.5 -14t149.5 -47.5t125.5 -85.5t84.5 -133.5t32 -184.5
q0 -35 -5.5 -68t-27.5 -85.5t-59.5 -105t-107.5 -122.5t-165 -143l-233 -180h665v-287h-1124v287z" />
    <glyph glyph-name="three" unicode="3" horiz-adv-x="1298" 
d="M485 586v266h158q69 0 107 41.5t38 116.5q0 79 -45 119t-120 40q-94 0 -134 -51t-40 -162h-357q0 103 31.5 191.5t93.5 158.5t166.5 110t239.5 40q148 0 265 -44.5t188 -137.5t71 -221q0 -110 -47.5 -192t-134.5 -130q122 -40 192 -123t70 -209q0 -193 -157.5 -305
t-403.5 -112q-146 0 -263 42t-187.5 111.5t-107 154t-36.5 175.5h356q0 -85 63 -141t185 -56q96 0 145 48.5t49 129.5q0 69 -49 104.5t-131 35.5h-205z" />
    <glyph glyph-name="four" unicode="4" horiz-adv-x="1417" 
d="M801 1434h350v-783h205v-282h-205v-369h-352v369h-738v215zM446 651h353v414z" />
    <glyph glyph-name="five" unicode="5" horiz-adv-x="1271" 
d="M131 588l102 846h877v-287h-559l-33 -268q91 45 207 45q81 0 163 -29.5t152.5 -85t115 -146t44.5 -200.5q0 -144 -72 -254.5t-196.5 -169.5t-280.5 -59q-158 0 -288.5 56t-210.5 166.5t-80 256.5h356q0 -84 59.5 -137.5t149.5 -53.5q92 0 149.5 49.5t57.5 133.5
t-56.5 137t-138.5 53q-108 0 -166 -53h-352z" />
    <glyph glyph-name="six" unicode="6" horiz-adv-x="1312" 
d="M657 1436h433l-345 -471q211 -26 351.5 -159t140.5 -331q0 -146 -80 -260.5t-211.5 -174.5t-288.5 -60q-164 0 -295 60t-207.5 174t-76.5 261q0 156 96 283zM657 268q93 0 158.5 58.5t65.5 148.5q0 92 -65.5 150.5t-158.5 58.5q-92 0 -157.5 -59t-65.5 -150
q0 -90 65.5 -148.5t157.5 -58.5z" />
    <glyph glyph-name="seven" unicode="7" horiz-adv-x="1099" 
d="M1059 1434v-279l-520 -1155h-387l528 1147h-639v287h1018z" />
    <glyph glyph-name="eight" unicode="8" horiz-adv-x="1325" 
d="M272 1349q152 107 392 107t392 -107t152 -292q0 -101 -53 -182t-147 -134q112 -55 176.5 -141.5t64.5 -200.5q0 -131 -82 -228t-212.5 -144t-290.5 -47t-291 47t-213 144t-82 228q0 114 64.5 200.5t176.5 141.5q-94 53 -147 134t-53 182q0 185 153 292zM528 906
q51 -46 136 -46t135.5 46t50.5 116q0 68 -50.5 113t-135.5 45q-86 0 -136.5 -45t-50.5 -113q0 -70 51 -116zM499 305q62 -49 165 -49t165 48.5t62 129.5q0 83 -61.5 130.5t-165.5 47.5t-166 -47.5t-62 -130.5q0 -81 63 -129z" />
    <glyph glyph-name="nine" unicode="9" horiz-adv-x="1312" 
d="M657 0h-432l344 471q-211 26 -351 159t-140 331q0 146 79.5 260.5t211 174.5t288.5 60q164 0 295.5 -60t208 -174t76.5 -261q0 -156 -96 -283zM657 1167q-93 0 -158 -58t-65 -148q0 -92 65 -150.5t158 -58.5q92 0 158 59t66 150q0 90 -66 148t-158 58z" />
    <glyph glyph-name="colon" unicode=":" horiz-adv-x="591" 
d="M92 844q0 84 59 142t148 58q83 0 142 -58.5t59 -141.5q0 -88 -58.5 -147.5t-142.5 -59.5q-89 0 -148 59t-59 148zM92 186q0 84 59.5 142.5t147.5 58.5q83 0 142 -59t59 -142q0 -88 -58.5 -147t-142.5 -59q-89 0 -148 58.5t-59 147.5z" />
    <glyph glyph-name="semicolon" unicode=";" horiz-adv-x="591" 
d="M92 844q0 84 59 142t148 58q83 0 142 -58.5t59 -141.5q0 -88 -58.5 -147.5t-142.5 -59.5q-89 0 -148 59t-59 148zM92 186q0 84 59.5 142.5t147.5 58.5q83 0 142 -59t59 -142q0 -61 -31 -112l-195 -365h-176l131 281q-62 20 -99.5 73t-37.5 123z" />
    <glyph glyph-name="less" unicode="&#x3c;" horiz-adv-x="923" 
d="M68 551l790 448v-288l-465 -240l465 -240v-288l-790 448v160z" />
    <glyph glyph-name="equal" unicode="=" horiz-adv-x="880" 
d="M92 819h696v-225h-696v225zM92 430h696v-225h-696v225z" />
    <glyph glyph-name="greater" unicode="&#x3e;" horiz-adv-x="923" 
d="M858 551v-160l-790 -448v288l462 240l-462 240v288z" />
    <glyph glyph-name="question" unicode="?" horiz-adv-x="1267" 
d="M446 477v41q0 89 7.5 142t33.5 94.5t60.5 67.5t101.5 63q7 4 32.5 17.5t33.5 18.5t29 18t29 21t21.5 22t19 26.5t10.5 29.5t5 35q0 57 -46.5 81t-133.5 24q-211 0 -211 -201h-356q0 81 14.5 147t54 129t103 106t167 69t241.5 26q524 0 524 -369q0 -130 -49 -216
t-170 -156q-98 -57 -133 -97t-35 -114v-25h-353zM430 174q0 80 56.5 135.5t138.5 55.5q81 0 135.5 -55.5t54.5 -135.5q0 -83 -54 -138.5t-136 -55.5t-138.5 55.5t-56.5 138.5z" />
    <glyph glyph-name="at" unicode="@" horiz-adv-x="2125" 
d="M528 512q37 213 177.5 347t326.5 134q102 0 167.5 -44.5t94.5 -123.5l27 150h334l-137 -778h280q54 108 86 274q32 184 -4 343t-126 270t-231 174t-313 63q-173 0 -336 -63t-291.5 -174t-218.5 -270t-122 -343t2.5 -342.5t123.5 -269t229.5 -173.5t313.5 -63q66 0 144 10
l2 -131q-77 -14 -168 -14q-146 0 -279.5 43t-241.5 125.5t-181 202.5t-98.5 273.5t5.5 338.5q32 180 114 339t196 275.5t252 201t286 127t293 42.5q146 0 279.5 -43t241.5 -125.5t181 -202.5t98.5 -274t-5.5 -340q-42 -229 -160 -420h-711l27 150q-121 -168 -322 -168
q-186 0 -280 133.5t-56 345.5zM1018 299q73 0 134 39.5t77 110.5l20 120q13 74 -34 115t-123 41q-84 0 -147.5 -59.5t-80.5 -153.5q-17 -93 25.5 -153t128.5 -60z" />
    <glyph glyph-name="A" unicode="A" horiz-adv-x="1683" 
d="M666 1436h352l624 -1436h-352l-106 264h-684l-107 -264h-352zM616 551h453l-227 561z" />
    <glyph glyph-name="B" unicode="B" horiz-adv-x="1439" 
d="M102 0v1434h678q46 0 88 -3.5t94 -13.5t95.5 -27t86.5 -47t72.5 -70t47.5 -98.5t18 -130.5q0 -200 -178 -296q260 -85 260 -332q0 -99 -34.5 -175.5t-87 -121t-122.5 -72.5t-132 -37.5t-126 -9.5h-760zM455 868h295q176 0 176 140q0 36 -11.5 63t-28.5 41t-42.5 22.5
t-46.5 10.5t-47 2h-295v-279zM455 287h360q193 0 193 151q0 150 -193 150h-360v-301z" />
    <glyph glyph-name="C" unicode="C" horiz-adv-x="1622" 
d="M436 717q0 -96 24 -174t63.5 -128.5t93 -85t110 -49t117.5 -14.5q150 0 249 91.5t99 213.5h356q0 -81 -27.5 -163t-86 -159t-139.5 -137t-198 -96t-253 -36q-159 0 -299 51.5t-243 145t-162.5 233t-59.5 307.5t59.5 307.5t162.5 233t243 145t299 51.5q136 0 253 -36
t198 -96t139.5 -137.5t86 -159.5t27.5 -163h-356q0 122 -99 213.5t-249 91.5q-61 0 -117.5 -14.5t-110 -48t-93 -84t-63.5 -128.5t-24 -175z" />
    <glyph glyph-name="D" unicode="D" horiz-adv-x="1589" 
d="M723 1434q167 0 310 -47.5t249.5 -136.5t167.5 -226t61 -307t-61 -307t-167.5 -226t-249.5 -136.5t-310 -47.5h-621v1434h621zM455 287h268q203 0 317.5 108.5t114.5 321.5t-114.5 321.5t-317.5 108.5h-268v-860z" />
    <glyph glyph-name="E" unicode="E" horiz-adv-x="1241" 
d="M104 1434h1072v-287h-719v-277h657v-286h-657v-297h719v-287h-1072v1434z" />
    <glyph glyph-name="F" unicode="F" horiz-adv-x="1193" 
d="M98 1434h1041v-287h-688v-305h626v-287h-626v-553h-353v1432z" />
    <glyph glyph-name="G" unicode="G" horiz-adv-x="1642" 
d="M434 721q0 -222 121.5 -335.5t337.5 -113.5q163 0 263.5 64.5t123.5 198.5h-465v262h752v-797h-281v160q-158 -176 -440 -176q-121 0 -234.5 32t-210 95.5t-169 151t-113.5 206t-41 252.5q0 133 41.5 250.5t115 204.5t171 150.5t213 95.5t237.5 32q148 0 280 -48
t220 -123t139 -166t51 -179h-352q0 97 -97 163t-247 66q-192 0 -304 -113.5t-112 -332.5z" />
    <glyph glyph-name="H" unicode="H" horiz-adv-x="1685" 
d="M102 1434h353v-557h776v557h352v-1434h-352v590h-776v-590h-353v1434z" />
    <glyph glyph-name="I" unicode="I" horiz-adv-x="557" 
d="M102 1434h353v-1434h-353v1434z" />
    <glyph glyph-name="J" unicode="J" horiz-adv-x="1339" 
d="M885 1434h352v-881q0 -122 -34.5 -224.5t-103 -181.5t-180 -123t-257.5 -44q-150 0 -263 44t-181.5 124.5t-102 187t-33.5 237.5h356q0 -307 226 -307q112 0 166.5 82.5t54.5 204.5v881z" />
    <glyph glyph-name="K" unicode="K" horiz-adv-x="1533" 
d="M102 1434h353v-615h151l398 615h421l-507 -742l575 -692h-442l-420 535h-176v-535h-353v1434z" />
    <glyph glyph-name="L" unicode="L" horiz-adv-x="1251" 
d="M102 1434h353v-1147h729v-287h-1082v1434z" />
    <glyph glyph-name="M" unicode="M" horiz-adv-x="1886" 
d="M102 1434h353l489 -1053l488 1053h352v-1434h-352v760l-324 -760h-330l-323 760v-760h-353v1434z" />
    <glyph glyph-name="N" unicode="N" horiz-adv-x="1671" 
d="M102 1434h353l762 -949v949h352v-1434h-352l-762 922v-922h-353v1434z" />
    <glyph glyph-name="O" unicode="O" horiz-adv-x="1728" 
d="M143 408q-63 140 -63 309t63 309.5t171 233t250.5 143.5t301.5 51q160 0 303 -51t251 -143.5t171.5 -233t63.5 -309.5t-63.5 -309.5t-171.5 -233t-251 -143.5t-303 -51q-159 0 -301.5 51t-250.5 143.5t-171 233.5zM1176 1043q-122 124 -310 124t-309 -124t-121 -326
q0 -201 121 -326t309 -125t310 125t122 326q0 202 -122 326z" />
    <glyph glyph-name="P" unicode="P" horiz-adv-x="1394" 
d="M784 1436q39 0 81 -4.5t96.5 -18.5t103.5 -36t98 -60t84.5 -87.5t57.5 -122t22 -159.5t-22 -159.5t-57.5 -122t-84.5 -87.5t-98 -59.5t-103.5 -35.5t-96.5 -18.5t-81 -4.5h-329v-461h-353v1436h682zM455 748h299q29 0 57.5 6t58 20.5t51.5 36.5t36 57.5t14 79.5
q0 55 -21 96t-54.5 63t-69 32t-72.5 10h-299v-401z" />
    <glyph glyph-name="Q" unicode="Q" horiz-adv-x="1728" 
d="M1315 -410l-336 396q-55 -6 -115 -6q-159 0 -301.5 51t-250.5 143.5t-171 233t-63 309.5t63 309.5t171 233t250.5 143.5t301.5 51q160 0 303 -51t251 -143.5t171.5 -233t63.5 -309.5q0 -209 -92.5 -369t-253.5 -254l442 -504h-434zM1174 1043q-122 124 -310 124
t-309 -124t-121 -326q0 -201 121 -326t309 -125t310 125t122 326q0 202 -122 326z" />
    <glyph glyph-name="R" unicode="R" horiz-adv-x="1515" 
d="M831 1436q64 0 130 -11t142.5 -42.5t134.5 -80t97 -133.5t39 -194q0 -94 -28 -172.5t-76.5 -132.5t-104 -90t-121.5 -60l390 -520h-394l-352 481h-233v-481h-353v1436h729zM455 768h346q86 0 151.5 49.5t65.5 140.5q0 89 -65.5 140t-151.5 51h-346v-381z" />
    <glyph glyph-name="S" unicode="S" horiz-adv-x="1499" 
d="M428 479q0 -95 86 -153t242 -58q315 0 315 127q0 63 -77.5 91t-298.5 67q-50 9 -77 14q-257 46 -372 159t-115 296q0 102 49 185t133 137t193.5 83t232.5 29q136 0 246.5 -26.5t184.5 -71.5t124 -107.5t72.5 -132t22.5 -147.5h-357q0 196 -293 196q-113 0 -182.5 -30
t-69.5 -88q0 -75 64.5 -102.5t312.5 -72.5q74 -13 128 -25t116.5 -31t106 -41t86.5 -54.5t68.5 -71.5t41.5 -92t16 -117q0 -100 -40.5 -183.5t-119.5 -146t-205.5 -97.5t-289.5 -35q-145 0 -263.5 28t-198.5 75t-134.5 111.5t-79 135.5t-24.5 149h356z" />
    <glyph glyph-name="T" unicode="T" horiz-adv-x="1390" 
d="M57 1434h1278v-287h-463v-1147h-352v1147h-463v287z" />
    <glyph glyph-name="U" unicode="U" horiz-adv-x="1533" 
d="M1079 1434h353v-840q0 -313 -166.5 -463.5t-499.5 -150.5t-498.5 150t-165.5 464v840h353v-840q0 -172 74 -250t237 -78t238 78.5t75 249.5v840z" />
    <glyph glyph-name="V" unicode="V" horiz-adv-x="1714" 
d="M682 0l-625 1434h383l418 -1063l418 1063h383l-625 -1434h-352z" />
    <glyph glyph-name="W" unicode="W" horiz-adv-x="2232" 
d="M498 0l-441 1434h357l270 -983l264 983h322l262 -983l270 983h373l-455 -1434h-368l-244 897l-244 -897h-366z" />
    <glyph glyph-name="X" unicode="X" horiz-adv-x="1767" 
d="M57 0l615 745l-541 689h428l336 -469l319 469h428l-514 -689l584 -745h-428l-387 545l-410 -545h-430z" />
    <glyph glyph-name="Y" unicode="Y" horiz-adv-x="1662" 
d="M655 430l-598 1004h406l368 -666l369 666h408l-600 -1004v-430h-353v430z" />
    <glyph glyph-name="Z" unicode="Z" horiz-adv-x="1302" 
d="M1192 1434v-279l-680 -868h733v-287h-1188v279l680 868h-663v287h1118z" />
    <glyph glyph-name="bracketleft" unicode="[" horiz-adv-x="790" 
d="M102 1434h617v-287h-326v-1270h326v-287h-617v1844z" />
    <glyph glyph-name="backslash" unicode="\" horiz-adv-x="864" 
d="M799 0h-281l-450 1434h280z" />
    <glyph glyph-name="bracketright" unicode="]" horiz-adv-x="790" 
d="M702 1434v-1844h-614v287h324v1270h-324v287h614z" />
    <glyph glyph-name="asciicircum" unicode="^" horiz-adv-x="1118" 
d="M92 827l352 607h230l352 -607h-268l-199 383l-197 -383h-270z" />
    <glyph glyph-name="underscore" unicode="_" horiz-adv-x="880" 
d="M92 369h696v-226h-696v226z" />
    <glyph glyph-name="grave" unicode="`" horiz-adv-x="499" 
d="M418 1124h-178l-158 351h213z" />
    <glyph glyph-name="a" unicode="a" horiz-adv-x="1214" 
d="M188 1024h424q127 0 216 -28.5t139.5 -83t73 -125.5t22.5 -166v-195q0 -82 26.5 -112.5t100.5 -30.5h16v-283h-243q-114 0 -158.5 41.5t-52.5 136.5q-72 -198 -310 -198q-180 0 -274 82.5t-94 238.5q0 160 100.5 245t335.5 85h205q-1 44 -12.5 69.5t-45.5 40.5t-96 15
h-373v268zM715 453h-189q-68 0 -99.5 -21.5t-31.5 -75.5q0 -57 35 -77.5t109 -20.5q176 0 176 121v74z" />
    <glyph glyph-name="b" unicode="b" horiz-adv-x="1312" 
d="M1126 897q131 -148 131 -385t-131 -384.5t-348 -147.5q-236 0 -348 182v-162h-348v1434h348v-570q113 180 348 180q217 0 348 -147zM430 446q0 -74 71 -129t163 -55q104 0 172.5 68t68.5 182q0 115 -68.5 182.5t-172.5 67.5q-92 0 -163 -54t-71 -128v-134z" />
    <glyph glyph-name="c" unicode="c" 
d="M410 512q0 -118 58.5 -184t160.5 -66q81 0 132.5 49.5t51.5 116.5h352q0 -81 -29.5 -157t-90 -143t-166.5 -107.5t-244 -40.5q-267 0 -422.5 141.5t-155.5 390.5t155.5 390.5t422.5 141.5q111 0 202.5 -27t151 -71t100.5 -103t58.5 -121t17.5 -126h-352q0 67 -51.5 116.5
t-132.5 49.5q-102 0 -160.5 -65.5t-58.5 -184.5z" />
    <glyph glyph-name="d" unicode="d" horiz-adv-x="1312" 
d="M189 128q-132 148 -132 384t131.5 384t348.5 148q115 0 203.5 -45.5t142.5 -132.5v568h348v-1434h-348v160q-113 -180 -346 -180q-217 0 -348 148zM649 262q92 0 163 55t71 129v134q0 74 -71 128t-163 54q-104 0 -171.5 -67t-67.5 -183q0 -114 67.5 -182t171.5 -68z" />
    <glyph glyph-name="e" unicode="e" 
d="M1165 514v-90h-755q32 -193 208 -193q88 0 141.5 36.5t53.5 94.5h346q-12 -78 -50 -145t-103.5 -121t-169 -85t-234.5 -31q-157 0 -280 62.5t-194 184.5t-71 285t71 285t194 184.5t280 62.5q183 0 312 -70t190 -188t61 -272zM815 598q-13 107 -63.5 151t-133.5 44
q-77 0 -133.5 -47t-74.5 -148h405z" />
    <glyph glyph-name="f" unicode="f" horiz-adv-x="813" 
d="M772 1174h-121q-77 0 -106 -19.5t-29 -87.5v-43h258v-283h-258v-741h-348v741h-125v283h125v109q0 160 88.5 241.5t257.5 81.5h258v-282z" />
    <glyph glyph-name="g" unicode="g" horiz-adv-x="1312" 
d="M223 -127h447q115 0 164 40.5t49 133.5v113q-113 -180 -346 -180q-217 0 -348.5 148t-131.5 384t131.5 384t348.5 148q115 0 203.5 -45.5t142.5 -132.5v158h348v-932q0 -254 -127 -378t-404 -124h-477v283zM649 262q92 0 163 55t71 129v134q0 74 -71 128t-163 54
q-104 0 -171.5 -67t-67.5 -183q0 -114 67.5 -182t171.5 -68z" />
    <glyph glyph-name="h" unicode="h" horiz-adv-x="1247" 
d="M82 1434h348v-594q56 98 150 151t215 53q188 0 279 -107t91 -296v-641h-348v549q0 106 -41 159.5t-145 53.5q-89 0 -145 -58t-56 -161v-543h-348v1434z" />
    <glyph glyph-name="i" unicode="i" horiz-adv-x="501" 
d="M57 1323q0 80 57.5 136.5t141.5 56.5q81 0 138 -56.5t57 -136.5q0 -86 -56.5 -143.5t-138.5 -57.5q-85 0 -142 57.5t-57 143.5zM78 1024h348v-1024h-348v1024z" />
    <glyph glyph-name="j" unicode="j" horiz-adv-x="501" 
d="M51 1323q0 80 58.5 136.5t142.5 56.5q79 0 135.5 -56.5t56.5 -136.5q0 -86 -56 -143.5t-136 -57.5q-85 0 -143 57.5t-58 143.5zM-170 -127h111q76 0 106.5 22.5t30.5 94.5v1034h348v-1112q0 -160 -88.5 -241t-257.5 -81h-250v283z" />
    <glyph glyph-name="k" unicode="k" horiz-adv-x="1263" 
d="M82 1434h348v-775h105l221 365h401l-321 -483l381 -541h-412l-260 408h-115v-408h-348v1434z" />
    <glyph glyph-name="l" unicode="l" horiz-adv-x="583" 
d="M573 283v-283h-217q-146 0 -210 69.5t-64 217.5v1147h348v-1008q0 -82 26.5 -112.5t100.5 -30.5h16z" />
    <glyph glyph-name="m" unicode="m" horiz-adv-x="1867" 
d="M82 1024h348v-172q53 93 136.5 142.5t191.5 49.5q130 0 212 -61.5t115 -173.5q50 112 140.5 173.5t210.5 61.5q175 0 262.5 -107.5t87.5 -295.5v-641h-348v563q0 104 -33.5 151.5t-124.5 47.5q-75 0 -123.5 -51t-48.5 -152v-559h-348v563q0 104 -33.5 151.5t-124.5 47.5
q-75 0 -123.5 -51t-48.5 -152v-559h-348v1024z" />
    <glyph glyph-name="n" unicode="n" horiz-adv-x="1247" 
d="M82 1024h348v-184q56 98 150 151t215 53q188 0 279 -107t91 -296v-641h-348v549q0 106 -41 159.5t-145 53.5q-89 0 -145 -58t-56 -161v-543h-348v1024z" />
    <glyph glyph-name="o" unicode="o" horiz-adv-x="1284" 
d="M348 982q132 62 295 62t295 -62.5t211.5 -185t79.5 -284.5t-79.5 -284.5t-211.5 -185t-295 -62.5t-295 62.5t-211.5 185t-79.5 284.5t79.5 284.5t211.5 185.5zM474 336q63 -74 169 -74t170 73.5t64 176.5t-64 176.5t-170 73.5t-169.5 -73.5t-63.5 -176.5t64 -176z" />
    <glyph glyph-name="p" unicode="p" horiz-adv-x="1312" 
d="M82 1024h348v-160q113 180 348 180q217 0 348 -147.5t131 -384.5t-131 -384.5t-348 -147.5q-236 0 -348 182v-572h-348v1434zM430 446q0 -74 71 -129t163 -55q104 0 172.5 68t68.5 182q0 115 -68.5 182.5t-172.5 67.5q-92 0 -163 -54t-71 -128v-134z" />
    <glyph glyph-name="q" unicode="q" horiz-adv-x="1312" 
d="M1231 1024v-1434h-348v570q-113 -180 -346 -180q-217 0 -348.5 148t-131.5 384t131.5 384t348.5 148q115 0 203.5 -45.5t142.5 -132.5v158h348zM649 262q92 0 163 55t71 129v134q0 74 -71 128t-163 54q-104 0 -171.5 -67t-67.5 -183q0 -114 67.5 -182t171.5 -68z" />
    <glyph glyph-name="r" unicode="r" horiz-adv-x="870" 
d="M82 1024h348v-178q56 91 138 144.5t167 53.5h101v-282h-224q-90 0 -136 -49.5t-46 -159.5v-553h-348v1024z" />
    <glyph glyph-name="s" unicode="s" horiz-adv-x="1165" 
d="M375 346q0 -131 231 -131q95 0 132.5 18t37.5 52t-40 48.5t-201 47.5q-235 48 -343 126.5t-108 205.5q0 86 39.5 151.5t108 104.5t154 58.5t183.5 19.5q107 0 193.5 -21.5t143.5 -57t95.5 -83.5t55 -99t16.5 -106h-317q0 131 -185 131q-153 0 -153 -72q0 -32 41.5 -48
t196.5 -50q45 -10 71 -16q48 -11 74 -17.5t69 -18.5t66.5 -23t55.5 -27.5t50 -36t35.5 -45t25 -57.5t7.5 -70q0 -158 -136 -254t-384 -96q-129 0 -233.5 32t-168 85t-97.5 117t-34 132h318z" />
    <glyph glyph-name="t" unicode="t" horiz-adv-x="835" 
d="M41 1024h133v246h348v-246h273v-283h-273v-342q0 -73 30 -94.5t107 -21.5h136v-283h-275q-168 0 -257 82t-89 242v417h-133v283z" />
    <glyph glyph-name="u" unicode="u" horiz-adv-x="1318" 
d="M1309 283v-283h-217q-120 0 -185 48t-82 147q-56 -102 -152.5 -158.5t-219.5 -56.5q-187 0 -279 108t-92 297v639h348v-547q0 -106 41 -160.5t145 -54.5q89 0 145 58t56 161v543h348v-598q0 -82 26.5 -112.5t100.5 -30.5h17z" />
    <glyph glyph-name="v" unicode="v" horiz-adv-x="1343" 
d="M41 1024h371l260 -629l260 629h371l-472 -1024h-319z" />
    <glyph glyph-name="w" unicode="w" horiz-adv-x="1701" 
d="M41 1024h350l133 -590l162 590h330l162 -590l133 590h350l-307 -1024h-334l-168 645l-168 -645h-336z" />
    <glyph glyph-name="x" unicode="x" horiz-adv-x="1361" 
d="M41 0l414 535l-375 489h401l195 -287l205 287h403l-375 -489l412 -535h-406l-233 326l-233 -326h-408z" />
    <glyph glyph-name="y" unicode="y" horiz-adv-x="1261" 
d="M1221 1024l-428 -1044q-35 -85 -60.5 -135.5t-63.5 -100t-79.5 -74.5t-107.5 -45.5t-149 -27.5t-202 -7v283q96 0 152.5 5.5t89.5 23t46 35.5t30 57l10 24l-418 1006h350l242 -643l237 643h351z" />
    <glyph glyph-name="z" unicode="z" horiz-adv-x="1040" 
d="M963 1024v-244l-457 -497h495v-283h-954v244l459 497h-443v283h900z" />
    <glyph glyph-name="braceleft" unicode="{" horiz-adv-x="931" 
d="M131 662q46 6 74 14.5t52 26t35.5 48.5t18 78t6.5 119q0 116 22 202.5t59.5 140.5t95 87t120.5 45.5t144 12.5h133v-299h-139q-87 0 -116.5 -59.5t-29.5 -235.5q0 -82 -19 -142t-56.5 -96.5t-80.5 -56.5t-102 -33q59 -13 102 -33t80.5 -56.5t56.5 -96.5t19 -142
q0 -176 29.5 -235.5t116.5 -59.5h139v-299h-133q-81 0 -144 12.5t-120.5 46t-95 87.5t-59.5 141t-22 203t-18.5 174.5t-54.5 79.5t-113 31l-49 6v284z" />
    <glyph glyph-name="bar" unicode="|" horiz-adv-x="485" 
d="M102 1434h281v-1844h-281v1844z" />
    <glyph glyph-name="braceright" unicode="}" horiz-adv-x="931" 
d="M801 662l49 -5v-284l-49 -6q-58 -7 -89.5 -19t-56 -42.5t-33 -83t-8.5 -140.5q0 -116 -22 -203t-59.5 -141t-94.5 -87.5t-120 -46t-144 -12.5h-133v299h139q88 0 117 59t29 236q0 82 19 142t56.5 96.5t80.5 56.5t102 33q-59 13 -102 33t-80.5 56.5t-56.5 96.5t-19 142
q0 177 -29 236t-117 59h-139v299h133q81 0 144 -12.5t120 -45.5t94.5 -87t59.5 -140.5t22 -202.5q0 -72 6.5 -119t18 -78t36 -48.5t52.5 -26t74 -14.5z" />
    <glyph glyph-name="asciitilde" unicode="~" horiz-adv-x="1277" 
d="M113 852q74 193 195 230t343 -56q57 -23 89.5 -35t68 -24t54 -12.5t39 1.5t32.5 14.5t23.5 29t23.5 44.5l20 48l187 -76l-19 -47q-39 -99 -84.5 -154t-111 -74.5t-146.5 -5t-196 61.5q-56 22 -88.5 34.5t-67.5 23.5t-54.5 12t-39.5 -1t-32.5 -14t-24.5 -29.5t-23 -44.5
l-20 -49l-187 76z" />
    <glyph glyph-name="exclamdown" unicode="&#xa1;" horiz-adv-x="557" 
d="M88 852q0 83 56 139t139 56q80 0 134 -56t54 -139q0 -80 -54.5 -135t-133.5 -55q-83 0 -139 55t-56 135zM102 -410v506l33 451h289l31 -451v-506h-353z" />
    <glyph glyph-name="cent" unicode="&#xa2;" horiz-adv-x="1251" 
d="M510 1434h287v-402q99 -19 175.5 -65t121 -107t66.5 -127.5t22 -136.5h-353q0 67 -51.5 116.5t-132.5 49.5q-102 0 -160.5 -65.5t-58.5 -184.5q0 -118 58.5 -184t160.5 -66q81 0 132.5 49.5t51.5 116.5h353q0 -69 -22 -135.5t-66.5 -128t-121 -107.5t-175.5 -65v-402
h-287v402q-205 36 -320.5 171.5t-115.5 348.5t115.5 348.5t320.5 171.5v402z" />
    <glyph glyph-name="sterling" unicode="&#xa3;" horiz-adv-x="1390" 
d="M266 1028q0 211 134.5 318.5t369.5 107.5q130 0 230.5 -31t159 -80t96 -117t50.5 -132.5t13 -137.5h-356q0 105 -36.5 158t-131.5 53q-81 0 -126.5 -41.5t-45.5 -130.5v-190h571v-287h-571v-231h696v-287h-1053v518h-205v287h205v223z" />
    <glyph glyph-name="currency" unicode="&#xa4;" horiz-adv-x="1318" 
d="M1225 1171l-254 -253q58 -91 57.5 -197.5t-57.5 -196.5l256 -256l-115 -114l-256 256q-91 -57 -196.5 -57t-196.5 57l-254 -254l-117 114l256 254q-56 90 -56.5 195t56.5 196l-254 256l115 115l254 -254q89 57 195.5 57t195.5 -57l256 254zM518 578q58 -58 141.5 -58
t143.5 58q59 58 59 141t-59 143q-60 58 -143.5 58t-141.5 -58q-60 -60 -60 -143t60 -141z" />
    <glyph glyph-name="yen" unicode="&#xa5;" horiz-adv-x="1662" 
d="M315 578h252l-510 856h406l368 -666l369 666h408l-512 -856h254v-164h-342v-103h342v-164h-342v-147h-353v147h-340v164h340v103h-340v164z" />
    <glyph glyph-name="brokenbar" unicode="&#xa6;" horiz-adv-x="485" 
d="M102 1434h281v-719h-281v719zM102 309h281v-719h-281v719z" />
    <glyph glyph-name="section" unicode="&#xa7;" horiz-adv-x="1576" 
d="M428 -12q0 -95 86 -153t242 -58q315 0 315 127q0 63 -77.5 91t-298.5 67q-50 9 -77 14q-257 46 -372 158.5t-115 295.5q0 165 127 279q-51 89 -51 213q0 102 49 185t133 137t193.5 83t232.5 29q136 0 246.5 -26.5t184.5 -71.5t124 -107.5t72 -132t22 -147.5h-356
q0 196 -293 196q-113 0 -182.5 -30t-69.5 -88q0 -75 64.5 -102.5t312.5 -72.5q74 -13 128 -25t116.5 -31t106 -41t86.5 -54.5t68.5 -71.5t41.5 -92t16 -117q0 -179 -123 -299q47 -77 47 -192q0 -101 -40.5 -184t-119.5 -146t-205.5 -98t-289.5 -35q-145 0 -263.5 28
t-198.5 75.5t-134.5 112t-79 135.5t-24.5 149h356zM512 614q-25 -25 -25 -57q0 -74 64 -101.5t313 -72.5q167 -30 248 -57q35 27 35 69q0 63 -77.5 91t-298.5 67q-50 9 -77 14q-88 15 -182 47z" />
    <glyph glyph-name="dieresis" unicode="&#xa8;" horiz-adv-x="927" 
d="M82 1290q0 65 45.5 109.5t112.5 44.5q64 0 108.5 -44.5t44.5 -109.5q0 -67 -44 -112t-109 -45q-68 0 -113 45t-45 112zM532 1290q0 65 45.5 109.5t112.5 44.5q64 0 109 -45t45 -109q0 -67 -44.5 -112t-109.5 -45q-68 0 -113 45t-45 112z" />
    <glyph glyph-name="copyright" unicode="&#xa9;" horiz-adv-x="1660" 
d="M94 719q0 198 98.5 367.5t268.5 268.5t370 99q149 0 285.5 -58.5t235 -157.5t157 -235t58.5 -284q0 -150 -58.5 -287t-157 -236t-234.5 -157.5t-286 -58.5t-286.5 58.5t-235.5 157.5t-157 236t-58 287zM182 719q0 -176 87 -326t236.5 -237.5t325.5 -87.5q131 0 251 52
t207 139t138.5 207.5t51.5 252.5q0 175 -87 324t-236.5 236t-324.5 87q-176 0 -325.5 -87t-236.5 -236t-87 -324zM645 719q0 -111 57 -164t138 -53q73 0 120.5 42.5t47.5 102.5h178q0 -51 -22 -101t-63.5 -93t-109.5 -70t-151 -27q-161 0 -268 99t-107 264q0 162 107 261
t268 99q83 0 151 -27t109.5 -70.5t63.5 -93.5t22 -100h-178q0 60 -47.5 102t-120.5 42q-81 0 -138 -52t-57 -161z" />
    <glyph glyph-name="ordfeminine" unicode="&#xaa;" horiz-adv-x="737" 
d="M150 1452h212q120 0 165.5 -53.5t45.5 -153.5v-100q0 -40 14 -56t50 -16h8v-141h-108q-60 0 -82 23.5t-25 78.5q-25 -112 -151 -112q-187 0 -187 149q0 87 49.5 127.5t169.5 40.5h103v2q0 39 -15 58.5t-63 19.5h-186v133zM414 1161h-95q-33 0 -49 -13t-16 -44
q0 -36 18 -50t54 -14q34 0 61 22.5t27 59.5v39z" />
    <glyph glyph-name="guillemotleft" unicode="&#xab;" horiz-adv-x="1148" 
d="M82 512l272 477h283l-275 -477l275 -475h-283zM512 512l272 477h283l-274 -477l274 -475h-283z" />
    <glyph glyph-name="logicalnot" unicode="&#xac;" horiz-adv-x="919" 
d="M92 942h735v-491h-280v211h-455v280z" />
    <glyph glyph-name="registered" unicode="&#xae;" horiz-adv-x="1660" 
d="M193 347q-99 169 -99 370t98.5 370.5t267.5 268t369 98.5q150 0 287 -58t235.5 -157t157 -235.5t58.5 -286.5t-58.5 -286.5t-157 -235.5t-235.5 -157t-287 -58q-200 0 -369 98.5t-267 268.5zM269 1043q-87 -150 -87 -326t87 -325.5t236 -236.5t324 -87q132 0 252.5 51.5
t207.5 138.5t138.5 207t51.5 252t-51.5 252t-138.5 207t-207.5 138.5t-252.5 51.5q-175 0 -324 -87t-236 -236zM909 1069q40 0 81.5 -10t85.5 -33t72 -71t28 -115q0 -88 -44.5 -142.5t-113.5 -81.5l188 -251h-200l-168 231h-107v-231h-178v704h356zM731 733h164q42 0 71 26
t29 75q0 48 -29 73t-71 25h-164v-199z" />
    <glyph glyph-name="macron" unicode="&#xaf;" horiz-adv-x="733" 
d="M82 1341h569v-163h-569v163z" />
    <glyph glyph-name="degree" unicode="&#xb0;" horiz-adv-x="718" 
d="M84 1196q0 115 80 196t194 81q116 0 196.5 -80.5t80.5 -196.5q0 -114 -81 -194t-196 -80q-114 0 -194 80t-80 194zM172 1196q0 -76 55 -131t131 -55q78 0 133.5 54.5t55.5 131.5q0 78 -55.5 133t-133.5 55q-77 0 -131.5 -55t-54.5 -133z" />
    <glyph glyph-name="plusminus" unicode="&#xb1;" horiz-adv-x="880" 
d="M92 788h236v236h225v-236h235v-225h-235v-235h-225v235h-236v225zM92 225h696v-225h-696v225z" />
    <glyph glyph-name="twosuperior" unicode="&#xb2;" horiz-adv-x="872" 
d="M117 754l315 272q61 52 82 86t21 74q0 106 -117 106q-67 0 -94 -45.5t-27 -126.5h-213q0 63 16 118.5t51.5 106.5t104 81t162.5 30q51 0 96.5 -8.5t89 -28.5t75 -51t50.5 -80.5t19 -111.5q0 -146 -218 -316l-139 -106h397v-172h-671v172z" />
    <glyph glyph-name="threesuperior" unicode="&#xb3;" horiz-adv-x="860" 
d="M330 938v149h96q96 0 96 101q0 100 -108 100q-57 0 -81 -30.5t-24 -102.5h-213q0 131 80 216t238 85q137 0 225 -63.5t88 -178.5q0 -135 -106 -194q155 -52 155 -197q0 -117 -94.5 -184.5t-243.5 -67.5q-87 0 -156.5 25.5t-111.5 67.5t-64 93t-22 105h213q0 -57 34.5 -90
t100.5 -33q61 0 96 29t35 82q0 44 -30 66t-80 22h-123z" />
    <glyph glyph-name="acute" unicode="&#xb4;" horiz-adv-x="493" 
d="M82 1124l117 351h213l-152 -351h-178z" />
    <glyph glyph-name="paragraph" unicode="&#xb6;" horiz-adv-x="1691" 
d="M614 1436h975v-1846h-321v1577h-217v-1577h-322v809h-115q-39 0 -80.5 4.5t-96.5 19t-104 37.5t-98 63.5t-84 93t-57 130.5t-22 171t22 171t57 130t84 92.5t98 63.5t104 37.5t96.5 19t80.5 4.5zM729 668v499h-115q-32 0 -66 -11t-69.5 -36.5t-58.5 -77.5t-23 -124
t23 -124t58.5 -77.5t69.5 -37t66 -11.5h115z" />
    <glyph glyph-name="periodcentered" unicode="&#xb7;" horiz-adv-x="612" 
d="M102 512q0 84 59.5 142.5t147.5 58.5q83 0 142 -59t59 -142q0 -88 -58.5 -147.5t-142.5 -59.5q-89 0 -148 59t-59 148z" />
    <glyph glyph-name="cedilla" unicode="&#xb8;" horiz-adv-x="602" 
d="M82 -483v170q74 -21 129 -22t86 18t31 57q0 49 -26 59.5t-110 10.5h-8h-14l43 202h145l-32 -104q94 -11 144 -50.5t50 -123.5q0 -66 -28.5 -114.5t-74 -73.5t-104.5 -36.5t-117 -8.5t-114 16z" />
    <glyph glyph-name="onesuperior" unicode="&#xb9;" horiz-adv-x="661" 
d="M430 1434h150v-861h-211v644l-219 -101l-68 158z" />
    <glyph glyph-name="ordmasculine" unicode="&#xba;" horiz-adv-x="749" 
d="M290 1108q32 -37 85 -37t85 36.5t32 88.5t-32 88.5t-85 36.5t-85 -36.5t-32 -88.5t32 -88zM166 1390q83 72 209 72t209.5 -72t83.5 -194q0 -121 -84 -193.5t-209 -72.5t-209 72.5t-84 193.5q0 122 84 194z" />
    <glyph glyph-name="guillemotright" unicode="&#xbb;" horiz-adv-x="1148" 
d="M1067 512l-272 -475h-283l276 475l-276 477h283zM637 512l-272 -475h-283l276 475l-276 477h283z" />
    <glyph glyph-name="onequarter" unicode="&#xbc;" horiz-adv-x="1828" 
d="M475 0l574 1436h219l-574 -1436h-219zM414 1434h149v-861h-211v644l-219 -101l-67 158zM1427 862h209v-495h123v-146h-123v-221h-211v221h-442v129zM1182 367h243v284z" />
    <glyph glyph-name="onehalf" unicode="&#xbd;" horiz-adv-x="1861" 
d="M475 0l574 1436h219l-574 -1436h-219zM414 1434h149v-861h-211v644l-219 -101l-67 158zM1120 172l318 272q61 52 81.5 86t20.5 74q0 58 -34.5 82.5t-82.5 24.5q-69 0 -96 -45t-27 -127h-213q0 49 9 94t33 90t60.5 77.5t96 53t135.5 20.5q52 0 98 -8.5t89.5 -28.5t75 -51
t50.5 -80.5t19 -111.5q0 -145 -217 -315l-137 -107h395v-172h-674v172z" />
    <glyph glyph-name="threequarters" unicode="&#xbe;" horiz-adv-x="1947" 
d="M315 938v149h97q96 0 96 101q0 100 -109 100q-57 0 -80.5 -30.5t-23.5 -102.5h-213q0 131 79.5 216t237.5 85q137 0 225.5 -63.5t88.5 -178.5q0 -134 -107 -194q156 -53 156 -197q0 -117 -94.5 -184.5t-243.5 -67.5q-87 0 -156.5 25.5t-111.5 67.5t-64 93t-22 105h213
q0 -57 34.5 -90t100.5 -33q61 0 96 29t35 82q0 44 -30.5 66t-80.5 22h-123zM594 0l573 1434h219l-573 -1434h-219zM1546 862h209v-495h123v-146h-123v-221h-211v221h-442v129zM1300 367h244v284z" />
    <glyph glyph-name="questiondown" unicode="&#xbf;" horiz-adv-x="1267" 
d="M838 870q0 -80 -56.5 -135t-138.5 -55q-81 0 -135.5 55t-54.5 135q0 83 54 139t136 56t138.5 -56t56.5 -139zM821 567v-41q0 -89 -7.5 -142t-33.5 -94t-60.5 -67t-101.5 -63q-5 -3 -32 -18t-34 -19t-29 -18t-29 -21l-21.5 -21.5t-19.5 -27t-10 -29.5t-5 -35
q0 -57 46 -80.5t134 -23.5q211 0 211 201h357q0 -81 -14.5 -147t-54 -129.5t-103 -106.5t-167 -69t-241.5 -26q-524 0 -524 369q0 130 49 216.5t170 156.5q98 57 133 97t35 114v24h352z" />
    <glyph glyph-name="Agrave" unicode="&#xc0;" horiz-adv-x="1683" 
d="M932 1534h-178l-158 350h213zM666 1436h352l624 -1436h-352l-106 264h-684l-107 -264h-352zM616 551h453l-227 561z" />
    <glyph glyph-name="Aacute" unicode="&#xc1;" horiz-adv-x="1683" 
d="M760 1534l117 350h213l-152 -350h-178zM666 1436h352l624 -1436h-352l-106 264h-684l-107 -264h-352zM616 551h453l-227 561z" />
    <glyph glyph-name="Acircumflex" unicode="&#xc2;" horiz-adv-x="1683" 
d="M483 1540l269 340h186l268 -340h-243l-119 174l-119 -174h-242zM666 1436h352l624 -1436h-352l-106 264h-684l-107 -264h-352zM616 551h453l-227 561z" />
    <glyph glyph-name="Atilde" unicode="&#xc3;" horiz-adv-x="1683" 
d="M842 1767q15 -6 40.5 -16.5t36.5 -15t30 -11.5t27.5 -7.5t22.5 -2t21.5 3t18 11t18.5 18t17 27t18 36.5l155 -53q-22 -61 -49 -104t-53 -67.5t-61 -35t-61 -12.5t-66 8t-63.5 18t-64.5 25q-102 40 -121 44q-47 10 -75 -27q-17 -23 -37 -70l-158 55q21 58 47 100t51.5 67
t58 37t59.5 14.5t63 -4t62 -15t63 -23.5zM666 1436h352l624 -1436h-352l-106 264h-684l-107 -264h-352zM616 551h453l-227 561z" />
    <glyph glyph-name="Adieresis" unicode="&#xc4;" horiz-adv-x="1683" 
d="M461 1700q0 65 45 109t112 44q65 0 109.5 -44.5t44.5 -108.5q0 -67 -44.5 -112.5t-109.5 -45.5q-67 0 -112 45t-45 113zM911 1700q0 65 45.5 109t112.5 44q65 0 109.5 -44.5t44.5 -108.5q0 -67 -44.5 -112.5t-109.5 -45.5q-67 0 -112.5 45t-45.5 113zM666 1436h352
l624 -1436h-352l-106 264h-684l-107 -264h-352zM616 551h453l-227 561z" />
    <glyph glyph-name="Aring" unicode="&#xc5;" horiz-adv-x="1683" 
d="M633 1587q-88 87 -88 209t87.5 209.5t209.5 87.5t209.5 -87.5t87.5 -209.5t-87.5 -209.5t-209.5 -87.5t-209 88zM745 1893q-43 -43 -43 -97t43 -96.5t97 -42.5t96.5 42.5t42.5 96.5t-42.5 96.5t-96.5 42.5t-97 -42zM666 1436h352l624 -1436h-352l-106 264h-684l-107 -264
h-352zM616 551h453l-227 561z" />
    <glyph glyph-name="AE" unicode="&#xc6;" horiz-adv-x="2258" 
d="M666 1434h1525v-287h-718v-277h657v-286h-657v-297h718v-287h-1071v266h-618l-109 -266h-352zM616 553h504v594h-264z" />
    <glyph glyph-name="Ccedilla" unicode="&#xc7;" horiz-adv-x="1622" 
d="M436 717q0 -96 24 -174t63.5 -128.5t93 -85t110 -49t117.5 -14.5q150 0 249 91.5t99 213.5h356q0 -80 -27 -161.5t-84 -158t-137 -136.5t-194.5 -96.5t-247.5 -38.5l-22 -72q94 -11 144 -50.5t50 -123.5q0 -66 -28.5 -114.5t-74 -73.5t-104.5 -36.5t-117 -8.5t-114 16
v170q74 -21 129 -22t86 18t31 57q0 49 -26 59.5t-110 10.5h-8h-14l37 178q-184 25 -327 118.5t-226.5 252t-83.5 358.5q0 168 59.5 307.5t162.5 233t243 145t299 51.5q136 0 253 -36t198 -96t139.5 -137.5t86 -159.5t27.5 -163h-356q0 122 -99 213.5t-249 91.5
q-61 0 -117.5 -14.5t-110 -48t-93 -84t-63.5 -128.5t-24 -175z" />
    <glyph glyph-name="Egrave" unicode="&#xc8;" horiz-adv-x="1241" 
d="M758 1534h-178l-158 350h213zM104 1434h1072v-287h-719v-277h657v-286h-657v-297h719v-287h-1072v1434z" />
    <glyph glyph-name="Eacute" unicode="&#xc9;" horiz-adv-x="1241" 
d="M549 1534l117 350h213l-152 -350h-178zM104 1434h1072v-287h-719v-277h657v-286h-657v-297h719v-287h-1072v1434z" />
    <glyph glyph-name="Ecircumflex" unicode="&#xca;" horiz-adv-x="1241" 
d="M287 1540l268 340h186l269 -340h-244l-119 174l-119 -174h-241zM104 1434h1072v-287h-719v-277h657v-286h-657v-297h719v-287h-1072v1434z" />
    <glyph glyph-name="Edieresis" unicode="&#xcb;" horiz-adv-x="1241" 
d="M264 1700q0 65 45.5 109t112.5 44q64 0 108.5 -44.5t44.5 -108.5q0 -67 -44 -112.5t-109 -45.5q-68 0 -113 45t-45 113zM715 1700q0 65 45 109t112 44q65 0 109.5 -44.5t44.5 -108.5q0 -67 -44.5 -112.5t-109.5 -45.5q-67 0 -112 45t-45 113zM104 1434h1072v-287h-719
v-277h657v-286h-657v-297h719v-287h-1072v1434z" />
    <glyph glyph-name="Igrave" unicode="&#xcc;" horiz-adv-x="557" 
d="M367 1534h-179l-157 350h213zM102 1434h353v-1434h-353v1434z" />
    <glyph glyph-name="Iacute" unicode="&#xcd;" horiz-adv-x="557" 
d="M195 1534l116 350h213l-151 -350h-178zM102 1434h353v-1434h-353v1434z" />
    <glyph glyph-name="Icircumflex" unicode="&#xce;" horiz-adv-x="557" 
d="M-82 1540l268 340h187l268 -340h-244l-118 174l-119 -174h-242zM102 1434h353v-1434h-353v1434z" />
    <glyph glyph-name="Idieresis" unicode="&#xcf;" horiz-adv-x="557" 
d="M-104 1700q0 65 45 109t112 44q65 0 109.5 -44.5t44.5 -108.5q0 -67 -44.5 -112.5t-109.5 -45.5q-67 0 -112 45t-45 113zM346 1700q0 65 45.5 109t112.5 44q64 0 108.5 -44.5t44.5 -108.5q0 -67 -44 -112.5t-109 -45.5q-68 0 -113 45t-45 113zM102 1434h353v-1434h-353
v1434z" />
    <glyph glyph-name="Eth" unicode="&#xd0;" horiz-adv-x="1589" 
d="M-57 829h159v605h621q167 0 310 -47.5t249.5 -136.5t167.5 -226t61 -307t-61 -307t-167.5 -226t-249.5 -136.5t-310 -47.5h-621v604h-159v225zM455 287h268q203 0 317.5 108.5t114.5 321.5t-114.5 321.5t-317.5 108.5h-268v-318h282v-225h-282v-317z" />
    <glyph glyph-name="Ntilde" unicode="&#xd1;" horiz-adv-x="1671" 
d="M836 1767q16 -6 41 -16.5t36 -15t29.5 -11.5t27 -7.5t22.5 -2t21.5 3t18 11t18.5 18t17 27t18 36.5l156 -53q-22 -61 -49 -104t-53 -67.5t-61 -35t-61 -12.5t-66 8t-63.5 18t-64.5 25q-102 40 -121 44q-47 10 -75 -27q-17 -23 -37 -70l-158 55q21 58 47 100t51.5 67
t58 37t59.5 14.5t63 -4t62 -15t63 -23.5zM102 1434h353l762 -949v949h352v-1434h-352l-762 922v-922h-353v1434z" />
    <glyph glyph-name="Ograve" unicode="&#xd2;" horiz-adv-x="1728" 
d="M956 1534h-178l-157 350h213zM143 408q-63 140 -63 309t63 309.5t171 233t250.5 143.5t301.5 51q160 0 303 -51t251 -143.5t171.5 -233t63.5 -309.5t-63.5 -309.5t-171.5 -233t-251 -143.5t-303 -51q-159 0 -301.5 51t-250.5 143.5t-171 233.5zM1176 1043
q-122 124 -310 124t-309 -124t-121 -326q0 -201 121 -326t309 -125t310 125t122 326q0 202 -122 326z" />
    <glyph glyph-name="Oacute" unicode="&#xd3;" horiz-adv-x="1728" 
d="M776 1534l117 350h213l-152 -350h-178zM143 408q-63 140 -63 309t63 309.5t171 233t250.5 143.5t301.5 51q160 0 303 -51t251 -143.5t171.5 -233t63.5 -309.5t-63.5 -309.5t-171.5 -233t-251 -143.5t-303 -51q-159 0 -301.5 51t-250.5 143.5t-171 233.5zM1176 1043
q-122 124 -310 124t-309 -124t-121 -326q0 -201 121 -326t309 -125t310 125t122 326q0 202 -122 326z" />
    <glyph glyph-name="Ocircumflex" unicode="&#xd4;" horiz-adv-x="1728" 
d="M506 1540l268 340h187l268 -340h-244l-119 174l-118 -174h-242zM143 408q-63 140 -63 309t63 309.5t171 233t250.5 143.5t301.5 51q160 0 303 -51t251 -143.5t171.5 -233t63.5 -309.5t-63.5 -309.5t-171.5 -233t-251 -143.5t-303 -51q-159 0 -301.5 51t-250.5 143.5
t-171 233.5zM1176 1043q-122 124 -310 124t-309 -124t-121 -326q0 -201 121 -326t309 -125t310 125t122 326q0 202 -122 326z" />
    <glyph glyph-name="Otilde" unicode="&#xd5;" horiz-adv-x="1728" 
d="M864 1767q15 -6 40.5 -16.5t36.5 -15t30 -11.5t27.5 -7.5t22.5 -2t21.5 3t18 11t18.5 18t17 27t18 36.5l156 -53q-22 -61 -49 -104t-53 -67.5t-61 -35t-61 -12.5t-66 8t-63.5 18t-64.5 25q-12 5 -33 13q-32 13 -46 18t-35.5 11.5t-31 4.5t-23.5 -6.5t-23 -17t-20 -30.5
t-22 -46l-157 55q21 58 47 100t51.5 67t57.5 37t59 14.5t63 -4t62 -15t63 -23.5zM143 408q-63 140 -63 309t63 309.5t171 233t250.5 143.5t301.5 51q160 0 303 -51t251 -143.5t171.5 -233t63.5 -309.5t-63.5 -309.5t-171.5 -233t-251 -143.5t-303 -51q-159 0 -301.5 51
t-250.5 143.5t-171 233.5zM1176 1043q-122 124 -310 124t-309 -124t-121 -326q0 -201 121 -326t309 -125t310 125t122 326q0 202 -122 326z" />
    <glyph glyph-name="Odieresis" unicode="&#xd6;" horiz-adv-x="1728" 
d="M483 1700q0 65 45.5 109t112.5 44q65 0 109.5 -44.5t44.5 -108.5q0 -67 -44.5 -112.5t-109.5 -45.5q-67 0 -112.5 45t-45.5 113zM934 1700q0 65 45.5 109t112.5 44q64 0 108.5 -44.5t44.5 -108.5q0 -67 -44 -112.5t-109 -45.5q-68 0 -113 45t-45 113zM143 408
q-63 140 -63 309t63 309.5t171 233t250.5 143.5t301.5 51q160 0 303 -51t251 -143.5t171.5 -233t63.5 -309.5t-63.5 -309.5t-171.5 -233t-251 -143.5t-303 -51q-159 0 -301.5 51t-250.5 143.5t-171 233.5zM1176 1043q-122 124 -310 124t-309 -124t-121 -326q0 -201 121 -326
t309 -125t310 125t122 326q0 202 -122 326z" />
    <glyph glyph-name="multiply" unicode="&#xd7;" horiz-adv-x="837" 
d="M92 322l168 165l-168 168l160 158l166 -166l168 166l157 -158l-165 -168l165 -165l-157 -160l-168 168l-166 -168z" />
    <glyph glyph-name="Oslash" unicode="&#xd8;" horiz-adv-x="1728" 
d="M434 -205l80 254q-200 85 -318 257.5t-118 410.5q0 169 63 309.5t171 233t250.5 143.5t301.5 51q32 0 90 -4l60 188h280l-80 -252q200 -85 319.5 -258t119.5 -411q0 -169 -63.5 -309.5t-171.5 -233t-251 -143.5t-303 -51q-32 0 -90 4l-59 -189h-281zM434 717
q0 -120 46 -215.5t128 -155.5l258 821q-189 0 -310.5 -124t-121.5 -326zM862 266q189 0 311.5 125t122.5 326q0 121 -45.5 217.5t-128.5 155.5z" />
    <glyph glyph-name="Ugrave" unicode="&#xd9;" horiz-adv-x="1533" 
d="M864 1534h-178l-158 350h213zM1079 1434h353v-840q0 -313 -166.5 -463.5t-499.5 -150.5t-498.5 150t-165.5 464v840h353v-840q0 -172 74 -250t237 -78t238 78.5t75 249.5v840z" />
    <glyph glyph-name="Uacute" unicode="&#xda;" horiz-adv-x="1533" 
d="M680 1534l117 350h213l-152 -350h-178zM1079 1434h353v-840q0 -313 -166.5 -463.5t-499.5 -150.5t-498.5 150t-165.5 464v840h353v-840q0 -172 74 -250t237 -78t238 78.5t75 249.5v840z" />
    <glyph glyph-name="Ucircumflex" unicode="&#xdb;" horiz-adv-x="1533" 
d="M408 1540l268 340h186l268 -340h-243l-119 174l-119 -174h-241zM1079 1434h353v-840q0 -313 -166.5 -463.5t-499.5 -150.5t-498.5 150t-165.5 464v840h353v-840q0 -172 74 -250t237 -78t238 78.5t75 249.5v840z" />
    <glyph glyph-name="Udieresis" unicode="&#xdc;" horiz-adv-x="1533" 
d="M385 1700q0 65 45.5 109t112.5 44q65 0 109 -44.5t44 -108.5q0 -67 -44 -112.5t-109 -45.5q-67 0 -112.5 45t-45.5 113zM836 1700q0 65 45 109t112 44q65 0 109.5 -44.5t44.5 -108.5q0 -67 -44.5 -112.5t-109.5 -45.5q-67 0 -112 45t-45 113zM1079 1434h353v-840
q0 -313 -166.5 -463.5t-499.5 -150.5t-498.5 150t-165.5 464v840h353v-840q0 -172 74 -250t237 -78t238 78.5t75 249.5v840z" />
    <glyph glyph-name="Yacute" unicode="&#xdd;" horiz-adv-x="1662" 
d="M750 1534l116 350h213l-151 -350h-178zM655 430l-598 1004h406l368 -666l369 666h408l-600 -1004v-430h-353v430z" />
    <glyph glyph-name="Thorn" unicode="&#xde;" horiz-adv-x="1404" 
d="M784 1204q39 0 81 -4.5t96.5 -18.5t103.5 -35.5t98 -59.5t84.5 -87t57.5 -121t22 -159t-22 -159.5t-57.5 -122t-84.5 -87.5t-98 -60t-103.5 -36t-96.5 -18.5t-81 -4.5h-329v-229h-353v1434h353v-232h329zM455 518h299q37 0 72.5 10t69.5 31.5t54.5 63t20.5 96.5
q0 54 -21 94.5t-54.5 62.5t-69 32t-72.5 10h-299v-400z" />
    <glyph glyph-name="germandbls" unicode="&#xdf;" horiz-adv-x="1294" 
d="M72 956q0 237 139 367.5t401 130.5q158 0 279.5 -44.5t193.5 -137.5t72 -223q0 -108 -48 -189.5t-134 -128.5q122 -40 192 -122.5t70 -207.5q0 -201 -162.5 -310t-468.5 -109v270q146 0 214.5 46.5t68.5 139.5q0 84 -51.5 127t-137.5 43h-92v221h45q170 0 170 172
q0 94 -55.5 138.5t-149.5 44.5q-98 0 -148 -54.5t-50 -173.5v-956h-348v956z" />
    <glyph glyph-name="agrave" unicode="&#xe0;" horiz-adv-x="1185" 
d="M731 1124h-178l-158 351h213zM188 1024h424q127 0 216 -28.5t139.5 -83t73 -125.5t22.5 -166v-195q0 -82 26.5 -112.5t100.5 -30.5h16v-283h-243q-114 0 -158.5 41.5t-52.5 136.5q-72 -198 -310 -198q-180 0 -274 82.5t-94 238.5q0 160 100.5 245t335.5 85h205
q-1 44 -12.5 69.5t-45.5 40.5t-96 15h-373v268zM715 453h-189q-68 0 -99.5 -21.5t-31.5 -75.5q0 -57 35 -77.5t109 -20.5q176 0 176 121v74z" />
    <glyph glyph-name="aacute" unicode="&#xe1;" horiz-adv-x="1185" 
d="M475 1124l117 351h213l-152 -351h-178zM188 1024h424q127 0 216 -28.5t139.5 -83t73 -125.5t22.5 -166v-195q0 -82 26.5 -112.5t100.5 -30.5h16v-283h-243q-114 0 -158.5 41.5t-52.5 136.5q-72 -198 -310 -198q-180 0 -274 82.5t-94 238.5q0 160 100.5 245t335.5 85h205
q-1 44 -12.5 69.5t-45.5 40.5t-96 15h-373v268zM715 453h-189q-68 0 -99.5 -21.5t-31.5 -75.5q0 -57 35 -77.5t109 -20.5q176 0 176 121v74z" />
    <glyph glyph-name="acircumflex" unicode="&#xe2;" horiz-adv-x="1185" 
d="M233 1130l269 340h186l268 -340h-243l-119 175l-119 -175h-242zM188 1024h424q127 0 216 -28.5t139.5 -83t73 -125.5t22.5 -166v-195q0 -82 26.5 -112.5t100.5 -30.5h16v-283h-243q-114 0 -158.5 41.5t-52.5 136.5q-72 -198 -310 -198q-180 0 -274 82.5t-94 238.5
q0 160 100.5 245t335.5 85h205q-1 44 -12.5 69.5t-45.5 40.5t-96 15h-373v268zM715 453h-189q-68 0 -99.5 -21.5t-31.5 -75.5q0 -57 35 -77.5t109 -20.5q176 0 176 121v74z" />
    <glyph glyph-name="atilde" unicode="&#xe3;" horiz-adv-x="1185" 
d="M592 1358q15 -6 40.5 -16.5t36.5 -15t30 -11.5t27.5 -7.5t22.5 -2t21.5 3t18 11t18.5 18t17 27t18 36.5l155 -53q-17 -47 -37.5 -84t-40 -61.5t-44.5 -40t-45.5 -24t-49.5 -8.5t-49 2.5t-51.5 12t-49.5 16t-50 19.5q-102 40 -123 44q-47 9 -75 -29q-17 -22 -36 -69
l-158 56q21 58 47 100t51.5 67t58 37t59.5 14.5t63 -4t62 -15t63 -23.5zM188 1024h424q127 0 216 -28.5t139.5 -83t73 -125.5t22.5 -166v-195q0 -82 26.5 -112.5t100.5 -30.5h16v-283h-243q-114 0 -158.5 41.5t-52.5 136.5q-72 -198 -310 -198q-180 0 -274 82.5t-94 238.5
q0 160 100.5 245t335.5 85h205q-1 44 -12.5 69.5t-45.5 40.5t-96 15h-373v268zM715 453h-189q-68 0 -99.5 -21.5t-31.5 -75.5q0 -57 35 -77.5t109 -20.5q176 0 176 121v74z" />
    <glyph glyph-name="adieresis" unicode="&#xe4;" horiz-adv-x="1185" 
d="M211 1290q0 65 45.5 109.5t112.5 44.5q64 0 108.5 -44.5t44.5 -109.5q0 -67 -44 -112t-109 -45q-68 0 -113 45t-45 112zM662 1290q0 65 45 109.5t112 44.5q65 0 109.5 -45t44.5 -109q0 -67 -44.5 -112t-109.5 -45q-67 0 -112 44.5t-45 112.5zM188 1024h424
q127 0 216 -28.5t139.5 -83t73 -125.5t22.5 -166v-195q0 -82 26.5 -112.5t100.5 -30.5h16v-283h-243q-114 0 -158.5 41.5t-52.5 136.5q-72 -198 -310 -198q-180 0 -274 82.5t-94 238.5q0 160 100.5 245t335.5 85h205q-1 44 -12.5 69.5t-45.5 40.5t-96 15h-373v268zM715 453
h-189q-68 0 -99.5 -21.5t-31.5 -75.5q0 -57 35 -77.5t109 -20.5q176 0 176 121v74z" />
    <glyph glyph-name="aring" unicode="&#xe5;" horiz-adv-x="1185" 
d="M295 1386q0 122 87.5 209.5t209.5 87.5t209.5 -87.5t87.5 -209.5q0 -121 -87.5 -208.5t-209.5 -87.5t-209.5 87.5t-87.5 208.5zM496 1483q-43 -43 -43 -97t42.5 -96.5t96.5 -42.5t96.5 42.5t42.5 96.5t-42.5 97t-96.5 43t-96 -43zM188 1024h424q127 0 216 -28.5
t139.5 -83t73 -125.5t22.5 -166v-195q0 -82 26.5 -112.5t100.5 -30.5h16v-283h-243q-114 0 -158.5 41.5t-52.5 136.5q-72 -198 -310 -198q-180 0 -274 82.5t-94 238.5q0 160 100.5 245t335.5 85h205q-1 44 -12.5 69.5t-45.5 40.5t-96 15h-373v268zM715 453h-189
q-68 0 -99.5 -21.5t-31.5 -75.5q0 -57 35 -77.5t109 -20.5q176 0 176 121v74z" />
    <glyph glyph-name="ae" unicode="&#xe6;" horiz-adv-x="1861" 
d="M174 1024h424q202 0 311 -76q137 96 334 96q183 0 312 -70t190 -188t61 -272v-90h-755q32 -193 209 -193q88 0 141 36.5t53 94.5h346q-12 -78 -50 -145t-103.5 -121t-169 -85t-234.5 -31q-148 0 -265.5 57.5t-186.5 163.5q-44 -101 -135 -161t-228 -60
q-180 0 -274.5 82.5t-94.5 238.5q0 160 101 245t336 85h204q-2 67 -32.5 96t-120.5 29h-373v268zM1456 598q-13 107 -63 151t-133 44q-77 0 -134 -47t-75 -148h405zM700 453h-188q-68 0 -99.5 -21.5t-31.5 -75.5q0 -57 34.5 -77.5t108.5 -20.5q176 0 176 121v74z" />
    <glyph glyph-name="ccedilla" unicode="&#xe7;" 
d="M410 512q0 -118 58.5 -184t160.5 -66q81 0 132.5 49.5t51.5 116.5h352q0 -62 -16.5 -122t-55 -117.5t-94.5 -102t-140.5 -73.5t-188.5 -33l-25 -78q94 -11 144.5 -50.5t50.5 -123.5q0 -66 -28.5 -114.5t-74.5 -73.5t-105 -36.5t-117 -8.5t-114 16v170q74 -21 129 -22
t86 18t31 57q0 21 -5.5 34t-12 20.5t-26.5 10.5t-35 3.5t-52 0.5h-12h-15l39 183q-220 28 -345.5 166t-125.5 360q0 249 155.5 390.5t422.5 141.5q111 0 202.5 -27t151 -71t100.5 -103t58.5 -121t17.5 -126h-352q0 67 -51.5 116.5t-132.5 49.5q-102 0 -160.5 -65.5
t-58.5 -184.5z" />
    <glyph glyph-name="egrave" unicode="&#xe8;" 
d="M702 1124h-178l-157 351h213zM1165 514v-90h-755q32 -193 208 -193q88 0 141.5 36.5t53.5 94.5h346q-12 -78 -50 -145t-103.5 -121t-169 -85t-234.5 -31q-157 0 -280 62.5t-194 184.5t-71 285t71 285t194 184.5t280 62.5q183 0 312 -70t190 -188t61 -272zM815 598
q-13 107 -63.5 151t-133.5 44q-77 0 -133.5 -47t-74.5 -148h405z" />
    <glyph glyph-name="eacute" unicode="&#xe9;" 
d="M528 1124l117 351h213l-151 -351h-179zM1165 514v-90h-755q32 -193 208 -193q88 0 141.5 36.5t53.5 94.5h346q-12 -78 -50 -145t-103.5 -121t-169 -85t-234.5 -31q-157 0 -280 62.5t-194 184.5t-71 285t71 285t194 184.5t280 62.5q183 0 312 -70t190 -188t61 -272z
M815 598q-13 107 -63.5 151t-133.5 44q-77 0 -133.5 -47t-74.5 -148h405z" />
    <glyph glyph-name="ecircumflex" unicode="&#xea;" 
d="M252 1130l268 340h187l268 -340h-244l-119 175l-118 -175h-242zM1165 514v-90h-755q32 -193 208 -193q88 0 141.5 36.5t53.5 94.5h346q-12 -78 -50 -145t-103.5 -121t-169 -85t-234.5 -31q-157 0 -280 62.5t-194 184.5t-71 285t71 285t194 184.5t280 62.5q183 0 312 -70
t190 -188t61 -272zM815 598q-13 107 -63.5 151t-133.5 44q-77 0 -133.5 -47t-74.5 -148h405z" />
    <glyph glyph-name="edieresis" unicode="&#xeb;" 
d="M229 1290q0 65 45.5 109.5t112.5 44.5q65 0 109.5 -45t44.5 -109q0 -67 -44.5 -112t-109.5 -45q-68 0 -113 45t-45 112zM680 1290q0 65 45.5 109.5t112.5 44.5q64 0 108.5 -44.5t44.5 -109.5q0 -67 -44 -112t-109 -45q-68 0 -113 45t-45 112zM1165 514v-90h-755
q32 -193 208 -193q88 0 141.5 36.5t53.5 94.5h346q-12 -78 -50 -145t-103.5 -121t-169 -85t-234.5 -31q-157 0 -280 62.5t-194 184.5t-71 285t71 285t194 184.5t280 62.5q183 0 312 -70t190 -188t61 -272zM815 598q-13 107 -63.5 151t-133.5 44q-77 0 -133.5 -47t-74.5 -148
h405z" />
    <glyph glyph-name="igrave" unicode="&#xec;" horiz-adv-x="501" 
d="M340 1124h-178l-158 351h213zM78 1024h348v-1024h-348v1024z" />
    <glyph glyph-name="iacute" unicode="&#xed;" horiz-adv-x="501" 
d="M166 1124l117 351h213l-152 -351h-178zM78 1024h348v-1024h-348v1024z" />
    <glyph glyph-name="icircumflex" unicode="&#xee;" horiz-adv-x="501" 
d="M-109 1130l269 340h186l268 -340h-243l-119 175l-119 -175h-242zM78 1024h348v-1024h-348v1024z" />
    <glyph glyph-name="idieresis" unicode="&#xef;" horiz-adv-x="501" 
d="M-131 1290q0 65 45.5 109.5t112.5 44.5q64 0 108.5 -44.5t44.5 -109.5q0 -67 -44 -112t-109 -45q-68 0 -113 45t-45 112zM319 1290q0 65 45.5 109.5t112.5 44.5q65 0 109.5 -45t44.5 -109q0 -67 -44.5 -112t-109.5 -45q-68 0 -113 45t-45 112zM78 1024h348v-1024h-348
v1024z" />
    <glyph glyph-name="eth" unicode="&#xf0;" horiz-adv-x="1312" 
d="M643 1434l145 -199h367v-160h-248l234 -317q96 -127 96 -283q0 -222 -164 -358.5t-414 -136.5q-158 0 -289.5 60t-211.5 174.5t-80 260.5q0 131 65.5 237.5t175 169.5t246.5 81l-84 112h-331v160h210l-149 199h432zM659 266q92 0 157 58.5t65 150.5q0 90 -65.5 149.5
t-156.5 59.5q-93 0 -159 -59.5t-66 -149.5q0 -92 66 -150.5t159 -58.5z" />
    <glyph glyph-name="ntilde" unicode="&#xf1;" horiz-adv-x="1247" 
d="M623 1358q16 -6 41 -16.5t36 -15t29.5 -11.5t27 -7.5t22.5 -2t21.5 3t18 11t18.5 18t17 27t18 36.5l156 -53q-22 -61 -49 -104t-53 -67.5t-61 -35t-61 -12.5t-66 8t-63.5 18t-64.5 25q-102 40 -122 44q-47 9 -75 -29q-17 -23 -36 -69l-158 56q21 58 47 100t51.5 67t58 37
t59.5 14.5t63 -4t62 -15t63 -23.5zM82 1024h348v-184q56 98 150 151t215 53q188 0 279 -107t91 -296v-641h-348v549q0 106 -41 159.5t-145 53.5q-89 0 -145 -58t-56 -161v-543h-348v1024z" />
    <glyph glyph-name="ograve" unicode="&#xf2;" horiz-adv-x="1284" 
d="M733 1124h-178l-158 351h213zM474 336q63 -74 169 -74t170 73.5t64 176.5t-64 176.5t-170 73.5t-169.5 -73.5t-63.5 -176.5t64 -176zM348 982q132 62 295 62t295 -62.5t211.5 -185t79.5 -284.5t-79.5 -284.5t-211.5 -185t-295 -62.5t-295 62.5t-211.5 185t-79.5 284.5
t79.5 284.5t211.5 185.5z" />
    <glyph glyph-name="oacute" unicode="&#xf3;" horiz-adv-x="1284" 
d="M555 1124l117 351h213l-152 -351h-178zM474 336q63 -74 169 -74t170 73.5t64 176.5t-64 176.5t-170 73.5t-169.5 -73.5t-63.5 -176.5t64 -176zM348 982q132 62 295 62t295 -62.5t211.5 -185t79.5 -284.5t-79.5 -284.5t-211.5 -185t-295 -62.5t-295 62.5t-211.5 185
t-79.5 284.5t79.5 284.5t211.5 185.5z" />
    <glyph glyph-name="ocircumflex" unicode="&#xf4;" horiz-adv-x="1284" 
d="M283 1130l268 340h186l269 -340h-244l-119 175l-119 -175h-241zM474 336q63 -74 169 -74t170 73.5t64 176.5t-64 176.5t-170 73.5t-169.5 -73.5t-63.5 -176.5t64 -176zM348 982q132 62 295 62t295 -62.5t211.5 -185t79.5 -284.5t-79.5 -284.5t-211.5 -185t-295 -62.5
t-295 62.5t-211.5 185t-79.5 284.5t79.5 284.5t211.5 185.5z" />
    <glyph glyph-name="otilde" unicode="&#xf5;" horiz-adv-x="1284" 
d="M641 1358q15 -6 40.5 -16.5t36.5 -15t30 -11.5t27.5 -7.5t22.5 -2t21.5 3t18 11t18.5 18t17 27t18 36.5l156 -53q-22 -61 -49 -104t-53 -67.5t-61 -35t-61 -12.5t-66 8t-63.5 18t-64.5 25q-102 40 -123 44q-47 9 -75 -29q-17 -22 -36 -69l-157 56q21 58 47 100t51.5 67
t57.5 37t59 14.5t63 -4t62 -15t63 -23.5zM474 336q63 -74 169 -74t170 73.5t64 176.5t-64 176.5t-170 73.5t-169.5 -73.5t-63.5 -176.5t64 -176zM348 982q132 62 295 62t295 -62.5t211.5 -185t79.5 -284.5t-79.5 -284.5t-211.5 -185t-295 -62.5t-295 62.5t-211.5 185
t-79.5 284.5t79.5 284.5t211.5 185.5z" />
    <glyph glyph-name="odieresis" unicode="&#xf6;" horiz-adv-x="1284" 
d="M260 1290q0 65 45.5 109.5t112.5 44.5q64 0 108.5 -44.5t44.5 -109.5q0 -67 -44 -112t-109 -45q-68 0 -113 45t-45 112zM711 1290q0 65 45 109.5t112 44.5q64 0 109 -45t45 -109q0 -67 -44.5 -112t-109.5 -45q-68 0 -112.5 44.5t-44.5 112.5zM474 336q63 -74 169 -74
t170 73.5t64 176.5t-64 176.5t-170 73.5t-169.5 -73.5t-63.5 -176.5t64 -176zM348 982q132 62 295 62t295 -62.5t211.5 -185t79.5 -284.5t-79.5 -284.5t-211.5 -185t-295 -62.5t-295 62.5t-211.5 185t-79.5 284.5t79.5 284.5t211.5 185.5z" />
    <glyph glyph-name="divide" unicode="&#xf7;" horiz-adv-x="798" 
d="M188 1028q0 84 59.5 142.5t147.5 58.5q83 0 142 -59t59 -142q0 -88 -58.5 -147.5t-142.5 -59.5q-89 0 -148 59t-59 148zM92 717h615v-225h-615v225zM188 186q0 84 59.5 142.5t147.5 58.5q83 0 142 -59t59 -142q0 -88 -58.5 -147t-142.5 -59q-89 0 -148 58.5t-59 147.5z
" />
    <glyph glyph-name="oslash" unicode="&#xf8;" horiz-adv-x="1314" 
d="M657 1044h27l59 185h281l-78 -246q138 -63 217.5 -185t79.5 -286q0 -162 -79.5 -284.5t-211.5 -185t-295 -62.5h-26l-58 -185h-280l76 244q-137 63 -217 185.5t-80 287.5q0 162 79 284.5t211 185t295 62.5zM488 336q63 -74 169 -74t170 73.5t64 176.5t-64 176.5
t-170 73.5t-169.5 -73.5t-63.5 -176.5t64 -176z" />
    <glyph glyph-name="ugrave" unicode="&#xf9;" horiz-adv-x="1318" 
d="M717 1124h-178l-158 351h213zM1309 283v-283h-217q-120 0 -185 48t-82 147q-56 -102 -152.5 -158.5t-219.5 -56.5q-187 0 -279 108t-92 297v639h348v-547q0 -106 41 -160.5t145 -54.5q89 0 145 58t56 161v543h348v-598q0 -82 26.5 -112.5t100.5 -30.5h17z" />
    <glyph glyph-name="uacute" unicode="&#xfa;" horiz-adv-x="1318" 
d="M530 1124l117 351h213l-151 -351h-179zM1309 283v-283h-217q-120 0 -185 48t-82 147q-56 -102 -152.5 -158.5t-219.5 -56.5q-187 0 -279 108t-92 297v639h348v-547q0 -106 41 -160.5t145 -54.5q89 0 145 58t56 161v543h348v-598q0 -82 26.5 -112.5t100.5 -30.5h17z" />
    <glyph glyph-name="ucircumflex" unicode="&#xfb;" horiz-adv-x="1318" 
d="M268 1130l269 340h186l268 -340h-243l-119 175l-119 -175h-242zM1309 283v-283h-217q-120 0 -185 48t-82 147q-56 -102 -152.5 -158.5t-219.5 -56.5q-187 0 -279 108t-92 297v639h348v-547q0 -106 41 -160.5t145 -54.5q89 0 145 58t56 161v543h348v-598
q0 -82 26.5 -112.5t100.5 -30.5h17z" />
    <glyph glyph-name="udieresis" unicode="&#xfc;" horiz-adv-x="1318" 
d="M244 1290q0 65 45 109.5t112 44.5q65 0 109.5 -45t44.5 -109q0 -67 -44.5 -112t-109.5 -45q-67 0 -112 44.5t-45 112.5zM694 1290q0 65 45.5 109.5t112.5 44.5q64 0 109 -45t45 -109q0 -67 -44.5 -112t-109.5 -45q-68 0 -113 45t-45 112zM1309 283v-283h-217
q-120 0 -185 48t-82 147q-56 -102 -152.5 -158.5t-219.5 -56.5q-187 0 -279 108t-92 297v639h348v-547q0 -106 41 -160.5t145 -54.5q89 0 145 58t56 161v543h348v-598q0 -82 26.5 -112.5t100.5 -30.5h17z" />
    <glyph glyph-name="yacute" unicode="&#xfd;" horiz-adv-x="1261" 
d="M549 1124l117 351h213l-152 -351h-178zM1221 1024l-428 -1044q-35 -85 -60.5 -135.5t-63.5 -100t-79.5 -74.5t-107.5 -45.5t-149 -27.5t-202 -7v283q96 0 152.5 5.5t89.5 23t46 35.5t30 57l10 24l-418 1006h350l242 -643l237 643h351z" />
    <glyph glyph-name="thorn" unicode="&#xfe;" horiz-adv-x="1312" 
d="M1126 897q131 -148 131 -385t-131 -384.5t-348 -147.5q-236 0 -348 182v-572h-348v1844h348v-570q113 180 348 180q217 0 348 -147zM430 446q0 -74 71 -129t163 -55q104 0 172.5 68t68.5 182q0 115 -68.5 182.5t-172.5 67.5q-92 0 -163 -54t-71 -128v-134z" />
    <glyph glyph-name="ydieresis" unicode="&#xff;" horiz-adv-x="1261" 
d="M250 1290q0 65 45.5 109.5t112.5 44.5q64 0 108.5 -44.5t44.5 -109.5q0 -67 -44 -112t-109 -45q-68 0 -113 45t-45 112zM700 1290q0 65 45.5 109.5t112.5 44.5q64 0 109 -45t45 -109q0 -67 -44.5 -112t-109.5 -45q-68 0 -113 45t-45 112zM1221 1024l-428 -1044
q-35 -85 -60.5 -135.5t-63.5 -100t-79.5 -74.5t-107.5 -45.5t-149 -27.5t-202 -7v283q96 0 152.5 5.5t89.5 23t46 35.5t30 57l10 24l-418 1006h350l242 -643l237 643h351z" />
    <glyph glyph-name="Amacron" unicode="&#x100;" horiz-adv-x="1683" 
d="M557 1751h569v-164h-569v164zM666 1436h352l624 -1436h-352l-106 264h-684l-107 -264h-352zM616 551h453l-227 561z" />
    <glyph glyph-name="amacron" unicode="&#x101;" horiz-adv-x="1185" 
d="M309 1341h570v-163h-570v163zM188 1024h424q127 0 216 -28.5t139.5 -83t73 -125.5t22.5 -166v-195q0 -82 26.5 -112.5t100.5 -30.5h16v-283h-243q-114 0 -158.5 41.5t-52.5 136.5q-72 -198 -310 -198q-180 0 -274 82.5t-94 238.5q0 160 100.5 245t335.5 85h205
q-1 44 -12.5 69.5t-45.5 40.5t-96 15h-373v268zM715 453h-189q-68 0 -99.5 -21.5t-31.5 -75.5q0 -57 35 -77.5t109 -20.5q176 0 176 121v74z" />
    <glyph glyph-name="Abreve" unicode="&#x102;" horiz-adv-x="1683" 
d="M498 1905h182q0 -85 42.5 -133t119.5 -48q79 0 120.5 47.5t41.5 133.5h182q0 -96 -29 -169t-78.5 -115t-109 -62.5t-127.5 -20.5t-127.5 20.5t-109 62.5t-78.5 115t-29 169zM666 1436h352l624 -1436h-352l-106 264h-684l-107 -264h-352zM616 551h453l-227 561z" />
    <glyph glyph-name="abreve" unicode="&#x103;" horiz-adv-x="1185" 
d="M248 1495h182q0 -85 42 -132.5t120 -47.5q79 0 120.5 47t41.5 133h182q0 -96 -29 -169t-78.5 -115t-109 -62.5t-127.5 -20.5t-127.5 20.5t-109 62.5t-78.5 115t-29 169zM188 1024h424q127 0 216 -28.5t139.5 -83t73 -125.5t22.5 -166v-195q0 -82 26.5 -112.5t100.5 -30.5
h16v-283h-243q-114 0 -158.5 41.5t-52.5 136.5q-72 -198 -310 -198q-180 0 -274 82.5t-94 238.5q0 160 100.5 245t335.5 85h205q-1 44 -12.5 69.5t-45.5 40.5t-96 15h-373v268zM715 453h-189q-68 0 -99.5 -21.5t-31.5 -75.5q0 -57 35 -77.5t109 -20.5q176 0 176 121v74z" />
    <glyph glyph-name="Aogonek" unicode="&#x104;" horiz-adv-x="1683" 
d="M666 1436h352l624 -1436h-200l4 -4q-46 -52 -67.5 -79.5t-40.5 -67.5t-19 -78q0 -133 276 -56v-184q-51 -13 -109 -17.5t-120 3.5t-111 29.5t-80.5 66.5t-31.5 108q0 117 145 283l-104 260h-684l-107 -264h-352zM616 551h453l-227 561z" />
    <glyph glyph-name="aogonek" unicode="&#x105;" horiz-adv-x="1185" 
d="M188 1024h424q127 0 216 -28.5t139.5 -83t73 -125.5t22.5 -166v-195q0 -82 26.5 -112.5t100.5 -30.5h16v-283h-186q-41 -47 -61.5 -74t-38 -65t-17.5 -74q0 -132 277 -55v-185q-66 -17 -140 -18t-146.5 15t-119.5 66t-47 128q0 112 137 274q-56 17 -81 56t-31 110
q-72 -198 -310 -198q-180 0 -274 82.5t-94 238.5q0 160 100.5 245t335.5 85h205q-1 44 -12.5 69.5t-45.5 40.5t-96 15h-373v268zM715 453h-189q-68 0 -99.5 -21.5t-31.5 -75.5q0 -57 35 -77.5t109 -20.5q176 0 176 121v74z" />
    <glyph glyph-name="Cacute" unicode="&#x106;" horiz-adv-x="1622" 
d="M709 1534l116 350h213l-151 -350h-178zM436 717q0 -96 24 -174t63.5 -128.5t93 -85t110 -49t117.5 -14.5q150 0 249 91.5t99 213.5h356q0 -81 -27.5 -163t-86 -159t-139.5 -137t-198 -96t-253 -36q-159 0 -299 51.5t-243 145t-162.5 233t-59.5 307.5t59.5 307.5
t162.5 233t243 145t299 51.5q136 0 253 -36t198 -96t139.5 -137.5t86 -159.5t27.5 -163h-356q0 122 -99 213.5t-249 91.5q-61 0 -117.5 -14.5t-110 -48t-93 -84t-63.5 -128.5t-24 -175z" />
    <glyph glyph-name="cacute" unicode="&#x107;" 
d="M539 1124l116 351h213l-151 -351h-178zM410 512q0 -118 58.5 -184t160.5 -66q81 0 132.5 49.5t51.5 116.5h352q0 -81 -29.5 -157t-90 -143t-166.5 -107.5t-244 -40.5q-267 0 -422.5 141.5t-155.5 390.5t155.5 390.5t422.5 141.5q111 0 202.5 -27t151 -71t100.5 -103
t58.5 -121t17.5 -126h-352q0 67 -51.5 116.5t-132.5 49.5q-102 0 -160.5 -65.5t-58.5 -184.5z" />
    <glyph glyph-name="Ccircumflex" unicode="&#x108;" horiz-adv-x="1622" 
d="M453 1540l268 340h186l269 -340h-244l-119 174l-119 -174h-241zM436 717q0 -96 24 -174t63.5 -128.5t93 -85t110 -49t117.5 -14.5q150 0 249 91.5t99 213.5h356q0 -81 -27.5 -163t-86 -159t-139.5 -137t-198 -96t-253 -36q-159 0 -299 51.5t-243 145t-162.5 233
t-59.5 307.5t59.5 307.5t162.5 233t243 145t299 51.5q136 0 253 -36t198 -96t139.5 -137.5t86 -159.5t27.5 -163h-356q0 122 -99 213.5t-249 91.5q-61 0 -117.5 -14.5t-110 -48t-93 -84t-63.5 -128.5t-24 -175z" />
    <glyph glyph-name="ccircumflex" unicode="&#x109;" 
d="M252 1130l268 340h187l268 -340h-244l-119 175l-118 -175h-242zM410 512q0 -118 58.5 -184t160.5 -66q81 0 132.5 49.5t51.5 116.5h352q0 -81 -29.5 -157t-90 -143t-166.5 -107.5t-244 -40.5q-267 0 -422.5 141.5t-155.5 390.5t155.5 390.5t422.5 141.5q111 0 202.5 -27
t151 -71t100.5 -103t58.5 -121t17.5 -126h-352q0 67 -51.5 116.5t-132.5 49.5q-102 0 -160.5 -65.5t-58.5 -184.5z" />
    <glyph glyph-name="Cdotaccent" unicode="&#x10a;" horiz-adv-x="1622" 
d="M655 1700q0 65 45.5 109t112.5 44q65 0 109.5 -44.5t44.5 -108.5q0 -67 -44.5 -112.5t-109.5 -45.5q-67 0 -112.5 45t-45.5 113zM436 717q0 -96 24 -174t63.5 -128.5t93 -85t110 -49t117.5 -14.5q150 0 249 91.5t99 213.5h356q0 -81 -27.5 -163t-86 -159t-139.5 -137
t-198 -96t-253 -36q-159 0 -299 51.5t-243 145t-162.5 233t-59.5 307.5t59.5 307.5t162.5 233t243 145t299 51.5q136 0 253 -36t198 -96t139.5 -137.5t86 -159.5t27.5 -163h-356q0 122 -99 213.5t-249 91.5q-61 0 -117.5 -14.5t-110 -48t-93 -84t-63.5 -128.5t-24 -175z" />
    <glyph glyph-name="cdotaccent" unicode="&#x10b;" 
d="M455 1290q0 65 45 109.5t112 44.5q64 0 109 -45t45 -109q0 -67 -44.5 -112t-109.5 -45q-68 0 -112.5 44.5t-44.5 112.5zM410 512q0 -118 58.5 -184t160.5 -66q81 0 132.5 49.5t51.5 116.5h352q0 -81 -29.5 -157t-90 -143t-166.5 -107.5t-244 -40.5q-267 0 -422.5 141.5
t-155.5 390.5t155.5 390.5t422.5 141.5q111 0 202.5 -27t151 -71t100.5 -103t58.5 -121t17.5 -126h-352q0 67 -51.5 116.5t-132.5 49.5q-102 0 -160.5 -65.5t-58.5 -184.5z" />
    <glyph glyph-name="Ccaron" unicode="&#x10c;" horiz-adv-x="1622" 
d="M451 1874h243l119 -174l119 174h242l-269 -340h-186zM436 717q0 -96 24 -174t63.5 -128.5t93 -85t110 -49t117.5 -14.5q150 0 249 91.5t99 213.5h356q0 -81 -27.5 -163t-86 -159t-139.5 -137t-198 -96t-253 -36q-159 0 -299 51.5t-243 145t-162.5 233t-59.5 307.5
t59.5 307.5t162.5 233t243 145t299 51.5q136 0 253 -36t198 -96t139.5 -137.5t86 -159.5t27.5 -163h-356q0 122 -99 213.5t-249 91.5q-61 0 -117.5 -14.5t-110 -48t-93 -84t-63.5 -128.5t-24 -175z" />
    <glyph glyph-name="ccaron" unicode="&#x10d;" 
d="M250 1464h244l118 -174l119 174h242l-268 -340h-187zM410 512q0 -118 58.5 -184t160.5 -66q81 0 132.5 49.5t51.5 116.5h352q0 -81 -29.5 -157t-90 -143t-166.5 -107.5t-244 -40.5q-267 0 -422.5 141.5t-155.5 390.5t155.5 390.5t422.5 141.5q111 0 202.5 -27t151 -71
t100.5 -103t58.5 -121t17.5 -126h-352q0 67 -51.5 116.5t-132.5 49.5q-102 0 -160.5 -65.5t-58.5 -184.5z" />
    <glyph glyph-name="Dcaron" unicode="&#x10e;" horiz-adv-x="1589" 
d="M432 1874h244l119 -174l118 174h242l-268 -340h-187zM723 1434q167 0 310 -47.5t249.5 -136.5t167.5 -226t61 -307t-61 -307t-167.5 -226t-249.5 -136.5t-310 -47.5h-621v1434h621zM455 287h268q203 0 317.5 108.5t114.5 321.5t-114.5 321.5t-317.5 108.5h-268v-860z" />
    <glyph glyph-name="dcaron" unicode="&#x10f;" horiz-adv-x="1869" 
d="M1374 1253q0 84 59.5 142.5t147.5 58.5q83 0 142 -59t59 -142q0 -58 -33 -112l-193 -363h-176l131 279q-62 20 -99.5 73t-37.5 123zM189 128q-132 148 -132 384t131.5 384t348.5 148q115 0 203.5 -45.5t142.5 -132.5v568h348v-1434h-348v160q-113 -180 -346 -180
q-217 0 -348 148zM649 262q92 0 163 55t71 129v134q0 74 -71 128t-163 54q-104 0 -171.5 -67t-67.5 -183q0 -114 67.5 -182t171.5 -68z" />
    <glyph glyph-name="Dcroat" unicode="&#x110;" horiz-adv-x="1589" 
d="M-57 829h159v605h621q167 0 310 -47.5t249.5 -136.5t167.5 -226t61 -307t-61 -307t-167.5 -226t-249.5 -136.5t-310 -47.5h-621v604h-159v225zM455 287h268q203 0 317.5 108.5t114.5 321.5t-114.5 321.5t-317.5 108.5h-268v-318h282v-225h-282v-317z" />
    <glyph glyph-name="dcroat" unicode="&#x111;" horiz-adv-x="1312" 
d="M561 1311h322v123h348v-123h180v-164h-180v-1147h-348v178q-103 -198 -346 -198q-217 0 -348.5 148t-131.5 384t131.5 384t348.5 148q243 0 346 -198v301h-322v164zM649 262q92 0 163 55t71 129v134q0 74 -71 128t-163 54q-104 0 -171.5 -67t-67.5 -183q0 -114 67.5 -182
t171.5 -68z" />
    <glyph glyph-name="Emacron" unicode="&#x112;" horiz-adv-x="1241" 
d="M362 1751h570v-164h-570v164zM104 1434h1072v-287h-719v-277h657v-286h-657v-297h719v-287h-1072v1434z" />
    <glyph glyph-name="emacron" unicode="&#x113;" 
d="M326 1341h569v-163h-569v163zM1165 514v-90h-755q32 -193 208 -193q88 0 141.5 36.5t53.5 94.5h346q-12 -78 -50 -145t-103.5 -121t-169 -85t-234.5 -31q-157 0 -280 62.5t-194 184.5t-71 285t71 285t194 184.5t280 62.5q183 0 312 -70t190 -188t61 -272zM815 598
q-13 107 -63.5 151t-133.5 44q-77 0 -133.5 -47t-74.5 -148h405z" />
    <glyph glyph-name="Ebreve" unicode="&#x114;" horiz-adv-x="1241" 
d="M301 1905h182q0 -85 42.5 -133t119.5 -48q79 0 120.5 47.5t41.5 133.5h182q0 -96 -29 -169t-78.5 -115t-109 -62.5t-127.5 -20.5t-127.5 20.5t-109 62.5t-78.5 115t-29 169zM104 1434h1072v-287h-719v-277h657v-286h-657v-297h719v-287h-1072v1434z" />
    <glyph glyph-name="ebreve" unicode="&#x115;" 
d="M287 1495h182q0 -85 42 -132.5t120 -47.5q79 0 120.5 47t41.5 133h182q0 -96 -29 -169t-78.5 -115t-109 -62.5t-127.5 -20.5t-127.5 20.5t-109 62.5t-78.5 115t-29 169zM1165 514v-90h-755q32 -193 208 -193q88 0 141.5 36.5t53.5 94.5h346q-12 -78 -50 -145t-103.5 -121
t-169 -85t-234.5 -31q-157 0 -280 62.5t-194 184.5t-71 285t71 285t194 184.5t280 62.5q183 0 312 -70t190 -188t61 -272zM815 598q-13 107 -63.5 151t-133.5 44q-77 0 -133.5 -47t-74.5 -148h405z" />
    <glyph glyph-name="Edotaccent" unicode="&#x116;" horiz-adv-x="1241" 
d="M489 1700q0 65 45.5 109t112.5 44q65 0 109.5 -44.5t44.5 -108.5q0 -67 -44.5 -112.5t-109.5 -45.5q-67 0 -112.5 45t-45.5 113zM104 1434h1072v-287h-719v-277h657v-286h-657v-297h719v-287h-1072v1434z" />
    <glyph glyph-name="edotaccent" unicode="&#x117;" 
d="M455 1290q0 65 45 109.5t112 44.5q64 0 109 -45t45 -109q0 -67 -44.5 -112t-109.5 -45q-68 0 -112.5 44.5t-44.5 112.5zM1165 514v-90h-755q32 -193 208 -193q88 0 141.5 36.5t53.5 94.5h346q-12 -78 -50 -145t-103.5 -121t-169 -85t-234.5 -31q-157 0 -280 62.5
t-194 184.5t-71 285t71 285t194 184.5t280 62.5q183 0 312 -70t190 -188t61 -272zM815 598q-13 107 -63.5 151t-133.5 44q-77 0 -133.5 -47t-74.5 -148h405z" />
    <glyph glyph-name="Eogonek" unicode="&#x118;" horiz-adv-x="1241" 
d="M104 1434h1072v-287h-719v-277h657v-286h-657v-297h719v-287h-160l8 -6q-46 -52 -67.5 -79.5t-40.5 -67.5t-19 -78q0 -133 277 -56v-184q-51 -13 -109 -17.5t-120 3.5t-111.5 29.5t-81 66.5t-31.5 108q0 117 143 281h-760v1434z" />
    <glyph glyph-name="eogonek" unicode="&#x119;" 
d="M1165 514v-90h-755q32 -193 208 -193q88 0 141.5 36.5t53.5 94.5h346q-11 -72 -44.5 -135t-90.5 -115.5t-146 -87t-202 -42.5l6 -5q-46 -52 -67.5 -79.5t-40.5 -67.5t-19 -78q0 -132 276 -55v-184q-51 -13 -109 -17.5t-120 3.5t-111 29.5t-80.5 66.5t-31.5 108
q0 117 143 281q-209 24 -337 164t-128 364q0 163 71 285t194 184.5t280 62.5q183 0 312 -70t190 -188t61 -272zM815 598q-13 107 -63.5 151t-133.5 44q-77 0 -133.5 -47t-74.5 -148h405z" />
    <glyph glyph-name="Ecaron" unicode="&#x11a;" horiz-adv-x="1241" 
d="M299 1874h244l119 -174l118 174h242l-268 -340h-187zM104 1434h1072v-287h-719v-277h657v-286h-657v-297h719v-287h-1072v1434z" />
    <glyph glyph-name="ecaron" unicode="&#x11b;" 
d="M250 1464h244l118 -174l119 174h242l-268 -340h-187zM1165 514v-90h-755q32 -193 208 -193q88 0 141.5 36.5t53.5 94.5h346q-12 -78 -50 -145t-103.5 -121t-169 -85t-234.5 -31q-157 0 -280 62.5t-194 184.5t-71 285t71 285t194 184.5t280 62.5q183 0 312 -70t190 -188
t61 -272zM815 598q-13 107 -63.5 151t-133.5 44q-77 0 -133.5 -47t-74.5 -148h405z" />
    <glyph glyph-name="Gcircumflex" unicode="&#x11c;" horiz-adv-x="1642" 
d="M463 1540l268 340h187l268 -340h-244l-119 174l-118 -174h-242zM434 721q0 -222 121.5 -335.5t337.5 -113.5q163 0 263.5 64.5t123.5 198.5h-465v262h752v-797h-281v160q-158 -176 -440 -176q-121 0 -234.5 32t-210 95.5t-169 151t-113.5 206t-41 252.5q0 133 41.5 250.5
t115 204.5t171 150.5t213 95.5t237.5 32q148 0 280 -48t220 -123t139 -166t51 -179h-352q0 97 -97 163t-247 66q-192 0 -304 -113.5t-112 -332.5z" />
    <glyph glyph-name="gcircumflex" unicode="&#x11d;" horiz-adv-x="1312" 
d="M297 1130l268 340h187l268 -340h-244l-119 175l-118 -175h-242zM223 -127h447q115 0 164 40.5t49 133.5v113q-113 -180 -346 -180q-217 0 -348.5 148t-131.5 384t131.5 384t348.5 148q115 0 203.5 -45.5t142.5 -132.5v158h348v-932q0 -254 -127 -378t-404 -124h-477v283z
M649 262q92 0 163 55t71 129v134q0 74 -71 128t-163 54q-104 0 -171.5 -67t-67.5 -183q0 -114 67.5 -182t171.5 -68z" />
    <glyph glyph-name="Gbreve" unicode="&#x11e;" horiz-adv-x="1642" 
d="M477 1905h182q0 -85 42.5 -133t119.5 -48q79 0 120.5 47.5t41.5 133.5h182q0 -96 -29 -169t-78.5 -115t-109 -62.5t-127.5 -20.5t-127.5 20.5t-109 62.5t-78.5 115t-29 169zM434 721q0 -222 121.5 -335.5t337.5 -113.5q163 0 263.5 64.5t123.5 198.5h-465v262h752v-797
h-281v160q-158 -176 -440 -176q-121 0 -234.5 32t-210 95.5t-169 151t-113.5 206t-41 252.5q0 133 41.5 250.5t115 204.5t171 150.5t213 95.5t237.5 32q148 0 280 -48t220 -123t139 -166t51 -179h-352q0 97 -97 163t-247 66q-192 0 -304 -113.5t-112 -332.5z" />
    <glyph glyph-name="gbreve" unicode="&#x11f;" horiz-adv-x="1312" 
d="M313 1495h183q0 -85 42 -132.5t119 -47.5q79 0 120.5 47t41.5 133h182q0 -96 -29 -169t-78.5 -115t-109 -62.5t-127.5 -20.5t-127.5 20.5t-109 62.5t-78.5 115t-29 169zM223 -127h447q115 0 164 40.5t49 133.5v113q-113 -180 -346 -180q-217 0 -348.5 148t-131.5 384
t131.5 384t348.5 148q115 0 203.5 -45.5t142.5 -132.5v158h348v-932q0 -254 -127 -378t-404 -124h-477v283zM649 262q92 0 163 55t71 129v134q0 74 -71 128t-163 54q-104 0 -171.5 -67t-67.5 -183q0 -114 67.5 -182t171.5 -68z" />
    <glyph glyph-name="Gdotaccent" unicode="&#x120;" horiz-adv-x="1642" 
d="M666 1700q0 65 45 109t112 44q65 0 109.5 -44.5t44.5 -108.5q0 -67 -44.5 -112.5t-109.5 -45.5q-67 0 -112 45t-45 113zM434 721q0 -222 121.5 -335.5t337.5 -113.5q163 0 263.5 64.5t123.5 198.5h-465v262h752v-797h-281v160q-158 -176 -440 -176q-121 0 -234.5 32
t-210 95.5t-169 151t-113.5 206t-41 252.5q0 133 41.5 250.5t115 204.5t171 150.5t213 95.5t237.5 32q148 0 280 -48t220 -123t139 -166t51 -179h-352q0 97 -97 163t-247 66q-192 0 -304 -113.5t-112 -332.5z" />
    <glyph glyph-name="gdotaccent" unicode="&#x121;" horiz-adv-x="1312" 
d="M500 1290q0 65 45 109.5t112 44.5q65 0 109.5 -45t44.5 -109q0 -67 -44.5 -112t-109.5 -45q-67 0 -112 44.5t-45 112.5zM223 -127h447q115 0 164 40.5t49 133.5v113q-113 -180 -346 -180q-217 0 -348.5 148t-131.5 384t131.5 384t348.5 148q115 0 203.5 -45.5
t142.5 -132.5v158h348v-932q0 -254 -127 -378t-404 -124h-477v283zM649 262q92 0 163 55t71 129v134q0 74 -71 128t-163 54q-104 0 -171.5 -67t-67.5 -183q0 -114 67.5 -182t171.5 -68z" />
    <glyph glyph-name="uni0122" unicode="&#x122;" horiz-adv-x="1642" 
d="M434 721q0 -222 121.5 -335.5t337.5 -113.5q163 0 263.5 64.5t123.5 198.5h-465v262h752v-797h-281v160q-158 -176 -440 -176q-121 0 -234.5 32t-210 95.5t-169 151t-113.5 206t-41 252.5q0 133 41.5 250.5t115 204.5t171 150.5t213 95.5t237.5 32q148 0 280 -48
t220 -123t139 -166t51 -179h-352q0 97 -97 163t-247 66q-192 0 -304 -113.5t-112 -332.5zM713 -209q0 50 34.5 84.5t86.5 34.5q49 0 83.5 -34.5t34.5 -84.5q0 -40 -20 -70l-115 -217h-100l80 172q-37 11 -60.5 42t-23.5 73z" />
    <glyph glyph-name="uni0123" unicode="&#x123;" horiz-adv-x="1312" 
d="M594 1309l123 229h98l-78 -172q37 -11 60.5 -42.5t23.5 -72.5q0 -50 -35.5 -84t-87.5 -34q-48 0 -82 34.5t-34 83.5q0 30 14 58h-2zM223 -127h447q115 0 164 40.5t49 133.5v113q-113 -180 -346 -180q-217 0 -348.5 148t-131.5 384t131.5 384t348.5 148q115 0 203.5 -45.5
t142.5 -132.5v158h348v-932q0 -254 -127 -378t-404 -124h-477v283zM649 262q92 0 163 55t71 129v134q0 74 -71 128t-163 54q-104 0 -171.5 -67t-67.5 -183q0 -114 67.5 -182t171.5 -68z" />
    <glyph glyph-name="Hcircumflex" unicode="&#x124;" horiz-adv-x="1685" 
d="M483 1540l269 340h186l268 -340h-243l-119 174l-119 -174h-242zM102 1434h353v-557h776v557h352v-1434h-352v590h-776v-590h-353v1434z" />
    <glyph glyph-name="hcircumflex" unicode="&#x125;" horiz-adv-x="1247" 
d="M479 1100l269 340h186l268 -340h-244l-118 174l-119 -174h-242zM82 1434h348v-594q56 98 150 151t215 53q188 0 279 -107t91 -296v-641h-348v549q0 106 -41 159.5t-145 53.5q-89 0 -145 -58t-56 -161v-543h-348v1434z" />
    <glyph glyph-name="Hbar" unicode="&#x126;" horiz-adv-x="1685" 
d="M102 1434h353v-308h776v308h352v-1434h-352v283h-776v-283h-353v1434zM455 569h776v271h-776v-271z" />
    <glyph glyph-name="hbar" unicode="&#x127;" horiz-adv-x="1247" 
d="M754 1311v-164h-324v-307q56 98 150 151t215 53q188 0 279 -107t91 -296v-641h-348v549q0 106 -41 159.5t-145 53.5q-89 0 -145 -58t-56 -161v-543h-348v1147h-180v164h180v123h348v-123h324z" />
    <glyph glyph-name="Itilde" unicode="&#x128;" horiz-adv-x="557" 
d="M279 1767q16 -6 41 -16.5t36 -15t29.5 -11.5t27 -7.5t22.5 -2t21.5 3t18 11t18.5 18t17 27t18 36.5l156 -53q-22 -61 -49 -104t-53 -67.5t-61 -35t-61 -12.5t-66 8t-63.5 18t-64.5 25q-102 40 -121 44q-47 10 -75 -27q-17 -23 -37 -70l-158 55q21 58 47 100t51.5 67
t58 37t59.5 14.5t63 -4t62 -15t63 -23.5zM102 1434h353v-1434h-353v1434z" />
    <glyph glyph-name="itilde" unicode="&#x129;" horiz-adv-x="501" 
d="M250 1358q15 -6 40.5 -16.5t36.5 -15t30 -11.5t27.5 -7.5t22.5 -2t21.5 3t18 11t18.5 18t17 27t18 36.5l155 -53q-17 -47 -37.5 -84t-40 -61.5t-44.5 -40t-45.5 -24t-49.5 -8.5t-49 2.5t-51.5 12t-49.5 16t-50 19.5q-102 40 -123 44q-47 9 -75 -29q-17 -22 -36 -69
l-158 56q21 58 47 100t51.5 67t58 37t59.5 14.5t63 -4t62 -15t63 -23.5zM78 1024h348v-1024h-348v1024z" />
    <glyph glyph-name="Imacron" unicode="&#x12a;" horiz-adv-x="557" 
d="M-6 1751h569v-164h-569v164zM102 1434h353v-1434h-353v1434z" />
    <glyph glyph-name="imacron" unicode="&#x12b;" horiz-adv-x="501" 
d="M-33 1341h570v-163h-570v163zM78 1024h348v-1024h-348v1024z" />
    <glyph glyph-name="Iogonek" unicode="&#x12e;" horiz-adv-x="557" 
d="M102 1434h353v-1434h-109l10 -8q-46 -52 -67.5 -79.5t-40.5 -67.5t-19 -78q0 -133 277 -56v-184q-51 -13 -109 -17.5t-120 3.5t-111.5 29.5t-81 66.5t-31.5 108q0 116 146 283h-97v1434z" />
    <glyph glyph-name="iogonek" unicode="&#x12f;" horiz-adv-x="501" 
d="M57 1323q0 80 57.5 136.5t141.5 56.5q81 0 138 -56.5t57 -136.5q0 -86 -56.5 -143.5t-138.5 -57.5q-85 0 -142 57.5t-57 143.5zM78 1024h348v-1024h-100l10 -8q-46 -52 -67.5 -79.5t-40.5 -67.5t-19 -78q0 -133 276 -56v-184q-51 -13 -109 -17.5t-120 3.5t-111 29.5
t-80.5 66.5t-31.5 108q0 117 145 283h-100v1024z" />
    <glyph glyph-name="Idotaccent" unicode="&#x130;" horiz-adv-x="557" 
d="M123 1700q0 65 45.5 109t112.5 44q65 0 109 -44.5t44 -108.5q0 -67 -44 -112.5t-109 -45.5q-67 0 -112.5 45t-45.5 113zM102 1434h353v-1434h-353v1434z" />
    <glyph glyph-name="dotlessi" unicode="&#x131;" horiz-adv-x="501" 
d="M78 1024h348v-1024h-348v1024z" />
    <glyph glyph-name="IJ" unicode="&#x132;" horiz-adv-x="1896" 
d="M102 1434h353v-1434h-353v1434zM1442 1434h352v-881q0 -122 -34.5 -224.5t-103 -181.5t-180 -123t-257.5 -44q-150 0 -263 44t-181.5 124.5t-102 187t-33.5 237.5h356q0 -307 226 -307q112 0 166.5 82.5t54.5 204.5v881z" />
    <glyph glyph-name="ij" unicode="&#x133;" horiz-adv-x="1003" 
d="M57 1323q0 80 57.5 136.5t141.5 56.5q81 0 138 -56.5t57 -136.5q0 -86 -56.5 -143.5t-138.5 -57.5q-85 0 -142 57.5t-57 143.5zM553 1323q0 80 58.5 136.5t142.5 56.5q79 0 135.5 -56.5t56.5 -136.5q0 -86 -56 -143.5t-136 -57.5q-85 0 -143 57.5t-58 143.5zM78 1024h348
v-1024h-348v1024zM332 -127h110q76 0 107 22.5t31 94.5v1034h348v-1112q0 -160 -88.5 -241t-257.5 -81h-250v283z" />
    <glyph glyph-name="Jcircumflex" unicode="&#x134;" horiz-adv-x="1339" 
d="M688 1540l268 340h187l268 -340h-244l-118 174l-119 -174h-242zM885 1434h352v-881q0 -122 -34.5 -224.5t-103 -181.5t-180 -123t-257.5 -44q-150 0 -263 44t-181.5 124.5t-102 187t-33.5 237.5h356q0 -307 226 -307q112 0 166.5 82.5t54.5 204.5v881z" />
    <glyph glyph-name="jcircumflex" unicode="&#x135;" horiz-adv-x="501" 
d="M-109 1130l269 340h186l268 -340h-243l-119 175l-119 -175h-242zM-168 -158h109q72 0 104.5 35.5t32.5 112.5v1034h348v-1112q0 -160 -88.5 -241t-257.5 -81h-248v252z" />
    <glyph glyph-name="uni0136" unicode="&#x136;" horiz-adv-x="1533" 
d="M102 1434h353v-615h151l398 615h421l-507 -742l575 -692h-442l-420 535h-176v-535h-353v1434zM629 -209q0 50 34.5 84.5t86.5 34.5q49 0 83.5 -34.5t34.5 -84.5q0 -40 -20 -70l-115 -217h-100l80 172q-37 11 -60.5 42t-23.5 73z" />
    <glyph glyph-name="uni0137" unicode="&#x137;" horiz-adv-x="1263" 
d="M82 1434h348v-775h105l221 365h401l-321 -483l381 -541h-412l-260 408h-115v-408h-348v1434zM524 -209q0 50 34.5 84.5t86.5 34.5q49 0 84 -35t35 -84q0 -39 -21 -70l-114 -217h-101l80 172q-37 11 -60.5 42t-23.5 73z" />
    <glyph glyph-name="kgreenlandic" unicode="&#x138;" horiz-adv-x="1263" 
d="M82 1024h348v-365h105l221 365h401l-321 -483l381 -541h-412l-260 408h-115v-408h-348v1024z" />
    <glyph glyph-name="Lacute" unicode="&#x139;" horiz-adv-x="1251" 
d="M102 1434h353v-1147h729v-287h-1082v1434zM727 1083l117 351h213l-152 -351h-178z" />
    <glyph glyph-name="lacute" unicode="&#x13a;" horiz-adv-x="583" 
d="M174 1534l117 350h213l-152 -350h-178zM573 283v-283h-217q-146 0 -210 69.5t-64 217.5v1147h348v-1008q0 -82 26.5 -112.5t100.5 -30.5h16z" />
    <glyph glyph-name="uni013B" unicode="&#x13b;" horiz-adv-x="1251" 
d="M102 1434h353v-1147h729v-287h-1082v1434zM522 -209q0 50 34.5 84.5t86.5 34.5q49 0 84 -35t35 -84q0 -39 -21 -70l-114 -217h-101l80 172q-37 11 -60.5 42t-23.5 73z" />
    <glyph glyph-name="uni013C" unicode="&#x13c;" horiz-adv-x="583" 
d="M573 283v-283h-217q-146 0 -210 69.5t-64 217.5v1147h348v-1008q0 -82 26.5 -112.5t100.5 -30.5h16zM250 -209q0 50 34.5 84.5t86.5 34.5q49 0 83.5 -34.5t34.5 -84.5q0 -40 -20 -70l-115 -217h-100l80 172q-37 11 -60.5 42t-23.5 73z" />
    <glyph glyph-name="Lcaron" unicode="&#x13d;" horiz-adv-x="1251" 
d="M102 1434h353v-1147h729v-287h-1082v1434zM717 1233q0 84 59.5 142.5t147.5 58.5q83 0 141.5 -59t58.5 -142q0 -60 -32 -113l-193 -362h-176l131 278q-62 20 -99.5 73.5t-37.5 123.5z" />
    <glyph glyph-name="lcaron" unicode="&#x13e;" horiz-adv-x="1136" 
d="M641 1247q0 84 59.5 142.5t147.5 58.5q83 0 142 -59t59 -142q0 -58 -33 -112l-193 -363h-176l131 279q-62 20 -99.5 73t-37.5 123zM573 283v-283h-217q-146 0 -210 69.5t-64 217.5v1147h348v-1008q0 -82 26.5 -112.5t100.5 -30.5h16z" />
    <glyph glyph-name="Ldot" unicode="&#x13f;" horiz-adv-x="1251" 
d="M102 1434h353v-1147h729v-287h-1082v1434zM664 1233q0 84 59 142.5t147 58.5q83 0 142 -59t59 -142q0 -88 -58.5 -147.5t-142.5 -59.5q-89 0 -147.5 59t-58.5 148z" />
    <glyph glyph-name="ldot" unicode="&#x140;" horiz-adv-x="1089" 
d="M573 283v-283h-217q-146 0 -210 69.5t-64 217.5v1147h348v-1008q0 -82 26.5 -112.5t100.5 -30.5h16zM580 1233q0 84 59 142.5t147 58.5q83 0 142 -59t59 -142q0 -88 -58.5 -147.5t-142.5 -59.5q-89 0 -147.5 59t-58.5 148z" />
    <glyph glyph-name="Lslash" unicode="&#x141;" horiz-adv-x="1251" 
d="M-201 764l303 110v560h353v-433l229 84l78 -211l-307 -112v-475h729v-287h-1082v633l-225 -82z" />
    <glyph glyph-name="lslash" unicode="&#x142;" horiz-adv-x="583" 
d="M-238 764l320 117v553h348v-428l219 79l76 -211l-295 -108v-340q0 -82 26.5 -112.5t100.5 -30.5h16v-283h-217q-146 0 -210 69.5t-64 217.5v352l-242 -88z" />
    <glyph glyph-name="Nacute" unicode="&#x143;" horiz-adv-x="1671" 
d="M774 1534l117 350h213l-152 -350h-178zM102 1434h353l762 -949v949h352v-1434h-352l-762 922v-922h-353v1434z" />
    <glyph glyph-name="nacute" unicode="&#x144;" horiz-adv-x="1247" 
d="M506 1124l117 351h213l-152 -351h-178zM82 1024h348v-184q56 98 150 151t215 53q188 0 279 -107t91 -296v-641h-348v549q0 106 -41 159.5t-145 53.5q-89 0 -145 -58t-56 -161v-543h-348v1024z" />
    <glyph glyph-name="uni0145" unicode="&#x145;" horiz-adv-x="1671" 
d="M102 1434h353l762 -949v949h352v-1434h-352l-762 922v-922h-353v1434zM737 -209q0 50 34.5 84.5t86.5 34.5q50 0 84.5 -35t34.5 -84q0 -39 -21 -70l-114 -217h-101l80 172q-37 11 -60.5 42t-23.5 73z" />
    <glyph glyph-name="uni0146" unicode="&#x146;" horiz-adv-x="1247" 
d="M82 1024h348v-184q56 98 150 151t215 53q188 0 279 -107t91 -296v-641h-348v549q0 106 -41 159.5t-145 53.5q-89 0 -145 -58t-56 -161v-543h-348v1024zM510 -209q0 50 34.5 84.5t86.5 34.5q49 0 84 -35t35 -84q0 -39 -21 -70l-115 -217h-100l80 172q-37 11 -60.5 42
t-23.5 73z" />
    <glyph glyph-name="Ncaron" unicode="&#x147;" horiz-adv-x="1671" 
d="M483 1874h244l119 -174l119 174h241l-268 -340h-186zM102 1434h353l762 -949v949h352v-1434h-352l-762 922v-922h-353v1434z" />
    <glyph glyph-name="ncaron" unicode="&#x148;" horiz-adv-x="1247" 
d="M262 1464h244l119 -174l118 174h242l-268 -340h-187zM82 1024h348v-184q56 98 150 151t215 53q188 0 279 -107t91 -296v-641h-348v549q0 106 -41 159.5t-145 53.5q-89 0 -145 -58t-56 -161v-543h-348v1024z" />
    <glyph glyph-name="napostrophe" unicode="&#x149;" horiz-adv-x="1247" 
d="M797 1321l-123 -229h-99l78 170q-38 11 -61 42t-23 74q0 50 34.5 84.5t86.5 34.5q50 0 84.5 -34.5t34.5 -84.5q0 -29 -14 -57h2zM82 1024h348v-184q56 98 150 151t215 53q188 0 279 -107t91 -296v-641h-348v549q0 106 -41 159.5t-145 53.5q-89 0 -145 -58t-56 -161v-543
h-348v1024z" />
    <glyph glyph-name="Omacron" unicode="&#x14c;" horiz-adv-x="1728" 
d="M580 1751h569v-164h-569v164zM143 408q-63 140 -63 309t63 309.5t171 233t250.5 143.5t301.5 51q160 0 303 -51t251 -143.5t171.5 -233t63.5 -309.5t-63.5 -309.5t-171.5 -233t-251 -143.5t-303 -51q-159 0 -301.5 51t-250.5 143.5t-171 233.5zM1176 1043
q-122 124 -310 124t-309 -124t-121 -326q0 -201 121 -326t309 -125t310 125t122 326q0 202 -122 326z" />
    <glyph glyph-name="omacron" unicode="&#x14d;" horiz-adv-x="1284" 
d="M358 1341h570v-163h-570v163zM474 336q63 -74 169 -74t170 73.5t64 176.5t-64 176.5t-170 73.5t-169.5 -73.5t-63.5 -176.5t64 -176zM348 982q132 62 295 62t295 -62.5t211.5 -185t79.5 -284.5t-79.5 -284.5t-211.5 -185t-295 -62.5t-295 62.5t-211.5 185t-79.5 284.5
t79.5 284.5t211.5 185.5z" />
    <glyph glyph-name="Obreve" unicode="&#x14e;" horiz-adv-x="1728" 
d="M520 1905h182q0 -85 42.5 -133t119.5 -48q79 0 120.5 47.5t41.5 133.5h182q0 -96 -29 -169t-78.5 -115t-109 -62.5t-127.5 -20.5t-127.5 20.5t-109 62.5t-78.5 115t-29 169zM143 408q-63 140 -63 309t63 309.5t171 233t250.5 143.5t301.5 51q160 0 303 -51t251 -143.5
t171.5 -233t63.5 -309.5t-63.5 -309.5t-171.5 -233t-251 -143.5t-303 -51q-159 0 -301.5 51t-250.5 143.5t-171 233.5zM1176 1043q-122 124 -310 124t-309 -124t-121 -326q0 -201 121 -326t309 -125t310 125t122 326q0 202 -122 326z" />
    <glyph glyph-name="obreve" unicode="&#x14f;" horiz-adv-x="1284" 
d="M299 1495h182q0 -85 42 -132.5t120 -47.5q79 0 120.5 47t41.5 133h182q0 -96 -29 -169t-78.5 -115t-109 -62.5t-127.5 -20.5t-127.5 20.5t-109 62.5t-78.5 115t-29 169zM474 336q63 -74 169 -74t170 73.5t64 176.5t-64 176.5t-170 73.5t-169.5 -73.5t-63.5 -176.5
t64 -176zM348 982q132 62 295 62t295 -62.5t211.5 -185t79.5 -284.5t-79.5 -284.5t-211.5 -185t-295 -62.5t-295 62.5t-211.5 185t-79.5 284.5t79.5 284.5t211.5 185.5z" />
    <glyph glyph-name="Ohungarumlaut" unicode="&#x150;" horiz-adv-x="1728" 
d="M952 1534l117 350h213l-152 -350h-178zM592 1534l117 350h213l-152 -350h-178zM143 408q-63 140 -63 309t63 309.5t171 233t250.5 143.5t301.5 51q160 0 303 -51t251 -143.5t171.5 -233t63.5 -309.5t-63.5 -309.5t-171.5 -233t-251 -143.5t-303 -51q-159 0 -301.5 51
t-250.5 143.5t-171 233.5zM1176 1043q-122 124 -310 124t-309 -124t-121 -326q0 -201 121 -326t309 -125t310 125t122 326q0 202 -122 326z" />
    <glyph glyph-name="ohungarumlaut" unicode="&#x151;" horiz-adv-x="1284" 
d="M729 1124l117 351h213l-152 -351h-178zM369 1124l116 351h213l-151 -351h-178zM474 336q63 -74 169 -74t170 73.5t64 176.5t-64 176.5t-170 73.5t-169.5 -73.5t-63.5 -176.5t64 -176zM348 982q132 62 295 62t295 -62.5t211.5 -185t79.5 -284.5t-79.5 -284.5t-211.5 -185
t-295 -62.5t-295 62.5t-211.5 185t-79.5 284.5t79.5 284.5t211.5 185.5z" />
    <glyph glyph-name="OE" unicode="&#x152;" horiz-adv-x="2439" 
d="M143 408q-63 140 -63 309t63 309.5t171 233t250.5 143.5t301.5 51q241 0 437 -111v91h1071v-287h-719v-277h657v-286h-657v-297h719v-287h-1071v90q-194 -110 -437 -110q-159 0 -301.5 51t-250.5 143.5t-171 233.5zM1176 1043q-122 124 -310 124t-309 -124t-121 -326
q0 -201 121 -326t309 -125t310 125t122 326q0 202 -122 326z" />
    <glyph glyph-name="oe" unicode="&#x153;" horiz-adv-x="2045" 
d="M474 336q63 -74 169 -74t170 73.5t64 176.5t-64 176.5t-170 73.5t-169.5 -73.5t-63.5 -176.5t64 -176zM1634 598q-13 107 -63 151t-133 44q-77 0 -134 -47t-75 -148h405zM643 1044q241 0 401 -129q147 129 377 129q138 0 246.5 -40t177.5 -111.5t104.5 -167.5t35.5 -211
v-90h-756q32 -193 209 -193q88 0 141 36.5t53 94.5h346q-12 -78 -50 -145t-103.5 -121t-169 -85t-234.5 -31q-230 0 -377 129q-160 -129 -401 -129q-163 0 -295 62.5t-211.5 185t-79.5 284.5t79.5 284.5t211.5 185t295 62.5z" />
    <glyph glyph-name="Racute" unicode="&#x154;" horiz-adv-x="1515" 
d="M614 1534l117 350h213l-151 -350h-179zM831 1436q64 0 130 -11t142.5 -42.5t134.5 -80t97 -133.5t39 -194q0 -94 -28 -172.5t-76.5 -132.5t-104 -90t-121.5 -60l390 -520h-394l-352 481h-233v-481h-353v1436h729zM455 768h346q86 0 151.5 49.5t65.5 140.5q0 89 -65.5 140
t-151.5 51h-346v-381z" />
    <glyph glyph-name="racute" unicode="&#x155;" horiz-adv-x="870" 
d="M373 1124l116 351h213l-151 -351h-178zM82 1024h348v-178q56 91 138 144.5t167 53.5h101v-282h-224q-90 0 -136 -49.5t-46 -159.5v-553h-348v1024z" />
    <glyph glyph-name="uni0156" unicode="&#x156;" horiz-adv-x="1515" 
d="M831 1436q64 0 130 -11t142.5 -42.5t134.5 -80t97 -133.5t39 -194q0 -94 -28 -172.5t-76.5 -132.5t-104 -90t-121.5 -60l390 -520h-394l-352 481h-233v-481h-353v1436h729zM455 768h346q86 0 151.5 49.5t65.5 140.5q0 89 -65.5 140t-151.5 51h-346v-381zM614 -209
q0 50 34.5 84.5t86.5 34.5q49 0 84 -35t35 -84q0 -40 -20 -70l-115 -217h-101l80 172q-37 11 -60.5 42t-23.5 73z" />
    <glyph glyph-name="uni0157" unicode="&#x157;" horiz-adv-x="870" 
d="M82 1024h348v-178q56 91 138 144.5t167 53.5h101v-282h-224q-90 0 -136 -49.5t-46 -159.5v-553h-348v1024zM147 -209q0 50 34.5 84.5t86.5 34.5q50 0 84.5 -35t34.5 -84q0 -40 -20 -70l-115 -217h-100l79 172q-37 11 -60.5 42t-23.5 73z" />
    <glyph glyph-name="Rcaron" unicode="&#x158;" horiz-adv-x="1515" 
d="M395 1874h244l119 -174l119 174h241l-268 -340h-186zM831 1436q64 0 130 -11t142.5 -42.5t134.5 -80t97 -133.5t39 -194q0 -94 -28 -172.5t-76.5 -132.5t-104 -90t-121.5 -60l390 -520h-394l-352 481h-233v-481h-353v1436h729zM455 768h346q86 0 151.5 49.5t65.5 140.5
q0 89 -65.5 140t-151.5 51h-346v-381z" />
    <glyph glyph-name="rcaron" unicode="&#x159;" horiz-adv-x="870" 
d="M84 1464h244l118 -174l119 174h242l-268 -340h-187zM82 1024h348v-178q56 91 138 144.5t167 53.5h101v-282h-224q-90 0 -136 -49.5t-46 -159.5v-553h-348v1024z" />
    <glyph glyph-name="Sacute" unicode="&#x15a;" horiz-adv-x="1499" 
d="M641 1534l117 350h213l-152 -350h-178zM428 479q0 -95 86 -153t242 -58q315 0 315 127q0 63 -77.5 91t-298.5 67q-50 9 -77 14q-257 46 -372 159t-115 296q0 102 49 185t133 137t193.5 83t232.5 29q136 0 246.5 -26.5t184.5 -71.5t124 -107.5t72.5 -132t22.5 -147.5h-357
q0 196 -293 196q-113 0 -182.5 -30t-69.5 -88q0 -75 64.5 -102.5t312.5 -72.5q74 -13 128 -25t116.5 -31t106 -41t86.5 -54.5t68.5 -71.5t41.5 -92t16 -117q0 -100 -40.5 -183.5t-119.5 -146t-205.5 -97.5t-289.5 -35q-145 0 -263.5 28t-198.5 75t-134.5 111.5t-79 135.5
t-24.5 149h356z" />
    <glyph glyph-name="sacute" unicode="&#x15b;" horiz-adv-x="1165" 
d="M475 1124l117 351h213l-152 -351h-178zM375 346q0 -131 231 -131q95 0 132.5 18t37.5 52t-40 48.5t-201 47.5q-235 48 -343 126.5t-108 205.5q0 86 39.5 151.5t108 104.5t154 58.5t183.5 19.5q107 0 193.5 -21.5t143.5 -57t95.5 -83.5t55 -99t16.5 -106h-317
q0 131 -185 131q-153 0 -153 -72q0 -32 41.5 -48t196.5 -50q45 -10 71 -16q48 -11 74 -17.5t69 -18.5t66.5 -23t55.5 -27.5t50 -36t35.5 -45t25 -57.5t7.5 -70q0 -158 -136 -254t-384 -96q-129 0 -233.5 32t-168 85t-97.5 117t-34 132h318z" />
    <glyph glyph-name="Scircumflex" unicode="&#x15c;" horiz-adv-x="1499" 
d="M391 1540l268 340h187l268 -340h-244l-118 174l-119 -174h-242zM428 479q0 -95 86 -153t242 -58q315 0 315 127q0 63 -77.5 91t-298.5 67q-50 9 -77 14q-257 46 -372 159t-115 296q0 102 49 185t133 137t193.5 83t232.5 29q136 0 246.5 -26.5t184.5 -71.5t124 -107.5
t72.5 -132t22.5 -147.5h-357q0 196 -293 196q-113 0 -182.5 -30t-69.5 -88q0 -75 64.5 -102.5t312.5 -72.5q74 -13 128 -25t116.5 -31t106 -41t86.5 -54.5t68.5 -71.5t41.5 -92t16 -117q0 -100 -40.5 -183.5t-119.5 -146t-205.5 -97.5t-289.5 -35q-145 0 -263.5 28
t-198.5 75t-134.5 111.5t-79 135.5t-24.5 149h356z" />
    <glyph glyph-name="scircumflex" unicode="&#x15d;" horiz-adv-x="1165" 
d="M223 1130l269 340h186l268 -340h-244l-118 175l-119 -175h-242zM375 346q0 -131 231 -131q95 0 132.5 18t37.5 52t-40 48.5t-201 47.5q-235 48 -343 126.5t-108 205.5q0 86 39.5 151.5t108 104.5t154 58.5t183.5 19.5q107 0 193.5 -21.5t143.5 -57t95.5 -83.5t55 -99
t16.5 -106h-317q0 131 -185 131q-153 0 -153 -72q0 -32 41.5 -48t196.5 -50q45 -10 71 -16q48 -11 74 -17.5t69 -18.5t66.5 -23t55.5 -27.5t50 -36t35.5 -45t25 -57.5t7.5 -70q0 -158 -136 -254t-384 -96q-129 0 -233.5 32t-168 85t-97.5 117t-34 132h318z" />
    <glyph glyph-name="Scedilla" unicode="&#x15e;" horiz-adv-x="1499" 
d="M428 479q0 -95 86 -153t242 -58q315 0 315 127q0 63 -77.5 91t-298.5 67q-50 9 -77 14q-257 46 -372 159t-115 296q0 102 49 185t133 137t193.5 83t232.5 29q136 0 246.5 -26.5t184.5 -71.5t124 -107.5t72.5 -132t22.5 -147.5h-357q0 196 -293 196q-113 0 -182.5 -30
t-69.5 -88q0 -75 64.5 -102.5t312.5 -72.5q74 -13 128 -25t116.5 -31t106 -41t86.5 -54.5t68.5 -71.5t41.5 -92t16 -117q0 -196 -149 -321.5t-438 -138.5l-25 -80q94 -11 144.5 -50.5t50.5 -123.5q0 -66 -28.5 -114.5t-74.5 -73.5t-105 -36.5t-117 -8.5t-114 16v170
q74 -21 129 -22t86 18t31 57q0 21 -5.5 34t-12 20.5t-26.5 10.5t-35 3.5t-52 0.5h-12h-15l37 179q-160 9 -283 54t-195.5 114.5t-109 152.5t-36.5 176h356z" />
    <glyph glyph-name="scedilla" unicode="&#x15f;" horiz-adv-x="1165" 
d="M375 346q0 -131 231 -131q95 0 132.5 18t37.5 52t-40 48.5t-201 47.5q-235 48 -343 126.5t-108 205.5q0 86 39.5 151.5t108 104.5t154 58.5t183.5 19.5q107 0 193.5 -21.5t143.5 -57t95.5 -83.5t55 -99t16.5 -106h-317q0 131 -185 131q-153 0 -153 -72q0 -32 41.5 -48
t196.5 -50q45 -10 71 -16q48 -11 74 -17.5t69 -18.5t66.5 -23t55.5 -27.5t50 -36t35.5 -45t25 -57.5t7.5 -70q0 -142 -114 -235.5t-322 -110.5l-25 -82q94 -11 144.5 -50.5t50.5 -123.5q0 -66 -28.5 -114.5t-74 -73.5t-104.5 -36.5t-117 -8.5t-114 16v170q74 -21 129 -22
t85.5 18t30.5 57q0 21 -5.5 34t-12 20.5t-26.5 10.5t-35 3.5t-52 0.5h-12h-14l36 179q-115 7 -207.5 41.5t-149 86t-86.5 112t-30 124.5h318z" />
    <glyph glyph-name="Scaron" unicode="&#x160;" horiz-adv-x="1499" 
d="M389 1874h244l119 -174l118 174h242l-268 -340h-187zM428 479q0 -95 86 -153t242 -58q315 0 315 127q0 63 -77.5 91t-298.5 67q-50 9 -77 14q-257 46 -372 159t-115 296q0 102 49 185t133 137t193.5 83t232.5 29q136 0 246.5 -26.5t184.5 -71.5t124 -107.5t72.5 -132
t22.5 -147.5h-357q0 196 -293 196q-113 0 -182.5 -30t-69.5 -88q0 -75 64.5 -102.5t312.5 -72.5q74 -13 128 -25t116.5 -31t106 -41t86.5 -54.5t68.5 -71.5t41.5 -92t16 -117q0 -100 -40.5 -183.5t-119.5 -146t-205.5 -97.5t-289.5 -35q-145 0 -263.5 28t-198.5 75
t-134.5 111.5t-79 135.5t-24.5 149h356z" />
    <glyph glyph-name="scaron" unicode="&#x161;" horiz-adv-x="1165" 
d="M221 1464h244l119 -174l118 174h242l-268 -340h-187zM375 346q0 -131 231 -131q95 0 132.5 18t37.5 52t-40 48.5t-201 47.5q-235 48 -343 126.5t-108 205.5q0 86 39.5 151.5t108 104.5t154 58.5t183.5 19.5q107 0 193.5 -21.5t143.5 -57t95.5 -83.5t55 -99t16.5 -106
h-317q0 131 -185 131q-153 0 -153 -72q0 -32 41.5 -48t196.5 -50q45 -10 71 -16q48 -11 74 -17.5t69 -18.5t66.5 -23t55.5 -27.5t50 -36t35.5 -45t25 -57.5t7.5 -70q0 -158 -136 -254t-384 -96q-129 0 -233.5 32t-168 85t-97.5 117t-34 132h318z" />
    <glyph glyph-name="uni0162" unicode="&#x162;" horiz-adv-x="1390" 
d="M57 1434h1278v-287h-463v-1147h-352v1147h-463v287zM573 -209q0 50 34.5 84.5t86.5 34.5q50 0 84.5 -35t34.5 -84q0 -40 -20 -70l-115 -217h-100l79 172q-37 11 -60.5 42t-23.5 73z" />
    <glyph glyph-name="uni0163" unicode="&#x163;" horiz-adv-x="835" 
d="M41 1024h133v246h348v-246h273v-283h-273v-342q0 -73 30 -94.5t107 -21.5h136v-283h-275q-168 0 -257 82t-89 242v417h-133v283zM387 -209q0 50 34.5 84.5t86.5 34.5q50 0 84.5 -35t34.5 -84q0 -39 -21 -70l-114 -217h-101l80 172q-37 11 -60.5 42t-23.5 73z" />
    <glyph glyph-name="Tcaron" unicode="&#x164;" horiz-adv-x="1390" 
d="M334 1874h244l118 -174l119 174h242l-269 -340h-186zM57 1434h1278v-287h-463v-1147h-352v1147h-463v287z" />
    <glyph glyph-name="tcaron" unicode="&#x165;" horiz-adv-x="1345" 
d="M866 1253q0 84 59.5 142.5t147.5 58.5q83 0 142 -59t59 -142q0 -58 -33 -112l-192 -363h-177l132 279q-62 20 -100 73t-38 123zM41 1024h133v246h348v-246h273v-283h-273v-342q0 -73 30 -94.5t107 -21.5h136v-283h-275q-168 0 -257 82t-89 242v417h-133v283z" />
    <glyph glyph-name="Tbar" unicode="&#x166;" horiz-adv-x="1390" 
d="M207 733h313v414h-463v287h1278v-287h-463v-414h312v-164h-312v-569h-352v569h-313v164z" />
    <glyph glyph-name="tbar" unicode="&#x167;" horiz-adv-x="835" 
d="M41 1026h133v246h348v-246h273v-207h-273v-147h273v-207h-273v-66q0 -77 32.5 -112t104.5 -35h136v-252h-275q-168 0 -257 81.5t-89 240.5v143h-133v207h133v147h-133v207z" />
    <glyph glyph-name="Utilde" unicode="&#x168;" horiz-adv-x="1533" 
d="M752 1767q16 -6 41 -16.5t36 -15t29.5 -11.5t27 -7.5t22.5 -2t21.5 3t18 11t18.5 18t17 27t18 36.5l156 -53q-22 -61 -49 -104t-53 -67.5t-61 -35t-61 -12.5t-66 8t-63.5 18t-64.5 25q-102 40 -121 44q-47 10 -75 -27q-17 -23 -37 -70l-158 55q21 58 47 100t51.5 67
t58 37t59.5 14.5t63 -4t62 -15t63 -23.5zM1079 1434h353v-840q0 -313 -166.5 -463.5t-499.5 -150.5t-498.5 150t-165.5 464v840h353v-840q0 -172 74 -250t237 -78t238 78.5t75 249.5v840z" />
    <glyph glyph-name="utilde" unicode="&#x169;" horiz-adv-x="1318" 
d="M629 1358q15 -6 40.5 -16.5t36.5 -15t30 -11.5t27.5 -7.5t22.5 -2t21.5 3t18 11t18.5 18t17 27t18 36.5l155 -53q-22 -61 -49 -104t-53 -67.5t-61 -35t-61 -12.5t-66 8t-63.5 18t-64.5 25q-102 40 -122 44q-47 9 -75 -29q-17 -23 -36 -69l-158 56q21 58 47 100t51.5 67
t58 37t59.5 14.5t63 -4t62 -15t63 -23.5zM1309 283v-283h-217q-120 0 -185 48t-82 147q-56 -102 -152.5 -158.5t-219.5 -56.5q-187 0 -279 108t-92 297v639h348v-547q0 -106 41 -160.5t145 -54.5q89 0 145 58t56 161v543h348v-598q0 -82 26.5 -112.5t100.5 -30.5h17z" />
    <glyph glyph-name="Umacron" unicode="&#x16a;" horiz-adv-x="1533" 
d="M483 1751h570v-164h-570v164zM1079 1434h353v-840q0 -313 -166.5 -463.5t-499.5 -150.5t-498.5 150t-165.5 464v840h353v-840q0 -172 74 -250t237 -78t238 78.5t75 249.5v840z" />
    <glyph glyph-name="umacron" unicode="&#x16b;" horiz-adv-x="1318" 
d="M344 1341h569v-163h-569v163zM1309 283v-283h-217q-120 0 -185 48t-82 147q-56 -102 -152.5 -158.5t-219.5 -56.5q-187 0 -279 108t-92 297v639h348v-547q0 -106 41 -160.5t145 -54.5q89 0 145 58t56 161v543h348v-598q0 -82 26.5 -112.5t100.5 -30.5h17z" />
    <glyph glyph-name="Ubreve" unicode="&#x16c;" horiz-adv-x="1533" 
d="M424 1905h182q0 -85 42.5 -133t119.5 -48q79 0 120.5 47.5t41.5 133.5h182q0 -96 -29 -169t-78.5 -115t-109 -62.5t-127.5 -20.5t-127.5 20.5t-109 62.5t-78.5 115t-29 169zM1079 1434h353v-840q0 -313 -166.5 -463.5t-499.5 -150.5t-498.5 150t-165.5 464v840h353v-840
q0 -172 74 -250t237 -78t238 78.5t75 249.5v840z" />
    <glyph glyph-name="ubreve" unicode="&#x16d;" horiz-adv-x="1318" 
d="M285 1495h182q0 -85 42 -132.5t120 -47.5q79 0 120.5 47t41.5 133h182q0 -96 -29 -169t-78.5 -115t-109 -62.5t-127.5 -20.5t-127.5 20.5t-109 62.5t-78.5 115t-29 169zM1309 283v-283h-217q-120 0 -185 48t-82 147q-56 -102 -152.5 -158.5t-219.5 -56.5q-187 0 -279 108
t-92 297v639h348v-547q0 -106 41 -160.5t145 -54.5q89 0 145 58t56 161v543h348v-598q0 -82 26.5 -112.5t100.5 -30.5h17z" />
    <glyph glyph-name="Uring" unicode="&#x16e;" horiz-adv-x="1533" 
d="M559 1587q-88 87 -88 209t87.5 209.5t209.5 87.5t209.5 -87.5t87.5 -209.5t-87.5 -209.5t-209.5 -87.5t-209 88zM672 1893q-43 -43 -43 -97t42.5 -96.5t96.5 -42.5t96.5 42.5t42.5 96.5t-42.5 96.5t-96.5 42.5t-96 -42zM1079 1434h353v-840q0 -313 -166.5 -463.5
t-499.5 -150.5t-498.5 150t-165.5 464v840h353v-840q0 -172 74 -250t237 -78t238 78.5t75 249.5v840z" />
    <glyph glyph-name="uring" unicode="&#x16f;" horiz-adv-x="1318" 
d="M332 1386q0 122 88 209.5t209 87.5t209 -87.5t88 -209.5q0 -121 -87.5 -208.5t-209.5 -87.5t-209.5 87.5t-87.5 208.5zM532 1483q-43 -43 -43 -97t43 -96.5t97 -42.5t96.5 42.5t42.5 96.5t-42.5 97t-96.5 43t-97 -43zM1309 283v-283h-217q-120 0 -185 48t-82 147
q-56 -102 -152.5 -158.5t-219.5 -56.5q-187 0 -279 108t-92 297v639h348v-547q0 -106 41 -160.5t145 -54.5q89 0 145 58t56 161v543h348v-598q0 -82 26.5 -112.5t100.5 -30.5h17z" />
    <glyph glyph-name="Uhungarumlaut" unicode="&#x170;" horiz-adv-x="1533" 
d="M856 1534l117 350h213l-152 -350h-178zM496 1534l116 350h213l-151 -350h-178zM1079 1434h353v-840q0 -313 -166.5 -463.5t-499.5 -150.5t-498.5 150t-165.5 464v840h353v-840q0 -172 74 -250t237 -78t238 78.5t75 249.5v840z" />
    <glyph glyph-name="uhungarumlaut" unicode="&#x171;" horiz-adv-x="1318" 
d="M727 1124l117 351h213l-152 -351h-178zM367 1124l116 351h213l-151 -351h-178zM1309 283v-283h-217q-120 0 -185 48t-82 147q-56 -102 -152.5 -158.5t-219.5 -56.5q-187 0 -279 108t-92 297v639h348v-547q0 -106 41 -160.5t145 -54.5q89 0 145 58t56 161v543h348v-598
q0 -82 26.5 -112.5t100.5 -30.5h17z" />
    <glyph glyph-name="Uogonek" unicode="&#x172;" horiz-adv-x="1533" 
d="M1079 1434h353v-840q0 -278 -130.5 -427.5t-392.5 -178.5l4 -4q-45 -51 -67 -79t-41 -68.5t-19 -78.5q0 -132 277 -55v-184q-51 -13 -109 -17.5t-120 3.5t-111.5 29.5t-81 66.5t-31.5 108q0 116 135 271q-323 5 -483 155t-160 459v840h353v-840q0 -172 74 -250t237 -78
t238 78.5t75 249.5v840z" />
    <glyph glyph-name="uogonek" unicode="&#x173;" horiz-adv-x="1318" 
d="M1309 283v-283h-174q-53 -63 -78 -106t-25 -91q0 -132 277 -55v-184q-51 -13 -109 -17.5t-120 3.5t-111.5 29.5t-81 66.5t-31.5 108q0 106 125 258q-132 37 -156 183q-56 -102 -152.5 -158.5t-219.5 -56.5q-187 0 -279 108t-92 297v639h348v-547q0 -106 41 -160.5
t145 -54.5q89 0 145 58t56 161v543h348v-598q0 -82 26.5 -112.5t100.5 -30.5h17z" />
    <glyph glyph-name="Wcircumflex" unicode="&#x174;" horiz-adv-x="2232" 
d="M756 1540l268 340h186l269 -340h-244l-119 174l-119 -174h-241zM498 0l-441 1434h357l270 -983l264 983h322l262 -983l270 983h373l-455 -1434h-368l-244 897l-244 -897h-366z" />
    <glyph glyph-name="wcircumflex" unicode="&#x175;" horiz-adv-x="1701" 
d="M492 1130l268 340h186l268 -340h-243l-119 175l-119 -175h-241zM41 1024h350l133 -590l162 590h330l162 -590l133 590h350l-307 -1024h-334l-168 645l-168 -645h-336z" />
    <glyph glyph-name="Ycircumflex" unicode="&#x176;" horiz-adv-x="1662" 
d="M473 1540l268 340h187l268 -340h-244l-118 174l-119 -174h-242zM655 430l-598 1004h406l368 -666l369 666h408l-600 -1004v-430h-353v430z" />
    <glyph glyph-name="ycircumflex" unicode="&#x177;" horiz-adv-x="1261" 
d="M272 1130l269 340h186l268 -340h-243l-119 175l-119 -175h-242zM1221 1024l-428 -1044q-35 -85 -60.5 -135.5t-63.5 -100t-79.5 -74.5t-107.5 -45.5t-149 -27.5t-202 -7v283q96 0 152.5 5.5t89.5 23t46 35.5t30 57l10 24l-418 1006h350l242 -643l237 643h351z" />
    <glyph glyph-name="Ydieresis" unicode="&#x178;" horiz-adv-x="1662" 
d="M451 1700q0 65 45 109t112 44q65 0 109.5 -44.5t44.5 -108.5q0 -67 -44.5 -112.5t-109.5 -45.5q-67 0 -112 45t-45 113zM901 1700q0 65 45.5 109t112.5 44q65 0 109 -44.5t44 -108.5q0 -67 -44 -112.5t-109 -45.5q-67 0 -112.5 45t-45.5 113zM655 430l-598 1004h406
l368 -666l369 666h408l-600 -1004v-430h-353v430z" />
    <glyph glyph-name="Zacute" unicode="&#x179;" horiz-adv-x="1302" 
d="M543 1534l116 350h213l-151 -350h-178zM1192 1434v-279l-680 -868h733v-287h-1188v279l680 868h-663v287h1118z" />
    <glyph glyph-name="zacute" unicode="&#x17a;" horiz-adv-x="1040" 
d="M418 1124l117 351h213l-152 -351h-178zM963 1024v-244l-457 -497h495v-283h-954v244l459 497h-443v283h900z" />
    <glyph glyph-name="Zdotaccent" unicode="&#x17b;" horiz-adv-x="1302" 
d="M494 1700q0 65 45 109t112 44q65 0 109.5 -44.5t44.5 -108.5q0 -67 -44.5 -112.5t-109.5 -45.5q-67 0 -112 45t-45 113zM1192 1434v-279l-680 -868h733v-287h-1188v279l680 868h-663v287h1118z" />
    <glyph glyph-name="zdotaccent" unicode="&#x17c;" horiz-adv-x="1040" 
d="M365 1290q0 65 45 109.5t112 44.5q64 0 109 -45t45 -109q0 -67 -44.5 -112t-109.5 -45q-68 0 -112.5 44.5t-44.5 112.5zM963 1024v-244l-457 -497h495v-283h-954v244l459 497h-443v283h900z" />
    <glyph glyph-name="Zcaron" unicode="&#x17d;" horiz-adv-x="1302" 
d="M289 1874h243l119 -174l119 174h242l-269 -340h-186zM1192 1434v-279l-680 -868h733v-287h-1188v279l680 868h-663v287h1118z" />
    <glyph glyph-name="zcaron" unicode="&#x17e;" horiz-adv-x="1040" 
d="M160 1464h243l119 -174l119 174h242l-269 -340h-186zM963 1024v-244l-457 -497h495v-283h-954v244l459 497h-443v283h900z" />
    <glyph glyph-name="longs" unicode="&#x17f;" horiz-adv-x="716" 
d="M676 1174h-119q-75 0 -106 -21.5t-31 -81.5v-1069h-348v1131q0 160 88.5 241.5t257.5 81.5h258v-282z" />
    <glyph glyph-name="florin" unicode="&#x192;" horiz-adv-x="866" 
d="M823 1219h-118q-72 0 -105 -35.5t-33 -112.5v-51h258v-283h-258v-823q0 -161 -88.5 -242.5t-257.5 -81.5h-258v252h121q70 0 102.5 35.5t32.5 112.5v747h-123v283h123v113q0 160 88.5 241.5t257.5 81.5h258v-237z" />
    <glyph glyph-name="uni0218" unicode="&#x218;" horiz-adv-x="1499" 
d="M428 479q0 -95 86 -153t242 -58q315 0 315 127q0 63 -77.5 91t-298.5 67q-50 9 -77 14q-257 46 -372 159t-115 296q0 102 49 185t133 137t193.5 83t232.5 29q136 0 246.5 -26.5t184.5 -71.5t124 -107.5t72.5 -132t22.5 -147.5h-357q0 196 -293 196q-113 0 -182.5 -30
t-69.5 -88q0 -75 64.5 -102.5t312.5 -72.5q74 -13 128 -25t116.5 -31t106 -41t86.5 -54.5t68.5 -71.5t41.5 -92t16 -117q0 -100 -40.5 -183.5t-119.5 -146t-205.5 -97.5t-289.5 -35q-145 0 -263.5 28t-198.5 75t-134.5 111.5t-79 135.5t-24.5 149h356zM627 -209
q0 50 34.5 84.5t86.5 34.5q49 0 83.5 -34.5t34.5 -84.5q0 -40 -20 -70l-115 -217h-100l80 172q-37 11 -60.5 42t-23.5 73z" />
    <glyph glyph-name="uni0219" unicode="&#x219;" horiz-adv-x="1165" 
d="M375 346q0 -131 231 -131q95 0 132.5 18t37.5 52t-40 48.5t-201 47.5q-235 48 -343 126.5t-108 205.5q0 86 39.5 151.5t108 104.5t154 58.5t183.5 19.5q107 0 193.5 -21.5t143.5 -57t95.5 -83.5t55 -99t16.5 -106h-317q0 131 -185 131q-153 0 -153 -72q0 -32 41.5 -48
t196.5 -50q45 -10 71 -16q48 -11 74 -17.5t69 -18.5t66.5 -23t55.5 -27.5t50 -36t35.5 -45t25 -57.5t7.5 -70q0 -158 -136 -254t-384 -96q-129 0 -233.5 32t-168 85t-97.5 117t-34 132h318zM465 -209q0 50 34.5 84.5t86.5 34.5q50 0 84.5 -35t34.5 -84q0 -39 -21 -70
l-115 -217h-100l80 172q-37 11 -60.5 42t-23.5 73z" />
    <glyph glyph-name="uni021A" unicode="&#x21a;" horiz-adv-x="1390" 
d="M57 1434h1278v-287h-463v-1147h-352v1147h-463v287zM571 -209q0 50 34.5 84.5t86.5 34.5q50 0 84.5 -35t34.5 -84q0 -40 -20 -70l-115 -217h-101l80 172q-37 11 -60.5 42t-23.5 73z" />
    <glyph glyph-name="uni021B" unicode="&#x21b;" horiz-adv-x="835" 
d="M41 1024h133v246h348v-246h273v-283h-273v-342q0 -73 30 -94.5t107 -21.5h136v-283h-275q-168 0 -257 82t-89 242v417h-133v283zM387 -209q0 50 34.5 84.5t86.5 34.5q50 0 84.5 -35t34.5 -84q0 -39 -21 -70l-114 -217h-101l80 172q-37 11 -60.5 42t-23.5 73z" />
    <glyph glyph-name="uni0237" unicode="&#x237;" horiz-adv-x="501" 
d="M51 1323q0 80 58.5 136.5t142.5 56.5q79 0 135.5 -56.5t56.5 -136.5q0 -86 -56 -143.5t-136 -57.5q-85 0 -143 57.5t-58 143.5zM-170 -127h111q76 0 106.5 22.5t30.5 94.5v1034h348v-1112q0 -160 -88.5 -241t-257.5 -81h-250v283z" />
    <glyph glyph-name="circumflex" unicode="&#x2c6;" horiz-adv-x="886" 
d="M84 1130l268 340h187l268 -340h-244l-119 175l-118 -175h-242z" />
    <glyph glyph-name="caron" unicode="&#x2c7;" horiz-adv-x="886" 
d="M82 1464h244l118 -174l119 174h242l-268 -340h-187z" />
    <glyph glyph-name="uni02C9" unicode="&#x2c9;" horiz-adv-x="733" 
d="M82 1352h569v-164h-569v164z" />
    <glyph glyph-name="breve" unicode="&#x2d8;" horiz-adv-x="851" 
d="M82 1495h182q0 -85 42 -132.5t120 -47.5q79 0 120.5 47t41.5 133h182q0 -96 -29 -169t-78.5 -115t-109 -62.5t-127.5 -20.5t-127.5 20.5t-109 62.5t-78.5 115t-29 169z" />
    <glyph glyph-name="dotaccent" unicode="&#x2d9;" horiz-adv-x="477" 
d="M82 1290q0 65 45.5 109.5t112.5 44.5q64 0 108.5 -44.5t44.5 -109.5q0 -67 -44 -112t-109 -45q-68 0 -113 45t-45 112z" />
    <glyph glyph-name="ring" unicode="&#x2da;" horiz-adv-x="745" 
d="M76 1386q0 122 88 209.5t209 87.5t209 -87.5t88 -209.5q0 -121 -87.5 -208.5t-209.5 -87.5t-209.5 87.5t-87.5 208.5zM276 1483q-43 -43 -43 -97t43 -96.5t97 -42.5t96.5 42.5t42.5 96.5t-42.5 97t-96.5 43t-97 -43z" />
    <glyph glyph-name="ogonek" unicode="&#x2db;" horiz-adv-x="616" 
d="M289 59l96 -77q-45 -51 -67 -79t-41 -68.5t-19 -78.5q0 -132 277 -55v-184q-51 -13 -109 -17.5t-120 3.5t-111.5 29.5t-81 66.5t-31.5 108q0 28 7 57t22.5 59t28.5 53t38 54t37.5 46t40 45.5t33.5 37.5z" />
    <glyph glyph-name="tilde" unicode="&#x2dc;" horiz-adv-x="972" 
d="M485 1358q15 -6 40.5 -16.5t36.5 -15t30 -11.5t27.5 -7.5t22.5 -2t21.5 3t18 11t18.5 18t17 27t18 36.5l156 -53q-22 -61 -49 -104t-53 -67.5t-61 -35t-61 -12.5t-66 8t-63.5 18t-64.5 25q-102 40 -122 44q-47 9 -75 -29q-17 -23 -36 -69l-158 56q21 58 47 100t51.5 67
t57.5 37t59 14.5t63 -4t62 -15t63 -23.5z" />
    <glyph glyph-name="hungarumlaut" unicode="&#x2dd;" horiz-adv-x="854" 
d="M442 1124l117 351h213l-151 -351h-179zM82 1124l117 351h213l-152 -351h-178z" />
    <glyph glyph-name="uni0326" unicode="&#x326;" horiz-adv-x="425" 
d="M92 -209q0 50 34.5 84.5t86.5 34.5q49 0 84 -35t35 -84q0 -39 -21 -70l-114 -217h-101l80 172q-37 11 -60.5 42t-23.5 73z" />
    <glyph glyph-name="uni0394" unicode="&#x394;" horiz-adv-x="1542" 
d="M51 0l574 1436h293l573 -1436h-1440zM436 272h672l-336 840z" />
    <glyph glyph-name="uni03A9" unicode="&#x3a9;" horiz-adv-x="1748" 
d="M952 272q200 87 277.5 205t77.5 297q0 119 -60 210t-157.5 137t-215.5 46q-117 0 -214 -46t-156.5 -137t-59.5 -210q0 -179 77.5 -297t277.5 -205v-272h-711v272h332q-155 98 -243.5 233.5t-88.5 299.5q0 154 63 279t171.5 204.5t249.5 122.5t302 43q128 0 245.5 -26.5
t216.5 -80.5t172 -130.5t114 -182t41 -229.5q0 -164 -88.5 -299.5t-243.5 -233.5h330v-272h-709v272z" />
    <glyph glyph-name="uni03BC" unicode="&#x3bc;" horiz-adv-x="1308" 
d="M1309 283v-283h-217q-120 0 -185 48t-82 147q-56 -102 -152.5 -158.5t-219.5 -56.5h-23v-390h-348v1434h348v-547q0 -106 41 -160.5t145 -54.5q89 0 145 58t56 161v543h348v-598q0 -82 26.5 -112.5t100.5 -30.5h17z" />
    <glyph glyph-name="pi" unicode="&#x3c0;" horiz-adv-x="1347" 
d="M82 1024h1163v-1024h-352v737h-295l-133 -737h-352l133 737h-164v287z" />
    <glyph glyph-name="Wgrave" unicode="&#x1e80;" horiz-adv-x="2232" 
d="M1188 1534h-178l-158 350h213zM498 0l-441 1434h357l270 -983l264 983h322l262 -983l270 983h373l-455 -1434h-368l-244 897l-244 -897h-366z" />
    <glyph glyph-name="wgrave" unicode="&#x1e81;" horiz-adv-x="1701" 
d="M922 1124h-179l-157 351h213zM41 1024h350l133 -590l162 590h330l162 -590l133 590h350l-307 -1024h-334l-168 645l-168 -645h-336z" />
    <glyph glyph-name="Wacute" unicode="&#x1e82;" horiz-adv-x="2232" 
d="M1049 1534l116 350h213l-151 -350h-178zM498 0l-441 1434h357l270 -983l264 983h322l262 -983l270 983h373l-455 -1434h-368l-244 897l-244 -897h-366z" />
    <glyph glyph-name="wacute" unicode="&#x1e83;" horiz-adv-x="1701" 
d="M784 1124l117 351h213l-151 -351h-179zM41 1024h350l133 -590l162 590h330l162 -590l133 590h350l-307 -1024h-334l-168 645l-168 -645h-336z" />
    <glyph glyph-name="Wdieresis" unicode="&#x1e84;" horiz-adv-x="2232" 
d="M733 1700q0 65 45.5 109t112.5 44q65 0 109 -44.5t44 -108.5q0 -67 -44 -112.5t-109 -45.5q-67 0 -112.5 45t-45.5 113zM1184 1700q0 65 45 109t112 44q65 0 109.5 -44.5t44.5 -108.5q0 -67 -44.5 -112.5t-109.5 -45.5q-67 0 -112 45t-45 113zM498 0l-441 1434h357
l270 -983l264 983h322l262 -983l270 983h373l-455 -1434h-368l-244 897l-244 -897h-366z" />
    <glyph glyph-name="wdieresis" unicode="&#x1e85;" horiz-adv-x="1701" 
d="M469 1290q0 65 45.5 109.5t112.5 44.5q64 0 108.5 -44.5t44.5 -109.5q0 -67 -44 -112t-109 -45q-68 0 -113 45t-45 112zM920 1290q0 65 45 109.5t112 44.5q65 0 109.5 -45t44.5 -109q0 -67 -44.5 -112t-109.5 -45q-67 0 -112 44.5t-45 112.5zM41 1024h350l133 -590
l162 590h330l162 -590l133 590h350l-307 -1024h-334l-168 645l-168 -645h-336z" />
    <glyph glyph-name="endash" unicode="&#x2013;" horiz-adv-x="1003" 
d="M92 625h819v-226h-819v226z" />
    <glyph glyph-name="emdash" unicode="&#x2014;" horiz-adv-x="1208" 
d="M92 625h1024v-226h-1024v226z" />
    <glyph glyph-name="quoteleft" unicode="&#x2018;" horiz-adv-x="591" 
d="M115 1075l202 379h177l-132 -280q62 -20 100 -73.5t38 -123.5q0 -84 -59 -141.5t-148 -57.5q-83 0 -142 58t-59 141q0 50 23 98z" />
    <glyph glyph-name="quoteright" unicode="&#x2019;" horiz-adv-x="591" 
d="M92 1253q0 84 59.5 142.5t147.5 58.5q83 0 142 -59t59 -142q0 -58 -33 -112l-193 -363h-176l131 279q-62 20 -99.5 73t-37.5 123z" />
    <glyph glyph-name="quotesinglbase" unicode="&#x201a;" horiz-adv-x="450" 
d="M344 -39l-135 -252h-111l86 187q-41 12 -66.5 47.5t-25.5 81.5q0 55 38.5 93t96.5 38q54 0 92.5 -38.5t38.5 -92.5q0 -39 -14 -64z" />
    <glyph glyph-name="quotedblleft" unicode="&#x201c;" horiz-adv-x="1087" 
d="M612 1075l203 379h176l-131 -280q62 -20 99.5 -73.5t37.5 -123.5q0 -84 -58.5 -141.5t-147.5 -57.5q-83 0 -142 58t-59 141q0 52 22 98zM115 1075l202 379h177l-132 -280q62 -20 100 -73.5t38 -123.5q0 -84 -59 -141.5t-148 -57.5q-83 0 -142 58t-59 141q0 50 23 98z" />
    <glyph glyph-name="quotedblright" unicode="&#x201d;" horiz-adv-x="1087" 
d="M92 1253q0 84 59.5 142.5t147.5 58.5q83 0 142 -59t59 -142q0 -58 -33 -112l-193 -363h-176l131 279q-62 20 -99.5 73t-37.5 123zM590 1253q0 84 59.5 142.5t147.5 58.5q83 0 141.5 -59t58.5 -142q0 -59 -32 -112l-193 -363h-176l131 279q-62 20 -99.5 73t-37.5 123z" />
    <glyph glyph-name="quotedblbase" unicode="&#x201e;" horiz-adv-x="757" 
d="M88 -123v451h256l-72 -451h-184zM416 -123v451h256l-72 -451h-184z" />
    <glyph glyph-name="dagger" unicode="&#x2020;" horiz-adv-x="868" 
d="M295 1434h280v-410h228v-281h-228v-1153h-280v1153h-227v281h227v410z" />
    <glyph glyph-name="daggerdbl" unicode="&#x2021;" horiz-adv-x="868" 
d="M68 1147h227v287h280v-287h228v-281h-228v-708h228v-281h-228v-287h-280v287h-227v281h227v708h-227v281z" />
    <glyph glyph-name="bullet" unicode="&#x2022;" horiz-adv-x="649" 
d="M102 514q0 93 65 156t161 63q92 0 155.5 -63.5t63.5 -155.5q0 -96 -63 -160.5t-156 -64.5q-97 0 -161.5 64t-64.5 161z" />
    <glyph glyph-name="ellipsis" unicode="&#x2026;" horiz-adv-x="1773" 
d="M92 186q0 84 59.5 142.5t147.5 58.5q83 0 142 -59t59 -142q0 -88 -58.5 -147t-142.5 -59q-89 0 -148 58.5t-59 147.5zM684 186q0 84 59.5 142.5t147.5 58.5q83 0 142 -59t59 -142q0 -88 -58.5 -147t-142.5 -59q-89 0 -148 58.5t-59 147.5zM1276 186q0 84 59.5 142.5
t147.5 58.5q83 0 141.5 -59t58.5 -142q0 -88 -58 -147t-142 -59q-89 0 -148 58.5t-59 147.5z" />
    <glyph glyph-name="perthousand" unicode="&#x2030;" horiz-adv-x="3049" 
d="M176 686q-108 117 -108 326t107.5 325.5t299.5 116.5t300 -116.5t108 -325.5t-108 -326t-300 -117t-299 117zM670 0l573 1434h217l-573 -1434h-217zM475 1282q-97 0 -145.5 -69.5t-48.5 -200.5t48.5 -201t145.5 -70q96 0 145.5 70.5t49.5 200.5t-49.5 200t-145.5 70z
M1355 97q-108 116 -108 325t108 325.5t300 116.5t299.5 -116.5t107.5 -325.5t-107.5 -325.5t-299.5 -116.5t-300 117zM2273 97q-108 116 -108 325t107.5 325.5t299.5 116.5t300 -116.5t108 -325.5t-108 -325.5t-300 -116.5t-299 117zM1655 692q-97 0 -146 -69.5t-49 -200.5
t49 -200.5t146 -69.5q96 0 145 70t49 200t-49 200t-145 70zM2572 692q-97 0 -145.5 -69.5t-48.5 -200.5t48.5 -200.5t145.5 -69.5q96 0 145.5 70t49.5 200t-49.5 200t-145.5 70z" />
    <glyph glyph-name="guilsinglleft" unicode="&#x2039;" horiz-adv-x="718" 
d="M82 512l272 477h283l-275 -477l275 -475h-283z" />
    <glyph glyph-name="guilsinglright" unicode="&#x203a;" horiz-adv-x="718" 
d="M637 512l-272 -475h-283l276 475l-276 477h283z" />
    <glyph glyph-name="fraction" unicode="&#x2044;" horiz-adv-x="925" 
d="M68 0l573 1434h219l-573 -1434h-219z" />
    <glyph glyph-name="Euro" unicode="&#x20ac;" horiz-adv-x="1730" 
d="M0 958h221q71 231 269.5 363.5t459.5 132.5q136 0 253 -36t198.5 -96t140 -137.5t86 -159.5t27.5 -163h-357q0 122 -99 213.5t-249 91.5q-112 0 -209 -51t-149 -158h479v-163h-524q-4 -50 -4 -78q0 -37 2 -55h526v-164h-487q51 -117 150.5 -174.5t215.5 -57.5
q150 0 249 91.5t99 213.5h357q0 -81 -27.5 -163t-86 -159t-140 -137t-198.5 -96t-253 -36q-268 0 -468 138.5t-267 379.5h-215v164h188q-2 18 -2 55q0 28 4 78h-190v163z" />
    <glyph glyph-name="trademark" unicode="&#x2122;" horiz-adv-x="1722" 
d="M82 1434h639v-144h-232v-573h-176v573h-231v144zM801 1434h168v-2l8 2l244 -525l243 525l9 -2v2h167v-717h-167v428l-191 -428h-123l-190 428v-428h-168v717z" />
    <glyph glyph-name="partialdiff" unicode="&#x2202;" horiz-adv-x="1312" 
d="M643 1434l498 -676q96 -131 96 -283q0 -222 -164 -358.5t-414 -136.5q-158 0 -289.5 60t-211.5 174.5t-80 260.5q0 131 65.5 237.5t175 169.5t246.5 81l-354 471h432zM659 266q92 0 157 58.5t65 150.5q0 90 -65.5 149.5t-156.5 59.5q-93 0 -159 -59.5t-66 -149.5
q0 -92 66 -150.5t159 -58.5z" />
    <glyph glyph-name="product" unicode="&#x220f;" horiz-adv-x="1255" 
d="M102 1436h1053v-1846h-276v1573h-500v-1573h-277v1846z" />
    <glyph glyph-name="summation" unicode="&#x2211;" horiz-adv-x="1081" 
d="M1016 1436v-242h-578l273 -680l-273 -682h578v-242h-948l368 924l-368 922h948z" />
    <glyph glyph-name="minus" unicode="&#x2212;" horiz-adv-x="880" 
d="M92 625h696v-226h-696v226z" />
    <glyph glyph-name="uni2215" unicode="&#x2215;" horiz-adv-x="1048" 
d="M68 0l696 1434h219l-696 -1434h-219z" />
    <glyph glyph-name="uni2219" unicode="&#x2219;" horiz-adv-x="612" 
d="M102 512q0 84 59.5 142.5t147.5 58.5q83 0 142 -59t59 -142q0 -88 -58.5 -147.5t-142.5 -59.5q-89 0 -148 59t-59 148z" />
    <glyph glyph-name="radical" unicode="&#x221a;" horiz-adv-x="1654" 
d="M68 651h501l213 -567l525 1352h280l-653 -1641h-311l-230 586h-325v270z" />
    <glyph glyph-name="infinity" unicode="&#x221e;" horiz-adv-x="1261" 
d="M1178 600q0 -133 -93.5 -226t-224.5 -93q-143 0 -227 112q-85 -112 -232 -112q-132 0 -225.5 93t-93.5 226q0 131 93.5 224.5t225.5 93.5q146 0 232 -113q82 113 227 113q130 0 224 -94t94 -224zM700 600q0 -68 47 -115t115 -47q66 0 113 47.5t47 114.5q0 66 -47 113
t-113 47q-67 0 -114.5 -47t-47.5 -113zM565 594q0 67 -46.5 114.5t-112.5 47.5q-68 0 -115 -47t-47 -115q0 -66 47.5 -114t114.5 -48q66 0 112.5 48t46.5 114z" />
    <glyph glyph-name="integral" unicode="&#x222b;" horiz-adv-x="815" 
d="M764 1171q-110 0 -146 -38.5t-36 -122.5v-1082q0 -56 -2.5 -94t-12.5 -75t-25 -59t-43.5 -43t-66 -32t-94 -20t-125 -12t-162.5 -3v283q58 0 95 10.5t55.5 33.5t25 50t6.5 70v1079q0 56 3 94t12.5 75t25 59t44 43t66 32t94 19.5t124.5 12t162 3.5v-283z" />
    <glyph glyph-name="approxequal" unicode="&#x2248;" horiz-adv-x="1277" 
d="M113 852q74 193 195 230t343 -56q57 -23 89.5 -35t68 -24t54 -12.5t39 1.5t32.5 14.5t23.5 29t23.5 44.5l20 48l187 -76l-19 -47q-39 -99 -84.5 -154t-111 -74.5t-146.5 -5t-196 61.5q-56 22 -88.5 34.5t-67.5 23.5t-54.5 12t-39.5 -1t-32.5 -14t-24.5 -29.5t-23 -44.5
l-20 -49l-187 76z" />
    <glyph glyph-name="notequal" unicode="&#x2260;" horiz-adv-x="970" 
d="M119 -205l129 410h-111v225h180l52 164h-232v225h303l129 412h281l-129 -412h113v-225h-185l-51 -164h236v-225h-306l-129 -410h-280z" />
    <glyph glyph-name="lessequal" unicode="&#x2264;" horiz-adv-x="923" 
d="M68 899l790 449v-289l-465 -240l465 -241v-287l-790 448v160zM68 225h790v-225h-790v225z" />
    <glyph glyph-name="greaterequal" unicode="&#x2265;" horiz-adv-x="923" 
d="M858 899v-160l-790 -448v287l462 241l-462 240v289zM858 225v-225h-790v225h790z" />
    <glyph glyph-name="uni24C5" unicode="&#x24c5;" horiz-adv-x="1660" 
d="M193 347q-99 169 -99 370t98.5 370.5t267.5 268t369 98.5q150 0 287 -58t235.5 -157t157 -235.5t58.5 -286.5t-58.5 -286.5t-157 -235.5t-235.5 -157t-287 -58q-200 0 -369 98.5t-267 268.5zM269 1043q-87 -150 -87 -326t87 -325.5t236 -236.5t324 -87q132 0 252.5 51.5
t207.5 138.5t138.5 207t51.5 252t-51.5 252t-138.5 207t-207.5 138.5t-252.5 51.5q-175 0 -324 -87t-236 -236zM909 1069q40 0 81.5 -10t85.5 -33t72 -71t28 -115q0 -54 -19 -97.5t-48 -70t-66 -44.5t-70.5 -25t-63.5 -7h-178v-231h-178v704h356zM731 733h164q42 0 71 26
t29 75q0 48 -29 73t-71 25h-164v-199z" />
    <glyph glyph-name="lozenge" unicode="&#x25ca;" horiz-adv-x="1132" 
d="M51 510l369 924h293l368 -924l-368 -920h-293zM807 510l-240 600l-239 -600l239 -598z" />
    <glyph glyph-name="fi" unicode="&#xfb01;" horiz-adv-x="1314" 
d="M870 1323q0 80 57.5 136.5t141.5 56.5q81 0 138 -56.5t57 -136.5q0 -86 -56.5 -143.5t-138.5 -57.5q-85 0 -142 57.5t-57 143.5zM43 1024h125v109q0 160 88.5 241.5t257.5 81.5h258v-282h-121q-77 0 -106 -19.5t-29 -87.5v-43h723v-1024h-348v741h-375v-741h-348v741
h-125v283z" />
    <glyph glyph-name="fl" unicode="&#xfb02;" horiz-adv-x="1396" 
d="M43 1024h125v109q0 160 88.5 241.5t257.5 81.5h729v-1030q0 -82 26.5 -112.5t100.5 -30.5h16v-283h-217q-146 0 -210 69.5t-64 217.5v887h-244q-77 0 -106 -19.5t-29 -87.5v-43h211v-283h-211v-741h-348v741h-125v283z" />
    <glyph glyph-name="zero.lnum_tnum" horiz-adv-x="1638" 
d="M320 175q-181 195 -181 542t180.5 542t499.5 195q320 0 500 -195t180 -542t-180 -542t-500 -195q-319 0 -499 195zM1062 1051q-82 116 -243 116t-242 -116t-81 -334t81 -334.5t242 -116.5t242.5 116.5t81.5 334.5t-81 334z" />
    <glyph glyph-name="one.lnum_tnum" horiz-adv-x="1638" 
d="M985 1434h250v-1434h-352v1071l-363 -166l-114 262z" />
    <glyph glyph-name="two.lnum_tnum" horiz-adv-x="1638" 
d="M285 287l530 454q102 87 136 143t34 124q0 46 -17 79t-46.5 50t-61.5 24.5t-69 7.5q-59 0 -100.5 -21t-63 -60t-30.5 -84.5t-9 -104.5h-357q0 81 15 155t54.5 149t100.5 130t160.5 89t226.5 34q85 0 161.5 -14t149.5 -47.5t125.5 -85.5t84.5 -133.5t32 -184.5
q0 -45 -11.5 -89.5t-45.5 -111t-112 -149.5t-195 -174l-234 -180h666v-287h-1124v287z" />
    <glyph glyph-name="three.lnum_tnum" horiz-adv-x="1484" 
d="M580 586v266h157q69 0 107.5 41.5t38.5 116.5q0 79 -45.5 119t-120.5 40q-94 0 -134 -51t-40 -162h-357q0 103 31.5 191.5t93.5 158.5t166.5 110t239.5 40q148 0 265 -44.5t188 -137.5t71 -221q0 -110 -47.5 -192t-134.5 -130q122 -40 192 -123t70 -209
q0 -193 -157.5 -305t-403.5 -112q-146 0 -263 42t-187.5 111.5t-107 154t-36.5 175.5h356q0 -85 63 -141t185 -56q96 0 145.5 48.5t49.5 129.5q0 69 -49.5 104.5t-131.5 35.5h-204z" />
    <glyph glyph-name="four.lnum_tnum" horiz-adv-x="1638" 
d="M911 1434h351v-783h204v-282h-204v-369h-353v369h-737v215zM557 651h352v414z" />
    <glyph glyph-name="five.lnum_tnum" horiz-adv-x="1638" 
d="M313 588l103 846h876v-287h-559l-33 -268q91 45 207 45q81 0 163 -29.5t152.5 -85t115 -146t44.5 -200.5q0 -144 -71.5 -254.5t-196 -169.5t-280.5 -59q-158 0 -289 56t-211 166.5t-80 256.5h356q0 -84 59.5 -137.5t149.5 -53.5q92 0 149.5 49.5t57.5 133.5t-56.5 137
t-138.5 53q-107 0 -165 -53h-353z" />
    <glyph glyph-name="six.lnum_tnum" horiz-adv-x="1638" 
d="M819 1436h432l-344 -471q211 -26 351.5 -159t140.5 -331q0 -146 -80 -260.5t-211.5 -174.5t-288.5 -60q-164 0 -295 60t-207.5 174t-76.5 261q0 156 96 283zM819 268q93 0 158 58.5t65 148.5q0 92 -65 150.5t-158 58.5q-92 0 -157.5 -59t-65.5 -150q0 -90 65.5 -148.5
t157.5 -58.5z" />
    <glyph glyph-name="seven.lnum_tnum" horiz-adv-x="1638" 
d="M1327 1434v-279l-518 -1155h-387l528 1147h-639v287h1016z" />
    <glyph glyph-name="eight.lnum_tnum" horiz-adv-x="1638" 
d="M427 1349q152 107 392 107t392.5 -107t152.5 -292q0 -101 -53.5 -182t-147.5 -134q112 -56 177 -142.5t65 -199.5q0 -131 -82 -228t-213 -144t-291 -47t-291 47t-213 144t-82 228q0 113 65 199.5t177 142.5q-94 53 -147.5 134t-53.5 182q0 185 153 292zM684 906
q50 -46 135 -46t136 46t51 116q0 68 -50.5 113t-136.5 45q-85 0 -135.5 -45t-50.5 -113q0 -70 51 -116zM654 305q62 -49 165 -49t165.5 48.5t62.5 129.5q0 83 -62 130.5t-166 47.5t-165.5 -47.5t-61.5 -130.5q0 -81 62 -129z" />
    <glyph glyph-name="nine.lnum_tnum" horiz-adv-x="1638" 
d="M819 0h-432l344 471q-211 26 -351 159t-140 331q0 146 79.5 260.5t211 174.5t288.5 60q164 0 295.5 -60t208 -174t76.5 -261q0 -156 -96 -283zM819 1167q-93 0 -158 -58t-65 -148q0 -92 65 -150.5t158 -58.5q92 0 157.5 59t65.5 150q0 90 -65.5 148t-157.5 58z" />
    </font>
</defs>
</svg>
