<?xml version="1.0" standalone="no"?>
<!DOCTYPE svg PUBLIC "-//W3C//DTD SVG 1.1//EN" "http://www.w3.org/Graphics/SVG/1.1/DTD/svg11.dtd" >
<svg xmlns="http://www.w3.org/2000/svg" xmlns:xlink="http://www.w3.org/1999/xlink" version="1.1">
<metadata>
Created by FontForge 20230101 at Sat May 29 15:18:08 2021
 By Unknown
Tour de Force Font Foundry &#38; Dusan Jelesijevic
</metadata>
<defs>
<font id="Lupio-SemiBold" horiz-adv-x="1253" >
  <font-face 
    font-family="Lupio-SemiBold"
    font-weight="600"
    font-stretch="normal"
    units-per-em="2048"
    panose-1="0 0 0 0 0 0 0 0 0 0"
    ascent="1638"
    descent="-410"
    x-height="1024"
    cap-height="1434"
    bbox="-233 -512 2949 2075"
    underline-thickness="102"
    underline-position="-358"
    unicode-range="U+000D-FB02"
  />
<missing-glyph horiz-adv-x="1024" 
 />
    <glyph glyph-name=".notdef" horiz-adv-x="1024" 
 />
    <glyph glyph-name="uni0000" horiz-adv-x="0" 
 />
    <glyph glyph-name="uni000D" unicode="&#xd;" horiz-adv-x="512" 
 />
    <glyph glyph-name="space" unicode=" " horiz-adv-x="532" 
 />
    <glyph glyph-name="exclam" unicode="!" horiz-adv-x="546" 
d="M123 1434h301v-506l-27 -457h-247l-27 457v506zM100 158q0 72 50.5 122t125.5 50q72 0 122.5 -50t50.5 -122q0 -76 -50 -127t-123 -51q-75 0 -125.5 51t-50.5 127z" />
    <glyph glyph-name="quotedbl" unicode="&#x22;" horiz-adv-x="747" 
d="M111 983v451h219l-62 -451h-157zM418 983v451h219l-62 -451h-157z" />
    <glyph glyph-name="numbersign" unicode="#" horiz-adv-x="1359" 
d="M80 522h196l58 391h-254v215h285l43 308h213l-43 -308h311l43 308h227l-43 -308h164v-215h-195l-57 -391h252v-215h-283l-43 -307h-227l43 307h-311l-43 -307h-213l43 307h-166v215zM489 522h312l57 391h-311z" />
    <glyph glyph-name="dollar" unicode="$" horiz-adv-x="1505" 
d="M616 1843h246v-395q137 -13 240 -57t163 -109.5t89.5 -141.5t29.5 -163h-305q0 99 -81 161t-253 62q-129 0 -210.5 -42.5t-81.5 -115.5q0 -35 11 -58t37.5 -40t72.5 -30t112.5 -26.5t161.5 -30.5q5 -1 8 -1q74 -13 127 -24.5t116 -30t106 -39.5t86 -53t68.5 -70.5
t41.5 -91.5t16 -117q0 -89 -32.5 -164t-97 -134.5t-167.5 -98t-237 -49.5v-394h-246v396q-140 15 -248 61.5t-172.5 114t-96.5 145.5t-32 164h305q0 -110 94 -174t275 -64q161 0 255.5 46t94.5 124q0 30 -15.5 52t-41 36.5t-73.5 28t-97 22.5t-127 23q-70 12 -109 19
q-262 47 -382 155.5t-120 292.5q0 172 130 279t339 135v397z" />
    <glyph glyph-name="percent" unicode="%" horiz-adv-x="2117" 
d="M82 1012q0 208 106 325t293 117t293.5 -117t106.5 -325t-106.5 -325.5t-293.5 -117.5t-293 117t-106 326zM678 0l573 1434h189l-574 -1434h-188zM481 1307q-106 0 -161.5 -76.5t-55.5 -218.5q0 -141 55.5 -218t161.5 -77q105 0 161 77t56 218q0 142 -56 218.5t-161 76.5z
M1343 97q-106 117 -106 325t106 325t293 117t293.5 -117t106.5 -325t-106.5 -325t-293.5 -117t-293 117zM1636 717q-106 0 -161.5 -76.5t-55.5 -218.5q0 -141 55.5 -218t161.5 -77q105 0 161 77t56 218q0 142 -56 218.5t-161 76.5z" />
    <glyph glyph-name="ampersand" unicode="&#x26;" horiz-adv-x="1492" 
d="M1434 596h-207v-162q0 -69 -18.5 -132.5t-62 -123t-108 -103t-163.5 -69.5t-222 -26q-124 0 -225.5 24t-178 72.5t-119 126.5t-42.5 180q0 135 84.5 218t228.5 116q-231 77 -231 330q0 99 43.5 178t117 128t166.5 75t197 26q99 0 182 -19t139.5 -52.5t99 -75.5
t66.5 -91.5t35 -97t11 -94.5h-305q0 184 -224 184q-103 0 -163 -45t-60 -139q0 -184 201 -184h758v-244zM922 596h-310q-109 0 -164 -41.5t-55 -134.5q0 -193 269 -193q74 0 127 17t81 48t40 65.5t12 76.5v162z" />
    <glyph glyph-name="quotesingle" unicode="'" horiz-adv-x="440" 
d="M111 983v451h219l-62 -451h-157z" />
    <glyph glyph-name="parenleft" unicode="(" horiz-adv-x="804" 
d="M360 522q0 -74 8 -143t20 -124t33 -108t40 -91t47.5 -78t48.5 -64.5t51.5 -55t48 -44.5t45.5 -37.5t37 -30.5l-135 -156q-57 29 -116.5 72.5t-133 125t-129 180t-93.5 244t-38 310.5q0 119 20 229t51.5 194t75.5 159.5t88 128.5t92 97t84.5 69.5t69.5 42.5l136 -156
q-9 -9 -44.5 -40.5t-61.5 -58.5t-65.5 -74.5t-68 -103t-55.5 -126.5t-41.5 -163.5t-14.5 -197.5z" />
    <glyph glyph-name="parenright" unicode=")" horiz-adv-x="804" 
d="M442 522q0 92 -12 176t-30.5 147t-47 121.5t-54.5 98t-59.5 78.5t-56.5 60.5t-52 47.5t-38 35l135 156q49 -25 103 -66.5t124.5 -122t124.5 -177.5t92 -243.5t38 -310.5q0 -165 -38 -310.5t-93.5 -244t-129 -180t-133 -125t-116.5 -72.5l-136 156q8 7 37 30.5t45.5 37.5
t48 44.5t51.5 55t48.5 64.5t47.5 78t40 91t33 108t20 124t8 143z" />
    <glyph glyph-name="asterisk" unicode="*" horiz-adv-x="1042" 
d="M180 827l256 242l-327 141l86 148l286 -213l-45 383h170l-47 -383l289 213l86 -148l-328 -141l254 -242l-129 -108l-211 319l-209 -319z" />
    <glyph glyph-name="plus" unicode="+" horiz-adv-x="911" 
d="M109 610h249v252h195v-252h252v-194h-252v-250h-195v250h-249v194z" />
    <glyph glyph-name="comma" unicode="," horiz-adv-x="583" 
d="M109 168q0 75 53.5 127.5t132.5 52.5q75 0 128.5 -52.5t53.5 -127.5q0 -57 -28 -102l-181 -340h-151l121 262q-58 17 -93.5 66t-35.5 114z" />
    <glyph glyph-name="hyphen" unicode="-" horiz-adv-x="829" 
d="M109 610h614v-194h-614v194z" />
    <glyph glyph-name="period" unicode="." horiz-adv-x="583" 
d="M109 166q0 76 53.5 129t132.5 53q75 0 128.5 -53.5t53.5 -128.5q0 -79 -53 -132.5t-129 -53.5q-79 0 -132.5 53t-53.5 133z" />
    <glyph glyph-name="slash" unicode="/" horiz-adv-x="849" 
d="M80 0l450 1434h240l-451 -1434h-239z" />
    <glyph glyph-name="zero" unicode="0" horiz-adv-x="1523" 
d="M272 176q-178 195 -178 541t177.5 541.5t488.5 195.5q314 0 492 -195t178 -542t-178 -542t-492 -195q-311 0 -488 196zM760 1208q-177 0 -269 -127t-92 -364q0 -236 92 -364t269 -128q178 0 271 128t93 364q0 237 -92.5 364t-271.5 127z" />
    <glyph glyph-name="one" unicode="1" horiz-adv-x="968" 
d="M633 1434h213v-1434h-301v1124l-398 -182l-94 225z" />
    <glyph glyph-name="two" unicode="2" horiz-adv-x="1335" 
d="M141 246l527 456q122 106 161 169.5t39 142.5q0 55 -20 94.5t-54.5 60t-73.5 30t-85 9.5q-242 0 -242 -299h-305q0 79 15 151.5t54 146t98.5 127t156 87t219.5 33.5q85 0 160.5 -14t147 -47.5t122.5 -84.5t82 -130t31 -179q0 -50 -12 -96.5t-47.5 -112.5t-113 -147.5
t-194.5 -173.5l-279 -223h719v-246h-1106v246z" />
    <glyph glyph-name="three" unicode="3" horiz-adv-x="1308" 
d="M498 598v244h161q84 0 129.5 46.5t45.5 131.5q0 93 -57.5 140.5t-151.5 47.5q-103 0 -157 -63.5t-54 -181.5h-305q0 80 18 151t58 134t99 108t147 71.5t196 26.5q146 0 260.5 -43.5t184 -135t69.5 -218.5q0 -228 -185 -326q124 -39 195.5 -122t71.5 -212t-74 -224.5
t-198.5 -143t-282.5 -47.5q-142 0 -256 41.5t-183 111t-105 153t-36 173.5h305q0 -99 69.5 -165.5t199.5 -66.5q114 0 185 56t71 151q0 80 -60 121t-160 41h-200z" />
    <glyph glyph-name="four" unicode="4" horiz-adv-x="1433" 
d="M838 1434h297v-807h225v-248h-225v-379h-301v379h-762v184zM414 627h420v483z" />
    <glyph glyph-name="five" unicode="5" horiz-adv-x="1271" 
d="M158 618l102 816h842v-246h-572l-38 -314q101 52 219 52q83 0 165.5 -30.5t152.5 -86.5t113.5 -147t43.5 -201q0 -143 -71.5 -253.5t-193 -169t-272.5 -58.5t-277.5 56t-205 166.5t-78.5 256.5h301q0 -102 73 -168t175 -66q105 0 174.5 62t69.5 164q0 116 -67.5 180.5
t-166.5 64.5q-104 0 -188 -78h-301z" />
    <glyph glyph-name="six" unicode="6" horiz-adv-x="1312" 
d="M686 1434h369l-350 -471q142 -9 258 -70.5t186 -171t70 -248.5q0 -111 -45.5 -204.5t-123 -156t-179.5 -97.5t-216 -35q-240 0 -400.5 135.5t-160.5 357.5q0 160 94 281zM655 225q106 0 182 69.5t76 178.5q0 107 -76 176.5t-182 69.5q-104 0 -180 -69.5t-76 -176.5
q0 -109 75.5 -178.5t180.5 -69.5z" />
    <glyph glyph-name="seven" unicode="7" horiz-adv-x="1101" 
d="M1051 1434v-238l-537 -1196h-332l545 1188h-676v246h1000z" />
    <glyph glyph-name="eight" unicode="8" horiz-adv-x="1341" 
d="M672 1454q236 0 385 -105t149 -288q0 -105 -56.5 -187.5t-154.5 -134.5q115 -54 182.5 -141.5t67.5 -204.5q0 -131 -80 -226.5t-208 -141t-285 -45.5q-158 0 -287 45.5t-210 141t-81 226.5q0 117 68 204.5t184 141.5q-98 51 -154.5 133.5t-56.5 188.5q0 183 149.5 288
t387.5 105zM672 860q106 0 166.5 45t60.5 129q0 81 -61 127.5t-166 46.5q-106 0 -168 -46.5t-62 -127.5q0 -84 61.5 -129t168.5 -45zM672 225q119 0 192.5 52t73.5 145q0 97 -70.5 143.5t-195.5 46.5q-126 0 -198.5 -46.5t-72.5 -143.5q0 -93 75.5 -145t195.5 -52z" />
    <glyph glyph-name="nine" unicode="9" horiz-adv-x="1312" 
d="M633 0h-369l350 471q-142 9 -258 70.5t-186 171t-70 248.5q0 111 45.5 204.5t123 156t179.5 97.5t216 35q240 0 400.5 -135.5t160.5 -357.5q0 -159 -95 -281zM664 1208q-106 0 -182 -69t-76 -178q0 -107 76 -176.5t182 -69.5q104 0 180 69.5t76 176.5q0 109 -75.5 178
t-180.5 69z" />
    <glyph glyph-name="colon" unicode=":" horiz-adv-x="583" 
d="M109 862q0 76 53.5 129t132.5 53q75 0 128.5 -53.5t53.5 -128.5q0 -79 -53 -132.5t-129 -53.5q-79 0 -132.5 53t-53.5 133zM109 166q0 76 53.5 129t132.5 53q75 0 128.5 -53.5t53.5 -128.5q0 -79 -53 -132.5t-129 -53.5q-79 0 -132.5 53t-53.5 133z" />
    <glyph glyph-name="semicolon" unicode=";" horiz-adv-x="583" 
d="M109 862q0 76 53.5 129t132.5 53q75 0 128.5 -53.5t53.5 -128.5q0 -79 -53 -132.5t-129 -53.5q-79 0 -132.5 53t-53.5 133zM109 168q0 75 53.5 127.5t132.5 52.5q75 0 128.5 -52.5t53.5 -127.5q0 -57 -28 -102l-181 -340h-151l121 262q-58 17 -93.5 66t-35.5 114z" />
    <glyph glyph-name="less" unicode="&#x3c;" horiz-adv-x="940" 
d="M80 541l780 444v-250l-504 -264l504 -266v-248l-780 444v140z" />
    <glyph glyph-name="equal" unicode="=" horiz-adv-x="911" 
d="M106 799h697v-195h-697v195zM106 420h697v-195h-697v195z" />
    <glyph glyph-name="greater" unicode="&#x3e;" horiz-adv-x="940" 
d="M860 541v-140l-780 -444v248l502 266l-502 264v250z" />
    <glyph glyph-name="question" unicode="?" horiz-adv-x="1263" 
d="M469 469v47q0 71 6 116t16.5 78.5t37.5 61t56.5 47.5t86.5 53q92 52 119 75q65 56 65 134q0 70 -55.5 98.5t-155.5 28.5q-237 0 -237 -225h-306q0 80 14 145t51.5 128t98 105.5t159.5 68.5t230 26q108 0 198 -21t160 -63.5t109 -113.5t39 -166q0 -139 -50.5 -222.5
t-170.5 -154.5q-47 -28 -67.5 -41.5t-46 -33.5t-34.5 -37t-15.5 -41.5t-6.5 -57.5v-35h-301zM446 156q0 74 51 124t126 50q72 0 122 -50.5t50 -123.5q0 -75 -50 -125.5t-122 -50.5q-75 0 -126 50.5t-51 125.5z" />
    <glyph glyph-name="at" unicode="@" horiz-adv-x="2162" 
d="M555 512q38 212 180.5 345.5t331.5 133.5q108 0 179 -49.5t102 -134.5l28 166h283l-139 -795h305q61 113 94 293q34 189 -3.5 352t-131.5 275t-237 175.5t-316 63.5q-174 0 -339 -63.5t-297 -175.5t-226 -274.5t-127 -352.5q-34 -190 2.5 -352.5t129.5 -274.5
t235.5 -175.5t316.5 -63.5q76 0 147 12v-115q-77 -14 -166 -14q-146 0 -279.5 43t-241 125.5t-180.5 202.5t-98.5 273.5t5.5 338.5q32 180 113.5 338.5t195.5 274.5t251.5 200.5t285.5 127t294 42.5q145 0 278.5 -43t241.5 -125.5t181.5 -202.5t99 -273.5t-5.5 -338.5
q-42 -229 -160 -420h-676l29 164q-130 -182 -342 -182q-189 0 -285 133.5t-59 345.5zM1028 260q90 0 165 51t89 138l23 126q16 85 -41.5 136t-147.5 51q-101 0 -176.5 -70t-95.5 -180q-20 -111 31 -181.5t153 -70.5z" />
    <glyph glyph-name="A" unicode="A" horiz-adv-x="1662" 
d="M682 1436h301l629 -1434h-301l-121 291h-717l-121 -291h-301zM573 539h517l-259 624z" />
    <glyph glyph-name="B" unicode="B" horiz-adv-x="1439" 
d="M123 0v1434h649q43 0 82.5 -3t90.5 -13t94 -26.5t86 -46t72.5 -68.5t48 -97.5t18.5 -130.5q0 -212 -185 -306q267 -84 267 -335q0 -99 -35 -175.5t-87 -119t-122 -69.5t-128.5 -35.5t-119.5 -8.5h-731zM424 848h321q30 0 51.5 1.5t54.5 11t54 26.5t37 50.5t16 80.5
t-16 81t-37 50.5t-54 26t-54.5 11t-51.5 1.5h-321v-340zM424 246h391q225 0 225 180q0 49 -16.5 83.5t-38.5 52t-56.5 27t-57.5 11.5t-56 2h-391v-356z" />
    <glyph glyph-name="C" unicode="C" horiz-adv-x="1638" 
d="M438 941q-39 -98 -39 -224t39 -223.5t104 -154.5t143 -85.5t163 -28.5q172 0 280.5 100t108.5 232h305q0 -78 -27 -158t-84.5 -155.5t-137.5 -134t-195.5 -94t-249.5 -35.5q-156 0 -293.5 51.5t-239.5 145t-161.5 233.5t-59.5 307t59.5 307t161.5 233.5t239.5 145
t293.5 51.5q134 0 249.5 -35.5t195.5 -94t137.5 -134t84.5 -155.5t27 -158h-305q0 63 -27.5 122t-76.5 105.5t-123.5 75t-161.5 28.5q-85 0 -163 -28.5t-143 -85t-104 -153.5z" />
    <glyph glyph-name="D" unicode="D" horiz-adv-x="1601" 
d="M729 1434q129 0 245.5 -29.5t213.5 -89.5t168.5 -145t111 -201t39.5 -252t-39.5 -252t-111 -201t-168.5 -145t-213.5 -89.5t-245.5 -29.5h-606v1434h606zM424 246h305q215 0 344 121t129 350q0 230 -129 350.5t-344 120.5h-305v-942z" />
    <glyph glyph-name="E" unicode="E" 
d="M123 1434h1051v-246h-750v-334h688v-246h-688v-362h750v-246h-1051v1434z" />
    <glyph glyph-name="F" unicode="F" horiz-adv-x="1204" 
d="M115 1434h1026v-246h-725v-365h663v-245h-663v-578h-301v1434z" />
    <glyph glyph-name="G" unicode="G" horiz-adv-x="1658" 
d="M399 721q0 -230 129.5 -359t343.5 -129q174 0 284 74t136 219h-479v248h752v-774h-267v164q-158 -176 -446 -176q-152 0 -289 51t-241.5 143.5t-166 232t-61.5 306.5t63 306.5t169 232t244.5 143.5t291.5 51q148 0 278.5 -47.5t216.5 -122t135.5 -165t49.5 -177.5h-305
q0 108 -105.5 187t-273.5 79q-208 0 -333.5 -125t-125.5 -362z" />
    <glyph glyph-name="H" unicode="H" horiz-adv-x="1695" 
d="M123 1434h301v-578h848v578h301v-1434h-301v610h-848v-610h-301v1434z" />
    <glyph glyph-name="I" unicode="I" horiz-adv-x="546" 
d="M123 1434h301v-1434h-301v1434z" />
    <glyph glyph-name="J" unicode="J" horiz-adv-x="1335" 
d="M911 1434h301v-891q0 -121 -34.5 -222.5t-102 -178t-175.5 -119.5t-247 -43q-143 0 -251.5 42.5t-175.5 120.5t-100.5 182.5t-33.5 233.5h305q0 -153 62 -243.5t196 -90.5q85 0 144 44.5t85.5 114.5t26.5 159v891z" />
    <glyph glyph-name="K" unicode="K" horiz-adv-x="1499" 
d="M123 1434h301v-635h172l428 635h360l-524 -746l588 -688h-377l-453 553h-194v-553h-301v1434z" />
    <glyph glyph-name="L" unicode="L" horiz-adv-x="1267" 
d="M123 1434h301v-1188h766v-246h-1067v1434z" />
    <glyph glyph-name="M" unicode="M" horiz-adv-x="1888" 
d="M125 1434h301l526 -1121l512 1121h301v-1434h-301v834l-362 -834h-299l-377 848v-848h-301v1434z" />
    <glyph glyph-name="N" unicode="N" horiz-adv-x="1683" 
d="M123 1434h301l836 -1016v1016h301v-1434h-301l-836 995v-995h-301v1434z" />
    <glyph glyph-name="O" unicode="O" horiz-adv-x="1744" 
d="M157 407q-63 141 -63 310t63 310t170 233t247 143t296 51q125 0 240.5 -32t213.5 -95t170.5 -150.5t113.5 -205.5t41 -254t-41 -254t-113.5 -205.5t-170.5 -150.5t-213.5 -95t-240.5 -32q-156 0 -296 51t-247 143t-170 233zM870 1208q-98 0 -184 -35t-149.5 -98
t-100.5 -155.5t-37 -202.5q0 -146 63 -259t170 -173t238 -60q202 0 337.5 136t135.5 356t-135.5 355.5t-337.5 135.5z" />
    <glyph glyph-name="P" unicode="P" horiz-adv-x="1400" 
d="M791 1434q37 0 77 -4.5t93.5 -18t102 -35t97 -59t83.5 -86.5t57 -121.5t22 -159.5t-22 -159.5t-57 -121t-83.5 -86.5t-97 -59t-102 -34.5t-93.5 -18t-77 -4.5h-367v-467h-301v1434h668zM424 713h340q38 0 77.5 10.5t81.5 34.5t68.5 73.5t26.5 118.5q0 55 -18 98.5
t-45.5 69t-63 42t-67 22.5t-60.5 6h-340v-475z" />
    <glyph glyph-name="Q" unicode="Q" horiz-adv-x="1744" 
d="M1346 -410l-338 400q-75 -10 -138 -10q-156 0 -296 51t-247 143t-170 233t-63 310t63 310t170 233t247 143t296 51q125 0 240.5 -32t213.5 -95t170.5 -150.5t113.5 -205.5t41 -254q0 -215 -100 -379.5t-269 -257.5l428 -490h-362zM870 1208q-98 0 -184 -35t-149.5 -98
t-100.5 -155.5t-37 -202.5q0 -146 63 -259t170 -173t238 -60q202 0 337.5 136t135.5 356t-135.5 355.5t-337.5 135.5z" />
    <glyph glyph-name="R" unicode="R" horiz-adv-x="1503" 
d="M827 1434q60 0 123.5 -10.5t139.5 -41.5t134 -79t97 -132t39 -192q0 -78 -20 -145.5t-53 -115.5t-79 -86.5t-93.5 -63t-100.5 -40.5l391 -528h-348l-365 498h-268v-498h-301v1434h704zM424 743h379q40 0 81.5 12t81 36.5t64.5 70t25 105.5q0 58 -25 103t-64.5 69.5
t-81 36.5t-81.5 12h-379v-445z" />
    <glyph glyph-name="S" unicode="S" horiz-adv-x="1505" 
d="M393 471q0 -110 94 -174t275 -64q161 0 255.5 46t94.5 124q0 30 -15.5 52t-41 36.5t-73.5 28t-97 22.5t-127 23q-70 12 -109 19q-262 47 -382 155.5t-120 292.5q0 133 82.5 230t216 144.5t299.5 47.5q135 0 244 -26t181.5 -70.5t121.5 -106.5t70.5 -130t21.5 -144h-305
q0 99 -81 161t-253 62q-129 0 -210.5 -42.5t-81.5 -115.5q0 -35 11 -58t37.5 -40t72.5 -30t112.5 -26.5t161.5 -30.5q5 -1 8 -1q74 -13 127 -24.5t116 -30t106 -39.5t86 -53t68.5 -70.5t41.5 -91.5t16 -117q0 -98 -39.5 -179t-116.5 -142t-201.5 -95t-285.5 -34
q-142 0 -258 27.5t-194.5 74.5t-132 110t-77.5 133t-24 146h305z" />
    <glyph glyph-name="T" unicode="T" horiz-adv-x="1406" 
d="M66 1434h1277v-246h-489v-1188h-301v1188h-487v246z" />
    <glyph glyph-name="U" unicode="U" horiz-adv-x="1544" 
d="M1120 1434h301v-840q0 -313 -163.5 -463.5t-489.5 -150.5q-323 0 -484 150.5t-161 463.5v840h301v-840q0 -193 82.5 -281t261.5 -88q180 0 266 88.5t86 280.5v840z" />
    <glyph glyph-name="V" unicode="V" horiz-adv-x="1689" 
d="M694 0l-631 1434h324l457 -1127l459 1127h321l-629 -1434h-301z" />
    <glyph glyph-name="W" unicode="W" horiz-adv-x="2207" 
d="M510 0l-447 1434h310l289 -1014l278 1014h315l279 -1014l289 1014h321l-458 -1434h-314l-274 985l-275 -985h-313z" />
    <glyph glyph-name="X" unicode="X" horiz-adv-x="1732" 
d="M63 0l621 745l-547 689h367l373 -504l354 504h366l-522 -689l592 -745h-367l-423 578l-445 -578h-369z" />
    <glyph glyph-name="Y" unicode="Y" horiz-adv-x="1632" 
d="M666 430l-603 1004h349l405 -695l404 695h348l-602 -1004v-430h-301v430z" />
    <glyph glyph-name="Z" unicode="Z" horiz-adv-x="1298" 
d="M1182 1434v-238l-729 -950h782v-246h-1172v238l734 950h-717v246h1102z" />
    <glyph glyph-name="bracketleft" unicode="[" horiz-adv-x="802" 
d="M123 1434h592v-246h-342v-1352h342v-246h-592v1844z" />
    <glyph glyph-name="backslash" unicode="\" horiz-adv-x="849" 
d="M770 0h-240l-450 1434h239z" />
    <glyph glyph-name="bracketright" unicode="]" horiz-adv-x="802" 
d="M702 1434v-1844h-591v246h342v1352h-342v246h591z" />
    <glyph glyph-name="asciicircum" unicode="^" horiz-adv-x="1089" 
d="M109 831l337 603h199l338 -603h-233l-205 406l-205 -406h-231z" />
    <glyph glyph-name="underscore" unicode="_" horiz-adv-x="911" 
d="M109 369h696v-195h-696v195z" />
    <glyph glyph-name="grave" unicode="`" horiz-adv-x="491" 
d="M399 1130h-174l-151 347h202z" />
    <glyph glyph-name="a" unicode="a" horiz-adv-x="1191" 
d="M201 1024h407q101 0 177.5 -19.5t126 -54t80 -86.5t43 -111.5t12.5 -134.5v-221q0 -88 28 -121.5t109 -33.5h16v-242h-205q-113 0 -159.5 39.5t-55.5 132.5q-85 -192 -323 -192q-369 0 -369 325q0 162 97.5 244t322.5 82h244q-1 55 -14.5 85.5t-54.5 48t-118 17.5h-364
v242zM752 434h-232q-68 0 -101.5 -22.5t-33.5 -79.5q0 -109 154 -109q59 0 104.5 13.5t77 50t31.5 92.5v55z" />
    <glyph glyph-name="b" unicode="b" horiz-adv-x="1323" 
d="M1116 896q133 -148 133 -384t-133.5 -384t-351.5 -148q-117 0 -211.5 48t-153.5 136v-164h-295v1440l295 -6v-574q59 88 153.5 136t211.5 48q218 0 352 -148zM399 438q0 -89 83 -153t188 -64q122 0 200 79t78 212t-78 212t-200 79q-105 0 -188 -64t-83 -153v-148z" />
    <glyph glyph-name="c" unicode="c" horiz-adv-x="1236" 
d="M375 514q0 -136 74.5 -214.5t191.5 -78.5q96 0 158.5 58.5t62.5 134.5h301q0 -62 -18 -122t-58 -117t-99 -100t-147.5 -69t-195.5 -26q-262 0 -416.5 142t-154.5 392q0 247 154.5 388.5t416.5 141.5q107 0 195.5 -26t147.5 -69t99 -100t58 -116.5t18 -120.5h-301
q0 74 -62.5 132.5t-158.5 58.5q-117 0 -191.5 -77t-74.5 -212z" />
    <glyph glyph-name="d" unicode="d" horiz-adv-x="1323" 
d="M208 128q-134 148 -134 384t133.5 384t351.5 148q117 0 211.5 -48t153.5 -136v574h297v-1434h-297v164q-59 -88 -153.5 -136t-211.5 -48q-218 0 -351 148zM653 221q105 0 188 64t83 153v148q0 89 -83 153t-188 64q-122 0 -200 -79t-78 -212t78 -212t200 -79z" />
    <glyph glyph-name="e" unicode="e" horiz-adv-x="1236" 
d="M362 422q23 -103 94.5 -151t168.5 -48q111 0 178 35t67 96h285q-10 -74 -48 -139t-102.5 -118.5t-165.5 -85t-227 -31.5q-153 0 -274.5 62.5t-192.5 184.5t-71 285q0 246 151.5 390.5t386.5 144.5q174 0 299 -69t186.5 -185.5t63.5 -268.5v-102h-799zM879 606
q-40 199 -254 199q-92 0 -163.5 -50t-96.5 -149h514z" />
    <glyph glyph-name="f" unicode="f" horiz-adv-x="827" 
d="M774 1212h-127q-34 0 -52 -1t-39.5 -5t-31.5 -12.5t-20 -23.5t-13.5 -37.5t-3.5 -55.5v-53h289v-242h-289v-782h-297v782h-137v242h137v104q0 161 87 243.5t255 82.5h242v-242z" />
    <glyph glyph-name="g" unicode="g" horiz-adv-x="1323" 
d="M236 -168h434q138 0 196 48t58 173v111q-59 -88 -153.5 -136t-211.5 -48q-218 0 -351.5 148t-133.5 384t133.5 384t351.5 148q117 0 211.5 -48t153.5 -136v164h297v-932q0 -252 -126.5 -377t-400.5 -125h-458v242zM653 221q105 0 188 64t83 153v148q0 89 -83 153t-188 64
q-122 0 -200 -79t-78 -212t78 -212t200 -79z" />
    <glyph glyph-name="h" unicode="h" 
d="M102 1434h297v-594q59 96 156.5 150t216.5 54q195 0 287 -108t92 -299v-637h-297v561q0 119 -48 180.5t-171 61.5q-101 0 -168.5 -68t-67.5 -182v-553h-297v1434z" />
    <glyph glyph-name="i" unicode="i" horiz-adv-x="487" 
d="M72 1333q0 72 50.5 122t125.5 50q71 0 121.5 -50t50.5 -122q0 -74 -50.5 -125t-121.5 -51q-75 0 -125.5 50.5t-50.5 125.5zM94 1024h297v-1024h-297v1024z" />
    <glyph glyph-name="j" unicode="j" horiz-adv-x="487" 
d="M68 1333q0 72 50.5 122t125.5 50q71 0 121.5 -50t50.5 -122q0 -74 -50.5 -125t-121.5 -51q-75 0 -125.5 50.5t-50.5 125.5zM-176 -168h113q87 0 122 32t35 118v1042h297v-1108q0 -161 -86.5 -243.5t-253.5 -82.5h-227v242z" />
    <glyph glyph-name="k" unicode="k" horiz-adv-x="1249" 
d="M102 1434h297v-781h142l247 371h345l-349 -483l406 -541h-352l-287 412h-152v-412h-297v1434z" />
    <glyph glyph-name="l" unicode="l" horiz-adv-x="569" 
d="M553 242v-242h-186q-144 0 -204.5 67t-60.5 216v1151h297v-1037q0 -89 26 -122t107 -33h21z" />
    <glyph glyph-name="m" unicode="m" horiz-adv-x="1898" 
d="M102 1024h297v-174q56 92 144.5 143t195.5 51q135 0 219 -62t117 -175q53 111 148.5 174t214.5 63q181 0 269.5 -108.5t88.5 -298.5v-637h-297v573q0 118 -41 174t-151 56q-88 0 -148.5 -63t-60.5 -175v-565h-297v573q0 118 -41.5 174t-151.5 56q-88 0 -148.5 -63
t-60.5 -175v-565h-297v1024z" />
    <glyph glyph-name="n" unicode="n" 
d="M102 1024h297v-184q59 96 156.5 150t216.5 54q195 0 287 -108t92 -299v-637h-297v561q0 119 -48 180.5t-171 61.5q-101 0 -168.5 -68t-67.5 -182v-553h-297v1024z" />
    <glyph glyph-name="o" unicode="o" horiz-adv-x="1300" 
d="M427 1008q104 36 222 36t222.5 -36.5t183 -103.5t124.5 -168.5t46 -223.5t-46 -223.5t-124.5 -168.5t-183 -103.5t-222.5 -36.5t-222 36.5t-182.5 103.5t-124.5 168.5t-46 223.5t46 223.5t124.5 168.5t182.5 104zM649 221q121 0 198 83.5t77 207.5t-77 207.5t-198 83.5
q-120 0 -197 -84t-77 -207t77 -207t197 -84z" />
    <glyph glyph-name="p" unicode="p" horiz-adv-x="1323" 
d="M102 1024h297v-164q59 88 153.5 136t211.5 48q218 0 351.5 -148t133.5 -384t-133.5 -384t-351.5 -148q-117 0 -211.5 48t-153.5 136v-574h-297v1434zM399 438q0 -89 83 -153t188 -64q122 0 200 79t78 212t-78 212t-200 79q-105 0 -188 -64t-83 -153v-148z" />
    <glyph glyph-name="q" unicode="q" horiz-adv-x="1323" 
d="M1221 1024v-1434h-297v574q-59 -88 -153.5 -136t-211.5 -48q-218 0 -351.5 148t-133.5 384t133.5 384t351.5 148q117 0 211.5 -48t153.5 -136v164h297zM653 221q105 0 188 64t83 153v148q0 89 -83 153t-188 64q-122 0 -200 -79t-78 -212t78 -212t200 -79z" />
    <glyph glyph-name="r" unicode="r" horiz-adv-x="860" 
d="M102 1024h297v-176q57 91 143 143.5t175 52.5h100v-241h-203q-101 0 -158 -61.5t-57 -182.5v-559h-297v1024z" />
    <glyph glyph-name="s" unicode="s" horiz-adv-x="1171" 
d="M375 338q0 -141 231 -141q189 0 189 84q0 36 -51.5 55t-211.5 53q-25 5 -38 8q-92 19 -159.5 45t-121.5 64t-81.5 93.5t-27.5 127.5q0 65 26.5 119t71.5 90t105.5 61t126.5 36t137 11q105 0 190 -21t140.5 -56t93.5 -82.5t54 -97t16 -101.5h-301q0 66 -40 103.5
t-146 37.5q-172 0 -172 -77q0 -44 58.5 -67t246.5 -62q52 -11 86 -19.5t78.5 -23t73.5 -29.5t60 -38.5t48.5 -51.5t29 -66t11.5 -84q0 -149 -137 -239t-369 -90q-124 0 -225.5 32t-163.5 84t-95.5 114.5t-33.5 127.5h301z" />
    <glyph glyph-name="t" unicode="t" horiz-adv-x="845" 
d="M53 1024h146v246h297v-246h301v-242h-301v-393q0 -85 35.5 -116t123.5 -31h140v-242h-254q-168 0 -255 82.5t-87 243.5v456h-146v242z" />
    <glyph glyph-name="u" unicode="u" horiz-adv-x="1320" 
d="M1305 242v-242h-187q-120 0 -181.5 47t-76.5 148q-59 -101 -158 -158t-221 -57q-195 0 -287 108t-92 299v637h297v-561q0 -119 48 -180.5t171 -61.5q101 0 168.5 68t67.5 182v553h297v-627q0 -89 26 -122t107 -33h21z" />
    <glyph glyph-name="v" unicode="v" horiz-adv-x="1318" 
d="M51 1024h326l280 -676l285 676h305l-471 -1024h-254z" />
    <glyph glyph-name="w" unicode="w" horiz-adv-x="1671" 
d="M51 1024h299l158 -659l186 659h285l186 -657l156 657h299l-307 -1024h-287l-190 705l-191 -705h-287z" />
    <glyph glyph-name="x" unicode="x" horiz-adv-x="1341" 
d="M51 0l426 535l-385 489h344l236 -328l235 328h342l-385 -489l426 -535h-348l-270 375l-273 -375h-348z" />
    <glyph glyph-name="y" unicode="y" horiz-adv-x="1247" 
d="M1196 1024l-434 -1044q-26 -63 -44 -102.5t-43.5 -83.5t-49 -68.5t-58.5 -51t-74.5 -40t-94 -25t-120.5 -15.5t-151 -4v242q51 0 91 2t71.5 8t53 11t40 18t29 21t22.5 28.5t17.5 32t17.5 39.5l10 22l-428 1010h320l258 -688l248 688h319z" />
    <glyph glyph-name="z" unicode="z" horiz-adv-x="1050" 
d="M961 1024v-207l-515 -575h553v-242h-940v209l514 573h-497v242h885z" />
    <glyph glyph-name="braceleft" unicode="{" horiz-adv-x="942" 
d="M141 641q62 7 96 20t59 46.5t33.5 89t8.5 149.5q0 116 20 202t54.5 140.5t89 87.5t116 45.5t142.5 12.5h133v-254h-139q-68 0 -102.5 -27.5t-49 -94.5t-14.5 -200q0 -89 -19.5 -152t-57.5 -101.5t-82.5 -59t-106.5 -33.5q62 -13 106.5 -33.5t82.5 -58t57.5 -100.5
t19.5 -152q0 -133 14.5 -200t49 -94.5t102.5 -27.5h139v-254h-133q-81 0 -142.5 12.5t-116 45.5t-89 87.5t-54.5 140.5t-20 202q0 94 -8.5 149.5t-33.5 89t-59 46.5t-96 20l-49 6v244z" />
    <glyph glyph-name="bar" unicode="|" horiz-adv-x="485" 
d="M123 1434h239v-1844h-239v1844z" />
    <glyph glyph-name="braceright" unicode="}" horiz-adv-x="942" 
d="M803 641l49 -6v-244l-49 -6q-62 -7 -96 -20t-59 -46.5t-33.5 -89t-8.5 -149.5q0 -116 -20 -202t-54.5 -140.5t-88.5 -87.5t-115.5 -45.5t-141.5 -12.5h-133v254h137q68 0 102.5 27.5t49 94.5t14.5 200q0 89 19.5 152t58 101.5t83 59t106.5 33.5q-62 13 -106.5 33.5
t-83 58t-58 100.5t-19.5 152q0 133 -14.5 200t-49 94.5t-102.5 27.5h-137v254h133q80 0 141.5 -12.5t115.5 -45.5t88.5 -87.5t54.5 -140.5t20 -202q0 -94 8.5 -149.5t33.5 -89t59 -46.5t96 -20z" />
    <glyph glyph-name="asciitilde" unicode="~" horiz-adv-x="1284" 
d="M127 848q72 186 190.5 220.5t335.5 -56.5q67 -27 103 -40.5t75.5 -23.5t59.5 -8t41 12.5t34.5 31.5t28.5 56l21 47l160 -65l-19 -47q-37 -96 -81.5 -149.5t-108.5 -71t-142.5 -2.5t-191.5 61q-64 26 -101.5 39.5t-76 23t-59.5 7.5t-42.5 -12.5t-35.5 -31.5t-29 -55
l-21 -49l-159 66z" />
    <glyph glyph-name="exclamdown" unicode="&#xa1;" horiz-adv-x="546" 
d="M100 866q0 76 50.5 127t125.5 51q73 0 123 -51t50 -127q0 -72 -50.5 -122t-122.5 -50q-75 0 -125.5 50t-50.5 122zM123 -410v506l27 457h247l27 -457v-506h-301z" />
    <glyph glyph-name="cent" unicode="&#xa2;" horiz-adv-x="1261" 
d="M539 1434h245v-400q100 -17 178 -61t123.5 -103.5t68 -125t22.5 -132.5h-302q0 74 -62.5 132.5t-158.5 58.5q-117 0 -191.5 -77t-74.5 -212q0 -136 74.5 -214.5t191.5 -78.5q96 0 158.5 58.5t62.5 134.5h302q0 -68 -22.5 -133.5t-68 -125.5t-123.5 -104t-178 -61v-400
h-245v398q-211 31 -332 169t-121 357q0 217 120.5 354t332.5 168v398z" />
    <glyph glyph-name="sterling" unicode="&#xa3;" horiz-adv-x="1417" 
d="M297 1034q0 208 134 314t366 106q126 0 222.5 -30.5t153.5 -78t93.5 -114.5t49.5 -130.5t13 -135.5h-305q0 57 -9 98.5t-31 75.5t-64 51.5t-103 17.5q-100 0 -157.5 -48.5t-57.5 -151.5v-228h602v-245h-602v-289h727v-246h-1032v535h-225v245h225v254z" />
    <glyph glyph-name="currency" unicode="&#xa4;" horiz-adv-x="1355" 
d="M1245 1190l-264 -262q63 -93 64 -205.5t-62 -206.5l264 -262l-100 -100l-262 262q-94 -63 -207 -63t-207 63l-262 -262l-100 100l262 262q-63 93 -62 205t64 205l-264 264l100 100l264 -264q93 63 204 64t204 -62l264 262zM520 563q64 -65 157 -65t159 65q64 66 64 158.5
t-64 157.5q-66 66 -159 66t-157 -66q-66 -65 -66 -157.5t66 -158.5z" />
    <glyph glyph-name="yen" unicode="&#xa5;" horiz-adv-x="1632" 
d="M317 559h271l-525 875h349l405 -695l404 695h348l-525 -875h271v-143h-348v-113h348v-143h-348v-160h-301v160h-349v143h349v113h-349v143z" />
    <glyph glyph-name="brokenbar" unicode="&#xa6;" horiz-adv-x="485" 
d="M123 1434h239v-719h-239v719zM123 309h239v-719h-239v719z" />
    <glyph glyph-name="section" unicode="&#xa7;" horiz-adv-x="1568" 
d="M393 -20q0 -110 94 -174t275 -64q161 0 255.5 46t94.5 124q0 65 -78 98q-58 25 -256 59q-91 16 -129 23q-262 47 -382 155.5t-120 293.5q0 162 121 270q-59 92 -59 221q0 133 82.5 230t216 144.5t299.5 47.5q135 0 244 -26t181.5 -70.5t121.5 -106.5t70.5 -130t21.5 -144
h-305q0 99 -81 161t-253 62q-129 0 -211 -42.5t-82 -115.5q0 -80 69.5 -109.5t324.5 -74.5q2 -1 3.5 -1t3 -0.5t3.5 -0.5q74 -13 127 -24.5t116 -30t106 -39.5t86 -53t68.5 -70.5t41.5 -91.5t16 -117q0 -173 -117 -287q55 -83 55 -204q0 -98 -39.5 -179t-116.5 -142.5
t-201.5 -95.5t-285.5 -34q-142 0 -258 27.5t-194.5 74.5t-132 110.5t-77.5 133.5t-24 146h305zM496 641q-43 -37 -43 -90q0 -35 11 -58t37.5 -40t72.5 -30t112.5 -26.5t161.5 -30.5q5 -1 8 -1q162 -28 264 -62q54 42 54 100q0 30 -15.5 52t-41 36.5t-73.5 28t-97 22.5
t-127 23q-70 12 -109 19q-130 22 -215 57z" />
    <glyph glyph-name="dieresis" unicode="&#xa8;" horiz-adv-x="915" 
d="M92 1288q0 60 42.5 102t103.5 42q60 0 101.5 -42t41.5 -102q0 -61 -41.5 -103t-101.5 -42q-62 0 -104 42t-42 103zM532 1288q0 60 42.5 102t103.5 42q60 0 101.5 -42t41.5 -102q0 -61 -41.5 -103t-101.5 -42q-62 0 -104 42t-42 103z" />
    <glyph glyph-name="copyright" unicode="&#xa9;" horiz-adv-x="1691" 
d="M208 348q-99 169 -99 369t98.5 369.5t268 268.5t370.5 99t370.5 -99t268 -268.5t98.5 -369.5t-98.5 -369.5t-268 -268.5t-370.5 -99t-370.5 99t-267.5 269zM277 1047q-89 -152 -89 -330t88.5 -329.5t240 -240t329.5 -88.5t329.5 88.5t239.5 240t88 329.5q0 133 -52 255
t-140 210t-210 140t-255 52q-178 0 -329.5 -88t-239.5 -239zM705 891q-62 -59 -62 -174t61.5 -174.5t149.5 -59.5q82 0 133 46t51 110h158q0 -49 -22 -98t-63 -91t-108.5 -68t-148.5 -26q-158 0 -264.5 99t-106.5 262t106.5 261.5t264.5 98.5q81 0 148.5 -26t108.5 -67.5
t63 -90.5t22 -98h-158q0 64 -51 109.5t-133 45.5q-88 0 -149 -59z" />
    <glyph glyph-name="ordfeminine" unicode="&#xaa;" horiz-adv-x="761" 
d="M164 1454h205q62 0 104 -15.5t63.5 -45.5t30 -64.5t8.5 -83.5v-115q0 -43 14.5 -60t55.5 -17h8v-121h-92q-61 0 -83 24t-25 84q-29 -118 -160 -118q-93 0 -138.5 35.5t-45.5 113.5q0 90 46.5 129t161.5 39h123v2q0 50 -18 74t-76 24h-182v115zM440 1163h-116
q-40 0 -59 -14.5t-19 -50.5q0 -43 21 -58.5t67 -15.5q43 0 74.5 27.5t31.5 70.5v41z" />
    <glyph glyph-name="guillemotleft" unicode="&#xab;" horiz-adv-x="1105" 
d="M92 512l268 469h244l-270 -469l270 -469h-244zM502 512l268 469h244l-271 -469l271 -469h-244z" />
    <glyph glyph-name="logicalnot" unicode="&#xac;" horiz-adv-x="929" 
d="M109 922h714v-461h-239v221h-475v240z" />
    <glyph glyph-name="registered" unicode="&#xae;" horiz-adv-x="1691" 
d="M109 717q0 200 98.5 369.5t268 268.5t370.5 99t370.5 -99t268 -268.5t98.5 -369.5q0 -150 -58 -286.5t-157 -235.5t-235.5 -157t-286.5 -58t-286.5 58t-235.5 157t-157 235.5t-58 286.5zM277 1047q-89 -152 -89 -330t88.5 -329.5t240 -240t329.5 -88.5t329.5 88.5
t239.5 240t88 329.5q0 133 -52 255t-140 210t-210 140t-255 52q-178 0 -329.5 -88t-239.5 -239zM922 1067q29 0 60 -5t68.5 -20.5t66 -39.5t48 -66t19.5 -96q0 -90 -48.5 -145t-119.5 -79l188 -251h-176l-172 235h-125v-235h-158v702h349zM731 721h176q44 0 80.5 28t36.5 85
t-36 84.5t-81 27.5h-176v-225z" />
    <glyph glyph-name="macron" unicode="&#xaf;" horiz-adv-x="729" 
d="M92 1327h545v-143h-545v143z" />
    <glyph glyph-name="degree" unicode="&#xb0;" horiz-adv-x="731" 
d="M174 1006q-80 80 -80 192t80 192t193 80t192.5 -80t79.5 -192t-79.5 -192t-192.5 -80t-193 80zM174 1198q0 -79 56.5 -135.5t136.5 -56.5q79 0 135.5 56t56.5 136t-56.5 136.5t-135.5 56.5t-136 -56.5t-57 -136.5z" />
    <glyph glyph-name="plusminus" unicode="&#xb1;" horiz-adv-x="911" 
d="M109 774h249v252h195v-252h252v-194h-252v-252h-195v252h-249v194zM109 195h696v-195h-696v195z" />
    <glyph glyph-name="twosuperior" unicode="&#xb2;" horiz-adv-x="884" 
d="M127 729l315 272q74 65 97.5 104t23.5 85q0 68 -40 96.5t-101 28.5q-146 0 -146 -189h-182q0 48 9 92t32.5 88t59 76t93.5 52t132 20q65 0 120.5 -14t103 -44t74.5 -84.5t27 -129.5q0 -66 -43.5 -140.5t-175.5 -179.5l-168 -133h433v-147h-664v147z" />
    <glyph glyph-name="threesuperior" unicode="&#xb3;" horiz-adv-x="868" 
d="M340 944v139h96q59 0 87 27.5t28 89.5q0 115 -135 115q-70 0 -98.5 -38t-28.5 -118h-183q0 128 77.5 211.5t234.5 83.5q135 0 222 -63t87 -177q0 -135 -111 -194q158 -49 158 -201q0 -117 -93 -182.5t-239 -65.5q-70 0 -128 16.5t-98 44t-68 64.5t-41 78t-13 84h182
q0 -65 41 -106t121 -41q70 0 112 33t42 96q0 58 -33.5 81t-97.5 23h-121z" />
    <glyph glyph-name="acute" unicode="&#xb4;" horiz-adv-x="485" 
d="M92 1130l119 347h203l-148 -347h-174z" />
    <glyph glyph-name="paragraph" unicode="&#xb6;" horiz-adv-x="1652" 
d="M621 1434h909v-1844h-277v1614h-247v-1614h-277v826h-108q-37 0 -77 4.5t-94 18.5t-102 36t-97 62t-84 91.5t-57 128t-22 169.5q0 92 22 168.5t57 127.5t84 90.5t97 62t102 36.5t94 18.5t77 4.5zM729 645v559h-108q-26 0 -55 -6t-65.5 -25t-64.5 -48t-47.5 -81
t-19.5 -118q0 -68 19.5 -120.5t47.5 -81.5t64.5 -48t65.5 -25t55 -6h108z" />
    <glyph glyph-name="periodcentered" unicode="&#xb7;" horiz-adv-x="614" 
d="M123 512q0 76 53.5 129t132.5 53q75 0 129 -53.5t54 -128.5q0 -79 -53.5 -132.5t-129.5 -53.5q-79 0 -132.5 53t-53.5 133z" />
    <glyph glyph-name="cedilla" unicode="&#xb8;" horiz-adv-x="608" 
d="M92 -473v147q262 -73 262 68q0 23 -7 37.5t-15.5 22.5t-30.5 11.5t-38.5 4t-53.5 0.5h-4.5h-4.5h-5h-13l43 194h125l-31 -100q96 -10 148.5 -49t52.5 -125q0 -65 -28 -112t-72.5 -71.5t-102 -35.5t-114 -8t-111.5 16z" />
    <glyph glyph-name="onesuperior" unicode="&#xb9;" horiz-adv-x="661" 
d="M438 1434h129v-861h-180v678l-242 -110l-53 133z" />
    <glyph glyph-name="ordmasculine" unicode="&#xba;" horiz-adv-x="759" 
d="M283 1093q38 -42 98 -42t98.5 42t38.5 103q0 62 -38 103.5t-99 41.5t-99 -41.5t-38 -103.5q0 -61 39 -103zM175 1390q83 72 206 72t206 -72t83 -194q0 -121 -83 -193.5t-206 -72.5t-206 72.5t-83 193.5q0 122 83 194z" />
    <glyph glyph-name="guillemotright" unicode="&#xbb;" horiz-adv-x="1105" 
d="M1014 512l-269 -469h-243l270 469l-270 469h243zM604 512l-268 -469h-244l270 469l-270 469h244z" />
    <glyph glyph-name="onequarter" unicode="&#xbc;" horiz-adv-x="1812" 
d="M475 0l574 1434h188l-573 -1434h-189zM426 1434h129v-861h-180v678l-242 -110l-53 133zM1417 860l6 -2l74 2h98v-508h136v-125h-136v-227h-180v227h-459v111zM1130 352h285v328z" />
    <glyph glyph-name="onehalf" unicode="&#xbd;" horiz-adv-x="1845" 
d="M475 0l576 1434h186l-573 -1434h-189zM426 1434h129v-861h-180v678l-242 -110l-53 133zM1102 147l313 273q74 65 97.5 103.5t23.5 84.5q0 67 -40 96t-99 29q-146 0 -146 -188h-182q0 48 9 92t32.5 87.5t59 75.5t93.5 52t132 20q64 0 119 -14t102.5 -44t74.5 -84.5
t27 -129.5q0 -30 -7 -58t-28 -67.5t-67.5 -88.5t-116.5 -105l-166 -134h430v-147h-661v147z" />
    <glyph glyph-name="threequarters" unicode="&#xbe;" horiz-adv-x="1941" 
d="M328 944v139h96q59 0 87 27.5t28 89.5q0 115 -136 115q-70 0 -98.5 -38t-28.5 -118h-182q0 128 77.5 211.5t234.5 83.5q135 0 222 -63t87 -177q0 -135 -111 -194q158 -49 158 -201q0 -117 -93 -182.5t-239 -65.5q-70 0 -128 16.5t-98 44t-68 64.5t-41 78t-13 84h182
q0 -65 41 -106t121 -41q70 0 112 33t42 96q0 58 -33.5 81t-97.5 23h-121zM606 0l574 1434h188l-573 -1434h-189zM1548 860l6 -2l74 2h98v-508h136v-125h-136v-227h-180v227h-459v111zM1262 352h284v328z" />
    <glyph glyph-name="questiondown" unicode="&#xbf;" horiz-adv-x="1263" 
d="M817 891q0 -74 -50.5 -124t-125.5 -50q-72 0 -122 50.5t-50 123.5q0 75 50 125.5t122 50.5q75 0 125.5 -50.5t50.5 -125.5zM795 578v-48q0 -71 -6 -116t-16.5 -78.5t-37.5 -61t-56.5 -47.5t-86.5 -53q-92 -52 -119 -75q-65 -56 -65 -134q0 -70 55 -98.5t155 -28.5
q238 0 238 225h305q0 -80 -14 -145t-51.5 -128t-98 -105.5t-159.5 -68.5t-230 -26q-108 0 -198 21t-160 63.5t-109 114t-39 166.5q0 139 51 222.5t171 154.5q47 28 67.5 41.5t46 33.5t34.5 37t15.5 41.5t6.5 57.5v35h301z" />
    <glyph glyph-name="Agrave" unicode="&#xc0;" horiz-adv-x="1662" 
d="M909 1540h-174l-151 346h202zM682 1436h301l629 -1434h-301l-121 291h-717l-121 -291h-301zM573 539h517l-259 624z" />
    <glyph glyph-name="Aacute" unicode="&#xc1;" horiz-adv-x="1662" 
d="M762 1540l119 346h202l-147 -346h-174zM682 1436h301l629 -1434h-301l-121 291h-717l-121 -291h-301zM573 539h517l-259 624z" />
    <glyph glyph-name="Acircumflex" unicode="&#xc2;" horiz-adv-x="1662" 
d="M483 1546l269 330h159l269 -330h-213l-136 185l-133 -185h-215zM682 1436h301l629 -1434h-301l-121 291h-717l-121 -291h-301zM573 539h517l-259 624z" />
    <glyph glyph-name="Atilde" unicode="&#xc3;" horiz-adv-x="1662" 
d="M831 1753q106 -43 125 -47q54 -13 86 25q19 22 39 69l136 -47q-20 -56 -45.5 -96t-50 -63.5t-57 -33.5t-57.5 -11.5t-62.5 7t-61.5 17t-64 24.5q-102 40 -123 44q-46 8 -75 -31q-17 -24 -37 -70l-138 49q23 63 51 106.5t60 64.5t62.5 30t69.5 3.5t69 -14.5t73 -26z
M682 1436h301l629 -1434h-301l-121 291h-717l-121 -291h-301zM573 539h517l-259 624z" />
    <glyph glyph-name="Adieresis" unicode="&#xc4;" horiz-adv-x="1662" 
d="M467 1698q0 60 42 101.5t103 41.5q60 0 102 -41.5t42 -101.5q0 -61 -42 -103.5t-102 -42.5q-61 0 -103 42t-42 104zM907 1698q0 60 42.5 101.5t103.5 41.5q60 0 101.5 -41.5t41.5 -101.5q0 -61 -41.5 -103.5t-101.5 -42.5q-61 0 -103.5 42t-42.5 104zM682 1436h301
l629 -1434h-301l-121 291h-717l-121 -291h-301zM573 539h517l-259 624z" />
    <glyph glyph-name="Aring" unicode="&#xc5;" horiz-adv-x="1662" 
d="M632 1586q-85 85 -85 202t85 202t202 85t200.5 -85t83.5 -202t-83.5 -202t-200.5 -85t-202 85zM733 1889q-45 -44 -45 -101t45 -101.5t101 -44.5t99.5 44.5t43.5 101.5t-43.5 101t-99.5 44t-101 -44zM682 1436h301l629 -1434h-301l-121 291h-717l-121 -291h-301zM573 539
h517l-259 624z" />
    <glyph glyph-name="AE" unicode="&#xc6;" horiz-adv-x="2244" 
d="M682 1434h1485v-246h-750v-334h688v-246h-688v-362h750v-246h-1051v293h-641l-121 -293h-301zM575 539h541v649h-272z" />
    <glyph glyph-name="Ccedilla" unicode="&#xc7;" horiz-adv-x="1638" 
d="M438 941q-39 -98 -39 -224t39 -223.5t104 -154.5t143 -85.5t163 -28.5q172 0 280.5 100t108.5 232h305q0 -78 -27 -157.5t-83.5 -154.5t-136 -133.5t-194 -94.5t-247.5 -37l-20 -68q96 -10 148 -49t52 -125q0 -65 -28 -112t-72.5 -71.5t-102 -35.5t-114 -8t-111.5 16v147
q262 -73 262 68q0 23 -7 37.5t-15.5 22.5t-30.5 11.5t-38.5 4t-53.5 0.5h-14h-13l37 170q-136 18 -252.5 76.5t-202.5 150t-135 221t-49 281.5q0 167 59.5 307t161.5 233.5t239.5 145t293.5 51.5q134 0 249.5 -35.5t195.5 -94t137.5 -134t84.5 -155.5t27 -158h-305
q0 63 -27.5 122t-76.5 105.5t-123.5 75t-161.5 28.5q-85 0 -163 -28.5t-143 -85t-104 -153.5z" />
    <glyph glyph-name="Egrave" unicode="&#xc8;" 
d="M756 1540h-174l-152 346h203zM123 1434h1051v-246h-750v-334h688v-246h-688v-362h750v-246h-1051v1434z" />
    <glyph glyph-name="Eacute" unicode="&#xc9;" 
d="M573 1540l119 346h203l-147 -346h-175zM123 1434h1051v-246h-750v-334h688v-246h-688v-362h750v-246h-1051v1434z" />
    <glyph glyph-name="Ecircumflex" unicode="&#xca;" 
d="M305 1546l268 330h160l268 -330h-213l-135 185l-133 -185h-215zM123 1434h1051v-246h-750v-334h688v-246h-688v-362h750v-246h-1051v1434z" />
    <glyph glyph-name="Edieresis" unicode="&#xcb;" 
d="M289 1698q0 60 42 101.5t103 41.5q60 0 102 -41.5t42 -101.5q0 -61 -42 -103.5t-102 -42.5q-61 0 -103 42t-42 104zM729 1698q0 60 42 101.5t103 41.5q60 0 102 -41.5t42 -101.5q0 -61 -42 -103.5t-102 -42.5q-61 0 -103 42t-42 104zM123 1434h1051v-246h-750v-334h688
v-246h-688v-362h750v-246h-1051v1434z" />
    <glyph glyph-name="Igrave" unicode="&#xcc;" horiz-adv-x="546" 
d="M348 1540h-174l-151 346h202zM123 1434h301v-1434h-301v1434z" />
    <glyph glyph-name="Iacute" unicode="&#xcd;" horiz-adv-x="546" 
d="M201 1540l118 346h203l-147 -346h-174zM123 1434h301v-1434h-301v1434z" />
    <glyph glyph-name="Icircumflex" unicode="&#xce;" horiz-adv-x="546" 
d="M-76 1546l269 330h159l269 -330h-213l-136 185l-133 -185h-215zM123 1434h301v-1434h-301v1434z" />
    <glyph glyph-name="Idieresis" unicode="&#xcf;" horiz-adv-x="546" 
d="M-92 1698q0 60 42 101.5t103 41.5q60 0 102 -41.5t42 -101.5q0 -61 -42 -103.5t-102 -42.5q-61 0 -103 42t-42 104zM348 1698q0 60 42.5 101.5t103.5 41.5q60 0 101.5 -41.5t41.5 -101.5q0 -61 -41.5 -103.5t-101.5 -42.5q-62 0 -104 42t-42 104zM123 1434h301v-1434
h-301v1434z" />
    <glyph glyph-name="Eth" unicode="&#xd0;" horiz-adv-x="1601" 
d="M-53 815h176v619h606q129 0 245.5 -29.5t213.5 -89.5t168.5 -145t111 -201t39.5 -252t-39.5 -252t-111 -201t-168.5 -145t-213.5 -89.5t-245.5 -29.5h-606v621h-176v194zM424 246h305q215 0 344 121t129 350q0 230 -129 350.5t-344 120.5h-305v-373h313v-194h-313v-375z
" />
    <glyph glyph-name="Ntilde" unicode="&#xd1;" horiz-adv-x="1683" 
d="M842 1753q106 -43 125 -47q54 -13 86 25q19 22 39 69l135 -47q-20 -56 -45.5 -96t-50 -63.5t-57 -33.5t-57.5 -11.5t-62.5 7t-61.5 17t-64 24.5q-102 40 -123 44q-46 8 -75 -31q-17 -24 -37 -70l-137 49q23 63 51 106.5t60 64.5t62.5 30t69.5 3.5t69 -14.5t73 -26z
M123 1434h301l836 -1016v1016h301v-1434h-301l-836 995v-995h-301v1434z" />
    <glyph glyph-name="Ograve" unicode="&#xd2;" horiz-adv-x="1744" 
d="M952 1540h-174l-151 346h202zM157 407q-63 141 -63 310t63 310t170 233t247 143t296 51q125 0 240.5 -32t213.5 -95t170.5 -150.5t113.5 -205.5t41 -254t-41 -254t-113.5 -205.5t-170.5 -150.5t-213.5 -95t-240.5 -32q-156 0 -296 51t-247 143t-170 233zM870 1208
q-98 0 -184 -35t-149.5 -98t-100.5 -155.5t-37 -202.5q0 -146 63 -259t170 -173t238 -60q202 0 337.5 136t135.5 356t-135.5 355.5t-337.5 135.5z" />
    <glyph glyph-name="Oacute" unicode="&#xd3;" horiz-adv-x="1744" 
d="M795 1540l118 346h203l-147 -346h-174zM157 407q-63 141 -63 310t63 310t170 233t247 143t296 51q125 0 240.5 -32t213.5 -95t170.5 -150.5t113.5 -205.5t41 -254t-41 -254t-113.5 -205.5t-170.5 -150.5t-213.5 -95t-240.5 -32q-156 0 -296 51t-247 143t-170 233z
M870 1208q-98 0 -184 -35t-149.5 -98t-100.5 -155.5t-37 -202.5q0 -146 63 -259t170 -173t238 -60q202 0 337.5 136t135.5 356t-135.5 355.5t-337.5 135.5z" />
    <glyph glyph-name="Ocircumflex" unicode="&#xd4;" horiz-adv-x="1744" 
d="M524 1546l269 330h159l269 -330h-213l-136 185l-133 -185h-215zM157 407q-63 141 -63 310t63 310t170 233t247 143t296 51q125 0 240.5 -32t213.5 -95t170.5 -150.5t113.5 -205.5t41 -254t-41 -254t-113.5 -205.5t-170.5 -150.5t-213.5 -95t-240.5 -32q-156 0 -296 51
t-247 143t-170 233zM870 1208q-98 0 -184 -35t-149.5 -98t-100.5 -155.5t-37 -202.5q0 -146 63 -259t170 -173t238 -60q202 0 337.5 136t135.5 356t-135.5 355.5t-337.5 135.5z" />
    <glyph glyph-name="Otilde" unicode="&#xd5;" horiz-adv-x="1744" 
d="M872 1753q106 -43 125 -47q54 -13 86 25q19 22 39 69l135 -47q-20 -56 -45.5 -96t-49.5 -63.5t-56.5 -33.5t-57.5 -12t-62.5 7t-61.5 17.5t-64 24.5q-102 40 -123 44q-46 8 -75 -31q-17 -24 -37 -70l-138 49q23 63 51 106.5t60 64.5t62.5 30t69.5 3.5t69 -14.5t73 -26z
M157 407q-63 141 -63 310t63 310t170 233t247 143t296 51q125 0 240.5 -32t213.5 -95t170.5 -150.5t113.5 -205.5t41 -254t-41 -254t-113.5 -205.5t-170.5 -150.5t-213.5 -95t-240.5 -32q-156 0 -296 51t-247 143t-170 233zM870 1208q-98 0 -184 -35t-149.5 -98
t-100.5 -155.5t-37 -202.5q0 -146 63 -259t170 -173t238 -60q202 0 337.5 136t135.5 356t-135.5 355.5t-337.5 135.5z" />
    <glyph glyph-name="Odieresis" unicode="&#xd6;" horiz-adv-x="1744" 
d="M506 1698q0 60 42 101.5t103 41.5q60 0 102 -41.5t42 -101.5q0 -61 -42 -103.5t-102 -42.5q-61 0 -103 42t-42 104zM946 1698q0 60 42.5 101.5t103.5 41.5q60 0 101.5 -41.5t41.5 -101.5q0 -61 -41.5 -103.5t-101.5 -42.5q-62 0 -104 42t-42 104zM157 407
q-63 141 -63 310t63 310t170 233t247 143t296 51q125 0 240.5 -32t213.5 -95t170.5 -150.5t113.5 -205.5t41 -254t-41 -254t-113.5 -205.5t-170.5 -150.5t-213.5 -95t-240.5 -32q-156 0 -296 51t-247 143t-170 233zM870 1208q-98 0 -184 -35t-149.5 -98t-100.5 -155.5
t-37 -202.5q0 -146 63 -259t170 -173t238 -60q202 0 337.5 136t135.5 356t-135.5 355.5t-337.5 135.5z" />
    <glyph glyph-name="multiply" unicode="&#xd7;" horiz-adv-x="845" 
d="M109 311l176 176l-176 179l137 137l178 -176l176 176l137 -137l-176 -179l176 -176l-137 -139l-176 178l-178 -178z" />
    <glyph glyph-name="Oslash" unicode="&#xd8;" horiz-adv-x="1744" 
d="M461 -205l78 248q-202 83 -323.5 258t-121.5 416q0 169 63 310t170 233t247 143t296 51q56 0 111 -6l59 190h240l-78 -247q203 -83 325 -258t122 -416q0 -136 -41 -254t-113.5 -205.5t-170.5 -150.5t-213.5 -95t-240.5 -32q-54 0 -110 6l-60 -191h-239zM870 1208
q-98 0 -184 -35t-149.5 -98t-100.5 -155.5t-37 -202.5q0 -141 58.5 -249.5t160.5 -172.5l287 911q-6 0 -17.5 1t-17.5 1zM836 227q6 0 17 -1t17 -1q202 0 337.5 136t135.5 356q0 141 -59 251t-162 173z" />
    <glyph glyph-name="Ugrave" unicode="&#xd9;" horiz-adv-x="1544" 
d="M860 1540h-174l-151 346h202zM1120 1434h301v-840q0 -313 -163.5 -463.5t-489.5 -150.5q-323 0 -484 150.5t-161 463.5v840h301v-840q0 -193 82.5 -281t261.5 -88q180 0 266 88.5t86 280.5v840z" />
    <glyph glyph-name="Uacute" unicode="&#xda;" horiz-adv-x="1544" 
d="M696 1540l119 346h203l-148 -346h-174zM1120 1434h301v-840q0 -313 -163.5 -463.5t-489.5 -150.5q-323 0 -484 150.5t-161 463.5v840h301v-840q0 -193 82.5 -281t261.5 -88q180 0 266 88.5t86 280.5v840z" />
    <glyph glyph-name="Ucircumflex" unicode="&#xdb;" horiz-adv-x="1544" 
d="M424 1546l268 330h160l268 -330h-213l-135 185l-133 -185h-215zM1120 1434h301v-840q0 -313 -163.5 -463.5t-489.5 -150.5q-323 0 -484 150.5t-161 463.5v840h301v-840q0 -193 82.5 -281t261.5 -88q180 0 266 88.5t86 280.5v840z" />
    <glyph glyph-name="Udieresis" unicode="&#xdc;" horiz-adv-x="1544" 
d="M408 1698q0 60 42 101.5t103 41.5q60 0 101.5 -41.5t41.5 -101.5q0 -61 -41.5 -103.5t-101.5 -42.5q-61 0 -103 42t-42 104zM848 1698q0 60 42 101.5t103 41.5q60 0 102 -41.5t42 -101.5q0 -61 -42 -103.5t-102 -42.5q-61 0 -103 42t-42 104zM1120 1434h301v-840
q0 -313 -163.5 -463.5t-489.5 -150.5q-323 0 -484 150.5t-161 463.5v840h301v-840q0 -193 82.5 -281t261.5 -88q180 0 266 88.5t86 280.5v840z" />
    <glyph glyph-name="Yacute" unicode="&#xdd;" horiz-adv-x="1632" 
d="M748 1540l118 346h203l-147 -346h-174zM666 430l-603 1004h349l405 -695l404 695h348l-602 -1004v-430h-301v430z" />
    <glyph glyph-name="Thorn" unicode="&#xde;" horiz-adv-x="1417" 
d="M791 1202q37 0 77 -4.5t93.5 -18t102 -34.5t97 -59t83.5 -86.5t57 -121t22 -159.5t-22 -160t-57 -122t-83.5 -87t-97 -59.5t-102 -35t-93.5 -18t-77 -4.5h-367v-233h-301v1436h301v-234h367zM424 479h340q38 0 77.5 10.5t81.5 35t68.5 75t26.5 119.5q0 68 -26.5 117.5
t-68.5 74t-81.5 35t-77.5 10.5h-340v-477z" />
    <glyph glyph-name="germandbls" unicode="&#xdf;" horiz-adv-x="1300" 
d="M88 965q0 229 133.5 359t392.5 130q154 0 272 -44t188.5 -136t70.5 -221q0 -113 -48 -195t-136 -127q124 -39 195 -121.5t71 -210.5q0 -200 -161.5 -308.5t-455.5 -108.5l-2 231q322 0 322 217q0 98 -62 146.5t-166 48.5h-92v190h54q196 0 196 199q0 107 -66 158t-176 51
q-233 0 -233 -258v-965h-297v965z" />
    <glyph glyph-name="agrave" unicode="&#xe0;" horiz-adv-x="1191" 
d="M725 1130h-174l-152 347h203zM201 1024h407q101 0 177.5 -19.5t126 -54t80 -86.5t43 -111.5t12.5 -134.5v-221q0 -88 28 -121.5t109 -33.5h16v-242h-205q-113 0 -159.5 39.5t-55.5 132.5q-85 -192 -323 -192q-369 0 -369 325q0 162 97.5 244t322.5 82h244
q-1 55 -14.5 85.5t-54.5 48t-118 17.5h-364v242zM752 434h-232q-68 0 -101.5 -22.5t-33.5 -79.5q0 -109 154 -109q59 0 104.5 13.5t77 50t31.5 92.5v55z" />
    <glyph glyph-name="aacute" unicode="&#xe1;" horiz-adv-x="1191" 
d="M483 1130l119 347h203l-148 -347h-174zM201 1024h407q101 0 177.5 -19.5t126 -54t80 -86.5t43 -111.5t12.5 -134.5v-221q0 -88 28 -121.5t109 -33.5h16v-242h-205q-113 0 -159.5 39.5t-55.5 132.5q-85 -192 -323 -192q-369 0 -369 325q0 162 97.5 244t322.5 82h244
q-1 55 -14.5 85.5t-54.5 48t-118 17.5h-364v242zM752 434h-232q-68 0 -101.5 -22.5t-33.5 -79.5q0 -109 154 -109q59 0 104.5 13.5t77 50t31.5 92.5v55z" />
    <glyph glyph-name="acircumflex" unicode="&#xe2;" horiz-adv-x="1191" 
d="M248 1137l268 329h160l268 -329h-213l-135 184l-133 -184h-215zM201 1024h407q101 0 177.5 -19.5t126 -54t80 -86.5t43 -111.5t12.5 -134.5v-221q0 -88 28 -121.5t109 -33.5h16v-242h-205q-113 0 -159.5 39.5t-55.5 132.5q-85 -192 -323 -192q-369 0 -369 325
q0 162 97.5 244t322.5 82h244q-1 55 -14.5 85.5t-54.5 48t-118 17.5h-364v242zM752 434h-232q-68 0 -101.5 -22.5t-33.5 -79.5q0 -109 154 -109q59 0 104.5 13.5t77 50t31.5 92.5v55z" />
    <glyph glyph-name="atilde" unicode="&#xe3;" horiz-adv-x="1191" 
d="M596 1343q106 -42 126 -47q53 -12 85 27q19 22 39 68l135 -48q-16 -44 -35 -78t-37.5 -57.5t-42 -38t-43 -22t-46.5 -7.5t-46.5 2t-49 11t-48 16t-49.5 19q-101 40 -124 44q-47 7 -76 -33q-17 -23 -36 -69l-137 50q20 54 44.5 93.5t48 63t54 34.5t56 13.5t60 -4t60 -15
t62.5 -22.5zM201 1024h407q101 0 177.5 -19.5t126 -54t80 -86.5t43 -111.5t12.5 -134.5v-221q0 -88 28 -121.5t109 -33.5h16v-242h-205q-113 0 -159.5 39.5t-55.5 132.5q-85 -192 -323 -192q-369 0 -369 325q0 162 97.5 244t322.5 82h244q-1 55 -14.5 85.5t-54.5 48
t-118 17.5h-364v242zM752 434h-232q-68 0 -101.5 -22.5t-33.5 -79.5q0 -109 154 -109q59 0 104.5 13.5t77 50t31.5 92.5v55z" />
    <glyph glyph-name="adieresis" unicode="&#xe4;" horiz-adv-x="1191" 
d="M231 1288q0 60 42.5 102t103.5 42q60 0 101.5 -42t41.5 -102q0 -61 -41.5 -103t-101.5 -42q-62 0 -104 42t-42 103zM672 1288q0 60 42 102t103 42q60 0 102 -42t42 -102q0 -61 -42 -103t-102 -42q-61 0 -103 41.5t-42 103.5zM201 1024h407q101 0 177.5 -19.5t126 -54
t80 -86.5t43 -111.5t12.5 -134.5v-221q0 -88 28 -121.5t109 -33.5h16v-242h-205q-113 0 -159.5 39.5t-55.5 132.5q-85 -192 -323 -192q-369 0 -369 325q0 162 97.5 244t322.5 82h244q-1 55 -14.5 85.5t-54.5 48t-118 17.5h-364v242zM752 434h-232q-68 0 -101.5 -22.5
t-33.5 -79.5q0 -109 154 -109q59 0 104.5 13.5t77 50t31.5 92.5v55z" />
    <glyph glyph-name="aring" unicode="&#xe5;" horiz-adv-x="1191" 
d="M396 1177q-85 84 -85 201t85 202t202 85t201 -85t84 -202t-84 -201.5t-201 -84.5t-202 85zM498 1480q-45 -45 -45 -102t44.5 -101t100.5 -44t99.5 44t43.5 101t-43.5 101.5t-99.5 44.5t-100 -44zM201 1024h407q101 0 177.5 -19.5t126 -54t80 -86.5t43 -111.5t12.5 -134.5
v-221q0 -88 28 -121.5t109 -33.5h16v-242h-205q-113 0 -159.5 39.5t-55.5 132.5q-85 -192 -323 -192q-369 0 -369 325q0 162 97.5 244t322.5 82h244q-1 55 -14.5 85.5t-54.5 48t-118 17.5h-364v242zM752 434h-232q-68 0 -101.5 -22.5t-33.5 -79.5q0 -109 154 -109
q59 0 104.5 13.5t77 50t31.5 92.5v55z" />
    <glyph glyph-name="ae" unicode="&#xe6;" horiz-adv-x="1900" 
d="M186 1024h410q223 0 322 -96q143 119 358 119q256 0 398.5 -140t150.5 -368v-105h-801q10 -57 36 -99t62.5 -66t77.5 -35t88 -11q112 0 179 35t67 96h285q-10 -74 -48 -139t-102.5 -118.5t-165.5 -85t-227 -31.5q-145 0 -263 57t-188 162q-48 -99 -145.5 -159t-235.5 -60
q-368 0 -368 325q0 162 97.5 244t322.5 82h243q-1 42 -7.5 68.5t-25 50t-56.5 34.5t-97 11h-367v229zM1540 618q-45 187 -252 187q-89 0 -159.5 -47t-96.5 -140h508zM739 434h-231q-68 0 -101.5 -22.5t-33.5 -79.5q0 -109 153 -109q59 0 104.5 13.5t77 50t31.5 92.5v55z" />
    <glyph glyph-name="ccedilla" unicode="&#xe7;" horiz-adv-x="1236" 
d="M375 514q0 -136 74.5 -214.5t191.5 -78.5q96 0 158.5 58.5t62.5 134.5h301q0 -60 -17 -119t-55.5 -114.5t-94 -98.5t-139.5 -71t-185 -31l-23 -76q96 -10 148.5 -49t52.5 -125q0 -65 -28 -112t-72.5 -71.5t-102 -35.5t-114 -8t-111.5 16v147q262 -73 262 68q0 23 -7 37.5
t-15.5 22.5t-31 11.5t-38.5 4t-54 0.5h-14h-12l39 176q-222 25 -349.5 163.5t-127.5 364.5q0 247 154.5 388.5t416.5 141.5q107 0 195.5 -26t147.5 -69t99 -100t58 -116.5t18 -120.5h-301q0 74 -62.5 132.5t-158.5 58.5q-117 0 -191.5 -77t-74.5 -212z" />
    <glyph glyph-name="egrave" unicode="&#xe8;" horiz-adv-x="1236" 
d="M698 1130h-174l-151 347h202zM362 422q23 -103 94.5 -151t168.5 -48q111 0 178 35t67 96h285q-10 -74 -48 -139t-102.5 -118.5t-165.5 -85t-227 -31.5q-153 0 -274.5 62.5t-192.5 184.5t-71 285q0 246 151.5 390.5t386.5 144.5q174 0 299 -69t186.5 -185.5t63.5 -268.5
v-102h-799zM879 606q-40 199 -254 199q-92 0 -163.5 -50t-96.5 -149h514z" />
    <glyph glyph-name="eacute" unicode="&#xe9;" horiz-adv-x="1236" 
d="M549 1130l119 347h202l-147 -347h-174zM362 422q23 -103 94.5 -151t168.5 -48q111 0 178 35t67 96h285q-10 -74 -48 -139t-102.5 -118.5t-165.5 -85t-227 -31.5q-153 0 -274.5 62.5t-192.5 184.5t-71 285q0 246 151.5 390.5t386.5 144.5q174 0 299 -69t186.5 -185.5
t63.5 -268.5v-102h-799zM879 606q-40 199 -254 199q-92 0 -163.5 -50t-96.5 -149h514z" />
    <glyph glyph-name="ecircumflex" unicode="&#xea;" horiz-adv-x="1236" 
d="M270 1137l269 329h159l269 -329h-213l-136 184l-133 -184h-215zM362 422q23 -103 94.5 -151t168.5 -48q111 0 178 35t67 96h285q-10 -74 -48 -139t-102.5 -118.5t-165.5 -85t-227 -31.5q-153 0 -274.5 62.5t-192.5 184.5t-71 285q0 246 151.5 390.5t386.5 144.5
q174 0 299 -69t186.5 -185.5t63.5 -268.5v-102h-799zM879 606q-40 199 -254 199q-92 0 -163.5 -50t-96.5 -149h514z" />
    <glyph glyph-name="edieresis" unicode="&#xeb;" horiz-adv-x="1236" 
d="M252 1288q0 60 42 102t103 42q60 0 102 -42t42 -102q0 -61 -42 -103t-102 -42q-61 0 -103 41.5t-42 103.5zM692 1288q0 60 42.5 102t103.5 42q60 0 101.5 -42t41.5 -102q0 -61 -41.5 -103t-101.5 -42q-62 0 -104 42t-42 103zM362 422q23 -103 94.5 -151t168.5 -48
q111 0 178 35t67 96h285q-10 -74 -48 -139t-102.5 -118.5t-165.5 -85t-227 -31.5q-153 0 -274.5 62.5t-192.5 184.5t-71 285q0 246 151.5 390.5t386.5 144.5q174 0 299 -69t186.5 -185.5t63.5 -268.5v-102h-799zM879 606q-40 199 -254 199q-92 0 -163.5 -50t-96.5 -149h514z
" />
    <glyph glyph-name="igrave" unicode="&#xec;" horiz-adv-x="487" 
d="M319 1130h-174l-151 347h203zM94 1024h297v-1024h-297v1024z" />
    <glyph glyph-name="iacute" unicode="&#xed;" horiz-adv-x="487" 
d="M170 1130l119 347h203l-148 -347h-174zM94 1024h297v-1024h-297v1024z" />
    <glyph glyph-name="icircumflex" unicode="&#xee;" horiz-adv-x="487" 
d="M-106 1137l268 329h160l268 -329h-213l-135 184l-133 -184h-215zM94 1024h297v-1024h-297v1024z" />
    <glyph glyph-name="idieresis" unicode="&#xef;" horiz-adv-x="487" 
d="M-123 1288q0 60 42.5 102t103.5 42q60 0 101.5 -42t41.5 -102q0 -61 -41.5 -103t-101.5 -42q-62 0 -104 42t-42 103zM317 1288q0 60 42.5 102t103.5 42q60 0 101.5 -42t41.5 -102q0 -61 -41.5 -103t-101.5 -42q-62 0 -104 42t-42 103zM94 1024h297v-1024h-297v1024z" />
    <glyph glyph-name="eth" unicode="&#xf0;" horiz-adv-x="1312" 
d="M614 1436l156 -209h367v-137h-263l240 -322q105 -124 105 -295q0 -148 -75.5 -261.5t-202.5 -172.5t-284 -59q-152 0 -279 59t-205.5 173t-78.5 261q0 104 40.5 193.5t110.5 151.5t163 99.5t198 45.5l-96 127h-330v137h226l-160 209h368zM657 221q105 0 183 71t78 181
t-77.5 180t-183.5 70q-107 0 -184.5 -70t-77.5 -180q0 -111 77.5 -181.5t184.5 -70.5z" />
    <glyph glyph-name="ntilde" unicode="&#xf1;" 
d="M627 1343q106 -42 126 -47q53 -12 85 27q19 22 39 68l135 -48q-20 -56 -45.5 -96t-50 -63.5t-57 -33t-57.5 -11.5t-62.5 7t-61.5 17.5t-64 24.5q-102 40 -124 44q-46 7 -75 -33q-17 -24 -36 -69l-137 50q20 54 44.5 93.5t48 63t54 34.5t56 13.5t60 -4t60 -15t62.5 -22.5z
M102 1024h297v-184q59 96 156.5 150t216.5 54q195 0 287 -108t92 -299v-637h-297v561q0 119 -48 180.5t-171 61.5q-101 0 -168.5 -68t-67.5 -182v-553h-297v1024z" />
    <glyph glyph-name="ograve" unicode="&#xf2;" horiz-adv-x="1300" 
d="M729 1130h-174l-152 347h203zM649 221q121 0 198 83.5t77 207.5t-77 207.5t-198 83.5q-120 0 -197 -84t-77 -207t77 -207t197 -84zM427 1008q104 36 222 36t222.5 -36.5t183 -103.5t124.5 -168.5t46 -223.5t-46 -223.5t-124.5 -168.5t-183 -103.5t-222.5 -36.5t-222 36.5
t-182.5 103.5t-124.5 168.5t-46 223.5t46 223.5t124.5 168.5t182.5 104z" />
    <glyph glyph-name="oacute" unicode="&#xf3;" horiz-adv-x="1300" 
d="M573 1130l119 347h203l-147 -347h-175zM649 221q121 0 198 83.5t77 207.5t-77 207.5t-198 83.5q-120 0 -197 -84t-77 -207t77 -207t197 -84zM427 1008q104 36 222 36t222.5 -36.5t183 -103.5t124.5 -168.5t46 -223.5t-46 -223.5t-124.5 -168.5t-183 -103.5t-222.5 -36.5
t-222 36.5t-182.5 103.5t-124.5 168.5t-46 223.5t46 223.5t124.5 168.5t182.5 104z" />
    <glyph glyph-name="ocircumflex" unicode="&#xf4;" horiz-adv-x="1300" 
d="M301 1137l268 329h160l268 -329h-213l-135 184l-133 -184h-215zM649 221q121 0 198 83.5t77 207.5t-77 207.5t-198 83.5q-120 0 -197 -84t-77 -207t77 -207t197 -84zM427 1008q104 36 222 36t222.5 -36.5t183 -103.5t124.5 -168.5t46 -223.5t-46 -223.5t-124.5 -168.5
t-183 -103.5t-222.5 -36.5t-222 36.5t-182.5 103.5t-124.5 168.5t-46 223.5t46 223.5t124.5 168.5t182.5 104z" />
    <glyph glyph-name="otilde" unicode="&#xf5;" horiz-adv-x="1300" 
d="M649 1343q106 -42 126 -47q53 -12 85 27q19 22 39 68l135 -48q-16 -44 -35 -78t-37.5 -57.5t-42 -38t-43 -22t-46.5 -7.5t-46.5 2t-49 11t-48 16t-49.5 19q-101 40 -124 44q-47 7 -76 -33q-17 -23 -36 -69l-137 50q20 54 44.5 93.5t48 63t54 34.5t56 13.5t60 -4t60 -15
t62.5 -22.5zM649 221q121 0 198 83.5t77 207.5t-77 207.5t-198 83.5q-120 0 -197 -84t-77 -207t77 -207t197 -84zM427 1008q104 36 222 36t222.5 -36.5t183 -103.5t124.5 -168.5t46 -223.5t-46 -223.5t-124.5 -168.5t-183 -103.5t-222.5 -36.5t-222 36.5t-182.5 103.5
t-124.5 168.5t-46 223.5t46 223.5t124.5 168.5t182.5 104z" />
    <glyph glyph-name="odieresis" unicode="&#xf6;" horiz-adv-x="1300" 
d="M285 1288q0 60 42 102t103 42q60 0 101.5 -42t41.5 -102q0 -61 -41.5 -103t-101.5 -42q-62 0 -103.5 41.5t-41.5 103.5zM725 1288q0 60 42 102t103 42q60 0 102 -42t42 -102q0 -61 -42 -103t-102 -42q-62 0 -103.5 41.5t-41.5 103.5zM649 221q121 0 198 83.5t77 207.5
t-77 207.5t-198 83.5q-120 0 -197 -84t-77 -207t77 -207t197 -84zM427 1008q104 36 222 36t222.5 -36.5t183 -103.5t124.5 -168.5t46 -223.5t-46 -223.5t-124.5 -168.5t-183 -103.5t-222.5 -36.5t-222 36.5t-182.5 103.5t-124.5 168.5t-46 223.5t46 223.5t124.5 168.5
t182.5 104z" />
    <glyph glyph-name="divide" unicode="&#xf7;" horiz-adv-x="829" 
d="M223 1016q0 76 54 129t133 53q75 0 128.5 -53.5t53.5 -128.5q0 -79 -53 -133t-129 -54q-80 0 -133.5 53.5t-53.5 133.5zM106 686h615v-194h-615v194zM223 166q0 76 54 129t133 53q75 0 128.5 -53.5t53.5 -128.5q0 -79 -53 -132.5t-129 -53.5q-80 0 -133.5 53.5
t-53.5 132.5z" />
    <glyph glyph-name="oslash" unicode="&#xf8;" horiz-adv-x="1325" 
d="M664 1044q31 0 47 -2l59 187h240l-76 -240q140 -62 222.5 -186t82.5 -291q0 -122 -46 -223.5t-124.5 -168.5t-182.5 -103.5t-222 -36.5q-8 0 -24.5 1t-23.5 1l-57 -187h-240l74 240q-140 62 -222.5 185.5t-82.5 291.5q0 122 46 223.5t124.5 168.5t183 103.5t222.5 36.5z
M664 221q121 0 197.5 83.5t76.5 207.5t-76.5 207.5t-197.5 83.5q-120 0 -197.5 -84t-77.5 -207t77.5 -207t197.5 -84z" />
    <glyph glyph-name="ugrave" unicode="&#xf9;" horiz-adv-x="1320" 
d="M715 1130h-174l-152 347h203zM1305 242v-242h-187q-120 0 -181.5 47t-76.5 148q-59 -101 -158 -158t-221 -57q-195 0 -287 108t-92 299v637h297v-561q0 -119 48 -180.5t171 -61.5q101 0 168.5 68t67.5 182v553h297v-627q0 -89 26 -122t107 -33h21z" />
    <glyph glyph-name="uacute" unicode="&#xfa;" horiz-adv-x="1320" 
d="M547 1130l119 347h202l-147 -347h-174zM1305 242v-242h-187q-120 0 -181.5 47t-76.5 148q-59 -101 -158 -158t-221 -57q-195 0 -287 108t-92 299v637h297v-561q0 -119 48 -180.5t171 -61.5q101 0 168.5 68t67.5 182v553h297v-627q0 -89 26 -122t107 -33h21z" />
    <glyph glyph-name="ucircumflex" unicode="&#xfb;" horiz-adv-x="1320" 
d="M285 1137l268 329h160l268 -329h-213l-135 184l-133 -184h-215zM1305 242v-242h-187q-120 0 -181.5 47t-76.5 148q-59 -101 -158 -158t-221 -57q-195 0 -287 108t-92 299v637h297v-561q0 -119 48 -180.5t171 -61.5q101 0 168.5 68t67.5 182v553h297v-627q0 -89 26 -122
t107 -33h21z" />
    <glyph glyph-name="udieresis" unicode="&#xfc;" horiz-adv-x="1320" 
d="M266 1288q0 60 42.5 102t103.5 42q60 0 101.5 -42t41.5 -102q0 -61 -41.5 -103t-101.5 -42q-62 0 -104 42t-42 103zM707 1288q0 60 42 102t103 42q60 0 101.5 -42t41.5 -102q0 -61 -41.5 -103t-101.5 -42q-62 0 -103.5 41.5t-41.5 103.5zM1305 242v-242h-187
q-120 0 -181.5 47t-76.5 148q-59 -101 -158 -158t-221 -57q-195 0 -287 108t-92 299v637h297v-561q0 -119 48 -180.5t171 -61.5q101 0 168.5 68t67.5 182v553h297v-627q0 -89 26 -122t107 -33h21z" />
    <glyph glyph-name="yacute" unicode="&#xfd;" horiz-adv-x="1247" 
d="M555 1130l119 347h203l-148 -347h-174zM1196 1024l-434 -1044q-26 -63 -44 -102.5t-43.5 -83.5t-49 -68.5t-58.5 -51t-74.5 -40t-94 -25t-120.5 -15.5t-151 -4v242q51 0 91 2t71.5 8t53 11t40 18t29 21t22.5 28.5t17.5 32t17.5 39.5l10 22l-428 1010h320l258 -688
l248 688h319z" />
    <glyph glyph-name="thorn" unicode="&#xfe;" horiz-adv-x="1323" 
d="M1116 896q133 -148 133 -384t-133.5 -384t-351.5 -148q-121 0 -215 51t-150 145v-586h-297v1844h297v-586q56 94 150 145t215 51q218 0 352 -148zM399 438q0 -89 83 -153t188 -64q122 0 200 79t78 212t-78 212t-200 79q-105 0 -188 -64t-83 -153v-148z" />
    <glyph glyph-name="ydieresis" unicode="&#xff;" horiz-adv-x="1247" 
d="M258 1288q0 60 42 102t103 42q60 0 102 -42t42 -102q0 -61 -42 -103t-102 -42q-61 0 -103 41.5t-42 103.5zM698 1288q0 60 42.5 102t103.5 42q60 0 101.5 -42t41.5 -102q0 -61 -41.5 -103t-101.5 -42q-62 0 -104 42t-42 103zM1196 1024l-434 -1044q-26 -63 -44 -102.5
t-43.5 -83.5t-49 -68.5t-58.5 -51t-74.5 -40t-94 -25t-120.5 -15.5t-151 -4v242q51 0 91 2t71.5 8t53 11t40 18t29 21t22.5 28.5t17.5 32t17.5 39.5l10 22l-428 1010h320l258 -688l248 688h319z" />
    <glyph glyph-name="Amacron" unicode="&#x100;" horiz-adv-x="1662" 
d="M559 1737h545v-144h-545v144zM682 1436h301l629 -1434h-301l-121 291h-717l-121 -291h-301zM573 539h517l-259 624z" />
    <glyph glyph-name="amacron" unicode="&#x101;" horiz-adv-x="1191" 
d="M324 1327h544v-143h-544v143zM201 1024h407q101 0 177.5 -19.5t126 -54t80 -86.5t43 -111.5t12.5 -134.5v-221q0 -88 28 -121.5t109 -33.5h16v-242h-205q-113 0 -159.5 39.5t-55.5 132.5q-85 -192 -323 -192q-369 0 -369 325q0 162 97.5 244t322.5 82h244
q-1 55 -14.5 85.5t-54.5 48t-118 17.5h-364v242zM752 434h-232q-68 0 -101.5 -22.5t-33.5 -79.5q0 -109 154 -109q59 0 104.5 13.5t77 50t31.5 92.5v55z" />
    <glyph glyph-name="Abreve" unicode="&#x102;" horiz-adv-x="1662" 
d="M498 1905h161q0 -86 40.5 -139.5t131.5 -53.5t132 53.5t41 139.5h161q0 -92 -27.5 -162.5t-74.5 -112.5t-106 -63t-126 -21q-142 0 -237.5 90t-95.5 269zM682 1436h301l629 -1434h-301l-121 291h-717l-121 -291h-301zM573 539h517l-259 624z" />
    <glyph glyph-name="abreve" unicode="&#x103;" horiz-adv-x="1191" 
d="M262 1495h162q0 -86 40.5 -139t131.5 -53t131.5 53t40.5 139h162q0 -92 -27.5 -162.5t-75 -112t-106 -62.5t-125.5 -21t-125.5 21t-106 62.5t-75 112t-27.5 162.5zM201 1024h407q101 0 177.5 -19.5t126 -54t80 -86.5t43 -111.5t12.5 -134.5v-221q0 -88 28 -121.5
t109 -33.5h16v-242h-205q-113 0 -159.5 39.5t-55.5 132.5q-85 -192 -323 -192q-369 0 -369 325q0 162 97.5 244t322.5 82h244q-1 55 -14.5 85.5t-54.5 48t-118 17.5h-364v242zM752 434h-232q-68 0 -101.5 -22.5t-33.5 -79.5q0 -109 154 -109q59 0 104.5 13.5t77 50
t31.5 92.5v55z" />
    <glyph glyph-name="Aogonek" unicode="&#x104;" horiz-adv-x="1662" 
d="M682 1436h301l629 -1434h-176l8 -6q-38 -45 -51.5 -61.5t-36.5 -49.5t-31 -60t-8 -56q0 -147 289 -68v-160q-66 -17 -139 -18t-143 15t-115.5 65t-45.5 125q0 115 146 278l-119 287h-717l-121 -291h-301zM573 539h517l-259 624z" />
    <glyph glyph-name="aogonek" unicode="&#x105;" horiz-adv-x="1191" 
d="M201 1024h407q101 0 177.5 -19.5t126 -54t80 -86.5t43 -111.5t12.5 -134.5v-221q0 -88 28 -121.5t109 -33.5h16v-242h-194q-38 -45 -57 -70.5t-35.5 -63t-16.5 -73.5q0 -146 289 -67v-160q-66 -17 -139 -18t-143 14.5t-115.5 64.5t-45.5 125q0 45 23 96.5t47.5 85
t65.5 82.5q-87 34 -99 156q-85 -192 -323 -192q-369 0 -369 325q0 162 97.5 244t322.5 82h244q-1 55 -14.5 85.5t-54.5 48t-118 17.5h-364v242zM752 434h-232q-68 0 -101.5 -22.5t-33.5 -79.5q0 -109 154 -109q59 0 104.5 13.5t77 50t31.5 92.5v55z" />
    <glyph glyph-name="Cacute" unicode="&#x106;" horiz-adv-x="1638" 
d="M729 1540l119 346h203l-148 -346h-174zM438 941q-39 -98 -39 -224t39 -223.5t104 -154.5t143 -85.5t163 -28.5q172 0 280.5 100t108.5 232h305q0 -78 -27 -158t-84.5 -155.5t-137.5 -134t-195.5 -94t-249.5 -35.5q-156 0 -293.5 51.5t-239.5 145t-161.5 233.5t-59.5 307
t59.5 307t161.5 233.5t239.5 145t293.5 51.5q134 0 249.5 -35.5t195.5 -94t137.5 -134t84.5 -155.5t27 -158h-305q0 63 -27.5 122t-76.5 105.5t-123.5 75t-161.5 28.5q-85 0 -163 -28.5t-143 -85t-104 -153.5z" />
    <glyph glyph-name="cacute" unicode="&#x107;" horiz-adv-x="1236" 
d="M555 1130l119 347h203l-148 -347h-174zM375 514q0 -136 74.5 -214.5t191.5 -78.5q96 0 158.5 58.5t62.5 134.5h301q0 -62 -18 -122t-58 -117t-99 -100t-147.5 -69t-195.5 -26q-262 0 -416.5 142t-154.5 392q0 247 154.5 388.5t416.5 141.5q107 0 195.5 -26t147.5 -69
t99 -100t58 -116.5t18 -120.5h-301q0 74 -62.5 132.5t-158.5 58.5q-117 0 -191.5 -77t-74.5 -212z" />
    <glyph glyph-name="Ccircumflex" unicode="&#x108;" horiz-adv-x="1638" 
d="M471 1546l268 330h160l268 -330h-213l-135 185l-133 -185h-215zM438 941q-39 -98 -39 -224t39 -223.5t104 -154.5t143 -85.5t163 -28.5q172 0 280.5 100t108.5 232h305q0 -78 -27 -158t-84.5 -155.5t-137.5 -134t-195.5 -94t-249.5 -35.5q-156 0 -293.5 51.5t-239.5 145
t-161.5 233.5t-59.5 307t59.5 307t161.5 233.5t239.5 145t293.5 51.5q134 0 249.5 -35.5t195.5 -94t137.5 -134t84.5 -155.5t27 -158h-305q0 63 -27.5 122t-76.5 105.5t-123.5 75t-161.5 28.5q-85 0 -163 -28.5t-143 -85t-104 -153.5z" />
    <glyph glyph-name="ccircumflex" unicode="&#x109;" horiz-adv-x="1236" 
d="M270 1137l269 329h159l269 -329h-213l-136 184l-133 -184h-215zM375 514q0 -136 74.5 -214.5t191.5 -78.5q96 0 158.5 58.5t62.5 134.5h301q0 -62 -18 -122t-58 -117t-99 -100t-147.5 -69t-195.5 -26q-262 0 -416.5 142t-154.5 392q0 247 154.5 388.5t416.5 141.5
q107 0 195.5 -26t147.5 -69t99 -100t58 -116.5t18 -120.5h-301q0 74 -62.5 132.5t-158.5 58.5q-117 0 -191.5 -77t-74.5 -212z" />
    <glyph glyph-name="Cdotaccent" unicode="&#x10a;" horiz-adv-x="1638" 
d="M674 1696q0 60 42 101.5t103 41.5q60 0 102 -41.5t42 -101.5q0 -61 -42 -103.5t-102 -42.5q-61 0 -103 42t-42 104zM438 941q-39 -98 -39 -224t39 -223.5t104 -154.5t143 -85.5t163 -28.5q172 0 280.5 100t108.5 232h305q0 -78 -27 -158t-84.5 -155.5t-137.5 -134
t-195.5 -94t-249.5 -35.5q-156 0 -293.5 51.5t-239.5 145t-161.5 233.5t-59.5 307t59.5 307t161.5 233.5t239.5 145t293.5 51.5q134 0 249.5 -35.5t195.5 -94t137.5 -134t84.5 -155.5t27 -158h-305q0 63 -27.5 122t-76.5 105.5t-123.5 75t-161.5 28.5q-85 0 -163 -28.5
t-143 -85t-104 -153.5z" />
    <glyph glyph-name="cdotaccent" unicode="&#x10b;" horiz-adv-x="1236" 
d="M473 1286q0 60 42 102t103 42q60 0 102 -42t42 -102q0 -61 -42 -103t-102 -42q-62 0 -103.5 41.5t-41.5 103.5zM375 514q0 -136 74.5 -214.5t191.5 -78.5q96 0 158.5 58.5t62.5 134.5h301q0 -62 -18 -122t-58 -117t-99 -100t-147.5 -69t-195.5 -26q-262 0 -416.5 142
t-154.5 392q0 247 154.5 388.5t416.5 141.5q107 0 195.5 -26t147.5 -69t99 -100t58 -116.5t18 -120.5h-301q0 74 -62.5 132.5t-158.5 58.5q-117 0 -191.5 -77t-74.5 -212z" />
    <glyph glyph-name="Ccaron" unicode="&#x10c;" horiz-adv-x="1638" 
d="M471 1870h215l133 -184l135 184h215l-268 -330h-162zM438 941q-39 -98 -39 -224t39 -223.5t104 -154.5t143 -85.5t163 -28.5q172 0 280.5 100t108.5 232h305q0 -78 -27 -158t-84.5 -155.5t-137.5 -134t-195.5 -94t-249.5 -35.5q-156 0 -293.5 51.5t-239.5 145
t-161.5 233.5t-59.5 307t59.5 307t161.5 233.5t239.5 145t293.5 51.5q134 0 249.5 -35.5t195.5 -94t137.5 -134t84.5 -155.5t27 -158h-305q0 63 -27.5 122t-76.5 105.5t-123.5 75t-161.5 28.5q-85 0 -163 -28.5t-143 -85t-104 -153.5z" />
    <glyph glyph-name="ccaron" unicode="&#x10d;" horiz-adv-x="1236" 
d="M270 1460h215l133 -184l136 184h215l-269 -330h-161zM375 514q0 -136 74.5 -214.5t191.5 -78.5q96 0 158.5 58.5t62.5 134.5h301q0 -62 -18 -122t-58 -117t-99 -100t-147.5 -69t-195.5 -26q-262 0 -416.5 142t-154.5 392q0 247 154.5 388.5t416.5 141.5q107 0 195.5 -26
t147.5 -69t99 -100t58 -116.5t18 -120.5h-301q0 74 -62.5 132.5t-158.5 58.5q-117 0 -191.5 -77t-74.5 -212z" />
    <glyph glyph-name="Dcaron" unicode="&#x10e;" horiz-adv-x="1601" 
d="M453 1870h215l133 -184l135 184h215l-268 -330h-162zM729 1434q129 0 245.5 -29.5t213.5 -89.5t168.5 -145t111 -201t39.5 -252t-39.5 -252t-111 -201t-168.5 -145t-213.5 -89.5t-245.5 -29.5h-606v1434h606zM424 246h305q215 0 344 121t129 350q0 230 -129 350.5
t-344 120.5h-305v-942z" />
    <glyph glyph-name="dcaron" unicode="&#x10f;" horiz-adv-x="1855" 
d="M1386 1272q0 76 54 129t133 53q75 0 128.5 -53.5t53.5 -128.5q0 -55 -31 -105l-178 -336h-151l121 263q-58 18 -94 66t-36 112zM208 128q-134 148 -134 384t133.5 384t351.5 148q117 0 211.5 -48t153.5 -136v574h297v-1434h-297v164q-59 -88 -153.5 -136t-211.5 -48
q-218 0 -351 148zM653 221q105 0 188 64t83 153v148q0 89 -83 153t-188 64q-122 0 -200 -79t-78 -212t78 -212t200 -79z" />
    <glyph glyph-name="Dcroat" unicode="&#x110;" horiz-adv-x="1601" 
d="M-53 815h176v619h606q129 0 245.5 -29.5t213.5 -89.5t168.5 -145t111 -201t39.5 -252t-39.5 -252t-111 -201t-168.5 -145t-213.5 -89.5t-245.5 -29.5h-606v621h-176v194zM424 246h305q215 0 344 121t129 350q0 230 -129 350.5t-344 120.5h-305v-373h313v-194h-313v-375z
" />
    <glyph glyph-name="dcroat" unicode="&#x111;" horiz-adv-x="1323" 
d="M573 1300h351v134h297v-134h186v-143h-186v-1157h-297v193q-51 -102 -145.5 -157.5t-219.5 -55.5q-218 0 -351.5 148t-133.5 384t133.5 384t351.5 148q125 0 219.5 -55.5t145.5 -157.5v326h-351v143zM653 221q105 0 188 64t83 153v148q0 89 -83 153t-188 64
q-122 0 -200 -79t-78 -212t78 -212t200 -79z" />
    <glyph glyph-name="Emacron" unicode="&#x112;" 
d="M383 1737h545v-144h-545v144zM123 1434h1051v-246h-750v-334h688v-246h-688v-362h750v-246h-1051v1434z" />
    <glyph glyph-name="emacron" unicode="&#x113;" horiz-adv-x="1236" 
d="M346 1327h545v-143h-545v143zM362 422q23 -103 94.5 -151t168.5 -48q111 0 178 35t67 96h285q-10 -74 -48 -139t-102.5 -118.5t-165.5 -85t-227 -31.5q-153 0 -274.5 62.5t-192.5 184.5t-71 285q0 246 151.5 390.5t386.5 144.5q174 0 299 -69t186.5 -185.5t63.5 -268.5
v-102h-799zM879 606q-40 199 -254 199q-92 0 -163.5 -50t-96.5 -149h514z" />
    <glyph glyph-name="Ebreve" unicode="&#x114;" 
d="M322 1905h161q0 -86 40.5 -139.5t131.5 -53.5t131.5 53.5t40.5 139.5h162q0 -92 -27.5 -162.5t-74.5 -112.5t-106 -63t-126 -21q-142 0 -237.5 90t-95.5 269zM123 1434h1051v-246h-750v-334h688v-246h-688v-362h750v-246h-1051v1434z" />
    <glyph glyph-name="ebreve" unicode="&#x115;" horiz-adv-x="1236" 
d="M305 1495h162q0 -86 40.5 -139t131.5 -53t131.5 53t40.5 139h162q0 -92 -27.5 -162.5t-75 -112t-106 -62.5t-125.5 -21t-125.5 21t-106 62.5t-75 112t-27.5 162.5zM362 422q23 -103 94.5 -151t168.5 -48q111 0 178 35t67 96h285q-10 -74 -48 -139t-102.5 -118.5
t-165.5 -85t-227 -31.5q-153 0 -274.5 62.5t-192.5 184.5t-71 285q0 246 151.5 390.5t386.5 144.5q174 0 299 -69t186.5 -185.5t63.5 -268.5v-102h-799zM879 606q-40 199 -254 199q-92 0 -163.5 -50t-96.5 -149h514z" />
    <glyph glyph-name="Edotaccent" unicode="&#x116;" 
d="M510 1696q0 60 42 101.5t103 41.5q60 0 102 -41.5t42 -101.5q0 -61 -42 -103.5t-102 -42.5q-61 0 -103 42t-42 104zM123 1434h1051v-246h-750v-334h688v-246h-688v-362h750v-246h-1051v1434z" />
    <glyph glyph-name="edotaccent" unicode="&#x117;" horiz-adv-x="1236" 
d="M473 1286q0 60 42 102t103 42q60 0 102 -42t42 -102q0 -61 -42 -103t-102 -42q-62 0 -103.5 41.5t-41.5 103.5zM362 422q23 -103 94.5 -151t168.5 -48q111 0 178 35t67 96h285q-10 -74 -48 -139t-102.5 -118.5t-165.5 -85t-227 -31.5q-153 0 -274.5 62.5t-192.5 184.5
t-71 285q0 246 151.5 390.5t386.5 144.5q174 0 299 -69t186.5 -185.5t63.5 -268.5v-102h-799zM879 606q-40 199 -254 199q-92 0 -163.5 -50t-96.5 -149h514z" />
    <glyph glyph-name="Eogonek" unicode="&#x118;" 
d="M123 1434h1051v-246h-750v-334h688v-246h-688v-362h750v-246h-164l4 -4q-38 -45 -51.5 -61.5t-36.5 -49.5t-31 -60t-8 -56q0 -147 289 -68v-160q-66 -17 -139 -18t-143 15t-115.5 65t-45.5 125q0 67 38.5 132.5t102.5 139.5h-751v1434z" />
    <glyph glyph-name="eogonek" unicode="&#x119;" horiz-adv-x="1236" 
d="M686 -20q-37 -43 -51 -61t-37 -51t-31 -60t-8 -56q0 -146 289 -67v-160q-52 -13 -109 -17.5t-117 3.5t-107.5 29.5t-78 65t-30.5 105.5q0 111 141 273h-2q-210 21 -340.5 161.5t-130.5 366.5q0 246 151.5 390.5t386.5 144.5q174 0 299 -69t186.5 -185.5t63.5 -268.5v-102
h-799q23 -103 94.5 -151t168.5 -48q111 0 178 35t67 96h285q-10 -68 -43 -129.5t-89.5 -113.5t-144 -86.5t-196.5 -42.5zM879 606q-40 199 -254 199q-92 0 -163.5 -50t-96.5 -149h514z" />
    <glyph glyph-name="Ecaron" unicode="&#x11a;" 
d="M319 1870h216l133 -184l135 184h215l-268 -330h-162zM123 1434h1051v-246h-750v-334h688v-246h-688v-362h750v-246h-1051v1434z" />
    <glyph glyph-name="ecaron" unicode="&#x11b;" horiz-adv-x="1236" 
d="M270 1460h215l133 -184l136 184h215l-269 -330h-161zM362 422q23 -103 94.5 -151t168.5 -48q111 0 178 35t67 96h285q-10 -74 -48 -139t-102.5 -118.5t-165.5 -85t-227 -31.5q-153 0 -274.5 62.5t-192.5 184.5t-71 285q0 246 151.5 390.5t386.5 144.5q174 0 299 -69
t186.5 -185.5t63.5 -268.5v-102h-799zM879 606q-40 199 -254 199q-92 0 -163.5 -50t-96.5 -149h514z" />
    <glyph glyph-name="Gcircumflex" unicode="&#x11c;" horiz-adv-x="1658" 
d="M481 1546l269 330h159l269 -330h-213l-136 185l-133 -185h-215zM399 721q0 -230 129.5 -359t343.5 -129q174 0 284 74t136 219h-479v248h752v-774h-267v164q-158 -176 -446 -176q-152 0 -289 51t-241.5 143.5t-166 232t-61.5 306.5t63 306.5t169 232t244.5 143.5
t291.5 51q148 0 278.5 -47.5t216.5 -122t135.5 -165t49.5 -177.5h-305q0 108 -105.5 187t-273.5 79q-208 0 -333.5 -125t-125.5 -362z" />
    <glyph glyph-name="gcircumflex" unicode="&#x11d;" horiz-adv-x="1323" 
d="M313 1137l269 329h159l269 -329h-213l-135 184l-134 -184h-215zM236 -168h434q138 0 196 48t58 173v111q-59 -88 -153.5 -136t-211.5 -48q-218 0 -351.5 148t-133.5 384t133.5 384t351.5 148q117 0 211.5 -48t153.5 -136v164h297v-932q0 -252 -126.5 -377t-400.5 -125
h-458v242zM653 221q105 0 188 64t83 153v148q0 89 -83 153t-188 64q-122 0 -200 -79t-78 -212t78 -212t200 -79z" />
    <glyph glyph-name="Gbreve" unicode="&#x11e;" horiz-adv-x="1658" 
d="M496 1905h161q0 -86 40.5 -139.5t131.5 -53.5t131.5 53.5t40.5 139.5h162q0 -92 -27.5 -162.5t-74.5 -112.5t-106 -63t-126 -21q-142 0 -237.5 90t-95.5 269zM399 721q0 -230 129.5 -359t343.5 -129q174 0 284 74t136 219h-479v248h752v-774h-267v164
q-158 -176 -446 -176q-152 0 -289 51t-241.5 143.5t-166 232t-61.5 306.5t63 306.5t169 232t244.5 143.5t291.5 51q148 0 278.5 -47.5t216.5 -122t135.5 -165t49.5 -177.5h-305q0 108 -105.5 187t-273.5 79q-208 0 -333.5 -125t-125.5 -362z" />
    <glyph glyph-name="gbreve" unicode="&#x11f;" horiz-adv-x="1323" 
d="M328 1495h161q0 -86 41 -139t132 -53t131.5 53t40.5 139h161q0 -92 -27 -162.5t-74.5 -112t-106 -62.5t-125.5 -21t-125.5 21t-106 62.5t-75 112t-27.5 162.5zM236 -168h434q138 0 196 48t58 173v111q-59 -88 -153.5 -136t-211.5 -48q-218 0 -351.5 148t-133.5 384
t133.5 384t351.5 148q117 0 211.5 -48t153.5 -136v164h297v-932q0 -252 -126.5 -377t-400.5 -125h-458v242zM653 221q105 0 188 64t83 153v148q0 89 -83 153t-188 64q-122 0 -200 -79t-78 -212t78 -212t200 -79z" />
    <glyph glyph-name="Gdotaccent" unicode="&#x120;" horiz-adv-x="1658" 
d="M684 1696q0 60 42 101.5t103 41.5q60 0 102 -41.5t42 -101.5q0 -61 -42 -103.5t-102 -42.5q-61 0 -103 42t-42 104zM399 721q0 -230 129.5 -359t343.5 -129q174 0 284 74t136 219h-479v248h752v-774h-267v164q-158 -176 -446 -176q-152 0 -289 51t-241.5 143.5t-166 232
t-61.5 306.5t63 306.5t169 232t244.5 143.5t291.5 51q148 0 278.5 -47.5t216.5 -122t135.5 -165t49.5 -177.5h-305q0 108 -105.5 187t-273.5 79q-208 0 -333.5 -125t-125.5 -362z" />
    <glyph glyph-name="gdotaccent" unicode="&#x121;" horiz-adv-x="1323" 
d="M516 1286q0 60 42.5 102t103.5 42q60 0 101.5 -42t41.5 -102q0 -61 -41.5 -103t-101.5 -42q-62 0 -104 42t-42 103zM236 -168h434q138 0 196 48t58 173v111q-59 -88 -153.5 -136t-211.5 -48q-218 0 -351.5 148t-133.5 384t133.5 384t351.5 148q117 0 211.5 -48
t153.5 -136v164h297v-932q0 -252 -126.5 -377t-400.5 -125h-458v242zM653 221q105 0 188 64t83 153v148q0 89 -83 153t-188 64q-122 0 -200 -79t-78 -212t78 -212t200 -79z" />
    <glyph glyph-name="uni0122" unicode="&#x122;" horiz-adv-x="1658" 
d="M399 721q0 -230 129.5 -359t343.5 -129q174 0 284 74t136 219h-479v248h752v-774h-267v164q-158 -176 -446 -176q-152 0 -289 51t-241.5 143.5t-166 232t-61.5 306.5t63 306.5t169 232t244.5 143.5t291.5 51q148 0 278.5 -47.5t216.5 -122t135.5 -165t49.5 -177.5h-305
q0 108 -105.5 187t-273.5 79q-208 0 -333.5 -125t-125.5 -362zM950 -262l-123 -227h-88l78 170q-37 11 -60.5 41t-23.5 71q0 47 33.5 80t83.5 33q46 0 79.5 -33.5t33.5 -79.5q0 -29 -13 -55z" />
    <glyph glyph-name="uni0123" unicode="&#x123;" horiz-adv-x="1323" 
d="M596 1311l123 227h88l-78 -170q37 -11 60.5 -41.5t23.5 -71.5q0 -46 -33.5 -79t-83.5 -33q-46 0 -79 33t-33 79q0 32 12 56zM236 -168h434q138 0 196 48t58 173v111q-59 -88 -153.5 -136t-211.5 -48q-218 0 -351.5 148t-133.5 384t133.5 384t351.5 148q117 0 211.5 -48
t153.5 -136v164h297v-932q0 -252 -126.5 -377t-400.5 -125h-458v242zM653 221q105 0 188 64t83 153v148q0 89 -83 153t-188 64q-122 0 -200 -79t-78 -212t78 -212t200 -79z" />
    <glyph glyph-name="Hcircumflex" unicode="&#x124;" horiz-adv-x="1695" 
d="M500 1546l268 330h160l268 -330h-213l-135 185l-133 -185h-215zM123 1434h301v-578h848v578h301v-1434h-301v610h-848v-610h-301v1434z" />
    <glyph glyph-name="hcircumflex" unicode="&#x125;" 
d="M465 1110l268 330h160l268 -330h-213l-135 184l-133 -184h-215zM102 1434h297v-594q59 96 156.5 150t216.5 54q195 0 287 -108t92 -299v-637h-297v561q0 119 -48 180.5t-171 61.5q-101 0 -168.5 -68t-67.5 -182v-553h-297v1434z" />
    <glyph glyph-name="Hbar" unicode="&#x126;" horiz-adv-x="1695" 
d="M123 1434h301v-338h848v338h301v-1434h-301v313h-848v-313h-301v1434zM424 559h848v291h-848v-291z" />
    <glyph glyph-name="hbar" unicode="&#x127;" 
d="M750 1300v-143h-351v-317q59 96 156.5 150t216.5 54q195 0 287 -108t92 -299v-637h-297v561q0 119 -48 180.5t-171 61.5q-101 0 -168.5 -68t-67.5 -182v-553h-297v1157h-186v143h186v134h297v-134h351z" />
    <glyph glyph-name="Itilde" unicode="&#x128;" horiz-adv-x="546" 
d="M274 1753q106 -43 125 -47q54 -13 86 25q19 22 39 69l135 -47q-20 -56 -45.5 -96t-49.5 -63.5t-56.5 -33.5t-57.5 -12t-62.5 7t-61.5 17.5t-64 24.5q-102 40 -123 44q-46 8 -75 -31q-17 -23 -37 -70l-138 49q23 63 51 106.5t60 64.5t62.5 30t69.5 3.5t69 -14.5t73 -26z
M123 1434h301v-1434h-301v1434z" />
    <glyph glyph-name="itilde" unicode="&#x129;" horiz-adv-x="487" 
d="M244 1343q106 -42 126 -47q53 -12 85 27q19 22 39 68l135 -48q-20 -56 -45.5 -96t-50 -63.5t-57 -33t-57.5 -11.5t-62.5 7t-61.5 17.5t-64 24.5q-102 40 -124 44q-46 7 -75 -33q-17 -24 -36 -69l-137 50q20 54 44.5 93.5t48 63t54 34.5t56 13.5t60 -4t60 -15t62.5 -22.5z
M94 1024h297v-1024h-297v1024z" />
    <glyph glyph-name="Imacron" unicode="&#x12a;" horiz-adv-x="546" 
d="M0 1737h545v-144h-545v144zM123 1434h301v-1434h-301v1434z" />
    <glyph glyph-name="imacron" unicode="&#x12b;" horiz-adv-x="487" 
d="M-29 1327h545v-143h-545v143zM94 1024h297v-1024h-297v1024z" />
    <glyph glyph-name="Iogonek" unicode="&#x12e;" horiz-adv-x="546" 
d="M123 1434h301v-1434h-92l8 -6q-38 -45 -51.5 -61.5t-36.5 -49.5t-31 -60t-8 -56q0 -147 289 -68v-160q-66 -17 -139 -18t-143 15t-115.5 65t-45.5 125q0 69 39.5 135t104.5 139h-80v1434z" />
    <glyph glyph-name="iogonek" unicode="&#x12f;" horiz-adv-x="487" 
d="M72 1333q0 72 50.5 122t125.5 50q71 0 121.5 -50t50.5 -122q0 -74 -50.5 -125t-121.5 -51q-75 0 -125.5 50.5t-50.5 125.5zM94 1024h297v-1024h-84l8 -6q-38 -45 -51.5 -61.5t-36.5 -49.5t-31 -60t-8 -56q0 -147 289 -68v-160q-52 -13 -109 -17.5t-117 4t-107.5 29.5
t-78 65t-30.5 106q0 69 39.5 135.5t103.5 138.5h-84v1024z" />
    <glyph glyph-name="Idotaccent" unicode="&#x130;" horiz-adv-x="546" 
d="M129 1696q0 60 42 101.5t103 41.5q60 0 102 -41.5t42 -101.5q0 -61 -42 -103.5t-102 -42.5q-61 0 -103 42t-42 104zM123 1434h301v-1434h-301v1434z" />
    <glyph glyph-name="dotlessi" unicode="&#x131;" horiz-adv-x="487" 
d="M94 1024h297v-1024h-297v1024z" />
    <glyph glyph-name="IJ" unicode="&#x132;" horiz-adv-x="1882" 
d="M123 1434h301v-1434h-301v1434zM1458 1434h301v-891q0 -121 -34.5 -222.5t-102 -178t-175.5 -119.5t-247 -43q-143 0 -251.5 42.5t-175.5 120.5t-100.5 182.5t-33.5 233.5h305q0 -153 62 -243.5t196 -90.5q85 0 144 44.5t85.5 114.5t26.5 159v891z" />
    <glyph glyph-name="ij" unicode="&#x133;" horiz-adv-x="972" 
d="M72 1333q0 72 50.5 122t125.5 50q71 0 121.5 -50t50.5 -122q0 -74 -50.5 -125t-121.5 -51q-75 0 -125.5 50.5t-50.5 125.5zM555 1333q0 72 50.5 122t125.5 50q71 0 121.5 -50t50.5 -122q0 -74 -50.5 -125t-121.5 -51q-75 0 -125.5 50.5t-50.5 125.5zM94 1024h297v-1024
h-297v1024zM311 -168h113q87 0 122.5 32t35.5 118v1042h297v-1108q0 -161 -86.5 -243.5t-253.5 -82.5h-228v242z" />
    <glyph glyph-name="Jcircumflex" unicode="&#x134;" horiz-adv-x="1335" 
d="M702 1546l269 330h159l269 -330h-213l-135 185l-133 -185h-216zM911 1434h301v-891q0 -121 -34.5 -222.5t-102 -178t-175.5 -119.5t-247 -43q-143 0 -251.5 42.5t-175.5 120.5t-100.5 182.5t-33.5 233.5h305q0 -153 62 -243.5t196 -90.5q85 0 144 44.5t85.5 114.5
t26.5 159v891z" />
    <glyph glyph-name="jcircumflex" unicode="&#x135;" horiz-adv-x="487" 
d="M-106 1137l268 329h160l268 -329h-213l-135 184l-133 -184h-215zM-178 -193h112q85 0 122.5 42t37.5 131v1046h297v-1110q0 -161 -86.5 -243.5t-253.5 -82.5h-229v217z" />
    <glyph glyph-name="uni0136" unicode="&#x136;" horiz-adv-x="1499" 
d="M123 1434h301v-635h172l428 635h360l-524 -746l588 -688h-377l-453 553h-194v-553h-301v1434zM846 -262l-123 -227h-88l78 170q-37 11 -60.5 41t-23.5 71q0 47 33 80t83 33q46 0 79.5 -33.5t33.5 -79.5q0 -31 -12 -55z" />
    <glyph glyph-name="uni0137" unicode="&#x137;" horiz-adv-x="1249" 
d="M102 1434h297v-781h142l247 371h345l-349 -483l406 -541h-352l-287 412h-152v-412h-297v1434zM745 -262l-122 -227h-88l77 170q-37 11 -60.5 41t-23.5 71q0 47 33.5 80t83.5 33q46 0 79.5 -33.5t33.5 -79.5q0 -29 -13 -55z" />
    <glyph glyph-name="kgreenlandic" unicode="&#x138;" horiz-adv-x="1249" 
d="M102 1024h297v-371h142l247 371h345l-349 -483l406 -541h-352l-287 412h-152v-412h-297v1024z" />
    <glyph glyph-name="Lacute" unicode="&#x139;" horiz-adv-x="1267" 
d="M739 1090l119 346h203l-148 -346h-174zM123 1434h301v-1188h766v-246h-1067v1434z" />
    <glyph glyph-name="lacute" unicode="&#x13a;" horiz-adv-x="569" 
d="M180 1540l119 346h203l-148 -346h-174zM553 242v-242h-186q-144 0 -204.5 67t-60.5 216v1151h297v-1037q0 -89 26 -122t107 -33h21z" />
    <glyph glyph-name="uni013B" unicode="&#x13b;" horiz-adv-x="1267" 
d="M123 1434h301v-1188h766v-246h-1067v1434zM764 -262l-123 -227h-88l78 170q-37 11 -60.5 41t-23.5 71q0 47 33.5 80t83.5 33q46 0 79 -33.5t33 -79.5q0 -31 -12 -55z" />
    <glyph glyph-name="uni013C" unicode="&#x13c;" horiz-adv-x="569" 
d="M553 242v-242h-186q-144 0 -204.5 67t-60.5 216v1151h297v-1037q0 -89 26 -122t107 -33h21zM465 -262l-123 -227h-88l78 170q-37 11 -60.5 41t-23.5 71q0 47 33.5 80t83.5 33q46 0 79 -33.5t33 -79.5q0 -31 -12 -55z" />
    <glyph glyph-name="Lcaron" unicode="&#x13d;" horiz-adv-x="1267" 
d="M123 1434h301v-1188h766v-246h-1067v1434zM752 1251q0 76 53.5 129.5t132.5 53.5q75 0 128.5 -54t53.5 -129q0 -56 -30 -104l-179 -336h-151l121 262q-58 17 -93.5 65.5t-35.5 112.5z" />
    <glyph glyph-name="lcaron" unicode="&#x13e;" horiz-adv-x="1093" 
d="M623 1264q0 76 53.5 129t132.5 53q75 0 128.5 -53.5t53.5 -128.5q0 -57 -30 -105l-179 -336h-151l121 262q-58 17 -93.5 66t-35.5 113zM553 242v-242h-186q-144 0 -204.5 67t-60.5 216v1151h297v-1037q0 -89 26 -122t107 -33h21z" />
    <glyph glyph-name="Ldot" unicode="&#x13f;" horiz-adv-x="1267" 
d="M123 1434h301v-1188h766v-246h-1067v1434zM670 1251q0 76 53.5 129.5t132.5 53.5q75 0 128.5 -54t53.5 -129q0 -79 -53 -132.5t-129 -53.5q-80 0 -133 53.5t-53 132.5z" />
    <glyph glyph-name="ldot" unicode="&#x140;" horiz-adv-x="1067" 
d="M553 242v-242h-186q-144 0 -204.5 67t-60.5 216v1151h297v-1037q0 -89 26 -122t107 -33h21zM571 1251q0 76 54 129.5t133 53.5q75 0 128.5 -54t53.5 -129q0 -79 -53 -132.5t-129 -53.5q-80 0 -133.5 53.5t-53.5 132.5z" />
    <glyph glyph-name="Lslash" unicode="&#x141;" horiz-adv-x="1267" 
d="M-201 750l324 116v568h301v-457l260 94l68 -182l-328 -119v-524h766v-246h-1067v659l-258 -94z" />
    <glyph glyph-name="lslash" unicode="&#x142;" horiz-adv-x="569" 
d="M-233 750l335 122v562h297v-455l252 92l66 -182l-318 -117v-375q0 -89 26 -122t107 -33h21v-242h-186q-144 0 -204.5 67t-60.5 216v381l-270 -99z" />
    <glyph glyph-name="Nacute" unicode="&#x143;" horiz-adv-x="1683" 
d="M793 1540l118 346h203l-147 -346h-174zM123 1434h301l836 -1016v1016h301v-1434h-301l-836 995v-995h-301v1434z" />
    <glyph glyph-name="nacute" unicode="&#x144;" 
d="M524 1130l119 347h203l-148 -347h-174zM102 1024h297v-184q59 96 156.5 150t216.5 54q195 0 287 -108t92 -299v-637h-297v561q0 119 -48 180.5t-171 61.5q-101 0 -168.5 -68t-67.5 -182v-553h-297v1024z" />
    <glyph glyph-name="uni0145" unicode="&#x145;" horiz-adv-x="1683" 
d="M123 1434h301l836 -1016v1016h301v-1434h-301l-836 995v-995h-301v1434zM969 -262l-123 -227h-88l78 170q-37 11 -60.5 41t-23.5 71q0 47 33 80t83 33q46 0 79.5 -33.5t33.5 -79.5q0 -31 -12 -55z" />
    <glyph glyph-name="uni0146" unicode="&#x146;" 
d="M102 1024h297v-184q59 96 156.5 150t216.5 54q195 0 287 -108t92 -299v-637h-297v561q0 119 -48 180.5t-171 61.5q-101 0 -168.5 -68t-67.5 -182v-553h-297v1024zM741 -262l-123 -227h-88l78 170q-37 11 -60.5 41t-23.5 71q0 47 33.5 80t83.5 33q46 0 79.5 -33.5
t33.5 -79.5q0 -29 -13 -55z" />
    <glyph glyph-name="Ncaron" unicode="&#x147;" horiz-adv-x="1683" 
d="M508 1870h215l133 -184l135 184h215l-268 -330h-162zM123 1434h301l836 -1016v1016h301v-1434h-301l-836 995v-995h-301v1434z" />
    <glyph glyph-name="ncaron" unicode="&#x148;" 
d="M279 1460h215l133 -184l135 184h215l-268 -330h-162zM102 1024h297v-184q59 96 156.5 150t216.5 54q195 0 287 -108t92 -299v-637h-297v561q0 119 -48 180.5t-171 61.5q-101 0 -168.5 -68t-67.5 -182v-553h-297v1024z" />
    <glyph glyph-name="napostrophe" unicode="&#x149;" 
d="M102 1024h297v-184q59 96 156.5 150t216.5 54q195 0 287 -108t92 -299v-637h-297v561q0 119 -48 180.5t-171 61.5q-101 0 -168.5 -68t-67.5 -182v-553h-297v1024z" />
    <glyph glyph-name="Omacron" unicode="&#x14c;" horiz-adv-x="1744" 
d="M600 1737h545v-144h-545v144zM157 407q-63 141 -63 310t63 310t170 233t247 143t296 51q125 0 240.5 -32t213.5 -95t170.5 -150.5t113.5 -205.5t41 -254t-41 -254t-113.5 -205.5t-170.5 -150.5t-213.5 -95t-240.5 -32q-156 0 -296 51t-247 143t-170 233zM870 1208
q-98 0 -184 -35t-149.5 -98t-100.5 -155.5t-37 -202.5q0 -146 63 -259t170 -173t238 -60q202 0 337.5 136t135.5 356t-135.5 355.5t-337.5 135.5z" />
    <glyph glyph-name="omacron" unicode="&#x14d;" horiz-adv-x="1300" 
d="M377 1327h545v-143h-545v143zM649 221q121 0 198 83.5t77 207.5t-77 207.5t-198 83.5q-120 0 -197 -84t-77 -207t77 -207t197 -84zM427 1008q104 36 222 36t222.5 -36.5t183 -103.5t124.5 -168.5t46 -223.5t-46 -223.5t-124.5 -168.5t-183 -103.5t-222.5 -36.5t-222 36.5
t-182.5 103.5t-124.5 168.5t-46 223.5t46 223.5t124.5 168.5t182.5 104z" />
    <glyph glyph-name="Obreve" unicode="&#x14e;" horiz-adv-x="1744" 
d="M539 1905h161q0 -86 40.5 -139.5t131.5 -53.5t131.5 53.5t40.5 139.5h162q0 -92 -27.5 -162.5t-74.5 -112.5t-106 -63t-126 -21q-142 0 -237.5 90t-95.5 269zM157 407q-63 141 -63 310t63 310t170 233t247 143t296 51q125 0 240.5 -32t213.5 -95t170.5 -150.5
t113.5 -205.5t41 -254t-41 -254t-113.5 -205.5t-170.5 -150.5t-213.5 -95t-240.5 -32q-156 0 -296 51t-247 143t-170 233zM870 1208q-98 0 -184 -35t-149.5 -98t-100.5 -155.5t-37 -202.5q0 -146 63 -259t170 -173t238 -60q202 0 337.5 136t135.5 356t-135.5 355.5
t-337.5 135.5z" />
    <glyph glyph-name="obreve" unicode="&#x14f;" horiz-adv-x="1300" 
d="M315 1495h162q0 -86 40.5 -139t131.5 -53t131.5 53t40.5 139h162q0 -92 -27.5 -162.5t-75 -112t-106 -62.5t-125.5 -21t-125.5 21t-106 62.5t-75 112t-27.5 162.5zM649 221q121 0 198 83.5t77 207.5t-77 207.5t-198 83.5q-120 0 -197 -84t-77 -207t77 -207t197 -84z
M427 1008q104 36 222 36t222.5 -36.5t183 -103.5t124.5 -168.5t46 -223.5t-46 -223.5t-124.5 -168.5t-183 -103.5t-222.5 -36.5t-222 36.5t-182.5 103.5t-124.5 168.5t-46 223.5t46 223.5t124.5 168.5t182.5 104z" />
    <glyph glyph-name="Ohungarumlaut" unicode="&#x150;" horiz-adv-x="1744" 
d="M946 1540l117 346h205l-148 -346h-174zM610 1540l119 346h203l-148 -346h-174zM157 407q-63 141 -63 310t63 310t170 233t247 143t296 51q125 0 240.5 -32t213.5 -95t170.5 -150.5t113.5 -205.5t41 -254t-41 -254t-113.5 -205.5t-170.5 -150.5t-213.5 -95t-240.5 -32
q-156 0 -296 51t-247 143t-170 233zM870 1208q-98 0 -184 -35t-149.5 -98t-100.5 -155.5t-37 -202.5q0 -146 63 -259t170 -173t238 -60q202 0 337.5 136t135.5 356t-135.5 355.5t-337.5 135.5z" />
    <glyph glyph-name="ohungarumlaut" unicode="&#x151;" horiz-adv-x="1300" 
d="M723 1130l117 347h204l-147 -347h-174zM387 1130l119 347h203l-148 -347h-174zM649 221q121 0 198 83.5t77 207.5t-77 207.5t-198 83.5q-120 0 -197 -84t-77 -207t77 -207t197 -84zM427 1008q104 36 222 36t222.5 -36.5t183 -103.5t124.5 -168.5t46 -223.5t-46 -223.5
t-124.5 -168.5t-183 -103.5t-222.5 -36.5t-222 36.5t-182.5 103.5t-124.5 168.5t-46 223.5t46 223.5t124.5 168.5t182.5 104z" />
    <glyph glyph-name="OE" unicode="&#x152;" horiz-adv-x="2480" 
d="M157 407q-63 141 -63 310t63 310t170 233t247 143t296 51q274 0 478 -141v121h1050v-246h-749v-334h688v-246h-688v-362h749v-246h-1050v121q-204 -141 -478 -141q-156 0 -296 51t-247 143t-170 233zM870 1208q-98 0 -184 -35t-149.5 -98t-100.5 -155.5t-37 -202.5
q0 -146 63 -259t170 -173t238 -60q202 0 337.5 136t135.5 356t-135.5 355.5t-337.5 135.5z" />
    <glyph glyph-name="oe" unicode="&#x153;" horiz-adv-x="2093" 
d="M649 221q121 0 198 83.5t77 207.5t-77 207.5t-198 83.5q-120 0 -197 -84t-77 -207t77 -207t197 -84zM1733 606q-40 199 -254 199q-92 0 -163.5 -50t-96.5 -149h514zM649 1044q124 0 232.5 -39t187.5 -114q153 156 397 156q174 0 299 -69t186.5 -185.5t63.5 -268.5v-102
h-796q23 -103 94 -151t166 -48q111 0 178 35t67 96h285q-10 -74 -48 -139t-102.5 -118.5t-165.5 -85t-227 -31.5q-250 0 -397 153q-79 -75 -187.5 -114t-232.5 -39q-118 0 -222 36.5t-182.5 103.5t-124.5 168.5t-46 223.5t46 223.5t124.5 168.5t182.5 103.5t222 36.5z" />
    <glyph glyph-name="Racute" unicode="&#x154;" horiz-adv-x="1503" 
d="M631 1540l119 346h202l-147 -346h-174zM827 1434q60 0 123.5 -10.5t139.5 -41.5t134 -79t97 -132t39 -192q0 -78 -20 -145.5t-53 -115.5t-79 -86.5t-93.5 -63t-100.5 -40.5l391 -528h-348l-365 498h-268v-498h-301v1434h704zM424 743h379q40 0 81.5 12t81 36.5t64.5 70
t25 105.5q0 58 -25 103t-64.5 69.5t-81 36.5t-81.5 12h-379v-445z" />
    <glyph glyph-name="racute" unicode="&#x155;" horiz-adv-x="860" 
d="M381 1130l119 347h202l-147 -347h-174zM102 1024h297v-176q57 91 143 143.5t175 52.5h100v-241h-203q-101 0 -158 -61.5t-57 -182.5v-559h-297v1024z" />
    <glyph glyph-name="uni0156" unicode="&#x156;" horiz-adv-x="1503" 
d="M827 1434q60 0 123.5 -10.5t139.5 -41.5t134 -79t97 -132t39 -192q0 -78 -20 -145.5t-53 -115.5t-79 -86.5t-93.5 -63t-100.5 -40.5l391 -528h-348l-365 498h-268v-498h-301v1434h704zM424 743h379q40 0 81.5 12t81 36.5t64.5 70t25 105.5q0 58 -25 103t-64.5 69.5
t-81 36.5t-81.5 12h-379v-445zM829 -262l-122 -227h-89l78 170q-37 11 -60.5 41t-23.5 71q0 47 33.5 80t83.5 33q46 0 79.5 -33.5t33.5 -79.5q0 -29 -13 -55z" />
    <glyph glyph-name="uni0157" unicode="&#x157;" horiz-adv-x="860" 
d="M102 1024h297v-176q57 91 143 143.5t175 52.5h100v-241h-203q-101 0 -158 -61.5t-57 -182.5v-559h-297v1024zM365 -262l-123 -227h-88l77 170q-37 11 -60.5 41t-23.5 71q0 47 33.5 80t83.5 33q46 0 79.5 -33.5t33.5 -79.5q0 -31 -12 -55z" />
    <glyph glyph-name="Rcaron" unicode="&#x158;" horiz-adv-x="1503" 
d="M403 1870h215l134 -184l135 184h215l-268 -330h-162zM827 1434q60 0 123.5 -10.5t139.5 -41.5t134 -79t97 -132t39 -192q0 -78 -20 -145.5t-53 -115.5t-79 -86.5t-93.5 -63t-100.5 -40.5l391 -528h-348l-365 498h-268v-498h-301v1434h704zM424 743h379q40 0 81.5 12
t81 36.5t64.5 70t25 105.5q0 58 -25 103t-64.5 69.5t-81 36.5t-81.5 12h-379v-445z" />
    <glyph glyph-name="rcaron" unicode="&#x159;" horiz-adv-x="860" 
d="M96 1460h215l133 -184l136 184h215l-269 -330h-161zM102 1024h297v-176q57 91 143 143.5t175 52.5h100v-241h-203q-101 0 -158 -61.5t-57 -182.5v-559h-297v1024z" />
    <glyph glyph-name="Sacute" unicode="&#x15a;" horiz-adv-x="1505" 
d="M655 1540l119 346h203l-148 -346h-174zM393 471q0 -110 94 -174t275 -64q161 0 255.5 46t94.5 124q0 30 -15.5 52t-41 36.5t-73.5 28t-97 22.5t-127 23q-70 12 -109 19q-262 47 -382 155.5t-120 292.5q0 133 82.5 230t216 144.5t299.5 47.5q135 0 244 -26t181.5 -70.5
t121.5 -106.5t70.5 -130t21.5 -144h-305q0 99 -81 161t-253 62q-129 0 -210.5 -42.5t-81.5 -115.5q0 -35 11 -58t37.5 -40t72.5 -30t112.5 -26.5t161.5 -30.5q5 -1 8 -1q74 -13 127 -24.5t116 -30t106 -39.5t86 -53t68.5 -70.5t41.5 -91.5t16 -117q0 -98 -39.5 -179
t-116.5 -142t-201.5 -95t-285.5 -34q-142 0 -258 27.5t-194.5 74.5t-132 110t-77.5 133t-24 146h305z" />
    <glyph glyph-name="sacute" unicode="&#x15b;" horiz-adv-x="1171" 
d="M487 1130l119 347h203l-147 -347h-175zM375 338q0 -141 231 -141q189 0 189 84q0 36 -51.5 55t-211.5 53q-25 5 -38 8q-92 19 -159.5 45t-121.5 64t-81.5 93.5t-27.5 127.5q0 65 26.5 119t71.5 90t105.5 61t126.5 36t137 11q105 0 190 -21t140.5 -56t93.5 -82.5t54 -97
t16 -101.5h-301q0 66 -40 103.5t-146 37.5q-172 0 -172 -77q0 -44 58.5 -67t246.5 -62q52 -11 86 -19.5t78.5 -23t73.5 -29.5t60 -38.5t48.5 -51.5t29 -66t11.5 -84q0 -149 -137 -239t-369 -90q-124 0 -225.5 32t-163.5 84t-95.5 114.5t-33.5 127.5h301z" />
    <glyph glyph-name="Scircumflex" unicode="&#x15c;" horiz-adv-x="1505" 
d="M403 1546l269 330h159l269 -330h-213l-135 185l-134 -185h-215zM393 471q0 -110 94 -174t275 -64q161 0 255.5 46t94.5 124q0 30 -15.5 52t-41 36.5t-73.5 28t-97 22.5t-127 23q-70 12 -109 19q-262 47 -382 155.5t-120 292.5q0 133 82.5 230t216 144.5t299.5 47.5
q135 0 244 -26t181.5 -70.5t121.5 -106.5t70.5 -130t21.5 -144h-305q0 99 -81 161t-253 62q-129 0 -210.5 -42.5t-81.5 -115.5q0 -35 11 -58t37.5 -40t72.5 -30t112.5 -26.5t161.5 -30.5q5 -1 8 -1q74 -13 127 -24.5t116 -30t106 -39.5t86 -53t68.5 -70.5t41.5 -91.5
t16 -117q0 -98 -39.5 -179t-116.5 -142t-201.5 -95t-285.5 -34q-142 0 -258 27.5t-194.5 74.5t-132 110t-77.5 133t-24 146h305z" />
    <glyph glyph-name="scircumflex" unicode="&#x15d;" horiz-adv-x="1171" 
d="M238 1137l268 329h160l268 -329h-213l-135 184l-133 -184h-215zM375 338q0 -141 231 -141q189 0 189 84q0 36 -51.5 55t-211.5 53q-25 5 -38 8q-92 19 -159.5 45t-121.5 64t-81.5 93.5t-27.5 127.5q0 65 26.5 119t71.5 90t105.5 61t126.5 36t137 11q105 0 190 -21
t140.5 -56t93.5 -82.5t54 -97t16 -101.5h-301q0 66 -40 103.5t-146 37.5q-172 0 -172 -77q0 -44 58.5 -67t246.5 -62q52 -11 86 -19.5t78.5 -23t73.5 -29.5t60 -38.5t48.5 -51.5t29 -66t11.5 -84q0 -149 -137 -239t-369 -90q-124 0 -225.5 32t-163.5 84t-95.5 114.5
t-33.5 127.5h301z" />
    <glyph glyph-name="Scedilla" unicode="&#x15e;" horiz-adv-x="1505" 
d="M393 471q0 -110 94 -174t275 -64q161 0 255.5 46t94.5 124q0 30 -15.5 52t-41 36.5t-73.5 28t-97 22.5t-127 23q-70 12 -109 19q-262 47 -382 155.5t-120 292.5q0 133 82.5 230t216 144.5t299.5 47.5q135 0 244 -26t181.5 -70.5t121.5 -106.5t70.5 -130t21.5 -144h-305
q0 99 -81 161t-253 62q-129 0 -210.5 -42.5t-81.5 -115.5q0 -35 11 -58t37.5 -40t72.5 -30t112.5 -26.5t161.5 -30.5q5 -1 8 -1q74 -13 127 -24.5t116 -30t106 -39.5t86 -53t68.5 -70.5t41.5 -91.5t16 -117q0 -192 -147.5 -314t-435.5 -134l-25 -78q96 -10 148.5 -49
t52.5 -125q0 -65 -28 -112t-72.5 -71.5t-102 -35.5t-114 -8t-111.5 16v147q262 -73 262 68q0 23 -7 37.5t-15.5 22.5t-31 11.5t-38.5 4t-54 0.5h-14h-12l39 172q-159 7 -282 51t-195.5 113t-109 151.5t-36.5 173.5h305z" />
    <glyph glyph-name="scedilla" unicode="&#x15f;" horiz-adv-x="1171" 
d="M375 338q0 -141 231 -141q189 0 189 84q0 36 -51.5 55t-211.5 53q-25 5 -38 8q-92 19 -159.5 45t-121.5 64t-81.5 93.5t-27.5 127.5q0 65 26.5 119t71.5 90t105.5 61t126.5 36t137 11q105 0 190 -21t140.5 -56t93.5 -82.5t54 -97t16 -101.5h-301q0 66 -40 103.5
t-146 37.5q-172 0 -172 -77q0 -44 58.5 -67t246.5 -62q52 -11 86 -19.5t78.5 -23t73.5 -29.5t60 -38.5t48.5 -51.5t29 -66t11.5 -84q0 -136 -116 -225t-316 -102l-25 -78q96 -10 148.5 -49t52.5 -125q0 -65 -28 -112t-72.5 -71.5t-102 -35.5t-114 -8t-111.5 16v147
q262 -73 262 68q0 23 -7 37.5t-15.5 22.5t-31 11.5t-38.5 4t-54 0.5h-14h-12l39 172q-112 6 -203.5 40t-148 85t-87 110.5t-30.5 120.5h301z" />
    <glyph glyph-name="Scaron" unicode="&#x160;" horiz-adv-x="1505" 
d="M403 1870h215l134 -184l135 184h215l-268 -330h-162zM393 471q0 -110 94 -174t275 -64q161 0 255.5 46t94.5 124q0 30 -15.5 52t-41 36.5t-73.5 28t-97 22.5t-127 23q-70 12 -109 19q-262 47 -382 155.5t-120 292.5q0 133 82.5 230t216 144.5t299.5 47.5q135 0 244 -26
t181.5 -70.5t121.5 -106.5t70.5 -130t21.5 -144h-305q0 99 -81 161t-253 62q-129 0 -210.5 -42.5t-81.5 -115.5q0 -35 11 -58t37.5 -40t72.5 -30t112.5 -26.5t161.5 -30.5q5 -1 8 -1q74 -13 127 -24.5t116 -30t106 -39.5t86 -53t68.5 -70.5t41.5 -91.5t16 -117
q0 -98 -39.5 -179t-116.5 -142t-201.5 -95t-285.5 -34q-142 0 -258 27.5t-194.5 74.5t-132 110t-77.5 133t-24 146h305z" />
    <glyph glyph-name="scaron" unicode="&#x161;" horiz-adv-x="1171" 
d="M238 1460h215l133 -184l135 184h215l-268 -330h-162zM375 338q0 -141 231 -141q189 0 189 84q0 36 -51.5 55t-211.5 53q-25 5 -38 8q-92 19 -159.5 45t-121.5 64t-81.5 93.5t-27.5 127.5q0 65 26.5 119t71.5 90t105.5 61t126.5 36t137 11q105 0 190 -21t140.5 -56
t93.5 -82.5t54 -97t16 -101.5h-301q0 66 -40 103.5t-146 37.5q-172 0 -172 -77q0 -44 58.5 -67t246.5 -62q52 -11 86 -19.5t78.5 -23t73.5 -29.5t60 -38.5t48.5 -51.5t29 -66t11.5 -84q0 -149 -137 -239t-369 -90q-124 0 -225.5 32t-163.5 84t-95.5 114.5t-33.5 127.5h301z
" />
    <glyph glyph-name="uni0162" unicode="&#x162;" horiz-adv-x="1406" 
d="M66 1434h1277v-246h-489v-1188h-301v1188h-487v246zM803 -262l-123 -227h-88l78 170q-37 11 -60.5 41t-23.5 71q0 47 33 80t83 33q46 0 79.5 -33.5t33.5 -79.5q0 -31 -12 -55z" />
    <glyph glyph-name="uni0163" unicode="&#x163;" horiz-adv-x="845" 
d="M53 1024h146v246h297v-246h301v-242h-301v-393q0 -85 35.5 -116t123.5 -31h140v-242h-254q-168 0 -255 82.5t-87 243.5v456h-146v242zM618 -262l-122 -227h-88l77 170q-37 11 -60.5 41t-23.5 71q0 47 33.5 80t83.5 33q46 0 79.5 -33.5t33.5 -79.5q0 -29 -13 -55z" />
    <glyph glyph-name="Tcaron" unicode="&#x164;" horiz-adv-x="1406" 
d="M354 1870h215l133 -184l136 184h215l-269 -330h-161zM66 1434h1277v-246h-489v-1188h-301v1188h-487v246z" />
    <glyph glyph-name="tcaron" unicode="&#x165;" horiz-adv-x="1308" 
d="M862 1272q0 76 54 129t133 53q75 0 128.5 -53.5t53.5 -128.5q0 -55 -31 -105l-178 -336h-152l121 263q-58 17 -93.5 65.5t-35.5 112.5zM53 1024h146v246h297v-246h301v-242h-301v-393q0 -85 35.5 -116t123.5 -31h140v-242h-254q-168 0 -255 82.5t-87 243.5v456h-146v242z
" />
    <glyph glyph-name="Tbar" unicode="&#x166;" horiz-adv-x="1406" 
d="M225 729h328v459h-487v246h1277v-246h-489v-459h326v-143h-326v-586h-301v586h-328v143z" />
    <glyph glyph-name="tbar" unicode="&#x167;" horiz-adv-x="845" 
d="M53 1024h146v246h297v-246h301v-178h-301v-178h301v-179h-301v-100q0 -85 35.5 -116t123.5 -31h140v-242h-254q-168 0 -255 82.5t-87 243.5v163h-146v179h146v178h-146v178z" />
    <glyph glyph-name="Utilde" unicode="&#x168;" horiz-adv-x="1544" 
d="M760 1753q106 -43 125 -47q54 -13 86 25q19 22 39 69l135 -47q-20 -56 -45.5 -96t-49.5 -63.5t-56.5 -33.5t-57.5 -12t-62.5 7t-61.5 17.5t-64 24.5q-102 40 -124 44q-47 8 -76 -33q-17 -23 -36 -68l-137 49q23 63 51 106.5t60 64.5t62.5 30t69.5 3.5t69 -14.5t73 -26z
M1120 1434h301v-840q0 -313 -163.5 -463.5t-489.5 -150.5q-323 0 -484 150.5t-161 463.5v840h301v-840q0 -193 82.5 -281t261.5 -88q180 0 266 88.5t86 280.5v840z" />
    <glyph glyph-name="utilde" unicode="&#x169;" horiz-adv-x="1320" 
d="M635 1343q106 -42 126 -47q53 -12 85 27q19 22 39 68l135 -48q-16 -44 -35 -78t-37.5 -57.5t-42 -38t-43 -22t-46.5 -7.5t-46.5 2t-49 11t-48 16t-49.5 19q-101 40 -124 44q-47 7 -76 -33q-17 -23 -36 -69l-137 50q20 54 44.5 93.5t48 63t54 34.5t56 13.5t60 -4t60 -15
t62.5 -22.5zM1305 242v-242h-187q-120 0 -181.5 47t-76.5 148q-59 -101 -158 -158t-221 -57q-195 0 -287 108t-92 299v637h297v-561q0 -119 48 -180.5t171 -61.5q101 0 168.5 68t67.5 182v553h297v-627q0 -89 26 -122t107 -33h21z" />
    <glyph glyph-name="Umacron" unicode="&#x16a;" horiz-adv-x="1544" 
d="M500 1737h544v-144h-544v144zM1120 1434h301v-840q0 -313 -163.5 -463.5t-489.5 -150.5q-323 0 -484 150.5t-161 463.5v840h301v-840q0 -193 82.5 -281t261.5 -88q180 0 266 88.5t86 280.5v840z" />
    <glyph glyph-name="umacron" unicode="&#x16b;" horiz-adv-x="1320" 
d="M362 1327h545v-143h-545v143zM1305 242v-242h-187q-120 0 -181.5 47t-76.5 148q-59 -101 -158 -158t-221 -57q-195 0 -287 108t-92 299v637h297v-561q0 -119 48 -180.5t171 -61.5q101 0 168.5 68t67.5 182v553h297v-627q0 -89 26 -122t107 -33h21z" />
    <glyph glyph-name="Ubreve" unicode="&#x16c;" horiz-adv-x="1544" 
d="M438 1905h162q0 -86 40.5 -139.5t131.5 -53.5t131.5 53.5t40.5 139.5h162q0 -92 -27.5 -162.5t-74.5 -112.5t-106 -63t-126 -21t-126 21t-106 63t-74.5 112.5t-27.5 162.5zM1120 1434h301v-840q0 -313 -163.5 -463.5t-489.5 -150.5q-323 0 -484 150.5t-161 463.5v840h301
v-840q0 -193 82.5 -281t261.5 -88q180 0 266 88.5t86 280.5v840z" />
    <glyph glyph-name="ubreve" unicode="&#x16d;" horiz-adv-x="1320" 
d="M301 1495h162q0 -86 40.5 -139t131.5 -53t131.5 53t40.5 139h162q0 -92 -27.5 -162.5t-75 -112t-106 -62.5t-125.5 -21t-125.5 21t-106 62.5t-75 112t-27.5 162.5zM1305 242v-242h-187q-120 0 -181.5 47t-76.5 148q-59 -101 -158 -158t-221 -57q-195 0 -287 108t-92 299
v637h297v-561q0 -119 48 -180.5t171 -61.5q101 0 168.5 68t67.5 182v553h297v-627q0 -89 26 -122t107 -33h21z" />
    <glyph glyph-name="Uring" unicode="&#x16e;" horiz-adv-x="1544" 
d="M572 1586q-85 85 -85 202t85 202t202 85t201 -85t84 -202t-84 -202t-201 -85t-202 85zM674 1889q-45 -44 -45 -101t44.5 -101.5t100.5 -44.5t100 44.5t44 101.5t-44 101t-100 44t-100 -44zM1120 1434h301v-840q0 -313 -163.5 -463.5t-489.5 -150.5q-323 0 -484 150.5
t-161 463.5v840h301v-840q0 -193 82.5 -281t261.5 -88q180 0 266 88.5t86 280.5v840z" />
    <glyph glyph-name="uring" unicode="&#x16f;" horiz-adv-x="1320" 
d="M433 1177q-85 84 -85 201t85 202t202 85t201 -85t84 -202t-84 -201.5t-201 -84.5t-202 85zM534 1480q-45 -45 -45 -102t45 -101t101 -44t99.5 44t43.5 101t-43.5 101.5t-99.5 44.5t-101 -44zM1305 242v-242h-187q-120 0 -181.5 47t-76.5 148q-59 -101 -158 -158t-221 -57
q-195 0 -287 108t-92 299v637h297v-561q0 -119 48 -180.5t171 -61.5q101 0 168.5 68t67.5 182v553h297v-627q0 -89 26 -122t107 -33h21z" />
    <glyph glyph-name="Uhungarumlaut" unicode="&#x170;" horiz-adv-x="1544" 
d="M850 1540l117 346h204l-147 -346h-174zM514 1540l119 346h203l-148 -346h-174zM1120 1434h301v-840q0 -313 -163.5 -463.5t-489.5 -150.5q-323 0 -484 150.5t-161 463.5v840h301v-840q0 -193 82.5 -281t261.5 -88q180 0 266 88.5t86 280.5v840z" />
    <glyph glyph-name="uhungarumlaut" unicode="&#x171;" horiz-adv-x="1320" 
d="M721 1130l117 347h204l-147 -347h-174zM385 1130l119 347h203l-148 -347h-174zM1305 242v-242h-187q-120 0 -181.5 47t-76.5 148q-59 -101 -158 -158t-221 -57q-195 0 -287 108t-92 299v637h297v-561q0 -119 48 -180.5t171 -61.5q101 0 168.5 68t67.5 182v553h297v-627
q0 -89 26 -122t107 -33h21z" />
    <glyph glyph-name="Uogonek" unicode="&#x172;" horiz-adv-x="1544" 
d="M1120 1434h301v-840q0 -280 -131 -430t-391 -178l4 -2q-37 -43 -51 -61t-37 -51t-31 -60t-8 -56q0 -146 289 -67v-160q-52 -13 -109 -17.5t-117 3.5t-107.5 29.5t-78 65t-30.5 105.5q0 64 36 128t97 137q-317 3 -475 153.5t-158 460.5v840h301v-840q0 -193 82.5 -281
t261.5 -88q180 0 266 88.5t86 280.5v840z" />
    <glyph glyph-name="uogonek" unicode="&#x173;" horiz-adv-x="1320" 
d="M1305 242v-242h-187h-8q-46 -55 -69 -97t-23 -89q0 -147 289 -68v-160q-66 -17 -139 -18t-143 15t-115.5 65t-45.5 125q0 61 32.5 120t88.5 127q-104 42 -125 175q-59 -101 -158 -158t-221 -57q-195 0 -287 108t-92 299v637h297v-561q0 -119 48 -180.5t171 -61.5
q101 0 168.5 68t67.5 182v553h297v-627q0 -89 26 -122t107 -33h21z" />
    <glyph glyph-name="Wcircumflex" unicode="&#x174;" horiz-adv-x="2207" 
d="M756 1546l268 330h160l268 -330h-213l-135 185l-133 -185h-215zM510 0l-447 1434h310l289 -1014l278 1014h315l279 -1014l289 1014h321l-458 -1434h-314l-274 985l-275 -985h-313z" />
    <glyph glyph-name="wcircumflex" unicode="&#x175;" horiz-adv-x="1671" 
d="M487 1137l269 329h159l269 -329h-213l-135 184l-134 -184h-215zM51 1024h299l158 -659l186 659h285l186 -657l156 657h299l-307 -1024h-287l-190 705l-191 -705h-287z" />
    <glyph glyph-name="Ycircumflex" unicode="&#x176;" horiz-adv-x="1632" 
d="M467 1546l268 330h160l268 -330h-213l-135 185l-133 -185h-215zM666 430l-603 1004h349l405 -695l404 695h348l-602 -1004v-430h-301v430z" />
    <glyph glyph-name="ycircumflex" unicode="&#x177;" horiz-adv-x="1247" 
d="M274 1137l269 329h159l269 -329h-213l-135 184l-134 -184h-215zM1196 1024l-434 -1044q-26 -63 -44 -102.5t-43.5 -83.5t-49 -68.5t-58.5 -51t-74.5 -40t-94 -25t-120.5 -15.5t-151 -4v242q51 0 91 2t71.5 8t53 11t40 18t29 21t22.5 28.5t17.5 32t17.5 39.5l10 22
l-428 1010h320l258 -688l248 688h319z" />
    <glyph glyph-name="Ydieresis" unicode="&#x178;" horiz-adv-x="1632" 
d="M451 1698q0 60 42 101.5t103 41.5q60 0 101.5 -41.5t41.5 -101.5q0 -61 -41.5 -103.5t-101.5 -42.5q-61 0 -103 42t-42 104zM891 1698q0 60 42 101.5t103 41.5q60 0 102 -41.5t42 -101.5q0 -61 -42 -103.5t-102 -42.5q-61 0 -103 42t-42 104zM666 430l-603 1004h349
l405 -695l404 695h348l-602 -1004v-430h-301v430z" />
    <glyph glyph-name="Zacute" unicode="&#x179;" horiz-adv-x="1298" 
d="M553 1540l119 346h202l-147 -346h-174zM1182 1434v-238l-729 -950h782v-246h-1172v238l734 950h-717v246h1102z" />
    <glyph glyph-name="zacute" unicode="&#x17a;" horiz-adv-x="1050" 
d="M436 1130l119 347h203l-148 -347h-174zM961 1024v-207l-515 -575h553v-242h-940v209l514 573h-497v242h885z" />
    <glyph glyph-name="Zdotaccent" unicode="&#x17b;" horiz-adv-x="1298" 
d="M504 1696q0 60 42 101.5t103 41.5q60 0 102 -41.5t42 -101.5q0 -61 -42 -103.5t-102 -42.5q-61 0 -103 42t-42 104zM1182 1434v-238l-729 -950h782v-246h-1172v238l734 950h-717v246h1102z" />
    <glyph glyph-name="zdotaccent" unicode="&#x17c;" horiz-adv-x="1050" 
d="M381 1286q0 60 42 102t103 42q60 0 102 -42t42 -102q0 -61 -42 -103t-102 -42q-62 0 -103.5 41.5t-41.5 103.5zM961 1024v-207l-515 -575h553v-242h-940v209l514 573h-497v242h885z" />
    <glyph glyph-name="Zcaron" unicode="&#x17d;" horiz-adv-x="1298" 
d="M301 1870h215l133 -184l135 184h215l-268 -330h-162zM1182 1434v-238l-729 -950h782v-246h-1172v238l734 950h-717v246h1102z" />
    <glyph glyph-name="zcaron" unicode="&#x17e;" horiz-adv-x="1050" 
d="M176 1460h215l133 -184l135 184h215l-268 -330h-162zM961 1024v-207l-515 -575h553v-242h-940v209l514 573h-497v242h885z" />
    <glyph glyph-name="longs" unicode="&#x17f;" horiz-adv-x="733" 
d="M682 1212h-127q-91 0 -125.5 -25t-34.5 -108v-1079h-297v1130q0 159 87 241.5t255 82.5h242v-242z" />
    <glyph glyph-name="florin" unicode="&#x192;" horiz-adv-x="858" 
d="M805 1212h-127q-91 0 -125.5 -25t-34.5 -110v-61h289v-242h-289v-858q0 -161 -86.5 -243.5t-253.5 -82.5h-244v256h127q92 0 126 25t34 109v794h-139v242h139v112q0 161 87 243.5t255 82.5h242v-242z" />
    <glyph glyph-name="uni0218" unicode="&#x218;" horiz-adv-x="1505" 
d="M393 471q0 -110 94 -174t275 -64q161 0 255.5 46t94.5 124q0 30 -15.5 52t-41 36.5t-73.5 28t-97 22.5t-127 23q-70 12 -109 19q-262 47 -382 155.5t-120 292.5q0 133 82.5 230t216 144.5t299.5 47.5q135 0 244 -26t181.5 -70.5t121.5 -106.5t70.5 -130t21.5 -144h-305
q0 99 -81 161t-253 62q-129 0 -210.5 -42.5t-81.5 -115.5q0 -35 11 -58t37.5 -40t72.5 -30t112.5 -26.5t161.5 -30.5q5 -1 8 -1q74 -13 127 -24.5t116 -30t106 -39.5t86 -53t68.5 -70.5t41.5 -91.5t16 -117q0 -98 -39.5 -179t-116.5 -142t-201.5 -95t-285.5 -34
q-142 0 -258 27.5t-194.5 74.5t-132 110t-77.5 133t-24 146h305zM852 -262l-123 -227h-88l78 170q-37 11 -60.5 41t-23.5 71q0 47 33.5 80t83.5 33q46 0 79 -33.5t33 -79.5q0 -31 -12 -55z" />
    <glyph glyph-name="uni0219" unicode="&#x219;" horiz-adv-x="1171" 
d="M375 338q0 -141 231 -141q189 0 189 84q0 36 -51.5 55t-211.5 53q-25 5 -38 8q-92 19 -159.5 45t-121.5 64t-81.5 93.5t-27.5 127.5q0 65 26.5 119t71.5 90t105.5 61t126.5 36t137 11q105 0 190 -21t140.5 -56t93.5 -82.5t54 -97t16 -101.5h-301q0 66 -40 103.5
t-146 37.5q-172 0 -172 -77q0 -44 58.5 -67t246.5 -62q52 -11 86 -19.5t78.5 -23t73.5 -29.5t60 -38.5t48.5 -51.5t29 -66t11.5 -84q0 -149 -137 -239t-369 -90q-124 0 -225.5 32t-163.5 84t-95.5 114.5t-33.5 127.5h301zM692 -262l-123 -227h-88l78 170q-37 11 -60.5 41
t-23.5 71q0 47 33.5 80t83.5 33q46 0 79.5 -33.5t33.5 -79.5q0 -29 -13 -55z" />
    <glyph glyph-name="uni021A" unicode="&#x21a;" horiz-adv-x="1406" 
d="M66 1434h1277v-246h-489v-1188h-301v1188h-487v246zM803 -262l-123 -227h-88l78 170q-37 11 -60.5 41t-23.5 71q0 47 33 80t83 33q46 0 79.5 -33.5t33.5 -79.5q0 -31 -12 -55z" />
    <glyph glyph-name="uni021B" unicode="&#x21b;" horiz-adv-x="845" 
d="M53 1024h146v246h297v-246h301v-242h-301v-393q0 -85 35.5 -116t123.5 -31h140v-242h-254q-168 0 -255 82.5t-87 243.5v456h-146v242zM618 -262l-122 -227h-88l77 170q-37 11 -60.5 41t-23.5 71q0 47 33.5 80t83.5 33q46 0 79.5 -33.5t33.5 -79.5q0 -29 -13 -55z" />
    <glyph glyph-name="uni0237" unicode="&#x237;" horiz-adv-x="487" 
d="M68 1333q0 72 50.5 122t125.5 50q71 0 121.5 -50t50.5 -122q0 -74 -50.5 -125t-121.5 -51q-75 0 -125.5 50.5t-50.5 125.5zM-176 -168h113q87 0 122 32t35 118v1042h297v-1108q0 -161 -86.5 -243.5t-253.5 -82.5h-227v242z" />
    <glyph glyph-name="circumflex" unicode="&#x2c6;" horiz-adv-x="882" 
d="M92 1137l268 329h160l268 -329h-213l-135 184l-133 -184h-215z" />
    <glyph glyph-name="caron" unicode="&#x2c7;" horiz-adv-x="882" 
d="M92 1460h215l133 -184l135 184h216l-269 -330h-162z" />
    <glyph glyph-name="uni02C9" unicode="&#x2c9;" horiz-adv-x="729" 
d="M92 1341h545v-143h-545v143z" />
    <glyph glyph-name="breve" unicode="&#x2d8;" horiz-adv-x="851" 
d="M92 1495h162q0 -86 40.5 -139t131.5 -53t131.5 53t40.5 139h162q0 -92 -27.5 -162.5t-75 -112t-106 -62.5t-125.5 -21t-125.5 21t-106 62.5t-75 112t-27.5 162.5z" />
    <glyph glyph-name="dotaccent" unicode="&#x2d9;" horiz-adv-x="475" 
d="M92 1286q0 60 42.5 102t103.5 42q60 0 101.5 -42t41.5 -102q0 -61 -41.5 -103t-101.5 -42q-62 0 -104 42t-42 103z" />
    <glyph glyph-name="ring" unicode="&#x2da;" horiz-adv-x="739" 
d="M169 1177q-85 84 -85 201t85 202t202 85t200.5 -85t83.5 -202t-83.5 -201.5t-200.5 -84.5t-202 85zM270 1480q-45 -45 -45 -102t45 -101t101 -44t99.5 44t43.5 101t-43.5 101.5t-99.5 44.5t-101 -44z" />
    <glyph glyph-name="ogonek" unicode="&#x2db;" horiz-adv-x="622" 
d="M285 49l84 -67q-37 -43 -51 -61t-37 -51t-31 -60t-8 -56q0 -146 288 -67v-160q-52 -13 -109 -17.5t-117 3.5t-107.5 29.5t-78 65t-30.5 105.5q0 31 10.5 65.5t24 60.5t39 61t40.5 53.5t45 52.5t38 43z" />
    <glyph glyph-name="tilde" unicode="&#x2dc;" horiz-adv-x="954" 
d="M477 1343q106 -42 126 -47q53 -12 85 27q19 22 39 68l135 -48q-16 -44 -35 -78t-37.5 -57.5t-42 -38t-43 -22t-46.5 -7.5t-46.5 2t-49 11t-48 16t-49.5 19q-101 40 -124 44q-47 7 -76 -33q-17 -23 -36 -69l-137 50q20 54 44.5 93.5t48 63t54 34.5t56 13.5t60 -4t60 -15
t62.5 -22.5z" />
    <glyph glyph-name="hungarumlaut" unicode="&#x2dd;" horiz-adv-x="841" 
d="M428 1130l117 347h205l-148 -347h-174zM92 1130l119 347h203l-148 -347h-174z" />
    <glyph glyph-name="uni0326" unicode="&#x326;" horiz-adv-x="446" 
d="M326 -262l-123 -227h-88l78 170q-37 11 -60.5 41t-23.5 71q0 47 33 80t83 33q46 0 79.5 -33.5t33.5 -79.5q0 -31 -12 -55z" />
    <glyph glyph-name="uni0394" unicode="&#x394;" horiz-adv-x="1531" 
d="M68 0l573 1434h252l573 -1434h-1398zM397 233h738l-369 924z" />
    <glyph glyph-name="uni03A9" unicode="&#x3a9;" horiz-adv-x="1755" 
d="M961 233q212 92 300.5 218.5t88.5 318.5q0 99 -38.5 182.5t-104 139t-151 86t-179.5 30.5t-179 -30.5t-150 -86t-103.5 -139t-38.5 -182.5q0 -193 87.5 -319t299.5 -218v-233h-693v233h379q-177 97 -278 239t-101 325q0 154 63 280t170.5 207.5t247.5 125.5t296 44
q157 0 297 -44t247.5 -125.5t170.5 -207.5t63 -280q0 -183 -101 -325t-278 -239h377v-233h-692v233z" />
    <glyph glyph-name="uni03BC" unicode="&#x3bc;" horiz-adv-x="1304" 
d="M1305 242v-242h-187q-123 0 -184.5 49.5t-75.5 155.5q-56 -106 -154.5 -165.5t-222.5 -59.5q-45 0 -82 6v-396h-297v1434h297v-561q0 -119 48 -180.5t171 -61.5q101 0 168.5 68t67.5 182v553h297v-627q0 -89 26 -122t107 -33h21z" />
    <glyph glyph-name="pi" unicode="&#x3c0;" horiz-adv-x="1353" 
d="M94 1024h1137v-1024h-301v778h-361l-139 -778h-301l139 778h-174v246z" />
    <glyph glyph-name="Wgrave" unicode="&#x1e80;" horiz-adv-x="2207" 
d="M1163 1540h-174l-151 346h202zM510 0l-447 1434h310l289 -1014l278 1014h315l279 -1014l289 1014h321l-458 -1434h-314l-274 985l-275 -985h-313z" />
    <glyph glyph-name="wgrave" unicode="&#x1e81;" horiz-adv-x="1671" 
d="M895 1130h-174l-152 347h203zM51 1024h299l158 -659l186 659h285l186 -657l156 657h299l-307 -1024h-287l-190 705l-191 -705h-287z" />
    <glyph glyph-name="Wacute" unicode="&#x1e82;" horiz-adv-x="2207" 
d="M1049 1540l118 346h203l-147 -346h-174zM510 0l-447 1434h310l289 -1014l278 1014h315l279 -1014l289 1014h321l-458 -1434h-314l-274 985l-275 -985h-313z" />
    <glyph glyph-name="wacute" unicode="&#x1e83;" horiz-adv-x="1671" 
d="M780 1130l119 347h203l-148 -347h-174zM51 1024h299l158 -659l186 659h285l186 -657l156 657h299l-307 -1024h-287l-190 705l-191 -705h-287z" />
    <glyph glyph-name="Wdieresis" unicode="&#x1e84;" horiz-adv-x="2207" 
d="M739 1698q0 60 42.5 101.5t103.5 41.5q60 0 101.5 -41.5t41.5 -101.5q0 -61 -41.5 -103.5t-101.5 -42.5q-61 0 -103.5 42t-42.5 104zM1180 1698q0 60 42 101.5t103 41.5q60 0 101.5 -41.5t41.5 -101.5q0 -61 -41.5 -103.5t-101.5 -42.5q-61 0 -103 42t-42 104zM510 0
l-447 1434h310l289 -1014l278 1014h315l279 -1014l289 1014h321l-458 -1434h-314l-274 985l-275 -985h-313z" />
    <glyph glyph-name="wdieresis" unicode="&#x1e85;" horiz-adv-x="1671" 
d="M471 1288q0 60 42 102t103 42q60 0 102 -42t42 -102q0 -61 -42 -103t-102 -42q-62 0 -103.5 41.5t-41.5 103.5zM911 1288q0 60 42.5 102t103.5 42q60 0 101.5 -42t41.5 -102q0 -61 -41.5 -103t-101.5 -42q-62 0 -104 42t-42 103zM51 1024h299l158 -659l186 659h285
l186 -657l156 657h299l-307 -1024h-287l-190 705l-191 -705h-287z" />
    <glyph glyph-name="endash" unicode="&#x2013;" horiz-adv-x="1034" 
d="M109 610h819v-194h-819v194z" />
    <glyph glyph-name="emdash" unicode="&#x2014;" horiz-adv-x="1239" 
d="M109 610h1024v-194h-1024v194z" />
    <glyph glyph-name="quoteleft" unicode="&#x2018;" horiz-adv-x="583" 
d="M129 1102l188 352h152l-121 -262q58 -17 93.5 -65.5t35.5 -112.5q0 -76 -53.5 -129.5t-132.5 -53.5q-75 0 -128.5 54t-53.5 129q0 49 20 88z" />
    <glyph glyph-name="quoteright" unicode="&#x2019;" horiz-adv-x="583" 
d="M109 1272q0 76 53.5 129t132.5 53q75 0 128.5 -53.5t53.5 -128.5q0 -55 -31 -105l-178 -336h-151l121 263q-58 17 -93.5 65.5t-35.5 112.5z" />
    <glyph glyph-name="quotesinglbase" unicode="&#x201a;" horiz-adv-x="466" 
d="M344 -31l-131 -243h-98l84 182q-40 11 -65 45t-25 80q0 51 36.5 87t90.5 36q52 0 88 -36t36 -87q0 -32 -16 -64z" />
    <glyph glyph-name="quotedblleft" unicode="&#x201c;" horiz-adv-x="1052" 
d="M596 1102l188 352h152l-121 -262q58 -17 93.5 -65.5t35.5 -112.5q0 -76 -53.5 -129.5t-132.5 -53.5q-75 0 -129 54t-54 129q0 48 21 88zM129 1102l188 352h152l-121 -262q58 -17 93.5 -65.5t35.5 -112.5q0 -76 -53.5 -129.5t-132.5 -53.5q-75 0 -128.5 54t-53.5 129
q0 49 20 88z" />
    <glyph glyph-name="quotedblright" unicode="&#x201d;" horiz-adv-x="1052" 
d="M109 1272q0 76 53.5 129t132.5 53q75 0 128.5 -53.5t53.5 -128.5q0 -55 -31 -105l-178 -336h-151l121 263q-58 17 -93.5 65.5t-35.5 112.5zM575 1272q0 76 54 129t133 53q75 0 128.5 -53.5t53.5 -128.5q0 -55 -31 -105l-178 -336h-151l121 263q-58 18 -94 66t-36 112z
" />
    <glyph glyph-name="quotedblbase" unicode="&#x201e;" horiz-adv-x="747" 
d="M111 -123v451h219l-62 -451h-157zM418 -123v451h219l-62 -451h-157z" />
    <glyph glyph-name="dagger" unicode="&#x2020;" horiz-adv-x="874" 
d="M317 1434h240v-410h238v-240h-238v-1194h-240v1194h-237v240h237v410z" />
    <glyph glyph-name="daggerdbl" unicode="&#x2021;" horiz-adv-x="874" 
d="M80 1126h237v308h240v-308h238v-239h-238v-750h238v-239h-238v-308h-240v308h-237v239h237v750h-237v239z" />
    <glyph glyph-name="bullet" unicode="&#x2022;" horiz-adv-x="690" 
d="M123 514q0 93 64.5 156t160.5 63q92 0 155.5 -63.5t63.5 -155.5q0 -96 -63 -160.5t-156 -64.5q-97 0 -161 64t-64 161z" />
    <glyph glyph-name="ellipsis" unicode="&#x2026;" horiz-adv-x="1751" 
d="M109 166q0 76 53.5 129t132.5 53q75 0 128.5 -53.5t53.5 -128.5q0 -79 -53 -132.5t-129 -53.5q-79 0 -132.5 53t-53.5 133zM692 166q0 76 54 129t133 53q75 0 128.5 -53.5t53.5 -128.5q0 -79 -53 -132.5t-129 -53.5q-80 0 -133.5 53.5t-53.5 132.5zM1276 166
q0 76 53.5 129t132.5 53q75 0 129 -53.5t54 -128.5q0 -79 -53.5 -132.5t-129.5 -53.5q-80 0 -133 53t-53 133z" />
    <glyph glyph-name="perthousand" unicode="&#x2030;" horiz-adv-x="3031" 
d="M82 1012q0 208 106 325t293 117t293.5 -117t106.5 -325t-106.5 -325.5t-293.5 -117.5t-293 117t-106 326zM678 0l573 1434h189l-574 -1434h-188zM481 1307q-106 0 -161.5 -76.5t-55.5 -218.5q0 -141 55.5 -218t161.5 -77q105 0 161 77t56 218q0 142 -56 218.5t-161 76.5z
M1343 97q-106 117 -106 325t106 325t293 117t293.5 -117t106.5 -325t-106.5 -325t-293.5 -117t-293 117zM2255 97q-107 117 -107 325t106.5 325t293.5 117q188 0 294.5 -116.5t106.5 -325.5t-106.5 -325.5t-294.5 -116.5q-187 0 -293 117zM1636 717q-106 0 -161.5 -76.5
t-55.5 -218.5q0 -141 55.5 -218t161.5 -77q105 0 161 77t56 218q0 142 -56 218.5t-161 76.5zM2548 717q-106 0 -161.5 -76.5t-55.5 -218.5q0 -141 55.5 -218t161.5 -77t162.5 77t56.5 218q0 142 -56 218.5t-163 76.5z" />
    <glyph glyph-name="guilsinglleft" unicode="&#x2039;" horiz-adv-x="696" 
d="M92 512l268 469h244l-270 -469l270 -469h-244z" />
    <glyph glyph-name="guilsinglright" unicode="&#x203a;" horiz-adv-x="696" 
d="M604 512l-268 -469h-244l270 469l-270 469h244z" />
    <glyph glyph-name="fraction" unicode="&#x2044;" horiz-adv-x="921" 
d="M80 0l573 1434h189l-574 -1434h-188z" />
    <glyph glyph-name="Euro" unicode="&#x20ac;" horiz-adv-x="1718" 
d="M-20 950h231q70 235 266 369.5t455 134.5q134 0 249.5 -35.5t195.5 -94t137.5 -134t84.5 -155.5t27 -158h-305q0 63 -27.5 122t-76.5 105.5t-123.5 75t-161.5 28.5q-130 0 -241 -65t-165 -193h537v-143h-574q-6 -43 -6 -90q0 -24 4 -70h576v-143h-545
q35 -95 102.5 -159.5t145.5 -92t166 -27.5q172 0 280.5 100t108.5 232h305q0 -78 -27 -158t-84.5 -155.5t-137.5 -134t-195.5 -94t-249.5 -35.5q-173 0 -321.5 61.5t-255.5 181t-150 281.5h-225v143h200q-2 23 -2 70q0 32 4 90h-202v143z" />
    <glyph glyph-name="trademark" unicode="&#x2122;" horiz-adv-x="1738" 
d="M92 1434h639v-123h-244v-594h-151v594h-244v123zM825 1434h150l260 -553l260 553h150v-717h-144v473l-213 -473h-106l-213 473v-473h-144v717z" />
    <glyph glyph-name="partialdiff" unicode="&#x2202;" horiz-adv-x="1312" 
d="M614 1436l500 -668q105 -124 105 -295q0 -148 -75.5 -261.5t-202.5 -172.5t-284 -59q-152 0 -279 59t-205.5 173t-78.5 261q0 104 40.5 193.5t110.5 151.5t163 99.5t198 45.5l-360 473h368zM657 221q105 0 183 71t78 181t-77.5 180t-183.5 70q-107 0 -184.5 -70
t-77.5 -180q0 -111 77.5 -181.5t184.5 -70.5z" />
    <glyph glyph-name="product" unicode="&#x220f;" horiz-adv-x="1265" 
d="M123 1434h1020v-1844h-238v1610h-545v-1610h-237v1844z" />
    <glyph glyph-name="summation" unicode="&#x2211;" horiz-adv-x="1107" 
d="M1028 1434v-207h-629l287 -715l-287 -715h629v-207h-948l369 922l-369 922h948z" />
    <glyph glyph-name="minus" unicode="&#x2212;" horiz-adv-x="911" 
d="M109 610h696v-194h-696v194z" />
    <glyph glyph-name="uni2215" unicode="&#x2215;" horiz-adv-x="1044" 
d="M80 0l696 1434h189l-697 -1434h-188z" />
    <glyph glyph-name="uni2219" unicode="&#x2219;" horiz-adv-x="614" 
d="M123 512q0 76 53.5 129t132.5 53q75 0 129 -53.5t54 -128.5q0 -79 -53.5 -132.5t-129.5 -53.5q-79 0 -132.5 53t-53.5 133z" />
    <glyph glyph-name="radical" unicode="&#x221a;" horiz-adv-x="1646" 
d="M80 649h473l229 -608l545 1393h240l-654 -1639h-266l-244 623h-323v231z" />
    <glyph glyph-name="infinity" unicode="&#x221e;" horiz-adv-x="1263" 
d="M1081 821q90 -91 90 -219t-90 -217.5t-219 -89.5q-72 0 -131 31.5t-98 87.5q-39 -55 -100.5 -87t-133.5 -32q-127 0 -217 89.5t-90 217.5t90 218.5t217 90.5q72 0 133.5 -31.5t100.5 -86.5q84 118 229 118q129 0 219 -90zM743 723q-51 -51 -51 -121t50.5 -120t121.5 -50
t121.5 50t50.5 120t-51 121t-121 51t-121 -51zM524 478q49 50 49 120t-49.5 120t-120.5 50q-72 0 -122 -49.5t-50 -120.5t50 -120.5t122 -49.5q71 0 121 50z" />
    <glyph glyph-name="integral" unicode="&#x222b;" horiz-adv-x="825" 
d="M760 1212q-117 0 -158 -44.5t-41 -141.5v-1098q0 -72 -5.5 -118t-24.5 -87t-51 -63.5t-89 -39.5t-133.5 -23t-189.5 -7v242q116 0 156 44.5t40 141.5v1098q0 72 6 118t25 87t51 63.5t89 39.5t134.5 23t190.5 7v-242z" />
    <glyph glyph-name="approxequal" unicode="&#x2248;" horiz-adv-x="1284" 
d="M125 848q38 95 83.5 148.5t109.5 71.5t143 3.5t192 -59.5q49 -20 79 -31.5t63.5 -22.5t52.5 -14.5t40.5 -3.5t34 6.5t26.5 19t23.5 30.5t20.5 44l21 47l162 -65l-19 -47q-38 -96 -83 -149.5t-108.5 -71t-142 -2.5t-190.5 61q-65 26 -102.5 39.5t-76.5 23t-60 7.5
t-42 -12.5t-35 -31.5t-28 -55l-21 -49l-162 66z" />
    <glyph glyph-name="notequal" unicode="&#x2260;" horiz-adv-x="985" 
d="M147 -203l136 428h-138v195h199l57 184h-256v195h318l135 432h240l-136 -432h140v-195h-201l-57 -184h258v-195h-320l-135 -428h-240z" />
    <glyph glyph-name="lessequal" unicode="&#x2264;" horiz-adv-x="940" 
d="M80 850l780 442v-248l-504 -264l504 -266v-248l-780 445v139zM80 195h780v-195h-780v195z" />
    <glyph glyph-name="greaterequal" unicode="&#x2265;" horiz-adv-x="940" 
d="M860 850v-139l-780 -445v248l504 266l-504 264v248zM860 195v-195h-780v195h780z" />
    <glyph glyph-name="uni24C5" unicode="&#x24c5;" horiz-adv-x="1691" 
d="M109 717q0 200 98.5 369.5t268 268.5t370.5 99t370.5 -99t268 -268.5t98.5 -369.5q0 -150 -58 -286.5t-157 -235.5t-235.5 -157t-286.5 -58t-286.5 58t-235.5 157t-157 235.5t-58 286.5zM277 1047q-89 -152 -89 -330t88.5 -329.5t240 -240t329.5 -88.5t329.5 88.5
t239.5 240t88 329.5q0 133 -52 255t-140 210t-210 140t-255 52q-178 0 -329.5 -88t-239.5 -239zM922 1067q29 0 60 -5t68.5 -20.5t66 -39.5t48 -66t19.5 -96t-19.5 -97.5t-48.5 -69.5t-66 -43t-68.5 -23.5t-59.5 -6.5h-191v-235h-158v702h349zM731 721h176q44 0 80.5 28
t36.5 85t-36 84.5t-81 27.5h-176v-225z" />
    <glyph glyph-name="lozenge" unicode="&#x25ca;" horiz-adv-x="1122" 
d="M68 510l368 924h252l369 -924l-369 -920h-252zM819 510l-258 647l-258 -647l258 -643z" />
    <glyph glyph-name="fi" unicode="&#xfb01;" horiz-adv-x="1312" 
d="M899 1333q0 72 50.5 122t125.5 50q71 0 121.5 -50t50.5 -122q0 -74 -50.5 -125t-121.5 -51q-75 0 -125.5 50.5t-50.5 125.5zM53 1024h137v104q0 161 87 243.5t255 82.5h242v-242h-127q-34 0 -52 -1t-39.5 -5t-31.5 -12.5t-20 -23.5t-13.5 -37.5t-3.5 -55.5v-53h732v-1024
h-297v782h-435v-782h-297v782h-137v242z" />
    <glyph glyph-name="fl" unicode="&#xfb02;" horiz-adv-x="1394" 
d="M53 1024h137v104q0 161 87 243.5t255 82.5h695v-1057q0 -89 26 -122t107 -33h20v-242h-186q-144 0 -204 67t-60 216v929h-283q-34 0 -52 -1t-39.5 -5t-31.5 -12.5t-20 -23.5t-13.5 -37.5t-3.5 -55.5v-53h252v-242h-252v-782h-297v782h-137v242z" />
    <glyph glyph-name="zero.lnum_tnum" horiz-adv-x="1638" 
d="M329 176q-177 195 -177 541t177 541.5t488 195.5q313 0 490.5 -195t177.5 -542t-177.5 -542t-490.5 -195q-311 0 -488 196zM1087 1081q-93 127 -270 127t-268.5 -127t-91.5 -364q0 -236 91.5 -364t268.5 -128t270 128.5t93 363.5q0 236 -93 364z" />
    <glyph glyph-name="one.lnum_tnum" horiz-adv-x="1638" 
d="M1004 1434h213v-1434h-302v1124l-397 -182l-94 225z" />
    <glyph glyph-name="two.lnum_tnum" horiz-adv-x="1638" 
d="M291 246l526 456q123 106 162 169.5t39 142.5q0 44 -13.5 78.5t-36 55.5t-53.5 35t-63 19.5t-68 5.5q-241 0 -241 -299h-305q0 79 15 151.5t53.5 146t98 127t156 87t219.5 33.5q85 0 160.5 -14t147 -47.5t122.5 -84.5t82 -130t31 -179q0 -39 -6.5 -74t-29 -86.5
t-61 -103.5t-107.5 -121.5t-163 -144.5l-278 -223h719v-246h-1106v246z" />
    <glyph glyph-name="three.lnum_tnum" horiz-adv-x="1511" 
d="M598 598v244h162q84 0 129 46.5t45 131.5q0 93 -57.5 140.5t-151.5 47.5q-115 0 -163 -61t-48 -184h-305q0 80 18 151t58 134t99 108t147 71.5t196 26.5q146 0 260.5 -43.5t184 -135t69.5 -218.5q0 -228 -184 -326q124 -39 195 -122t71 -212t-74 -224.5t-198.5 -143
t-282.5 -47.5q-142 0 -256 41.5t-183 111t-105 153t-36 173.5h306q0 -99 69 -165.5t199 -66.5q114 0 185 56t71 151q0 80 -59.5 121t-159.5 41h-201z" />
    <glyph glyph-name="four.lnum_tnum" horiz-adv-x="1638" 
d="M940 1434h297v-807h225v-248h-225v-379h-301v379h-762v184zM516 627h420v483z" />
    <glyph glyph-name="five.lnum_tnum" horiz-adv-x="1638" 
d="M340 618l102 816h842v-246h-571l-39 -314q101 52 219 52q83 0 165.5 -30.5t152.5 -86.5t113.5 -147t43.5 -201q0 -143 -71.5 -253.5t-193 -169t-272.5 -58.5t-277.5 56t-205 166.5t-78.5 256.5h301q0 -102 73 -168t175 -66q105 0 174.5 62t69.5 164q0 116 -67.5 180.5
t-166.5 64.5q-104 0 -188 -78h-301z" />
    <glyph glyph-name="six.lnum_tnum" horiz-adv-x="1638" 
d="M848 1434h369l-351 -471q142 -9 258 -70.5t186 -171t70 -248.5q0 -147 -78 -261t-205.5 -173t-279.5 -59q-240 0 -400.5 135.5t-160.5 357.5q0 160 94 281zM817 225q106 0 182 69.5t76 178.5q0 107 -76 176.5t-182 69.5q-104 0 -180 -69.5t-76 -176.5q0 -109 75.5 -178.5
t180.5 -69.5z" />
    <glyph glyph-name="seven.lnum_tnum" horiz-adv-x="1638" 
d="M1319 1434v-238l-537 -1196h-331l544 1188h-676v246h1000z" />
    <glyph glyph-name="eight.lnum_tnum" horiz-adv-x="1638" 
d="M819 1454q236 0 385.5 -105t149.5 -288q0 -105 -56.5 -187.5t-154.5 -134.5q115 -54 182.5 -141.5t67.5 -204.5q0 -131 -80.5 -226.5t-208.5 -141t-285 -45.5q-117 0 -220.5 27t-183.5 77t-126.5 130t-46.5 179q0 117 68 204.5t184 141.5q-98 51 -154.5 133.5
t-56.5 188.5q0 183 149 288t387 105zM819 860q106 0 167 45t61 129q0 81 -61.5 127.5t-166.5 46.5q-106 0 -167.5 -46.5t-61.5 -127.5q0 -84 61 -129t168 -45zM819 225q119 0 192.5 52t73.5 145q0 97 -70.5 143.5t-195.5 46.5q-126 0 -198 -46.5t-72 -143.5q0 -93 75 -145
t195 -52z" />
    <glyph glyph-name="nine.lnum_tnum" horiz-adv-x="1638" 
d="M780 0h-368l350 471q-142 9 -258 70.5t-186 171t-70 248.5q0 147 78 261t205.5 173t279.5 59q240 0 400.5 -135.5t160.5 -357.5q0 -160 -94 -281zM811 1208q-106 0 -182 -69t-76 -178q0 -107 76 -176.5t182 -69.5q104 0 180 69.5t76 176.5q0 109 -75.5 178t-180.5 69z
" />
    </font>
</defs>
</svg>
