<?xml version="1.0" standalone="no"?>
<!DOCTYPE svg PUBLIC "-//W3C//DTD SVG 1.1//EN" "http://www.w3.org/Graphics/SVG/1.1/DTD/svg11.dtd" >
<svg xmlns="http://www.w3.org/2000/svg" xmlns:xlink="http://www.w3.org/1999/xlink" version="1.1">
<metadata>
Created by FontForge 20230101 at Sat May 29 15:15:05 2021
 By Unknown
Tour de Force Font Foundry &#38; Dusan Jelesijevic
</metadata>
<defs>
<font id="Lupio-Thin" horiz-adv-x="1312" >
  <font-face 
    font-family="Lupio Thin"
    font-weight="100"
    font-stretch="normal"
    units-per-em="2048"
    panose-1="0 0 0 0 0 0 0 0 0 0"
    ascent="1638"
    descent="-410"
    x-height="1024"
    cap-height="1434"
    bbox="-221 -512 2787 1946"
    underline-thickness="102"
    underline-position="-358"
    unicode-range="U+000D-FB02"
  />
<missing-glyph horiz-adv-x="1024" 
 />
    <glyph glyph-name=".notdef" horiz-adv-x="1024" 
 />
    <glyph glyph-name="uni0000" horiz-adv-x="0" 
 />
    <glyph glyph-name="uni000D" unicode="&#xd;" horiz-adv-x="512" 
 />
    <glyph glyph-name="space" unicode=" " horiz-adv-x="532" 
 />
    <glyph glyph-name="exclam" unicode="!" horiz-adv-x="495" 
d="M225 1434h45v-506l-4 -498h-37l-4 498v506zM160 70q0 37 26 62.5t64 25.5q37 0 62.5 -25.5t25.5 -62.5q0 -38 -25.5 -64t-62.5 -26q-38 0 -64 26t-26 64z" />
    <glyph glyph-name="quotedbl" unicode="&#x22;" horiz-adv-x="696" 
d="M225 983v451h41l-10 -451h-31zM430 983v451h41l-10 -451h-31z" />
    <glyph glyph-name="numbersign" unicode="#" horiz-adv-x="1411" 
d="M143 444h250l78 545h-328v35h332l60 410h34l-59 -410h477l60 410h34l-59 -410h246v-35h-250l-78 -545h328v-34h-332l-59 -410h-35l59 410h-477l-59 -410h-35l59 410h-246v34zM428 444h477l78 545h-477z" />
    <glyph glyph-name="dollar" unicode="$" horiz-adv-x="1529" 
d="M743 1843h41v-389q127 -1 227.5 -28t164.5 -70t106 -102.5t59 -121.5t17 -131h-49q0 66 -15 123t-53.5 111.5t-98 92.5t-155 61.5t-217.5 23.5q-153 0 -261.5 -33t-172.5 -109t-64 -192q0 -39 7.5 -72.5t20 -60.5t35 -49.5t46.5 -40t61 -33t71.5 -27t85.5 -23t96.5 -19.5
t109.5 -19q25 -4 73 -12q106 -17 158 -27t128 -36.5t111.5 -60t63 -93t27.5 -141.5q0 -169 -141 -275.5t-420 -109.5v-390h-41v390q-126 2 -228.5 29t-170.5 70.5t-114 102t-66.5 121t-20.5 129.5h49q0 -65 18 -122.5t61 -111.5t107 -93t163.5 -62t223.5 -23q267 0 399 93
t132 252q0 39 -6.5 71.5t-17 58t-30 46t-38.5 35.5t-50 28t-57.5 21.5t-67.5 17.5t-73 14.5t-82 13.5q-59 10 -90 15q-79 14 -127 23.5t-111.5 25t-101.5 30.5t-82 37t-69.5 48t-48.5 60t-32.5 77.5t-9.5 95.5q0 177 140 271.5t380 99.5v389z" />
    <glyph glyph-name="percent" unicode="%" horiz-adv-x="2045" 
d="M243 687q-98 118 -98 325t98 324.5t263 117.5q166 0 264 -117.5t98 -324.5t-98 -325t-264 -118q-165 0 -263 118zM719 0l573 1434h35l-573 -1434h-35zM751 1320q-90 110 -245 110t-243.5 -110.5t-88.5 -307.5t88.5 -307.5t243.5 -110.5t244.5 110.5t89.5 307.5t-89 308z
M1276 98q-98 117 -98 324t97.5 324.5t262.5 117.5q166 0 264.5 -117.5t98.5 -324.5t-98.5 -324.5t-264.5 -117.5q-165 0 -262 118zM1783 730q-90 110 -245 110t-243.5 -110.5t-88.5 -307.5t88.5 -307.5t243.5 -110.5t244.5 110.5t89.5 307.5t-89 308z" />
    <glyph glyph-name="ampersand" unicode="&#x26;" horiz-adv-x="1505" 
d="M1382 700h-206v-266q0 -69 -17 -132.5t-55 -122.5t-94.5 -103t-142 -70t-189.5 -26q-105 0 -195.5 24.5t-163 72t-114 126.5t-41.5 180q0 280 297 340q-215 68 -215 350q0 125 62.5 212.5t167 128t243.5 40.5q87 0 158.5 -16t120.5 -45.5t84.5 -66.5t55.5 -82t29 -89.5
t9 -91.5h-50q0 350 -407 350q-91 0 -166 -19.5t-134 -59t-91.5 -106.5t-32.5 -157q0 -171 81 -252.5t249 -81.5h757v-37zM1126 700h-501q-412 0 -412 -315q0 -96 39 -168.5t106.5 -114t148.5 -62t173 -20.5q119 0 208 35t139.5 95t74.5 131t24 153v266z" />
    <glyph glyph-name="quotesingle" unicode="'" horiz-adv-x="491" 
d="M225 983v451h41l-10 -451h-31z" />
    <glyph glyph-name="parenleft" unicode="(" horiz-adv-x="710" 
d="M233 522q0 -122 14.5 -230.5t34 -186t55 -150.5t61.5 -115.5t69.5 -90t63.5 -65t58 -49.5q13 -11 19 -16l-28 -29q-35 25 -58.5 44t-68.5 64.5t-77 91.5t-71 122t-63 159.5t-41 201t-17 249.5q0 127 15.5 241t38.5 196.5t57.5 156.5t65 121t69.5 90.5t61.5 63.5t49.5 43
q7 5 10 8l29 -29q-4 -4 -37.5 -35.5t-52 -51t-55.5 -66.5t-60 -89.5t-53 -113t-47 -144.5t-29.5 -176t-12.5 -215z" />
    <glyph glyph-name="parenright" unicode=")" horiz-adv-x="710" 
d="M477 522q0 113 -12.5 215t-29.5 176t-47 144.5t-52.5 113t-59.5 90t-55.5 66.5t-52 50.5t-37.5 35.5l29 29q80 -66 122 -115q244 -281 244 -805q0 -104 -10.5 -198.5t-26 -168t-41 -142t-49.5 -117t-57.5 -95.5t-57.5 -75.5t-58 -59t-51.5 -44t-43.5 -32.5l-29 29
q6 5 19 16q36 30 58 49.5t64 65.5t69 89.5t61.5 115.5t54.5 150t34.5 186.5t14.5 230.5z" />
    <glyph glyph-name="asterisk" unicode="*" horiz-adv-x="1126" 
d="M279 791l256 296l-351 197l19 33l348 -207l-6 412h37l-4 -412l346 207l18 -33l-350 -197l256 -296l-29 -23l-256 311l-256 -311z" />
    <glyph glyph-name="plus" unicode="+" horiz-adv-x="1064" 
d="M184 532h328v328h41v-328h328v-40h-328v-328h-41v328h-328v40z" />
    <glyph glyph-name="comma" unicode="," horiz-adv-x="546" 
d="M209 7q-25 26 -25 63t26 62.5t64 25.5q37 0 62.5 -25.5t25.5 -62.5q0 -27 -12 -45l-114 -215h-37l71 170q-37 1 -61 27z" />
    <glyph glyph-name="hyphen" unicode="-" horiz-adv-x="983" 
d="M184 532h615v-40h-615v40z" />
    <glyph glyph-name="period" unicode="." horiz-adv-x="546" 
d="M184 70q0 37 26 62.5t64 25.5q37 0 62.5 -25.5t25.5 -62.5q0 -38 -25.5 -64t-62.5 -26q-38 0 -64 26t-26 64z" />
    <glyph glyph-name="slash" unicode="/" horiz-adv-x="772" 
d="M143 0l451 1434h35l-451 -1434h-35z" />
    <glyph glyph-name="zero" unicode="0" horiz-adv-x="1574" 
d="M348 177q-164 196 -164 540t164 540.5t438 196.5q276 0 440.5 -196.5t164.5 -540.5t-164.5 -540.5t-440.5 -196.5q-274 0 -438 197zM1192 1229q-149 184 -406 184t-405 -184t-148 -512t148 -512.5t405 -184.5t406 184.5t149 512.5t-149 512z" />
    <glyph glyph-name="one" unicode="1" horiz-adv-x="942" 
d="M682 1434h35v-1434h-45v1389l-555 -256l-15 34z" />
    <glyph glyph-name="two" unicode="2" horiz-adv-x="1411" 
d="M217 41l514 469q119 109 187.5 181t106.5 134.5t49 110t11 115.5q0 97 -34.5 168.5t-96 113t-137.5 61t-168 19.5q-98 0 -175.5 -27.5t-125.5 -71.5t-79 -104.5t-43.5 -121.5t-12.5 -127h-49q0 70 14.5 136.5t50 132t88.5 114.5t136.5 79.5t187.5 30.5t192 -24
t156.5 -71.5t107 -125.5t38.5 -180q0 -142 -73 -251t-306 -321l-486 -440h977v-41h-1030v41z" />
    <glyph glyph-name="three" unicode="3" horiz-adv-x="1359" 
d="M561 700v37h174q168 0 249 81.5t81 252.5q0 90 -32.5 157t-91.5 106.5t-134 59t-166 19.5q-99 0 -173 -23.5t-118 -61.5t-71 -93.5t-36.5 -111t-9.5 -122.5h-49q0 70 12.5 132t45 122.5t83 103t131.5 69t185 26.5q139 0 243.5 -40.5t167 -128t62.5 -212.5
q0 -282 -215 -350q297 -60 297 -340q0 -101 -41.5 -179.5t-114 -126t-163 -71.5t-195.5 -24q-130 0 -232 39t-163 104.5t-92 144t-31 164.5h49q0 -64 16.5 -122.5t53.5 -111.5t91.5 -92t135.5 -62t180 -23q92 0 171.5 20t145 61t103 113t37.5 168q0 315 -412 315h-174z" />
    <glyph glyph-name="four" unicode="4" horiz-adv-x="1509" 
d="M1024 1434h35v-963h327v-41h-327v-430h-45v430h-891v31zM193 471h821v889z" />
    <glyph glyph-name="five" unicode="5" horiz-adv-x="1271" 
d="M285 772l102 662h662v-41h-623l-86 -557q126 102 295 102q90 0 174.5 -33t151 -93t107 -152t40.5 -201t-40.5 -201t-107 -152t-151 -93t-174.5 -33q-89 0 -173 33t-150.5 93t-107 152t-40.5 201h45q0 -102 36.5 -187.5t97.5 -140t136.5 -85t155.5 -30.5q81 0 157 30.5
t136.5 85t97.5 140t37 187.5q0 135 -63.5 238t-159.5 153.5t-205 50.5q-84 0 -164 -33.5t-141 -95.5h-45z" />
    <glyph glyph-name="six" unicode="6" 
d="M655 938q90 0 174.5 -33t151 -93t107 -152t40.5 -201t-40.5 -201t-107 -152t-151 -93t-174.5 -33q-89 0 -173 33t-150.5 93t-107 152t-40.5 201q0 197 125 332l531 643h45l-443 -547q102 51 213 51zM655 16q81 0 157 30.5t136.5 85t97.5 140t37 187.5q0 135 -63.5 238
t-159.5 153.5t-205 50.5q-80 0 -155.5 -30t-136.5 -85t-97.5 -140t-36.5 -187t36.5 -187.5t97.5 -140t136.5 -85t155.5 -30.5z" />
    <glyph glyph-name="seven" unicode="7" horiz-adv-x="1114" 
d="M1012 1434v-33l-627 -1401h-55l633 1393h-861v41h910z" />
    <glyph glyph-name="eight" unicode="8" horiz-adv-x="1417" 
d="M357 1361q131 93 352 93t352 -93t131 -276q0 -142 -79.5 -229t-221.5 -121q157 -33 249.5 -125t92.5 -243q0 -80 -27.5 -144.5t-75.5 -109.5t-114.5 -75t-143 -44t-163.5 -14t-163.5 14t-143.5 44t-115 75t-75.5 109.5t-27.5 144.5q0 151 92.5 243t249.5 125
q-142 34 -221.5 121t-79.5 229q0 183 132 276zM388 836q117 -82 321 -82t321 81.5t117 249.5t-117 250t-321 82t-321.5 -82t-117.5 -250t118 -249zM709 16q80 0 150 12t131 38.5t104.5 67t68.5 100t25 133.5q0 92 -37.5 161t-105 109.5t-151.5 60t-185 19.5t-185.5 -19.5
t-151.5 -60t-105 -109.5t-38 -161t38 -161.5t105 -110t151.5 -60t185.5 -19.5z" />
    <glyph glyph-name="nine" unicode="9" 
d="M657 475q-90 0 -174.5 33t-151 93t-107 152t-40.5 201t40.5 201.5t107 152t151 93t174.5 33.5q89 0 173 -33.5t150.5 -93t107 -152t40.5 -201.5q0 -197 -124 -331l-531 -643h-45l442 546q-102 -51 -213 -51zM657 1397q-81 0 -157 -30.5t-136.5 -85t-97.5 -140t-37 -187.5
q0 -135 63.5 -238t159.5 -153.5t205 -50.5q80 0 155.5 30t136.5 85t97.5 140t36.5 187t-36.5 187.5t-97.5 140t-136.5 85t-155.5 30.5z" />
    <glyph glyph-name="colon" unicode=":" horiz-adv-x="546" 
d="M184 956q0 37 26 62.5t64 25.5q37 0 62.5 -25.5t25.5 -62.5q0 -38 -25.5 -64t-62.5 -26q-38 0 -64 26t-26 64zM184 70q0 37 26 62.5t64 25.5q37 0 62.5 -25.5t25.5 -62.5q0 -38 -25.5 -64t-62.5 -26q-38 0 -64 26t-26 64z" />
    <glyph glyph-name="semicolon" unicode=";" horiz-adv-x="546" 
d="M184 956q0 37 26 62.5t64 25.5q37 0 62.5 -25.5t25.5 -62.5q0 -38 -25.5 -64t-62.5 -26q-38 0 -64 26t-26 64zM209 7q-25 26 -25 63t26 62.5t64 25.5q37 0 62.5 -25.5t25.5 -62.5q0 -27 -12 -45l-114 -215h-37l71 170q-37 1 -61 27z" />
    <glyph glyph-name="less" unicode="&#x3c;" horiz-adv-x="1015" 
d="M143 489l729 422v-49l-675 -391l675 -391v-49l-729 422v36z" />
    <glyph glyph-name="equal" unicode="=" horiz-adv-x="1064" 
d="M184 696h697v-41h-697v41zM184 369h697v-41h-697v41z" />
    <glyph glyph-name="greater" unicode="&#x3e;" horiz-adv-x="1015" 
d="M872 489v-36l-729 -422v49l676 391l-676 391v49z" />
    <glyph glyph-name="question" unicode="?" horiz-adv-x="1236" 
d="M584 430v86q0 31 0.5 52t6.5 42.5t8.5 33t18 30t23 26t36.5 29t44 31.5t59 39q8 5 33.5 21.5t34 23t30 22.5t30 27t24 30t22 38t15 44.5t11.5 55.5t3 65q0 72 -20 125t-52 83.5t-80 48.5t-94.5 24t-105.5 6q-94 0 -163 -21.5t-109.5 -56t-64.5 -87t-32 -105.5t-8 -121
h-49q0 71 10.5 130t39 117t74.5 97.5t122.5 63.5t177.5 24q403 0 403 -326q0 -45 -6.5 -83.5t-14 -66t-25.5 -55t-29.5 -43t-38 -36.5t-38 -29t-43.5 -28t-42 -27q-45 -29 -64 -42t-43.5 -33.5t-31.5 -32t-15.5 -34t-10 -44.5t-1.5 -58v-86h-45zM518 70q0 37 26 62.5
t64 25.5q37 0 62.5 -25.5t25.5 -62.5q0 -38 -25.5 -64t-62.5 -26q-38 0 -64 26t-26 64z" />
    <glyph glyph-name="at" unicode="@" horiz-adv-x="2340" 
d="M764 167q-105 133 -68 345t189 345.5t356 133.5q130 0 233 -67.5t132 -175.5l39 225h41l-158 -885h432q98 167 139 383q31 182 6.5 332t-95 266.5t-174 196t-231.5 120.5t-268 41q-141 0 -283 -40.5t-274 -122t-241 -194.5t-187.5 -267.5t-109.5 -331.5q-32 -182 -8 -332
t93 -266.5t172.5 -196t231 -120.5t268.5 -41q90 0 164 14v-27q-80 -14 -168 -14q-145 0 -278.5 43t-241 125.5t-180.5 202.5t-98.5 273.5t6.5 338.5q27 150 88.5 286t147.5 243t192.5 193.5t224 143t241 87t244.5 30.5q146 0 279.5 -43t242 -125.5t182 -202.5t99 -273.5
t-5.5 -338.5q-43 -232 -162 -420h-495l41 225q-67 -108 -193 -175.5t-256 -67.5q-204 0 -309 134zM1583 625q13 92 -34 168.5t-131 118.5t-183 42q-184 0 -321.5 -122.5t-172.5 -319.5q-34 -197 60 -319.5t278 -122.5q101 0 201 43t173.5 123t90.5 176z" />
    <glyph glyph-name="A" unicode="A" horiz-adv-x="1560" 
d="M758 1434h45l655 -1434h-45l-194 426h-877l-195 -426h-45zM360 467h840l-420 917z" />
    <glyph glyph-name="B" unicode="B" horiz-adv-x="1439" 
d="M225 0v1434h508q31 0 56 -1t73.5 -9t86 -21t82 -40.5t74 -65t49.5 -97t20 -133.5q0 -259 -236 -338q46 -8 86 -21t84 -40.5t75 -65t51.5 -98t20.5 -135.5q0 -74 -20 -133.5t-49.5 -97t-73.5 -65.5t-82 -41.5t-85.5 -21t-73.5 -9t-56 -1.5h-590zM270 737h482q27 0 52 1.5
t64.5 9t71.5 20t68 37.5t60 58.5t40 86t16 117.5q0 54 -11 99t-27.5 76.5t-42.5 57t-50 41.5t-58 27.5t-57 17t-55.5 8.5t-46 3h-36.5h-7h-463v-660zM270 37h545q391 0 391 332t-384 331h-7h-545v-663z" />
    <glyph glyph-name="C" unicode="C" horiz-adv-x="1714" 
d="M286 1011q-53 -134 -53 -294t53 -293.5t143.5 -220.5t208.5 -135t249 -48q141 0 258 44t189 113t111.5 150t39.5 160h45q0 -67 -25.5 -137t-79.5 -136.5t-128 -118.5t-181 -83.5t-229 -31.5q-142 0 -269.5 51.5t-224 145t-153 233.5t-56.5 307t56.5 307t153 233.5
t224 145t269.5 51.5q122 0 229 -32t181 -84t128 -118.5t79.5 -136.5t25.5 -137h-45q0 79 -39.5 160t-111.5 150t-189 113t-258 44q-131 0 -249 -47.5t-208.5 -134.5t-143.5 -220z" />
    <glyph glyph-name="D" unicode="D" horiz-adv-x="1665" 
d="M754 1434q110 0 215.5 -29.5t198 -90t162.5 -144.5t110.5 -201t40.5 -252t-40.5 -252t-110.5 -201t-162.5 -144.5t-198 -90t-215.5 -29.5h-529v1434h529zM270 37h484q130 0 250 45t216 128t154 214.5t58 292.5t-58 292.5t-154 214.5t-216 128t-250 45h-484v-1360z" />
    <glyph glyph-name="E" unicode="E" horiz-adv-x="1316" 
d="M225 1434h949v-41h-904v-619h842v-41h-842v-692h904v-41h-949v1434z" />
    <glyph glyph-name="F" unicode="F" horiz-adv-x="1255" 
d="M205 1434h948v-41h-903v-660h842v-41h-842v-692h-45v1434z" />
    <glyph glyph-name="G" unicode="G" horiz-adv-x="1734" 
d="M233 727q0 -162 50.5 -292.5t140 -216t211.5 -131.5t266 -46q279 0 441.5 158.5t162.5 410.5h-692v41h737v-651h-45v422q-53 -192 -209 -307t-397 -115q-207 0 -368 85.5t-254 251.5t-93 390q0 167 57 305.5t155.5 230t230 141.5t282.5 50q144 0 265 -45t197 -116.5
t117.5 -156.5t41.5 -169h-45q0 78 -38.5 156t-109 143.5t-182 106t-244.5 40.5q-141 0 -263.5 -46t-215 -131.5t-146 -216.5t-53.5 -292z" />
    <glyph glyph-name="H" unicode="H" horiz-adv-x="1746" 
d="M225 1434h45v-680h1207v680h45v-1434h-45v713h-1207v-713h-45v1434z" />
    <glyph glyph-name="I" unicode="I" horiz-adv-x="495" 
d="M225 1434h45v-1434h-45v1434z" />
    <glyph glyph-name="J" unicode="J" horiz-adv-x="1308" 
d="M1038 1434h45v-942q0 -236 -129.5 -374t-339.5 -138q-216 0 -343.5 137t-127.5 375h45q0 -224 113.5 -348t312.5 -124q192 0 308 125t116 347v942z" />
    <glyph glyph-name="K" unicode="K" horiz-adv-x="1333" 
d="M225 1434h45v-738h260l596 738h54l-607 -754l658 -680h-57l-637 655h-267v-655h-45v1434z" />
    <glyph glyph-name="L" unicode="L" horiz-adv-x="1357" 
d="M225 1434h45v-1393h944v-41h-989v1434z" />
    <glyph glyph-name="M" unicode="M" horiz-adv-x="1900" 
d="M225 1434h45l680 -1377l680 1377h45v-1434h-45v1343l-663 -1343h-33l-664 1343v-1343h-45v1434z" />
    <glyph glyph-name="N" unicode="N" horiz-adv-x="1746" 
d="M225 1434h45l1207 -1368v1368h45v-1434h-45l-1207 1368v-1368h-45v1434z" />
    <glyph glyph-name="O" unicode="O" horiz-adv-x="1820" 
d="M225 463q-41 119 -41 254t40.5 254t110.5 206t162 150.5t197.5 95t214.5 31.5q110 0 215.5 -31.5t198 -95t162.5 -150.5t110.5 -206t40.5 -254t-40.5 -254t-110.5 -206t-162.5 -150.5t-198 -95t-215.5 -31.5q-109 0 -214.5 31.5t-197.5 95t-162 150.5t-110 206z
M1159 1365q-121 48 -250 48t-249.5 -48t-216 -134.5t-153 -220t-57.5 -293.5q0 -128 37.5 -241t102.5 -195t151 -142t184.5 -89.5t200.5 -29.5q129 0 249.5 48t216.5 134.5t154 221t58 293.5t-58 293t-154 220.5t-216 134.5z" />
    <glyph glyph-name="P" unicode="P" horiz-adv-x="1439" 
d="M815 1434q26 0 58 -3.5t80 -16t93 -32.5t91.5 -56.5t80.5 -84t56 -119.5t22 -159t-22 -159t-56 -119.5t-80.5 -84t-91.5 -56.5t-93 -32.5t-80 -16t-58 -3.5h-545v-492h-45v1434h590zM270 528h545q21 0 47.5 2.5t70 13.5t84 28t83.5 50.5t74.5 77.5t52 112t20.5 151
q0 82 -20.5 150t-52 112t-74.5 77t-83.5 50.5t-84 28.5t-70 13.5t-47.5 2.5h-545v-869z" />
    <glyph glyph-name="Q" unicode="Q" horiz-adv-x="1820" 
d="M1548 -410l-372 439q-128 -49 -267 -49q-109 0 -214.5 31.5t-197.5 95t-162 150.5t-110.5 206t-40.5 254t40.5 254t110.5 206t162 150.5t197.5 95t214.5 31.5q110 0 215.5 -31.5t198 -95t162.5 -150.5t110.5 -206t40.5 -254q0 -237 -118 -412.5t-306 -259.5l381 -455h-45
zM1159 1365q-121 48 -250 48t-249.5 -48t-216 -134.5t-153 -220t-57.5 -293.5q0 -128 37.5 -241t102.5 -195t151 -142t184.5 -89.5t200.5 -29.5q129 0 249.5 48t216.5 134.5t154 221t58 293.5t-58 293t-154 220.5t-216 134.5z" />
    <glyph glyph-name="R" unicode="R" horiz-adv-x="1439" 
d="M815 1434q25 0 57.5 -3.5t80.5 -15.5t93 -30.5t91.5 -52t80.5 -76.5t56 -108.5t22 -143.5t-22 -143.5t-56 -109t-80.5 -77t-91.5 -52t-93 -30.5t-80.5 -15.5t-57.5 -3.5h-2l420 -573h-55l-420 573h-488v-573h-45v1434h590zM270 610h545q21 0 47.5 2.5t70 12.5t84 26
t83.5 46.5t74.5 70t52 101t20.5 135.5t-20.5 135t-52 100.5t-74.5 70t-83.5 46.5t-84 26t-70 12.5t-47.5 2.5h-545v-787z" />
    <glyph glyph-name="S" unicode="S" horiz-adv-x="1529" 
d="M213 432q0 -65 18 -122.5t61 -111.5t107 -93t163.5 -62t223.5 -23q267 0 399 93t132 252q0 39 -6.5 71.5t-17 58t-30 46t-38.5 35.5t-50 28t-57.5 21.5t-67.5 17.5t-73 14.5t-82 13.5q-59 10 -90 15q-79 14 -127 23.5t-111.5 25t-101.5 30.5t-82 37t-69.5 48t-48.5 60
t-32.5 77.5t-9.5 95.5q0 181 147.5 276t399.5 95q131 0 234 -26t168.5 -69.5t108 -103t60 -122t17.5 -132.5h-49q0 66 -15 123t-53.5 111.5t-98 92.5t-155 61.5t-217.5 23.5q-153 0 -261.5 -33t-172.5 -109t-64 -192q0 -39 7.5 -72.5t20 -60.5t35 -49.5t46.5 -40t61 -33
t71.5 -27t85.5 -23t96.5 -19.5t109.5 -19q25 -4 73 -12q106 -17 158 -27t128 -36.5t111.5 -60t63 -93t27.5 -141.5q0 -172 -146 -278.5t-434 -106.5q-131 0 -237.5 26t-177 69.5t-118 102t-68.5 122t-21 132.5h49z" />
    <glyph glyph-name="T" unicode="T" horiz-adv-x="1482" 
d="M102 1434h1278v-41h-616v-1393h-45v1393h-617v41z" />
    <glyph glyph-name="U" unicode="U" horiz-adv-x="1595" 
d="M1325 1434h45v-840q0 -310 -151.5 -462t-432.5 -152q-561 0 -561 614v840h45v-840q0 -295 128.5 -434.5t387.5 -139.5q262 0 400.5 140.5t138.5 433.5v840z" />
    <glyph glyph-name="V" unicode="V" horiz-adv-x="1560" 
d="M758 0l-656 1434h45l633 -1385l633 1385h45l-655 -1434h-45z" />
    <glyph glyph-name="W" unicode="W" horiz-adv-x="2093" 
d="M573 0l-471 1434h45l449 -1364l428 1364h45l428 -1364l449 1364h45l-471 -1434h-45l-428 1362l-429 -1362h-45z" />
    <glyph glyph-name="X" unicode="X" horiz-adv-x="1552" 
d="M102 0l646 745l-572 689h60l542 -654l543 654h59l-573 -689l643 -745h-59l-613 717l-614 -717h-62z" />
    <glyph glyph-name="Y" unicode="Y" horiz-adv-x="1478" 
d="M717 430l-615 1004h54l583 -953l584 953h53l-614 -1004v-430h-45v430z" />
    <glyph glyph-name="Z" unicode="Z" horiz-adv-x="1286" 
d="M1130 1434v-33l-966 -1360h1020v-41h-1082v33l969 1360h-952v41h1011z" />
    <glyph glyph-name="bracketleft" unicode="[" horiz-adv-x="866" 
d="M225 1434h477v-41h-432v-1762h432v-41h-477v1844z" />
    <glyph glyph-name="backslash" unicode="\" horiz-adv-x="772" 
d="M629 0h-35l-451 1434h35z" />
    <glyph glyph-name="bracketright" unicode="]" horiz-adv-x="866" 
d="M702 1434v-1844h-477v41h432v1762h-432v41h477z" />
    <glyph glyph-name="asciicircum" unicode="^" horiz-adv-x="946" 
d="M184 860l267 574h45l266 -574h-45l-244 526l-244 -526h-45z" />
    <glyph glyph-name="underscore" unicode="_" horiz-adv-x="1064" 
d="M184 369h697v-41h-697v41z" />
    <glyph glyph-name="grave" unicode="`" horiz-adv-x="452" 
d="M309 1155h-39l-127 320h43z" />
    <glyph glyph-name="a" unicode="a" horiz-adv-x="1230" 
d="M264 1024h332q101 0 172.5 -21.5t113 -56t65.5 -91.5t31 -113.5t7 -137.5v-348q0 -64 5.5 -100.5t24.5 -66t55.5 -41t96.5 -11.5h23v-37h-23q-133 1 -178 53t-45 197q-39 -120 -144.5 -195t-264.5 -75q-96 0 -161 12.5t-114.5 44t-72.5 88t-23 141.5q0 138 78.5 192
t251.5 54h450v92q0 54 -2.5 92t-10.5 81t-22.5 72t-40.5 57t-62.5 44.5t-89 26.5t-120.5 10h-332v37zM944 475h-450q-157 0 -221 -42.5t-64 -166.5q0 -63 13.5 -107.5t37.5 -72.5t66 -43.5t90.5 -21t118.5 -5.5q95 0 174 31t129.5 82.5t78 116t27.5 133.5v96z" />
    <glyph glyph-name="b" unicode="b" horiz-adv-x="1374" 
d="M1067 896q143 -149 143 -384t-143.5 -383.5t-370.5 -148.5q-147 0 -273 78.5t-177 203.5v-262h-41v1434h41v-672q51 125 177 203.5t273 78.5q227 0 371 -148zM246 399q0 -107 66.5 -196.5t169.5 -138t214 -48.5q210 0 339.5 137t129.5 359t-129.5 359t-339.5 137
q-111 0 -214 -48.5t-169.5 -138t-66.5 -196.5v-226z" />
    <glyph glyph-name="c" unicode="c" 
d="M275 779q-66 -114 -66 -267t65.5 -267t175 -171.5t246.5 -57.5q97 0 177.5 30t130.5 77.5t77 103t27 109.5h41q0 -61 -30.5 -123t-85.5 -114.5t-143.5 -85.5t-193.5 -33q-149 0 -268.5 62.5t-191.5 185t-72 284.5t72 284.5t191.5 185t268.5 62.5q105 0 193.5 -33
t143.5 -85.5t85.5 -114.5t30.5 -123h-41q0 54 -27 109.5t-77 103t-130.5 77.5t-177.5 30q-137 0 -246.5 -57.5t-174.5 -171.5z" />
    <glyph glyph-name="d" unicode="d" horiz-adv-x="1374" 
d="M308 129q-144 148 -144 383t143.5 383.5t370.5 148.5q147 0 273 -78.5t177 -203.5v672h41v-1434h-41v262q-51 -125 -177 -203.5t-273 -78.5q-227 0 -370 149zM678 16q111 0 214 48.5t169.5 138t66.5 196.5v226q0 107 -66.5 196.5t-169.5 138t-214 48.5
q-210 0 -339.5 -137t-129.5 -359t129.5 -359t339.5 -137z" />
    <glyph glyph-name="e" unicode="e" 
d="M664 16q94 0 176 29.5t134.5 75t82.5 97t30 97.5h41q0 -53 -33 -111t-91 -108.5t-148 -83t-192 -32.5q-99 0 -189 37t-159.5 103.5t-110.5 168t-41 223.5t41 223.5t110.5 168t159.5 103.5t189 37q216 0 350.5 -144.5t134.5 -385.5h-940q0 -115 37 -211t100.5 -157.5
t145 -95.5t172.5 -34zM1108 551q-10 211 -131.5 334t-312.5 123q-180 0 -310.5 -123.5t-142.5 -333.5h897z" />
    <glyph glyph-name="f" unicode="f" horiz-adv-x="901" 
d="M797 1417h-166q-148 0 -211.5 -74.5t-63.5 -226.5v-92h443v-37h-443v-987h-41v987h-213v37h213v92q0 165 76 251t240 87h166v-37z" />
    <glyph glyph-name="g" unicode="g" horiz-adv-x="1374" 
d="M313 -373h357q234 0 346 121.5t112 343.5v170q-51 -125 -177 -203.5t-273 -78.5q-227 0 -370.5 148.5t-143.5 383.5t143.5 383.5t370.5 148.5q147 0 273 -78.5t177 -203.5v262h41v-932q0 -235 -124.5 -368.5t-374.5 -133.5h-357v37zM678 16q111 0 214 48.5t169.5 138
t66.5 196.5v226q0 107 -66.5 196.5t-169.5 138t-214 48.5q-210 0 -339.5 -137t-129.5 -359t129.5 -359t339.5 -137z" />
    <glyph glyph-name="h" unicode="h" horiz-adv-x="1292" 
d="M205 1434h41v-682q48 129 164.5 210.5t257.5 81.5q118 0 201.5 -30.5t130 -89t67 -131.5t20.5 -168v-625h-40v625q0 70 -10.5 125.5t-36.5 105t-68.5 82t-109 51.5t-154.5 19q-168 0 -295 -119.5t-127 -284.5v-604h-41v1434z" />
    <glyph glyph-name="i" unicode="i" horiz-adv-x="409" 
d="M145 1395q0 25 18 42t44 17q25 0 42 -17t17 -42q0 -26 -17 -44t-42 -18q-26 0 -44 18t-18 44zM184 1024h41v-1024h-41v1024z" />
    <glyph glyph-name="j" unicode="j" horiz-adv-x="409" 
d="M145 1395q0 25 18 42t44 17q25 0 42 -17t17 -42q0 -26 -17 -44t-42 -18q-26 0 -44 18t-18 44zM-215 -373h125q148 0 211 74.5t63 226.5v1096h41v-1096q0 -166 -76 -252t-239 -86h-125v37z" />
    <glyph glyph-name="k" unicode="k" horiz-adv-x="1179" 
d="M205 1434h41v-883h246l462 473h50l-474 -489l527 -535h-53l-510 514h-248v-514h-41v1434z" />
    <glyph glyph-name="l" unicode="l" horiz-adv-x="491" 
d="M451 37v-37h-33q-69 1 -110 12.5t-64.5 43.5t-31 77t-7.5 123v1178h41v-1178q0 -53 2.5 -82.5t11.5 -60t27.5 -44.5t50.5 -23t80 -9h33z" />
    <glyph glyph-name="m" unicode="m" horiz-adv-x="2052" 
d="M205 1024h41v-270q46 128 157.5 209t243.5 81q346 0 391 -313q41 135 157.5 224t252.5 89q111 0 190 -31t124 -88.5t65 -131t20 -168.5v-625h-41v625q0 70 -10 126t-35 105t-65.5 81.5t-103 51.5t-144.5 19q-74 0 -147 -32t-129 -86t-90.5 -129.5t-34.5 -156.5v-604h-41
v625q0 88 -17 154.5t-56.5 120t-111.5 81t-174 27.5q-74 0 -147 -32t-129 -86t-90.5 -129.5t-34.5 -156.5v-604h-41v1024z" />
    <glyph glyph-name="n" unicode="n" horiz-adv-x="1292" 
d="M205 1024h41v-272q48 129 164.5 210.5t257.5 81.5q118 0 201.5 -30.5t130 -89t67 -131.5t20.5 -168v-625h-40v625q0 70 -10.5 125.5t-36.5 105t-68.5 82t-109 51.5t-154.5 19q-168 0 -295 -119.5t-127 -284.5v-604h-41v1024z" />
    <glyph glyph-name="o" unicode="o" horiz-adv-x="1376" 
d="M512 50q85 -34 176 -34t176.5 34t153 95.5t108.5 157t41 209.5t-41 209.5t-108.5 157t-153 95.5t-176.5 34t-176.5 -34t-153 -95.5t-108.5 -157t-41 -209.5t41 -209.5t108.5 -157t153.5 -95.5zM496 1007q93 37 192 37t192.5 -37t167.5 -103t119 -168.5t45 -223.5
t-45 -223.5t-119 -168.5t-167.5 -103t-192.5 -37t-192.5 37t-167.5 103t-119 168.5t-45 223.5t45 223.5t119 168.5t168 103z" />
    <glyph glyph-name="p" unicode="p" horiz-adv-x="1374" 
d="M205 1024h41v-262q51 125 177 203.5t273 78.5q227 0 370.5 -148.5t143.5 -383.5t-143.5 -383.5t-370.5 -148.5q-147 0 -273 78.5t-177 203.5v-672h-41v1434zM246 399q0 -107 66.5 -196.5t169.5 -138t214 -48.5q210 0 339.5 137t129.5 359t-129.5 359t-339.5 137
q-111 0 -214 -48.5t-169.5 -138t-66.5 -196.5v-226z" />
    <glyph glyph-name="q" unicode="q" horiz-adv-x="1374" 
d="M1169 1024v-1434h-41v672q-51 -125 -177 -203.5t-273 -78.5q-227 0 -370.5 148.5t-143.5 383.5t143.5 383.5t370.5 148.5q147 0 273 -78.5t177 -203.5v262h41zM678 16q111 0 214 48.5t169.5 138t66.5 196.5v226q0 107 -66.5 196.5t-169.5 138t-214 48.5
q-210 0 -339.5 -137t-129.5 -359t129.5 -359t339.5 -137z" />
    <glyph glyph-name="r" unicode="r" horiz-adv-x="808" 
d="M205 1024h41v-266q42 131 143 208.5t238 77.5h100v-36h-100q-165 0 -273 -120.5t-108 -303.5v-584h-41v1024z" />
    <glyph glyph-name="s" unicode="s" horiz-adv-x="1196" 
d="M205 315q0 -54 27 -106.5t78 -96t134 -70t185 -26.5q182 0 272 66t90 176q0 48 -19 83.5t-39 56t-78 38.5t-89 25t-118 22q-3 1 -5 1.5t-5 1t-5.5 1t-5.5 0.5q-86 15 -142.5 28.5t-114 36.5t-90 51.5t-53 72t-20.5 100.5q0 87 54.5 149t142.5 90.5t198 28.5t194.5 -29.5
t133 -78.5t72.5 -106.5t24 -120.5h-41q0 57 -19.5 107t-61.5 94.5t-119.5 71t-182.5 26.5q-161 0 -257.5 -58t-96.5 -176q0 -108 89.5 -160.5t289.5 -85.5q176 -29 234 -49q126 -42 158 -135q13 -38 13 -86q0 -124 -104.5 -201t-298.5 -77q-110 0 -200.5 29.5t-147 78
t-87 107.5t-30.5 120h41z" />
    <glyph glyph-name="t" unicode="t" horiz-adv-x="901" 
d="M102 1024h213v246h41v-246h443v-37h-443v-649q0 -152 63.5 -226.5t211.5 -74.5h166v-37h-166q-164 1 -240 87t-76 251v649h-213v37z" />
    <glyph glyph-name="u" unicode="u" horiz-adv-x="1333" 
d="M1292 37v-37h-32q-69 1 -110 12.5t-64.5 43.5t-31 77t-7.5 123v16q-48 -129 -164.5 -210.5t-257.5 -81.5q-118 0 -201.5 30.5t-130.5 89t-67.5 131.5t-20.5 168v625h41v-625q0 -70 10.5 -125.5t36.5 -105t68.5 -82t109 -51.5t154.5 -19q168 0 295 119.5t127 284.5v604h40
v-768q0 -44 1.5 -70.5t7.5 -54.5t17 -43t30 -28t48 -18t69 -5h32z" />
    <glyph glyph-name="v" unicode="v" horiz-adv-x="1189" 
d="M102 1024h43l451 -977l448 977h43l-471 -1024h-43z" />
    <glyph glyph-name="w" unicode="w" horiz-adv-x="1517" 
d="M102 1024h43l287 -954l305 954h43l305 -954l287 954h43l-307 -1024h-43l-305 956l-307 -956h-43z" />
    <glyph glyph-name="x" unicode="x" horiz-adv-x="1239" 
d="M102 0l488 535l-434 489h49l416 -463l413 463h49l-434 -489l488 -535h-54l-462 508l-465 -508h-54z" />
    <glyph glyph-name="y" unicode="y" horiz-adv-x="1171" 
d="M1069 1024l-459 -1044q-10 -22 -27 -62q-29 -68 -44 -99.5t-44.5 -78.5t-59 -67.5t-76.5 -43.5t-110 -31t-147 -8v41q54 0 99 4.5t80 10.5t64.5 19.5t50 25.5t40 33.5t31.5 38.5t26.5 46.5t23 50.5t24 58t26.5 62l11 20h-3l-471 1024h43l449 -977l430 977h43z" />
    <glyph glyph-name="z" unicode="z" horiz-adv-x="1101" 
d="M946 1024v-29l-764 -958h817v-37h-876v29l766 958h-750v37h807z" />
    <glyph glyph-name="braceleft" unicode="{" horiz-adv-x="993" 
d="M193 539q64 8 104.5 23t70 41t44.5 73t21.5 110t6.5 160q0 122 9 203t29.5 139t58.5 88.5t90 44t131 13.5h133v-37h-133q-70 0 -114 -11.5t-76.5 -38.5t-48.5 -81t-23 -127.5t-7 -190.5q0 -221 -46 -314t-173 -122q127 -29 173 -121t46 -313q0 -117 7 -190.5t23 -127.5
t48.5 -81t76.5 -38.5t114 -11.5h133v-37h-133q-79 0 -131 13.5t-90 44t-58.5 88.5t-29.5 139t-9 203q0 97 -6.5 160t-21.5 110t-44.5 73t-70 41t-104.5 23l-50 7v38z" />
    <glyph glyph-name="bar" unicode="|" horiz-adv-x="485" 
d="M225 1434h35v-1844h-35v1844z" />
    <glyph glyph-name="braceright" unicode="}" horiz-adv-x="993" 
d="M801 539l49 -7v-38l-49 -7q-53 -7 -89 -17t-65 -30.5t-46 -48.5t-28.5 -73t-15.5 -101t-4 -137q0 -122 -9 -203t-29 -139t-58 -88.5t-90 -44t-131 -13.5h-134v37h134q70 0 114 11.5t76 38t48 81t23 128t7 190.5q0 221 46 314t173 122q-127 29 -173 121t-46 313
q0 117 -7 190.5t-23 128t-48 81t-76 38t-114 11.5h-134v37h134q79 0 131 -13.5t90 -44t58 -88.5t29 -139t9 -203q0 -81 4 -137t15.5 -101t28.5 -73t46 -48.5t65 -30.5t89 -17z" />
    <glyph glyph-name="asciitilde" unicode="~" horiz-adv-x="1308" 
d="M203 821q26 65 58 104.5t69.5 58.5t89.5 16.5t109 -18.5t137 -48q76 -31 124.5 -46t95 -20t77.5 9.5t58 47t50 89.5l21 47l32 -14l-18 -48q-26 -65 -58 -104.5t-69 -57.5t-89 -15.5t-108 18.5t-137 49q-63 26 -105.5 40t-85 22.5t-71 3.5t-56 -21t-48.5 -47t-41 -78
l-21 -49l-33 14z" />
    <glyph glyph-name="exclamdown" unicode="&#xa1;" horiz-adv-x="495" 
d="M160 954q0 38 26 64t64 26q37 0 62.5 -26t25.5 -64q0 -37 -25.5 -62.5t-62.5 -25.5q-38 0 -64 25.5t-26 62.5zM225 -410v506l4 498h37l4 -498v-506h-45z" />
    <glyph glyph-name="cent" unicode="&#xa2;" 
d="M275 779q-66 -114 -66 -267t65.5 -267t175 -171.5t246.5 -57.5q97 0 177.5 30t130.5 77.5t77 103t27 109.5h41q0 -60 -28.5 -120.5t-81 -112.5t-137 -86t-185.5 -37v-390h-41v390q-107 3 -200.5 41t-162.5 105t-109 167t-40 219t40 219t109 167t162.5 105t200.5 41v390
h41v-390q101 -3 185.5 -37t137 -86t81 -112.5t28.5 -120.5h-41q0 54 -27 109.5t-77 103t-130.5 77.5t-177.5 30q-137 0 -246.5 -57.5t-174.5 -171.5z" />
    <glyph glyph-name="sterling" unicode="&#xa3;" horiz-adv-x="1544" 
d="M451 1073q0 125 62.5 212.5t167 128t243.5 40.5q104 0 185 -26.5t131.5 -69t82.5 -103t44.5 -122.5t12.5 -132h-49q0 68 -9.5 123t-36.5 110.5t-70.5 93.5t-117.5 61.5t-173 23.5q-91 0 -166 -19.5t-134 -59t-91.5 -106.5t-32.5 -157v-420h755v-41h-755v-569h880v-41
h-929v610h-328v41h328v422z" />
    <glyph glyph-name="currency" unicode="&#xa4;" horiz-adv-x="1533" 
d="M1348 1284l-308 -307q95 -106 95 -248t-95 -246l308 -309l-25 -27l-309 310q-104 -95 -247 -95t-247 95l-309 -310l-25 27l308 309q-95 104 -95 246t95 248l-308 307l25 27l307 -307q104 95 249 95t249 -95l307 307zM767 399q137 0 234 97t97 234.5t-97 234.5t-234.5 97
t-234.5 -97t-97 -234.5t97 -234.5t235 -97z" />
    <glyph glyph-name="yen" unicode="&#xa5;" horiz-adv-x="1478" 
d="M330 469h362l-590 965h54l583 -953l584 953h53l-590 -965h363v-41h-387v-164h387v-41h-387v-223h-45v223h-387v41h387v164h-387v41z" />
    <glyph glyph-name="brokenbar" unicode="&#xa6;" horiz-adv-x="485" 
d="M225 1434h35v-719h-35v719zM225 309h35v-719h-35v719z" />
    <glyph glyph-name="section" unicode="&#xa7;" horiz-adv-x="1529" 
d="M213 -59q0 -65 18 -122.5t61 -111.5t107 -93t163.5 -62t223.5 -23q267 0 399 92.5t132 251.5q0 70 -23 120t-49.5 78.5t-95.5 51.5t-110.5 31.5t-145.5 25.5q-58 10 -88 15q-79 14 -127 23.5t-111.5 25t-101.5 30.5t-82 37t-69.5 48t-48.5 60t-32.5 77.5t-9.5 95.5
q0 153 107 246q-107 84 -107 245q0 181 147.5 276t399.5 95q131 0 234 -26t168.5 -69.5t108 -103t60 -122t17.5 -132.5h-49q0 66 -15 123t-53.5 111.5t-98 92.5t-155 61.5t-217.5 23.5q-153 0 -261.5 -33t-172.5 -109t-64 -192q0 -39 7.5 -72.5t20 -60.5t35 -49.5t46.5 -40
t61 -33t71.5 -27t85.5 -23t96.5 -19.5t109.5 -19q25 -4 73 -12q106 -17 158 -27t128 -36.5t111.5 -60t63 -93t27.5 -141.5q0 -148 -106 -248q106 -79 106 -244q0 -172 -146 -278.5t-434 -106.5q-131 0 -237.5 26t-177 69.5t-118 102.5t-68.5 122.5t-21 132.5h49zM367 811
q-95 -85 -95 -223q0 -39 7.5 -72.5t20 -60.5t35 -49.5t46.5 -40t61 -33t71.5 -27t85.5 -23t96.5 -19.5t109.5 -19q21 -4 78.5 -13t81.5 -13t69.5 -13t72 -16.5t59 -19.5t57.5 -26q94 81 94 222q0 39 -6.5 71.5t-17 58t-30 46t-38.5 35.5t-50 28t-57.5 21.5t-67.5 17.5
t-73 14.5t-82 13.5q-59 10 -90 15q-165 29 -266.5 56t-171.5 69z" />
    <glyph glyph-name="dieresis" unicode="&#xa8;" horiz-adv-x="854" 
d="M143 1278q0 37 26 62.5t64 25.5q37 0 63 -25.5t26 -62.5q0 -38 -26 -64t-63 -26q-38 0 -64 26t-26 64zM532 1278q0 37 26.5 62.5t64.5 25.5q37 0 62.5 -25.5t25.5 -62.5q0 -38 -25.5 -64t-62.5 -26q-38 0 -64.5 26t-26.5 64z" />
    <glyph glyph-name="copyright" unicode="&#xa9;" horiz-adv-x="1845" 
d="M245 431q-59 136 -59 286t58.5 286t157 235t235.5 157.5t287 58.5q201 0 370.5 -99t268 -268.5t98.5 -369.5t-98.5 -369.5t-268 -268.5t-370.5 -99q-150 0 -287 58.5t-235.5 157.5t-156.5 235zM317 1068q-94 -162 -94 -351t94 -350.5t255.5 -256t351.5 -94.5t351.5 94.5
t255 255.5t93.5 351q0 142 -55.5 271.5t-149 223.5t-223.5 149.5t-272 55.5q-190 0 -351.5 -94t-255.5 -255zM629 717q0 -143 85 -232.5t214 -89.5q128 0 200 64t72 147h47q0 -42 -21 -85t-59 -80.5t-100.5 -61t-138.5 -23.5q-146 0 -247 99.5t-101 261.5q0 163 101 262.5
t247 99.5q75 0 138 -24t101 -61.5t59 -80.5t21 -84h-47q0 82 -72 145.5t-200 63.5q-130 0 -214.5 -88.5t-84.5 -232.5z" />
    <glyph glyph-name="ordfeminine" unicode="&#xaa;" horiz-adv-x="882" 
d="M233 1454h166q62 0 102.5 -14.5t60 -45.5t26 -64.5t6.5 -84.5v-98h2v-86q0 -63 17 -87t75 -24h10v-18h-10q-68 0 -90.5 26t-22.5 99q-20 -61 -71.5 -98t-132.5 -37q-97 0 -142 30.5t-45 112.5q0 69 39.5 96t126.5 27h223v57q0 39 -2.5 63.5t-12 51t-28 41.5t-51.5 25
t-80 10h-166v18zM573 1137v32h-223q-78 0 -110.5 -21t-32.5 -83q0 -75 38 -100t126 -25q94 0 149 54t55 128v15h-2z" />
    <glyph glyph-name="guillemotleft" unicode="&#xab;" horiz-adv-x="890" 
d="M143 512l248 430h49l-247 -430l247 -430h-49zM451 512l247 430h50l-248 -430l248 -430h-50z" />
    <glyph glyph-name="logicalnot" unicode="&#xac;" horiz-adv-x="980" 
d="M184 819h613v-307h-35v272h-578v35z" />
    <glyph glyph-name="registered" unicode="&#xae;" horiz-adv-x="1845" 
d="M245 431q-59 136 -59 286t58.5 286.5t157 235.5t234.5 157t286 58t287 -58t236 -157t157.5 -235.5t58.5 -286.5q0 -200 -99 -369.5t-269 -268.5t-371 -99q-150 0 -286 58.5t-234.5 157.5t-156.5 235zM317 1069q-94 -162 -94 -352t94 -351.5t255 -255.5t350 -94
q190 0 352 94t256 255.5t94 351.5q0 143 -55.5 272.5t-150 223t-224 149t-272.5 55.5q-189 0 -350 -93.5t-255 -254.5zM971 1069q19 0 44 -4t61.5 -18t65 -36.5t49.5 -65t21 -97.5q0 -49 -16 -88t-39.5 -62t-55 -39t-56.5 -22.5t-50 -9.5l191 -260h-58l-190 258h-213v-258
h-47v702h293zM725 668h246q16 0 35 2.5t48.5 13.5t52 29.5t39.5 53.5t17 81t-17 80.5t-39.5 52.5t-52 29t-49 13.5t-34.5 2.5h-246v-358z" />
    <glyph glyph-name="macron" unicode="&#xaf;" horiz-adv-x="716" 
d="M143 1249h430v-41h-430v41z" />
    <glyph glyph-name="degree" unicode="&#xb0;" horiz-adv-x="800" 
d="M143 1196q0 106 76 182t180 76q106 0 182 -76t76 -182q0 -104 -76 -180t-182 -76q-104 0 -180 76t-76 180zM180 1196q0 -91 64 -155t155 -64q92 0 157 64t65 155q0 92 -65 156.5t-157 64.5q-91 0 -155 -64.5t-64 -156.5z" />
    <glyph glyph-name="plusminus" unicode="&#xb1;" horiz-adv-x="1064" 
d="M184 696h328v328h41v-328h328v-41h-328v-327h-41v327h-328v41zM184 41h697v-41h-697v41z" />
    <glyph glyph-name="twosuperior" unicode="&#xb2;" horiz-adv-x="940" 
d="M176 606l309 281q137 125 175 185t38 138q0 114 -73 167t-189 53q-73 0 -126.5 -24.5t-82 -66t-41 -86.5t-12.5 -96h-29q0 42 8.5 82t30 79.5t53.5 69t82 48t113 18.5q131 0 213 -61t82 -181q0 -86 -43.5 -150.5t-183.5 -191.5l-291 -264h586v-24h-619v24z" />
    <glyph glyph-name="threesuperior" unicode="&#xb3;" horiz-adv-x="909" 
d="M383 1001v23h104q102 0 150.5 48.5t48.5 150.5q0 106 -70 156.5t-184 50.5q-74 0 -124.5 -20.5t-76 -57.5t-35.5 -77.5t-10 -92.5h-28q0 42 7.5 79.5t26.5 73.5t49.5 61.5t79 41.5t111.5 16q128 0 205.5 -58t77.5 -171q0 -169 -127 -209q176 -37 176 -203
q0 -119 -87.5 -180.5t-219.5 -61.5q-78 0 -139.5 23.5t-98 63t-55.5 87t-19 99.5h29q0 -49 16.5 -92t49.5 -78.5t90 -56.5t131 -21q55 0 102.5 12t87 36.5t62 68t22.5 102.5q0 186 -248 186h-104z" />
    <glyph glyph-name="acute" unicode="&#xb4;" horiz-adv-x="452" 
d="M143 1155l123 320h43l-127 -320h-39z" />
    <glyph glyph-name="paragraph" unicode="&#xb6;" horiz-adv-x="1460" 
d="M645 1434h590v-1844h-45v1807h-416v-1807h-45v902h-84q-26 0 -58 3.5t-80 16t-93 32.5t-91.5 56.5t-80.5 84t-56 119.5t-22 159t22 159t56 119.5t80.5 84t91.5 56.5t93 32.5t80 16t58 3.5zM729 528v869h-84q-21 0 -47.5 -2.5t-70 -13.5t-84 -28.5t-83.5 -50.5t-74.5 -77
t-52 -112t-20.5 -150q0 -83 20.5 -151t52 -112t74.5 -77.5t83.5 -50.5t84 -28t70 -13.5t47.5 -2.5h84z" />
    <glyph glyph-name="periodcentered" unicode="&#xb7;" horiz-adv-x="628" 
d="M225 512q0 37 26 62.5t64 25.5q37 0 62.5 -25.5t25.5 -62.5q0 -38 -25.5 -64t-62.5 -26q-38 0 -64 26t-26 64z" />
    <glyph glyph-name="cedilla" unicode="&#xb8;" horiz-adv-x="647" 
d="M143 -426v41q58 -16 112.5 -18t101.5 10.5t75.5 49t28.5 93.5q0 23 -5.5 40.5t-12.5 29t-22.5 19.5t-26.5 11.5t-34 5.5t-35 2t-39.5 -0.5t-39.5 -0.5l37 155h41l-29 -116q37 0 59 -1.5t54 -9t50.5 -22t32 -43.5t13.5 -70q0 -68 -33 -113t-87 -62t-115.5 -17t-125.5 16z
" />
    <glyph glyph-name="onesuperior" unicode="&#xb9;" horiz-adv-x="655" 
d="M492 1434h20v-861h-27v834l-333 -154l-9 21z" />
    <glyph glyph-name="ordmasculine" unicode="&#xba;" horiz-adv-x="811" 
d="M406 948q96 0 167.5 67.5t71.5 180.5t-71.5 180.5t-167.5 67.5q-95 0 -167.5 -67.5t-72.5 -180.5t72.5 -180.5t167.5 -67.5zM222 1389q79 73 184 73t183.5 -73t78.5 -193q0 -119 -79 -192.5t-183 -73.5t-183.5 73.5t-79.5 192.5q0 120 79 193z" />
    <glyph glyph-name="guillemotright" unicode="&#xbb;" horiz-adv-x="890" 
d="M748 512l-248 -430h-49l247 430l-247 430h49zM440 512l-247 -430h-50l248 430l-248 430h50z" />
    <glyph glyph-name="onequarter" unicode="&#xbc;" horiz-adv-x="1728" 
d="M473 0l574 1434h34l-573 -1434h-35zM492 1434h20v-861h-27v834l-333 -154l-9 21zM1366 860h20v-577h197v-25h-197v-258h-26v258h-535v18zM866 283h494v534z" />
    <glyph glyph-name="onehalf" unicode="&#xbd;" horiz-adv-x="1767" 
d="M473 0l574 1434h34l-573 -1434h-35zM492 1434h20v-861h-27v834l-333 -154l-9 21zM1004 25l309 280q94 86 139.5 140t59.5 92t14 92q0 114 -73 166.5t-189 52.5q-73 0 -127 -24.5t-82 -66t-41 -86.5t-13 -96h-28q0 42 8.5 82t30 79.5t53.5 69t82 48t113 18.5
q131 0 212.5 -60.5t81.5 -180.5q0 -86 -43.5 -150.5t-183.5 -191.5l-291 -264h586v-25h-618v25z" />
    <glyph glyph-name="threequarters" unicode="&#xbe;" horiz-adv-x="1918" 
d="M383 1001v23h104q102 0 150.5 48.5t48.5 150.5q0 106 -70 156.5t-184 50.5q-74 0 -124.5 -20.5t-76 -57.5t-35.5 -77.5t-10 -92.5h-28q0 42 7.5 79.5t26.5 73.5t49.5 61.5t79 41.5t111.5 16q128 0 205.5 -58t77.5 -171q0 -169 -127 -209q176 -37 176 -203
q0 -119 -87.5 -180.5t-219.5 -61.5q-78 0 -139.5 23.5t-98 63t-55.5 87t-19 99.5h29q0 -49 16.5 -92t49.5 -78.5t90 -56.5t131 -21q55 0 102.5 12t87 36.5t62 68t22.5 102.5q0 186 -248 186h-104zM664 0l573 1434h35l-574 -1434h-34zM1556 862h21v-579h197v-25h-197v-258
h-27v258h-534v18zM1057 283h493v534z" />
    <glyph glyph-name="questiondown" unicode="&#xbf;" horiz-adv-x="1236" 
d="M719 975q0 -37 -26 -62.5t-64 -25.5q-37 0 -62.5 25.5t-25.5 62.5q0 38 25.5 64t62.5 26q38 0 64 -26t26 -64zM653 614v-86q0 -49 -4.5 -78t-13 -52.5t-32.5 -45.5t-52 -42.5t-83 -56.5q-7 -4 -11 -7q-7 -5 -33 -22t-34 -22.5t-30 -22.5t-30 -27.5t-24 -30t-22.5 -38.5
t-15 -44.5t-11.5 -55.5t-3 -65q0 -72 20 -125t52 -83.5t80 -48.5t94.5 -24t105.5 -6q67 0 122 11t93.5 30t67.5 48t47 61.5t28.5 73.5t14.5 80.5t4 87.5h49q0 -71 -10.5 -130t-39 -117t-74.5 -97.5t-122.5 -64t-177.5 -24.5q-403 0 -403 326q0 36 4 68t9.5 57t16.5 48.5
t20.5 40.5t26 34.5t28 28.5t32 26t32.5 22.5t34.5 22t33.5 21.5q46 30 64.5 42.5t43 33t31.5 32t16 33.5t10 44t1 58v86h45z" />
    <glyph glyph-name="Agrave" unicode="&#xc0;" horiz-adv-x="1560" 
d="M797 1565h-39l-127 319h43zM758 1434h45l655 -1434h-45l-194 426h-877l-195 -426h-45zM360 467h840l-420 917z" />
    <glyph glyph-name="Aacute" unicode="&#xc1;" horiz-adv-x="1560" 
d="M770 1565l123 319h43l-127 -319h-39zM758 1434h45l655 -1434h-45l-194 426h-877l-195 -426h-45zM360 467h840l-420 917z" />
    <glyph glyph-name="Acircumflex" unicode="&#xc2;" horiz-adv-x="1560" 
d="M496 1585l268 279h33l268 -279h-53l-232 238l-231 -238h-53zM758 1434h45l655 -1434h-45l-194 426h-877l-195 -426h-45zM360 467h840l-420 917z" />
    <glyph glyph-name="Atilde" unicode="&#xc3;" horiz-adv-x="1560" 
d="M786 1675q29 -12 41.5 -16.5t34 -12.5t30.5 -9t25 -3.5t23 1t19.5 8t19.5 14t17.5 22.5t19.5 30t20 40l33 -12q-19 -43 -37.5 -71.5t-40.5 -43.5t-42.5 -21t-50 -1.5t-56 13t-68.5 25.5q-102 40 -135 41q-48 2 -81 -51q-15 -24 -32 -63l-34 12q22 51 46 81t47 44t57 12
t64 -10.5t80 -28.5zM758 1434h45l655 -1434h-45l-194 426h-877l-195 -426h-45zM360 467h840l-420 917z" />
    <glyph glyph-name="Adieresis" unicode="&#xc4;" horiz-adv-x="1560" 
d="M498 1688q0 37 26 62.5t64 25.5q37 0 62.5 -25.5t25.5 -62.5q0 -38 -25.5 -64.5t-62.5 -26.5q-38 0 -64 26.5t-26 64.5zM887 1688q0 37 26 62.5t64 25.5q37 0 62.5 -25.5t25.5 -62.5q0 -38 -25.5 -64.5t-62.5 -26.5q-38 0 -64 26.5t-26 64.5zM758 1434h45l655 -1434h-45
l-194 426h-877l-195 -426h-45zM360 467h840l-420 917z" />
    <glyph glyph-name="Aring" unicode="&#xc5;" horiz-adv-x="1560" 
d="M631 1586q-62 62 -62 149t62 149t149 62q86 0 148.5 -62.5t62.5 -148.5t-62.5 -148.5t-148.5 -62.5q-87 0 -149 62zM608 1735q0 -67 52 -119.5t120 -52.5q66 0 119 52.5t53 119.5q0 66 -53 119t-119 53q-67 0 -119.5 -53t-52.5 -119zM758 1434h45l655 -1434h-45l-194 426
h-877l-195 -426h-45zM360 467h840l-420 917z" />
    <glyph glyph-name="AE" unicode="&#xc6;" horiz-adv-x="2181" 
d="M758 1434h1280v-41h-903v-619h841v-41h-841v-692h903v-41h-948v426h-748l-195 -426h-45zM360 467h730v926h-306z" />
    <glyph glyph-name="Ccedilla" unicode="&#xc7;" horiz-adv-x="1714" 
d="M286 1011q-53 -134 -53 -294t53 -293.5t143.5 -220.5t208.5 -135t249 -48q141 0 258 44t189 113t111.5 150t39.5 160h45q0 -67 -25.5 -137t-79.5 -136.5t-128 -118.5t-181 -83.5t-229 -31.5h-37l-21 -84q37 0 59 -1.5t54 -9t50.5 -22t32 -43.5t13.5 -70q0 -68 -33 -113
t-87 -62t-115 -17t-125 16v41q58 -16 112 -18t101 10.5t75.5 49t28.5 93.5q0 23 -5.5 40.5t-12.5 29t-22.5 19.5t-26.5 11.5t-34 5.5t-35 2t-39.5 -0.5t-39.5 -0.5l31 127q-130 13 -243.5 70t-199 149t-135 225t-49.5 289q0 167 56.5 307t153 233.5t224 145t269.5 51.5
q122 0 229 -32t181 -84t128 -118.5t79.5 -136.5t25.5 -137h-45q0 79 -39.5 160t-111.5 150t-189 113t-258 44q-131 0 -249 -47.5t-208.5 -134.5t-143.5 -220z" />
    <glyph glyph-name="Egrave" unicode="&#xc8;" horiz-adv-x="1316" 
d="M741 1565h-39l-127 319h43zM225 1434h949v-41h-904v-619h842v-41h-842v-692h904v-41h-949v1434z" />
    <glyph glyph-name="Eacute" unicode="&#xc9;" horiz-adv-x="1316" 
d="M698 1565l123 319h43l-127 -319h-39zM225 1434h949v-41h-904v-619h842v-41h-842v-692h904v-41h-949v1434z" />
    <glyph glyph-name="Ecircumflex" unicode="&#xca;" horiz-adv-x="1316" 
d="M416 1585l268 279h33l268 -279h-53l-232 238l-231 -238h-53zM225 1434h949v-41h-904v-619h842v-41h-842v-692h904v-41h-949v1434z" />
    <glyph glyph-name="Edieresis" unicode="&#xcb;" horiz-adv-x="1316" 
d="M416 1688q0 37 26 62.5t64 25.5q37 0 62.5 -25.5t25.5 -62.5q0 -38 -25.5 -64.5t-62.5 -26.5q-38 0 -64 26.5t-26 64.5zM805 1688q0 37 26 62.5t64 25.5q37 0 62.5 -25.5t25.5 -62.5q0 -38 -25.5 -64.5t-62.5 -26.5q-38 0 -64 26.5t-26 64.5zM225 1434h949v-41h-904v-619
h842v-41h-842v-692h904v-41h-949v1434z" />
    <glyph glyph-name="Igrave" unicode="&#xcc;" horiz-adv-x="495" 
d="M258 1565h-39l-127 319h43zM225 1434h45v-1434h-45v1434z" />
    <glyph glyph-name="Iacute" unicode="&#xcd;" horiz-adv-x="495" 
d="M238 1565l122 319h43l-127 -319h-38zM225 1434h45v-1434h-45v1434z" />
    <glyph glyph-name="Icircumflex" unicode="&#xce;" horiz-adv-x="495" 
d="M-37 1585l268 279h33l268 -279h-53l-231 238l-232 -238h-53zM225 1434h45v-1434h-45v1434z" />
    <glyph glyph-name="Idieresis" unicode="&#xcf;" horiz-adv-x="495" 
d="M-37 1688q0 37 26 62.5t64 25.5q37 0 62.5 -25.5t25.5 -62.5q0 -38 -25.5 -64.5t-62.5 -26.5q-38 0 -64 26.5t-26 64.5zM352 1688q0 37 26 62.5t64 25.5q37 0 62.5 -25.5t25.5 -62.5q0 -38 -25.5 -64.5t-62.5 -26.5q-38 0 -64 26.5t-26 64.5zM225 1434h45v-1434h-45v1434
z" />
    <glyph glyph-name="Eth" unicode="&#xd0;" horiz-adv-x="1665" 
d="M-41 737h266v697h529q110 0 215.5 -29.5t198 -90t162.5 -144.5t110.5 -201t40.5 -252t-40.5 -252t-110.5 -201t-162.5 -144.5t-198 -90t-215.5 -29.5h-529v696h-266v41zM270 37h484q130 0 250 45t216 128t154 214.5t58 292.5t-58 292.5t-154 214.5t-216 128t-250 45h-484
v-660h467v-41h-467v-659z" />
    <glyph glyph-name="Ntilde" unicode="&#xd1;" horiz-adv-x="1746" 
d="M881 1675q101 -40 132 -42q46 -2 80 49q17 25 37 67l33 -12q-19 -43 -37.5 -71.5t-40.5 -43.5t-42.5 -21t-50 -1.5t-56 13t-68.5 25.5q-29 12 -40.5 16t-34 12t-31 9.5t-25.5 4t-23.5 -1t-19.5 -8t-19.5 -14t-17 -22t-18.5 -30t-18 -39.5l-35 12q18 42 37 70.5t41 43
t42.5 20.5t50.5 1.5t56.5 -13t67.5 -24.5zM225 1434h45l1207 -1368v1368h45v-1434h-45l-1207 1368v-1368h-45v1434z" />
    <glyph glyph-name="Ograve" unicode="&#xd2;" horiz-adv-x="1820" 
d="M932 1565h-39l-127 319h43zM225 463q-41 119 -41 254t40.5 254t110.5 206t162 150.5t197.5 95t214.5 31.5q110 0 215.5 -31.5t198 -95t162.5 -150.5t110.5 -206t40.5 -254t-40.5 -254t-110.5 -206t-162.5 -150.5t-198 -95t-215.5 -31.5q-109 0 -214.5 31.5t-197.5 95
t-162 150.5t-110 206zM1159 1365q-121 48 -250 48t-249.5 -48t-216 -134.5t-153 -220t-57.5 -293.5q0 -128 37.5 -241t102.5 -195t151 -142t184.5 -89.5t200.5 -29.5q129 0 249.5 48t216.5 134.5t154 221t58 293.5t-58 293t-154 220.5t-216 134.5z" />
    <glyph glyph-name="Oacute" unicode="&#xd3;" horiz-adv-x="1820" 
d="M889 1565l123 319h43l-127 -319h-39zM225 463q-41 119 -41 254t40.5 254t110.5 206t162 150.5t197.5 95t214.5 31.5q110 0 215.5 -31.5t198 -95t162.5 -150.5t110.5 -206t40.5 -254t-40.5 -254t-110.5 -206t-162.5 -150.5t-198 -95t-215.5 -31.5q-109 0 -214.5 31.5
t-197.5 95t-162 150.5t-110 206zM1159 1365q-121 48 -250 48t-249.5 -48t-216 -134.5t-153 -220t-57.5 -293.5q0 -128 37.5 -241t102.5 -195t151 -142t184.5 -89.5t200.5 -29.5q129 0 249.5 48t216.5 134.5t154 221t58 293.5t-58 293t-154 220.5t-216 134.5z" />
    <glyph glyph-name="Ocircumflex" unicode="&#xd4;" horiz-adv-x="1820" 
d="M627 1585l268 279h33l268 -279h-53l-232 238l-231 -238h-53zM225 463q-41 119 -41 254t40.5 254t110.5 206t162 150.5t197.5 95t214.5 31.5q110 0 215.5 -31.5t198 -95t162.5 -150.5t110.5 -206t40.5 -254t-40.5 -254t-110.5 -206t-162.5 -150.5t-198 -95t-215.5 -31.5
q-109 0 -214.5 31.5t-197.5 95t-162 150.5t-110 206zM1159 1365q-121 48 -250 48t-249.5 -48t-216 -134.5t-153 -220t-57.5 -293.5q0 -128 37.5 -241t102.5 -195t151 -142t184.5 -89.5t200.5 -29.5q129 0 249.5 48t216.5 134.5t154 221t58 293.5t-58 293t-154 220.5
t-216 134.5z" />
    <glyph glyph-name="Otilde" unicode="&#xd5;" horiz-adv-x="1820" 
d="M918 1675q101 -40 132 -42q46 -2 80 49q17 25 37 67l33 -12q-19 -43 -37.5 -71.5t-40.5 -43.5t-42.5 -21t-50 -1.5t-56 13t-68.5 25.5q-102 40 -135 41q-48 2 -81 -51q-15 -24 -32 -63l-34 12q18 42 37 70.5t41 43t42.5 20.5t50.5 1.5t56.5 -13t67.5 -24.5zM225 463
q-41 119 -41 254t40.5 254t110.5 206t162 150.5t197.5 95t214.5 31.5q110 0 215.5 -31.5t198 -95t162.5 -150.5t110.5 -206t40.5 -254t-40.5 -254t-110.5 -206t-162.5 -150.5t-198 -95t-215.5 -31.5q-109 0 -214.5 31.5t-197.5 95t-162 150.5t-110 206zM1159 1365
q-121 48 -250 48t-249.5 -48t-216 -134.5t-153 -220t-57.5 -293.5q0 -128 37.5 -241t102.5 -195t151 -142t184.5 -89.5t200.5 -29.5q129 0 249.5 48t216.5 134.5t154 221t58 293.5t-58 293t-154 220.5t-216 134.5z" />
    <glyph glyph-name="Odieresis" unicode="&#xd6;" horiz-adv-x="1820" 
d="M627 1688q0 37 26 62.5t64 25.5q37 0 62.5 -25.5t25.5 -62.5q0 -38 -25.5 -64.5t-62.5 -26.5q-38 0 -64 26.5t-26 64.5zM1016 1688q0 37 26 62.5t64 25.5q37 0 62.5 -25.5t25.5 -62.5q0 -38 -25.5 -64.5t-62.5 -26.5q-38 0 -64 26.5t-26 64.5zM225 463q-41 119 -41 254
t40.5 254t110.5 206t162 150.5t197.5 95t214.5 31.5q110 0 215.5 -31.5t198 -95t162.5 -150.5t110.5 -206t40.5 -254t-40.5 -254t-110.5 -206t-162.5 -150.5t-198 -95t-215.5 -31.5q-109 0 -214.5 31.5t-197.5 95t-162 150.5t-110 206zM1159 1365q-121 48 -250 48
t-249.5 -48t-216 -134.5t-153 -220t-57.5 -293.5q0 -128 37.5 -241t102.5 -195t151 -142t184.5 -89.5t200.5 -29.5q129 0 249.5 48t216.5 134.5t154 221t58 293.5t-58 293t-154 220.5t-216 134.5z" />
    <glyph glyph-name="multiply" unicode="&#xd7;" horiz-adv-x="890" 
d="M184 256l232 231l-232 232l31 31l231 -232l232 232l29 -31l-232 -232l232 -231l-29 -29l-232 232l-231 -232z" />
    <glyph glyph-name="Oslash" unicode="&#xd8;" horiz-adv-x="1820" 
d="M602 -205l70 223q-102 35 -189.5 98t-154.5 150t-105.5 203.5t-38.5 247.5q0 135 40.5 254t110.5 206t162 150.5t197.5 95t214.5 31.5q95 0 205 -29l68 213h35l-70 -223q138 -46 246.5 -139.5t175.5 -239t67 -319.5q0 -135 -40.5 -254t-110.5 -206t-162.5 -150.5
t-198 -95t-215.5 -31.5q-98 0 -204 28l-68 -213h-35zM909 1413q-129 0 -249.5 -48t-216 -134.5t-153 -220t-57.5 -293.5q0 -125 35 -234.5t97 -191t143 -140.5t176 -92l418 1325q-101 29 -193 29zM717 49q101 -29 192 -29q129 0 249.5 48t216.5 134.5t154 221t58 293.5
q0 125 -35 234.5t-97.5 191.5t-143.5 141t-176 92z" />
    <glyph glyph-name="Ugrave" unicode="&#xd9;" horiz-adv-x="1595" 
d="M840 1565h-39l-127 319h43zM1325 1434h45v-840q0 -310 -151.5 -462t-432.5 -152q-561 0 -561 614v840h45v-840q0 -295 128.5 -434.5t387.5 -139.5q262 0 400.5 140.5t138.5 433.5v840z" />
    <glyph glyph-name="Uacute" unicode="&#xda;" horiz-adv-x="1595" 
d="M776 1565l123 319h43l-127 -319h-39zM1325 1434h45v-840q0 -310 -151.5 -462t-432.5 -152q-561 0 -561 614v840h45v-840q0 -295 128.5 -434.5t387.5 -139.5q262 0 400.5 140.5t138.5 433.5v840z" />
    <glyph glyph-name="Ucircumflex" unicode="&#xdb;" horiz-adv-x="1595" 
d="M514 1585l268 279h33l268 -279h-53l-231 238l-232 -238h-53zM1325 1434h45v-840q0 -310 -151.5 -462t-432.5 -152q-561 0 -561 614v840h45v-840q0 -295 128.5 -434.5t387.5 -139.5q262 0 400.5 140.5t138.5 433.5v840z" />
    <glyph glyph-name="Udieresis" unicode="&#xdc;" horiz-adv-x="1595" 
d="M514 1688q0 37 26 62.5t64 25.5q37 0 62.5 -25.5t25.5 -62.5q0 -38 -25.5 -64.5t-62.5 -26.5q-38 0 -64 26.5t-26 64.5zM903 1688q0 37 26 62.5t64 25.5q37 0 62.5 -25.5t25.5 -62.5q0 -38 -25.5 -64.5t-62.5 -26.5q-38 0 -64 26.5t-26 64.5zM1325 1434h45v-840
q0 -310 -151.5 -462t-432.5 -152q-561 0 -561 614v840h45v-840q0 -295 128.5 -434.5t387.5 -139.5q262 0 400.5 140.5t138.5 433.5v840z" />
    <glyph glyph-name="Yacute" unicode="&#xdd;" horiz-adv-x="1478" 
d="M739 1565l123 319h43l-127 -319h-39zM717 430l-615 1004h54l583 -953l584 953h53l-614 -1004v-430h-45v430z" />
    <glyph glyph-name="Thorn" unicode="&#xde;" horiz-adv-x="1480" 
d="M815 1188q26 0 58 -3.5t80 -16t93 -32.5t91.5 -56.5t80.5 -84t56 -119.5t22 -159t-22 -159t-56 -119.5t-80.5 -84t-91.5 -56.5t-93 -32.5t-80 -16t-58 -3.5h-545v-246h-45v1434h45v-246h545zM270 283h545q21 0 47.5 2.5t70 13t84 28t83.5 51t74.5 77t52 111.5t20.5 151
q0 82 -20.5 150t-52 112t-74.5 77t-83.5 50.5t-84 28.5t-70 13.5t-47.5 2.5h-545v-868z" />
    <glyph glyph-name="germandbls" unicode="&#xdf;" horiz-adv-x="1339" 
d="M164 1001q0 70 12.5 132t45 122.5t83 103t131.5 69t185 26.5q139 0 243.5 -40.5t167 -128t62.5 -212.5q0 -282 -215 -350q297 -60 297 -340q0 -102 -42.5 -180t-118.5 -125.5t-175 -71.5t-219 -24v36q108 0 197.5 20t162 62t113.5 114.5t41 170.5q0 84 -31 145.5t-88 98
t-132 54t-169 17.5h-92v37h92q169 0 253.5 82t84.5 252q0 91 -34 159t-94 108t-136 59.5t-168 19.5q-416 0 -416 -416v-1001h-41v1001z" />
    <glyph glyph-name="agrave" unicode="&#xe0;" horiz-adv-x="1230" 
d="M698 1155h-39l-127 320h43zM264 1024h332q101 0 172.5 -21.5t113 -56t65.5 -91.5t31 -113.5t7 -137.5v-348q0 -64 5.5 -100.5t24.5 -66t55.5 -41t96.5 -11.5h23v-37h-23q-133 1 -178 53t-45 197q-39 -120 -144.5 -195t-264.5 -75q-96 0 -161 12.5t-114.5 44t-72.5 88
t-23 141.5q0 138 78.5 192t251.5 54h450v92q0 54 -2.5 92t-10.5 81t-22.5 72t-40.5 57t-62.5 44.5t-89 26.5t-120.5 10h-332v37zM944 475h-450q-157 0 -221 -42.5t-64 -166.5q0 -63 13.5 -107.5t37.5 -72.5t66 -43.5t90.5 -21t118.5 -5.5q95 0 174 31t129.5 82.5t78 116
t27.5 133.5v96z" />
    <glyph glyph-name="aacute" unicode="&#xe1;" horiz-adv-x="1230" 
d="M532 1155l123 320h43l-127 -320h-39zM264 1024h332q101 0 172.5 -21.5t113 -56t65.5 -91.5t31 -113.5t7 -137.5v-348q0 -64 5.5 -100.5t24.5 -66t55.5 -41t96.5 -11.5h23v-37h-23q-133 1 -178 53t-45 197q-39 -120 -144.5 -195t-264.5 -75q-96 0 -161 12.5t-114.5 44
t-72.5 88t-23 141.5q0 138 78.5 192t251.5 54h450v92q0 54 -2.5 92t-10.5 81t-22.5 72t-40.5 57t-62.5 44.5t-89 26.5t-120.5 10h-332v37zM944 475h-450q-157 0 -221 -42.5t-64 -166.5q0 -63 13.5 -107.5t37.5 -72.5t66 -43.5t90.5 -21t118.5 -5.5q95 0 174 31t129.5 82.5
t78 116t27.5 133.5v96z" />
    <glyph glyph-name="acircumflex" unicode="&#xe2;" horiz-adv-x="1230" 
d="M332 1176l268 278h33l268 -278h-53l-232 237l-231 -237h-53zM264 1024h332q101 0 172.5 -21.5t113 -56t65.5 -91.5t31 -113.5t7 -137.5v-348q0 -64 5.5 -100.5t24.5 -66t55.5 -41t96.5 -11.5h23v-37h-23q-133 1 -178 53t-45 197q-39 -120 -144.5 -195t-264.5 -75
q-96 0 -161 12.5t-114.5 44t-72.5 88t-23 141.5q0 138 78.5 192t251.5 54h450v92q0 54 -2.5 92t-10.5 81t-22.5 72t-40.5 57t-62.5 44.5t-89 26.5t-120.5 10h-332v37zM944 475h-450q-157 0 -221 -42.5t-64 -166.5q0 -63 13.5 -107.5t37.5 -72.5t66 -43.5t90.5 -21
t118.5 -5.5q95 0 174 31t129.5 82.5t78 116t27.5 133.5v96z" />
    <glyph glyph-name="atilde" unicode="&#xe3;" horiz-adv-x="1230" 
d="M623 1266q101 -41 132 -42q46 -2 80 48q17 25 37 67l33 -12q-23 -51 -46.5 -81.5t-47 -44.5t-57 -12t-64 11t-80.5 29q-28 11 -40.5 16t-34.5 12.5t-31 9t-25.5 3.5t-24 -1.5t-19.5 -8t-19.5 -14t-17.5 -22t-18 -30t-18 -39.5l-34 12q22 51 46 81t47.5 44t57 12.5
t64.5 -10.5t80 -28zM264 1024h332q101 0 172.5 -21.5t113 -56t65.5 -91.5t31 -113.5t7 -137.5v-348q0 -64 5.5 -100.5t24.5 -66t55.5 -41t96.5 -11.5h23v-37h-23q-133 1 -178 53t-45 197q-39 -120 -144.5 -195t-264.5 -75q-96 0 -161 12.5t-114.5 44t-72.5 88t-23 141.5
q0 138 78.5 192t251.5 54h450v92q0 54 -2.5 92t-10.5 81t-22.5 72t-40.5 57t-62.5 44.5t-89 26.5t-120.5 10h-332v37zM944 475h-450q-157 0 -221 -42.5t-64 -166.5q0 -63 13.5 -107.5t37.5 -72.5t66 -43.5t90.5 -21t118.5 -5.5q95 0 174 31t129.5 82.5t78 116t27.5 133.5v96
z" />
    <glyph glyph-name="adieresis" unicode="&#xe4;" horiz-adv-x="1230" 
d="M332 1278q0 37 26 62.5t64 25.5q37 0 62.5 -25.5t25.5 -62.5q0 -38 -25.5 -64t-62.5 -26q-38 0 -64 26t-26 64zM721 1278q0 37 26 62.5t64 25.5q37 0 62.5 -25.5t25.5 -62.5q0 -38 -25.5 -64t-62.5 -26q-38 0 -64 26t-26 64zM264 1024h332q101 0 172.5 -21.5t113 -56
t65.5 -91.5t31 -113.5t7 -137.5v-348q0 -64 5.5 -100.5t24.5 -66t55.5 -41t96.5 -11.5h23v-37h-23q-133 1 -178 53t-45 197q-39 -120 -144.5 -195t-264.5 -75q-96 0 -161 12.5t-114.5 44t-72.5 88t-23 141.5q0 138 78.5 192t251.5 54h450v92q0 54 -2.5 92t-10.5 81t-22.5 72
t-40.5 57t-62.5 44.5t-89 26.5t-120.5 10h-332v37zM944 475h-450q-157 0 -221 -42.5t-64 -166.5q0 -63 13.5 -107.5t37.5 -72.5t66 -43.5t90.5 -21t118.5 -5.5q95 0 174 31t129.5 82.5t78 116t27.5 133.5v96z" />
    <glyph glyph-name="aring" unicode="&#xe5;" horiz-adv-x="1230" 
d="M468 1176q-62 62 -62 149t61.5 149t148.5 62q86 0 148.5 -62.5t62.5 -148.5t-62.5 -148.5t-148.5 -62.5q-87 0 -148 62zM444 1325q0 -67 52 -119.5t120 -52.5q66 0 119 52.5t53 119.5q0 66 -53 119t-119 53q-67 0 -119.5 -53t-52.5 -119zM264 1024h332q101 0 172.5 -21.5
t113 -56t65.5 -91.5t31 -113.5t7 -137.5v-348q0 -64 5.5 -100.5t24.5 -66t55.5 -41t96.5 -11.5h23v-37h-23q-133 1 -178 53t-45 197q-39 -120 -144.5 -195t-264.5 -75q-96 0 -161 12.5t-114.5 44t-72.5 88t-23 141.5q0 138 78.5 192t251.5 54h450v92q0 54 -2.5 92t-10.5 81
t-22.5 72t-40.5 57t-62.5 44.5t-89 26.5t-120.5 10h-332v37zM944 475h-450q-157 0 -221 -42.5t-64 -166.5q0 -63 13.5 -107.5t37.5 -72.5t66 -43.5t90.5 -21t118.5 -5.5q95 0 174 31t129.5 82.5t78 116t27.5 133.5v96z" />
    <glyph glyph-name="ae" unicode="&#xe6;" horiz-adv-x="2091" 
d="M264 1024h332q105 0 179 -21.5t116 -63t62.5 -91.5t27.5 -119q57 148 183 231.5t278 83.5q216 0 350.5 -144.5t134.5 -385.5h-940q0 -115 37 -211t100.5 -157.5t145 -95.5t172.5 -34q94 0 176 29.5t135 75t83 97t30 97.5h41q0 -53 -33.5 -111t-91.5 -108.5t-148 -83
t-192 -32.5q-156 0 -282.5 85.5t-182.5 237.5q-28 -137 -145.5 -230t-296.5 -93q-96 0 -161 12.5t-114.5 44t-72.5 88t-23 141.5q0 138 78.5 192t251.5 54h448q0 37 2 53v60q0 49 -2.5 84.5t-10.5 76t-22.5 68t-40.5 54.5t-62 43t-89 26t-121 10h-332v37zM1886 551
q-10 211 -131.5 334t-312.5 123q-180 0 -310.5 -123.5t-142.5 -333.5h897zM944 475h-450q-157 0 -221 -42.5t-64 -166.5q0 -63 13.5 -107.5t37.5 -72.5t66 -43.5t90.5 -21t118.5 -5.5q95 0 174 31t129.5 82.5t78 116t27.5 133.5v80v16z" />
    <glyph glyph-name="ccedilla" unicode="&#xe7;" 
d="M275 779q-66 -114 -66 -267t65.5 -267t175 -171.5t246.5 -57.5q97 0 177.5 30t130.5 77.5t77 103t27 109.5h41q0 -61 -30.5 -123t-85.5 -114.5t-143.5 -85.5t-193.5 -33l-26 -105q37 0 59 -1t54.5 -9t50 -22t31.5 -43t14 -70q0 -68 -33 -113t-87 -62t-115.5 -17
t-125.5 16v40q57 -16 112 -18t102 11t75.5 49.5t28.5 93.5q0 20 -3.5 36.5t-11.5 27.5t-16.5 19t-23.5 12.5t-26.5 7.5t-31 3.5t-32.5 0.5t-35.5 -0.5t-34.5 -0.5l34 146q-103 7 -192.5 46.5t-156 106t-104.5 164t-38 213.5q0 162 72 284.5t191.5 185t268.5 62.5
q105 0 193.5 -33t143.5 -85.5t85.5 -114.5t30.5 -123h-41q0 54 -27 109.5t-77 103t-130.5 77.5t-177.5 30q-137 0 -246.5 -57.5t-174.5 -171.5z" />
    <glyph glyph-name="egrave" unicode="&#xe8;" 
d="M678 1155h-39l-127 320h43zM664 16q94 0 176 29.5t134.5 75t82.5 97t30 97.5h41q0 -53 -33 -111t-91 -108.5t-148 -83t-192 -32.5q-99 0 -189 37t-159.5 103.5t-110.5 168t-41 223.5t41 223.5t110.5 168t159.5 103.5t189 37q216 0 350.5 -144.5t134.5 -385.5h-940
q0 -115 37 -211t100.5 -157.5t145 -95.5t172.5 -34zM1108 551q-10 211 -131.5 334t-312.5 123q-180 0 -310.5 -123.5t-142.5 -333.5h897z" />
    <glyph glyph-name="eacute" unicode="&#xe9;" 
d="M655 1155l123 320h43l-127 -320h-39zM664 16q94 0 176 29.5t134.5 75t82.5 97t30 97.5h41q0 -53 -33 -111t-91 -108.5t-148 -83t-192 -32.5q-99 0 -189 37t-159.5 103.5t-110.5 168t-41 223.5t41 223.5t110.5 168t159.5 103.5t189 37q216 0 350.5 -144.5t134.5 -385.5
h-940q0 -115 37 -211t100.5 -157.5t145 -95.5t172.5 -34zM1108 551q-10 211 -131.5 334t-312.5 123q-180 0 -310.5 -123.5t-142.5 -333.5h897z" />
    <glyph glyph-name="ecircumflex" unicode="&#xea;" 
d="M373 1176l268 278h33l268 -278h-53l-232 237l-231 -237h-53zM664 16q94 0 176 29.5t134.5 75t82.5 97t30 97.5h41q0 -53 -33 -111t-91 -108.5t-148 -83t-192 -32.5q-99 0 -189 37t-159.5 103.5t-110.5 168t-41 223.5t41 223.5t110.5 168t159.5 103.5t189 37
q216 0 350.5 -144.5t134.5 -385.5h-940q0 -115 37 -211t100.5 -157.5t145 -95.5t172.5 -34zM1108 551q-10 211 -131.5 334t-312.5 123q-180 0 -310.5 -123.5t-142.5 -333.5h897z" />
    <glyph glyph-name="edieresis" unicode="&#xeb;" 
d="M373 1278q0 37 26 62.5t64 25.5q37 0 62.5 -25.5t25.5 -62.5q0 -38 -25.5 -64t-62.5 -26q-38 0 -64 26t-26 64zM762 1278q0 37 26 62.5t64 25.5q37 0 62.5 -25.5t25.5 -62.5q0 -38 -25.5 -64t-62.5 -26q-38 0 -64 26t-26 64zM664 16q94 0 176 29.5t134.5 75t82.5 97
t30 97.5h41q0 -53 -33 -111t-91 -108.5t-148 -83t-192 -32.5q-99 0 -189 37t-159.5 103.5t-110.5 168t-41 223.5t41 223.5t110.5 168t159.5 103.5t189 37q216 0 350.5 -144.5t134.5 -385.5h-940q0 -115 37 -211t100.5 -157.5t145 -95.5t172.5 -34zM1108 551
q-10 211 -131.5 334t-312.5 123q-180 0 -310.5 -123.5t-142.5 -333.5h897z" />
    <glyph glyph-name="igrave" unicode="&#xec;" horiz-adv-x="409" 
d="M215 1155h-39l-127 320h43zM184 1024h41v-1024h-41v1024z" />
    <glyph glyph-name="iacute" unicode="&#xed;" horiz-adv-x="409" 
d="M195 1155l122 320h43l-127 -320h-38zM184 1024h41v-1024h-41v1024z" />
    <glyph glyph-name="icircumflex" unicode="&#xee;" horiz-adv-x="409" 
d="M-80 1176l268 278h33l268 -278h-53l-231 237l-232 -237h-53zM184 1024h41v-1024h-41v1024z" />
    <glyph glyph-name="idieresis" unicode="&#xef;" horiz-adv-x="409" 
d="M-80 1278q0 37 26 62.5t64 25.5q37 0 62.5 -25.5t25.5 -62.5q0 -38 -25.5 -64t-62.5 -26q-38 0 -64 26t-26 64zM309 1278q0 37 26 62.5t64 25.5q37 0 62.5 -25.5t25.5 -62.5q0 -38 -25.5 -64t-62.5 -26q-38 0 -64 26t-26 64zM184 1024h41v-1024h-41v1024z" />
    <glyph glyph-name="eth" unicode="&#xf0;" 
d="M657 938q111 0 213 -51l-217 268h-309v33h283l-199 246h45l203 -246h364v-33h-338l302 -364q124 -134 124 -332q0 -109 -40.5 -201t-107 -152t-150.5 -93t-173 -33q-90 0 -174.5 33t-151 93t-107 152t-40.5 201t40.5 201t107 152t151 93t174.5 33zM657 16
q80 0 155.5 30.5t136.5 85t97.5 140t36.5 187.5t-36.5 187t-97.5 140t-136.5 85t-155.5 30q-109 0 -205 -50.5t-159.5 -153.5t-63.5 -238q0 -102 37 -187.5t97.5 -140t136.5 -85t157 -30.5z" />
    <glyph glyph-name="ntilde" unicode="&#xf1;" horiz-adv-x="1292" 
d="M653 1266q30 -12 41.5 -16.5t34 -12.5t30.5 -9.5t25 -3.5t23.5 1t19.5 8t19.5 14.5t17.5 22t19.5 29.5t19.5 40l33 -12q-23 -51 -46.5 -81.5t-47 -44.5t-57 -12t-64 11t-80.5 29q-28 11 -40.5 16t-34.5 12.5t-31 9t-25.5 3.5t-24 -1.5t-19.5 -8t-19.5 -14t-17.5 -22
t-18 -30t-18 -39.5l-35 12q22 51 46 81t47.5 44t57 12.5t64.5 -10.5t80 -28zM205 1024h41v-272q48 129 164.5 210.5t257.5 81.5q118 0 201.5 -30.5t130 -89t67 -131.5t20.5 -168v-625h-40v625q0 70 -10.5 125.5t-36.5 105t-68.5 82t-109 51.5t-154.5 19q-168 0 -295 -119.5
t-127 -284.5v-604h-41v1024z" />
    <glyph glyph-name="ograve" unicode="&#xf2;" horiz-adv-x="1376" 
d="M711 1155h-39l-127 320h43zM512 50q85 -34 176 -34t176.5 34t153 95.5t108.5 157t41 209.5t-41 209.5t-108.5 157t-153 95.5t-176.5 34t-176.5 -34t-153 -95.5t-108.5 -157t-41 -209.5t41 -209.5t108.5 -157t153.5 -95.5zM496 1007q93 37 192 37t192.5 -37t167.5 -103
t119 -168.5t45 -223.5t-45 -223.5t-119 -168.5t-167.5 -103t-192.5 -37t-192.5 37t-167.5 103t-119 168.5t-45 223.5t45 223.5t119 168.5t168 103z" />
    <glyph glyph-name="oacute" unicode="&#xf3;" horiz-adv-x="1376" 
d="M668 1155l123 320h43l-127 -320h-39zM512 50q85 -34 176 -34t176.5 34t153 95.5t108.5 157t41 209.5t-41 209.5t-108.5 157t-153 95.5t-176.5 34t-176.5 -34t-153 -95.5t-108.5 -157t-41 -209.5t41 -209.5t108.5 -157t153.5 -95.5zM496 1007q93 37 192 37t192.5 -37
t167.5 -103t119 -168.5t45 -223.5t-45 -223.5t-119 -168.5t-167.5 -103t-192.5 -37t-192.5 37t-167.5 103t-119 168.5t-45 223.5t45 223.5t119 168.5t168 103z" />
    <glyph glyph-name="ocircumflex" unicode="&#xf4;" horiz-adv-x="1376" 
d="M403 1176l269 278h33l268 -278h-53l-232 237l-231 -237h-54zM512 50q85 -34 176 -34t176.5 34t153 95.5t108.5 157t41 209.5t-41 209.5t-108.5 157t-153 95.5t-176.5 34t-176.5 -34t-153 -95.5t-108.5 -157t-41 -209.5t41 -209.5t108.5 -157t153.5 -95.5zM496 1007
q93 37 192 37t192.5 -37t167.5 -103t119 -168.5t45 -223.5t-45 -223.5t-119 -168.5t-167.5 -103t-192.5 -37t-192.5 37t-167.5 103t-119 168.5t-45 223.5t45 223.5t119 168.5t168 103z" />
    <glyph glyph-name="otilde" unicode="&#xf5;" horiz-adv-x="1376" 
d="M694 1266q30 -12 41.5 -16.5t34 -12.5t30.5 -9.5t25 -3.5t23.5 1t19.5 8t19.5 14.5t17.5 22t19.5 29.5t19.5 40l33 -12q-23 -51 -46.5 -81.5t-47 -44.5t-57 -12t-64 11t-80.5 29q-28 11 -40.5 16t-34.5 12.5t-31 9t-25.5 3.5t-24 -1.5t-19.5 -8t-19.5 -14t-17.5 -22
t-18 -30t-18 -39.5l-35 12q22 51 46 81t47.5 44t57 12.5t64.5 -10.5t80 -28zM512 50q85 -34 176 -34t176.5 34t153 95.5t108.5 157t41 209.5t-41 209.5t-108.5 157t-153 95.5t-176.5 34t-176.5 -34t-153 -95.5t-108.5 -157t-41 -209.5t41 -209.5t108.5 -157t153.5 -95.5z
M496 1007q93 37 192 37t192.5 -37t167.5 -103t119 -168.5t45 -223.5t-45 -223.5t-119 -168.5t-167.5 -103t-192.5 -37t-192.5 37t-167.5 103t-119 168.5t-45 223.5t45 223.5t119 168.5t168 103z" />
    <glyph glyph-name="odieresis" unicode="&#xf6;" horiz-adv-x="1376" 
d="M406 1278q0 37 26 62.5t64 25.5q37 0 62.5 -25.5t25.5 -62.5q0 -38 -25.5 -64t-62.5 -26q-38 0 -64 26t-26 64zM795 1278q0 37 26 62.5t64 25.5q37 0 62.5 -25.5t25.5 -62.5q0 -38 -25.5 -64t-62.5 -26q-38 0 -64 26t-26 64zM512 50q85 -34 176 -34t176.5 34t153 95.5
t108.5 157t41 209.5t-41 209.5t-108.5 157t-153 95.5t-176.5 34t-176.5 -34t-153 -95.5t-108.5 -157t-41 -209.5t41 -209.5t108.5 -157t153.5 -95.5zM496 1007q93 37 192 37t192.5 -37t167.5 -103t119 -168.5t45 -223.5t-45 -223.5t-119 -168.5t-167.5 -103t-192.5 -37
t-192.5 37t-167.5 103t-119 168.5t-45 223.5t45 223.5t119 168.5t168 103z" />
    <glyph glyph-name="divide" unicode="&#xf7;" horiz-adv-x="983" 
d="M399 956q0 37 26 62.5t64 25.5q37 0 63 -25.5t26 -62.5q0 -38 -26 -64t-63 -26q-38 0 -64 26t-26 64zM184 532h615v-40h-615v40zM399 70q0 37 26 62.5t64 25.5q37 0 63 -25.5t26 -62.5q0 -38 -26 -64t-63 -26q-38 0 -64 26t-26 64z" />
    <glyph glyph-name="oslash" unicode="&#xf8;" horiz-adv-x="1376" 
d="M512 50q85 -34 176 -34t176.5 34t153 95.5t108.5 157t41 209.5t-41 209.5t-108.5 157t-153 95.5t-176.5 34t-176.5 -34t-153 -95.5t-108.5 -157t-41 -209.5t41 -209.5t108.5 -157t153.5 -95.5zM688 1044q65 0 143 -20l66 205h35l-70 -215q153 -54 251.5 -185.5
t98.5 -316.5q0 -121 -45 -223.5t-119 -168.5t-167.5 -103t-192.5 -37q-65 0 -143 20l-64 -205h-35l66 215q-153 54 -250.5 185.5t-97.5 316.5q0 121 45 223.5t119 168.5t167.5 103t192.5 37z" />
    <glyph glyph-name="ugrave" unicode="&#xf9;" horiz-adv-x="1333" 
d="M709 1155h-39l-127 320h43zM1292 37v-37h-32q-69 1 -110 12.5t-64.5 43.5t-31 77t-7.5 123v16q-48 -129 -164.5 -210.5t-257.5 -81.5q-118 0 -201.5 30.5t-130.5 89t-67.5 131.5t-20.5 168v625h41v-625q0 -70 10.5 -125.5t36.5 -105t68.5 -82t109 -51.5t154.5 -19
q168 0 295 119.5t127 284.5v604h40v-768q0 -44 1.5 -70.5t7.5 -54.5t17 -43t30 -28t48 -18t69 -5h32z" />
    <glyph glyph-name="uacute" unicode="&#xfa;" horiz-adv-x="1333" 
d="M625 1155l123 320h43l-127 -320h-39zM1292 37v-37h-32q-69 1 -110 12.5t-64.5 43.5t-31 77t-7.5 123v16q-48 -129 -164.5 -210.5t-257.5 -81.5q-118 0 -201.5 30.5t-130.5 89t-67.5 131.5t-20.5 168v625h41v-625q0 -70 10.5 -125.5t36.5 -105t68.5 -82t109 -51.5
t154.5 -19q168 0 295 119.5t127 284.5v604h40v-768q0 -44 1.5 -70.5t7.5 -54.5t17 -43t30 -28t48 -18t69 -5h32z" />
    <glyph glyph-name="ucircumflex" unicode="&#xfb;" horiz-adv-x="1333" 
d="M383 1176l268 278h33l268 -278h-53l-231 237l-232 -237h-53zM1292 37v-37h-32q-69 1 -110 12.5t-64.5 43.5t-31 77t-7.5 123v16q-48 -129 -164.5 -210.5t-257.5 -81.5q-118 0 -201.5 30.5t-130.5 89t-67.5 131.5t-20.5 168v625h41v-625q0 -70 10.5 -125.5t36.5 -105
t68.5 -82t109 -51.5t154.5 -19q168 0 295 119.5t127 284.5v604h40v-768q0 -44 1.5 -70.5t7.5 -54.5t17 -43t30 -28t48 -18t69 -5h32z" />
    <glyph glyph-name="udieresis" unicode="&#xfc;" horiz-adv-x="1333" 
d="M383 1278q0 37 26 62.5t64 25.5q37 0 62.5 -25.5t25.5 -62.5q0 -38 -25.5 -64t-62.5 -26q-38 0 -64 26t-26 64zM772 1278q0 37 26 62.5t64 25.5q37 0 62.5 -25.5t25.5 -62.5q0 -38 -25.5 -64t-62.5 -26q-38 0 -64 26t-26 64zM1292 37v-37h-32q-69 1 -110 12.5t-64.5 43.5
t-31 77t-7.5 123v16q-48 -129 -164.5 -210.5t-257.5 -81.5q-118 0 -201.5 30.5t-130.5 89t-67.5 131.5t-20.5 168v625h41v-625q0 -70 10.5 -125.5t36.5 -105t68.5 -82t109 -51.5t154.5 -19q168 0 295 119.5t127 284.5v604h40v-768q0 -44 1.5 -70.5t7.5 -54.5t17 -43t30 -28
t48 -18t69 -5h32z" />
    <glyph glyph-name="yacute" unicode="&#xfd;" horiz-adv-x="1171" 
d="M586 1155l123 320h43l-127 -320h-39zM1069 1024l-459 -1044q-10 -22 -27 -62q-29 -68 -44 -99.5t-44.5 -78.5t-59 -67.5t-76.5 -43.5t-110 -31t-147 -8v41q54 0 99 4.5t80 10.5t64.5 19.5t50 25.5t40 33.5t31.5 38.5t26.5 46.5t23 50.5t24 58t26.5 62l11 20h-3l-471 1024
h43l449 -977l430 977h43z" />
    <glyph glyph-name="thorn" unicode="&#xfe;" horiz-adv-x="1374" 
d="M1067 896q143 -149 143 -384t-143.5 -383.5t-370.5 -148.5q-147 0 -273 78.5t-177 203.5v-672h-41v1844h41v-672q51 125 177 203.5t273 78.5q227 0 371 -148zM246 399q0 -107 66.5 -196.5t169.5 -138t214 -48.5q210 0 339.5 137t129.5 359t-129.5 359t-339.5 137
q-111 0 -214 -48.5t-169.5 -138t-66.5 -196.5v-226z" />
    <glyph glyph-name="ydieresis" unicode="&#xff;" horiz-adv-x="1171" 
d="M303 1278q0 37 26 62.5t64 25.5q37 0 62.5 -25.5t25.5 -62.5q0 -38 -25.5 -64t-62.5 -26q-38 0 -64 26t-26 64zM692 1278q0 37 26 62.5t64 25.5q37 0 62.5 -25.5t25.5 -62.5q0 -38 -25.5 -64t-62.5 -26q-38 0 -64 26t-26 64zM1069 1024l-459 -1044q-10 -22 -27 -62
q-29 -68 -44 -99.5t-44.5 -78.5t-59 -67.5t-76.5 -43.5t-110 -31t-147 -8v41q54 0 99 4.5t80 10.5t64.5 19.5t50 25.5t40 33.5t31.5 38.5t26.5 46.5t23 50.5t24 58t26.5 62l11 20h-3l-471 1024h43l449 -977l430 977h43z" />
    <glyph glyph-name="Amacron" unicode="&#x100;" horiz-adv-x="1560" 
d="M565 1659h430v-41h-430v41zM758 1434h45l655 -1434h-45l-194 426h-877l-195 -426h-45zM360 467h840l-420 917z" />
    <glyph glyph-name="amacron" unicode="&#x101;" horiz-adv-x="1230" 
d="M401 1249h430v-41h-430v41zM264 1024h332q101 0 172.5 -21.5t113 -56t65.5 -91.5t31 -113.5t7 -137.5v-348q0 -64 5.5 -100.5t24.5 -66t55.5 -41t96.5 -11.5h23v-37h-23q-133 1 -178 53t-45 197q-39 -120 -144.5 -195t-264.5 -75q-96 0 -161 12.5t-114.5 44t-72.5 88
t-23 141.5q0 138 78.5 192t251.5 54h450v92q0 54 -2.5 92t-10.5 81t-22.5 72t-40.5 57t-62.5 44.5t-89 26.5t-120.5 10h-332v37zM944 475h-450q-157 0 -221 -42.5t-64 -166.5q0 -63 13.5 -107.5t37.5 -72.5t66 -43.5t90.5 -21t118.5 -5.5q95 0 174 31t129.5 82.5t78 116
t27.5 133.5v96z" />
    <glyph glyph-name="Abreve" unicode="&#x102;" horiz-adv-x="1560" 
d="M498 1905h39q0 -136 66.5 -206.5t176.5 -70.5t177 70.5t67 206.5h39q0 -151 -75.5 -235.5t-207.5 -84.5q-131 0 -206.5 84.5t-75.5 235.5zM758 1434h45l655 -1434h-45l-194 426h-877l-195 -426h-45zM360 467h840l-420 917z" />
    <glyph glyph-name="abreve" unicode="&#x103;" horiz-adv-x="1230" 
d="M334 1495h39q0 -136 66.5 -206t176.5 -70q111 0 177.5 70t66.5 206h39q0 -151 -75.5 -235t-207.5 -84t-207 84t-75 235zM264 1024h332q101 0 172.5 -21.5t113 -56t65.5 -91.5t31 -113.5t7 -137.5v-348q0 -64 5.5 -100.5t24.5 -66t55.5 -41t96.5 -11.5h23v-37h-23
q-133 1 -178 53t-45 197q-39 -120 -144.5 -195t-264.5 -75q-96 0 -161 12.5t-114.5 44t-72.5 88t-23 141.5q0 138 78.5 192t251.5 54h450v92q0 54 -2.5 92t-10.5 81t-22.5 72t-40.5 57t-62.5 44.5t-89 26.5t-120.5 10h-332v37zM944 475h-450q-157 0 -221 -42.5t-64 -166.5
q0 -63 13.5 -107.5t37.5 -72.5t66 -43.5t90.5 -21t118.5 -5.5q95 0 174 31t129.5 82.5t78 116t27.5 133.5v96z" />
    <glyph glyph-name="Aogonek" unicode="&#x104;" horiz-adv-x="1560" 
d="M758 1434h45l655 -1434h-12q-6 -9 -23.5 -33t-23.5 -34t-19 -30.5t-18.5 -33.5t-12.5 -31.5t-9.5 -37t-2.5 -38.5q0 -52 28.5 -86t75.5 -46t102 -10t112 18v-41q-64 -16 -125.5 -16.5t-115.5 15t-87 58.5t-33 108q0 20 3 39.5t11 40t13 33.5t20 36.5t20.5 31.5t24.5 35
t23 32l-190 416h-877l-195 -426h-45zM360 467h840l-420 917z" />
    <glyph glyph-name="aogonek" unicode="&#x105;" horiz-adv-x="1230" 
d="M264 1024h332q101 0 172.5 -21.5t113 -56t65.5 -91.5t31 -113.5t7 -137.5v-348q0 -64 5.5 -100.5t24.5 -66t55.5 -41t96.5 -11.5h23v-37h-23q-128 0 -174 49q-3 -5 -15.5 -22t-15.5 -22t-13.5 -20.5t-14 -22t-11 -20.5t-10.5 -22.5t-8 -22t-7 -24.5t-3.5 -24t-1.5 -27
q0 -52 28.5 -86t75 -46.5t101.5 -10.5t112 18v-41q-64 -16 -125.5 -16.5t-115 15.5t-86.5 59t-33 108q0 30 5.5 56.5t22.5 58.5t24 44t36.5 53.5t32.5 45.5q-27 53 -27 170q-39 -120 -144.5 -195t-264.5 -75q-96 0 -161 12.5t-114.5 44t-72.5 88t-23 141.5q0 138 78.5 192
t251.5 54h450v92q0 54 -2.5 92t-10.5 81t-22.5 72t-40.5 57t-62.5 44.5t-89 26.5t-120.5 10h-332v37zM944 475h-450q-157 0 -221 -42.5t-64 -166.5q0 -63 13.5 -107.5t37.5 -72.5t66 -43.5t90.5 -21t118.5 -5.5q95 0 174 31t129.5 82.5t78 116t27.5 133.5v96z" />
    <glyph glyph-name="Cacute" unicode="&#x106;" horiz-adv-x="1714" 
d="M836 1565l122 319h43l-127 -319h-38zM286 1011q-53 -134 -53 -294t53 -293.5t143.5 -220.5t208.5 -135t249 -48q141 0 258 44t189 113t111.5 150t39.5 160h45q0 -67 -25.5 -137t-79.5 -136.5t-128 -118.5t-181 -83.5t-229 -31.5q-142 0 -269.5 51.5t-224 145t-153 233.5
t-56.5 307t56.5 307t153 233.5t224 145t269.5 51.5q122 0 229 -32t181 -84t128 -118.5t79.5 -136.5t25.5 -137h-45q0 79 -39.5 160t-111.5 150t-189 113t-258 44q-131 0 -249 -47.5t-208.5 -134.5t-143.5 -220z" />
    <glyph glyph-name="cacute" unicode="&#x107;" 
d="M635 1155l123 320h43l-127 -320h-39zM275 779q-66 -114 -66 -267t65.5 -267t175 -171.5t246.5 -57.5q97 0 177.5 30t130.5 77.5t77 103t27 109.5h41q0 -61 -30.5 -123t-85.5 -114.5t-143.5 -85.5t-193.5 -33q-149 0 -268.5 62.5t-191.5 185t-72 284.5t72 284.5t191.5 185
t268.5 62.5q105 0 193.5 -33t143.5 -85.5t85.5 -114.5t30.5 -123h-41q0 54 -27 109.5t-77 103t-130.5 77.5t-177.5 30q-137 0 -246.5 -57.5t-174.5 -171.5z" />
    <glyph glyph-name="Ccircumflex" unicode="&#x108;" horiz-adv-x="1714" 
d="M573 1585l269 279h32l269 -279h-53l-232 238l-231 -238h-54zM286 1011q-53 -134 -53 -294t53 -293.5t143.5 -220.5t208.5 -135t249 -48q141 0 258 44t189 113t111.5 150t39.5 160h45q0 -67 -25.5 -137t-79.5 -136.5t-128 -118.5t-181 -83.5t-229 -31.5
q-142 0 -269.5 51.5t-224 145t-153 233.5t-56.5 307t56.5 307t153 233.5t224 145t269.5 51.5q122 0 229 -32t181 -84t128 -118.5t79.5 -136.5t25.5 -137h-45q0 79 -39.5 160t-111.5 150t-189 113t-258 44q-131 0 -249 -47.5t-208.5 -134.5t-143.5 -220z" />
    <glyph glyph-name="ccircumflex" unicode="&#x109;" 
d="M373 1176l268 278h33l268 -278h-53l-232 237l-231 -237h-53zM275 779q-66 -114 -66 -267t65.5 -267t175 -171.5t246.5 -57.5q97 0 177.5 30t130.5 77.5t77 103t27 109.5h41q0 -61 -30.5 -123t-85.5 -114.5t-143.5 -85.5t-193.5 -33q-149 0 -268.5 62.5t-191.5 185
t-72 284.5t72 284.5t191.5 185t268.5 62.5q105 0 193.5 -33t143.5 -85.5t85.5 -114.5t30.5 -123h-41q0 54 -27 109.5t-77 103t-130.5 77.5t-177.5 30q-137 0 -246.5 -57.5t-174.5 -171.5z" />
    <glyph glyph-name="Cdotaccent" unicode="&#x10a;" horiz-adv-x="1714" 
d="M768 1688q0 37 26 62.5t64 25.5q37 0 62.5 -25.5t25.5 -62.5q0 -38 -25.5 -64.5t-62.5 -26.5q-38 0 -64 26.5t-26 64.5zM286 1011q-53 -134 -53 -294t53 -293.5t143.5 -220.5t208.5 -135t249 -48q141 0 258 44t189 113t111.5 150t39.5 160h45q0 -67 -25.5 -137
t-79.5 -136.5t-128 -118.5t-181 -83.5t-229 -31.5q-142 0 -269.5 51.5t-224 145t-153 233.5t-56.5 307t56.5 307t153 233.5t224 145t269.5 51.5q122 0 229 -32t181 -84t128 -118.5t79.5 -136.5t25.5 -137h-45q0 79 -39.5 160t-111.5 150t-189 113t-258 44q-131 0 -249 -47.5
t-208.5 -134.5t-143.5 -220z" />
    <glyph glyph-name="cdotaccent" unicode="&#x10b;" 
d="M567 1278q0 37 26 62.5t64 25.5q37 0 62.5 -25.5t25.5 -62.5q0 -38 -25.5 -64t-62.5 -26q-38 0 -64 26t-26 64zM275 779q-66 -114 -66 -267t65.5 -267t175 -171.5t246.5 -57.5q97 0 177.5 30t130.5 77.5t77 103t27 109.5h41q0 -61 -30.5 -123t-85.5 -114.5t-143.5 -85.5
t-193.5 -33q-149 0 -268.5 62.5t-191.5 185t-72 284.5t72 284.5t191.5 185t268.5 62.5q105 0 193.5 -33t143.5 -85.5t85.5 -114.5t30.5 -123h-41q0 54 -27 109.5t-77 103t-130.5 77.5t-177.5 30q-137 0 -246.5 -57.5t-174.5 -171.5z" />
    <glyph glyph-name="Ccaron" unicode="&#x10c;" horiz-adv-x="1714" 
d="M573 1843h54l231 -237l232 237h53l-269 -278h-32zM286 1011q-53 -134 -53 -294t53 -293.5t143.5 -220.5t208.5 -135t249 -48q141 0 258 44t189 113t111.5 150t39.5 160h45q0 -67 -25.5 -137t-79.5 -136.5t-128 -118.5t-181 -83.5t-229 -31.5q-142 0 -269.5 51.5t-224 145
t-153 233.5t-56.5 307t56.5 307t153 233.5t224 145t269.5 51.5q122 0 229 -32t181 -84t128 -118.5t79.5 -136.5t25.5 -137h-45q0 79 -39.5 160t-111.5 150t-189 113t-258 44q-131 0 -249 -47.5t-208.5 -134.5t-143.5 -220z" />
    <glyph glyph-name="ccaron" unicode="&#x10d;" 
d="M373 1434h53l231 -238l232 238h53l-268 -279h-33zM275 779q-66 -114 -66 -267t65.5 -267t175 -171.5t246.5 -57.5q97 0 177.5 30t130.5 77.5t77 103t27 109.5h41q0 -61 -30.5 -123t-85.5 -114.5t-143.5 -85.5t-193.5 -33q-149 0 -268.5 62.5t-191.5 185t-72 284.5
t72 284.5t191.5 185t268.5 62.5q105 0 193.5 -33t143.5 -85.5t85.5 -114.5t30.5 -123h-41q0 54 -27 109.5t-77 103t-130.5 77.5t-177.5 30q-137 0 -246.5 -57.5t-174.5 -171.5z" />
    <glyph glyph-name="Dcaron" unicode="&#x10e;" horiz-adv-x="1665" 
d="M549 1843h53l232 -237l231 237h53l-268 -278h-33zM754 1434q110 0 215.5 -29.5t198 -90t162.5 -144.5t110.5 -201t40.5 -252t-40.5 -252t-110.5 -201t-162.5 -144.5t-198 -90t-215.5 -29.5h-529v1434h529zM270 37h484q130 0 250 45t216 128t154 214.5t58 292.5t-58 292.5
t-154 214.5t-216 128t-250 45h-484v-1360z" />
    <glyph glyph-name="dcaron" unicode="&#x10f;" horiz-adv-x="1783" 
d="M1461 1303q-25 26 -25 63t26 62.5t64 25.5q37 0 62.5 -25.5t25.5 -62.5q0 -27 -12 -45l-115 -215h-37l72 170q-37 1 -61 27zM308 129q-144 148 -144 383t143.5 383.5t370.5 148.5q147 0 273 -78.5t177 -203.5v672h41v-1434h-41v262q-51 -125 -177 -203.5t-273 -78.5
q-227 0 -370 149zM678 16q111 0 214 48.5t169.5 138t66.5 196.5v226q0 107 -66.5 196.5t-169.5 138t-214 48.5q-210 0 -339.5 -137t-129.5 -359t129.5 -359t339.5 -137z" />
    <glyph glyph-name="Dcroat" unicode="&#x110;" horiz-adv-x="1665" 
d="M-41 737h266v697h529q110 0 215.5 -29.5t198 -90t162.5 -144.5t110.5 -201t40.5 -252t-40.5 -252t-110.5 -201t-162.5 -144.5t-198 -90t-215.5 -29.5h-529v696h-266v41zM270 37h484q130 0 250 45t216 128t154 214.5t58 292.5t-58 292.5t-154 214.5t-216 128t-250 45h-484
v-660h467v-41h-467v-659z" />
    <glyph glyph-name="dcroat" unicode="&#x111;" horiz-adv-x="1374" 
d="M637 1249h491v185h41v-185h226v-41h-226v-1208h-41v262q-51 -125 -177 -203.5t-273 -78.5q-227 0 -370.5 148.5t-143.5 383.5t143.5 383.5t370.5 148.5q147 0 273 -78.5t177 -203.5v446h-491v41zM678 16q111 0 214 48.5t169.5 138t66.5 196.5v226q0 107 -66.5 196.5
t-169.5 138t-214 48.5q-210 0 -339.5 -137t-129.5 -359t129.5 -359t339.5 -137z" />
    <glyph glyph-name="Emacron" unicode="&#x112;" horiz-adv-x="1316" 
d="M485 1659h430v-41h-430v41zM225 1434h949v-41h-904v-619h842v-41h-842v-692h904v-41h-949v1434z" />
    <glyph glyph-name="emacron" unicode="&#x113;" 
d="M442 1249h430v-41h-430v41zM664 16q94 0 176 29.5t134.5 75t82.5 97t30 97.5h41q0 -53 -33 -111t-91 -108.5t-148 -83t-192 -32.5q-99 0 -189 37t-159.5 103.5t-110.5 168t-41 223.5t41 223.5t110.5 168t159.5 103.5t189 37q216 0 350.5 -144.5t134.5 -385.5h-940
q0 -115 37 -211t100.5 -157.5t145 -95.5t172.5 -34zM1108 551q-10 211 -131.5 334t-312.5 123q-180 0 -310.5 -123.5t-142.5 -333.5h897z" />
    <glyph glyph-name="Ebreve" unicode="&#x114;" horiz-adv-x="1316" 
d="M418 1905h39q0 -136 66.5 -206.5t176.5 -70.5t177 70.5t67 206.5h39q0 -151 -75.5 -235.5t-207.5 -84.5q-131 0 -206.5 84.5t-75.5 235.5zM225 1434h949v-41h-904v-619h842v-41h-842v-692h904v-41h-949v1434z" />
    <glyph glyph-name="ebreve" unicode="&#x115;" 
d="M395 1495h39q0 -136 66.5 -206t177.5 -70t177.5 70t66.5 206h39q0 -151 -75.5 -235t-207.5 -84t-207.5 84t-75.5 235zM664 16q94 0 176 29.5t134.5 75t82.5 97t30 97.5h41q0 -53 -33 -111t-91 -108.5t-148 -83t-192 -32.5q-99 0 -189 37t-159.5 103.5t-110.5 168
t-41 223.5t41 223.5t110.5 168t159.5 103.5t189 37q216 0 350.5 -144.5t134.5 -385.5h-940q0 -115 37 -211t100.5 -157.5t145 -95.5t172.5 -34zM1108 551q-10 211 -131.5 334t-312.5 123q-180 0 -310.5 -123.5t-142.5 -333.5h897z" />
    <glyph glyph-name="Edotaccent" unicode="&#x116;" horiz-adv-x="1316" 
d="M610 1688q0 37 26 62.5t64 25.5q37 0 62.5 -25.5t25.5 -62.5q0 -38 -25.5 -64.5t-62.5 -26.5q-38 0 -64 26.5t-26 64.5zM225 1434h949v-41h-904v-619h842v-41h-842v-692h904v-41h-949v1434z" />
    <glyph glyph-name="edotaccent" unicode="&#x117;" 
d="M567 1278q0 37 26 62.5t64 25.5q37 0 62.5 -25.5t25.5 -62.5q0 -38 -25.5 -64t-62.5 -26q-38 0 -64 26t-26 64zM664 16q94 0 176 29.5t134.5 75t82.5 97t30 97.5h41q0 -53 -33 -111t-91 -108.5t-148 -83t-192 -32.5q-99 0 -189 37t-159.5 103.5t-110.5 168t-41 223.5
t41 223.5t110.5 168t159.5 103.5t189 37q216 0 350.5 -144.5t134.5 -385.5h-940q0 -115 37 -211t100.5 -157.5t145 -95.5t172.5 -34zM1108 551q-10 211 -131.5 334t-312.5 123q-180 0 -310.5 -123.5t-142.5 -333.5h897z" />
    <glyph glyph-name="Eogonek" unicode="&#x118;" horiz-adv-x="1316" 
d="M225 1434h949v-41h-904v-619h842v-41h-842v-692h904v-41h-209q-6 -9 -23.5 -33t-23.5 -34t-19 -30.5t-18.5 -33.5t-12.5 -31.5t-9.5 -37t-2.5 -38.5q0 -52 28.5 -86t75.5 -46t102 -10t112 18v-41q-64 -16 -125.5 -16.5t-115.5 15t-87 58.5t-33 108q0 34 7.5 64t28 65.5
t30.5 50.5t41 58h-695v1434z" />
    <glyph glyph-name="eogonek" unicode="&#x119;" 
d="M664 16q94 0 176 29.5t134.5 75t82.5 97t30 97.5h41q0 -50 -29.5 -104.5t-81.5 -103t-132 -83.5t-172 -42q-4 -6 -18 -25.5t-18.5 -26t-16 -23.5t-15.5 -25t-12.5 -24t-11.5 -26.5t-7.5 -25.5t-6 -29.5t-1.5 -30.5q0 -52 28.5 -86t75.5 -46.5t102 -10.5t112 18v-41
q-64 -16 -125.5 -16.5t-115.5 15.5t-87 59t-33 108q0 40 16.5 83.5t31 67t48.5 70.5q6 9 9 13q-149 0 -265 71.5t-177.5 192.5t-61.5 268q0 122 41 223.5t110.5 168t159.5 103.5t189 37q216 0 350.5 -144.5t134.5 -385.5h-940q0 -115 37 -211t100.5 -157.5t145 -95.5
t172.5 -34zM1108 551q-10 211 -131.5 334t-312.5 123q-180 0 -310.5 -123.5t-142.5 -333.5h897z" />
    <glyph glyph-name="Ecaron" unicode="&#x11a;" horiz-adv-x="1316" 
d="M416 1843h53l231 -237l232 237h53l-268 -278h-33zM225 1434h949v-41h-904v-619h842v-41h-842v-692h904v-41h-949v1434z" />
    <glyph glyph-name="ecaron" unicode="&#x11b;" 
d="M373 1434h53l231 -238l232 238h53l-268 -279h-33zM664 16q94 0 176 29.5t134.5 75t82.5 97t30 97.5h41q0 -53 -33 -111t-91 -108.5t-148 -83t-192 -32.5q-99 0 -189 37t-159.5 103.5t-110.5 168t-41 223.5t41 223.5t110.5 168t159.5 103.5t189 37q216 0 350.5 -144.5
t134.5 -385.5h-940q0 -115 37 -211t100.5 -157.5t145 -95.5t172.5 -34zM1108 551q-10 211 -131.5 334t-312.5 123q-180 0 -310.5 -123.5t-142.5 -333.5h897z" />
    <glyph glyph-name="Gcircumflex" unicode="&#x11c;" horiz-adv-x="1734" 
d="M584 1585l268 279h33l268 -279h-53l-232 238l-231 -238h-53zM233 727q0 -162 50.5 -292.5t140 -216t211.5 -131.5t266 -46q279 0 441.5 158.5t162.5 410.5h-692v41h737v-651h-45v422q-53 -192 -209 -307t-397 -115q-207 0 -368 85.5t-254 251.5t-93 390q0 167 57 305.5
t155.5 230t230 141.5t282.5 50q144 0 265 -45t197 -116.5t117.5 -156.5t41.5 -169h-45q0 78 -38.5 156t-109 143.5t-182 106t-244.5 40.5q-141 0 -263.5 -46t-215 -131.5t-146 -216.5t-53.5 -292z" />
    <glyph glyph-name="gcircumflex" unicode="&#x11d;" horiz-adv-x="1374" 
d="M403 1176l269 278h33l268 -278h-53l-232 237l-231 -237h-54zM313 -373h357q234 0 346 121.5t112 343.5v170q-51 -125 -177 -203.5t-273 -78.5q-227 0 -370.5 148.5t-143.5 383.5t143.5 383.5t370.5 148.5q147 0 273 -78.5t177 -203.5v262h41v-932q0 -235 -124.5 -368.5
t-374.5 -133.5h-357v37zM678 16q111 0 214 48.5t169.5 138t66.5 196.5v226q0 107 -66.5 196.5t-169.5 138t-214 48.5q-210 0 -339.5 -137t-129.5 -359t129.5 -359t339.5 -137z" />
    <glyph glyph-name="Gbreve" unicode="&#x11e;" horiz-adv-x="1734" 
d="M586 1905h39q0 -136 66.5 -206.5t176.5 -70.5t177 70.5t67 206.5h39q0 -151 -75.5 -235.5t-207.5 -84.5q-131 0 -206.5 84.5t-75.5 235.5zM233 727q0 -162 50.5 -292.5t140 -216t211.5 -131.5t266 -46q279 0 441.5 158.5t162.5 410.5h-692v41h737v-651h-45v422
q-53 -192 -209 -307t-397 -115q-207 0 -368 85.5t-254 251.5t-93 390q0 167 57 305.5t155.5 230t230 141.5t282.5 50q144 0 265 -45t197 -116.5t117.5 -156.5t41.5 -169h-45q0 78 -38.5 156t-109 143.5t-182 106t-244.5 40.5q-141 0 -263.5 -46t-215 -131.5t-146 -216.5
t-53.5 -292z" />
    <glyph glyph-name="gbreve" unicode="&#x11f;" horiz-adv-x="1374" 
d="M406 1495h38q0 -136 66.5 -206t177.5 -70t177.5 70t66.5 206h39q0 -151 -75.5 -235t-207.5 -84t-207 84t-75 235zM313 -373h357q234 0 346 121.5t112 343.5v170q-51 -125 -177 -203.5t-273 -78.5q-227 0 -370.5 148.5t-143.5 383.5t143.5 383.5t370.5 148.5
q147 0 273 -78.5t177 -203.5v262h41v-932q0 -235 -124.5 -368.5t-374.5 -133.5h-357v37zM678 16q111 0 214 48.5t169.5 138t66.5 196.5v226q0 107 -66.5 196.5t-169.5 138t-214 48.5q-210 0 -339.5 -137t-129.5 -359t129.5 -359t339.5 -137z" />
    <glyph glyph-name="Gdotaccent" unicode="&#x120;" horiz-adv-x="1734" 
d="M778 1688q0 37 26 62.5t64 25.5q37 0 62.5 -25.5t25.5 -62.5q0 -38 -25.5 -64.5t-62.5 -26.5q-38 0 -64 26.5t-26 64.5zM233 727q0 -162 50.5 -292.5t140 -216t211.5 -131.5t266 -46q279 0 441.5 158.5t162.5 410.5h-692v41h737v-651h-45v422q-53 -192 -209 -307
t-397 -115q-207 0 -368 85.5t-254 251.5t-93 390q0 167 57 305.5t155.5 230t230 141.5t282.5 50q144 0 265 -45t197 -116.5t117.5 -156.5t41.5 -169h-45q0 78 -38.5 156t-109 143.5t-182 106t-244.5 40.5q-141 0 -263.5 -46t-215 -131.5t-146 -216.5t-53.5 -292z" />
    <glyph glyph-name="gdotaccent" unicode="&#x121;" horiz-adv-x="1374" 
d="M598 1278q0 37 26 62.5t64 25.5q37 0 62.5 -25.5t25.5 -62.5q0 -38 -25.5 -64t-62.5 -26q-38 0 -64 26t-26 64zM313 -373h357q234 0 346 121.5t112 343.5v170q-51 -125 -177 -203.5t-273 -78.5q-227 0 -370.5 148.5t-143.5 383.5t143.5 383.5t370.5 148.5
q147 0 273 -78.5t177 -203.5v262h41v-932q0 -235 -124.5 -368.5t-374.5 -133.5h-357v37zM678 16q111 0 214 48.5t169.5 138t66.5 196.5v226q0 107 -66.5 196.5t-169.5 138t-214 48.5q-210 0 -339.5 -137t-129.5 -359t129.5 -359t339.5 -137z" />
    <glyph glyph-name="uni0122" unicode="&#x122;" horiz-adv-x="1734" 
d="M233 727q0 -162 50.5 -292.5t140 -216t211.5 -131.5t266 -46q279 0 441.5 158.5t162.5 410.5h-692v41h737v-651h-45v422q-53 -192 -209 -307t-397 -115q-207 0 -368 85.5t-254 251.5t-93 390q0 167 57 305.5t155.5 230t230 141.5t282.5 50q144 0 265 -45t197 -116.5
t117.5 -156.5t41.5 -169h-45q0 78 -38.5 156t-109 143.5t-182 106t-244.5 40.5q-141 0 -263.5 -46t-215 -131.5t-146 -216.5t-53.5 -292zM854 -254q-25 27 -25 64t26.5 62.5t64.5 25.5q37 0 62.5 -25.5t25.5 -62.5q0 -26 -13 -46l-114 -215h-37l71 170q-37 1 -61 27z" />
    <glyph glyph-name="uni0123" unicode="&#x123;" horiz-adv-x="1374" 
d="M752 1339q24 -26 24 -63t-26 -62.5t-64 -25.5q-37 0 -62.5 25.5t-25.5 62.5q0 27 12 45l115 215h37l-72 -170q37 -1 62 -27zM313 -373h357q234 0 346 121.5t112 343.5v170q-51 -125 -177 -203.5t-273 -78.5q-227 0 -370.5 148.5t-143.5 383.5t143.5 383.5t370.5 148.5
q147 0 273 -78.5t177 -203.5v262h41v-932q0 -235 -124.5 -368.5t-374.5 -133.5h-357v37zM678 16q111 0 214 48.5t169.5 138t66.5 196.5v226q0 107 -66.5 196.5t-169.5 138t-214 48.5q-210 0 -339.5 -137t-129.5 -359t129.5 -359t339.5 -137z" />
    <glyph glyph-name="Hcircumflex" unicode="&#x124;" horiz-adv-x="1746" 
d="M590 1585l268 279h33l268 -279h-53l-232 238l-231 -238h-53zM225 1434h45v-680h1207v680h45v-1434h-45v713h-1207v-713h-45v1434z" />
    <glyph glyph-name="hcircumflex" unicode="&#x125;" horiz-adv-x="1292" 
d="M403 1176l269 278h33l268 -278h-53l-232 237l-231 -237h-54zM205 1434h41v-682q48 129 164.5 210.5t257.5 81.5q118 0 201.5 -30.5t130 -89t67 -131.5t20.5 -168v-625h-40v625q0 70 -10.5 125.5t-36.5 105t-68.5 82t-109 51.5t-154.5 19q-168 0 -295 -119.5t-127 -284.5
v-604h-41v1434z" />
    <glyph glyph-name="Hbar" unicode="&#x126;" horiz-adv-x="1746" 
d="M225 1434h45v-492h1207v492h45v-1434h-45v467h-1207v-467h-45v1434zM270 508h1207v393h-1207v-393z" />
    <glyph glyph-name="hbar" unicode="&#x127;" horiz-adv-x="1292" 
d="M737 1249v-41h-491v-456q48 129 164.5 210.5t257.5 81.5q118 0 201.5 -30.5t130 -89t67 -131.5t20.5 -168v-625h-40v625q0 70 -10.5 125.5t-36.5 105t-68.5 82t-109 51.5t-154.5 19q-168 0 -295 -119.5t-127 -284.5v-604h-41v1208h-225v41h225v185h41v-185h491z" />
    <glyph glyph-name="Itilde" unicode="&#x128;" horiz-adv-x="495" 
d="M254 1675q29 -12 41.5 -16.5t34 -12.5t30.5 -9t25 -3.5t23 1t19.5 8t19.5 14t17.5 22.5t19.5 30t20 40l33 -12q-19 -43 -37.5 -71.5t-40.5 -43.5t-42.5 -21t-50 -1.5t-56 13t-68.5 25.5q-102 40 -135 41q-48 2 -81 -51q-15 -24 -32 -63l-35 12q18 42 37 70.5t41 43
t42.5 20.5t50.5 1.5t56.5 -13t67.5 -24.5zM225 1434h45v-1434h-45v1434z" />
    <glyph glyph-name="itilde" unicode="&#x129;" horiz-adv-x="409" 
d="M211 1266q30 -12 41.5 -16.5t34 -12.5t30.5 -9.5t25 -3.5t23.5 1t19.5 8t19.5 14.5t17.5 22t19.5 29.5t19.5 40l33 -12q-23 -51 -46.5 -81.5t-47 -44.5t-57 -12t-64 11t-80.5 29q-28 11 -40.5 16t-34.5 12.5t-31 9t-25.5 3.5t-24 -1.5t-19.5 -8t-19.5 -14t-17.5 -22
t-18 -30t-18 -39.5l-35 12q22 51 46 81t47.5 44t57 12.5t64.5 -10.5t80 -28zM184 1024h41v-1024h-41v1024z" />
    <glyph glyph-name="Imacron" unicode="&#x12a;" horiz-adv-x="495" 
d="M33 1659h430v-41h-430v41zM225 1434h45v-1434h-45v1434z" />
    <glyph glyph-name="imacron" unicode="&#x12b;" horiz-adv-x="409" 
d="M-10 1249h430v-41h-430v41zM184 1024h41v-1024h-41v1024z" />
    <glyph glyph-name="Iogonek" unicode="&#x12e;" horiz-adv-x="495" 
d="M225 1434h45v-1434h-4q-5 -7 -23.5 -33t-23.5 -34t-18.5 -30t-18.5 -34t-12 -31.5t-9.5 -37.5t-2.5 -38q0 -52 28.5 -86t75 -46t101.5 -10t112 18v-41q-64 -16 -125 -16.5t-115 15t-87 58.5t-33 108q0 18 3 36t6 31t12.5 33.5t13 28t18.5 31t17 27t21 30t19 27.5v1428z
" />
    <glyph glyph-name="iogonek" unicode="&#x12f;" horiz-adv-x="409" 
d="M145 1395q0 25 18 42t44 17q25 0 42 -17t17 -42q0 -26 -17 -44t-42 -18q-26 0 -44 18t-18 44zM184 1024h41v-1024h-12q-6 -9 -23.5 -33t-23.5 -34t-19 -30.5t-18.5 -33.5t-12.5 -31.5t-9.5 -37t-2.5 -38.5q0 -52 28.5 -86t75.5 -46t102 -10t112 18v-41
q-64 -16 -125.5 -16.5t-115.5 15t-87 58.5t-33 108q0 25 6 50.5t12.5 44t22 45t24.5 39.5t30 42.5t28 39.5v1001z" />
    <glyph glyph-name="Idotaccent" unicode="&#x130;" horiz-adv-x="495" 
d="M160 1688q0 37 26 62.5t64 25.5q37 0 62.5 -25.5t25.5 -62.5q0 -38 -25.5 -64.5t-62.5 -26.5q-38 0 -64 26.5t-26 64.5zM225 1434h45v-1434h-45v1434z" />
    <glyph glyph-name="dotlessi" unicode="&#x131;" horiz-adv-x="409" 
d="M184 1024h41v-1024h-41v1024z" />
    <glyph glyph-name="IJ" unicode="&#x132;" horiz-adv-x="1804" 
d="M225 1434h45v-1434h-45v1434zM1534 1434h45v-942q0 -236 -129.5 -374t-339.5 -138q-216 0 -343.5 137t-127.5 375h45q0 -224 113.5 -348t312.5 -124q192 0 308 125t116 347v942z" />
    <glyph glyph-name="ij" unicode="&#x133;" horiz-adv-x="819" 
d="M145 1395q0 25 18 42t44 17q25 0 42 -17t17 -42q0 -26 -17 -44t-42 -18q-26 0 -44 18t-18 44zM555 1395q0 25 17.5 42t43.5 17q25 0 42.5 -17t17.5 -42q0 -26 -17.5 -44t-42.5 -18q-26 0 -43.5 18t-17.5 44zM184 1024h41v-1024h-41v1024zM195 -373h124q148 0 211.5 74.5
t63.5 226.5v1096h41v-1096q0 -338 -316 -338h-124v37z" />
    <glyph glyph-name="Jcircumflex" unicode="&#x134;" horiz-adv-x="1308" 
d="M778 1585l269 279h32l269 -279h-54l-231 238l-232 -238h-53zM1038 1434h45v-942q0 -236 -129.5 -374t-339.5 -138q-216 0 -343.5 137t-127.5 375h45q0 -224 113.5 -348t312.5 -124q192 0 308 125t116 347v942z" />
    <glyph glyph-name="jcircumflex" unicode="&#x135;" horiz-adv-x="409" 
d="M-80 1176l268 278h33l268 -278h-53l-231 237l-232 -237h-53zM-215 -373h125q148 0 211 74.5t63 226.5v1096h41v-1096q0 -166 -76 -252t-239 -86h-125v37z" />
    <glyph glyph-name="uni0136" unicode="&#x136;" horiz-adv-x="1333" 
d="M225 1434h45v-738h260l596 738h54l-607 -754l658 -680h-57l-637 655h-267v-655h-45v1434zM654 -254q-25 27 -25 64t26 62.5t64 25.5q37 0 62.5 -25.5t25.5 -62.5q0 -28 -12 -46l-115 -215h-37l72 170q-37 1 -61 27z" />
    <glyph glyph-name="uni0137" unicode="&#x137;" horiz-adv-x="1179" 
d="M205 1434h41v-883h246l462 473h50l-474 -489l527 -535h-53l-510 514h-248v-514h-41v1434zM578 -254q-25 27 -25 64t26 62.5t64 25.5q37 0 62.5 -25.5t25.5 -62.5q0 -28 -12 -46l-115 -215h-37l72 170q-37 1 -61 27z" />
    <glyph glyph-name="kgreenlandic" unicode="&#x138;" horiz-adv-x="1179" 
d="M205 1024h41v-473h246l462 473h50l-474 -489l527 -535h-53l-510 514h-248v-514h-41v1024z" />
    <glyph glyph-name="Lacute" unicode="&#x139;" horiz-adv-x="1357" 
d="M225 1434h45v-1393h944v-41h-989v1434zM801 1114l123 320h43l-127 -320h-39z" />
    <glyph glyph-name="lacute" unicode="&#x13a;" horiz-adv-x="491" 
d="M211 1565l123 319h43l-127 -319h-39zM451 37v-37h-33q-69 1 -110 12.5t-64.5 43.5t-31 77t-7.5 123v1178h41v-1178q0 -53 2.5 -82.5t11.5 -60t27.5 -44.5t50.5 -23t80 -9h33z" />
    <glyph glyph-name="uni013B" unicode="&#x13b;" horiz-adv-x="1357" 
d="M225 1434h45v-1393h944v-41h-989v1434zM687 -254q-25 27 -25 64t26 62.5t64 25.5q37 0 62.5 -25.5t25.5 -62.5q0 -26 -13 -46l-114 -215h-37l72 170q-37 1 -61 27z" />
    <glyph glyph-name="uni013C" unicode="&#x13c;" horiz-adv-x="491" 
d="M451 37v-37h-33q-69 1 -110 12.5t-64.5 43.5t-31 77t-7.5 123v1178h41v-1178q0 -53 2.5 -82.5t11.5 -60t27.5 -44.5t50.5 -23t80 -9h33zM254 -254q-25 27 -25 64t26 62.5t64 25.5q37 0 63 -25.5t26 -62.5q0 -26 -13 -46l-114 -215h-37l71 170q-37 1 -61 27z" />
    <glyph glyph-name="Lcaron" unicode="&#x13d;" horiz-adv-x="1357" 
d="M225 1434h45v-1393h944v-41h-989v1434zM943 1283q-25 26 -25 63t26 62.5t64 25.5q37 0 62.5 -25.5t25.5 -62.5q0 -26 -13 -46l-114 -215h-37l72 170q-37 1 -61 28z" />
    <glyph glyph-name="lcaron" unicode="&#x13e;" horiz-adv-x="880" 
d="M451 37v-37h-33q-69 1 -110 12.5t-64.5 43.5t-31 77t-7.5 123v1178h41v-1178q0 -53 2.5 -82.5t11.5 -60t27.5 -44.5t50.5 -23t80 -9h33zM557 1283q-25 26 -25 63t26.5 62.5t64.5 25.5q37 0 62.5 -25.5t25.5 -62.5q0 -26 -13 -46l-114 -215h-37l71 170q-37 1 -61 28z" />
    <glyph glyph-name="Ldot" unicode="&#x13f;" horiz-adv-x="1357" 
d="M225 1434h45v-1393h944v-41h-989v1434zM698 1346q0 37 26 62.5t64 25.5q37 0 63 -25.5t26 -62.5q0 -38 -26 -64.5t-63 -26.5q-38 0 -64 26.5t-26 64.5z" />
    <glyph glyph-name="ldot" unicode="&#x140;" horiz-adv-x="962" 
d="M451 37v-37h-33q-69 1 -110 12.5t-64.5 43.5t-31 77t-7.5 123v1178h41v-1178q0 -53 2.5 -82.5t11.5 -60t27.5 -44.5t50.5 -23t80 -9h33zM532 1346q0 37 26.5 62.5t64.5 25.5q37 0 62.5 -25.5t25.5 -62.5q0 -38 -25.5 -64.5t-62.5 -26.5q-38 0 -64.5 26.5t-26.5 64.5z" />
    <glyph glyph-name="Lslash" unicode="&#x141;" horiz-adv-x="1357" 
d="M-201 678l426 156v600h45v-584l414 149l14 -38l-428 -156v-764h944v-41h-989v788l-411 -149z" />
    <glyph glyph-name="lslash" unicode="&#x142;" horiz-adv-x="491" 
d="M-221 678l426 156v600h41v-586l418 151l14 -38l-432 -158v-547q0 -53 2.5 -82.5t11.5 -60t27.5 -44.5t50.5 -23t80 -9h33v-37h-33q-69 1 -110 12.5t-64.5 43.5t-31 77t-7.5 123v532l-412 -149z" />
    <glyph glyph-name="Nacute" unicode="&#x143;" horiz-adv-x="1746" 
d="M893 1565l123 319h43l-127 -319h-39zM225 1434h45l1207 -1368v1368h45v-1434h-45l-1207 1368v-1368h-45v1434z" />
    <glyph glyph-name="nacute" unicode="&#x144;" horiz-adv-x="1292" 
d="M625 1155l123 320h43l-127 -320h-39zM205 1024h41v-272q48 129 164.5 210.5t257.5 81.5q118 0 201.5 -30.5t130 -89t67 -131.5t20.5 -168v-625h-40v625q0 70 -10.5 125.5t-36.5 105t-68.5 82t-109 51.5t-154.5 19q-168 0 -295 -119.5t-127 -284.5v-604h-41v1024z" />
    <glyph glyph-name="uni0145" unicode="&#x145;" horiz-adv-x="1746" 
d="M225 1434h45l1207 -1368v1368h45v-1434h-45l-1207 1368v-1368h-45v1434zM840 -254q-25 27 -25 64t26 62.5t64 25.5q37 0 62.5 -25.5t25.5 -62.5q0 -28 -12 -46l-115 -215h-37l72 170q-37 1 -61 27z" />
    <glyph glyph-name="uni0146" unicode="&#x146;" horiz-adv-x="1292" 
d="M205 1024h41v-272q48 129 164.5 210.5t257.5 81.5q118 0 201.5 -30.5t130 -89t67 -131.5t20.5 -168v-625h-40v625q0 70 -10.5 125.5t-36.5 105t-68.5 82t-109 51.5t-154.5 19q-168 0 -295 -119.5t-127 -284.5v-604h-41v1024zM613 -254q-25 27 -25 64t26 62.5t64 25.5
q37 0 62.5 -25.5t25.5 -62.5q0 -28 -12 -46l-115 -215h-37l72 170q-37 1 -61 27z" />
    <glyph glyph-name="Ncaron" unicode="&#x147;" horiz-adv-x="1746" 
d="M631 1843h53l231 -237l232 237h53l-268 -278h-33zM225 1434h45l1207 -1368v1368h45v-1434h-45l-1207 1368v-1368h-45v1434z" />
    <glyph glyph-name="ncaron" unicode="&#x148;" horiz-adv-x="1292" 
d="M362 1434h54l231 -238l232 238h53l-268 -279h-33zM205 1024h41v-272q48 129 164.5 210.5t257.5 81.5q118 0 201.5 -30.5t130 -89t67 -131.5t20.5 -168v-625h-40v625q0 70 -10.5 125.5t-36.5 105t-68.5 82t-109 51.5t-154.5 19q-168 0 -295 -119.5t-127 -284.5v-604h-41
v1024z" />
    <glyph glyph-name="napostrophe" unicode="&#x149;" horiz-adv-x="1292" 
d="M582 1303q-25 26 -25 63t26 62.5t64 25.5q37 0 62.5 -25.5t25.5 -62.5q0 -27 -12 -45l-115 -215h-37l72 170q-37 1 -61 27zM205 1024h41v-272q48 129 164.5 210.5t257.5 81.5q118 0 201.5 -30.5t130 -89t67 -131.5t20.5 -168v-625h-40v625q0 70 -10.5 125.5t-36.5 105
t-68.5 82t-109 51.5t-154.5 19q-168 0 -295 -119.5t-127 -284.5v-604h-41v1024z" />
    <glyph glyph-name="Omacron" unicode="&#x14c;" horiz-adv-x="1820" 
d="M696 1659h430v-41h-430v41zM225 463q-41 119 -41 254t40.5 254t110.5 206t162 150.5t197.5 95t214.5 31.5q110 0 215.5 -31.5t198 -95t162.5 -150.5t110.5 -206t40.5 -254t-40.5 -254t-110.5 -206t-162.5 -150.5t-198 -95t-215.5 -31.5q-109 0 -214.5 31.5t-197.5 95
t-162 150.5t-110 206zM1159 1365q-121 48 -250 48t-249.5 -48t-216 -134.5t-153 -220t-57.5 -293.5q0 -128 37.5 -241t102.5 -195t151 -142t184.5 -89.5t200.5 -29.5q129 0 249.5 48t216.5 134.5t154 221t58 293.5t-58 293t-154 220.5t-216 134.5z" />
    <glyph glyph-name="omacron" unicode="&#x14d;" horiz-adv-x="1376" 
d="M473 1249h430v-41h-430v41zM512 50q85 -34 176 -34t176.5 34t153 95.5t108.5 157t41 209.5t-41 209.5t-108.5 157t-153 95.5t-176.5 34t-176.5 -34t-153 -95.5t-108.5 -157t-41 -209.5t41 -209.5t108.5 -157t153.5 -95.5zM496 1007q93 37 192 37t192.5 -37t167.5 -103
t119 -168.5t45 -223.5t-45 -223.5t-119 -168.5t-167.5 -103t-192.5 -37t-192.5 37t-167.5 103t-119 168.5t-45 223.5t45 223.5t119 168.5t168 103z" />
    <glyph glyph-name="Obreve" unicode="&#x14e;" horiz-adv-x="1820" 
d="M629 1905h39q0 -136 66.5 -206.5t176.5 -70.5t177 70.5t67 206.5h39q0 -151 -75.5 -235.5t-207.5 -84.5q-131 0 -206.5 84.5t-75.5 235.5zM225 463q-41 119 -41 254t40.5 254t110.5 206t162 150.5t197.5 95t214.5 31.5q110 0 215.5 -31.5t198 -95t162.5 -150.5
t110.5 -206t40.5 -254t-40.5 -254t-110.5 -206t-162.5 -150.5t-198 -95t-215.5 -31.5q-109 0 -214.5 31.5t-197.5 95t-162 150.5t-110 206zM1159 1365q-121 48 -250 48t-249.5 -48t-216 -134.5t-153 -220t-57.5 -293.5q0 -128 37.5 -241t102.5 -195t151 -142t184.5 -89.5
t200.5 -29.5q129 0 249.5 48t216.5 134.5t154 221t58 293.5t-58 293t-154 220.5t-216 134.5z" />
    <glyph glyph-name="obreve" unicode="&#x14f;" horiz-adv-x="1376" 
d="M406 1495h38q0 -136 66.5 -206t177.5 -70t177.5 70t66.5 206h39q0 -151 -75.5 -235t-207.5 -84t-207 84t-75 235zM512 50q85 -34 176 -34t176.5 34t153 95.5t108.5 157t41 209.5t-41 209.5t-108.5 157t-153 95.5t-176.5 34t-176.5 -34t-153 -95.5t-108.5 -157t-41 -209.5
t41 -209.5t108.5 -157t153.5 -95.5zM496 1007q93 37 192 37t192.5 -37t167.5 -103t119 -168.5t45 -223.5t-45 -223.5t-119 -168.5t-167.5 -103t-192.5 -37t-192.5 37t-167.5 103t-119 168.5t-45 223.5t45 223.5t119 168.5t168 103z" />
    <glyph glyph-name="Ohungarumlaut" unicode="&#x150;" horiz-adv-x="1820" 
d="M1034 1565l123 319h43l-127 -319h-39zM705 1565l122 319h43l-127 -319h-38zM225 463q-41 119 -41 254t40.5 254t110.5 206t162 150.5t197.5 95t214.5 31.5q110 0 215.5 -31.5t198 -95t162.5 -150.5t110.5 -206t40.5 -254t-40.5 -254t-110.5 -206t-162.5 -150.5t-198 -95
t-215.5 -31.5q-109 0 -214.5 31.5t-197.5 95t-162 150.5t-110 206zM1159 1365q-121 48 -250 48t-249.5 -48t-216 -134.5t-153 -220t-57.5 -293.5q0 -128 37.5 -241t102.5 -195t151 -142t184.5 -89.5t200.5 -29.5q129 0 249.5 48t216.5 134.5t154 221t58 293.5t-58 293
t-154 220.5t-216 134.5z" />
    <glyph glyph-name="ohungarumlaut" unicode="&#x151;" horiz-adv-x="1376" 
d="M811 1155l123 320h43l-127 -320h-39zM481 1155l123 320h43l-127 -320h-39zM512 50q85 -34 176 -34t176.5 34t153 95.5t108.5 157t41 209.5t-41 209.5t-108.5 157t-153 95.5t-176.5 34t-176.5 -34t-153 -95.5t-108.5 -157t-41 -209.5t41 -209.5t108.5 -157t153.5 -95.5z
M496 1007q93 37 192 37t192.5 -37t167.5 -103t119 -168.5t45 -223.5t-45 -223.5t-119 -168.5t-167.5 -103t-192.5 -37t-192.5 37t-167.5 103t-119 168.5t-45 223.5t45 223.5t119 168.5t168 103z" />
    <glyph glyph-name="OE" unicode="&#x152;" horiz-adv-x="2684" 
d="M225 463q-41 119 -41 254t40.5 254t110.5 206t162 150.5t197.5 95t214.5 31.5q222 0 412 -126.5t270 -344.5v451h949v-41h-904v-619h842v-41h-842v-692h904v-41h-949v451q-80 -218 -270 -344.5t-412 -126.5q-109 0 -214.5 31.5t-197.5 95t-162 150.5t-110 206zM1159 1365
q-121 48 -250 48t-249.5 -48t-216 -134.5t-153 -220t-57.5 -293.5q0 -128 37.5 -241t102.5 -195t151 -142t184.5 -89.5t200.5 -29.5q129 0 249.5 48t216.5 134.5t154 221t58 293.5t-58 293t-154 220.5t-216 134.5z" />
    <glyph glyph-name="oe" unicode="&#x153;" horiz-adv-x="2316" 
d="M512 50q85 -34 176 -34t176.5 34t153 95.5t108.5 157t41 209.5t-41 209.5t-108.5 157t-153 95.5t-176.5 34t-176.5 -34t-153 -95.5t-108.5 -157t-41 -209.5t41 -209.5t108.5 -157t153.5 -95.5zM2111 551q-10 211 -131.5 334t-312.5 123q-180 0 -310.5 -123.5
t-142.5 -333.5h897zM688 1044q168 0 309.5 -98.5t192.5 -267.5q46 170 178.5 268t298.5 98q216 0 350.5 -144.5t134.5 -385.5h-940q0 -115 37 -211t100.5 -157.5t145 -95.5t172.5 -34q94 0 176 29.5t135 75t83 97t30 97.5h41q0 -53 -33.5 -111t-91.5 -108.5t-148 -83
t-192 -32.5q-166 0 -299.5 98t-179.5 268q-51 -169 -192 -267.5t-308 -98.5q-99 0 -192.5 37t-167.5 103t-119 168.5t-45 223.5t45 223.5t119 168.5t167.5 103t192.5 37z" />
    <glyph glyph-name="Racute" unicode="&#x154;" horiz-adv-x="1439" 
d="M719 1565l123 319h43l-127 -319h-39zM815 1434q25 0 57.5 -3.5t80.5 -15.5t93 -30.5t91.5 -52t80.5 -76.5t56 -108.5t22 -143.5t-22 -143.5t-56 -109t-80.5 -77t-91.5 -52t-93 -30.5t-80.5 -15.5t-57.5 -3.5h-2l420 -573h-55l-420 573h-488v-573h-45v1434h590zM270 610
h545q21 0 47.5 2.5t70 12.5t84 26t83.5 46.5t74.5 70t52 101t20.5 135.5t-20.5 135t-52 100.5t-74.5 70t-83.5 46.5t-84 26t-70 12.5t-47.5 2.5h-545v-787z" />
    <glyph glyph-name="racute" unicode="&#x155;" horiz-adv-x="808" 
d="M424 1155l123 320h43l-127 -320h-39zM205 1024h41v-266q42 131 143 208.5t238 77.5h100v-36h-100q-165 0 -273 -120.5t-108 -303.5v-584h-41v1024z" />
    <glyph glyph-name="uni0156" unicode="&#x156;" horiz-adv-x="1439" 
d="M815 1434q25 0 57.5 -3.5t80.5 -15.5t93 -30.5t91.5 -52t80.5 -76.5t56 -108.5t22 -143.5t-22 -143.5t-56 -109t-80.5 -77t-91.5 -52t-93 -30.5t-80.5 -15.5t-57.5 -3.5h-2l420 -573h-55l-420 573h-488v-573h-45v1434h590zM270 610h545q21 0 47.5 2.5t70 12.5t84 26
t83.5 46.5t74.5 70t52 101t20.5 135.5t-20.5 135t-52 100.5t-74.5 70t-83.5 46.5t-84 26t-70 12.5t-47.5 2.5h-545v-787zM625 -254q-25 27 -25 64t26 62.5t64 25.5q37 0 62.5 -25.5t25.5 -62.5q0 -28 -12 -46l-115 -215h-37l72 170q-37 1 -61 27z" />
    <glyph glyph-name="uni0157" unicode="&#x157;" horiz-adv-x="808" 
d="M205 1024h41v-266q42 131 143 208.5t238 77.5h100v-36h-100q-165 0 -273 -120.5t-108 -303.5v-584h-41v1024zM166 -254q-25 27 -25 64t26 62.5t64 25.5q37 0 62.5 -25.5t25.5 -62.5q0 -28 -12 -46l-114 -215h-37l71 170q-37 1 -61 27z" />
    <glyph glyph-name="Rcaron" unicode="&#x158;" horiz-adv-x="1439" 
d="M436 1843h53l232 -237l231 237h54l-269 -278h-32zM815 1434q25 0 57.5 -3.5t80.5 -15.5t93 -30.5t91.5 -52t80.5 -76.5t56 -108.5t22 -143.5t-22 -143.5t-56 -109t-80.5 -77t-91.5 -52t-93 -30.5t-80.5 -15.5t-57.5 -3.5h-2l420 -573h-55l-420 573h-488v-573h-45v1434
h590zM270 610h545q21 0 47.5 2.5t70 12.5t84 26t83.5 46.5t74.5 70t52 101t20.5 135.5t-20.5 135t-52 100.5t-74.5 70t-83.5 46.5t-84 26t-70 12.5t-47.5 2.5h-545v-787z" />
    <glyph glyph-name="rcaron" unicode="&#x159;" horiz-adv-x="808" 
d="M162 1434h53l231 -238l232 238h53l-268 -279h-33zM205 1024h41v-266q42 131 143 208.5t238 77.5h100v-36h-100q-165 0 -273 -120.5t-108 -303.5v-584h-41v1024z" />
    <glyph glyph-name="Sacute" unicode="&#x15a;" horiz-adv-x="1529" 
d="M723 1565l123 319h43l-127 -319h-39zM213 432q0 -65 18 -122.5t61 -111.5t107 -93t163.5 -62t223.5 -23q267 0 399 93t132 252q0 39 -6.5 71.5t-17 58t-30 46t-38.5 35.5t-50 28t-57.5 21.5t-67.5 17.5t-73 14.5t-82 13.5q-59 10 -90 15q-79 14 -127 23.5t-111.5 25
t-101.5 30.5t-82 37t-69.5 48t-48.5 60t-32.5 77.5t-9.5 95.5q0 181 147.5 276t399.5 95q131 0 234 -26t168.5 -69.5t108 -103t60 -122t17.5 -132.5h-49q0 66 -15 123t-53.5 111.5t-98 92.5t-155 61.5t-217.5 23.5q-153 0 -261.5 -33t-172.5 -109t-64 -192q0 -39 7.5 -72.5
t20 -60.5t35 -49.5t46.5 -40t61 -33t71.5 -27t85.5 -23t96.5 -19.5t109.5 -19q25 -4 73 -12q106 -17 158 -27t128 -36.5t111.5 -60t63 -93t27.5 -141.5q0 -172 -146 -278.5t-434 -106.5q-131 0 -237.5 26t-177 69.5t-118 102t-68.5 122t-21 132.5h49z" />
    <glyph glyph-name="sacute" unicode="&#x15b;" horiz-adv-x="1196" 
d="M557 1155l123 320h43l-127 -320h-39zM205 315q0 -54 27 -106.5t78 -96t134 -70t185 -26.5q182 0 272 66t90 176q0 48 -19 83.5t-39 56t-78 38.5t-89 25t-118 22q-3 1 -5 1.5t-5 1t-5.5 1t-5.5 0.5q-86 15 -142.5 28.5t-114 36.5t-90 51.5t-53 72t-20.5 100.5
q0 87 54.5 149t142.5 90.5t198 28.5t194.5 -29.5t133 -78.5t72.5 -106.5t24 -120.5h-41q0 57 -19.5 107t-61.5 94.5t-119.5 71t-182.5 26.5q-161 0 -257.5 -58t-96.5 -176q0 -108 89.5 -160.5t289.5 -85.5q176 -29 234 -49q126 -42 158 -135q13 -38 13 -86
q0 -124 -104.5 -201t-298.5 -77q-110 0 -200.5 29.5t-147 78t-87 107.5t-30.5 120h41z" />
    <glyph glyph-name="Scircumflex" unicode="&#x15c;" horiz-adv-x="1529" 
d="M481 1585l269 279h32l269 -279h-54l-231 238l-231 -238h-54zM213 432q0 -65 18 -122.5t61 -111.5t107 -93t163.5 -62t223.5 -23q267 0 399 93t132 252q0 39 -6.5 71.5t-17 58t-30 46t-38.5 35.5t-50 28t-57.5 21.5t-67.5 17.5t-73 14.5t-82 13.5q-59 10 -90 15
q-79 14 -127 23.5t-111.5 25t-101.5 30.5t-82 37t-69.5 48t-48.5 60t-32.5 77.5t-9.5 95.5q0 181 147.5 276t399.5 95q131 0 234 -26t168.5 -69.5t108 -103t60 -122t17.5 -132.5h-49q0 66 -15 123t-53.5 111.5t-98 92.5t-155 61.5t-217.5 23.5q-153 0 -261.5 -33
t-172.5 -109t-64 -192q0 -39 7.5 -72.5t20 -60.5t35 -49.5t46.5 -40t61 -33t71.5 -27t85.5 -23t96.5 -19.5t109.5 -19q25 -4 73 -12q106 -17 158 -27t128 -36.5t111.5 -60t63 -93t27.5 -141.5q0 -172 -146 -278.5t-434 -106.5q-131 0 -237.5 26t-177 69.5t-118 102
t-68.5 122t-21 132.5h49z" />
    <glyph glyph-name="scircumflex" unicode="&#x15d;" horiz-adv-x="1196" 
d="M313 1176l269 278h32l269 -278h-54l-231 237l-231 -237h-54zM205 315q0 -54 27 -106.5t78 -96t134 -70t185 -26.5q182 0 272 66t90 176q0 48 -19 83.5t-39 56t-78 38.5t-89 25t-118 22q-3 1 -5 1.5t-5 1t-5.5 1t-5.5 0.5q-86 15 -142.5 28.5t-114 36.5t-90 51.5t-53 72
t-20.5 100.5q0 87 54.5 149t142.5 90.5t198 28.5t194.5 -29.5t133 -78.5t72.5 -106.5t24 -120.5h-41q0 57 -19.5 107t-61.5 94.5t-119.5 71t-182.5 26.5q-161 0 -257.5 -58t-96.5 -176q0 -108 89.5 -160.5t289.5 -85.5q176 -29 234 -49q126 -42 158 -135q13 -38 13 -86
q0 -124 -104.5 -201t-298.5 -77q-110 0 -200.5 29.5t-147 78t-87 107.5t-30.5 120h41z" />
    <glyph glyph-name="Scedilla" unicode="&#x15e;" horiz-adv-x="1529" 
d="M213 432q0 -65 18 -122.5t61 -111.5t107 -93t163.5 -62t223.5 -23q267 0 399 93t132 252q0 39 -6.5 71.5t-17 58t-30 46t-38.5 35.5t-50 28t-57.5 21.5t-67.5 17.5t-73 14.5t-82 13.5q-59 10 -90 15q-79 14 -127 23.5t-111.5 25t-101.5 30.5t-82 37t-69.5 48t-48.5 60
t-32.5 77.5t-9.5 95.5q0 181 147.5 276t399.5 95q131 0 234 -26t168.5 -69.5t108 -103t60 -122t17.5 -132.5h-49q0 66 -15 123t-53.5 111.5t-98 92.5t-155 61.5t-217.5 23.5q-153 0 -261.5 -33t-172.5 -109t-64 -192q0 -39 7.5 -72.5t20 -60.5t35 -49.5t46.5 -40t61 -33
t71.5 -27t85.5 -23t96.5 -19.5t109.5 -19q25 -4 73 -12q106 -17 158 -27t128 -36.5t111.5 -60t63 -93t27.5 -141.5q0 -169 -141 -275.5t-420 -109.5l-27 -105q37 0 59 -1t54.5 -9t50 -22t31.5 -43t14 -70q0 -68 -33 -113t-87 -62t-115 -17t-125 16v40q57 -16 111.5 -18
t101.5 11t75.5 49.5t28.5 93.5q0 20 -3.5 36.5t-11.5 27.5t-16.5 19t-23.5 12.5t-26.5 7.5t-31 3.5t-32.5 0.5t-35.5 -0.5t-34.5 -0.5l35 144q-126 2 -228.5 29t-170.5 70.5t-114 102t-66.5 121t-20.5 129.5h49z" />
    <glyph glyph-name="scedilla" unicode="&#x15f;" horiz-adv-x="1196" 
d="M205 315q0 -54 27 -106.5t78 -96t134 -70t185 -26.5q182 0 272 66t90 176q0 48 -19 83.5t-39 56t-78 38.5t-89 25t-118 22q-3 1 -5 1.5t-5 1t-5.5 1t-5.5 0.5q-86 15 -142.5 28.5t-114 36.5t-90 51.5t-53 72t-20.5 100.5q0 87 54.5 149t142.5 90.5t198 28.5t194.5 -29.5
t133 -78.5t72.5 -106.5t24 -120.5h-41q0 57 -19.5 107t-61.5 94.5t-119.5 71t-182.5 26.5q-161 0 -257.5 -58t-96.5 -176q0 -108 89.5 -160.5t289.5 -85.5q176 -29 234 -49q126 -42 158 -135q13 -38 13 -86q0 -122 -102 -199.5t-293 -78.5l-27 -105q37 0 59 -1t54.5 -9
t50 -22t31.5 -43t14 -70q0 -68 -33 -113t-87 -62t-115 -17t-125 16v40q57 -16 111.5 -18t101.5 11t75.5 49.5t28.5 93.5q0 20 -3.5 36.5t-11.5 27.5t-16.5 19t-23.5 12.5t-26.5 7.5t-31 3.5t-32.5 0.5t-35.5 -0.5t-34.5 -0.5l35 144q-102 4 -186 35.5t-136.5 79t-81 104.5
t-28.5 116h41z" />
    <glyph glyph-name="Scaron" unicode="&#x160;" horiz-adv-x="1529" 
d="M481 1843h54l231 -237l231 237h54l-269 -278h-32zM213 432q0 -65 18 -122.5t61 -111.5t107 -93t163.5 -62t223.5 -23q267 0 399 93t132 252q0 39 -6.5 71.5t-17 58t-30 46t-38.5 35.5t-50 28t-57.5 21.5t-67.5 17.5t-73 14.5t-82 13.5q-59 10 -90 15q-79 14 -127 23.5
t-111.5 25t-101.5 30.5t-82 37t-69.5 48t-48.5 60t-32.5 77.5t-9.5 95.5q0 181 147.5 276t399.5 95q131 0 234 -26t168.5 -69.5t108 -103t60 -122t17.5 -132.5h-49q0 66 -15 123t-53.5 111.5t-98 92.5t-155 61.5t-217.5 23.5q-153 0 -261.5 -33t-172.5 -109t-64 -192
q0 -39 7.5 -72.5t20 -60.5t35 -49.5t46.5 -40t61 -33t71.5 -27t85.5 -23t96.5 -19.5t109.5 -19q25 -4 73 -12q106 -17 158 -27t128 -36.5t111.5 -60t63 -93t27.5 -141.5q0 -172 -146 -278.5t-434 -106.5q-131 0 -237.5 26t-177 69.5t-118 102t-68.5 122t-21 132.5h49z" />
    <glyph glyph-name="scaron" unicode="&#x161;" horiz-adv-x="1196" 
d="M313 1434h54l231 -238l231 238h54l-269 -279h-32zM205 315q0 -54 27 -106.5t78 -96t134 -70t185 -26.5q182 0 272 66t90 176q0 48 -19 83.5t-39 56t-78 38.5t-89 25t-118 22q-3 1 -5 1.5t-5 1t-5.5 1t-5.5 0.5q-86 15 -142.5 28.5t-114 36.5t-90 51.5t-53 72t-20.5 100.5
q0 87 54.5 149t142.5 90.5t198 28.5t194.5 -29.5t133 -78.5t72.5 -106.5t24 -120.5h-41q0 57 -19.5 107t-61.5 94.5t-119.5 71t-182.5 26.5q-161 0 -257.5 -58t-96.5 -176q0 -108 89.5 -160.5t289.5 -85.5q176 -29 234 -49q126 -42 158 -135q13 -38 13 -86
q0 -124 -104.5 -201t-298.5 -77q-110 0 -200.5 29.5t-147 78t-87 107.5t-30.5 120h41z" />
    <glyph glyph-name="uni0162" unicode="&#x162;" horiz-adv-x="1482" 
d="M102 1434h1278v-41h-616v-1393h-45v1393h-617v41zM670 -254q-25 27 -25 64t26 62.5t64 25.5q37 0 62.5 -25.5t25.5 -62.5q0 -28 -12 -46l-115 -215h-37l72 170q-37 1 -61 27z" />
    <glyph glyph-name="uni0163" unicode="&#x163;" horiz-adv-x="901" 
d="M102 1024h213v246h41v-246h443v-37h-443v-649q0 -152 63.5 -226.5t211.5 -74.5h166v-37h-166q-164 1 -240 87t-76 251v649h-213v37zM500 -254q-25 27 -25 64t26 62.5t64 25.5q37 0 62.5 -25.5t25.5 -62.5q0 -28 -12 -46l-115 -215h-37l72 170q-37 1 -61 27z" />
    <glyph glyph-name="Tcaron" unicode="&#x164;" horiz-adv-x="1482" 
d="M457 1843h53l231 -237l232 237h53l-268 -278h-33zM102 1434h1278v-41h-616v-1393h-45v1393h-617v41z" />
    <glyph glyph-name="tcaron" unicode="&#x165;" horiz-adv-x="1124" 
d="M865 1303q-25 26 -25 63t26 62.5t64 25.5q37 0 62.5 -25.5t25.5 -62.5q0 -27 -12 -45l-115 -215h-37l72 170q-37 1 -61 27zM102 1024h213v246h41v-246h443v-37h-443v-649q0 -152 63.5 -226.5t211.5 -74.5h166v-37h-166q-164 1 -240 87t-76 251v649h-213v37z" />
    <glyph glyph-name="Tbar" unicode="&#x166;" horiz-adv-x="1482" 
d="M322 717h397v676h-617v41h1278v-41h-616v-676h397v-41h-397v-676h-45v676h-397v41z" />
    <glyph glyph-name="tbar" unicode="&#x167;" horiz-adv-x="901" 
d="M102 1024h213v246h41v-246h443v-37h-443v-340h443v-37h-443v-272q0 -152 63.5 -226.5t211.5 -74.5h166v-37h-166q-164 1 -240 87t-76 251v272h-213v37h213v340h-213v37z" />
    <glyph glyph-name="Utilde" unicode="&#x168;" horiz-adv-x="1595" 
d="M805 1675q29 -12 41.5 -16.5t34 -12.5t30.5 -9t25 -3.5t23 1t19.5 8t19.5 14t17.5 22.5t19.5 30t20 40l32 -12q-19 -43 -37.5 -71.5t-40.5 -43.5t-42 -21t-50 -1.5t-56 13t-68 25.5q-102 40 -135 41q-48 2 -81 -51q-15 -24 -32 -63l-35 12q18 42 37 70.5t41 43t42.5 20.5
t50.5 1.5t56.5 -13t67.5 -24.5zM1325 1434h45v-840q0 -310 -151.5 -462t-432.5 -152q-561 0 -561 614v840h45v-840q0 -295 128.5 -434.5t387.5 -139.5q262 0 400.5 140.5t138.5 433.5v840z" />
    <glyph glyph-name="utilde" unicode="&#x169;" horiz-adv-x="1333" 
d="M674 1266q30 -12 41.5 -16.5t34 -12.5t30.5 -9.5t25 -3.5t23.5 1t19.5 8t19.5 14.5t17.5 22t19.5 29.5t19.5 40l32 -12q-19 -43 -37.5 -71.5t-40.5 -43.5t-42 -21t-50 -1t-56 13.5t-68 25.5q-28 11 -40.5 16t-34.5 12.5t-31 9t-25.5 3.5t-24 -1.5t-19.5 -8t-19.5 -14
t-17.5 -22t-18 -30t-18 -39.5l-35 12q22 51 46 81t47.5 44t57 12.5t64.5 -10.5t80 -28zM1292 37v-37h-32q-69 1 -110 12.5t-64.5 43.5t-31 77t-7.5 123v16q-48 -129 -164.5 -210.5t-257.5 -81.5q-118 0 -201.5 30.5t-130.5 89t-67.5 131.5t-20.5 168v625h41v-625
q0 -70 10.5 -125.5t36.5 -105t68.5 -82t109 -51.5t154.5 -19q168 0 295 119.5t127 284.5v604h40v-768q0 -44 1.5 -70.5t7.5 -54.5t17 -43t30 -28t48 -18t69 -5h32z" />
    <glyph glyph-name="Umacron" unicode="&#x16a;" horiz-adv-x="1595" 
d="M584 1659h430v-41h-430v41zM1325 1434h45v-840q0 -310 -151.5 -462t-432.5 -152q-561 0 -561 614v840h45v-840q0 -295 128.5 -434.5t387.5 -139.5q262 0 400.5 140.5t138.5 433.5v840z" />
    <glyph glyph-name="umacron" unicode="&#x16b;" horiz-adv-x="1333" 
d="M453 1249h430v-41h-430v41zM1292 37v-37h-32q-69 1 -110 12.5t-64.5 43.5t-31 77t-7.5 123v16q-48 -129 -164.5 -210.5t-257.5 -81.5q-118 0 -201.5 30.5t-130.5 89t-67.5 131.5t-20.5 168v625h41v-625q0 -70 10.5 -125.5t36.5 -105t68.5 -82t109 -51.5t154.5 -19
q168 0 295 119.5t127 284.5v604h40v-768q0 -44 1.5 -70.5t7.5 -54.5t17 -43t30 -28t48 -18t69 -5h32z" />
    <glyph glyph-name="Ubreve" unicode="&#x16c;" horiz-adv-x="1595" 
d="M516 1905h39q0 -136 67 -206.5t177 -70.5t176.5 70.5t66.5 206.5h39q0 -151 -75.5 -235.5t-206.5 -84.5q-132 0 -207.5 84.5t-75.5 235.5zM1325 1434h45v-840q0 -310 -151.5 -462t-432.5 -152q-561 0 -561 614v840h45v-840q0 -295 128.5 -434.5t387.5 -139.5
q262 0 400.5 140.5t138.5 433.5v840z" />
    <glyph glyph-name="ubreve" unicode="&#x16d;" horiz-adv-x="1333" 
d="M385 1495h39q0 -136 66.5 -206t177.5 -70q110 0 176.5 70t66.5 206h39q0 -151 -75 -235t-207 -84t-207.5 84t-75.5 235zM1292 37v-37h-32q-69 1 -110 12.5t-64.5 43.5t-31 77t-7.5 123v16q-48 -129 -164.5 -210.5t-257.5 -81.5q-118 0 -201.5 30.5t-130.5 89t-67.5 131.5
t-20.5 168v625h41v-625q0 -70 10.5 -125.5t36.5 -105t68.5 -82t109 -51.5t154.5 -19q168 0 295 119.5t127 284.5v604h40v-768q0 -44 1.5 -70.5t7.5 -54.5t17 -43t30 -28t48 -18t69 -5h32z" />
    <glyph glyph-name="Uring" unicode="&#x16e;" horiz-adv-x="1595" 
d="M650 1586q-62 62 -62 149t62 149t149 62q86 0 148.5 -62.5t62.5 -148.5t-62.5 -148.5t-148.5 -62.5q-87 0 -149 62zM627 1735q0 -67 52.5 -119.5t119.5 -52.5q66 0 119 52.5t53 119.5q0 66 -53 119t-119 53q-67 0 -119.5 -53t-52.5 -119zM1325 1434h45v-840
q0 -310 -151.5 -462t-432.5 -152q-561 0 -561 614v840h45v-840q0 -295 128.5 -434.5t387.5 -139.5q262 0 400.5 140.5t138.5 433.5v840z" />
    <glyph glyph-name="uring" unicode="&#x16f;" horiz-adv-x="1333" 
d="M519 1176q-62 62 -62 149t62 149t149 62q86 0 148.5 -62.5t62.5 -148.5t-62.5 -148.5t-148.5 -62.5q-87 0 -149 62zM496 1325q0 -67 52 -119.5t120 -52.5q66 0 119 52.5t53 119.5q0 66 -53 119t-119 53q-67 0 -119.5 -53t-52.5 -119zM1292 37v-37h-32q-69 1 -110 12.5
t-64.5 43.5t-31 77t-7.5 123v16q-48 -129 -164.5 -210.5t-257.5 -81.5q-118 0 -201.5 30.5t-130.5 89t-67.5 131.5t-20.5 168v625h41v-625q0 -70 10.5 -125.5t36.5 -105t68.5 -82t109 -51.5t154.5 -19q168 0 295 119.5t127 284.5v604h40v-768q0 -44 1.5 -70.5t7.5 -54.5
t17 -43t30 -28t48 -18t69 -5h32z" />
    <glyph glyph-name="Uhungarumlaut" unicode="&#x170;" horiz-adv-x="1595" 
d="M942 1565l123 319h43l-127 -319h-39zM612 1565l123 319h43l-127 -319h-39zM1325 1434h45v-840q0 -310 -151.5 -462t-432.5 -152q-561 0 -561 614v840h45v-840q0 -295 128.5 -434.5t387.5 -139.5q262 0 400.5 140.5t138.5 433.5v840z" />
    <glyph glyph-name="uhungarumlaut" unicode="&#x171;" horiz-adv-x="1333" 
d="M811 1155l123 320h43l-127 -320h-39zM481 1155l123 320h43l-127 -320h-39zM1292 37v-37h-32q-69 1 -110 12.5t-64.5 43.5t-31 77t-7.5 123v16q-48 -129 -164.5 -210.5t-257.5 -81.5q-118 0 -201.5 30.5t-130.5 89t-67.5 131.5t-20.5 168v625h41v-625q0 -70 10.5 -125.5
t36.5 -105t68.5 -82t109 -51.5t154.5 -19q168 0 295 119.5t127 284.5v604h40v-768q0 -44 1.5 -70.5t7.5 -54.5t17 -43t30 -28t48 -18t69 -5h32z" />
    <glyph glyph-name="Uogonek" unicode="&#x172;" horiz-adv-x="1595" 
d="M1325 1434h45v-840q0 -290 -133.5 -442t-382.5 -170q-6 -9 -23.5 -33t-23.5 -34t-19 -30.5t-18.5 -33.5t-12.5 -31.5t-9.5 -37t-2.5 -38.5q0 -52 28.5 -86t75.5 -46.5t102 -10.5t112 18v-41q-64 -16 -125.5 -16.5t-115.5 15.5t-87 59t-33 108q0 44 18.5 90t35 70.5
t53.5 75.5h-23q-561 0 -561 614v840h45v-840q0 -295 128.5 -434.5t387.5 -139.5q262 0 400.5 140.5t138.5 433.5v840z" />
    <glyph glyph-name="uogonek" unicode="&#x173;" horiz-adv-x="1333" 
d="M1292 37v-37h-32q-82 2 -126.5 20.5t-64.5 61.5q-34 -48 -49 -71.5t-30 -65t-15 -82.5q0 -52 28.5 -86t75 -46.5t101.5 -10.5t112 18v-41q-64 -16 -125.5 -16.5t-115 15.5t-86.5 59t-33 108q0 30 5.5 56.5t23 58.5t25 45.5t36.5 53.5t33 46l2 -2q-10 44 -10 135v16
q-48 -129 -164.5 -210.5t-257.5 -81.5q-118 0 -201.5 30.5t-130.5 89t-67.5 131.5t-20.5 168v625h41v-625q0 -70 10.5 -125.5t36.5 -105t68.5 -82t109 -51.5t154.5 -19q168 0 295 119.5t127 284.5v604h40v-768q0 -44 1.5 -70.5t7.5 -54.5t17 -43t30 -28t48 -18t69 -5h32z
" />
    <glyph glyph-name="Wcircumflex" unicode="&#x174;" horiz-adv-x="2093" 
d="M762 1585l268 279h33l268 -279h-53l-231 238l-232 -238h-53zM573 0l-471 1434h45l449 -1364l428 1364h45l428 -1364l449 1364h45l-471 -1434h-45l-428 1362l-429 -1362h-45z" />
    <glyph glyph-name="wcircumflex" unicode="&#x175;" horiz-adv-x="1517" 
d="M475 1176l268 278h33l268 -278h-53l-231 237l-232 -237h-53zM102 1024h43l287 -954l305 954h43l305 -954l287 954h43l-307 -1024h-43l-305 956l-307 -956h-43z" />
    <glyph glyph-name="Ycircumflex" unicode="&#x176;" horiz-adv-x="1478" 
d="M455 1585l268 279h33l268 -279h-53l-232 238l-231 -238h-53zM717 430l-615 1004h54l583 -953l584 953h53l-614 -1004v-430h-45v430z" />
    <glyph glyph-name="ycircumflex" unicode="&#x177;" horiz-adv-x="1171" 
d="M301 1176l268 278h33l268 -278h-53l-231 237l-232 -237h-53zM1069 1024l-459 -1044q-10 -22 -27 -62q-29 -68 -44 -99.5t-44.5 -78.5t-59 -67.5t-76.5 -43.5t-110 -31t-147 -8v41q54 0 99 4.5t80 10.5t64.5 19.5t50 25.5t40 33.5t31.5 38.5t26.5 46.5t23 50.5t24 58
t26.5 62l11 20h-3l-471 1024h43l449 -977l430 977h43z" />
    <glyph glyph-name="Ydieresis" unicode="&#x178;" horiz-adv-x="1478" 
d="M457 1688q0 37 26 62.5t64 25.5q37 0 62.5 -25.5t25.5 -62.5q0 -38 -25.5 -64.5t-62.5 -26.5q-38 0 -64 26.5t-26 64.5zM846 1688q0 37 26 62.5t64 25.5q37 0 62.5 -25.5t25.5 -62.5q0 -38 -25.5 -64.5t-62.5 -26.5q-38 0 -64 26.5t-26 64.5zM717 430l-615 1004h54
l583 -953l584 953h53l-614 -1004v-430h-45v430z" />
    <glyph glyph-name="Zacute" unicode="&#x179;" horiz-adv-x="1286" 
d="M602 1565l123 319h43l-127 -319h-39zM1130 1434v-33l-966 -1360h1020v-41h-1082v33l969 1360h-952v41h1011z" />
    <glyph glyph-name="zacute" unicode="&#x17a;" horiz-adv-x="1101" 
d="M530 1155l123 320h43l-127 -320h-39zM946 1024v-29l-764 -958h817v-37h-876v29l766 958h-750v37h807z" />
    <glyph glyph-name="Zdotaccent" unicode="&#x17b;" horiz-adv-x="1286" 
d="M555 1688q0 37 26 62.5t64 25.5q37 0 62.5 -25.5t25.5 -62.5q0 -38 -25.5 -64.5t-62.5 -26.5q-38 0 -64 26.5t-26 64.5zM1130 1434v-33l-966 -1360h1020v-41h-1082v33l969 1360h-952v41h1011z" />
    <glyph glyph-name="zdotaccent" unicode="&#x17c;" horiz-adv-x="1101" 
d="M463 1278q0 37 26 62.5t64 25.5q37 0 62.5 -25.5t25.5 -62.5q0 -38 -25.5 -64t-62.5 -26q-38 0 -64 26t-26 64zM946 1024v-29l-764 -958h817v-37h-876v29l766 958h-750v37h807z" />
    <glyph glyph-name="Zcaron" unicode="&#x17d;" horiz-adv-x="1286" 
d="M358 1843h54l231 -237l231 237h54l-269 -278h-32zM1130 1434v-33l-966 -1360h1020v-41h-1082v33l969 1360h-952v41h1011z" />
    <glyph glyph-name="zcaron" unicode="&#x17e;" horiz-adv-x="1101" 
d="M266 1434h53l232 -238l231 238h54l-269 -279h-32zM946 1024v-29l-764 -958h817v-37h-876v29l766 958h-750v37h807z" />
    <glyph glyph-name="longs" unicode="&#x17f;" horiz-adv-x="808" 
d="M707 1417h-166q-148 0 -211.5 -74.5t-63.5 -226.5v-1116h-41v1116q0 165 76 251t240 87h166v-37z" />
    <glyph glyph-name="florin" unicode="&#x192;" horiz-adv-x="815" 
d="M711 1417h-166q-148 0 -211.5 -74.5t-63.5 -226.5v-112h443v-37h-443v-1039q0 -166 -76 -251.5t-239 -86.5h-166v37h166q148 0 211 74.5t63 226.5v1039h-213v37h213v112q0 165 76 251t240 87h166v-37z" />
    <glyph glyph-name="uni0218" unicode="&#x218;" horiz-adv-x="1529" 
d="M213 432q0 -65 18 -122.5t61 -111.5t107 -93t163.5 -62t223.5 -23q267 0 399 93t132 252q0 39 -6.5 71.5t-17 58t-30 46t-38.5 35.5t-50 28t-57.5 21.5t-67.5 17.5t-73 14.5t-82 13.5q-59 10 -90 15q-79 14 -127 23.5t-111.5 25t-101.5 30.5t-82 37t-69.5 48t-48.5 60
t-32.5 77.5t-9.5 95.5q0 181 147.5 276t399.5 95q131 0 234 -26t168.5 -69.5t108 -103t60 -122t17.5 -132.5h-49q0 66 -15 123t-53.5 111.5t-98 92.5t-155 61.5t-217.5 23.5q-153 0 -261.5 -33t-172.5 -109t-64 -192q0 -39 7.5 -72.5t20 -60.5t35 -49.5t46.5 -40t61 -33
t71.5 -27t85.5 -23t96.5 -19.5t109.5 -19q25 -4 73 -12q106 -17 158 -27t128 -36.5t111.5 -60t63 -93t27.5 -141.5q0 -172 -146 -278.5t-434 -106.5q-131 0 -237.5 26t-177 69.5t-118 102t-68.5 122t-21 132.5h49zM691 -254q-25 27 -25 64t26 62.5t64 25.5q37 0 62.5 -25.5
t25.5 -62.5q0 -26 -13 -46l-114 -215h-37l72 170q-37 1 -61 27z" />
    <glyph glyph-name="uni0219" unicode="&#x219;" horiz-adv-x="1196" 
d="M205 315q0 -54 27 -106.5t78 -96t134 -70t185 -26.5q182 0 272 66t90 176q0 48 -19 83.5t-39 56t-78 38.5t-89 25t-118 22q-3 1 -5 1.5t-5 1t-5.5 1t-5.5 0.5q-86 15 -142.5 28.5t-114 36.5t-90 51.5t-53 72t-20.5 100.5q0 87 54.5 149t142.5 90.5t198 28.5t194.5 -29.5
t133 -78.5t72.5 -106.5t24 -120.5h-41q0 57 -19.5 107t-61.5 94.5t-119.5 71t-182.5 26.5q-161 0 -257.5 -58t-96.5 -176q0 -108 89.5 -160.5t289.5 -85.5q176 -29 234 -49q126 -42 158 -135q13 -38 13 -86q0 -124 -104.5 -201t-298.5 -77q-110 0 -200.5 29.5t-147 78
t-87 107.5t-30.5 120h41zM545 -254q-25 27 -25 64t26 62.5t64 25.5q37 0 62.5 -25.5t25.5 -62.5q0 -28 -12 -46l-115 -215h-36l71 170q-37 1 -61 27z" />
    <glyph glyph-name="uni021A" unicode="&#x21a;" horiz-adv-x="1482" 
d="M102 1434h1278v-41h-616v-1393h-45v1393h-617v41zM668 -254q-25 27 -25 64t26 62.5t64 25.5q37 0 62.5 -25.5t25.5 -62.5q0 -28 -12 -46l-115 -215h-37l72 170q-37 1 -61 27z" />
    <glyph glyph-name="uni021B" unicode="&#x21b;" horiz-adv-x="901" 
d="M102 1024h213v246h41v-246h443v-37h-443v-649q0 -152 63.5 -226.5t211.5 -74.5h166v-37h-166q-164 1 -240 87t-76 251v649h-213v37zM500 -254q-25 27 -25 64t26 62.5t64 25.5q37 0 62.5 -25.5t25.5 -62.5q0 -28 -12 -46l-115 -215h-37l72 170q-37 1 -61 27z" />
    <glyph glyph-name="uni0237" unicode="&#x237;" horiz-adv-x="409" 
d="M145 1395q0 25 18 42t44 17q25 0 42 -17t17 -42q0 -26 -17 -44t-42 -18q-26 0 -44 18t-18 44zM-215 -373h125q148 0 211 74.5t63 226.5v1096h41v-1096q0 -166 -76 -252t-239 -86h-125v37z" />
    <glyph glyph-name="circumflex" unicode="&#x2c6;" horiz-adv-x="856" 
d="M143 1176l269 278h32l269 -278h-54l-231 237l-231 -237h-54z" />
    <glyph glyph-name="caron" unicode="&#x2c7;" horiz-adv-x="856" 
d="M143 1434h54l231 -238l231 238h54l-269 -279h-32z" />
    <glyph glyph-name="uni02C9" unicode="&#x2c9;" horiz-adv-x="716" 
d="M143 1290h430v-41h-430v41z" />
    <glyph glyph-name="breve" unicode="&#x2d8;" horiz-adv-x="851" 
d="M143 1495h39q0 -136 66.5 -206t177.5 -70t177.5 70t66.5 206h39q0 -151 -75.5 -235t-207.5 -84t-207.5 84t-75.5 235z" />
    <glyph glyph-name="dotaccent" unicode="&#x2d9;" horiz-adv-x="464" 
d="M143 1278q0 37 26 62.5t64 25.5q37 0 63 -25.5t26 -62.5q0 -38 -26 -64t-63 -26q-38 0 -64 26t-26 64z" />
    <glyph glyph-name="ring" unicode="&#x2da;" horiz-adv-x="708" 
d="M205 1176q-62 62 -62 149t62 149t149 62q86 0 148.5 -62.5t62.5 -148.5t-62.5 -148.5t-148.5 -62.5q-87 0 -149 62zM182 1325q0 -67 52 -119.5t120 -52.5q66 0 119 52.5t53 119.5q0 66 -53 119t-119 53q-67 0 -119.5 -53t-52.5 -119z" />
    <glyph glyph-name="ogonek" unicode="&#x2db;" horiz-adv-x="647" 
d="M266 0l29 -23q-5 -7 -27 -38t-27.5 -40t-20.5 -34t-19.5 -40t-9.5 -38.5t-5 -46.5q0 -52 28.5 -86t75.5 -46.5t102 -10.5t112 18v-41q-64 -16 -125.5 -16.5t-115.5 15.5t-87 59t-33 108q0 30 5.5 56.5t23 58.5t25 45.5t36.5 53.5t33 46z" />
    <glyph glyph-name="tilde" unicode="&#x2dc;" horiz-adv-x="864" 
d="M438 1266q30 -12 41.5 -16.5t34 -12.5t30.5 -9.5t25 -3.5t23.5 1t19.5 8t19.5 14.5t17.5 22t19.5 29.5t19.5 40l33 -12q-23 -51 -46.5 -81.5t-47 -44.5t-57 -12t-64 11t-80.5 29q-28 11 -40.5 16t-34.5 12.5t-31 9t-25.5 3.5t-24 -1.5t-19.5 -8t-19.5 -14t-17.5 -22
t-18 -30t-18 -39.5l-35 12q22 51 46 81t47.5 44t57 12.5t64.5 -10.5t80 -28z" />
    <glyph glyph-name="hungarumlaut" unicode="&#x2dd;" horiz-adv-x="782" 
d="M473 1155l123 320h43l-127 -320h-39zM143 1155l123 320h43l-127 -320h-39z" />
    <glyph glyph-name="uni0326" unicode="&#x326;" horiz-adv-x="546" 
d="M209 -254q-25 27 -25 64t26 62.5t64 25.5q37 0 62.5 -25.5t25.5 -62.5q0 -28 -12 -46l-114 -215h-37l71 170q-37 1 -61 27z" />
    <glyph glyph-name="uni0394" unicode="&#x394;" horiz-adv-x="1480" 
d="M143 0l574 1434h47l573 -1434h-1194zM205 41h1071l-535 1339z" />
    <glyph glyph-name="uni03A9" unicode="&#x3a9;" horiz-adv-x="1779" 
d="M1012 0v41q134 56 231.5 120t172.5 149t113 197t38 251q0 145 -58 270t-153.5 208t-217 130t-249.5 47t-249 -47t-216 -130t-153 -208t-58 -270q0 -139 37.5 -251t112.5 -197t172 -149t231 -120v-41h-602v41h506q-247 114 -376.5 285t-129.5 432q0 153 62.5 286
t164.5 221t232 138.5t266 50.5q109 0 215.5 -31.5t198.5 -92.5t162 -144t110.5 -194t40.5 -234q0 -261 -130.5 -432t-377.5 -285h506v-41h-602z" />
    <glyph glyph-name="uni03BC" unicode="&#x3bc;" horiz-adv-x="1292" 
d="M1292 37v-37h-32q-69 1 -110 12.5t-64.5 43.5t-31 77t-7.5 123v16q-48 -129 -164.5 -210.5t-257.5 -81.5q-293 0 -379 194v-584h-41v1434h41v-625q0 -70 10.5 -125.5t36.5 -105t68.5 -82t109 -51.5t154.5 -19q168 0 295 119.5t127 284.5v604h40v-768q0 -44 1.5 -70.5
t7.5 -54.5t17 -43t30 -28t48 -18t69 -5h32z" />
    <glyph glyph-name="pi" unicode="&#x3c0;" horiz-adv-x="1378" 
d="M143 1024h1010v-1024h-45v983h-682l-176 -983h-45l176 983h-238v41z" />
    <glyph glyph-name="Wgrave" unicode="&#x1e80;" horiz-adv-x="2093" 
d="M1049 1565h-39l-127 319h43zM573 0l-471 1434h45l449 -1364l428 1364h45l428 -1364l449 1364h45l-471 -1434h-45l-428 1362l-429 -1362h-45z" />
    <glyph glyph-name="wgrave" unicode="&#x1e81;" horiz-adv-x="1517" 
d="M760 1155h-39l-127 320h43zM102 1024h43l287 -954l305 954h43l305 -954l287 954h43l-307 -1024h-43l-305 956l-307 -956h-43z" />
    <glyph glyph-name="Wacute" unicode="&#x1e82;" horiz-adv-x="2093" 
d="M1047 1565l122 319h43l-127 -319h-38zM573 0l-471 1434h45l449 -1364l428 1364h45l428 -1364l449 1364h45l-471 -1434h-45l-428 1362l-429 -1362h-45z" />
    <glyph glyph-name="wacute" unicode="&#x1e83;" horiz-adv-x="1517" 
d="M758 1155l123 320h43l-127 -320h-39zM102 1024h43l287 -954l305 954h43l305 -954l287 954h43l-307 -1024h-43l-305 956l-307 -956h-43z" />
    <glyph glyph-name="Wdieresis" unicode="&#x1e84;" horiz-adv-x="2093" 
d="M764 1688q0 37 26 62.5t64 25.5q37 0 62.5 -25.5t25.5 -62.5q0 -38 -25.5 -64.5t-62.5 -26.5q-38 0 -64 26.5t-26 64.5zM1153 1688q0 37 26 62.5t64 25.5q37 0 62.5 -25.5t25.5 -62.5q0 -38 -25.5 -64.5t-62.5 -26.5q-38 0 -64 26.5t-26 64.5zM573 0l-471 1434h45
l449 -1364l428 1364h45l428 -1364l449 1364h45l-471 -1434h-45l-428 1362l-429 -1362h-45z" />
    <glyph glyph-name="wdieresis" unicode="&#x1e85;" horiz-adv-x="1517" 
d="M475 1278q0 37 26 62.5t64 25.5q37 0 62.5 -25.5t25.5 -62.5q0 -38 -25.5 -64t-62.5 -26q-38 0 -64 26t-26 64zM864 1278q0 37 26 62.5t64 25.5q37 0 62.5 -25.5t25.5 -62.5q0 -38 -25.5 -64t-62.5 -26q-38 0 -64 26t-26 64zM102 1024h43l287 -954l305 954h43l305 -954
l287 954h43l-307 -1024h-43l-305 956l-307 -956h-43z" />
    <glyph glyph-name="endash" unicode="&#x2013;" horiz-adv-x="1187" 
d="M184 532h820v-40h-820v40z" />
    <glyph glyph-name="emdash" unicode="&#x2014;" horiz-adv-x="1392" 
d="M184 532h1024v-40h-1024v40z" />
    <glyph glyph-name="quoteleft" unicode="&#x2018;" horiz-adv-x="546" 
d="M338 1257q24 -26 24 -63t-26 -62.5t-64 -25.5q-37 0 -62.5 25.5t-25.5 62.5q0 26 13 45l114 215h37l-72 -170q37 -1 62 -27z" />
    <glyph glyph-name="quoteright" unicode="&#x2019;" horiz-adv-x="546" 
d="M209 1303q-25 26 -25 63t26 62.5t64 25.5q37 0 62.5 -25.5t25.5 -62.5q0 -27 -12 -45l-114 -215h-37l71 170q-37 1 -61 27z" />
    <glyph glyph-name="quotesinglbase" unicode="&#x201a;" horiz-adv-x="546" 
d="M209 7q-25 26 -25 63t26 62.5t64 25.5q37 0 62.5 -25.5t25.5 -62.5q0 -27 -12 -45l-114 -215h-37l71 170q-37 1 -61 27z" />
    <glyph glyph-name="quotedblleft" unicode="&#x201c;" horiz-adv-x="874" 
d="M666 1257q24 -26 24 -63t-26 -62.5t-64 -25.5q-37 0 -62.5 25.5t-25.5 62.5q0 27 12 45l115 215h37l-72 -170q37 -1 62 -27zM338 1257q24 -26 24 -63t-26 -62.5t-64 -25.5q-37 0 -62.5 25.5t-25.5 62.5q0 26 13 45l114 215h37l-72 -170q37 -1 62 -27z" />
    <glyph glyph-name="quotedblright" unicode="&#x201d;" horiz-adv-x="874" 
d="M209 1303q-25 26 -25 63t26 62.5t64 25.5q37 0 62.5 -25.5t25.5 -62.5q0 -27 -12 -45l-114 -215h-37l71 170q-37 1 -61 27zM537 1303q-25 26 -25 63t26 62.5t64 25.5q37 0 62.5 -25.5t25.5 -62.5q0 -27 -12 -45l-115 -215h-37l72 170q-37 1 -61 27z" />
    <glyph glyph-name="quotedblbase" unicode="&#x201e;" horiz-adv-x="696" 
d="M225 -123v451h41l-10 -451h-31zM430 -123v451h41l-10 -451h-31z" />
    <glyph glyph-name="dagger" unicode="&#x2020;" horiz-adv-x="899" 
d="M432 1434h35v-410h289v-35h-289v-1399h-35v1399h-289v35h289v410z" />
    <glyph glyph-name="daggerdbl" unicode="&#x2021;" horiz-adv-x="899" 
d="M143 1024h289v410h35v-410h289v-35h-289v-954h289v-35h-289v-410h-35v410h-289v35h289v954h-289v35z" />
    <glyph glyph-name="bullet" unicode="&#x2022;" horiz-adv-x="894" 
d="M225 514q0 93 65 156t161 63q92 0 155.5 -63.5t63.5 -155.5q0 -96 -63 -160.5t-156 -64.5q-97 0 -161.5 64t-64.5 161z" />
    <glyph glyph-name="ellipsis" unicode="&#x2026;" horiz-adv-x="1640" 
d="M184 70q0 37 26 62.5t64 25.5q37 0 62.5 -25.5t25.5 -62.5q0 -38 -25.5 -64t-62.5 -26q-38 0 -64 26t-26 64zM731 70q0 37 26 62.5t64 25.5q37 0 62.5 -25.5t25.5 -62.5q0 -38 -25.5 -64t-62.5 -26q-38 0 -64 26t-26 64zM1278 70q0 37 26 62.5t64 25.5q37 0 62.5 -25.5
t25.5 -62.5q0 -38 -25.5 -64t-62.5 -26q-38 0 -64 26t-26 64z" />
    <glyph glyph-name="perthousand" unicode="&#x2030;" horiz-adv-x="2932" 
d="M243 687q-98 118 -98 325t98 324.5t263 117.5q166 0 264 -117.5t98 -324.5t-98 -325t-264 -118q-165 0 -263 118zM719 0l573 1434h35l-573 -1434h-35zM751 1320q-90 110 -245 110t-243.5 -110.5t-88.5 -307.5t88.5 -307.5t243.5 -110.5t244.5 110.5t89.5 307.5t-89 308z
M1276 98q-98 117 -98 324t97.5 324.5t262.5 117.5q166 0 264.5 -117.5t98.5 -324.5t-98.5 -324.5t-264.5 -117.5q-165 0 -262 118zM2162 98q-98 117 -98 324t98 324.5t263 117.5q166 0 264 -117.5t98 -324.5t-98 -324.5t-264 -117.5q-165 0 -263 118zM1783 730
q-90 110 -245 110t-243.5 -110.5t-88.5 -307.5t88.5 -307.5t243.5 -110.5t244.5 110.5t89.5 307.5t-89 308zM2670 730q-90 110 -245 110t-243.5 -110.5t-88.5 -307.5t88.5 -307.5t243.5 -110.5t244.5 110.5t89.5 307.5t-89 308z" />
    <glyph glyph-name="guilsinglleft" unicode="&#x2039;" horiz-adv-x="583" 
d="M143 512l248 430h49l-247 -430l247 -430h-49z" />
    <glyph glyph-name="guilsinglright" unicode="&#x203a;" horiz-adv-x="583" 
d="M440 512l-247 -430h-50l248 430l-248 430h50z" />
    <glyph glyph-name="fraction" unicode="&#x2044;" horiz-adv-x="894" 
d="M143 0l574 1434h35l-574 -1434h-35z" />
    <glyph glyph-name="Euro" unicode="&#x20ac;" horiz-adv-x="1656" 
d="M193 870q-13 -73 -13 -143t13 -143h817v-41h-809q53 -236 228 -369t405 -133q141 0 258 40.5t189.5 106t111.5 143t39 156.5h45q0 -67 -25.5 -135t-79 -131t-128 -112.5t-181 -79t-229.5 -29.5q-164 0 -305 63t-242 187.5t-137 292.5h-273v41h266q-12 68 -12 143
q0 76 12 143h-266v41h273q36 168 137 292.5t242 187.5t305 63q123 0 229.5 -29.5t181 -79t128 -112.5t79 -131t25.5 -135h-45q0 79 -39 156.5t-111.5 143t-189.5 106t-258 40.5q-230 0 -405 -133t-228 -369h809v-41h-817z" />
    <glyph glyph-name="trademark" unicode="&#x2122;" horiz-adv-x="1814" 
d="M145 1434h637v-21h-307v-696h-22v696h-308v21zM946 1434h23l340 -689l340 689h22v-717h-22v672l-332 -672h-17l-331 672v-672h-23v717z" />
    <glyph glyph-name="partialdiff" unicode="&#x2202;" 
d="M657 938q111 0 213 -51l-442 547h45l531 -643q124 -134 124 -332q0 -109 -40.5 -201t-107 -152t-150.5 -93t-173 -33q-90 0 -174.5 33t-151 93t-107 152t-40.5 201t40.5 201t107 152t151 93t174.5 33zM657 16q80 0 155.5 30.5t136.5 85t97.5 140t36.5 187.5t-36.5 187
t-97.5 140t-136.5 85t-155.5 30q-109 0 -205 -50.5t-159.5 -153.5t-63.5 -238q0 -102 37 -187.5t97.5 -140t136.5 -85t157 -30.5z" />
    <glyph glyph-name="product" unicode="&#x220f;" horiz-adv-x="1316" 
d="M225 1434h867v-1844h-45v1803h-777v-1803h-45v1844z" />
    <glyph glyph-name="summation" unicode="&#x2211;" horiz-adv-x="1234" 
d="M1092 1434v-41h-887l352 -881l-352 -881h887v-41h-949l369 922l-369 922h949z" />
    <glyph glyph-name="minus" unicode="&#x2212;" horiz-adv-x="1064" 
d="M184 532h697v-40h-697v40z" />
    <glyph glyph-name="uni2215" unicode="&#x2215;" horiz-adv-x="1017" 
d="M143 0l697 1434h34l-696 -1434h-35z" />
    <glyph glyph-name="uni2219" unicode="&#x2219;" horiz-adv-x="628" 
d="M225 512q0 37 26 62.5t64 25.5q37 0 62.5 -25.5t25.5 -62.5q0 -38 -25.5 -64t-62.5 -26q-38 0 -64 26t-26 64z" />
    <glyph glyph-name="radical" unicode="&#x221a;" horiz-adv-x="1607" 
d="M772 -205l-321 815h-306v39h324l322 -811l636 1596h35l-655 -1639h-35z" />
    <glyph glyph-name="infinity" unicode="&#x221e;" horiz-adv-x="1277" 
d="M1135 616q0 -104 -76 -180t-180 -76q-80 0 -145 45t-95 117q-30 -72 -95 -117t-143 -45q-106 0 -182 76t-76 180q0 106 76 182t182 76q78 0 143 -45.5t95 -117.5q30 72 95 117.5t145 45.5q104 0 180 -76t76 -182zM657 616q0 -91 65 -155t157 -64q91 0 155 64t64 155
q0 92 -64 157t-155 65q-92 0 -157 -65t-65 -157zM621 616q0 92 -64.5 157t-155.5 65q-92 0 -156.5 -65t-64.5 -157q0 -91 64.5 -155t156.5 -64q91 0 155.5 64t64.5 155z" />
    <glyph glyph-name="integral" unicode="&#x222b;" horiz-adv-x="876" 
d="M733 1417q-148 0 -211 -74.5t-63 -226.5v-1188q0 -165 -76 -251t-240 -87v37q148 0 211.5 74.5t63.5 226.5v1188q0 166 76 251.5t239 86.5v-37z" />
    <glyph glyph-name="approxequal" unicode="&#x2248;" horiz-adv-x="1308" 
d="M203 821q26 65 58 104.5t69.5 58.5t89.5 16.5t109 -18.5t137 -48q76 -31 124.5 -46t95 -20t77.5 9.5t58 47t50 89.5l21 47l32 -14l-18 -48q-26 -65 -58 -104.5t-69 -57.5t-89 -15.5t-108 18.5t-137 49q-63 26 -105.5 40t-85 22.5t-71 3.5t-56 -21t-48.5 -47t-41 -78
l-21 -49l-33 14z" />
    <glyph glyph-name="notequal" unicode="&#x2260;" horiz-adv-x="1064" 
d="M291 -201l166 529h-273v41h285l90 286h-375v41h389l168 537h35l-168 -537h273v-41h-287l-90 -286h377v-41h-389l-166 -529h-35z" />
    <glyph glyph-name="lessequal" unicode="&#x2264;" horiz-adv-x="1015" 
d="M143 602l729 422v-49l-675 -391l675 -391v-50l-729 422v37zM143 41h729v-41h-729v41z" />
    <glyph glyph-name="greaterequal" unicode="&#x2265;" horiz-adv-x="1015" 
d="M872 602v-37l-729 -422v50l676 391l-676 391v49zM872 41v-41h-729v41h729z" />
    <glyph glyph-name="uni24C5" unicode="&#x24c5;" horiz-adv-x="1845" 
d="M245 431q-59 136 -59 286t58.5 286.5t157 235.5t234.5 157t286 58t287 -58t236 -157t157.5 -235.5t58.5 -286.5q0 -200 -99 -369.5t-269 -268.5t-371 -99q-150 0 -286 58.5t-234.5 157.5t-156.5 235zM317 1069q-94 -162 -94 -352t94 -351.5t255 -255.5t350 -94
q190 0 352 94t256 255.5t94 351.5q0 143 -55.5 272.5t-150 223t-224 149t-272.5 55.5q-189 0 -350 -93.5t-255 -254.5zM971 1069q19 0 44 -4t61.5 -18t65 -36.5t49.5 -65t21 -97.5q0 -56 -21 -98.5t-49.5 -65.5t-65 -37t-61.5 -18t-44 -4h-246v-258h-47v702h293zM725 668
h246q16 0 35 2.5t48.5 13.5t52 29.5t39.5 53.5t17 81t-17 80.5t-39.5 52.5t-52 29t-49 13.5t-34.5 2.5h-246v-358z" />
    <glyph glyph-name="lozenge" unicode="&#x25ca;" horiz-adv-x="1071" 
d="M143 510l369 924h47l369 -924l-369 -920h-47zM883 510l-346 870l-349 -870l349 -866z" />
    <glyph glyph-name="fi" unicode="&#xfb01;" horiz-adv-x="1310" 
d="M797 1417h-166q-148 0 -211.5 -74.5t-63.5 -226.5v-92h770v-1024h-41v987h-729v-987h-41v987h-213v37h213v92q0 165 76 251t240 87h166v-37zM1047 1395q0 25 17.5 42t43.5 17q25 0 42 -17t17 -42q0 -26 -17 -44t-42 -18q-26 0 -43.5 18t-17.5 44z" />
    <glyph glyph-name="fl" unicode="&#xfb02;" horiz-adv-x="1392" 
d="M102 1024h213v92q0 165 76 251t240 87h516v-1198q0 -53 2.5 -82.5t11.5 -60t27.5 -44.5t50.5 -23t80 -9h33v-37h-33q-69 1 -110 12.5t-64.5 43.5t-31 77t-7.5 123v1161h-475q-148 0 -211.5 -74.5t-63.5 -226.5v-92h443v-37h-443v-987h-41v987h-213v37z" />
    <glyph glyph-name="zero.lnum_tnum" horiz-adv-x="1638" 
d="M379 177q-164 196 -164 540t164 540.5t438 196.5q276 0 440 -196.5t164 -540.5t-164 -540.5t-440 -196.5q-274 0 -438 197zM1223 1229q-149 184 -406 184t-405 -184t-148 -512t148 -512.5t405 -184.5t406 184.5t149 512.5t-149 512z" />
    <glyph glyph-name="one.lnum_tnum" horiz-adv-x="1638" 
d="M1092 1434h34v-1434h-45v1389l-555 -256l-14 34z" />
    <glyph glyph-name="two.lnum_tnum" horiz-adv-x="1638" 
d="M330 41l514 469q119 109 187.5 181t106.5 134.5t49 110t11 115.5q0 97 -34.5 168.5t-96 113t-137.5 61t-168 19.5q-98 0 -175.5 -27.5t-125.5 -71.5t-79 -104.5t-43.5 -121.5t-12.5 -127h-50q0 70 14.5 136.5t50.5 132t89 114.5t136.5 79.5t187.5 30.5t192 -24t156 -71.5
t106.5 -125.5t38.5 -180q0 -142 -73 -251t-306 -321l-485 -440h977v-41h-1030v41z" />
    <glyph glyph-name="three.lnum_tnum" horiz-adv-x="1638" 
d="M700 700v37h174q168 0 249 81.5t81 252.5q0 90 -32.5 157t-91.5 106.5t-134 59t-166 19.5q-99 0 -173 -23.5t-117.5 -61.5t-70.5 -93.5t-36.5 -110.5t-9.5 -123h-49q0 70 12.5 132t44.5 122.5t82.5 103t131.5 69t185 26.5q139 0 243.5 -40.5t167 -128t62.5 -212.5
q0 -282 -215 -350q297 -60 297 -340q0 -101 -41.5 -179.5t-114 -126t-163 -71.5t-195.5 -24q-130 0 -232 39t-163 104.5t-92 144t-31 164.5h49q0 -64 16.5 -122.5t53.5 -111.5t91.5 -92t135.5 -62t180 -23q92 0 171.5 20t145 61t103 113t37.5 168q0 315 -412 315h-174z" />
    <glyph glyph-name="four.lnum_tnum" horiz-adv-x="1638" 
d="M1087 1434h35v-963h328v-41h-328v-430h-45v430h-891v31zM256 471h821v889z" />
    <glyph glyph-name="five.lnum_tnum" horiz-adv-x="1638" 
d="M467 772l102 662h662v-41h-623l-86 -557q126 102 295 102q90 0 174.5 -33t151 -93t107 -152t40.5 -201t-40.5 -201t-107 -152t-151 -93t-174.5 -33q-89 0 -173 33t-150.5 93t-107 152t-40.5 201h45q0 -102 36.5 -187.5t97.5 -140t136.5 -85t155.5 -30.5q81 0 157 30.5
t136.5 85t97.5 140t37 187.5q0 135 -63.5 238t-159.5 153.5t-205 50.5q-84 0 -164 -33.5t-141 -95.5h-45z" />
    <glyph glyph-name="six.lnum_tnum" horiz-adv-x="1638" 
d="M817 938q90 0 174.5 -33t151 -93t107 -152t40.5 -201t-40.5 -201t-107 -152t-151 -93t-174.5 -33q-89 0 -173 33t-150.5 93t-107 152t-40.5 201q0 197 125 332l530 643h46l-443 -547q102 51 213 51zM817 16q81 0 157 30.5t136.5 85t97.5 140t37 187.5q0 135 -63.5 238
t-159.5 153.5t-205 50.5q-80 0 -155.5 -30t-136.5 -85t-97.5 -140t-36.5 -187t36.5 -187.5t97.5 -140t136.5 -85t155.5 -30.5z" />
    <glyph glyph-name="seven.lnum_tnum" horiz-adv-x="1638" 
d="M1274 1434v-33l-627 -1401h-55l633 1393h-860v41h909z" />
    <glyph glyph-name="eight.lnum_tnum" horiz-adv-x="1638" 
d="M467 1361q131 93 352 93t352.5 -93t131.5 -276q0 -141 -80 -228.5t-222 -121.5q157 -33 249.5 -125t92.5 -243q0 -80 -27.5 -144.5t-75.5 -109.5t-114.5 -75t-143 -44t-163.5 -14t-163.5 14t-143 44t-114.5 75t-75.5 109.5t-27.5 144.5q0 151 92.5 243t249.5 125
q-142 34 -221.5 121t-79.5 229q0 183 131 276zM498 836q117 -82 321 -82t321 81.5t117 249.5t-117 250t-321 82t-321 -82t-117 -250t117 -249zM669 28q70 -12 150 -12t150 12t131 38.5t104.5 67t68.5 100t25 133.5q0 92 -37.5 161t-105 109.5t-151.5 60t-185 19.5
t-185 -19.5t-151.5 -60t-105 -109.5t-37.5 -161q0 -74 25 -133.5t68.5 -100t104.5 -67t131 -38.5z" />
    <glyph glyph-name="nine.lnum_tnum" horiz-adv-x="1638" 
d="M819 475q-90 0 -174.5 33t-151 93t-107 152t-40.5 201t40.5 201.5t107 152t151 93t174.5 33.5q89 0 173 -33.5t150.5 -93t107 -152t40.5 -201.5q0 -196 -125 -331l-530 -643h-45l442 546q-102 -51 -213 -51zM819 1397q-81 0 -157 -30.5t-136.5 -85t-97.5 -140t-37 -187.5
q0 -135 63.5 -238t159.5 -153.5t205 -50.5q80 0 155.5 30t136.5 85t97.5 140t36.5 187t-36.5 187.5t-97.5 140t-136.5 85t-155.5 30.5z" />
    </font>
</defs>
</svg>
