<?xml version="1.0" standalone="no"?>
<!DOCTYPE svg PUBLIC "-//W3C//DTD SVG 1.1//EN" "http://www.w3.org/Graphics/SVG/1.1/DTD/svg11.dtd" >
<svg xmlns="http://www.w3.org/2000/svg" xmlns:xlink="http://www.w3.org/1999/xlink" version="1.1">
<metadata>
Created by FontForge 20230101 at Sat May 29 15:13:23 2021
 By Unknown
Tour de Force Font Foundry &#38; Dusan Jelesijevic
</metadata>
<defs>
<font id="Lupio-ExtraBold" horiz-adv-x="1206" >
  <font-face 
    font-family="Lupio-ExtraBold"
    font-weight="800"
    font-stretch="normal"
    units-per-em="2048"
    panose-1="0 0 0 0 0 0 0 0 0 0"
    ascent="1638"
    descent="-410"
    x-height="1024"
    cap-height="1434"
    bbox="-240 -512 3013 2111"
    underline-thickness="102"
    underline-position="-358"
    unicode-range="U+000D-FB02"
  />
<missing-glyph horiz-adv-x="1024" 
 />
    <glyph glyph-name=".notdef" horiz-adv-x="1024" 
 />
    <glyph glyph-name="uni0000" horiz-adv-x="0" 
 />
    <glyph glyph-name="uni000D" unicode="&#xd;" horiz-adv-x="512" 
 />
    <glyph glyph-name="space" unicode=" " horiz-adv-x="532" 
 />
    <glyph glyph-name="exclam" unicode="!" horiz-adv-x="567" 
d="M82 1434h403v-506l-36 -441h-330l-37 441v506zM76 190q0 88 60.5 147.5t150.5 59.5q88 0 147.5 -59.5t59.5 -147.5q0 -90 -59.5 -150t-147.5 -60q-91 0 -151 59.5t-60 150.5z" />
    <glyph glyph-name="quotedbl" unicode="&#x22;" horiz-adv-x="768" 
d="M63 983v451h293l-82 -451h-211zM412 983v451h293l-82 -451h-211z" />
    <glyph glyph-name="numbersign" unicode="#" horiz-adv-x="1339" 
d="M53 553h178l45 330h-223v286h264l39 267h285l-39 -267h244l39 267h305l-39 -267h135v-286h-176l-45 -330h221v-287h-262l-39 -266h-305l39 266h-244l-39 -266h-284l38 266h-137v287zM516 553h244l45 330h-244z" />
    <glyph glyph-name="dollar" unicode="$" horiz-adv-x="1495" 
d="M565 1843h328v-399q128 -17 226 -62t157.5 -110t89 -141.5t29.5 -163.5h-408q0 178 -252 178q-91 0 -151 -32t-60 -87q0 -68 56.5 -93t296.5 -69q224 -42 313 -75q170 -62 222 -186q26 -64 26 -148q0 -187 -133.5 -313t-391.5 -154v-398h-327v402q-135 19 -238.5 67.5
t-166 116.5t-93.5 146t-31 163h408q0 -88 78 -142t209 -54q81 0 141 12t98.5 42t38.5 75q0 24 -7.5 41.5t-28.5 31t-41.5 22t-64.5 17.5t-79 14.5t-102.5 16t-118.5 19.5q-256 46 -363.5 150t-107.5 282q0 168 125 280.5t323 147.5v403z" />
    <glyph glyph-name="percent" unicode="%" horiz-adv-x="2146" 
d="M165 686q-110 117 -110 326t109.5 325.5t306.5 116.5t306.5 -116.5t109.5 -325.5t-110 -326t-306 -117t-306 117zM662 0l573 1434h250l-574 -1434h-249zM643 1012q0 245 -172 245t-172 -245q0 -246 172 -246t172 246zM1370 97q-110 116 -110 325t109.5 325.5t305.5 116.5
q197 0 306.5 -116.5t109.5 -325.5t-109.5 -325.5t-306.5 -116.5q-196 0 -305 117zM1847 422q0 246 -172 246t-172 -246t172 -246t172 246z" />
    <glyph glyph-name="ampersand" unicode="&#x26;" horiz-adv-x="1486" 
d="M1454 575h-207v-141q0 -69 -19 -132.5t-64.5 -123t-113.5 -103t-172.5 -69.5t-234.5 -26q-176 0 -305 41.5t-205 133.5t-76 228q0 130 87 214t231 118q-236 79 -236 323q0 80 30.5 148.5t83 117t122 83t148 51t161.5 16.5q124 0 223.5 -29t161 -75t102.5 -106.5
t57.5 -118t16.5 -115.5h-405q0 66 -39 91t-113 25q-65 0 -103 -34.5t-38 -96.5q0 -58 34.5 -94.5t114.5 -36.5h758v-289zM840 575h-232q-74 0 -108.5 -32t-34.5 -97q0 -137 188 -137q109 0 148 34t39 91v141z" />
    <glyph glyph-name="quotesingle" unicode="'" horiz-adv-x="419" 
d="M63 983v451h293l-82 -451h-211z" />
    <glyph glyph-name="parenleft" unicode="(" horiz-adv-x="841" 
d="M414 522q0 -84 13 -161t30 -134t49 -113.5t56 -91.5t64.5 -77t61 -59.5t60 -50t47.5 -38.5l-179 -207q-42 19 -89 48.5t-102 76t-105.5 103t-99 132.5t-83.5 160.5t-56.5 191t-21.5 220.5q0 157 40.5 300t100.5 242.5t135 181.5t137.5 127t115.5 69l178 -207
q-8 -8 -53 -48.5t-76 -71t-77 -93.5t-74.5 -128t-50 -163.5t-21.5 -208.5z" />
    <glyph glyph-name="parenright" unicode=")" horiz-adv-x="841" 
d="M428 522q0 110 -21.5 208.5t-50 163.5t-74.5 128t-77 93.5t-76 71t-53 48.5l178 207q53 -24 115.5 -69t137.5 -127t134.5 -181.5t100 -242.5t40.5 -300q0 -114 -21.5 -220.5t-56.5 -191t-83.5 -160.5t-99 -132.5t-105.5 -103t-102 -76t-89 -48.5l-178 207q8 6 47.5 38.5
t60 50t61 59.5t64.5 77t56 91.5t49 113.5t30 134t13 161z" />
    <glyph glyph-name="asterisk" unicode="*" horiz-adv-x="1007" 
d="M141 842l256 219l-319 121l112 192l265 -217l-62 373h223l-63 -373l266 217l111 -192l-320 -121l256 -219l-172 -144l-190 324l-191 -324z" />
    <glyph glyph-name="plus" unicode="+" horiz-adv-x="849" 
d="M78 641h219v221h256v-221h221v-256h-221v-219h-256v219h-219v256z" />
    <glyph glyph-name="comma" unicode="," horiz-adv-x="598" 
d="M78 207q0 91 64.5 154t160.5 63q91 0 155 -63t64 -154q0 -65 -33 -123l-208 -391h-197l141 299q-67 23 -107 81t-40 134z" />
    <glyph glyph-name="hyphen" unicode="-" horiz-adv-x="768" 
d="M78 641h614v-256h-614v256z" />
    <glyph glyph-name="period" unicode="." horiz-adv-x="598" 
d="M78 205q0 92 64.5 155.5t160.5 63.5q91 0 155 -64t64 -155q0 -96 -63.5 -160.5t-155.5 -64.5q-97 0 -161 64t-64 161z" />
    <glyph glyph-name="slash" unicode="/" horiz-adv-x="880" 
d="M53 0l451 1434h321l-450 -1434h-322z" />
    <glyph glyph-name="zero" unicode="0" horiz-adv-x="1503" 
d="M243 175q-184 195 -184 542t183.5 542t509.5 195t509 -195t183 -542t-183 -542t-509 -195t-509 195zM752 1126q-285 0 -285 -409q0 -410 285 -410q284 0 284 410q0 409 -284 409z" />
    <glyph glyph-name="one" unicode="1" horiz-adv-x="978" 
d="M612 1434h285v-1434h-403v1051l-347 -158l-114 274z" />
    <glyph glyph-name="two" unicode="2" horiz-adv-x="1304" 
d="M111 328l530 450q81 70 110 117.5t29 103.5q0 44 -14 74.5t-38.5 45t-48 20.5t-50.5 6q-49 0 -81.5 -17.5t-50.5 -53t-25 -79.5t-7 -106h-408q0 83 15.5 158.5t55.5 151.5t102 131t164 89.5t233 34.5q85 0 161.5 -13.5t151 -47.5t128.5 -86t87 -136.5t33 -191.5
q0 -246 -361 -516l-180 -135h600v-328h-1136v328z" />
    <glyph glyph-name="three" unicode="3" horiz-adv-x="1288" 
d="M473 584v272h156q65 0 98 37.5t33 107.5q0 144 -142 144q-69 0 -101 -43t-32 -154h-407q0 105 33 195t97.5 160.5t170.5 110.5t242 40q149 0 267 -45t189.5 -138t71.5 -220q0 -107 -46.5 -188.5t-129.5 -129.5q121 -41 190.5 -123.5t69.5 -208.5q0 -128 -74.5 -224
t-203.5 -145.5t-293 -49.5q-148 0 -266.5 42.5t-190.5 112.5t-110 156t-38 178h408q0 -83 48 -131.5t136 -48.5q84 0 130 46t46 120q0 63 -39 95t-104 32h-209z" />
    <glyph glyph-name="four" unicode="4" horiz-adv-x="1402" 
d="M764 1434h401v-801h185v-275h-185v-358h-403v358h-711v246zM420 633h342v403z" />
    <glyph glyph-name="five" unicode="5" horiz-adv-x="1271" 
d="M106 557l103 877h913v-328h-549l-24 -223q81 37 190 37q81 0 162.5 -29t153.5 -83t117 -144t45 -201q0 -216 -157.5 -349.5t-404.5 -133.5q-165 0 -299.5 56t-216.5 166.5t-82 256.5h404q0 -81 49 -127.5t127 -46.5q82 0 129 42t47 122q0 81 -45.5 123t-116.5 42
q-74 0 -141 -57h-404z" />
    <glyph glyph-name="six" unicode="6" horiz-adv-x="1312" 
d="M625 1434h495l-336 -471q205 -33 337 -164.5t132 -321.5q0 -147 -81 -261.5t-217 -175t-300 -60.5q-170 0 -305.5 61t-213 174.5t-77.5 261.5q0 141 78 256zM655 285q81 0 138 52t57 140q0 86 -57 138.5t-138 52.5q-80 0 -136 -52.5t-56 -138.5q0 -88 56 -140t136 -52z
" />
    <glyph glyph-name="seven" unicode="7" horiz-adv-x="1095" 
d="M1065 1434v-320l-500 -1114h-442l510 1106h-602v328h1034z" />
    <glyph glyph-name="eight" unicode="8" horiz-adv-x="1310" 
d="M655 1454q244 0 399.5 -109t155.5 -294q0 -98 -51 -177.5t-141 -134.5q108 -57 170.5 -142t62.5 -194q0 -131 -83.5 -229t-217 -146t-295.5 -48q-161 0 -295 48t-217.5 146t-83.5 229q0 109 63 194t171 142q-90 55 -141.5 134.5t-51.5 177.5q0 185 156 294t399 109z
M529 912q43 -40 126 -40t126.5 40t43.5 100q0 58 -43.5 97.5t-126.5 39.5t-126.5 -39.5t-43.5 -97.5q0 -60 44 -100zM516 329q52 -44 139 -44t140 43.5t53 113.5q0 71 -52.5 113.5t-140.5 42.5t-140 -42.5t-52 -113.5q0 -70 53 -113z" />
    <glyph glyph-name="nine" unicode="9" horiz-adv-x="1312" 
d="M688 -2h-495l335 471q-206 35 -337.5 166t-131.5 321q0 109 47.5 203t129 157.5t190.5 99.5t231 36q170 0 305.5 -61t213 -174.5t77.5 -260.5q0 -152 -90 -272zM657 1147q-81 0 -137.5 -52.5t-56.5 -138.5q0 -88 56.5 -140t137.5 -52q80 0 136.5 52.5t56.5 139.5
q0 86 -56.5 138.5t-136.5 52.5z" />
    <glyph glyph-name="colon" unicode=":" horiz-adv-x="598" 
d="M78 825q0 92 64.5 155.5t160.5 63.5q91 0 155 -64t64 -155q0 -96 -63.5 -160.5t-155.5 -64.5q-97 0 -161 64t-64 161zM78 205q0 92 64.5 155.5t160.5 63.5q91 0 155 -64t64 -155q0 -96 -63.5 -160.5t-155.5 -64.5q-97 0 -161 64t-64 161z" />
    <glyph glyph-name="semicolon" unicode=";" horiz-adv-x="598" 
d="M78 825q0 92 64.5 155.5t160.5 63.5q91 0 155 -64t64 -155q0 -96 -63.5 -160.5t-155.5 -64.5q-97 0 -161 64t-64 161zM78 207q0 92 64.5 155.5t160.5 63.5q91 0 155 -64t64 -155q0 -65 -33 -123l-208 -391h-197l139 299q-66 23 -105.5 81t-39.5 134z" />
    <glyph glyph-name="less" unicode="&#x3c;" horiz-adv-x="909" 
d="M53 561l801 453v-330l-424 -213l424 -215v-328l-801 453v180z" />
    <glyph glyph-name="equal" unicode="=" horiz-adv-x="849" 
d="M76 840h696v-256h-696v256zM76 440h696v-256h-696v256z" />
    <glyph glyph-name="greater" unicode="&#x3e;" horiz-adv-x="909" 
d="M854 561v-180l-801 -453v328l424 215l-424 213v330z" />
    <glyph glyph-name="question" unicode="?" horiz-adv-x="1273" 
d="M422 483v33q0 94 8 150t34 98.5t60.5 67.5t102.5 61q98 51 128 77q50 43 50 95q0 55 -38 76.5t-116 21.5q-98 0 -140 -50t-42 -144h-408q0 83 15 150.5t56 132t107 108t174.5 70t252.5 26.5q546 0 546 -379q0 -126 -46 -212t-171 -156q-96 -56 -133 -98t-37 -113v-15
h-403zM477 40q-61 59 -61 148t61 149t150 60q88 0 147.5 -60t59.5 -149t-59.5 -148.5t-147.5 -59.5q-90 0 -150 60z" />
    <glyph glyph-name="at" unicode="@" horiz-adv-x="2091" 
d="M500 512q37 212 175.5 345.5t321.5 133.5q186 0 248 -151l23 133h381l-133 -758h256q47 96 75 256q41 237 -28.5 427.5t-234.5 297.5t-394 107q-173 0 -333 -63t-285 -172.5t-212 -264t-118 -332.5q-42 -238 26.5 -427.5t233.5 -296.5t395 -107q64 0 139 10l2 -148
q-77 -14 -166 -14q-146 0 -279.5 43t-241.5 125.5t-181.5 202.5t-99 273.5t5.5 338.5q32 180 114 338.5t196 274.5t252 200.5t286.5 127t294.5 42.5q145 0 278 -43t240.5 -125.5t180.5 -202.5t98.5 -273.5t-5.5 -338.5q-39 -230 -160 -420h-745l22 133q-114 -151 -299 -151
q-183 0 -275 133.5t-54 345.5zM1188 524l10 47q6 57 -32.5 86t-98.5 29q-67 0 -117.5 -49t-64.5 -125t20.5 -125t102.5 -49q63 0 111 32t59 95l12 59h-2z" />
    <glyph glyph-name="A" unicode="A" horiz-adv-x="1703" 
d="M651 1434h404l618 -1432h-403l-96 246h-644l-96 -246h-403zM653 557h398l-199 504z" />
    <glyph glyph-name="B" unicode="B" horiz-adv-x="1439" 
d="M82 0v1434h704q71 0 133.5 -7.5t135 -33t123.5 -66.5t85.5 -115t34.5 -172q0 -207 -215 -299q59 -15 107.5 -38.5t93.5 -60.5t70.5 -93t25.5 -127q0 -98 -34 -174.5t-86 -122t-122.5 -75t-136 -40t-133.5 -10.5h-786zM485 864h267q62 0 100.5 29.5t38.5 95.5t-39 96.5
t-100 30.5h-267v-252zM485 317h330q69 0 113.5 33.5t44.5 102.5q0 72 -44 104.5t-114 32.5h-330v-273z" />
    <glyph glyph-name="C" unicode="C" horiz-adv-x="1607" 
d="M489 880q-22 -72 -22 -163t22 -163t58 -117.5t84.5 -75.5t98.5 -42t104 -12q132 0 221.5 82t89.5 197h403q0 -83 -28 -167.5t-87 -163.5t-141 -140t-201 -98t-257 -37q-162 0 -303.5 51.5t-246 145t-165 233t-60.5 307.5t60.5 307.5t165 233t246 145t303.5 51.5
q138 0 257 -37t201 -98t141 -140t87 -163.5t28 -167.5h-403q0 115 -89.5 196.5t-221.5 81.5q-54 0 -103.5 -12t-98.5 -41.5t-85 -75t-58 -117.5z" />
    <glyph glyph-name="D" unicode="D" horiz-adv-x="1574" 
d="M719 1434q137 0 258 -30t220 -89.5t170.5 -144.5t111 -201t39.5 -252t-39.5 -252t-111 -201t-170.5 -144.5t-220 -89.5t-258 -30h-637v1434h637zM485 324h234q190 0 290.5 98.5t100.5 294.5q0 197 -100.5 295t-290.5 98h-234v-786z" />
    <glyph glyph-name="E" unicode="E" horiz-adv-x="1226" 
d="M82 1434h1092v-328h-689v-229h627v-310h-627v-239h689v-328h-1092v1434z" />
    <glyph glyph-name="F" unicode="F" horiz-adv-x="1183" 
d="M80 1434h1057v-328h-654v-248h592v-328h-592v-530h-403v1434z" />
    <glyph glyph-name="G" unicode="G" horiz-adv-x="1628" 
d="M467 719q0 -208 111.5 -318t312.5 -110q284 0 332 225h-410v283h756v-799h-338v117q-151 -135 -395 -135q-151 0 -290.5 51.5t-248 144t-173.5 233.5t-65 308q0 134 42.5 251.5t117 205t173.5 151t215 95.5t239 32q148 0 282.5 -48.5t224 -124t142.5 -168t53 -181.5h-403
q0 86 -87 140t-220 54q-175 0 -273 -101.5t-98 -305.5z" />
    <glyph glyph-name="H" unicode="H" horiz-adv-x="1675" 
d="M82 1434h403v-537h705v537h403v-1434h-403v569h-705v-569h-403v1434z" />
    <glyph glyph-name="I" unicode="I" horiz-adv-x="567" 
d="M82 1434h403v-1434h-403v1434z" />
    <glyph glyph-name="J" unicode="J" horiz-adv-x="1345" 
d="M860 1434h404v-871q0 -98 -21 -183.5t-67.5 -159.5t-115 -127t-168 -83t-222.5 -30q-158 0 -275 45.5t-186.5 129t-103 191t-33.5 240.5h403q0 -279 195 -279q67 0 112 40t61.5 95t16.5 121v871z" />
    <glyph glyph-name="K" unicode="K" horiz-adv-x="1566" 
d="M82 1434h403v-600h127l371 600h483l-491 -742l561 -692h-506l-391 518h-154v-518h-403v1434z" />
    <glyph glyph-name="L" unicode="L" horiz-adv-x="1232" 
d="M82 1434h403v-1106h695v-328h-1098v1434z" />
    <glyph glyph-name="M" unicode="M" horiz-adv-x="1884" 
d="M84 1434h401l457 -994l457 994h401v-1434h-401v707l-309 -707h-295l-310 707v-707h-401v1434z" />
    <glyph glyph-name="N" unicode="N" horiz-adv-x="1656" 
d="M82 1434h403l686 -902v902h404v-1434h-404l-686 872v-872h-403v1434z" />
    <glyph glyph-name="O" unicode="O" horiz-adv-x="1714" 
d="M123 408q-64 140 -64 309t63.5 309.5t172.5 233t253.5 143.5t307.5 51q164 0 309 -51t254 -143.5t172.5 -233t63.5 -309.5t-63.5 -309.5t-172.5 -233t-254 -143.5t-309 -51q-163 0 -307.5 51t-253.5 143.5t-172 233.5zM856 1126q-175 0 -282 -113t-107 -296t107.5 -296.5
t281.5 -113.5t282.5 113.5t108.5 296.5t-108.5 296t-282.5 113z" />
    <glyph glyph-name="P" unicode="P" horiz-adv-x="1386" 
d="M780 1434q41 0 84.5 -4.5t99 -19t105.5 -36.5t99.5 -60t85 -87.5t57.5 -121.5t22 -159t-22 -159.5t-57.5 -122t-85 -88t-99.5 -60.5t-105.5 -36t-99 -18.5t-84.5 -4.5h-295v-457h-403v1434h698zM485 774h258q77 0 130 42.5t53 129.5q0 85 -53.5 127.5t-129.5 42.5h-258
v-342z" />
    <glyph glyph-name="Q" unicode="Q" horiz-adv-x="1714" 
d="M1282 -410l-334 394q-62 -4 -92 -4q-163 0 -307.5 51t-253.5 143.5t-172.5 233t-63.5 309.5t63.5 309.5t172.5 233t253.5 143.5t307.5 51q164 0 309 -51t254 -143.5t172.5 -233t63.5 -309.5q0 -206 -90 -363.5t-248 -253.5l450 -510h-485zM856 1126q-173 0 -281 -113
t-108 -296t108 -296.5t281 -113.5q175 0 283 113.5t108 296.5t-108 296t-283 113z" />
    <glyph glyph-name="R" unicode="R" horiz-adv-x="1527" 
d="M834 1434q69 0 137.5 -11t145.5 -43.5t135 -82t96 -134.5t38 -194q0 -90 -25 -165.5t-69 -130t-97 -93t-116 -64.5l387 -516h-448l-344 467h-189v-467h-403v1434h752zM485 784h312q83 0 132.5 45.5t49.5 120.5t-49.5 120.5t-132.5 45.5h-312v-332z" />
    <glyph glyph-name="S" unicode="S" horiz-adv-x="1495" 
d="M465 485q0 -88 78 -142t209 -54q81 0 141 12t98.5 42t38.5 75q0 24 -7.5 41.5t-28.5 31t-41.5 22t-64.5 17.5t-79 14.5t-102.5 16t-118.5 19.5q-256 48 -363.5 152t-107.5 280q0 137 87.5 239.5t226 152.5t304.5 50q169 0 299 -39.5t207 -108.5t115.5 -154.5t38.5 -184.5
h-408q0 178 -252 178q-91 0 -151 -32t-60 -87q0 -68 56.5 -93t296.5 -69q84 -15 128 -24t114 -27.5t107.5 -36.5t84.5 -49t70.5 -67.5t40 -88.5t16.5 -116q0 -104 -41 -189.5t-121.5 -150t-209.5 -100t-296 -35.5q-147 0 -267.5 28t-202 76t-137.5 113t-81 137t-25 151h408z
" />
    <glyph glyph-name="T" unicode="T" horiz-adv-x="1376" 
d="M49 1434h1278v-328h-438v-1106h-404v1106h-436v328z" />
    <glyph glyph-name="U" unicode="U" horiz-adv-x="1523" 
d="M1038 1434h404v-840q0 -314 -168 -464t-512 -150q-342 0 -511 150t-169 464v840h403v-840q0 -152 64.5 -219.5t212.5 -67.5q147 0 211.5 67t64.5 220v840z" />
    <glyph glyph-name="V" unicode="V" horiz-adv-x="1740" 
d="M668 0l-619 1434h438l383 -1000l381 1000h441l-621 -1434h-403z" />
    <glyph glyph-name="W" unicode="W" horiz-adv-x="2254" 
d="M483 0l-434 1434h385l252 -951l248 951h369l247 -951l252 951h404l-453 -1434h-422l-213 807l-213 -807h-422z" />
    <glyph glyph-name="X" unicode="X" horiz-adv-x="1804" 
d="M49 0l608 745l-534 689h489l303 -433l281 433h490l-504 -689l573 -745h-489l-351 512l-374 -512h-492z" />
    <glyph glyph-name="Y" unicode="Y" horiz-adv-x="1693" 
d="M645 430l-596 1004h465l334 -662l332 662h465l-596 -1004v-430h-404v430z" />
    <glyph glyph-name="Z" unicode="Z" horiz-adv-x="1304" 
d="M1202 1434v-320l-627 -786h680v-328h-1206v319l627 787h-610v328h1136z" />
    <glyph glyph-name="bracketleft" unicode="[" horiz-adv-x="776" 
d="M82 1434h639v-328h-307v-1188h307v-328h-639v1844z" />
    <glyph glyph-name="backslash" unicode="\" horiz-adv-x="880" 
d="M825 0h-321l-451 1434h322z" />
    <glyph glyph-name="bracketright" unicode="]" horiz-adv-x="776" 
d="M702 1434v-1844h-639v328h308v1188h-308v328h639z" />
    <glyph glyph-name="asciicircum" unicode="^" horiz-adv-x="1146" 
d="M78 821l366 613h261l366 -613h-307l-191 363l-190 -363h-305z" />
    <glyph glyph-name="underscore" unicode="_" horiz-adv-x="849" 
d="M78 369h696v-256h-696v256z" />
    <glyph glyph-name="grave" unicode="`" horiz-adv-x="505" 
d="M436 1120h-200l-162 357h239z" />
    <glyph glyph-name="a" unicode="a" horiz-adv-x="1198" 
d="M176 1024h440q126 0 214 -28t138 -82.5t71.5 -125t21.5 -165.5v-170q0 -74 26.5 -101.5t94.5 -27.5h12v-324h-266q-108 0 -153 38t-56 122q-67 -180 -291 -180q-181 0 -276 80.5t-95 232.5q0 78 23 136.5t74.5 103t141.5 67.5t218 23h162q-2 53 -25 74.5t-96 21.5h-379
v305zM676 457h-144q-54 0 -80 -19.5t-26 -68.5t30 -74t85 -25q22 0 42.5 4.5t43 15t36 34t13.5 55.5v78z" />
    <glyph glyph-name="b" unicode="b" horiz-adv-x="1302" 
d="M1135 897q129 -148 129 -385t-129 -384.5t-344 -147.5q-220 0 -330 163v-143h-400v1434h400v-553q110 163 330 163q215 0 344 -147zM461 453q0 -60 59.5 -105t138.5 -45q85 0 143 56.5t58 152.5t-58 152.5t-143 56.5q-79 0 -138.5 -45t-59.5 -105v-118z" />
    <glyph glyph-name="c" unicode="c" 
d="M430 514q0 -99 50.5 -155t137.5 -56q67 0 112.5 41t45.5 100h391q0 -67 -17.5 -131t-58.5 -125t-101.5 -106.5t-154.5 -73.5t-210 -28q-276 0 -431 141t-155 393q0 249 155.5 389.5t430.5 140.5q116 0 210 -28t154.5 -73.5t101.5 -106.5t58.5 -124t17.5 -130h-391
q0 58 -45.5 98.5t-112.5 40.5q-87 0 -137.5 -55t-50.5 -152z" />
    <glyph glyph-name="d" unicode="d" horiz-adv-x="1302" 
d="M168 128q-129 147 -129 384t129 384.5t344 147.5q220 0 330 -163v553h399v-1434h-399v143q-110 -163 -330 -163q-215 0 -344 148zM643 303q80 0 139.5 45t59.5 105v118q0 60 -59.5 105t-139.5 45q-85 0 -143 -56.5t-58 -152.5t58 -152.5t143 -56.5z" />
    <glyph glyph-name="e" unicode="e" 
d="M451 430q13 -87 52.5 -119t108.5 -32q77 0 113.5 21t36.5 69h403q-14 -82 -53 -149.5t-106 -122.5t-172.5 -86t-241.5 -31q-247 0 -400 142.5t-153 389.5q0 248 153 391.5t400 143.5q286 0 429.5 -139t145.5 -388v-90h-716zM762 594q-10 83 -47 118.5t-103 35.5
q-137 0 -161 -154h311z" />
    <glyph glyph-name="f" unicode="f" horiz-adv-x="796" 
d="M764 1143h-113q-64 0 -88 -14t-24 -66v-39h227v-324h-227v-700h-400v700h-108v324h108v111q0 159 90 239t260 80h275v-311z" />
    <glyph glyph-name="g" unicode="g" horiz-adv-x="1302" 
d="M207 -98h463q100 0 136 24.5t36 112.5v104q-110 -163 -330 -163q-215 0 -344 147.5t-129 384.5t129 384.5t344 147.5q220 0 330 -163v143h399v-932q0 -257 -126.5 -379.5t-407.5 -122.5h-500v312zM643 303q80 0 139.5 45t59.5 105v118q0 60 -59.5 105t-139.5 45
q-85 0 -143 -56.5t-58 -152.5t58 -152.5t143 -56.5z" />
    <glyph glyph-name="h" unicode="h" horiz-adv-x="1239" 
d="M61 1434h400v-580q56 92 146.5 141t207.5 49q181 0 272 -106.5t91 -294.5v-643h-400v535q0 94 -33.5 140t-121.5 46q-75 0 -118.5 -47.5t-43.5 -141.5v-532h-400v1434z" />
    <glyph glyph-name="i" unicode="i" horiz-adv-x="518" 
d="M41 1311q0 90 65 152.5t158 62.5q89 0 152 -63t63 -152q0 -95 -62.5 -159.5t-152.5 -64.5q-94 0 -158.5 64.5t-64.5 159.5zM59 1024h400v-1024h-400v1024z" />
    <glyph glyph-name="j" unicode="j" horiz-adv-x="518" 
d="M37 1311q0 90 64 152.5t159 62.5q89 0 152 -63t63 -152q0 -95 -62.5 -159.5t-152.5 -64.5q-95 0 -159 64.5t-64 159.5zM-160 -98h107q63 0 87.5 18.5t24.5 79.5v1024h400v-1112q0 -161 -90 -241.5t-260 -80.5h-269v312z" />
    <glyph glyph-name="k" unicode="k" horiz-adv-x="1275" 
d="M61 1434h400v-748h78l182 338h463l-297 -481l356 -543h-473l-219 379h-90v-379h-400v1434z" />
    <glyph glyph-name="l" unicode="l" horiz-adv-x="600" 
d="M594 324v-324h-248q-149 0 -217 72.5t-68 220.5v1141h400v-981q0 -73 25.5 -101t93.5 -28h14z" />
    <glyph glyph-name="m" unicode="m" horiz-adv-x="1837" 
d="M61 1024h400v-158q107 178 315 178q122 0 202.5 -59t115.5 -166q50 109 136.5 167t203.5 58q167 0 254.5 -107.5t87.5 -293.5v-643h-400v553q0 91 -26 129.5t-99 38.5q-133 0 -133 -170v-551h-399v553q0 91 -26 129.5t-99 38.5q-133 0 -133 -170v-551h-400v1024z" />
    <glyph glyph-name="n" unicode="n" horiz-adv-x="1239" 
d="M61 1024h400v-170q56 92 146.5 141t207.5 49q181 0 272 -106.5t91 -294.5v-643h-400v535q0 94 -33.5 140t-121.5 46q-75 0 -118.5 -47.5t-43.5 -141.5v-532h-400v1024z" />
    <glyph glyph-name="o" unicode="o" horiz-adv-x="1269" 
d="M333 982q134 62 302 62t302.5 -62.5t214 -184.5t79.5 -285t-79.5 -285t-214 -184.5t-302.5 -62.5t-302.5 62.5t-214 184.5t-79.5 285t79.5 285t214.5 185zM635 303q92 0 142 63t50 146t-50 146t-142 63q-93 0 -143 -63t-50 -146t50 -146t143 -63z" />
    <glyph glyph-name="p" unicode="p" horiz-adv-x="1302" 
d="M61 1024h400v-143q110 163 330 163q215 0 344 -147.5t129 -384.5t-129 -384.5t-344 -147.5q-220 0 -330 163v-553h-400v1434zM461 453q0 -60 59.5 -105t138.5 -45q85 0 143 56.5t58 152.5t-58 152.5t-143 56.5q-79 0 -138.5 -45t-59.5 -105v-118z" />
    <glyph glyph-name="q" unicode="q" horiz-adv-x="1302" 
d="M1241 1024v-1434h-399v553q-110 -163 -330 -163q-215 0 -344 147.5t-129 384.5t129 384.5t344 147.5q220 0 330 -163v143h399zM643 303q80 0 139.5 45t59.5 105v118q0 60 -59.5 105t-139.5 45q-85 0 -143 -56.5t-58 -152.5t58 -152.5t143 -56.5z" />
    <glyph glyph-name="r" unicode="r" horiz-adv-x="880" 
d="M61 1024h400v-166q55 86 134 136t157 50h100v-323h-244q-75 0 -111 -37.5t-36 -134.5v-549h-400v1024z" />
    <glyph glyph-name="s" unicode="s" horiz-adv-x="1161" 
d="M401 346q0 -60 53.5 -91.5t149.5 -31.5q137 0 137 56q0 32 -33 46t-156 40q-36 8 -56 12q-207 44 -320 129t-113 223q0 82 44.5 145t119 99t160 53.5t178.5 17.5q122 0 222.5 -32.5t163 -85.5t96.5 -117t34 -131h-364q0 63 -33 93t-117 30q-123 0 -123 -56
q0 -13 5.5 -23.5t20 -19t30 -14.5t44.5 -13t53.5 -12.5t68 -14.5t77.5 -17q78 -18 130 -33.5t103 -39.5t80.5 -54t47.5 -73.5t18 -100.5q0 -159 -145.5 -254.5t-390.5 -95.5q-126 0 -232 32.5t-173.5 85.5t-104.5 117.5t-37 130.5h362z" />
    <glyph glyph-name="t" unicode="t" horiz-adv-x="823" 
d="M33 1024h119v246h399v-246h244v-324h-244v-290q0 -61 25.5 -80t87.5 -19h131v-311h-291q-170 0 -261 81t-91 241v378h-119v324z" />
    <glyph glyph-name="u" unicode="u" horiz-adv-x="1314" 
d="M1311 324v-324h-248q-119 0 -186 46.5t-89 141.5q-56 -101 -149 -154.5t-215 -53.5q-181 0 -272 106.5t-91 294.5v643h400v-535q0 -94 33.5 -140t121.5 -46q75 0 118.5 47.5t43.5 141.5v532h400v-571q0 -74 25.5 -101.5t92.5 -27.5h15z" />
    <glyph glyph-name="v" unicode="v" horiz-adv-x="1370" 
d="M31 1024h401l254 -621l252 621h401l-471 -1024h-366z" />
    <glyph glyph-name="w" unicode="w" horiz-adv-x="1732" 
d="M31 1024h401l119 -563l151 563h330l150 -561l118 561h402l-307 -1024h-383l-146 582l-145 -582h-383z" />
    <glyph glyph-name="x" unicode="x" horiz-adv-x="1382" 
d="M31 0l399 535l-364 489h462l164 -256l164 256h461l-365 -489l400 -535h-465l-195 307l-196 -307h-465z" />
    <glyph glyph-name="y" unicode="y" horiz-adv-x="1277" 
d="M1247 1024l-424 -1044q-26 -64 -46.5 -107.5t-47 -86t-53 -68.5t-64.5 -50.5t-81 -37.5t-103 -23t-129.5 -13.5t-161.5 -3.5v328q124 0 177.5 6t76 21t39.5 53l10 22l-409 1004h401l211 -625l203 625h401z" />
    <glyph glyph-name="z" unicode="z" horiz-adv-x="1030" 
d="M965 1024v-279l-400 -421h434v-324h-966v281l397 419h-381v324h916z" />
    <glyph glyph-name="braceleft" unicode="{" horiz-adv-x="921" 
d="M121 682q55 7 84 17t52.5 38t31.5 77t8 132q0 115 24 202t64.5 140.5t101.5 87t126 46t147 12.5h133v-342h-141q-74 0 -99.5 -55.5t-25.5 -213.5q0 -76 -18.5 -132.5t-54 -91t-77 -54.5t-98.5 -33q57 -13 98.5 -32.5t77 -54t54 -90.5t18.5 -132q0 -158 25.5 -213.5
t99.5 -55.5h141v-342h-133q-82 0 -147 12.5t-126 46t-101.5 87t-64.5 140.5t-24 202q0 83 -8 132t-31.5 77t-52.5 38t-84 17l-49 6v326z" />
    <glyph glyph-name="bar" unicode="|" horiz-adv-x="485" 
d="M82 1434h321v-1844h-321v1844z" />
    <glyph glyph-name="braceright" unicode="}" horiz-adv-x="921" 
d="M803 682l49 -6v-326l-49 -6q-55 -7 -84 -17t-52.5 -38t-31.5 -77t-8 -132q0 -115 -24 -202t-64.5 -140.5t-101 -87t-125.5 -46t-146 -12.5h-133v342h139q74 0 99.5 55.5t25.5 213.5q0 76 18.5 132.5t54 91t77 54.5t98.5 33q-57 13 -98.5 32.5t-77 54t-54 90.5t-18.5 132
q0 158 -25.5 213.5t-99.5 55.5h-139v342h133q81 0 146 -12.5t125.5 -46t101 -87t64.5 -140.5t24 -202q0 -83 8 -132t31.5 -77t52.5 -38t84 -17z" />
    <glyph glyph-name="asciitilde" unicode="~" horiz-adv-x="1273" 
d="M94 858q77 198 201 238t352 -54q70 -28 102 -40.5t71.5 -24t54.5 -10t35 10t30 26t23 47.5l20 47l213 -86l-18 -47q-52 -135 -122.5 -194.5t-171.5 -56t-257 67.5q-49 20 -78 31t-61.5 22t-50 14.5t-37.5 4.5t-30.5 -4t-23 -15t-20.5 -24.5t-17 -36.5l-20 -49l-213 86z
" />
    <glyph glyph-name="exclamdown" unicode="&#xa1;" horiz-adv-x="567" 
d="M76 834q0 91 60 150.5t151 59.5q88 0 147.5 -60t59.5 -150q0 -88 -59.5 -147.5t-147.5 -59.5q-90 0 -150.5 59.5t-60.5 147.5zM82 -410v506l37 441h330l36 -441v-506h-403z" />
    <glyph glyph-name="cent" unicode="&#xa2;" horiz-adv-x="1241" 
d="M483 1434h328v-406q99 -21 173.5 -68.5t117.5 -110t63.5 -129.5t20.5 -138h-391q0 58 -45.5 98.5t-112.5 40.5q-87 0 -137.5 -55t-50.5 -152q0 -99 50.5 -155t137.5 -56q67 0 112.5 41t45.5 100h391q0 -71 -20.5 -139t-63.5 -130.5t-117.5 -110t-173.5 -68.5v-406h-328
v404q-204 38 -315 172.5t-111 347.5q0 210 111.5 344t314.5 172v404z" />
    <glyph glyph-name="sterling" unicode="&#xa3;" horiz-adv-x="1366" 
d="M236 1020q0 214 135.5 324t373.5 110q134 0 237 -32t163.5 -82t99 -119.5t51.5 -134.5t13 -138h-408q0 92 -28 135t-99 43q-131 0 -131 -145v-150h541v-327h-541v-176h666v-328h-1073v504h-185v327h185v189z" />
    <glyph glyph-name="currency" unicode="&#xa4;" horiz-adv-x="1284" 
d="M1204 1153l-246 -246q52 -86 53 -187.5t-50 -189.5l245 -245l-131 -129l-246 245q-88 -53 -189 -53t-187 53l-246 -245l-129 131l246 245q-51 86 -51 186.5t51 186.5l-246 246l131 131l246 -246q86 51 187 51t187 -51l246 248zM514 592q54 -54 128 -54t126 54
q52 52 52 126t-52 126q-52 54 -126 54t-128 -54q-52 -52 -52 -126t52 -126z" />
    <glyph glyph-name="yen" unicode="&#xa5;" horiz-adv-x="1693" 
d="M311 594h236l-498 840h465l334 -662l332 662h465l-498 -840h235v-184h-333v-93h333v-184h-333v-133h-404v133h-334v184h334v93h-334v184z" />
    <glyph glyph-name="brokenbar" unicode="&#xa6;" horiz-adv-x="485" 
d="M82 1434h321v-719h-321v719zM82 309h321v-719h-321v719z" />
    <glyph glyph-name="section" unicode="&#xa7;" horiz-adv-x="1583" 
d="M465 -6q0 -89 77 -143t208 -54q81 0 141.5 12t99.5 42t39 75q0 24 -7.5 41.5t-28.5 31t-42 22t-65 17.5t-79.5 14.5t-103 16t-118.5 19.5q-256 46 -362.5 150t-106.5 282q0 171 135 287q-47 81 -47 205q0 104 51 189t137 139.5t196.5 84t233.5 29.5q170 0 300 -39.5
t207 -108.5t115 -154.5t38 -184.5h-408q0 178 -252 178q-91 0 -151 -32t-60 -87q0 -68 56.5 -93t296.5 -69q84 -15 128.5 -24t114.5 -27.5t108 -36.5t85 -49t70.5 -67.5t40 -88.5t16.5 -116q0 -188 -133 -312q43 -75 43 -180q0 -104 -41 -189.5t-122 -150t-210.5 -100
t-296.5 -35.5q-147 0 -267 28t-201.5 76t-137 113.5t-80.5 137.5t-25 151h408zM565 606q-41 -27 -41 -71q0 -69 56 -93.5t294 -68.5q97 -18 187 -39q59 29 59 84q0 19 -5 33.5t-17 26.5t-25.5 21t-38.5 16.5t-47.5 13t-61 12.5t-71 12t-84 13.5t-94.5 15.5q-33 5 -111 24z
" />
    <glyph glyph-name="dieresis" unicode="&#xa8;" horiz-adv-x="940" 
d="M72 1292q0 69 49 117.5t119 48.5q69 0 117.5 -48.5t48.5 -117.5q0 -70 -48.5 -119t-117.5 -49q-70 0 -119 49t-49 119zM532 1292q0 69 49 117.5t119 48.5q69 0 117.5 -48.5t48.5 -117.5q0 -70 -48.5 -119t-117.5 -49q-70 0 -119 49t-49 119z" />
    <glyph glyph-name="copyright" unicode="&#xa9;" horiz-adv-x="1630" 
d="M78 717q0 150 58 286.5t157 235.5t235.5 157t286.5 58t286.5 -58t235.5 -157t157 -235.5t58 -286.5q0 -200 -98.5 -369.5t-268 -268.5t-370.5 -99t-370.5 99t-268 268.5t-98.5 369.5zM227 965q-51 -118 -51 -248t50.5 -248t136 -204t204 -136.5t248.5 -50.5t248 50.5
t204 136.5t136.5 204t50.5 248t-50.5 248t-136.5 204t-204 136.5t-248 50.5t-248.5 -50.5t-204 -136.5t-135.5 -204zM647 717q0 -103 52.5 -150t125.5 -47q64 0 107 38.5t43 94.5h201q0 -51 -22.5 -102.5t-65 -95.5t-111 -71.5t-152.5 -27.5q-164 0 -272.5 98.5
t-108.5 262.5q0 163 108.5 261.5t272.5 98.5q84 0 152.5 -27t111 -71t65 -95.5t22.5 -103.5h-201q0 56 -43 95.5t-107 39.5q-74 0 -126 -47t-52 -151z" />
    <glyph glyph-name="ordfeminine" unicode="&#xaa;" horiz-adv-x="712" 
d="M137 1454h219q120 0 166.5 -54.5t46.5 -154.5v-86q0 -38 13 -51.5t47 -13.5h6v-162h-123q-58 0 -79.5 22.5t-24.5 73.5q-25 -106 -146 -106q-184 0 -184 151q0 79 51.5 119.5t175.5 40.5h82v6q0 31 -12 46t-49 15h-189v154zM387 1161h-72q-53 0 -53 -51q0 -31 13.5 -42
t43.5 -11q23 0 45.5 16.5t22.5 48.5v39z" />
    <glyph glyph-name="guillemotleft" unicode="&#xab;" horiz-adv-x="1191" 
d="M72 512l276 483h322l-281 -483l281 -483h-322zM522 512l277 483h321l-280 -483l280 -483h-321z" />
    <glyph glyph-name="logicalnot" unicode="&#xac;" horiz-adv-x="909" 
d="M78 963h756v-523h-322v201h-434v322z" />
    <glyph glyph-name="registered" unicode="&#xae;" horiz-adv-x="1630" 
d="M78 717q0 150 58 286.5t157 235.5t235.5 157t286.5 58t286.5 -58t235.5 -157t157 -235.5t58 -286.5q0 -200 -98.5 -369.5t-268 -268.5t-370.5 -99t-370.5 99t-268 268.5t-98.5 369.5zM176 717q0 -130 50.5 -248t136 -204t204 -136.5t248.5 -50.5t248.5 50.5t204 136.5
t136 204t50.5 248q0 174 -85.5 321t-232.5 232.5t-321 85.5t-321 -85.5t-232.5 -232.5t-85.5 -321zM899 1069q44 0 86.5 -10.5t86.5 -34t71.5 -71t27.5 -113.5q0 -161 -149 -224l188 -249h-223l-166 225h-90v-225h-201v702h369zM731 743h152q40 0 63 23t23 63t-23 63t-63 23
h-152v-172z" />
    <glyph glyph-name="macron" unicode="&#xaf;" horiz-adv-x="735" 
d="M72 1358h592v-184h-592v184z" />
    <glyph glyph-name="degree" unicode="&#xb0;" horiz-adv-x="704" 
d="M74 1196q0 117 81 199t197 82q117 0 199 -82t82 -199q0 -116 -82 -197t-199 -81q-116 0 -197 81t-81 197zM172 1196q0 -74 53 -127t127 -53q75 0 129 53t54 127q0 75 -54 128.5t-129 53.5q-74 0 -127 -53.5t-53 -128.5z" />
    <glyph glyph-name="plusminus" unicode="&#xb1;" horiz-adv-x="849" 
d="M78 805h219v221h256v-221h221v-256h-221v-221h-256v221h-219v256zM78 256h696v-256h-696v256z" />
    <glyph glyph-name="twosuperior" unicode="&#xb2;" horiz-adv-x="862" 
d="M106 778l318 271q49 41 66.5 69t17.5 62q0 88 -92 88q-56 0 -77.5 -39t-21.5 -115h-243q0 50 9 95t33 91t61.5 79t99 54t139.5 21q64 0 120.5 -14t106.5 -45t79.5 -89t29.5 -137q0 -147 -215 -309l-109 -82h358v-196h-680v196z" />
    <glyph glyph-name="threesuperior" unicode="&#xb3;" horiz-adv-x="851" 
d="M322 938v152h94q80 0 80 92q0 86 -86 86q-41 0 -60.5 -26t-19.5 -91h-244q0 132 83 217.5t243 85.5q138 0 227.5 -64t89.5 -180q0 -125 -106 -188q72 -25 113.5 -74.5t41.5 -124.5q0 -115 -96 -183.5t-246 -68.5q-89 0 -160 25.5t-114 67.5t-65.5 93.5t-22.5 106.5h243
q0 -50 29 -78t82 -28q51 0 79 27t28 71q0 41 -23.5 61.5t-62.5 20.5h-127z" />
    <glyph glyph-name="acute" unicode="&#xb4;" horiz-adv-x="499" 
d="M72 1120l116 357h240l-156 -357h-200z" />
    <glyph glyph-name="paragraph" unicode="&#xb6;" horiz-adv-x="1728" 
d="M610 1434h1039v-1844h-369v1538h-182v-1538h-369v795h-119q-41 0 -84.5 5t-99.5 19.5t-105.5 37.5t-99 64t-85 94t-57.5 131.5t-22 172.5t22 172.5t57.5 131.5t85 94t99 64.5t105.5 38t99.5 19.5t84.5 5zM729 690v438h-119q-30 0 -59.5 -11t-57.5 -35t-45.5 -68.5
t-17.5 -104.5t17.5 -105t45.5 -68.5t57.5 -34.5t59.5 -11h119z" />
    <glyph glyph-name="periodcentered" unicode="&#xb7;" horiz-adv-x="608" 
d="M82 512q0 92 64.5 155.5t160.5 63.5q91 0 155 -64t64 -155q0 -96 -63.5 -160.5t-155.5 -64.5q-97 0 -161 64t-64 161z" />
    <glyph glyph-name="cedilla" unicode="&#xb8;" horiz-adv-x="593" 
d="M72 -479v166q74 -21 129 -22t85.5 18t30.5 57q0 43 -28 53t-115 10h-18l47 209h147l-33 -104q100 -11 152.5 -50.5t52.5 -125.5q0 -65 -29.5 -112t-77 -71.5t-107.5 -35.5t-120 -8t-116 16z" />
    <glyph glyph-name="onesuperior" unicode="&#xb9;" horiz-adv-x="663" 
d="M418 1434h172v-861h-242v631l-207 -96l-69 166z" />
    <glyph glyph-name="ordmasculine" unicode="&#xba;" horiz-adv-x="739" 
d="M300 1124q25 -32 71 -32t71 31.5t25 72.5q0 42 -25 73t-71 31t-71.5 -31t-25.5 -73q0 -41 26 -72zM157 1391q84 71 214 71t214.5 -71.5t84.5 -194.5q0 -122 -85 -194t-214 -72t-214 72t-85 194q0 123 85 195z" />
    <glyph glyph-name="guillemotright" unicode="&#xbb;" horiz-adv-x="1191" 
d="M1120 512l-276 -483h-322l281 483l-281 483h322zM670 512l-277 -483h-321l280 483l-280 483h321z" />
    <glyph glyph-name="onequarter" unicode="&#xbc;" horiz-adv-x="1845" 
d="M477 0l574 1434h247l-571 -1434h-250zM401 1434h172v-861h-241v631l-207 -96l-70 166zM1438 860h241v-481h111v-164h-111v-215h-241v215h-428v147zM1233 379h205v242z" />
    <glyph glyph-name="onehalf" unicode="&#xbd;" horiz-adv-x="1875" 
d="M477 0l572 1434h249l-571 -1434h-250zM401 1434h172v-861h-241v631l-207 -96l-70 166zM1139 197l319 270q48 40 66 69t18 62q0 88 -92 88q-58 0 -79 -39t-21 -115h-244q0 50 9 95t33 91t61.5 79t99 54t139.5 21q65 0 121.5 -14t107 -44.5t80 -88.5t29.5 -137
q0 -147 -215 -309l-109 -82h359v-197h-682v197z" />
    <glyph glyph-name="threequarters" unicode="&#xbe;" horiz-adv-x="1951" 
d="M303 938v152h94q80 0 80 92q0 86 -86 86q-41 0 -60.5 -26t-19.5 -91h-243q0 132 82.5 217.5t242.5 85.5q138 0 228 -64t90 -180q0 -125 -107 -188q72 -25 114 -75t42 -124q0 -115 -96 -183.5t-246 -68.5q-89 0 -160 25.5t-114.5 67.5t-66 93.5t-22.5 106.5h244
q0 -50 29 -78t82 -28q51 0 78.5 27t27.5 71q0 41 -23.5 61.5t-62.5 20.5h-127zM582 0l573 1434h250l-574 -1434h-249zM1544 860h242v-481h110v-164h-110v-215l-242 -61v276h-428v147zM1337 379h207v244z" />
    <glyph glyph-name="questiondown" unicode="&#xbf;" horiz-adv-x="1273" 
d="M796 1005q60 -60 60 -149t-60 -149t-149 -60q-88 0 -148.5 60t-60.5 149t60.5 149t148.5 60q89 0 149 -60zM850 561v-33q0 -95 -7.5 -150t-33.5 -97.5t-60 -67t-102 -61.5q-98 -51 -128 -77q-50 -42 -50 -93q0 -55 38 -77t116 -22q98 0 140 50t42 143h407
q0 -82 -15 -149.5t-56 -132t-107 -108t-174.5 -70t-251.5 -26.5q-547 0 -547 379q0 125 46 211.5t169 155.5q89 52 129.5 101t40.5 110v14h404z" />
    <glyph glyph-name="Agrave" unicode="&#xc0;" horiz-adv-x="1703" 
d="M954 1530h-200l-162 356h239zM651 1434h404l618 -1432h-403l-96 246h-644l-96 -246h-403zM653 557h398l-199 504z" />
    <glyph glyph-name="Aacute" unicode="&#xc1;" horiz-adv-x="1703" 
d="M758 1530l116 356h240l-156 -356h-200zM651 1434h404l618 -1432h-403l-96 246h-644l-96 -246h-403zM653 557h398l-199 504z" />
    <glyph glyph-name="Acircumflex" unicode="&#xc2;" horiz-adv-x="1703" 
d="M477 1532l268 350h213l269 -350h-250l-125 190l-123 -190h-252zM651 1434h404l618 -1432h-403l-96 246h-644l-96 -246h-403zM653 557h398l-199 504z" />
    <glyph glyph-name="Atilde" unicode="&#xc3;" horiz-adv-x="1703" 
d="M848 1784q17 -7 45 -18.5t40 -16.5t32 -12t29.5 -7.5t24 0t22.5 7.5t19 17.5t19.5 27t18.5 39.5l176 -62q-17 -50 -38.5 -89t-42 -65t-47.5 -42t-49 -25t-53 -8.5t-52 2.5t-54 12t-51.5 17t-50.5 20q-103 40 -119 44q-46 10 -73 -24q-17 -23 -38 -71l-178 63
q22 62 49.5 107t54.5 71t60.5 39.5t62 16.5t66 -4t64 -15.5t63.5 -23.5zM651 1434h404l618 -1432h-403l-96 246h-644l-96 -246h-403zM653 557h398l-199 504z" />
    <glyph glyph-name="Adieresis" unicode="&#xc4;" horiz-adv-x="1703" 
d="M455 1702q0 69 49 117.5t119 48.5q69 0 117 -48.5t48 -117.5q0 -70 -48 -119t-117 -49q-71 0 -119.5 49t-48.5 119zM915 1702q0 69 49 117.5t119 48.5q69 0 117.5 -48.5t48.5 -117.5q0 -70 -48.5 -119t-117.5 -49q-71 0 -119.5 49t-48.5 119zM651 1434h404l618 -1432
h-403l-96 246h-644l-96 -246h-403zM653 557h398l-199 504z" />
    <glyph glyph-name="Aring" unicode="&#xc5;" horiz-adv-x="1703" 
d="M547 1804q0 126 90.5 216.5t216.5 90.5q125 0 215 -90.5t90 -216.5q0 -125 -90.5 -216t-214.5 -91q-126 0 -216.5 91t-90.5 216zM761 1898q-42 -42 -42 -94t41 -92.5t94 -40.5q52 0 92.5 40.5t40.5 92.5q0 53 -40.5 94t-92.5 41t-93 -41zM651 1434h404l618 -1432h-403
l-96 246h-644l-96 -246h-403zM653 557h398l-199 504z" />
    <glyph glyph-name="AE" unicode="&#xc6;" horiz-adv-x="2271" 
d="M651 1434h1567v-328h-688v-229h627v-310h-627v-239h688v-328h-1092v248h-591l-99 -248h-403zM655 557h471v549h-254z" />
    <glyph glyph-name="Ccedilla" unicode="&#xc7;" horiz-adv-x="1607" 
d="M489 880q-22 -72 -22 -163t22 -163t58 -117.5t84.5 -75.5t98.5 -42t104 -12q132 0 221.5 82t89.5 197h403q0 -83 -27.5 -166.5t-85.5 -162t-139 -139.5t-197.5 -98.5t-252.5 -39.5l-23 -72q100 -11 152.5 -50.5t52.5 -125.5q0 -65 -29.5 -112t-77 -71.5t-107.5 -35.5
t-120 -8t-116 16v166q74 -21 129 -22t85.5 18t30.5 57q0 43 -28 53t-115 10h-18l40 185q-139 19 -256.5 78t-203.5 151t-134.5 220.5t-48.5 279.5q0 168 60.5 307.5t165 233t246 145t303.5 51.5q138 0 257 -37t201 -98t141 -140t87 -163.5t28 -167.5h-403q0 115 -89.5 196.5
t-221.5 81.5q-54 0 -103.5 -12t-98.5 -41.5t-85 -75t-58 -117.5z" />
    <glyph glyph-name="Egrave" unicode="&#xc8;" horiz-adv-x="1226" 
d="M762 1530h-201l-162 356h240zM82 1434h1092v-328h-689v-229h627v-310h-627v-239h689v-328h-1092v1434z" />
    <glyph glyph-name="Eacute" unicode="&#xc9;" horiz-adv-x="1226" 
d="M522 1530l117 356h240l-156 -356h-201zM82 1434h1092v-328h-689v-229h627v-310h-627v-239h689v-328h-1092v1434z" />
    <glyph glyph-name="Ecircumflex" unicode="&#xca;" horiz-adv-x="1226" 
d="M262 1532l268 350h213l269 -350h-250l-125 190l-123 -190h-252zM82 1434h1092v-328h-689v-229h627v-310h-627v-239h689v-328h-1092v1434z" />
    <glyph glyph-name="Edieresis" unicode="&#xcb;" horiz-adv-x="1226" 
d="M238 1702q0 69 49 117.5t119 48.5q69 0 117 -48.5t48 -117.5q0 -70 -48 -119t-117 -49q-70 0 -119 49t-49 119zM698 1702q0 69 49 117.5t119 48.5q69 0 117.5 -48.5t48.5 -117.5q0 -70 -48.5 -119t-117.5 -49q-70 0 -119 49t-49 119zM82 1434h1092v-328h-689v-229h627
v-310h-627v-239h689v-328h-1092v1434z" />
    <glyph glyph-name="Igrave" unicode="&#xcc;" horiz-adv-x="567" 
d="M385 1530h-201l-161 356h239zM82 1434h403v-1434h-403v1434z" />
    <glyph glyph-name="Iacute" unicode="&#xcd;" horiz-adv-x="567" 
d="M186 1530l117 356h240l-156 -356h-201zM82 1434h403v-1434h-403v1434z" />
    <glyph glyph-name="Icircumflex" unicode="&#xce;" horiz-adv-x="567" 
d="M-90 1532l268 350h213l268 -350h-249l-125 190l-123 -190h-252zM82 1434h403v-1434h-403v1434z" />
    <glyph glyph-name="Idieresis" unicode="&#xcf;" horiz-adv-x="567" 
d="M-115 1702q0 69 49 117.5t119 48.5q69 0 117.5 -48.5t48.5 -117.5q0 -70 -48.5 -119t-117.5 -49q-71 0 -119.5 49t-48.5 119zM346 1702q0 69 49 117.5t119 48.5q69 0 117.5 -48.5t48.5 -117.5q0 -70 -48.5 -119t-117.5 -49q-70 0 -119 49t-49 119zM82 1434h403v-1434
h-403v1434z" />
    <glyph glyph-name="Eth" unicode="&#xd0;" horiz-adv-x="1574" 
d="M-59 846h141v588h637q137 0 258 -30t220 -89.5t170.5 -144.5t111 -201t39.5 -252t-39.5 -252t-111 -201t-170.5 -144.5t-220 -89.5t-258 -30h-637v590h-141v256zM485 324h234q190 0 290.5 98.5t100.5 294.5q0 197 -100.5 295t-290.5 98h-234v-264h252v-256h-252v-266z
" />
    <glyph glyph-name="Ntilde" unicode="&#xd1;" horiz-adv-x="1656" 
d="M825 1784q17 -7 45 -18.5t40 -16.5t32 -12t29.5 -7.5t24 0t22.5 7.5t19 17.5t19.5 27t18.5 39.5l176 -62q-17 -50 -38.5 -89t-42 -65t-47.5 -42t-49 -25t-53 -8.5t-52 2.5t-54 12t-51.5 17t-50.5 20q-103 40 -118 44q-46 10 -73 -24q-17 -21 -38 -71l-178 63
q22 62 49.5 107t54 71t60.5 39.5t62 16.5t65.5 -4t64 -15.5t63.5 -23.5zM82 1434h403l686 -902v902h404v-1434h-404l-686 872v-872h-403v1434z" />
    <glyph glyph-name="Ograve" unicode="&#xd2;" horiz-adv-x="1714" 
d="M961 1530h-201l-162 356h240zM123 408q-64 140 -64 309t63.5 309.5t172.5 233t253.5 143.5t307.5 51q164 0 309 -51t254 -143.5t172.5 -233t63.5 -309.5t-63.5 -309.5t-172.5 -233t-254 -143.5t-309 -51q-163 0 -307.5 51t-253.5 143.5t-172 233.5zM856 1126
q-175 0 -282 -113t-107 -296t107.5 -296.5t281.5 -113.5t282.5 113.5t108.5 296.5t-108.5 296t-282.5 113z" />
    <glyph glyph-name="Oacute" unicode="&#xd3;" horiz-adv-x="1714" 
d="M758 1530l116 356h240l-156 -356h-200zM123 408q-64 140 -64 309t63.5 309.5t172.5 233t253.5 143.5t307.5 51q164 0 309 -51t254 -143.5t172.5 -233t63.5 -309.5t-63.5 -309.5t-172.5 -233t-254 -143.5t-309 -51q-163 0 -307.5 51t-253.5 143.5t-172 233.5zM856 1126
q-175 0 -282 -113t-107 -296t107.5 -296.5t281.5 -113.5t282.5 113.5t108.5 296.5t-108.5 296t-282.5 113z" />
    <glyph glyph-name="Ocircumflex" unicode="&#xd4;" horiz-adv-x="1714" 
d="M483 1532l269 350h213l268 -350h-250l-125 190l-123 -190h-252zM123 408q-64 140 -64 309t63.5 309.5t172.5 233t253.5 143.5t307.5 51q164 0 309 -51t254 -143.5t172.5 -233t63.5 -309.5t-63.5 -309.5t-172.5 -233t-254 -143.5t-309 -51q-163 0 -307.5 51t-253.5 143.5
t-172 233.5zM856 1126q-175 0 -282 -113t-107 -296t107.5 -296.5t281.5 -113.5t282.5 113.5t108.5 296.5t-108.5 296t-282.5 113z" />
    <glyph glyph-name="Otilde" unicode="&#xd5;" horiz-adv-x="1714" 
d="M854 1784q17 -7 45 -18.5t40 -16.5t32 -12t29.5 -7.5t24 0t22.5 7.5t19 17.5t19.5 27t18.5 39.5l176 -62q-17 -50 -38.5 -89t-42 -65t-47.5 -42t-49 -25t-53 -8.5t-52 2.5t-54 12t-51.5 17t-50.5 20q-103 40 -119 44q-46 10 -73 -24q-17 -23 -38 -71l-178 63
q22 62 49.5 107t54.5 71t60.5 39.5t62 16.5t66 -4t64 -15.5t63.5 -23.5zM123 408q-64 140 -64 309t63.5 309.5t172.5 233t253.5 143.5t307.5 51q164 0 309 -51t254 -143.5t172.5 -233t63.5 -309.5t-63.5 -309.5t-172.5 -233t-254 -143.5t-309 -51q-163 0 -307.5 51
t-253.5 143.5t-172 233.5zM856 1126q-175 0 -282 -113t-107 -296t107.5 -296.5t281.5 -113.5t282.5 113.5t108.5 296.5t-108.5 296t-282.5 113z" />
    <glyph glyph-name="Odieresis" unicode="&#xd6;" horiz-adv-x="1714" 
d="M459 1702q0 69 49 117.5t119 48.5q69 0 117.5 -48.5t48.5 -117.5q0 -70 -48.5 -119t-117.5 -49q-71 0 -119.5 49t-48.5 119zM920 1702q0 69 48.5 117.5t118.5 48.5q69 0 117.5 -48.5t48.5 -117.5q0 -70 -48.5 -119t-117.5 -49q-70 0 -118.5 48.5t-48.5 119.5zM123 408
q-64 140 -64 309t63.5 309.5t172.5 233t253.5 143.5t307.5 51q164 0 309 -51t254 -143.5t172.5 -233t63.5 -309.5t-63.5 -309.5t-172.5 -233t-254 -143.5t-309 -51q-163 0 -307.5 51t-253.5 143.5t-172 233.5zM856 1126q-175 0 -282 -113t-107 -296t107.5 -296.5
t281.5 -113.5t282.5 113.5t108.5 296.5t-108.5 296t-282.5 113z" />
    <glyph glyph-name="multiply" unicode="&#xd7;" horiz-adv-x="827" 
d="M78 332l155 155l-155 156l180 182l156 -155l155 155l181 -182l-156 -156l156 -155l-181 -180l-155 155l-156 -155z" />
    <glyph glyph-name="Oslash" unicode="&#xd8;" horiz-adv-x="1714" 
d="M406 -205l81 258q-196 86 -312 258t-116 406q0 169 63.5 309.5t172.5 233t253.5 143.5t307.5 51q47 0 70 -2l59 186h322l-82 -258q198 -86 314 -257.5t116 -405.5q0 -169 -63.5 -309.5t-172.5 -233t-254 -143.5t-309 -51q-47 0 -70 2l-59 -187h-321zM823 1124
q-160 -11 -258 -122.5t-98 -284.5q0 -99 33.5 -181.5t95.5 -136.5zM889 309q161 10 259.5 122.5t98.5 285.5q0 202 -131 317z" />
    <glyph glyph-name="Ugrave" unicode="&#xd9;" horiz-adv-x="1523" 
d="M868 1530h-200l-162 356h239zM1038 1434h404v-840q0 -314 -168 -464t-512 -150q-342 0 -511 150t-169 464v840h403v-840q0 -152 64.5 -219.5t212.5 -67.5q147 0 211.5 67t64.5 220v840z" />
    <glyph glyph-name="Uacute" unicode="&#xda;" horiz-adv-x="1523" 
d="M664 1530l116 356h240l-156 -356h-200zM1038 1434h404v-840q0 -314 -168 -464t-512 -150q-342 0 -511 150t-169 464v840h403v-840q0 -152 64.5 -219.5t212.5 -67.5q147 0 211.5 67t64.5 220v840z" />
    <glyph glyph-name="Ucircumflex" unicode="&#xdb;" horiz-adv-x="1523" 
d="M387 1532l268 350h213l269 -350h-250l-125 190l-123 -190h-252zM1038 1434h404v-840q0 -314 -168 -464t-512 -150q-342 0 -511 150t-169 464v840h403v-840q0 -152 64.5 -219.5t212.5 -67.5q147 0 211.5 67t64.5 220v840z" />
    <glyph glyph-name="Udieresis" unicode="&#xdc;" horiz-adv-x="1523" 
d="M365 1702q0 69 48.5 117.5t118.5 48.5q69 0 117.5 -48.5t48.5 -117.5q0 -70 -48.5 -119t-117.5 -49q-70 0 -118.5 48.5t-48.5 119.5zM825 1702q0 69 49 117.5t119 48.5q69 0 117.5 -48.5t48.5 -117.5q0 -70 -48.5 -119t-117.5 -49q-71 0 -119.5 49t-48.5 119zM1038 1434
h404v-840q0 -314 -168 -464t-512 -150q-342 0 -511 150t-169 464v840h403v-840q0 -152 64.5 -219.5t212.5 -67.5q147 0 211.5 67t64.5 220v840z" />
    <glyph glyph-name="Yacute" unicode="&#xdd;" horiz-adv-x="1693" 
d="M752 1530l116 356h240l-156 -356h-200zM645 430l-596 1004h465l334 -662l332 662h465l-596 -1004v-430h-404v430z" />
    <glyph glyph-name="Thorn" unicode="&#xde;" horiz-adv-x="1390" 
d="M82 1434h403v-228h295q41 0 84.5 -4.5t99 -18.5t105.5 -36t99.5 -60t85 -87.5t57.5 -121.5t22 -159t-22 -159.5t-57.5 -122t-85 -88t-99.5 -60.5t-105.5 -36t-99 -19t-84.5 -5h-295v-229h-403v1434zM485 547h258q77 0 130 42.5t53 129.5q0 85 -53.5 127.5t-129.5 42.5
h-258v-342z" />
    <glyph glyph-name="germandbls" unicode="&#xdf;" horiz-adv-x="1286" 
d="M57 948q0 245 145 375.5t410 130.5q160 0 283.5 -46t196.5 -140t73 -224q0 -104 -46 -183.5t-130 -127.5q120 -40 189 -121.5t69 -205.5q0 -201 -164.5 -312.5t-476.5 -111.5l-2 309q131 0 187.5 39.5t56.5 115.5q0 72 -41 110t-109 38h-92v252h37q141 0 141 145
q0 78 -45 116t-121 38t-118.5 -44.5t-42.5 -152.5v-948h-400v948z" />
    <glyph glyph-name="agrave" unicode="&#xe0;" horiz-adv-x="1177" 
d="M735 1120h-200l-162 357h239zM176 1024h440q126 0 214 -28t138 -82.5t71.5 -125t21.5 -165.5v-170q0 -74 26.5 -101.5t94.5 -27.5h12v-324h-266q-108 0 -153 38t-56 122q-67 -180 -291 -180q-181 0 -276 80.5t-95 232.5q0 78 23 136.5t74.5 103t141.5 67.5t218 23h162
q-2 53 -25 74.5t-96 21.5h-379v305zM676 457h-144q-54 0 -80 -19.5t-26 -68.5t30 -74t85 -25q22 0 42.5 4.5t43 15t36 34t13.5 55.5v78z" />
    <glyph glyph-name="aacute" unicode="&#xe1;" horiz-adv-x="1177" 
d="M465 1120l117 357h239l-155 -357h-201zM176 1024h440q126 0 214 -28t138 -82.5t71.5 -125t21.5 -165.5v-170q0 -74 26.5 -101.5t94.5 -27.5h12v-324h-266q-108 0 -153 38t-56 122q-67 -180 -291 -180q-181 0 -276 80.5t-95 232.5q0 78 23 136.5t74.5 103t141.5 67.5
t218 23h162q-2 53 -25 74.5t-96 21.5h-379v305zM676 457h-144q-54 0 -80 -19.5t-26 -68.5t30 -74t85 -25q22 0 42.5 4.5t43 15t36 34t13.5 55.5v78z" />
    <glyph glyph-name="acircumflex" unicode="&#xe2;" horiz-adv-x="1177" 
d="M215 1122l268 351h213l269 -351h-250l-125 191l-123 -191h-252zM176 1024h440q126 0 214 -28t138 -82.5t71.5 -125t21.5 -165.5v-170q0 -74 26.5 -101.5t94.5 -27.5h12v-324h-266q-108 0 -153 38t-56 122q-67 -180 -291 -180q-181 0 -276 80.5t-95 232.5q0 78 23 136.5
t74.5 103t141.5 67.5t218 23h162q-2 53 -25 74.5t-96 21.5h-379v305zM676 457h-144q-54 0 -80 -19.5t-26 -68.5t30 -74t85 -25q22 0 42.5 4.5t43 15t36 34t13.5 55.5v78z" />
    <glyph glyph-name="atilde" unicode="&#xe3;" horiz-adv-x="1177" 
d="M586 1374q17 -7 45 -18.5t40 -16.5t32 -12t29.5 -7.5t24 0t22.5 7.5t19 17.5t19.5 27t18.5 39.5l176 -61q-17 -50 -38.5 -89t-42.5 -65t-48 -42.5t-49 -25t-52.5 -8.5t-52.5 2.5t-54 12t-51 16.5t-51 20q-103 40 -118 44q-46 10 -73 -24q-17 -21 -38 -71l-178 64
q22 62 49.5 107t54.5 71t61 39t62 16t65.5 -4t64 -15.5t63.5 -23.5zM176 1024h440q126 0 214 -28t138 -82.5t71.5 -125t21.5 -165.5v-170q0 -74 26.5 -101.5t94.5 -27.5h12v-324h-266q-108 0 -153 38t-56 122q-67 -180 -291 -180q-181 0 -276 80.5t-95 232.5q0 78 23 136.5
t74.5 103t141.5 67.5t218 23h162q-2 53 -25 74.5t-96 21.5h-379v305zM676 457h-144q-54 0 -80 -19.5t-26 -68.5t30 -74t85 -25q22 0 42.5 4.5t43 15t36 34t13.5 55.5v78z" />
    <glyph glyph-name="adieresis" unicode="&#xe4;" horiz-adv-x="1177" 
d="M190 1292q0 69 49 117.5t119 48.5q69 0 117.5 -48.5t48.5 -117.5q0 -70 -48.5 -119t-117.5 -49q-70 0 -119 49t-49 119zM651 1292q0 69 49 117.5t119 48.5q69 0 117.5 -48.5t48.5 -117.5q0 -70 -48.5 -119t-117.5 -49q-71 0 -119.5 49t-48.5 119zM176 1024h440
q126 0 214 -28t138 -82.5t71.5 -125t21.5 -165.5v-170q0 -74 26.5 -101.5t94.5 -27.5h12v-324h-266q-108 0 -153 38t-56 122q-67 -180 -291 -180q-181 0 -276 80.5t-95 232.5q0 78 23 136.5t74.5 103t141.5 67.5t218 23h162q-2 53 -25 74.5t-96 21.5h-379v305zM676 457h-144
q-54 0 -80 -19.5t-26 -68.5t30 -74t85 -25q22 0 42.5 4.5t43 15t36 34t13.5 55.5v78z" />
    <glyph glyph-name="aring" unicode="&#xe5;" horiz-adv-x="1177" 
d="M283 1395q0 126 90.5 216.5t216.5 90.5q125 0 215 -90.5t90 -216.5q0 -125 -90.5 -216.5t-214.5 -91.5q-126 0 -216.5 91.5t-90.5 216.5zM455 1395q0 -52 41 -92.5t94 -40.5q52 0 92.5 40t40.5 93t-40.5 94t-92.5 41t-93.5 -41t-41.5 -94zM176 1024h440q126 0 214 -28
t138 -82.5t71.5 -125t21.5 -165.5v-170q0 -74 26.5 -101.5t94.5 -27.5h12v-324h-266q-108 0 -153 38t-56 122q-67 -180 -291 -180q-181 0 -276 80.5t-95 232.5q0 78 23 136.5t74.5 103t141.5 67.5t218 23h162q-2 53 -25 74.5t-96 21.5h-379v305zM676 457h-144
q-54 0 -80 -19.5t-26 -68.5t30 -74t85 -25q22 0 42.5 4.5t43 15t36 34t13.5 55.5v78z" />
    <glyph glyph-name="ae" unicode="&#xe6;" horiz-adv-x="1824" 
d="M158 1024h440q190 0 291 -61q134 84 323 84q286 0 430 -139t146 -388v-90h-717q13 -87 53 -119t109 -32q77 0 113 21t36 69h404q-14 -82 -53 -149.5t-106 -122.5t-173 -86t-242 -31q-149 0 -267.5 54.5t-190.5 155.5q-94 -210 -344 -210q-181 0 -276 80.5t-95 232.5
q0 78 23 136.5t74.5 103t141.5 67.5t218 23h161q-1 36 -9.5 55t-34.5 30t-76 11h-379v305zM1382 594q-10 83 -46.5 118.5t-102.5 35.5q-138 0 -162 -154h311zM657 457h-143q-54 0 -80 -19.5t-26 -68.5t29.5 -74t84.5 -25q22 0 42.5 4.5t43 15t36 34t13.5 55.5v78z" />
    <glyph glyph-name="ccedilla" unicode="&#xe7;" 
d="M430 514q0 -99 50.5 -155t137.5 -56q67 0 112.5 41t45.5 100h391q0 -66 -16.5 -128.5t-55.5 -123t-97 -106t-147.5 -74.5t-199.5 -32l-22 -74q100 -11 152.5 -50.5t52.5 -125.5q0 -65 -30 -112t-77 -71.5t-107.5 -35.5t-120.5 -8t-116 16v166q74 -21 129 -22t86 18t31 57
q0 43 -28 53t-116 10h-18l41 187q-224 29 -346.5 166t-122.5 360q0 249 155.5 389.5t430.5 140.5q116 0 210 -28t154.5 -73.5t101.5 -106.5t58.5 -124t17.5 -130h-391q0 58 -45.5 98.5t-112.5 40.5q-87 0 -137.5 -55t-50.5 -152z" />
    <glyph glyph-name="egrave" unicode="&#xe8;" 
d="M707 1120h-201l-162 357h240zM451 430q13 -87 52.5 -119t108.5 -32q77 0 113.5 21t36.5 69h403q-14 -82 -53 -149.5t-106 -122.5t-172.5 -86t-241.5 -31q-247 0 -400 142.5t-153 389.5q0 248 153 391.5t400 143.5q286 0 429.5 -139t145.5 -388v-90h-716zM762 594
q-10 83 -47 118.5t-103 35.5q-137 0 -161 -154h311z" />
    <glyph glyph-name="eacute" unicode="&#xe9;" 
d="M506 1120l117 357h239l-155 -357h-201zM451 430q13 -87 52.5 -119t108.5 -32q77 0 113.5 21t36.5 69h403q-14 -82 -53 -149.5t-106 -122.5t-172.5 -86t-241.5 -31q-247 0 -400 142.5t-153 389.5q0 248 153 391.5t400 143.5q286 0 429.5 -139t145.5 -388v-90h-716z
M762 594q-10 83 -47 118.5t-103 35.5q-137 0 -161 -154h311z" />
    <glyph glyph-name="ecircumflex" unicode="&#xea;" 
d="M229 1122l269 351h213l268 -351h-250l-125 191l-123 -191h-252zM451 430q13 -87 52.5 -119t108.5 -32q77 0 113.5 21t36.5 69h403q-14 -82 -53 -149.5t-106 -122.5t-172.5 -86t-241.5 -31q-247 0 -400 142.5t-153 389.5q0 248 153 391.5t400 143.5q286 0 429.5 -139
t145.5 -388v-90h-716zM762 594q-10 83 -47 118.5t-103 35.5q-137 0 -161 -154h311z" />
    <glyph glyph-name="edieresis" unicode="&#xeb;" 
d="M205 1292q0 69 49 117.5t119 48.5q69 0 117.5 -48.5t48.5 -117.5q0 -70 -48.5 -119t-117.5 -49q-71 0 -119.5 49t-48.5 119zM666 1292q0 69 49 117.5t119 48.5q69 0 117 -48.5t48 -117.5q0 -70 -48 -119t-117 -49q-70 0 -119 49t-49 119zM451 430q13 -87 52.5 -119
t108.5 -32q77 0 113.5 21t36.5 69h403q-14 -82 -53 -149.5t-106 -122.5t-172.5 -86t-241.5 -31q-247 0 -400 142.5t-153 389.5q0 248 153 391.5t400 143.5q286 0 429.5 -139t145.5 -388v-90h-716zM762 594q-10 83 -47 118.5t-103 35.5q-137 0 -161 -154h311z" />
    <glyph glyph-name="igrave" unicode="&#xec;" horiz-adv-x="518" 
d="M360 1120h-200l-162 357h240zM59 1024h400v-1024h-400v1024z" />
    <glyph glyph-name="iacute" unicode="&#xed;" horiz-adv-x="518" 
d="M162 1120l117 357h239l-156 -357h-200zM59 1024h400v-1024h-400v1024z" />
    <glyph glyph-name="icircumflex" unicode="&#xee;" horiz-adv-x="518" 
d="M-117 1122l269 351h213l268 -351h-250l-125 191l-123 -191h-252zM59 1024h400v-1024h-400v1024z" />
    <glyph glyph-name="idieresis" unicode="&#xef;" horiz-adv-x="518" 
d="M-139 1292q0 69 49 117.5t119 48.5q69 0 117.5 -48.5t48.5 -117.5q0 -70 -48.5 -119t-117.5 -49q-71 0 -119.5 49t-48.5 119zM322 1292q0 69 48.5 117.5t118.5 48.5q69 0 117.5 -48.5t48.5 -117.5q0 -70 -48.5 -119t-117.5 -49q-70 0 -118.5 48.5t-48.5 119.5zM59 1024
h400v-1024h-400v1024z" />
    <glyph glyph-name="eth" unicode="&#xf0;" horiz-adv-x="1312" 
d="M670 1436l139 -193h365v-180h-236l219 -303q96 -123 96 -283q0 -148 -77.5 -261.5t-213 -174.5t-305.5 -61q-163 0 -299 60.5t-217.5 175t-81.5 261.5q0 189 130.5 320t334.5 166l-73 100h-336v180h202l-143 193h496zM657 285q80 0 136.5 52.5t56.5 139.5
q0 86 -56.5 138.5t-136.5 52.5q-81 0 -137.5 -52.5t-56.5 -138.5q0 -88 56.5 -140t137.5 -52z" />
    <glyph glyph-name="ntilde" unicode="&#xf1;" horiz-adv-x="1239" 
d="M616 1374q17 -7 45 -18.5t40 -16.5t32 -12t29.5 -7.5t24 0t22.5 7.5t19 17.5t19.5 27t18.5 39.5l176 -61q-17 -50 -38.5 -89t-42.5 -65t-47.5 -42.5t-49 -25t-53 -8.5t-52 2.5t-54 12t-51 16.5t-50.5 20q-103 40 -118 44q-46 10 -73 -24q-17 -21 -38 -71l-178 64
q22 62 49.5 107t54 71t60.5 39t62 16t65.5 -4t64 -15.5t63.5 -23.5zM61 1024h400v-170q56 92 146.5 141t207.5 49q181 0 272 -106.5t91 -294.5v-643h-400v535q0 94 -33.5 140t-121.5 46q-75 0 -118.5 -47.5t-43.5 -141.5v-532h-400v1024z" />
    <glyph glyph-name="ograve" unicode="&#xf2;" horiz-adv-x="1269" 
d="M737 1120h-200l-162 357h239zM635 303q92 0 142 63t50 146t-50 146t-142 63q-93 0 -143 -63t-50 -146t50 -146t143 -63zM333 982q134 62 302 62t302.5 -62.5t214 -184.5t79.5 -285t-79.5 -285t-214 -184.5t-302.5 -62.5t-302.5 62.5t-214 184.5t-79.5 285t79.5 285
t214.5 185z" />
    <glyph glyph-name="oacute" unicode="&#xf3;" horiz-adv-x="1269" 
d="M537 1120l116 357h240l-156 -357h-200zM635 303q92 0 142 63t50 146t-50 146t-142 63q-93 0 -143 -63t-50 -146t50 -146t143 -63zM333 982q134 62 302 62t302.5 -62.5t214 -184.5t79.5 -285t-79.5 -285t-214 -184.5t-302.5 -62.5t-302.5 62.5t-214 184.5t-79.5 285
t79.5 285t214.5 185z" />
    <glyph glyph-name="ocircumflex" unicode="&#xf4;" horiz-adv-x="1269" 
d="M260 1122l268 351h213l269 -351h-250l-125 191l-123 -191h-252zM635 303q92 0 142 63t50 146t-50 146t-142 63q-93 0 -143 -63t-50 -146t50 -146t143 -63zM333 982q134 62 302 62t302.5 -62.5t214 -184.5t79.5 -285t-79.5 -285t-214 -184.5t-302.5 -62.5t-302.5 62.5
t-214 184.5t-79.5 285t79.5 285t214.5 185z" />
    <glyph glyph-name="otilde" unicode="&#xf5;" horiz-adv-x="1269" 
d="M631 1374q17 -7 45 -18.5t40 -16.5t32 -12t29.5 -7.5t24 0t22.5 7.5t19 17.5t19.5 27t18.5 39.5l176 -61q-17 -50 -38.5 -89t-42.5 -65t-48 -42.5t-49 -25t-52.5 -8.5t-52.5 2.5t-54 12t-51 16.5t-51 20q-103 40 -118 44q-46 10 -73 -24q-17 -21 -38 -71l-178 64
q22 62 49.5 107t54.5 71t61 39t62 16t65.5 -4t64 -15.5t63.5 -23.5zM635 303q92 0 142 63t50 146t-50 146t-142 63q-93 0 -143 -63t-50 -146t50 -146t143 -63zM333 982q134 62 302 62t302.5 -62.5t214 -184.5t79.5 -285t-79.5 -285t-214 -184.5t-302.5 -62.5t-302.5 62.5
t-214 184.5t-79.5 285t79.5 285t214.5 185z" />
    <glyph glyph-name="odieresis" unicode="&#xf6;" horiz-adv-x="1269" 
d="M236 1292q0 69 48.5 117.5t118.5 48.5q69 0 117.5 -48.5t48.5 -117.5q0 -70 -48.5 -119t-117.5 -49q-70 0 -118.5 48.5t-48.5 119.5zM696 1292q0 69 49 117.5t119 48.5q69 0 117.5 -48.5t48.5 -117.5q0 -70 -48.5 -119t-117.5 -49q-70 0 -119 49t-49 119zM635 303
q92 0 142 63t50 146t-50 146t-142 63q-93 0 -143 -63t-50 -146t50 -146t143 -63zM333 982q134 62 302 62t302.5 -62.5t214 -184.5t79.5 -285t-79.5 -285t-214 -184.5t-302.5 -62.5t-302.5 62.5t-214 184.5t-79.5 285t79.5 285t214.5 185z" />
    <glyph glyph-name="divide" unicode="&#xf7;" horiz-adv-x="768" 
d="M154 1040q0 92 64.5 156t160.5 64q91 0 155 -64.5t64 -155.5q0 -96 -63.5 -160.5t-155.5 -64.5q-97 0 -161 64t-64 161zM76 748h614v-256h-614v256zM154 205q0 92 64.5 155.5t160.5 63.5q91 0 155 -64t64 -155q0 -96 -63.5 -160.5t-155.5 -64.5q-97 0 -161 64t-64 161z
" />
    <glyph glyph-name="oslash" unicode="&#xf8;" horiz-adv-x="1304" 
d="M659 1044l60 185h321l-79 -250q134 -65 211 -185t77 -282q0 -127 -48 -229.5t-131 -167.5t-191 -100t-232 -35l-57 -185h-322l78 250q-134 65 -211.5 185.5t-77.5 281.5q0 127 48 229.5t131 167.5t191 100t232 35zM653 303q93 0 143 63t50 146t-50 146t-143 63
q-92 0 -142 -63t-50 -146t50 -146t142 -63z" />
    <glyph glyph-name="ugrave" unicode="&#xf9;" horiz-adv-x="1314" 
d="M717 1120h-201l-162 357h240zM1311 324v-324h-248q-119 0 -186 46.5t-89 141.5q-56 -101 -149 -154.5t-215 -53.5q-181 0 -272 106.5t-91 294.5v643h400v-535q0 -94 33.5 -140t121.5 -46q75 0 118.5 47.5t43.5 141.5v532h400v-571q0 -74 25.5 -101.5t92.5 -27.5h15z" />
    <glyph glyph-name="uacute" unicode="&#xfa;" horiz-adv-x="1314" 
d="M516 1120l117 357h239l-155 -357h-201zM1311 324v-324h-248q-119 0 -186 46.5t-89 141.5q-56 -101 -149 -154.5t-215 -53.5q-181 0 -272 106.5t-91 294.5v643h400v-535q0 -94 33.5 -140t121.5 -46q75 0 118.5 47.5t43.5 141.5v532h400v-571q0 -74 25.5 -101.5t92.5 -27.5
h15z" />
    <glyph glyph-name="ucircumflex" unicode="&#xfb;" horiz-adv-x="1314" 
d="M246 1122l268 351h213l268 -351h-250l-124 191l-123 -191h-252zM1311 324v-324h-248q-119 0 -186 46.5t-89 141.5q-56 -101 -149 -154.5t-215 -53.5q-181 0 -272 106.5t-91 294.5v643h400v-535q0 -94 33.5 -140t121.5 -46q75 0 118.5 47.5t43.5 141.5v532h400v-571
q0 -74 25.5 -101.5t92.5 -27.5h15z" />
    <glyph glyph-name="udieresis" unicode="&#xfc;" horiz-adv-x="1314" 
d="M219 1292q0 69 49 117.5t119 48.5q69 0 117.5 -48.5t48.5 -117.5q0 -70 -48.5 -119t-117.5 -49q-71 0 -119.5 49t-48.5 119zM680 1292q0 69 49 117.5t119 48.5q69 0 117.5 -48.5t48.5 -117.5q0 -70 -48.5 -119t-117.5 -49q-70 0 -119 49t-49 119zM1311 324v-324h-248
q-119 0 -186 46.5t-89 141.5q-56 -101 -149 -154.5t-215 -53.5q-181 0 -272 106.5t-91 294.5v643h400v-535q0 -94 33.5 -140t121.5 -46q75 0 118.5 47.5t43.5 141.5v532h400v-571q0 -74 25.5 -101.5t92.5 -27.5h15z" />
    <glyph glyph-name="yacute" unicode="&#xfd;" horiz-adv-x="1277" 
d="M543 1120l116 357h240l-156 -357h-200zM1247 1024l-424 -1044q-26 -64 -46.5 -107.5t-47 -86t-53 -68.5t-64.5 -50.5t-81 -37.5t-103 -23t-129.5 -13.5t-161.5 -3.5v328q124 0 177.5 6t76 21t39.5 53l10 22l-409 1004h401l211 -625l203 625h401z" />
    <glyph glyph-name="thorn" unicode="&#xfe;" horiz-adv-x="1302" 
d="M1135 897q129 -148 129 -385t-129 -384.5t-344 -147.5q-220 0 -330 163v-553h-400v1844h400v-553q110 163 330 163q215 0 344 -147zM461 453q0 -60 59.5 -105t138.5 -45q85 0 143 56.5t58 152.5t-58 152.5t-143 56.5q-79 0 -138.5 -45t-59.5 -105v-118z" />
    <glyph glyph-name="ydieresis" unicode="&#xff;" horiz-adv-x="1277" 
d="M240 1292q0 69 49 117.5t119 48.5q69 0 117 -48.5t48 -117.5q0 -70 -48 -119t-117 -49q-70 0 -119 49t-49 119zM700 1292q0 69 49 117.5t119 48.5q69 0 117.5 -48.5t48.5 -117.5q0 -70 -48.5 -119t-117.5 -49q-70 0 -119 49t-49 119zM1247 1024l-424 -1044
q-26 -64 -46.5 -107.5t-47 -86t-53 -68.5t-64.5 -50.5t-81 -37.5t-103 -23t-129.5 -13.5t-161.5 -3.5v328q124 0 177.5 6t76 21t39.5 53l10 22l-409 1004h401l211 -625l203 625h401z" />
    <glyph glyph-name="Amacron" unicode="&#x100;" horiz-adv-x="1703" 
d="M557 1767h592v-184h-592v184zM651 1434h404l618 -1432h-403l-96 246h-644l-96 -246h-403zM653 557h398l-199 504z" />
    <glyph glyph-name="amacron" unicode="&#x101;" horiz-adv-x="1177" 
d="M293 1358h592v-184h-592v184zM176 1024h440q126 0 214 -28t138 -82.5t71.5 -125t21.5 -165.5v-170q0 -74 26.5 -101.5t94.5 -27.5h12v-324h-266q-108 0 -153 38t-56 122q-67 -180 -291 -180q-181 0 -276 80.5t-95 232.5q0 78 23 136.5t74.5 103t141.5 67.5t218 23h162
q-2 53 -25 74.5t-96 21.5h-379v305zM676 457h-144q-54 0 -80 -19.5t-26 -68.5t30 -74t85 -25q22 0 42.5 4.5t43 15t36 34t13.5 55.5v78z" />
    <glyph glyph-name="Abreve" unicode="&#x102;" horiz-adv-x="1703" 
d="M498 1905h182q0 -80 42.5 -133.5t129.5 -53.5t129.5 53.5t42.5 133.5h182q0 -99 -30.5 -173.5t-82 -116.5t-112 -62.5t-129.5 -20.5t-129.5 20.5t-112 62.5t-82 116.5t-30.5 173.5zM651 1434h404l618 -1432h-403l-96 246h-644l-96 -246h-403zM653 557h398l-199 504z" />
    <glyph glyph-name="abreve" unicode="&#x103;" horiz-adv-x="1177" 
d="M233 1495h183q0 -80 42.5 -133t129.5 -53t129.5 53t42.5 133h182q0 -99 -30.5 -173.5t-82 -116.5t-112 -62.5t-129.5 -20.5t-129.5 20.5t-112.5 62.5t-82.5 116.5t-30.5 173.5zM176 1024h440q126 0 214 -28t138 -82.5t71.5 -125t21.5 -165.5v-170q0 -74 26.5 -101.5
t94.5 -27.5h12v-324h-266q-108 0 -153 38t-56 122q-67 -180 -291 -180q-181 0 -276 80.5t-95 232.5q0 78 23 136.5t74.5 103t141.5 67.5t218 23h162q-2 53 -25 74.5t-96 21.5h-379v305zM676 457h-144q-54 0 -80 -19.5t-26 -68.5t30 -74t85 -25q22 0 42.5 4.5t43 15t36 34
t13.5 55.5v78z" />
    <glyph glyph-name="Aogonek" unicode="&#x104;" horiz-adv-x="1703" 
d="M651 1434h404l618 -1432h-235q-68 -73 -101.5 -125t-33.5 -104q0 -41 22 -62.5t64 -23.5t88 5.5t108 24.5v-184q-67 -17 -143.5 -19t-151.5 12.5t-124.5 62.5t-49.5 124q0 120 152 293l-94 242h-644l-96 -246h-403zM653 557h398l-199 504z" />
    <glyph glyph-name="aogonek" unicode="&#x105;" horiz-adv-x="1177" 
d="M176 1024h440q126 0 214 -28t138 -82.5t71.5 -125t21.5 -165.5v-170q0 -74 26.5 -101.5t94.5 -27.5h12v-324h-178q-62 -69 -92.5 -118.5t-30.5 -98.5q0 -41 22 -62t64 -23t88 5.5t109 24.5v-185q-67 -17 -143.5 -19t-151.5 13t-124.5 63t-49.5 124q0 119 143 282
q-64 12 -93.5 49t-37.5 105q-67 -180 -291 -180q-181 0 -276 80.5t-95 232.5q0 78 23 136.5t74.5 103t141.5 67.5t218 23h162q-2 53 -25 74.5t-96 21.5h-379v305zM676 457h-144q-54 0 -80 -19.5t-26 -68.5t30 -74t85 -25q22 0 42.5 4.5t43 15t36 34t13.5 55.5v78z" />
    <glyph glyph-name="Cacute" unicode="&#x106;" horiz-adv-x="1607" 
d="M686 1530l117 356h239l-155 -356h-201zM489 880q-22 -72 -22 -163t22 -163t58 -117.5t84.5 -75.5t98.5 -42t104 -12q132 0 221.5 82t89.5 197h403q0 -83 -28 -167.5t-87 -163.5t-141 -140t-201 -98t-257 -37q-162 0 -303.5 51.5t-246 145t-165 233t-60.5 307.5
t60.5 307.5t165 233t246 145t303.5 51.5q138 0 257 -37t201 -98t141 -140t87 -163.5t28 -167.5h-403q0 115 -89.5 196.5t-221.5 81.5q-54 0 -103.5 -12t-98.5 -41.5t-85 -75t-58 -117.5z" />
    <glyph glyph-name="cacute" unicode="&#x107;" 
d="M522 1120l117 357h240l-156 -357h-201zM430 514q0 -99 50.5 -155t137.5 -56q67 0 112.5 41t45.5 100h391q0 -67 -17.5 -131t-58.5 -125t-101.5 -106.5t-154.5 -73.5t-210 -28q-276 0 -431 141t-155 393q0 249 155.5 389.5t430.5 140.5q116 0 210 -28t154.5 -73.5
t101.5 -106.5t58.5 -124t17.5 -130h-391q0 58 -45.5 98.5t-112.5 40.5q-87 0 -137.5 -55t-50.5 -152z" />
    <glyph glyph-name="Ccircumflex" unicode="&#x108;" horiz-adv-x="1607" 
d="M430 1532l268 350h213l269 -350h-250l-125 190l-123 -190h-252zM489 880q-22 -72 -22 -163t22 -163t58 -117.5t84.5 -75.5t98.5 -42t104 -12q132 0 221.5 82t89.5 197h403q0 -83 -28 -167.5t-87 -163.5t-141 -140t-201 -98t-257 -37q-162 0 -303.5 51.5t-246 145
t-165 233t-60.5 307.5t60.5 307.5t165 233t246 145t303.5 51.5q138 0 257 -37t201 -98t141 -140t87 -163.5t28 -167.5h-403q0 115 -89.5 196.5t-221.5 81.5q-54 0 -103.5 -12t-98.5 -41.5t-85 -75t-58 -117.5z" />
    <glyph glyph-name="ccircumflex" unicode="&#x109;" 
d="M229 1122l269 351h213l268 -351h-250l-125 191l-123 -191h-252zM430 514q0 -99 50.5 -155t137.5 -56q67 0 112.5 41t45.5 100h391q0 -67 -17.5 -131t-58.5 -125t-101.5 -106.5t-154.5 -73.5t-210 -28q-276 0 -431 141t-155 393q0 249 155.5 389.5t430.5 140.5
q116 0 210 -28t154.5 -73.5t101.5 -106.5t58.5 -124t17.5 -130h-391q0 58 -45.5 98.5t-112.5 40.5q-87 0 -137.5 -55t-50.5 -152z" />
    <glyph glyph-name="Cdotaccent" unicode="&#x10a;" horiz-adv-x="1607" 
d="M635 1700q0 69 49 117.5t119 48.5q69 0 117.5 -48.5t48.5 -117.5q0 -70 -48.5 -119t-117.5 -49q-71 0 -119.5 49t-48.5 119zM489 880q-22 -72 -22 -163t22 -163t58 -117.5t84.5 -75.5t98.5 -42t104 -12q132 0 221.5 82t89.5 197h403q0 -83 -28 -167.5t-87 -163.5
t-141 -140t-201 -98t-257 -37q-162 0 -303.5 51.5t-246 145t-165 233t-60.5 307.5t60.5 307.5t165 233t246 145t303.5 51.5q138 0 257 -37t201 -98t141 -140t87 -163.5t28 -167.5h-403q0 115 -89.5 196.5t-221.5 81.5q-54 0 -103.5 -12t-98.5 -41.5t-85 -75t-58 -117.5z" />
    <glyph glyph-name="cdotaccent" unicode="&#x10b;" 
d="M434 1290q0 69 49 117.5t119 48.5q69 0 117.5 -48.5t48.5 -117.5q0 -70 -48.5 -119t-117.5 -49q-70 0 -119 49t-49 119zM430 514q0 -99 50.5 -155t137.5 -56q67 0 112.5 41t45.5 100h391q0 -67 -17.5 -131t-58.5 -125t-101.5 -106.5t-154.5 -73.5t-210 -28
q-276 0 -431 141t-155 393q0 249 155.5 389.5t430.5 140.5q116 0 210 -28t154.5 -73.5t101.5 -106.5t58.5 -124t17.5 -130h-391q0 58 -45.5 98.5t-112.5 40.5q-87 0 -137.5 -55t-50.5 -152z" />
    <glyph glyph-name="Ccaron" unicode="&#x10c;" horiz-adv-x="1607" 
d="M430 1880h250l125 -190l123 190h252l-269 -350h-213zM489 880q-22 -72 -22 -163t22 -163t58 -117.5t84.5 -75.5t98.5 -42t104 -12q132 0 221.5 82t89.5 197h403q0 -83 -28 -167.5t-87 -163.5t-141 -140t-201 -98t-257 -37q-162 0 -303.5 51.5t-246 145t-165 233
t-60.5 307.5t60.5 307.5t165 233t246 145t303.5 51.5q138 0 257 -37t201 -98t141 -140t87 -163.5t28 -167.5h-403q0 115 -89.5 196.5t-221.5 81.5q-54 0 -103.5 -12t-98.5 -41.5t-85 -75t-58 -117.5z" />
    <glyph glyph-name="ccaron" unicode="&#x10d;" 
d="M229 1470h250l125 -190l123 190h252l-268 -350h-213zM430 514q0 -99 50.5 -155t137.5 -56q67 0 112.5 41t45.5 100h391q0 -67 -17.5 -131t-58.5 -125t-101.5 -106.5t-154.5 -73.5t-210 -28q-276 0 -431 141t-155 393q0 249 155.5 389.5t430.5 140.5q116 0 210 -28
t154.5 -73.5t101.5 -106.5t58.5 -124t17.5 -130h-391q0 58 -45.5 98.5t-112.5 40.5q-87 0 -137.5 -55t-50.5 -152z" />
    <glyph glyph-name="Dcaron" unicode="&#x10e;" horiz-adv-x="1574" 
d="M414 1880h250l124 -190l123 190h252l-268 -350h-213zM719 1434q137 0 258 -30t220 -89.5t170.5 -144.5t111 -201t39.5 -252t-39.5 -252t-111 -201t-170.5 -144.5t-220 -89.5t-258 -30h-637v1434h637zM485 324h234q190 0 290.5 98.5t100.5 294.5q0 197 -100.5 295
t-290.5 98h-234v-786z" />
    <glyph glyph-name="dcaron" unicode="&#x10f;" horiz-adv-x="1884" 
d="M1366 1235q0 92 64.5 155.5t160.5 63.5q91 0 155 -64t64 -155q0 -73 -34 -125l-207 -387h-197l141 299q-67 23 -107 81t-40 132zM168 128q-129 147 -129 384t129 384.5t344 147.5q220 0 330 -163v553h399v-1434h-399v143q-110 -163 -330 -163q-215 0 -344 148zM643 303
q80 0 139.5 45t59.5 105v118q0 60 -59.5 105t-139.5 45q-85 0 -143 -56.5t-58 -152.5t58 -152.5t143 -56.5z" />
    <glyph glyph-name="Dcroat" unicode="&#x110;" horiz-adv-x="1574" 
d="M-59 846h141v588h637q137 0 258 -30t220 -89.5t170.5 -144.5t111 -201t39.5 -252t-39.5 -252t-111 -201t-170.5 -144.5t-220 -89.5t-258 -30h-637v590h-141v256zM485 324h234q190 0 290.5 98.5t100.5 294.5q0 197 -100.5 295t-290.5 98h-234v-264h252v-256h-252v-266z
" />
    <glyph glyph-name="dcroat" unicode="&#x111;" horiz-adv-x="1302" 
d="M547 1321h295v113h399v-113h172v-184h-172v-1137h-399v160q-97 -180 -330 -180q-215 0 -344 147.5t-129 384.5t129 384.5t344 147.5q233 0 330 -180v273h-295v184zM643 303q80 0 139.5 45t59.5 105v118q0 60 -59.5 105t-139.5 45q-85 0 -143 -56.5t-58 -152.5t58 -152.5
t143 -56.5z" />
    <glyph glyph-name="Emacron" unicode="&#x112;" horiz-adv-x="1226" 
d="M342 1767h592v-184h-592v184zM82 1434h1092v-328h-689v-229h627v-310h-627v-239h689v-328h-1092v1434z" />
    <glyph glyph-name="emacron" unicode="&#x113;" 
d="M307 1358h592v-184h-592v184zM451 430q13 -87 52.5 -119t108.5 -32q77 0 113.5 21t36.5 69h403q-14 -82 -53 -149.5t-106 -122.5t-172.5 -86t-241.5 -31q-247 0 -400 142.5t-153 389.5q0 248 153 391.5t400 143.5q286 0 429.5 -139t145.5 -388v-90h-716zM762 594
q-10 83 -47 118.5t-103 35.5q-137 0 -161 -154h311z" />
    <glyph glyph-name="Ebreve" unicode="&#x114;" horiz-adv-x="1226" 
d="M283 1905h182q0 -80 42.5 -133.5t129.5 -53.5t129.5 53.5t42.5 133.5h182q0 -99 -30.5 -173.5t-82 -116.5t-112 -62.5t-129.5 -20.5t-129.5 20.5t-112 62.5t-82 116.5t-30.5 173.5zM82 1434h1092v-328h-689v-229h627v-310h-627v-239h689v-328h-1092v1434z" />
    <glyph glyph-name="ebreve" unicode="&#x115;" 
d="M268 1495h183q0 -80 42.5 -133t129.5 -53t129.5 53t42.5 133h182q0 -99 -30.5 -173.5t-82 -116.5t-112 -62.5t-129.5 -20.5t-129.5 20.5t-112.5 62.5t-82.5 116.5t-30.5 173.5zM451 430q13 -87 52.5 -119t108.5 -32q77 0 113.5 21t36.5 69h403q-14 -82 -53 -149.5
t-106 -122.5t-172.5 -86t-241.5 -31q-247 0 -400 142.5t-153 389.5q0 248 153 391.5t400 143.5q286 0 429.5 -139t145.5 -388v-90h-716zM762 594q-10 83 -47 118.5t-103 35.5q-137 0 -161 -154h311z" />
    <glyph glyph-name="Edotaccent" unicode="&#x116;" horiz-adv-x="1226" 
d="M469 1700q0 69 49 117.5t119 48.5q69 0 117.5 -48.5t48.5 -117.5q0 -70 -48.5 -119t-117.5 -49q-71 0 -119.5 49t-48.5 119zM82 1434h1092v-328h-689v-229h627v-310h-627v-239h689v-328h-1092v1434z" />
    <glyph glyph-name="edotaccent" unicode="&#x117;" 
d="M434 1290q0 69 49 117.5t119 48.5q69 0 117.5 -48.5t48.5 -117.5q0 -70 -48.5 -119t-117.5 -49q-70 0 -119 49t-49 119zM451 430q13 -87 52.5 -119t108.5 -32q77 0 113.5 21t36.5 69h403q-14 -82 -53 -149.5t-106 -122.5t-172.5 -86t-241.5 -31q-247 0 -400 142.5
t-153 389.5q0 248 153 391.5t400 143.5q286 0 429.5 -139t145.5 -388v-90h-716zM762 594q-10 83 -47 118.5t-103 35.5q-137 0 -161 -154h311z" />
    <glyph glyph-name="Eogonek" unicode="&#x118;" horiz-adv-x="1226" 
d="M82 1434h1092v-328h-689v-229h627v-310h-627v-239h689v-328h-146q-68 -73 -101.5 -125t-33.5 -104q0 -41 22 -62.5t64 -23.5t88.5 5.5t108.5 24.5v-184q-67 -17 -143.5 -19t-151.5 12.5t-124.5 62.5t-49.5 124q0 126 147 289h-772v1434z" />
    <glyph glyph-name="eogonek" unicode="&#x119;" 
d="M817 -483q-67 -17 -143.5 -19t-151.5 12.5t-124.5 62.5t-49.5 124q0 125 148 289q-208 27 -332.5 166t-124.5 360q0 248 153 391.5t400 143.5q286 0 429.5 -139t145.5 -388v-90h-716q13 -87 52.5 -119t108.5 -32q77 0 113.5 21t36.5 69h403q-14 -76 -48.5 -140
t-93 -117.5t-149.5 -87.5t-208 -42q-65 -70 -98 -122.5t-33 -103.5q0 -41 22 -62t64 -23t87.5 5.5t108.5 24.5v-184zM762 594q-10 83 -47 118.5t-103 35.5q-137 0 -161 -154h311z" />
    <glyph glyph-name="Ecaron" unicode="&#x11a;" horiz-adv-x="1226" 
d="M281 1880h249l125 -190l123 190h252l-268 -350h-213zM82 1434h1092v-328h-689v-229h627v-310h-627v-239h689v-328h-1092v1434z" />
    <glyph glyph-name="ecaron" unicode="&#x11b;" 
d="M229 1470h250l125 -190l123 190h252l-268 -350h-213zM451 430q13 -87 52.5 -119t108.5 -32q77 0 113.5 21t36.5 69h403q-14 -82 -53 -149.5t-106 -122.5t-172.5 -86t-241.5 -31q-247 0 -400 142.5t-153 389.5q0 248 153 391.5t400 143.5q286 0 429.5 -139t145.5 -388v-90
h-716zM762 594q-10 83 -47 118.5t-103 35.5q-137 0 -161 -154h311z" />
    <glyph glyph-name="Gcircumflex" unicode="&#x11c;" horiz-adv-x="1628" 
d="M440 1532l269 350h213l268 -350h-250l-125 190l-123 -190h-252zM467 719q0 -208 111.5 -318t312.5 -110q284 0 332 225h-410v283h756v-799h-338v117q-151 -135 -395 -135q-151 0 -290.5 51.5t-248 144t-173.5 233.5t-65 308q0 134 42.5 251.5t117 205t173.5 151t215 95.5
t239 32q148 0 282.5 -48.5t224 -124t142.5 -168t53 -181.5h-403q0 86 -87 140t-220 54q-175 0 -273 -101.5t-98 -305.5z" />
    <glyph glyph-name="gcircumflex" unicode="&#x11d;" horiz-adv-x="1302" 
d="M276 1122l269 351h213l268 -351h-250l-125 191l-123 -191h-252zM207 -98h463q100 0 136 24.5t36 112.5v104q-110 -163 -330 -163q-215 0 -344 147.5t-129 384.5t129 384.5t344 147.5q220 0 330 -163v143h399v-932q0 -257 -126.5 -379.5t-407.5 -122.5h-500v312zM643 303
q80 0 139.5 45t59.5 105v118q0 60 -59.5 105t-139.5 45q-85 0 -143 -56.5t-58 -152.5t58 -152.5t143 -56.5z" />
    <glyph glyph-name="Gbreve" unicode="&#x11e;" horiz-adv-x="1628" 
d="M459 1905h182q0 -80 42.5 -133.5t129.5 -53.5t129.5 53.5t42.5 133.5h182q0 -99 -30.5 -173.5t-82 -116.5t-112 -62.5t-129.5 -20.5t-129.5 20.5t-112 62.5t-82 116.5t-30.5 173.5zM467 719q0 -208 111.5 -318t312.5 -110q284 0 332 225h-410v283h756v-799h-338v117
q-151 -135 -395 -135q-151 0 -290.5 51.5t-248 144t-173.5 233.5t-65 308q0 134 42.5 251.5t117 205t173.5 151t215 95.5t239 32q148 0 282.5 -48.5t224 -124t142.5 -168t53 -181.5h-403q0 86 -87 140t-220 54q-175 0 -273 -101.5t-98 -305.5z" />
    <glyph glyph-name="gbreve" unicode="&#x11f;" horiz-adv-x="1302" 
d="M297 1495h182q0 -80 42.5 -133t129.5 -53t129.5 53t42.5 133h183q0 -99 -30.5 -173.5t-82.5 -116.5t-112.5 -62.5t-129.5 -20.5t-129.5 20.5t-112 62.5t-82 116.5t-30.5 173.5zM207 -98h463q100 0 136 24.5t36 112.5v104q-110 -163 -330 -163q-215 0 -344 147.5
t-129 384.5t129 384.5t344 147.5q220 0 330 -163v143h399v-932q0 -257 -126.5 -379.5t-407.5 -122.5h-500v312zM643 303q80 0 139.5 45t59.5 105v118q0 60 -59.5 105t-139.5 45q-85 0 -143 -56.5t-58 -152.5t58 -152.5t143 -56.5z" />
    <glyph glyph-name="Gdotaccent" unicode="&#x120;" horiz-adv-x="1628" 
d="M645 1700q0 69 49 117.5t119 48.5q69 0 117.5 -48.5t48.5 -117.5q0 -70 -48.5 -119t-117.5 -49q-71 0 -119.5 49t-48.5 119zM467 719q0 -208 111.5 -318t312.5 -110q284 0 332 225h-410v283h756v-799h-338v117q-151 -135 -395 -135q-151 0 -290.5 51.5t-248 144
t-173.5 233.5t-65 308q0 134 42.5 251.5t117 205t173.5 151t215 95.5t239 32q148 0 282.5 -48.5t224 -124t142.5 -168t53 -181.5h-403q0 86 -87 140t-220 54q-175 0 -273 -101.5t-98 -305.5z" />
    <glyph glyph-name="gdotaccent" unicode="&#x121;" horiz-adv-x="1302" 
d="M483 1290q0 69 49 117.5t119 48.5q69 0 117.5 -48.5t48.5 -117.5q0 -70 -48.5 -119t-117.5 -49q-71 0 -119.5 49t-48.5 119zM207 -98h463q100 0 136 24.5t36 112.5v104q-110 -163 -330 -163q-215 0 -344 147.5t-129 384.5t129 384.5t344 147.5q220 0 330 -163v143h399
v-932q0 -257 -126.5 -379.5t-407.5 -122.5h-500v312zM643 303q80 0 139.5 45t59.5 105v118q0 60 -59.5 105t-139.5 45q-85 0 -143 -56.5t-58 -152.5t58 -152.5t143 -56.5z" />
    <glyph glyph-name="uni0122" unicode="&#x122;" horiz-adv-x="1628" 
d="M467 719q0 -208 111.5 -318t312.5 -110q284 0 332 225h-410v283h756v-799h-338v117q-151 -135 -395 -135q-151 0 -290.5 51.5t-248 144t-173.5 233.5t-65 308q0 134 42.5 251.5t117 205t173.5 151t215 95.5t239 32q148 0 282.5 -48.5t224 -124t142.5 -168t53 -181.5h-403
q0 86 -87 140t-220 54q-175 0 -273 -101.5t-98 -305.5zM694 -211q0 52 36 87.5t91 35.5q51 0 87 -36t36 -87q0 -45 -22 -76l-115 -217h-109l78 172q-37 12 -59.5 45t-22.5 76z" />
    <glyph glyph-name="uni0123" unicode="&#x123;" horiz-adv-x="1302" 
d="M827 1247q0 -51 -36.5 -87t-90.5 -36q-51 0 -86.5 36t-35.5 87q0 45 22 76l115 217h108l-78 -172q37 -14 59.5 -46.5t22.5 -74.5zM207 -139h463q93 0 132.5 42.5t39.5 135.5v104q-110 -163 -330 -163q-215 0 -344 147.5t-129 384.5t129 384.5t344 147.5q220 0 330 -163
v143h399v-932q0 -257 -126.5 -379.5t-407.5 -122.5h-500v271zM645 303q77 0 137 45t60 105v118q0 60 -60 105t-137 45q-87 0 -145 -56t-58 -153t58 -153t145 -56z" />
    <glyph glyph-name="Hcircumflex" unicode="&#x124;" horiz-adv-x="1675" 
d="M463 1532l268 350h213l268 -350h-249l-125 190l-123 -190h-252zM82 1434h403v-537h705v537h403v-1434h-403v569h-705v-569h-403v1434z" />
    <glyph glyph-name="hcircumflex" unicode="&#x125;" horiz-adv-x="1239" 
d="M489 1085l269 351h213l268 -351h-250l-125 191l-123 -191h-252zM61 1434h400v-580q56 92 146.5 141t207.5 49q181 0 272 -106.5t91 -294.5v-643h-400v535q0 94 -33.5 140t-121.5 46q-75 0 -118.5 -47.5t-43.5 -141.5v-532h-400v1434z" />
    <glyph glyph-name="Hbar" unicode="&#x126;" horiz-adv-x="1675" 
d="M82 1434h403v-277h705v277h403v-1434h-403v252h-705v-252h-403v1434zM485 580h705v249h-705v-249z" />
    <glyph glyph-name="hbar" unicode="&#x127;" horiz-adv-x="1239" 
d="M756 1321v-184h-295v-283q56 92 146.5 141t207.5 49q181 0 272 -106.5t91 -294.5v-643h-400v535q0 94 -33.5 140t-121.5 46q-75 0 -118.5 -47.5t-43.5 -141.5v-532h-400v1137h-172v184h172v113h400v-113h295z" />
    <glyph glyph-name="Itilde" unicode="&#x128;" horiz-adv-x="567" 
d="M281 1784q17 -7 44.5 -18.5t40 -16.5t32.5 -12t29 -7.5t23.5 0t22.5 7.5t19 17.5t19.5 27t18.5 39.5l177 -62q-30 -89 -73.5 -142t-82.5 -72.5t-97 -14.5t-92.5 16t-93.5 35q-103 40 -118 44q-46 10 -73 -24q-17 -21 -38 -71l-178 63q22 62 49.5 107t54.5 71t60.5 39.5
t62 16.5t66 -4t64 -15.5t63.5 -23.5zM82 1434h403v-1434h-403v1434z" />
    <glyph glyph-name="itilde" unicode="&#x129;" horiz-adv-x="518" 
d="M256 1374q17 -7 45 -18.5t40 -16.5t32 -12t29.5 -7.5t24 0t22.5 7.5t19 17.5t19.5 27t18.5 39.5l176 -61q-17 -50 -38.5 -89t-42.5 -65t-47.5 -42.5t-49 -25t-53 -8.5t-52 2.5t-54 12t-51 16.5t-50.5 20q-103 40 -119 44q-46 10 -73 -24q-17 -22 -38 -71l-178 64
q22 62 49.5 107t54.5 71t61 39t62 16t65.5 -4t64 -15.5t63.5 -23.5zM59 1024h400v-1024h-400v1024z" />
    <glyph glyph-name="Imacron" unicode="&#x12a;" horiz-adv-x="567" 
d="M-12 1767h592v-184h-592v184zM82 1434h403v-1434h-403v1434z" />
    <glyph glyph-name="imacron" unicode="&#x12b;" horiz-adv-x="518" 
d="M-37 1358h592v-184h-592v184zM59 1024h400v-1024h-400v1024z" />
    <glyph glyph-name="Iogonek" unicode="&#x12e;" horiz-adv-x="567" 
d="M82 1434h403v-1434h-123l3 -2q-69 -74 -102.5 -125.5t-33.5 -103.5q0 -41 22 -62.5t64 -23.5t88.5 5.5t108.5 24.5v-184q-67 -17 -143.5 -19t-151.5 12.5t-124.5 62.5t-49.5 124q0 124 150 291h-111v1434z" />
    <glyph glyph-name="iogonek" unicode="&#x12f;" horiz-adv-x="518" 
d="M41 1311q0 90 65 152.5t158 62.5q89 0 152 -63t63 -152q0 -95 -62.5 -159.5t-152.5 -64.5q-94 0 -158.5 64.5t-64.5 159.5zM59 1024h400v-1024h-111l2 -2q-68 -73 -101.5 -125t-33.5 -104q0 -41 22 -62.5t64 -23.5t88.5 5.5t108.5 24.5v-184q-67 -17 -143.5 -19
t-151.5 12.5t-124.5 62.5t-49.5 124q0 125 149 291h-119v1024z" />
    <glyph glyph-name="Idotaccent" unicode="&#x130;" horiz-adv-x="567" 
d="M117 1700q0 69 49 117.5t119 48.5q69 0 117.5 -48.5t48.5 -117.5q0 -70 -48.5 -119t-117.5 -49q-71 0 -119.5 49t-48.5 119zM82 1434h403v-1434h-403v1434z" />
    <glyph glyph-name="dotlessi" unicode="&#x131;" horiz-adv-x="518" 
d="M59 1024h400v-1024h-400v1024z" />
    <glyph glyph-name="IJ" unicode="&#x132;" horiz-adv-x="1912" 
d="M82 1434h403v-1434h-403v1434zM1427 1434h404v-871q0 -98 -21 -183.5t-67.5 -159.5t-115 -127t-168 -83t-222.5 -30q-158 0 -275 45.5t-186.5 129t-103 191t-33.5 240.5h403q0 -279 195 -279q67 0 112 40t61.5 95t16.5 121v871z" />
    <glyph glyph-name="ij" unicode="&#x133;" horiz-adv-x="1034" 
d="M41 1311q0 90 65 152.5t158 62.5q89 0 152 -63t63 -152q0 -95 -62.5 -159.5t-152.5 -64.5q-94 0 -158.5 64.5t-64.5 159.5zM555 1311q0 90 64 152.5t159 62.5q89 0 152 -63t63 -152q0 -95 -62.5 -159.5t-152.5 -64.5q-95 0 -159 64.5t-64 159.5zM59 1024h400v-1024h-400
v1024zM358 -98h107q63 0 88 18.5t25 79.5v1024h399v-1112q0 -161 -90 -241.5t-260 -80.5h-269v312z" />
    <glyph glyph-name="Jcircumflex" unicode="&#x134;" horiz-adv-x="1345" 
d="M672 1532l268 350h213l268 -350h-250l-124 190l-123 -190h-252zM860 1434h404v-871q0 -98 -21 -183.5t-67.5 -159.5t-115 -127t-168 -83t-222.5 -30q-158 0 -275 45.5t-186.5 129t-103 191t-33.5 240.5h403q0 -279 195 -279q67 0 112 40t61.5 95t16.5 121v871z" />
    <glyph glyph-name="jcircumflex" unicode="&#x135;" horiz-adv-x="518" 
d="M-117 1122l269 351h213l268 -351h-250l-125 191l-123 -191h-252zM-162 -121h109q59 0 85.5 28.5t26.5 94.5v1024h400v-1114q0 -161 -90 -241.5t-260 -80.5h-271v289z" />
    <glyph glyph-name="uni0136" unicode="&#x136;" horiz-adv-x="1566" 
d="M82 1434h403v-600h127l371 600h483l-491 -742l561 -692h-506l-391 518h-154v-518h-403v1434zM629 -211q0 52 36 87.5t91 35.5q51 0 87 -36t36 -87q0 -43 -23 -76l-115 -217h-108l78 172q-37 12 -59.5 45t-22.5 76z" />
    <glyph glyph-name="uni0137" unicode="&#x137;" horiz-adv-x="1275" 
d="M61 1434h400v-748h78l182 338h463l-297 -481l356 -543h-473l-219 379h-90v-379h-400v1434zM520 -211q0 52 36 87.5t91 35.5q51 0 87 -36t36 -87q0 -45 -22 -76l-115 -217h-109l78 172q-37 12 -59.5 45t-22.5 76z" />
    <glyph glyph-name="kgreenlandic" unicode="&#x138;" horiz-adv-x="1275" 
d="M61 1024h400v-338h78l182 338h463l-297 -481l356 -543h-473l-219 379h-90v-379h-400v1024z" />
    <glyph glyph-name="Lacute" unicode="&#x139;" horiz-adv-x="1232" 
d="M715 1079l116 357h240l-156 -357h-200zM82 1434h403v-1106h695v-328h-1098v1434z" />
    <glyph glyph-name="lacute" unicode="&#x13a;" horiz-adv-x="600" 
d="M168 1530l117 356h239l-155 -356h-201zM594 324v-324h-248q-149 0 -217 72.5t-68 220.5v1141h400v-981q0 -73 25.5 -101t93.5 -28h14z" />
    <glyph glyph-name="uni013B" unicode="&#x13b;" horiz-adv-x="1232" 
d="M82 1434h403v-1106h695v-328h-1098v1434zM500 -211q0 52 36 87.5t91 35.5q51 0 87 -36t36 -87q0 -43 -23 -76l-115 -217h-108l78 172q-37 12 -59.5 45t-22.5 76z" />
    <glyph glyph-name="uni013C" unicode="&#x13c;" horiz-adv-x="600" 
d="M594 324v-324h-248q-149 0 -217 72.5t-68 220.5v1141h400v-981q0 -73 25.5 -101t93.5 -28h14zM256 -211q0 52 36 87.5t91 35.5q51 0 87 -36t36 -87q0 -43 -23 -76l-114 -217h-109l78 172q-37 12 -59.5 45t-22.5 76z" />
    <glyph glyph-name="Lcaron" unicode="&#x13d;" horiz-adv-x="1232" 
d="M82 1434h403v-1106h695v-328h-1098v1434zM686 1214q0 92 64.5 156t160.5 64q91 0 155 -64.5t64 -155.5q0 -72 -34 -124l-207 -388h-197l142 299q-67 24 -107.5 81.5t-40.5 131.5z" />
    <glyph glyph-name="lcaron" unicode="&#x13e;" horiz-adv-x="1177" 
d="M659 1233q0 91 65 155t161 64q91 0 155 -64t64 -155q0 -72 -35 -125l-207 -387h-196l141 299q-67 24 -107.5 81.5t-40.5 131.5zM594 324v-324h-248q-149 0 -217 72.5t-68 220.5v1141h400v-981q0 -73 25.5 -101t93.5 -28h14z" />
    <glyph glyph-name="Ldot" unicode="&#x13f;" horiz-adv-x="1232" 
d="M82 1434h403v-1106h695v-328h-1098v1434zM657 1214q0 92 65 156t161 64q91 0 155 -64.5t64 -155.5q0 -96 -63.5 -160.5t-155.5 -64.5q-97 0 -161.5 64t-64.5 161z" />
    <glyph glyph-name="ldot" unicode="&#x140;" horiz-adv-x="1110" 
d="M594 324v-324h-248q-149 0 -217 72.5t-68 220.5v1141h400v-981q0 -73 25.5 -101t93.5 -28h14zM586 1214q0 92 64.5 156t160.5 64q91 0 155 -64.5t64 -155.5q0 -96 -63.5 -160.5t-155.5 -64.5q-97 0 -161 64t-64 161z" />
    <glyph glyph-name="Lslash" unicode="&#x141;" horiz-adv-x="1232" 
d="M-201 778l283 103v553h403v-406l199 72l88 -242l-287 -104v-426h695v-328h-1098v608l-195 -71z" />
    <glyph glyph-name="lslash" unicode="&#x142;" horiz-adv-x="600" 
d="M-240 778l301 109v547h400v-402l184 68l88 -242l-272 -98v-307q0 -73 25.5 -101t93.5 -28h14v-324h-248q-149 0 -217 72.5t-68 220.5v321l-213 -77z" />
    <glyph glyph-name="Nacute" unicode="&#x143;" horiz-adv-x="1656" 
d="M754 1530l116 356h240l-156 -356h-200zM82 1434h403l686 -902v902h404v-1434h-404l-686 872v-872h-403v1434z" />
    <glyph glyph-name="nacute" unicode="&#x144;" horiz-adv-x="1239" 
d="M485 1120l117 357h240l-156 -357h-201zM61 1024h400v-170q56 92 146.5 141t207.5 49q181 0 272 -106.5t91 -294.5v-643h-400v535q0 94 -33.5 140t-121.5 46q-75 0 -118.5 -47.5t-43.5 -141.5v-532h-400v1024z" />
    <glyph glyph-name="uni0145" unicode="&#x145;" horiz-adv-x="1656" 
d="M82 1434h403l686 -902v902h404v-1434h-404l-686 872v-872h-403v1434zM725 -211q0 52 36 87.5t91 35.5q51 0 87 -36t36 -87q0 -43 -23 -76l-114 -217h-109l78 172q-37 12 -59.5 45t-22.5 76z" />
    <glyph glyph-name="uni0146" unicode="&#x146;" horiz-adv-x="1239" 
d="M61 1024h400v-170q56 92 146.5 141t207.5 49q181 0 272 -106.5t91 -294.5v-643h-400v535q0 94 -33.5 140t-121.5 46q-75 0 -118.5 -47.5t-43.5 -141.5v-532h-400v1024zM498 -211q0 52 36 87.5t91 35.5q51 0 87 -36t36 -87q0 -43 -23 -76l-115 -217h-108l78 172
q-37 12 -59.5 45t-22.5 76z" />
    <glyph glyph-name="Ncaron" unicode="&#x147;" horiz-adv-x="1656" 
d="M459 1880h250l125 -190l122 190h252l-268 -350h-213zM82 1434h403l686 -902v902h404v-1434h-404l-686 872v-872h-403v1434z" />
    <glyph glyph-name="ncaron" unicode="&#x148;" horiz-adv-x="1239" 
d="M246 1470h250l125 -190l122 190h252l-268 -350h-213zM61 1024h400v-170q56 92 146.5 141t207.5 49q181 0 272 -106.5t91 -294.5v-643h-400v535q0 94 -33.5 140t-121.5 46q-75 0 -118.5 -47.5t-43.5 -141.5v-532h-400v1024z" />
    <glyph glyph-name="napostrophe" unicode="&#x149;" horiz-adv-x="1239" 
d="M571 1382q0 52 36 87.5t91 35.5q51 0 87 -36t36 -87q0 -44 -22 -75l-115 -217h-109l78 172q-37 12 -59.5 44.5t-22.5 75.5zM61 1024h400v-170q56 92 146.5 141t207.5 49q181 0 272 -106.5t91 -294.5v-643h-400v535q0 94 -33.5 140t-121.5 46q-75 0 -118.5 -47.5
t-43.5 -141.5v-532h-400v1024z" />
    <glyph glyph-name="Omacron" unicode="&#x14c;" horiz-adv-x="1714" 
d="M561 1767h592v-184h-592v184zM123 408q-64 140 -64 309t63.5 309.5t172.5 233t253.5 143.5t307.5 51q164 0 309 -51t254 -143.5t172.5 -233t63.5 -309.5t-63.5 -309.5t-172.5 -233t-254 -143.5t-309 -51q-163 0 -307.5 51t-253.5 143.5t-172 233.5zM856 1126
q-175 0 -282 -113t-107 -296t107.5 -296.5t281.5 -113.5t282.5 113.5t108.5 296.5t-108.5 296t-282.5 113z" />
    <glyph glyph-name="omacron" unicode="&#x14d;" horiz-adv-x="1269" 
d="M338 1358h592v-184h-592v184zM635 303q92 0 142 63t50 146t-50 146t-142 63q-93 0 -143 -63t-50 -146t50 -146t143 -63zM333 982q134 62 302 62t302.5 -62.5t214 -184.5t79.5 -285t-79.5 -285t-214 -184.5t-302.5 -62.5t-302.5 62.5t-214 184.5t-79.5 285t79.5 285
t214.5 185z" />
    <glyph glyph-name="Obreve" unicode="&#x14e;" horiz-adv-x="1714" 
d="M502 1905h182q0 -80 42.5 -133.5t129.5 -53.5t129.5 53.5t42.5 133.5h182q0 -99 -30.5 -173.5t-82 -116.5t-112 -62.5t-129.5 -20.5t-129.5 20.5t-112 62.5t-82 116.5t-30.5 173.5zM123 408q-64 140 -64 309t63.5 309.5t172.5 233t253.5 143.5t307.5 51q164 0 309 -51
t254 -143.5t172.5 -233t63.5 -309.5t-63.5 -309.5t-172.5 -233t-254 -143.5t-309 -51q-163 0 -307.5 51t-253.5 143.5t-172 233.5zM856 1126q-175 0 -282 -113t-107 -296t107.5 -296.5t281.5 -113.5t282.5 113.5t108.5 296.5t-108.5 296t-282.5 113z" />
    <glyph glyph-name="obreve" unicode="&#x14f;" horiz-adv-x="1269" 
d="M281 1495h182q0 -80 42.5 -133t129.5 -53t129.5 53t42.5 133h182q0 -99 -30.5 -173.5t-82 -116.5t-112 -62.5t-129.5 -20.5t-129.5 20.5t-112 62.5t-82 116.5t-30.5 173.5zM635 303q92 0 142 63t50 146t-50 146t-142 63q-93 0 -143 -63t-50 -146t50 -146t143 -63z
M333 982q134 62 302 62t302.5 -62.5t214 -184.5t79.5 -285t-79.5 -285t-214 -184.5t-302.5 -62.5t-302.5 62.5t-214 184.5t-79.5 285t79.5 285t214.5 185z" />
    <glyph glyph-name="Ohungarumlaut" unicode="&#x150;" horiz-adv-x="1714" 
d="M940 1530l115 356h239l-155 -356h-199zM573 1530l117 356h240l-156 -356h-201zM123 408q-64 140 -64 309t63.5 309.5t172.5 233t253.5 143.5t307.5 51q164 0 309 -51t254 -143.5t172.5 -233t63.5 -309.5t-63.5 -309.5t-172.5 -233t-254 -143.5t-309 -51q-163 0 -307.5 51
t-253.5 143.5t-172 233.5zM856 1126q-175 0 -282 -113t-107 -296t107.5 -296.5t281.5 -113.5t282.5 113.5t108.5 296.5t-108.5 296t-282.5 113z" />
    <glyph glyph-name="ohungarumlaut" unicode="&#x151;" horiz-adv-x="1269" 
d="M717 1120l114 357h240l-156 -357h-198zM350 1120l117 357h240l-156 -357h-201zM635 303q92 0 142 63t50 146t-50 146t-142 63q-93 0 -143 -63t-50 -146t50 -146t143 -63zM333 982q134 62 302 62t302.5 -62.5t214 -184.5t79.5 -285t-79.5 -285t-214 -184.5t-302.5 -62.5
t-302.5 62.5t-214 184.5t-79.5 285t79.5 285t214.5 185z" />
    <glyph glyph-name="OE" unicode="&#x152;" horiz-adv-x="2398" 
d="M123 408q-64 140 -64 309t63.5 309.5t172.5 233t253.5 143.5t307.5 51q212 0 395 -86v66h1092v-328h-688v-229h626v-310h-626v-239h688v-328h-1092v66q-183 -86 -395 -86q-163 0 -307.5 51t-253.5 143.5t-172 233.5zM856 1126q-175 0 -282 -113t-107 -296t107.5 -296.5
t281.5 -113.5t282.5 113.5t108.5 296.5t-108.5 296t-282.5 113z" />
    <glyph glyph-name="oe" unicode="&#x153;" horiz-adv-x="1992" 
d="M825 485v27v27q-8 76 -57 129t-133 53q-93 0 -143 -63t-50 -146t50 -146t143 -63q84 0 133 53t57 129zM1548 594q-10 83 -46.5 118.5t-102.5 35.5q-138 0 -162 -154h311zM635 1044q228 0 381 -108q145 111 362 111q286 0 430 -139t146 -388v-90h-717q13 -87 53 -119
t109 -32q77 0 113 21t36 69h404q-14 -82 -53 -149.5t-106 -122.5t-173 -86t-242 -31q-216 0 -360 110q-156 -110 -383 -110q-168 0 -302.5 62.5t-214 184.5t-79.5 285t79.5 285t214 184.5t302.5 62.5z" />
    <glyph glyph-name="Racute" unicode="&#x154;" horiz-adv-x="1527" 
d="M596 1530l117 356h239l-155 -356h-201zM834 1434q69 0 137.5 -11t145.5 -43.5t135 -82t96 -134.5t38 -194q0 -90 -25 -165.5t-69 -130t-97 -93t-116 -64.5l387 -516h-448l-344 467h-189v-467h-403v1434h752zM485 784h312q83 0 132.5 45.5t49.5 120.5t-49.5 120.5
t-132.5 45.5h-312v-332z" />
    <glyph glyph-name="racute" unicode="&#x155;" horiz-adv-x="880" 
d="M365 1120l116 357h240l-156 -357h-200zM61 1024h400v-166q55 86 134 136t157 50h100v-323h-244q-75 0 -111 -37.5t-36 -134.5v-549h-400v1024z" />
    <glyph glyph-name="uni0156" unicode="&#x156;" horiz-adv-x="1527" 
d="M834 1434q69 0 137.5 -11t145.5 -43.5t135 -82t96 -134.5t38 -194q0 -90 -25 -165.5t-69 -130t-97 -93t-116 -64.5l387 -516h-448l-344 467h-189v-467h-403v1434h752zM485 784h312q83 0 132.5 45.5t49.5 120.5t-49.5 120.5t-132.5 45.5h-312v-332zM616 -211q0 52 36 87.5
t91 35.5q51 0 87 -36t36 -87q0 -45 -22 -76l-115 -217h-108l77 172q-37 12 -59.5 45t-22.5 76z" />
    <glyph glyph-name="uni0157" unicode="&#x157;" horiz-adv-x="880" 
d="M61 1024h400v-166q55 86 134 136t157 50h100v-323h-244q-75 0 -111 -37.5t-36 -134.5v-549h-400v1024zM150 -211q0 52 35.5 87.5t90.5 35.5q51 0 87 -36t36 -87q0 -45 -22 -76l-115 -217h-108l77 172q-37 12 -59 45t-22 76z" />
    <glyph glyph-name="Rcaron" unicode="&#x158;" horiz-adv-x="1527" 
d="M389 1880h250l125 -190l123 190h252l-269 -350h-213zM834 1434q69 0 137.5 -11t145.5 -43.5t135 -82t96 -134.5t38 -194q0 -90 -25 -165.5t-69 -130t-97 -93t-116 -64.5l387 -516h-448l-344 467h-189v-467h-403v1434h752zM485 784h312q83 0 132.5 45.5t49.5 120.5
t-49.5 120.5t-132.5 45.5h-312v-332z" />
    <glyph glyph-name="rcaron" unicode="&#x159;" horiz-adv-x="880" 
d="M72 1470h250l124 -190l123 190h252l-268 -350h-213zM61 1024h400v-166q55 86 134 136t157 50h100v-323h-244q-75 0 -111 -37.5t-36 -134.5v-549h-400v1024z" />
    <glyph glyph-name="Sacute" unicode="&#x15a;" horiz-adv-x="1495" 
d="M629 1530l116 356h240l-156 -356h-200zM465 485q0 -88 78 -142t209 -54q81 0 141 12t98.5 42t38.5 75q0 24 -7.5 41.5t-28.5 31t-41.5 22t-64.5 17.5t-79 14.5t-102.5 16t-118.5 19.5q-256 48 -363.5 152t-107.5 280q0 137 87.5 239.5t226 152.5t304.5 50
q169 0 299 -39.5t207 -108.5t115.5 -154.5t38.5 -184.5h-408q0 178 -252 178q-91 0 -151 -32t-60 -87q0 -68 56.5 -93t296.5 -69q84 -15 128 -24t114 -27.5t107.5 -36.5t84.5 -49t70.5 -67.5t40 -88.5t16.5 -116q0 -104 -41 -189.5t-121.5 -150t-209.5 -100t-296 -35.5
q-147 0 -267.5 28t-202 76t-137.5 113t-81 137t-25 151h408z" />
    <glyph glyph-name="sacute" unicode="&#x15b;" horiz-adv-x="1161" 
d="M461 1120l117 357h239l-155 -357h-201zM401 346q0 -60 53.5 -91.5t149.5 -31.5q137 0 137 56q0 32 -33 46t-156 40q-36 8 -56 12q-207 44 -320 129t-113 223q0 82 44.5 145t119 99t160 53.5t178.5 17.5q122 0 222.5 -32.5t163 -85.5t96.5 -117t34 -131h-364q0 63 -33 93
t-117 30q-123 0 -123 -56q0 -13 5.5 -23.5t20 -19t30 -14.5t44.5 -13t53.5 -12.5t68 -14.5t77.5 -17q78 -18 130 -33.5t103 -39.5t80.5 -54t47.5 -73.5t18 -100.5q0 -159 -145.5 -254.5t-390.5 -95.5q-126 0 -232 32.5t-173.5 85.5t-104.5 117.5t-37 130.5h362z" />
    <glyph glyph-name="Scircumflex" unicode="&#x15c;" horiz-adv-x="1495" 
d="M373 1532l268 350h213l268 -350h-250l-124 190l-123 -190h-252zM465 485q0 -88 78 -142t209 -54q81 0 141 12t98.5 42t38.5 75q0 24 -7.5 41.5t-28.5 31t-41.5 22t-64.5 17.5t-79 14.5t-102.5 16t-118.5 19.5q-256 48 -363.5 152t-107.5 280q0 137 87.5 239.5t226 152.5
t304.5 50q169 0 299 -39.5t207 -108.5t115.5 -154.5t38.5 -184.5h-408q0 178 -252 178q-91 0 -151 -32t-60 -87q0 -68 56.5 -93t296.5 -69q84 -15 128 -24t114 -27.5t107.5 -36.5t84.5 -49t70.5 -67.5t40 -88.5t16.5 -116q0 -104 -41 -189.5t-121.5 -150t-209.5 -100
t-296 -35.5q-147 0 -267.5 28t-202 76t-137.5 113t-81 137t-25 151h408z" />
    <glyph glyph-name="scircumflex" unicode="&#x15d;" horiz-adv-x="1161" 
d="M207 1122l268 351h213l268 -351h-249l-125 191l-123 -191h-252zM401 346q0 -60 53.5 -91.5t149.5 -31.5q137 0 137 56q0 32 -33 46t-156 40q-36 8 -56 12q-207 44 -320 129t-113 223q0 82 44.5 145t119 99t160 53.5t178.5 17.5q122 0 222.5 -32.5t163 -85.5t96.5 -117
t34 -131h-364q0 63 -33 93t-117 30q-123 0 -123 -56q0 -13 5.5 -23.5t20 -19t30 -14.5t44.5 -13t53.5 -12.5t68 -14.5t77.5 -17q78 -18 130 -33.5t103 -39.5t80.5 -54t47.5 -73.5t18 -100.5q0 -159 -145.5 -254.5t-390.5 -95.5q-126 0 -232 32.5t-173.5 85.5t-104.5 117.5
t-37 130.5h362z" />
    <glyph glyph-name="Scedilla" unicode="&#x15e;" horiz-adv-x="1495" 
d="M465 485q0 -88 78 -142t209 -54q81 0 141 12t98.5 42t38.5 75q0 24 -7.5 41.5t-28.5 31t-41.5 22t-64.5 17.5t-79 14.5t-102.5 16t-118.5 19.5q-256 48 -363.5 152t-107.5 280q0 137 87.5 239.5t226 152.5t304.5 50q169 0 299 -39.5t207 -108.5t115.5 -154.5t38.5 -184.5
h-408q0 178 -252 178q-91 0 -151 -32t-60 -87q0 -68 56.5 -93t296.5 -69q84 -15 128 -24t114 -27.5t107.5 -36.5t84.5 -49t70.5 -67.5t40 -88.5t16.5 -116q0 -203 -154 -331.5t-453 -141.5l-22 -76q100 -11 152.5 -50.5t52.5 -125.5q0 -65 -30 -112t-77 -71.5t-107.5 -35.5
t-120.5 -8t-116 16v166q74 -21 129 -22t86 18t31 57q0 43 -28 53t-115 10h-19l41 181q-161 10 -285 55.5t-198 116t-111 154t-37 177.5h408z" />
    <glyph glyph-name="scedilla" unicode="&#x15f;" horiz-adv-x="1161" 
d="M401 346q0 -60 53.5 -91.5t149.5 -31.5q137 0 137 56q0 32 -33 46t-156 40q-36 8 -56 12q-207 44 -320 129t-113 223q0 82 44.5 145t119 99t160 53.5t178.5 17.5q122 0 222.5 -32.5t163 -85.5t96.5 -117t34 -131h-364q0 63 -33 93t-117 30q-123 0 -123 -56
q0 -13 5.5 -23.5t20 -19t30 -14.5t44.5 -13t53.5 -12.5t68 -14.5t77.5 -17q78 -18 130 -33.5t103 -39.5t80.5 -54t47.5 -73.5t18 -100.5q0 -145 -122.5 -239t-333.5 -109l-25 -76q100 -11 152.5 -50.5t52.5 -125.5q0 -65 -30 -112t-77 -71.5t-107.5 -35.5t-120.5 -8t-116 16
v166q74 -21 129 -22t86 18t31 57q0 43 -28 53t-115 10h-19l41 181q-112 8 -205 43t-152 86t-91.5 112t-32.5 123h362z" />
    <glyph glyph-name="Scaron" unicode="&#x160;" horiz-adv-x="1495" 
d="M373 1880h250l125 -190l122 190h252l-268 -350h-213zM465 485q0 -88 78 -142t209 -54q81 0 141 12t98.5 42t38.5 75q0 24 -7.5 41.5t-28.5 31t-41.5 22t-64.5 17.5t-79 14.5t-102.5 16t-118.5 19.5q-256 48 -363.5 152t-107.5 280q0 137 87.5 239.5t226 152.5t304.5 50
q169 0 299 -39.5t207 -108.5t115.5 -154.5t38.5 -184.5h-408q0 178 -252 178q-91 0 -151 -32t-60 -87q0 -68 56.5 -93t296.5 -69q84 -15 128 -24t114 -27.5t107.5 -36.5t84.5 -49t70.5 -67.5t40 -88.5t16.5 -116q0 -104 -41 -189.5t-121.5 -150t-209.5 -100t-296 -35.5
q-147 0 -267.5 28t-202 76t-137.5 113t-81 137t-25 151h408z" />
    <glyph glyph-name="scaron" unicode="&#x161;" horiz-adv-x="1161" 
d="M207 1470h250l125 -190l123 190h251l-268 -350h-213zM401 346q0 -60 53.5 -91.5t149.5 -31.5q137 0 137 56q0 32 -33 46t-156 40q-36 8 -56 12q-207 44 -320 129t-113 223q0 82 44.5 145t119 99t160 53.5t178.5 17.5q122 0 222.5 -32.5t163 -85.5t96.5 -117t34 -131h-364
q0 63 -33 93t-117 30q-123 0 -123 -56q0 -13 5.5 -23.5t20 -19t30 -14.5t44.5 -13t53.5 -12.5t68 -14.5t77.5 -17q78 -18 130 -33.5t103 -39.5t80.5 -54t47.5 -73.5t18 -100.5q0 -159 -145.5 -254.5t-390.5 -95.5q-126 0 -232 32.5t-173.5 85.5t-104.5 117.5t-37 130.5h362z
" />
    <glyph glyph-name="uni0162" unicode="&#x162;" horiz-adv-x="1376" 
d="M49 1434h1278v-328h-438v-1106h-404v1106h-436v328zM561 -211q0 52 36 87.5t91 35.5q51 0 87 -36t36 -87q0 -43 -23 -76l-114 -217h-109l78 172q-37 12 -59.5 45t-22.5 76z" />
    <glyph glyph-name="uni0163" unicode="&#x163;" horiz-adv-x="823" 
d="M33 1024h119v246h399v-246h244v-324h-244v-290q0 -61 25.5 -80t87.5 -19h131v-311h-291q-170 0 -261 81t-91 241v378h-119v324zM373 -211q0 52 36 87.5t91 35.5q51 0 87 -36t36 -87q0 -43 -23 -76l-115 -217h-108l78 172q-37 12 -59.5 45t-22.5 76z" />
    <glyph glyph-name="Tcaron" unicode="&#x164;" horiz-adv-x="1376" 
d="M313 1880h250l125 -190l123 190h252l-268 -350h-213zM49 1434h1278v-328h-438v-1106h-404v1106h-436v328z" />
    <glyph glyph-name="tcaron" unicode="&#x165;" horiz-adv-x="1382" 
d="M870 1235q0 91 65 155t161 64q91 0 155 -64t64 -155q0 -72 -35 -125l-207 -387h-196l141 299q-67 24 -107.5 81.5t-40.5 131.5zM33 1024h119v246h399v-246h244v-324h-244v-290q0 -61 25.5 -80t87.5 -19h131v-311h-291q-170 0 -261 81t-91 241v378h-119v324z" />
    <glyph glyph-name="Tbar" unicode="&#x166;" horiz-adv-x="1376" 
d="M186 735h299v371h-436v328h1278v-328h-438v-371h299v-184h-299v-551h-404v551h-299v184z" />
    <glyph glyph-name="tbar" unicode="&#x167;" horiz-adv-x="823" 
d="M33 1024h119v246h399v-246h244v-233h-244v-117h244v-234h-244v-30q0 -64 27.5 -92.5t85.5 -28.5h131v-289h-291q-170 0 -261 81t-91 241v118h-119v234h119v117h-119v233z" />
    <glyph glyph-name="Utilde" unicode="&#x168;" horiz-adv-x="1523" 
d="M741 1784q17 -7 45 -18.5t40 -16.5t32 -12t29.5 -7.5t24 0t22.5 7.5t19 17.5t19.5 27t18.5 39.5l176 -62q-17 -50 -38.5 -89t-42 -65t-47.5 -42t-49 -25t-53 -8.5t-52 2.5t-54 12t-51.5 17t-50.5 20q-103 40 -118 44q-46 10 -73 -24q-17 -21 -38 -71l-178 63
q22 62 49.5 107t54 71t60.5 39.5t62 16.5t65.5 -4t64 -15.5t63.5 -23.5zM1038 1434h404v-840q0 -314 -168 -464t-512 -150q-342 0 -511 150t-169 464v840h403v-840q0 -152 64.5 -219.5t212.5 -67.5q147 0 211.5 67t64.5 220v840z" />
    <glyph glyph-name="utilde" unicode="&#x169;" horiz-adv-x="1314" 
d="M618 1374q17 -7 45 -18.5t40 -16.5t32 -12t29.5 -7.5t24 0t22.5 7.5t19 17.5t19.5 27t18.5 39.5l176 -61q-17 -50 -38.5 -89t-42.5 -65t-47.5 -42.5t-49 -25t-53 -8.5t-52 2.5t-54 12t-51 16.5t-50.5 20q-103 40 -118 44q-46 10 -73 -24q-17 -21 -38 -71l-178 64
q22 62 49.5 107t54 71t60.5 39t62 16t65.5 -4t64 -15.5t63.5 -23.5zM1311 324v-324h-248q-119 0 -186 46.5t-89 141.5q-56 -101 -149 -154.5t-215 -53.5q-181 0 -272 106.5t-91 294.5v643h400v-535q0 -94 33.5 -140t121.5 -46q75 0 118.5 47.5t43.5 141.5v532h400v-571
q0 -74 25.5 -101.5t92.5 -27.5h15z" />
    <glyph glyph-name="Umacron" unicode="&#x16a;" horiz-adv-x="1523" 
d="M467 1767h592v-184h-592v184zM1038 1434h404v-840q0 -314 -168 -464t-512 -150q-342 0 -511 150t-169 464v840h403v-840q0 -152 64.5 -219.5t212.5 -67.5q147 0 211.5 67t64.5 220v840z" />
    <glyph glyph-name="umacron" unicode="&#x16b;" horiz-adv-x="1314" 
d="M326 1358h592v-184h-592v184zM1311 324v-324h-248q-119 0 -186 46.5t-89 141.5q-56 -101 -149 -154.5t-215 -53.5q-181 0 -272 106.5t-91 294.5v643h400v-535q0 -94 33.5 -140t121.5 -46q75 0 118.5 47.5t43.5 141.5v532h400v-571q0 -74 25.5 -101.5t92.5 -27.5h15z" />
    <glyph glyph-name="Ubreve" unicode="&#x16c;" horiz-adv-x="1523" 
d="M408 1905h182q0 -80 42.5 -133.5t129.5 -53.5t129.5 53.5t42.5 133.5h182q0 -99 -30.5 -173.5t-82 -116.5t-112 -62.5t-129.5 -20.5t-129.5 20.5t-112 62.5t-82 116.5t-30.5 173.5zM1038 1434h404v-840q0 -314 -168 -464t-512 -150q-342 0 -511 150t-169 464v840h403
v-840q0 -152 64.5 -219.5t212.5 -67.5q147 0 211.5 67t64.5 220v840z" />
    <glyph glyph-name="ubreve" unicode="&#x16d;" horiz-adv-x="1314" 
d="M268 1495h183q0 -80 42.5 -133t129.5 -53t129.5 53t42.5 133h182q0 -99 -30.5 -173.5t-82 -116.5t-112 -62.5t-129.5 -20.5t-129.5 20.5t-112.5 62.5t-82.5 116.5t-30.5 173.5zM1311 324v-324h-248q-119 0 -186 46.5t-89 141.5q-56 -101 -149 -154.5t-215 -53.5
q-181 0 -272 106.5t-91 294.5v643h400v-535q0 -94 33.5 -140t121.5 -46q75 0 118.5 47.5t43.5 141.5v532h400v-571q0 -74 25.5 -101.5t92.5 -27.5h15z" />
    <glyph glyph-name="Uring" unicode="&#x16e;" horiz-adv-x="1523" 
d="M457 1804q0 126 90.5 216.5t216.5 90.5q125 0 215 -90.5t90 -216.5q0 -125 -90.5 -216t-214.5 -91q-126 0 -216.5 91t-90.5 216zM671 1898q-42 -42 -42 -94t41 -92.5t94 -40.5q52 0 92.5 40.5t40.5 92.5q0 53 -40.5 94t-92.5 41t-93 -41zM1038 1434h404v-840
q0 -314 -168 -464t-512 -150q-342 0 -511 150t-169 464v840h403v-840q0 -152 64.5 -219.5t212.5 -67.5q147 0 211.5 67t64.5 220v840z" />
    <glyph glyph-name="uring" unicode="&#x16f;" horiz-adv-x="1314" 
d="M315 1395q0 126 91 216.5t217 90.5q125 0 215 -90.5t90 -216.5q0 -125 -90.5 -216.5t-214.5 -91.5q-126 0 -217 91.5t-91 216.5zM529 1489q-42 -42 -42 -94t41.5 -92.5t94.5 -40.5t93 40t40 93t-40.5 94t-92.5 41q-53 0 -94 -41zM1311 324v-324h-248q-119 0 -186 46.5
t-89 141.5q-56 -101 -149 -154.5t-215 -53.5q-181 0 -272 106.5t-91 294.5v643h400v-535q0 -94 33.5 -140t121.5 -46q75 0 118.5 47.5t43.5 141.5v532h400v-571q0 -74 25.5 -101.5t92.5 -27.5h15z" />
    <glyph glyph-name="Uhungarumlaut" unicode="&#x170;" horiz-adv-x="1523" 
d="M842 1530l114 356h240l-156 -356h-198zM475 1530l117 356h239l-155 -356h-201zM1038 1434h404v-840q0 -314 -168 -464t-512 -150q-342 0 -511 150t-169 464v840h403v-840q0 -152 64.5 -219.5t212.5 -67.5q147 0 211.5 67t64.5 220v840z" />
    <glyph glyph-name="uhungarumlaut" unicode="&#x171;" horiz-adv-x="1314" 
d="M715 1120l114 357h240l-156 -357h-198zM348 1120l117 357h240l-156 -357h-201zM1311 324v-324h-248q-119 0 -186 46.5t-89 141.5q-56 -101 -149 -154.5t-215 -53.5q-181 0 -272 106.5t-91 294.5v643h400v-535q0 -94 33.5 -140t121.5 -46q75 0 118.5 47.5t43.5 141.5v532
h400v-571q0 -74 25.5 -101.5t92.5 -27.5h15z" />
    <glyph glyph-name="Uogonek" unicode="&#x172;" horiz-adv-x="1523" 
d="M1038 1434h404v-840q0 -277 -131 -426t-396 -180q-67 -72 -100 -124t-33 -104q0 -41 22 -62t64 -23t88 5.5t109 24.5v-184q-67 -17 -143.5 -19t-151.5 12.5t-124.5 62.5t-49.5 124q0 115 139 279q-328 6 -490.5 156t-162.5 458v840h403v-840q0 -152 64.5 -219.5
t212.5 -67.5q147 0 211.5 67t64.5 220v840z" />
    <glyph glyph-name="uogonek" unicode="&#x173;" horiz-adv-x="1314" 
d="M1311 324v-324h-168q-57 -62 -86 -110.5t-29 -96.5q0 -41 22 -62t64 -23t88 5.5t109 24.5v-184q-67 -17 -143.5 -19t-151.5 12.5t-124.5 62.5t-49.5 124q0 119 135 274q-154 29 -189 180q-56 -101 -149 -154.5t-215 -53.5q-181 0 -272 106.5t-91 294.5v643h400v-535
q0 -94 33.5 -140t121.5 -46q75 0 118.5 47.5t43.5 141.5v532h400v-571q0 -74 25.5 -101.5t92.5 -27.5h15z" />
    <glyph glyph-name="Wcircumflex" unicode="&#x174;" horiz-adv-x="2254" 
d="M754 1532l268 350h213l268 -350h-250l-125 190l-122 -190h-252zM483 0l-434 1434h385l252 -951l248 951h369l247 -951l252 951h404l-453 -1434h-422l-213 807l-213 -807h-422z" />
    <glyph glyph-name="wcircumflex" unicode="&#x175;" horiz-adv-x="1732" 
d="M492 1122l268 351h213l268 -351h-250l-125 191l-123 -191h-251zM31 1024h401l119 -563l151 563h330l150 -561l118 561h402l-307 -1024h-383l-146 582l-145 -582h-383z" />
    <glyph glyph-name="Ycircumflex" unicode="&#x176;" horiz-adv-x="1693" 
d="M473 1532l268 350h213l269 -350h-250l-125 190l-123 -190h-252zM645 430l-596 1004h465l334 -662l332 662h465l-596 -1004v-430h-404v430z" />
    <glyph glyph-name="ycircumflex" unicode="&#x177;" horiz-adv-x="1277" 
d="M264 1122l268 351h213l269 -351h-250l-125 191l-123 -191h-252zM1247 1024l-424 -1044q-26 -64 -46.5 -107.5t-47 -86t-53 -68.5t-64.5 -50.5t-81 -37.5t-103 -23t-129.5 -13.5t-161.5 -3.5v328q124 0 177.5 6t76 21t39.5 53l10 22l-409 1004h401l211 -625l203 625h401z
" />
    <glyph glyph-name="Ydieresis" unicode="&#x178;" horiz-adv-x="1693" 
d="M449 1702q0 69 48.5 117.5t118.5 48.5q69 0 117.5 -48.5t48.5 -117.5q0 -70 -48.5 -119t-117.5 -49q-70 0 -118.5 48.5t-48.5 119.5zM909 1702q0 69 49 117.5t119 48.5q69 0 117.5 -48.5t48.5 -117.5q0 -70 -48.5 -119t-117.5 -49q-71 0 -119.5 49t-48.5 119zM645 430
l-596 1004h465l334 -662l332 662h465l-596 -1004v-430h-404v430z" />
    <glyph glyph-name="Zacute" unicode="&#x179;" horiz-adv-x="1304" 
d="M532 1530l117 356h240l-156 -356h-201zM1202 1434v-320l-627 -786h680v-328h-1206v319l627 787h-610v328h1136z" />
    <glyph glyph-name="zacute" unicode="&#x17a;" horiz-adv-x="1030" 
d="M399 1120l117 357h240l-156 -357h-201zM965 1024v-279l-400 -421h434v-324h-966v281l397 419h-381v324h916z" />
    <glyph glyph-name="Zdotaccent" unicode="&#x17b;" horiz-adv-x="1304" 
d="M483 1700q0 69 49 117.5t119 48.5q69 0 117.5 -48.5t48.5 -117.5q0 -70 -48.5 -119t-117.5 -49q-71 0 -119.5 49t-48.5 119zM1202 1434v-320l-627 -786h680v-328h-1206v319l627 787h-610v328h1136z" />
    <glyph glyph-name="zdotaccent" unicode="&#x17c;" horiz-adv-x="1030" 
d="M348 1290q0 69 49 117.5t119 48.5q69 0 117.5 -48.5t48.5 -117.5q0 -70 -48.5 -119t-117.5 -49q-70 0 -119 49t-49 119zM965 1024v-279l-400 -421h434v-324h-966v281l397 419h-381v324h916z" />
    <glyph glyph-name="Zcaron" unicode="&#x17d;" horiz-adv-x="1304" 
d="M279 1880h249l125 -190l123 190h252l-268 -350h-213zM1202 1434v-320l-627 -786h680v-328h-1206v319l627 787h-610v328h1136z" />
    <glyph glyph-name="zcaron" unicode="&#x17e;" horiz-adv-x="1030" 
d="M141 1470h250l125 -190l123 190h252l-268 -350h-213zM965 1024v-279l-400 -421h434v-324h-966v281l397 419h-381v324h916z" />
    <glyph glyph-name="longs" unicode="&#x17f;" horiz-adv-x="702" 
d="M672 1143h-113q-65 0 -89 -14t-24 -66v-1063h-399v1135q0 159 90 239t260 80h275v-311z" />
    <glyph glyph-name="florin" unicode="&#x192;" horiz-adv-x="874" 
d="M842 1184h-113q-58 0 -85.5 -28.5t-27.5 -92.5v-41h228v-324h-228v-786q0 -161 -90 -241.5t-260 -80.5h-274v289h112q59 0 86 28.5t27 92.5v698h-108v324h108v113q0 159 91 239t261 80h273v-270z" />
    <glyph glyph-name="uni0218" unicode="&#x218;" horiz-adv-x="1495" 
d="M465 485q0 -88 78 -142t209 -54q81 0 141 12t98.5 42t38.5 75q0 24 -7.5 41.5t-28.5 31t-41.5 22t-64.5 17.5t-79 14.5t-102.5 16t-118.5 19.5q-256 48 -363.5 152t-107.5 280q0 137 87.5 239.5t226 152.5t304.5 50q169 0 299 -39.5t207 -108.5t115.5 -154.5t38.5 -184.5
h-408q0 178 -252 178q-91 0 -151 -32t-60 -87q0 -68 56.5 -93t296.5 -69q84 -15 128 -24t114 -27.5t107.5 -36.5t84.5 -49t70.5 -67.5t40 -88.5t16.5 -116q0 -104 -41 -189.5t-121.5 -150t-209.5 -100t-296 -35.5q-147 0 -267.5 28t-202 76t-137.5 113t-81 137t-25 151h408z
M621 -211q0 52 36 87.5t91 35.5q51 0 86.5 -36t35.5 -87q0 -45 -22 -76l-115 -217h-108l77 172q-37 12 -59 45t-22 76z" />
    <glyph glyph-name="uni0219" unicode="&#x219;" horiz-adv-x="1161" 
d="M401 346q0 -60 53.5 -91.5t149.5 -31.5q137 0 137 56q0 32 -33 46t-156 40q-36 8 -56 12q-207 44 -320 129t-113 223q0 82 44.5 145t119 99t160 53.5t178.5 17.5q122 0 222.5 -32.5t163 -85.5t96.5 -117t34 -131h-364q0 63 -33 93t-117 30q-123 0 -123 -56
q0 -13 5.5 -23.5t20 -19t30 -14.5t44.5 -13t53.5 -12.5t68 -14.5t77.5 -17q78 -18 130 -33.5t103 -39.5t80.5 -54t47.5 -73.5t18 -100.5q0 -159 -145.5 -254.5t-390.5 -95.5q-126 0 -232 32.5t-173.5 85.5t-104.5 117.5t-37 130.5h362zM457 -211q0 52 36 87.5t91 35.5
q51 0 87 -36t36 -87q0 -43 -23 -76l-115 -217h-108l78 172q-37 12 -59.5 45t-22.5 76z" />
    <glyph glyph-name="uni021A" unicode="&#x21a;" horiz-adv-x="1376" 
d="M49 1434h1278v-328h-438v-1106h-404v1106h-436v328zM561 -211q0 52 36 87.5t91 35.5q51 0 87 -36t36 -87q0 -43 -23 -76l-114 -217h-109l78 172q-37 12 -59.5 45t-22.5 76z" />
    <glyph glyph-name="uni021B" unicode="&#x21b;" horiz-adv-x="823" 
d="M33 1024h119v246h399v-246h244v-324h-244v-290q0 -61 25.5 -80t87.5 -19h131v-311h-291q-170 0 -261 81t-91 241v378h-119v324zM373 -211q0 52 36 87.5t91 35.5q51 0 87 -36t36 -87q0 -43 -23 -76l-115 -217h-108l78 172q-37 12 -59.5 45t-22.5 76z" />
    <glyph glyph-name="uni0237" unicode="&#x237;" horiz-adv-x="518" 
d="M37 1311q0 90 64 152.5t159 62.5q89 0 152 -63t63 -152q0 -95 -62.5 -159.5t-152.5 -64.5q-95 0 -159 64.5t-64 159.5zM-160 -98h107q63 0 87.5 18.5t24.5 79.5v1024h400v-1112q0 -161 -90 -241.5t-260 -80.5h-269v312z" />
    <glyph glyph-name="circumflex" unicode="&#x2c6;" horiz-adv-x="892" 
d="M72 1122l268 351h213l268 -351h-250l-125 191l-122 -191h-252z" />
    <glyph glyph-name="caron" unicode="&#x2c7;" horiz-adv-x="892" 
d="M72 1470h250l124 -190l123 190h252l-268 -350h-213z" />
    <glyph glyph-name="uni02C9" unicode="&#x2c9;" horiz-adv-x="735" 
d="M72 1362h592v-184h-592v184z" />
    <glyph glyph-name="breve" unicode="&#x2d8;" horiz-adv-x="851" 
d="M72 1495h182q0 -80 42.5 -133t129.5 -53t129.5 53t42.5 133h182q0 -99 -30.5 -173.5t-82 -116.5t-112 -62.5t-129.5 -20.5t-129.5 20.5t-112 62.5t-82 116.5t-30.5 173.5z" />
    <glyph glyph-name="dotaccent" unicode="&#x2d9;" horiz-adv-x="479" 
d="M72 1290q0 69 49 117.5t119 48.5q69 0 117.5 -48.5t48.5 -117.5q0 -70 -48.5 -119t-117.5 -49q-70 0 -119 49t-49 119z" />
    <glyph glyph-name="ring" unicode="&#x2da;" horiz-adv-x="751" 
d="M70 1395q0 126 90.5 216.5t216.5 90.5q125 0 215 -90.5t90 -216.5q0 -125 -90.5 -216.5t-214.5 -91.5q-126 0 -216.5 91.5t-90.5 216.5zM242 1395q0 -52 41 -92.5t94 -40.5t93 40t40 93t-40.5 94t-92.5 41q-53 0 -94 -41t-41 -94z" />
    <glyph glyph-name="ogonek" unicode="&#x2db;" horiz-adv-x="612" 
d="M293 70l100 -80q-67 -73 -101 -125.5t-34 -104.5q0 -41 22 -62t64 -23t88 5.5t109 24.5v-184q-67 -17 -143.5 -19t-151.5 12.5t-124.5 62.5t-49.5 124q0 21 4.5 43.5t10.5 41.5t19 43t21.5 40t27 40t27.5 36t30.5 36.5t28 32t28.5 30.5t24 26z" />
    <glyph glyph-name="tilde" unicode="&#x2dc;" horiz-adv-x="989" 
d="M492 1374q17 -7 44.5 -18.5t40 -16.5t32.5 -12t29 -7.5t23.5 0t22.5 7.5t19 17.5t19.5 27t18.5 39.5l177 -61q-17 -50 -38.5 -89t-42.5 -65t-48 -42.5t-49 -25t-52.5 -8.5t-52.5 2.5t-54 12t-51 16.5t-51 20q-103 40 -118 44q-46 10 -73 -24q-17 -21 -38 -71l-178 64
q22 62 49.5 107t54.5 71t61 39t62 16t65.5 -4t64 -15.5t63.5 -23.5z" />
    <glyph glyph-name="hungarumlaut" unicode="&#x2dd;" horiz-adv-x="864" 
d="M438 1120l115 357h240l-156 -357h-199zM72 1120l116 357h240l-156 -357h-200z" />
    <glyph glyph-name="uni0326" unicode="&#x326;" horiz-adv-x="405" 
d="M78 -211q0 52 36 87.5t91 35.5q51 0 87 -36t36 -87q0 -43 -23 -76l-115 -217h-108l78 172q-37 12 -59.5 45t-22.5 76z" />
    <glyph glyph-name="uni0394" unicode="&#x394;" horiz-adv-x="1552" 
d="M37 0l573 1434h334l574 -1434h-1481zM473 309h606l-303 756z" />
    <glyph glyph-name="uni03A9" unicode="&#x3a9;" horiz-adv-x="1744" 
d="M940 309q98 43 163 93t99 110t47 121.5t13 142.5q0 106 -53.5 187t-142 122t-196.5 41q-166 0 -277.5 -95t-111.5 -255q0 -81 12.5 -142.5t46.5 -121.5t98.5 -110t162.5 -93v-309h-727v309h362q-362 190 -362 502q0 124 41 228.5t114 180.5t173 129t218.5 79t249.5 26
q132 0 250.5 -26t219 -79t174 -129t114.5 -180.5t41 -228.5q0 -312 -362 -502h360v-309h-727v309z" />
    <glyph glyph-name="uni03BC" unicode="&#x3bc;" horiz-adv-x="1310" 
d="M1311 324v-324h-248q-119 0 -186 46.5t-89 141.5q-106 -191 -327 -206v-392h-400v1434h400v-535q0 -94 33.5 -140t121.5 -46q75 0 118.5 47.5t43.5 141.5v532h400v-571q0 -74 25.5 -101.5t92.5 -27.5h15z" />
    <glyph glyph-name="pi" unicode="&#x3c0;" horiz-adv-x="1343" 
d="M74 1024h1188v-1024h-404v696h-231l-125 -696h-404l125 696h-149v328z" />
    <glyph glyph-name="Wgrave" unicode="&#x1e80;" horiz-adv-x="2254" 
d="M1210 1530h-200l-162 356h239zM483 0l-434 1434h385l252 -951l248 951h369l247 -951l252 951h404l-453 -1434h-422l-213 807l-213 -807h-422z" />
    <glyph glyph-name="wgrave" unicode="&#x1e81;" horiz-adv-x="1732" 
d="M950 1120h-200l-162 357h239zM31 1024h401l119 -563l151 563h330l150 -561l118 561h402l-307 -1024h-383l-146 582l-145 -582h-383z" />
    <glyph glyph-name="Wacute" unicode="&#x1e82;" horiz-adv-x="2254" 
d="M1049 1530l116 356h240l-156 -356h-200zM483 0l-434 1434h385l252 -951l248 951h369l247 -951l252 951h404l-453 -1434h-422l-213 807l-213 -807h-422z" />
    <glyph glyph-name="wacute" unicode="&#x1e83;" horiz-adv-x="1732" 
d="M788 1120l117 357h240l-156 -357h-201zM31 1024h401l119 -563l151 563h330l150 -561l118 561h402l-307 -1024h-383l-146 582l-145 -582h-383z" />
    <glyph glyph-name="Wdieresis" unicode="&#x1e84;" horiz-adv-x="2254" 
d="M729 1702q0 69 49 117.5t119 48.5q69 0 117.5 -48.5t48.5 -117.5q0 -70 -48.5 -119t-117.5 -49q-71 0 -119.5 49t-48.5 119zM1190 1702q0 69 49 117.5t119 48.5q69 0 117.5 -48.5t48.5 -117.5q0 -70 -48.5 -119t-117.5 -49q-70 0 -119 49t-49 119zM483 0l-434 1434h385
l252 -951l248 951h369l247 -951l252 951h404l-453 -1434h-422l-213 807l-213 -807h-422z" />
    <glyph glyph-name="wdieresis" unicode="&#x1e85;" horiz-adv-x="1732" 
d="M469 1292q0 69 49 117.5t119 48.5q69 0 117.5 -48.5t48.5 -117.5q0 -70 -48.5 -119t-117.5 -49q-71 0 -119.5 49t-48.5 119zM930 1292q0 69 49 117.5t119 48.5q69 0 117.5 -48.5t48.5 -117.5q0 -70 -48.5 -119t-117.5 -49q-70 0 -119 49t-49 119zM31 1024h401l119 -563
l151 563h330l150 -561l118 561h402l-307 -1024h-383l-146 582l-145 -582h-383z" />
    <glyph glyph-name="endash" unicode="&#x2013;" horiz-adv-x="972" 
d="M78 641h819v-256h-819v256z" />
    <glyph glyph-name="emdash" unicode="&#x2014;" horiz-adv-x="1177" 
d="M78 641h1024v-256h-1024v256z" />
    <glyph glyph-name="quoteleft" unicode="&#x2018;" horiz-adv-x="598" 
d="M522 942q0 -92 -64.5 -155.5t-160.5 -63.5q-91 0 -155 64t-64 155q0 72 35 125l206 387h197l-141 -299q67 -23 107 -81t40 -132z" />
    <glyph glyph-name="quoteright" unicode="&#x2019;" horiz-adv-x="598" 
d="M78 1235q0 92 64.5 155.5t160.5 63.5q91 0 155 -64t64 -155q0 -72 -35 -125l-206 -387h-197l141 299q-67 23 -107 81t-40 132z" />
    <glyph glyph-name="quotesinglbase" unicode="&#x201a;" horiz-adv-x="434" 
d="M78 18q0 58 41 98t102 40q57 0 97 -40.5t40 -97.5q0 -49 -24 -84l-129 -241h-123l90 190q-42 14 -68 51t-26 84z" />
    <glyph glyph-name="quotedblleft" unicode="&#x201c;" horiz-adv-x="1124" 
d="M1047 942q0 -91 -65 -155t-161 -64q-91 0 -155 64t-64 155q0 72 35 125l207 387h196l-141 -299q67 -24 107.5 -81.5t40.5 -131.5zM522 942q0 -92 -64.5 -155.5t-160.5 -63.5q-91 0 -155 64t-64 155q0 72 35 125l206 387h197l-141 -299q67 -23 107 -81t40 -132z" />
    <glyph glyph-name="quotedblright" unicode="&#x201d;" horiz-adv-x="1124" 
d="M78 1235q0 92 64.5 155.5t160.5 63.5q91 0 155 -64t64 -155q0 -72 -35 -125l-206 -387h-197l141 299q-67 23 -107 81t-40 132zM602 1235q0 92 64.5 155.5t160.5 63.5q91 0 155.5 -64t64.5 -155q0 -72 -35 -125l-207 -387h-197l142 299q-67 24 -107.5 81.5t-40.5 131.5z
" />
    <glyph glyph-name="quotedblbase" unicode="&#x201e;" horiz-adv-x="768" 
d="M63 -123v451h293l-82 -451h-211zM412 -123v451h293l-82 -451h-211z" />
    <glyph glyph-name="dagger" unicode="&#x2020;" horiz-adv-x="864" 
d="M270 1434h322v-410h217v-322h-217v-1112h-322v1112h-217v322h217v410z" />
    <glyph glyph-name="daggerdbl" unicode="&#x2021;" horiz-adv-x="864" 
d="M53 1167h217v267h322v-267h217v-321h-217v-668h217v-321h-217v-267h-322v267h-217v321h217v668h-217v321z" />
    <glyph glyph-name="bullet" unicode="&#x2022;" horiz-adv-x="608" 
d="M82 514q0 93 64.5 156t160.5 63q92 0 155.5 -63.5t63.5 -155.5q0 -96 -63 -160.5t-156 -64.5q-97 0 -161 64t-64 161z" />
    <glyph glyph-name="ellipsis" unicode="&#x2026;" horiz-adv-x="1796" 
d="M78 205q0 92 64.5 155.5t160.5 63.5q91 0 155 -64t64 -155q0 -96 -63.5 -160.5t-155.5 -64.5q-97 0 -161 64t-64 161zM676 205q0 92 64.5 155.5t160.5 63.5q91 0 155 -64t64 -155q0 -96 -63.5 -160.5t-155.5 -64.5q-97 0 -161 64t-64 161zM1276 205q0 92 64.5 155.5
t160.5 63.5q91 0 155 -64t64 -155q0 -96 -63.5 -160.5t-155.5 -64.5q-97 0 -161 64t-64 161z" />
    <glyph glyph-name="perthousand" unicode="&#x2030;" horiz-adv-x="3069" 
d="M165 686q-110 117 -110 326t109.5 325.5t306.5 116.5t306.5 -116.5t109.5 -325.5t-110 -326t-306 -117t-306 117zM662 0l573 1434h250l-574 -1434h-249zM643 1012q0 245 -172 245t-172 -245q0 -246 172 -246t172 246zM1370 97q-110 116 -110 325t109.5 325.5t305.5 116.5
q197 0 306.5 -116.5t109.5 -325.5t-109.5 -325.5t-306.5 -116.5q-196 0 -305 117zM2293 97q-110 116 -110 325t109.5 325.5t304.5 116.5q197 0 306.5 -116.5t109.5 -325.5t-109.5 -325.5t-306.5 -116.5q-195 0 -304 117zM1847 422q0 246 -172 246t-172 -246t172 -246
t172 246zM2597 668q-170 0 -170 -246t170 -246q172 0 172 246t-172 246z" />
    <glyph glyph-name="guilsinglleft" unicode="&#x2039;" horiz-adv-x="741" 
d="M72 512l276 483h322l-281 -483l281 -483h-322z" />
    <glyph glyph-name="guilsinglright" unicode="&#x203a;" horiz-adv-x="741" 
d="M670 512l-277 -483h-321l280 483l-280 483h321z" />
    <glyph glyph-name="fraction" unicode="&#x2044;" horiz-adv-x="931" 
d="M53 0l574 1434h250l-574 -1434h-250z" />
    <glyph glyph-name="Euro" unicode="&#x20ac;" horiz-adv-x="1742" 
d="M604 719q0 -8 1 -23t1 -22h477v-185h-430q49 -94 134.5 -137t183.5 -43q132 0 221.5 81t89.5 196h404q0 -83 -28 -167t-87 -163t-141.5 -140t-201.5 -97.5t-257 -36.5q-269 0 -470.5 135.5t-271.5 371.5h-206v185h176q0 7 -1 22.5t-1 22.5q0 41 2 61h-176v185h210
q74 229 274 359t464 130q138 0 257 -36.5t201.5 -97.5t141.5 -140t87 -163t28 -167h-404q0 115 -89.5 195.5t-221.5 80.5q-94 0 -176.5 -38t-132.5 -123h421v-185h-477q-2 -20 -2 -61z" />
    <glyph glyph-name="trademark" unicode="&#x2122;" horiz-adv-x="1708" 
d="M72 1434h639v-164h-217v-553h-203v553h-219v164zM776 1434h201l227 -498l230 498h200v-717h-192v381l-166 -381h-141l-166 381v-381h-193v717z" />
    <glyph glyph-name="partialdiff" unicode="&#x2202;" horiz-adv-x="1312" 
d="M670 1434l491 -682q92 -123 92 -275q0 -148 -77.5 -261.5t-213 -174.5t-305.5 -61q-163 0 -299 60.5t-217.5 175t-81.5 261.5q0 189 130.5 320t334.5 166l-350 471h496zM657 285q80 0 136.5 52.5t56.5 139.5q0 86 -56.5 138.5t-136.5 52.5q-81 0 -137.5 -52.5
t-56.5 -138.5q0 -88 56.5 -140t137.5 -52z" />
    <glyph glyph-name="product" unicode="&#x220f;" horiz-adv-x="1245" 
d="M82 1434h1081v-1844h-313v1534h-455v-1534h-313v1844z" />
    <glyph glyph-name="summation" unicode="&#x2211;" horiz-adv-x="1056" 
d="M1001 1434v-275h-522l258 -647l-258 -647h522v-275h-948l369 922l-369 922h948z" />
    <glyph glyph-name="minus" unicode="&#x2212;" horiz-adv-x="849" 
d="M78 641h696v-256h-696v256z" />
    <glyph glyph-name="uni2215" unicode="&#x2215;" horiz-adv-x="1054" 
d="M53 0l697 1434h249l-696 -1434h-250z" />
    <glyph glyph-name="uni2219" unicode="&#x2219;" horiz-adv-x="608" 
d="M82 512q0 92 64.5 155.5t160.5 63.5q91 0 155 -64t64 -155q0 -96 -63.5 -160.5t-155.5 -64.5q-97 0 -161 64t-64 161z" />
    <glyph glyph-name="radical" unicode="&#x221a;" horiz-adv-x="1662" 
d="M53 649h533l194 -524l508 1309h322l-654 -1639h-358l-213 547h-332v307z" />
    <glyph glyph-name="infinity" unicode="&#x221e;" horiz-adv-x="1257" 
d="M1186 598q0 -136 -96.5 -233t-231.5 -97q-141 0 -227 107q-89 -107 -232 -107q-135 0 -231 97t-96 233q0 135 96 231.5t231 96.5q143 0 232 -107q86 107 227 107q135 0 231.5 -96.5t96.5 -231.5zM709 598q0 -63 44 -107.5t107 -44.5q62 0 106 44.5t44 107.5q0 62 -44 106
t-106 44q-63 0 -107 -44t-44 -106zM555 590q0 63 -43.5 107t-105.5 44q-63 0 -107.5 -44t-44.5 -107q0 -62 44.5 -106t107.5 -44q61 0 105 44t44 106z" />
    <glyph glyph-name="integral" unicode="&#x222b;" horiz-adv-x="804" 
d="M770 1130q-55 0 -89.5 -9t-51 -29t-22 -42.5t-5.5 -58.5v-1063q0 -60 -2.5 -97.5t-12.5 -76t-25 -59.5t-45.5 -42.5t-69 -31t-100.5 -18t-134.5 -11t-175.5 -2.5v324q54 0 88 9t50.5 29t22 42.5t5.5 58.5v1063q0 60 2.5 97.5t12.5 76t25 59.5t46 42.5t69.5 31t100.5 18
t134.5 11t176.5 2.5v-324z" />
    <glyph glyph-name="approxequal" unicode="&#x2248;" horiz-adv-x="1273" 
d="M96 858q77 198 200 238t353 -54q41 -17 64 -26t52.5 -20t44.5 -15.5t35.5 -9t30 -3.5t23 3.5t20.5 9t16 16.5t15.5 23t14.5 31l20 47l211 -86l-18 -47q-40 -102 -86.5 -159.5t-113 -78.5t-149.5 -7t-200 62q-50 20 -78.5 31t-61.5 22t-50.5 14.5t-38 4.5t-31 -4t-23 -15
t-20.5 -24.5t-17 -36.5l-20 -49l-211 86z" />
    <glyph glyph-name="notequal" unicode="&#x2260;" horiz-adv-x="954" 
d="M90 -205l123 389h-84v256h164l45 144h-209v256h289l123 389h321l-123 -389h86v-256h-166l-45 -144h211v-256h-290l-123 -389h-322z" />
    <glyph glyph-name="lessequal" unicode="&#x2264;" horiz-adv-x="909" 
d="M53 948l801 453v-330l-424 -213l424 -215v-328l-801 453v180zM53 256h801v-256h-801v256z" />
    <glyph glyph-name="greaterequal" unicode="&#x2265;" horiz-adv-x="909" 
d="M854 948v-180l-801 -453v328l424 215l-424 213v330zM854 256v-256h-801v256h801z" />
    <glyph glyph-name="uni24C5" unicode="&#x24c5;" horiz-adv-x="1630" 
d="M78 719q0 200 98.5 369t268 267.5t370.5 98.5t370.5 -98.5t268 -267.5t98.5 -369q0 -150 -58 -287t-157 -236t-235.5 -157.5t-286.5 -58.5t-286.5 58.5t-235.5 157.5t-157 236t-58 287zM176 719q0 -174 85.5 -321.5t232.5 -233.5t321 -86t321 86t232.5 233.5t85.5 321.5
q0 173 -85.5 320t-232.5 232t-321 85t-321 -85t-232.5 -232t-85.5 -320zM899 1069q44 0 86.5 -10.5t86.5 -34t71.5 -71t27.5 -113.5q0 -67 -27.5 -117.5t-71 -77.5t-87.5 -40t-86 -13h-168v-225h-201v702h369zM731 745h152q40 0 63 23t23 63q0 38 -23 61t-63 23h-152v-170z
" />
    <glyph glyph-name="lozenge" unicode="&#x25ca;" horiz-adv-x="1142" 
d="M37 510l369 924h333l369 -924l-369 -920h-333zM793 510l-222 555l-221 -555l221 -551z" />
    <glyph glyph-name="fi" unicode="&#xfb01;" horiz-adv-x="1314" 
d="M838 1311q0 90 65 152.5t158 62.5q89 0 152 -63t63 -152q0 -95 -62.5 -159.5t-152.5 -64.5q-94 0 -158.5 64.5t-64.5 159.5zM31 1024h108v111q0 159 90 239t260 80h275v-311h-113q-64 0 -88 -14t-24 -66v-39h716v-1024h-399v700h-317v-700h-400v700h-108v324z" />
    <glyph glyph-name="fl" unicode="&#xfb02;" horiz-adv-x="1396" 
d="M31 1024h108v111q0 159 90 239t260 80h768v-1001q0 -73 25.5 -101t93.5 -28h15v-324h-248q-149 0 -217 72.5t-68 220.5v850h-207q-64 0 -88 -14t-24 -66v-39h174v-324h-174v-700h-400v700h-108v324z" />
    <glyph glyph-name="zero.lnum_tnum" horiz-adv-x="1638" 
d="M308 175q-183 195 -183 542t183 542t509 195q327 0 510.5 -195t183.5 -542t-183.5 -542t-510.5 -195q-326 0 -509 195zM817 1126q-285 0 -285 -409q0 -410 285 -410q145 0 216 105.5t71 304.5q0 409 -287 409z" />
    <glyph glyph-name="one.lnum_tnum" horiz-adv-x="1638" 
d="M967 1434h284v-1434h-403v1051l-346 -158l-115 274z" />
    <glyph glyph-name="two.lnum_tnum" horiz-adv-x="1638" 
d="M276 328l533 450q81 70 110 117.5t29 103.5q0 44 -14 74.5t-38.5 45t-48.5 20.5t-52 6q-49 0 -81.5 -17.5t-50.5 -53t-25 -79.5t-7 -106h-408q0 83 15.5 158.5t55.5 151.5t102.5 131t165 89.5t233.5 34.5q85 0 161.5 -13.5t151 -47.5t128.5 -86t87 -136.5t33 -191.5
q0 -246 -361 -516l-180 -135h600v-328h-1139v328z" />
    <glyph glyph-name="three.lnum_tnum" horiz-adv-x="1460" 
d="M557 594v252h156q133 0 133 155q0 144 -144 144q-69 0 -101 -43t-32 -154h-407q0 105 33 195t97.5 160.5t170.5 110.5t242 40q150 0 268.5 -45t190 -138t71.5 -220q0 -106 -47 -188t-131 -130q121 -41 190.5 -123.5t69.5 -208.5q0 -128 -74.5 -224t-203.5 -145.5
t-294 -49.5q-148 0 -266.5 42.5t-190.5 112.5t-109.5 156t-37.5 178h408q0 -83 48 -131.5t136 -48.5q85 0 130.5 45.5t45.5 120.5q0 70 -38 103.5t-105 33.5h-209z" />
    <glyph glyph-name="four.lnum_tnum" horiz-adv-x="1638" 
d="M881 1434h401v-801h184v-275h-184v-358h-403v358h-711v246zM537 633h342v403z" />
    <glyph glyph-name="five.lnum_tnum" horiz-adv-x="1638" 
d="M289 557l102 877h914v-328h-549l-25 -223q81 37 191 37q81 0 162.5 -29t153 -83t116.5 -144t45 -201q0 -216 -157 -349.5t-404 -133.5q-165 0 -299.5 56t-216.5 166.5t-82 256.5h403q0 -81 49 -127.5t127 -46.5q82 0 129 42t47 122q0 81 -45 123t-116 42q-75 0 -142 -57
h-403z" />
    <glyph glyph-name="six.lnum_tnum" horiz-adv-x="1638" 
d="M805 1434h495l-350 -471q204 -35 334.5 -165.5t130.5 -320.5q0 -147 -81 -261.5t-217 -175t-300 -60.5q-170 0 -305.5 61t-213 174.5t-77.5 261.5q0 141 78 256zM817 285q81 0 138 52t57 140q0 86 -57 138.5t-138 52.5q-80 0 -136 -52.5t-56 -138.5q0 -88 56 -140
t136 -52z" />
    <glyph glyph-name="seven.lnum_tnum" horiz-adv-x="1638" 
d="M1337 1434v-320l-501 -1114h-443l510 1106h-602v328h1036z" />
    <glyph glyph-name="eight.lnum_tnum" horiz-adv-x="1638" 
d="M819 1454q244 0 399.5 -109t155.5 -294q0 -98 -51 -177.5t-141 -134.5q108 -57 170.5 -142t62.5 -194q0 -131 -83.5 -229t-217 -146t-295.5 -48q-161 0 -295 48t-217.5 146t-83.5 229q0 109 63 194t171 142q-90 55 -141.5 134.5t-51.5 177.5q0 185 156 294t399 109z
M693 912q43 -40 126 -40t126.5 40t43.5 100q0 58 -43.5 97.5t-126.5 39.5t-126.5 -39.5t-43.5 -97.5q0 -60 44 -100zM680 329q52 -44 139 -44t140 43.5t53 113.5q0 71 -52.5 113.5t-140.5 42.5t-140 -42.5t-52 -113.5q0 -70 53 -113z" />
    <glyph glyph-name="nine.lnum_tnum" horiz-adv-x="1638" 
d="M831 -2h-495l350 471q-204 35 -334.5 166t-130.5 321q0 109 47.5 203t129 157.5t190.5 99.5t231 36q170 0 305.5 -61t213 -174.5t77.5 -260.5q0 -159 -96 -282zM819 1147q-81 0 -137.5 -52.5t-56.5 -138.5q0 -88 56.5 -140t137.5 -52q80 0 136.5 52.5t56.5 139.5
q0 86 -56.5 138.5t-136.5 52.5z" />
    </font>
</defs>
</svg>
