<?xml version="1.0" standalone="no"?>
<!DOCTYPE svg PUBLIC "-//W3C//DTD SVG 1.1//EN" "http://www.w3.org/Graphics/SVG/1.1/DTD/svg11.dtd" >
<svg xmlns="http://www.w3.org/2000/svg" xmlns:xlink="http://www.w3.org/1999/xlink" version="1.1">
<metadata>
Created by FontForge 20230101 at Sat May 29 15:16:54 2021
 By Unknown
Tour de Force Font Foundry &#38; Dusan Jelesijevic
</metadata>
<defs>
<font id="Lupio-Regular" horiz-adv-x="1267" >
  <font-face 
    font-family="Lupio-Regular"
    font-weight="400"
    font-stretch="normal"
    units-per-em="2048"
    panose-1="0 0 0 0 0 0 0 0 0 0"
    ascent="1638"
    descent="-410"
    x-height="1024"
    cap-height="1434"
    bbox="-229 -512 2884 2030"
    underline-thickness="102"
    underline-position="-358"
    unicode-range="U+000D-FB02"
  />
<missing-glyph horiz-adv-x="1024" 
 />
    <glyph glyph-name=".notdef" horiz-adv-x="1024" 
 />
    <glyph glyph-name="uni0000" horiz-adv-x="0" 
 />
    <glyph glyph-name="uni000D" unicode="&#xd;" horiz-adv-x="512" 
 />
    <glyph glyph-name="space" unicode=" " horiz-adv-x="532" 
 />
    <glyph glyph-name="exclam" unicode="!" horiz-adv-x="526" 
d="M164 1434h198v-506l-18 -473h-162l-18 473v506zM123 121q0 59 41 99t102 40q59 0 99.5 -40.5t40.5 -98.5q0 -60 -40.5 -100.5t-99.5 -40.5q-61 0 -102 40.5t-41 100.5z" />
    <glyph glyph-name="quotedbl" unicode="&#x22;" horiz-adv-x="727" 
d="M156 983v451h149l-41 -451h-108zM422 983v451h149l-41 -451h-108z" />
    <glyph glyph-name="numbersign" unicode="#" horiz-adv-x="1380" 
d="M104 492h220l65 452h-285v143h306l49 349h141l-49 -349h377l49 349h151l-49 -349h197v-143h-217l-66 -452h283v-144h-303l-49 -348h-152l49 348h-377l-49 -348h-141l49 348h-199v144zM465 492h377l65 452h-377z" />
    <glyph glyph-name="dollar" unicode="$" horiz-adv-x="1515" 
d="M668 1843h163v-391q144 -9 252 -51.5t170 -108.5t91.5 -142t29.5 -163h-203q0 63 -21.5 115.5t-67.5 95.5t-129 67.5t-197 24.5q-172 0 -273.5 -58.5t-101.5 -174.5q0 -39 10 -68.5t36 -53t57.5 -39.5t89 -32t114 -27.5t148.5 -27.5q83 -14 128.5 -23t114.5 -27t107 -36
t84.5 -48.5t70 -67t40 -88.5t16.5 -116q0 -178 -137 -292.5t-408 -128.5v-392h-164v394q-118 8 -214.5 39t-161.5 76t-109 104t-64 122t-20 130h203q0 -63 26 -117.5t78.5 -99t141.5 -70t204 -25.5q204 0 312 65t108 179q0 27 -6 49t-14.5 39.5t-26.5 32t-34 25t-45.5 20.5
t-52.5 16t-63.5 14t-69.5 12.5t-80.5 13t-86.5 14.5q-276 49 -405.5 146.5t-129.5 283.5q0 174 134.5 276.5t355.5 120.5v393z" />
    <glyph glyph-name="percent" unicode="%" horiz-adv-x="2088" 
d="M210 687q-104 117 -104 325t103 325t283 117q179 0 282 -117t103 -325t-103 -325.5t-282 -117.5t-282 118zM694 0l574 1434h127l-574 -1434h-127zM687 1266q-69 90 -195 90t-195.5 -90t-69.5 -254q0 -163 69.5 -253.5t195.5 -90.5t195 90.5t69 253.5q0 164 -69 254z
M1315 97q-103 117 -103 325t103 325t282 117t282 -117t103 -325t-103 -325t-282 -117t-282 117zM1793 676q-70 90 -196 90t-195 -90t-69 -254q0 -163 69 -253.5t195 -90.5t195.5 90.5t69.5 253.5q0 164 -69 254z" />
    <glyph glyph-name="ampersand" unicode="&#x26;" horiz-adv-x="1497" 
d="M1413 633h-207v-199q0 -69 -18 -132.5t-59 -122.5t-102 -103t-154.5 -70t-208.5 -26q-92 0 -173 15t-149.5 47t-118 78.5t-77 113.5t-27.5 149q0 137 81.5 221.5t223.5 116.5q-223 74 -223 338q0 96 40 172.5t110 124.5t160 73t194 25q113 0 202 -26t144.5 -67.5
t91.5 -97.5t50.5 -110.5t14.5 -112.5h-204q0 250 -297 250q-136 0 -220 -62t-84 -184q0 -121 60.5 -179t191.5 -58h758v-174zM1004 633h-386q-144 0 -220 -53t-76 -174q0 -71 28.5 -123t78 -82t110 -44t131.5 -14q92 0 159.5 24.5t104 67t53.5 92t17 107.5v199z" />
    <glyph glyph-name="quotesingle" unicode="'" horiz-adv-x="460" 
d="M156 983v451h149l-41 -451h-108z" />
    <glyph glyph-name="parenleft" unicode="(" horiz-adv-x="765" 
d="M311 522q0 -124 17 -231.5t48 -186.5t65.5 -141.5t77.5 -110t75.5 -78t68.5 -59.5q17 -14 25 -20l-92 -105q-36 21 -71 46t-83 69.5t-89.5 96t-83.5 127t-71.5 160t-48 197t-18.5 236.5t18.5 236.5t47.5 197t70 159.5t80 125.5t84 94t75.5 66.5t60.5 41l92 -105
q-8 -8 -38 -35.5t-51.5 -48.5t-56 -63.5t-59.5 -83t-54 -104t-47 -131t-30 -158.5t-12 -191z" />
    <glyph glyph-name="parenright" unicode=")" horiz-adv-x="765" 
d="M457 522q0 100 -12 191t-30 158.5t-47 131t-54 104t-59.5 83t-56 63.5t-51.5 48.5t-38 35.5l92 105q30 -18 60.5 -41t75.5 -66.5t84 -94t80 -125.5t70 -159.5t47.5 -197t18.5 -236.5t-18.5 -236.5t-48 -197t-71.5 -160t-83.5 -127t-89.5 -96t-83 -69.5t-71 -46l-92 105
q8 6 25 20q106 88 165 164q187 241 187 643z" />
    <glyph glyph-name="asterisk" unicode="*" horiz-adv-x="1075" 
d="M219 813l256 264l-336 162l58 102l313 -211l-31 396h117l-29 -396l312 211l57 -102l-336 -162l256 -264l-90 -76l-227 318l-230 -318z" />
    <glyph glyph-name="plus" unicode="+" horiz-adv-x="972" 
d="M139 580h281v282h133v-282h283v-134h-283v-280h-133v280h-281v134z" />
    <glyph glyph-name="comma" unicode="," horiz-adv-x="569" 
d="M139 127q0 61 43 103t107 42q60 0 101.5 -42.5t41.5 -102.5q0 -40 -20 -78l-156 -291h-106l100 226q-50 12 -80.5 51.5t-30.5 91.5z" />
    <glyph glyph-name="hyphen" unicode="-" horiz-adv-x="890" 
d="M139 580h615v-134h-615v134z" />
    <glyph glyph-name="period" unicode="." horiz-adv-x="569" 
d="M139 129q0 60 43 101.5t107 41.5q60 0 101.5 -41.5t41.5 -101.5q0 -64 -41.5 -106.5t-101.5 -42.5q-65 0 -107.5 42.5t-42.5 106.5z" />
    <glyph glyph-name="slash" unicode="/" horiz-adv-x="819" 
d="M104 0l451 1434h158l-451 -1434h-158z" />
    <glyph glyph-name="zero" unicode="0" horiz-adv-x="1544" 
d="M303 176q-172 196 -172 541t172 541t469 196t469 -196t172 -541t-172 -541t-469 -196t-469 196zM772 1290q-209 0 -323.5 -149.5t-114.5 -423.5q0 -272 114.5 -423t323.5 -151q207 0 322.5 151.5t115.5 422.5q0 273 -115 423t-323 150z" />
    <glyph glyph-name="one" unicode="1" horiz-adv-x="958" 
d="M653 1434h142v-1434h-199v1227l-461 -211l-61 151z" />
    <glyph glyph-name="two" unicode="2" horiz-adv-x="1366" 
d="M172 164l520 461q114 101 170.5 169t74 117t17.5 117q0 71 -25.5 123.5t-70.5 82t-99 43t-118 13.5q-73 0 -129.5 -21t-91.5 -55t-58 -81.5t-31.5 -97t-8.5 -105.5h-203q0 76 15 146.5t52.5 140.5t94 121.5t148 83.5t206.5 32q106 0 196.5 -23.5t165 -73t117.5 -135
t43 -200.5q0 -59 -13.5 -110t-51.5 -116.5t-114 -145t-192 -177.5l-366 -309h827v-164h-1075v164z" />
    <glyph glyph-name="three" unicode="3" horiz-adv-x="1329" 
d="M524 641v162h166q126 0 185 54.5t59 182.5q0 126 -82.5 188t-220.5 62q-84 0 -142 -23t-89.5 -67t-44.5 -97.5t-13 -123.5h-203q0 76 16 143.5t53 129t92.5 106t140.5 70.5t192 26q220 0 357.5 -101.5t137.5 -289.5q0 -251 -200 -334q132 -32 208 -111.5t76 -205.5
q0 -107 -42 -190.5t-116 -135t-170.5 -78t-209.5 -26.5q-111 0 -204 27t-156.5 72t-108.5 106t-65.5 127.5t-20.5 136.5h203q0 -129 89 -217.5t261 -88.5q95 0 169.5 28.5t121.5 91t47 151.5q0 123 -77.5 174t-219.5 51h-189z" />
    <glyph glyph-name="four" unicode="4" horiz-adv-x="1464" 
d="M913 1434h193v-871h266v-164h-266v-399h-199v399h-815v123zM336 563h571v641z" />
    <glyph glyph-name="five" unicode="5" horiz-adv-x="1271" 
d="M209 680l102 754h770v-164h-594l-55 -406q109 72 248 72q86 0 169.5 -31t152 -89t111 -150.5t42.5 -204.5q0 -144 -70.5 -255t-186 -168.5t-253.5 -57.5q-103 0 -197.5 33t-168 93t-117 151.5t-43.5 201.5h203q0 -143 92.5 -229.5t222.5 -86.5t222.5 86t92.5 226
q0 146 -91 231.5t-218 85.5q-143 0 -235 -92h-199z" />
    <glyph glyph-name="six" unicode="6" horiz-adv-x="1312" 
d="M645 952q145 0 266 -56.5t196 -168.5t75 -260q0 -145 -74.5 -258t-193.5 -171t-259 -58q-142 0 -260.5 58t-191 170.5t-72.5 258.5q0 183 121 317l496 650h237l-371 -484h11zM655 143q131 0 227.5 89.5t96.5 234.5q0 143 -96.5 232t-227.5 89q-129 0 -225 -89t-96 -232
q0 -145 96 -234.5t225 -89.5z" />
    <glyph glyph-name="seven" unicode="7" horiz-adv-x="1105" 
d="M1034 1434v-156l-571 -1278h-221l579 1270h-749v164h962z" />
    <glyph glyph-name="eight" unicode="8" horiz-adv-x="1372" 
d="M314 1351q142 103 372 103t372 -103t142 -288q0 -109 -55 -191t-152 -131q115 -47 181.5 -132t66.5 -206q0 -136 -77.5 -233.5t-201 -143.5t-276.5 -46t-276.5 46t-201 143.5t-77.5 233.5q0 121 66.5 206t181.5 132q-97 49 -152 131t-55 191q0 185 142 288zM458 878
q83 -61 228 -61t227 60.5t82 177.5q0 116 -82 175.5t-227 59.5t-228 -59.5t-83 -175.5q0 -117 83 -177zM432 208q98 -65 254 -65t254 64.5t98 191.5t-98 190.5t-254 63.5t-254 -63.5t-98 -190.5t98 -191z" />
    <glyph glyph-name="nine" unicode="9" horiz-adv-x="1312" 
d="M668 481q-108 0 -205 33.5t-171 94.5t-117.5 154t-43.5 204q0 145 74.5 258t193 171t258.5 58q142 0 260.5 -58t191.5 -170.5t73 -258.5q0 -184 -121 -318l-496 -649h-237l370 483h-10zM657 1290q-131 0 -227 -89t-96 -234q0 -96 46.5 -171t119.5 -113t157 -38
q129 0 225.5 89.5t96.5 232.5q0 97 -46.5 172t-119.5 113t-156 38z" />
    <glyph glyph-name="colon" unicode=":" horiz-adv-x="569" 
d="M139 901q0 60 43 101.5t107 41.5q60 0 101.5 -41.5t41.5 -101.5q0 -64 -41.5 -106.5t-101.5 -42.5q-65 0 -107.5 42.5t-42.5 106.5zM139 129q0 60 43 101.5t107 41.5q60 0 101.5 -41.5t41.5 -101.5q0 -64 -41.5 -106.5t-101.5 -42.5q-65 0 -107.5 42.5t-42.5 106.5z" />
    <glyph glyph-name="semicolon" unicode=";" horiz-adv-x="569" 
d="M139 901q0 60 43 101.5t107 41.5q60 0 101.5 -41.5t41.5 -101.5q0 -64 -41.5 -106.5t-101.5 -42.5q-65 0 -107.5 42.5t-42.5 106.5zM139 127q0 61 43 103t107 42q60 0 101.5 -42.5t41.5 -102.5q0 -40 -20 -78l-156 -291h-106l100 226q-50 12 -80.5 51.5t-30.5 91.5z" />
    <glyph glyph-name="less" unicode="&#x3c;" horiz-adv-x="970" 
d="M104 520l760 434v-168l-575 -315l575 -315v-168l-760 434v98z" />
    <glyph glyph-name="equal" unicode="=" horiz-adv-x="972" 
d="M137 758h697v-133h-697v133zM137 399h697v-133h-697v133z" />
    <glyph glyph-name="greater" unicode="&#x3e;" horiz-adv-x="970" 
d="M864 520v-98l-760 -434v168l578 315l-578 315v168z" />
    <glyph glyph-name="question" unicode="?" horiz-adv-x="1253" 
d="M514 453v63q0 54 2.5 89t12.5 66.5t21 50t38 42t52.5 40.5t74.5 46q87 52 109 69q82 70 83 181q0 47 -14.5 81.5t-38 55.5t-59.5 33.5t-73 17t-83 4.5q-87 0 -147 -23t-90.5 -66.5t-43 -92t-12.5 -111.5h-203q0 77 12.5 139.5t46.5 123.5t88.5 102.5t144 66.5t208.5 25
q467 0 467 -350q0 -78 -15 -136.5t-48 -102.5t-69.5 -74t-96.5 -66q-59 -37 -84.5 -55t-48.5 -43.5t-29 -52t-6 -68.5v-55h-199zM473 121q0 59 41 99t102 40q59 0 99.5 -40.5t40.5 -98.5q0 -60 -40.5 -100.5t-99.5 -40.5q-61 0 -102 40.5t-41 100.5z" />
    <glyph glyph-name="at" unicode="@" horiz-adv-x="2234" 
d="M612 512q37 212 183.5 345.5t341.5 133.5q110 0 193 -50.5t124 -135.5l29 168h186l-145 -830h354q80 140 113 328q28 166 8 306t-84 250.5t-159.5 187.5t-219 118t-262.5 41q-175 0 -345 -64t-310 -179t-241 -286.5t-136 -373.5q-28 -166 -8.5 -306t83 -250.5
t158.5 -187.5t218 -118t263 -41q78 0 154 12v-78q-80 -14 -168 -14q-145 0 -278.5 43t-241.5 125.5t-181.5 202.5t-99 273.5t5.5 338.5q32 180 114 338.5t196 274.5t252 200.5t286 127t293 42.5q146 0 279.5 -43t241.5 -125.5t181 -202.5t98.5 -273.5t-5.5 -338.5
q-39 -230 -160 -420h-602l31 170q-70 -87 -171.5 -137.5t-211.5 -50.5q-195 0 -295 133.5t-62 345.5zM1389 438l26 154q19 109 -58.5 178.5t-193.5 69.5q-135 0 -234.5 -91t-125.5 -237q-26 -145 42.5 -235.5t203.5 -90.5q75 0 147 29.5t126 88t67 132.5v2z" />
    <glyph glyph-name="A" unicode="A" horiz-adv-x="1622" 
d="M713 1434h198l639 -1432h-198l-148 344h-786l-148 -344h-198zM489 510h644l-322 747z" />
    <glyph glyph-name="B" unicode="B" horiz-adv-x="1439" 
d="M164 0v1434h592q38 0 72.5 -2t84 -11t90.5 -24.5t84 -44t72.5 -67.5t48.5 -98t19 -132q0 -224 -199 -318q55 -14 101 -38.5t88.5 -64t67 -102t24.5 -141.5q0 -73 -19 -132.5t-49 -99t-72.5 -70t-84 -47t-90 -26.5t-84.5 -13t-72 -3h-674zM362 803h379q23 0 39.5 0.5
t48.5 5.5t55 13t51.5 26t46 42.5t30 63.5t12.5 88q0 47 -12.5 84.5t-30 61t-46 40.5t-51 24.5t-55.5 12t-48.5 5t-39.5 0.5h-379v-467zM362 164h453q291 0 291 233q0 66 -23.5 113.5t-55.5 71.5t-77 38t-73.5 16.5t-61.5 2.5h-453v-475z" />
    <glyph glyph-name="C" unicode="C" horiz-adv-x="1669" 
d="M363 925q-29 -95 -29 -208t29 -208t79 -161.5t118 -113.5t144.5 -69t159.5 -22q107 0 198 34.5t149.5 90.5t91 124.5t32.5 137.5h203q0 -75 -26.5 -151t-82.5 -148t-134 -127.5t-190 -89.5t-241 -34q-150 0 -283.5 51.5t-233.5 145t-158 233.5t-58 307t58 307t158 233.5
t233.5 145t283.5 51.5q129 0 241 -34t190 -90t134 -128t82.5 -148t26.5 -151h-203q0 69 -32.5 137.5t-91 124.5t-149.5 90.5t-198 34.5q-83 0 -159.5 -22t-144.5 -68.5t-118 -113t-79 -161.5z" />
    <glyph glyph-name="D" unicode="D" horiz-adv-x="1626" 
d="M739 1434q153 0 289 -48t241 -136.5t166.5 -226t61.5 -306.5t-61.5 -306.5t-166.5 -226t-241 -136.5t-289 -48h-575v1434h575zM362 164h377q114 0 214 36t176.5 104t120.5 174.5t44 238.5q0 133 -44 239.5t-120.5 174.5t-176.5 103.5t-214 35.5h-377v-1106z" />
    <glyph glyph-name="E" unicode="E" horiz-adv-x="1277" 
d="M164 1434h1010v-164h-812v-449h750v-164h-750v-493h812v-164h-1010v1434z" />
    <glyph glyph-name="F" unicode="F" horiz-adv-x="1236" 
d="M164 1434h995v-164h-797v-484h736v-163h-736v-623h-198v1434z" />
    <glyph glyph-name="G" unicode="G" horiz-adv-x="1689" 
d="M334 723q0 -274 154 -425t409 -151q192 0 318 114.5t139 307.5h-541v164h746v-733h-183v199q-87 -98 -215.5 -152.5t-288.5 -54.5q-153 0 -288 50.5t-235.5 143t-159 231.5t-58.5 306t60.5 306.5t163.5 231.5t239 142.5t289 50.5q146 0 272.5 -46.5t208 -120t128 -161.5
t46.5 -174h-203q0 132 -126.5 235t-327.5 103q-117 0 -216.5 -37t-173.5 -107t-115.5 -178.5t-41.5 -244.5z" />
    <glyph glyph-name="H" unicode="H" horiz-adv-x="1716" 
d="M164 1434h198v-619h992v619h198v-1434h-198v651h-992v-651h-198v1434z" />
    <glyph glyph-name="I" unicode="I" horiz-adv-x="526" 
d="M164 1434h198v-1434h-198v1434z" />
    <glyph glyph-name="J" unicode="J" horiz-adv-x="1325" 
d="M963 1434h198v-912q0 -245 -137 -393.5t-385 -148.5q-256 0 -391 149t-135 403h202q0 -182 83 -285.5t243 -103.5q151 0 236.5 104t85.5 275v912z" />
    <glyph glyph-name="K" unicode="K" horiz-adv-x="1433" 
d="M164 1434h198v-676h211l492 676h238l-558 -748l617 -686h-250l-522 594h-228v-594h-198v1434z" />
    <glyph glyph-name="L" unicode="L" horiz-adv-x="1304" 
d="M164 1434h198v-1270h838v-164h-1036v1434z" />
    <glyph glyph-name="M" unicode="M" horiz-adv-x="1892" 
d="M166 1434h190l590 -1219l592 1219h193v-1434h-193v1028l-487 -1028h-203l2 2l-6 -2l-488 1028v-1028h-190v1434z" />
    <glyph glyph-name="N" unicode="N" horiz-adv-x="1708" 
d="M164 1434h198l984 -1153v1153h198v-1434h-198l-984 1141v-1141h-198v1434z" />
    <glyph glyph-name="O" unicode="O" horiz-adv-x="1775" 
d="M172 463q-41 119 -41 254t40.5 254t112.5 206t167 150.5t206.5 95t229.5 31.5q149 0 285.5 -51t241.5 -143t168 -233.5t63 -309.5t-63 -309.5t-168 -233.5t-241.5 -143t-285.5 -51q-118 0 -229.5 31.5t-206.5 95t-167 150.5t-112 206zM887 1290q-111 0 -211 -40
t-176 -112.5t-121 -181.5t-45 -239t45 -239.5t121 -182t176 -112.5t211 -40q110 0 210.5 40t177 112.5t122 182t45.5 239.5t-45.5 239t-122 181.5t-177 112.5t-210.5 40z" />
    <glyph glyph-name="P" unicode="P" horiz-adv-x="1417" 
d="M801 1434q32 0 69 -4t88.5 -17.5t98.5 -34.5t95 -58t82.5 -85.5t56.5 -120.5t22 -158q0 -87 -22 -159t-56.5 -120.5t-82.5 -86t-95 -58t-98.5 -34t-88.5 -17.5t-69 -4h-439v-477h-198v1434h637zM362 641h422q31 0 66 6t83.5 26t86 52.5t64 92.5t26.5 138
q0 77 -26.5 136.5t-64 92t-85.5 53t-84 26.5t-66 6h-422v-629z" />
    <glyph glyph-name="Q" unicode="Q" horiz-adv-x="1775" 
d="M1423 -410l-348 410q-87 -20 -188 -20q-118 0 -229.5 31.5t-206.5 95t-167 150.5t-112.5 206t-40.5 254t40.5 254t112.5 206t167 150.5t206.5 95t229.5 31.5q149 0 285.5 -51t241.5 -143t168 -233.5t63 -309.5q0 -221 -103 -387t-276 -258l413 -482h-256zM887 1290
q-110 0 -210 -40t-176.5 -112.5t-121.5 -181.5t-45 -239t45 -239.5t121.5 -182t176.5 -112.5t210 -40q88 0 170.5 25t152 74.5t121.5 118t81.5 160.5t29.5 196q0 130 -45 239t-121.5 181.5t-177 112.5t-211.5 40z" />
    <glyph glyph-name="R" unicode="R" horiz-adv-x="1476" 
d="M823 1434q41 0 88 -7t108 -23.5t114.5 -49.5t100 -79.5t74 -120.5t27.5 -165q0 -87 -26 -159.5t-66 -120t-94.5 -83.5t-106 -55t-106.5 -30l401 -541h-235l-387 528h-353v-528h-198v1434h659zM362 692h445q32 0 69 6.5t84 26t84.5 50t63 84t25.5 122.5t-25.5 122.5
t-63 84t-84.5 50t-84 26t-69 6.5h-445v-578z" />
    <glyph glyph-name="S" unicode="S" horiz-adv-x="1515" 
d="M322 455q0 -63 26 -117.5t78.5 -99t141.5 -70t204 -25.5q204 0 312 65t108 179q0 27 -6 49t-14.5 39.5t-26.5 32t-34 25t-45.5 20.5t-52.5 16t-63.5 14t-69.5 12.5t-80.5 13t-86.5 14.5q-276 49 -405.5 146.5t-129.5 283.5q0 128 77.5 220t206 136.5t294.5 44.5
q133 0 239.5 -26t176 -70t116 -105t66.5 -127t20 -139h-203q0 63 -21.5 115.5t-67.5 95.5t-129 67.5t-197 24.5q-172 0 -273.5 -58.5t-101.5 -174.5q0 -39 10 -68.5t36 -53t57.5 -39.5t89 -32t114 -27.5t148.5 -27.5q83 -14 128.5 -23t114.5 -27t107 -36t84.5 -48.5t70 -67
t40 -88.5t16.5 -116q0 -92 -37.5 -168.5t-111.5 -133.5t-193.5 -89t-274.5 -32q-137 0 -249.5 27t-188 72t-126.5 107t-74 129t-23 140h203z" />
    <glyph glyph-name="T" unicode="T" horiz-adv-x="1437" 
d="M80 1434h1278v-164h-541v-1270h-199v1270h-538v164z" />
    <glyph glyph-name="U" unicode="U" horiz-adv-x="1564" 
d="M1202 1434h199v-840q0 -614 -625 -614q-304 0 -458 150.5t-154 463.5v840h198v-840q0 -234 101.5 -342.5t312.5 -108.5q213 0 319.5 109t106.5 342v840z" />
    <glyph glyph-name="V" unicode="V" horiz-adv-x="1638" 
d="M719 0l-639 1434h213l526 -1194l524 1194h216l-641 -1434h-199z" />
    <glyph glyph-name="W" unicode="W" horiz-adv-x="2162" 
d="M535 0l-455 1434h199l354 -1178l344 1178h192l349 -1192l358 1192h207l-463 -1434h-223l-324 1106l-323 -1106h-215z" />
    <glyph glyph-name="X" unicode="X" horiz-adv-x="1660" 
d="M80 0l629 745l-555 689h243l441 -570l430 570h243l-542 -689l612 -745h-244l-499 637l-512 -637h-246z" />
    <glyph glyph-name="Y" unicode="Y" horiz-adv-x="1570" 
d="M686 430l-606 1004h229l477 -824l476 824h229l-606 -1004v-430h-199v430z" />
    <glyph glyph-name="Z" unicode="Z" horiz-adv-x="1294" 
d="M1161 1434v-156l-827 -1114h880v-164h-1134v156l829 1114h-813v164h1065z" />
    <glyph glyph-name="bracketleft" unicode="[" horiz-adv-x="827" 
d="M164 1434h547v-164h-379v-1516h379v-164h-547v1844z" />
    <glyph glyph-name="backslash" unicode="\" horiz-adv-x="819" 
d="M713 0h-158l-451 1434h158z" />
    <glyph glyph-name="bracketright" unicode="]" horiz-adv-x="827" 
d="M702 1434v-1844h-546v164h379v1516h-379v164h546z" />
    <glyph glyph-name="asciicircum" unicode="^" horiz-adv-x="1032" 
d="M139 844l310 590h137l309 -590h-158l-221 450l-221 -450h-156z" />
    <glyph glyph-name="underscore" unicode="_" horiz-adv-x="972" 
d="M139 369h697v-133h-697v133z" />
    <glyph glyph-name="grave" unicode="`" horiz-adv-x="475" 
d="M365 1141h-129l-142 336h148z" />
    <glyph glyph-name="a" unicode="a" horiz-adv-x="1202" 
d="M227 1024h379q101 0 175.5 -20t120.5 -54.5t73.5 -88.5t38 -113t10.5 -136v-272q0 -109 33.5 -144.5t140.5 -35.5v-160h-133q-116 1 -162.5 43t-54.5 141q-45 -93 -136 -148.5t-223 -55.5q-370 0 -370 321q0 153 93.5 239.5t291.5 86.5h325q-1 63 -9 101.5t-33 72
t-75.5 48.5t-131.5 15h-353v160zM829 467h-319q-101 0 -147 -34.5t-46 -127.5q0 -97 53.5 -131.5t168.5 -34.5q128 0 209 66.5t81 173.5v88z" />
    <glyph glyph-name="b" unicode="b" horiz-adv-x="1343" 
d="M1096 896q137 -148 137 -384t-137 -384t-359 -148q-123 0 -229.5 54.5t-169.5 149.5v-184h-195v1434h195v-594q63 95 169.5 149.5t229.5 54.5q222 0 359 -148zM338 422q0 -118 104.5 -200.5t237.5 -82.5q156 0 255 102.5t99 270.5t-99 270.5t-255 102.5
q-133 0 -237.5 -82.5t-104.5 -200.5v-180z" />
    <glyph glyph-name="c" unicode="c" 
d="M309 514q0 -174 100 -274.5t255 -100.5q131 0 212.5 75.5t81.5 168.5h199q0 -57 -18 -113t-57.5 -108.5t-95.5 -92.5t-139 -64.5t-181 -24.5q-249 0 -402 143t-153 391q0 245 153.5 387.5t401.5 142.5q98 0 181 -24.5t139 -64.5t95.5 -92.5t57.5 -108t18 -111.5h-199
q0 92 -82 167t-212 75q-155 0 -255 -99.5t-100 -271.5z" />
    <glyph glyph-name="d" unicode="d" horiz-adv-x="1343" 
d="M248 128q-137 148 -137 384t136.5 384t358.5 148q123 0 230 -54.5t170 -149.5v594h194v-1434h-194v184q-63 -95 -170 -149.5t-230 -54.5q-222 0 -358 148zM664 139q133 0 237.5 82.5t104.5 200.5v180q0 118 -104.5 200.5t-237.5 82.5q-157 0 -256 -103t-99 -270t99 -270
t256 -103z" />
    <glyph glyph-name="e" unicode="e" 
d="M313 449q18 -156 109.5 -233t218.5 -77q136 0 225.5 56t89.5 143h189q-5 -62 -40.5 -124t-97.5 -115t-160 -86t-214 -33q-146 0 -263.5 62.5t-188 185t-70.5 284.5q0 123 41 225t111.5 169t166 104t203.5 37q242 0 382 -148t142 -381v-69h-844zM954 604
q-19 154 -100.5 218.5t-212.5 64.5q-121 0 -211 -71.5t-113 -211.5h637z" />
    <glyph glyph-name="f" unicode="f" horiz-adv-x="856" 
d="M782 1294h-143q-115 0 -160 -42.5t-45 -157.5v-70h350v-160h-350v-864h-194v864h-168v160h168v100q0 327 329 330h213v-160z" />
    <glyph glyph-name="g" unicode="g" horiz-adv-x="1343" 
d="M268 -250h402q176 0 256 78t80 242v114q-63 -95 -170 -149.5t-230 -54.5q-222 0 -358.5 148t-136.5 384t136.5 384t358.5 148q123 0 230 -54.5t170 -149.5v184h194v-932q0 -502 -514 -502h-418v160zM664 139q133 0 237.5 82.5t104.5 200.5v180q0 118 -104.5 200.5
t-237.5 82.5q-157 0 -256 -103t-99 -270t99 -270t256 -103z" />
    <glyph glyph-name="h" unicode="h" horiz-adv-x="1269" 
d="M143 1434h195v-607q62 101 166 159t227 58q395 0 395 -411v-633h-194v586q0 145 -62.5 222t-220.5 77q-128 0 -219.5 -89t-91.5 -223v-573h-195v1434z" />
    <glyph glyph-name="i" unicode="i" horiz-adv-x="456" 
d="M100 1360q0 51 38 88t93 37q52 0 88.5 -37t36.5 -88q0 -55 -36 -93t-89 -38q-55 0 -93 37.5t-38 93.5zM131 1024h195v-1024h-195v1024z" />
    <glyph glyph-name="j" unicode="j" horiz-adv-x="456" 
d="M98 1360q0 51 38 88t93 37q52 0 88.5 -37t36.5 -88q0 -55 -36 -93t-89 -38q-55 0 -93 37.5t-38 93.5zM-193 -250h117q112 0 159.5 49t47.5 160v1065h195v-1102q0 -332 -332 -332h-187v160z" />
    <glyph glyph-name="k" unicode="k" horiz-adv-x="1220" 
d="M143 1434h195v-822h190l326 412h227l-397 -485l453 -539h-234l-368 453h-197v-453h-195v1434z" />
    <glyph glyph-name="l" unicode="l" horiz-adv-x="538" 
d="M512 160v-160h-125q-140 1 -192 62t-52 210v1162h195v-1094q0 -103 27.5 -141.5t121.5 -38.5h25z" />
    <glyph glyph-name="m" unicode="m" horiz-adv-x="1959" 
d="M143 1024h195v-193q59 99 155.5 156t208.5 57q288 0 355 -249q56 114 160 181.5t225 67.5q194 0 284.5 -109.5t90.5 -301.5v-633h-195v594q0 144 -57 217.5t-201 73.5q-115 0 -201 -85.5t-86 -217.5v-582h-194v594q0 144 -57 217.5t-201 73.5q-115 0 -201 -85.5
t-86 -217.5v-582h-195v1024z" />
    <glyph glyph-name="n" unicode="n" horiz-adv-x="1269" 
d="M143 1024h195v-197q62 101 166 159t227 58q395 0 395 -411v-633h-194v586q0 145 -62.5 222t-220.5 77q-128 0 -219.5 -89t-91.5 -223v-573h-195v1024z" />
    <glyph glyph-name="o" unicode="o" horiz-adv-x="1331" 
d="M456 1007q100 37 210 37t210 -37t177 -103.5t122.5 -168t45.5 -223.5t-45.5 -223.5t-122.5 -168t-177 -103.5t-210 -37t-210 37t-177 103.5t-122.5 168t-45.5 223.5t45.5 223.5t122.5 168t177 103.5zM666 139q148 0 252 104.5t104 268.5t-104 268.5t-252 104.5
q-150 0 -253.5 -104.5t-103.5 -268.5t103.5 -268.5t253.5 -104.5z" />
    <glyph glyph-name="p" unicode="p" horiz-adv-x="1343" 
d="M143 1024h195v-184q63 95 169.5 149.5t229.5 54.5q222 0 359 -148t137 -384t-137 -384t-359 -148q-123 0 -229.5 54.5t-169.5 149.5v-594h-195v1434zM338 422q0 -118 104.5 -200.5t237.5 -82.5q156 0 255 102.5t99 270.5t-99 270.5t-255 102.5q-133 0 -237.5 -82.5
t-104.5 -200.5v-180z" />
    <glyph glyph-name="q" unicode="q" horiz-adv-x="1343" 
d="M1200 1024v-1434h-194v594q-63 -95 -170 -149.5t-230 -54.5q-222 0 -358.5 148t-136.5 384t136.5 384t358.5 148q123 0 230 -54.5t170 -149.5v184h194zM664 139q133 0 237.5 82.5t104.5 200.5v180q0 118 -104.5 200.5t-237.5 82.5q-157 0 -256 -103t-99 -270t99 -270
t256 -103z" />
    <glyph glyph-name="r" unicode="r" horiz-adv-x="839" 
d="M143 1024h195v-186q57 95 149 150.5t193 55.5h100v-159h-162q-126 0 -203 -85t-77 -231v-569h-195v1024z" />
    <glyph glyph-name="s" unicode="s" horiz-adv-x="1181" 
d="M303 324q0 -76 73 -130.5t224 -54.5q270 0 270 137q0 23 -5.5 39.5t-21.5 29.5t-33.5 21.5t-53 17t-68.5 14.5t-90 16q-31 5 -47 8q-99 17 -169 40.5t-126 60.5t-83.5 93t-27.5 132q0 138 120.5 217t309.5 79q101 0 183 -20.5t135.5 -54.5t90 -79t52 -92.5t15.5 -97.5
h-193q0 77 -69.5 131t-215.5 54q-229 0 -229 -125q0 -21 3.5 -37.5t14.5 -30t20.5 -23t32.5 -18.5t38.5 -15t50.5 -13t57 -11t68 -12q64 -11 107.5 -20t94 -23t83 -29.5t65 -38.5t51 -50.5t30 -65.5t11.5 -84q0 -128 -121 -218.5t-332 -90.5q-111 0 -199.5 20.5t-145 54
t-94 79.5t-53 93t-15.5 97h192z" />
    <glyph glyph-name="t" unicode="t" horiz-adv-x="868" 
d="M74 1024h172v246h194v-246h357v-160h-357v-495q0 -111 47.5 -160t157.5 -49h152v-160h-219q-332 3 -332 332v532h-172v160z" />
    <glyph glyph-name="u" unicode="u" horiz-adv-x="1325" 
d="M1300 160v-160h-124q-123 1 -177 47.5t-65 155.5q-62 -104 -166 -163.5t-229 -59.5q-396 0 -396 411v633h195v-586q0 -145 62.5 -222t220.5 -77q128 0 219.5 89t91.5 223v573h194v-684q0 -112 31.5 -146t142.5 -34z" />
    <glyph glyph-name="v" unicode="v" 
d="M72 1024h211l352 -805l350 805h211l-471 -1024h-182z" />
    <glyph glyph-name="w" unicode="w" horiz-adv-x="1609" 
d="M72 1024h202l203 -772l230 772h198l228 -770l202 770h203l-307 -1024h-197l-229 791l-230 -791h-196z" />
    <glyph glyph-name="x" unicode="x" horiz-adv-x="1300" 
d="M72 0l444 535l-403 489h241l297 -379l297 379h240l-404 -489l445 -535h-244l-334 426l-336 -426h-243z" />
    <glyph glyph-name="y" unicode="y" horiz-adv-x="1216" 
d="M1145 1024l-443 -1044q-69 -163 -107 -219q-65 -97 -173 -134q-106 -37 -305 -37v160q106 0 171.5 11t105.5 44t56.5 60t43.5 91q3 7 4.5 11t4.5 10t5 11l8 20l-442 1016h217l325 -803l318 803h211z" />
    <glyph glyph-name="z" unicode="z" horiz-adv-x="1071" 
d="M954 1024v-135l-620 -729h665v-160h-915v137l621 727h-605v160h854z" />
    <glyph glyph-name="braceleft" unicode="{" horiz-adv-x="962" 
d="M162 600q68 8 107 24t65.5 55t35.5 100.5t9 166.5q0 147 22.5 243t72.5 149.5t117.5 74.5t168.5 21h133v-168h-137q-66 0 -104.5 -14.5t-62.5 -58t-32 -112t-8 -186.5q0 -98 -17 -166.5t-51.5 -111.5t-78.5 -66.5t-107 -38.5q64 -15 107.5 -38.5t78 -66t51.5 -110.5
t17 -166q0 -118 8 -186.5t32 -112t62.5 -58t104.5 -14.5h137v-168h-133q-101 0 -168.5 21t-117.5 74.5t-72.5 149.5t-22.5 243q0 105 -9 166.5t-35.5 100.5t-65.5 55t-107 24l-49 6v162z" />
    <glyph glyph-name="bar" unicode="|" horiz-adv-x="485" 
d="M164 1434h158v-1844h-158v1844z" />
    <glyph glyph-name="braceright" unicode="}" horiz-adv-x="962" 
d="M803 600l49 -6v-162l-49 -6q-68 -8 -107 -24t-65.5 -55t-35.5 -100.5t-9 -166.5q0 -147 -22.5 -243t-72.5 -149.5t-117 -74.5t-167 -21h-133v168h135q66 0 104.5 14.5t62.5 58t32 112t8 186.5q0 98 17 166.5t51.5 111.5t78.5 66.5t107 38.5q-64 15 -107.5 38.5t-78 66
t-51.5 110.5t-17 166q0 118 -8 186.5t-32 112t-62.5 58t-104.5 14.5h-135v168h133q100 0 167 -21t117 -74.5t72.5 -149.5t22.5 -243q0 -105 9 -166.5t35.5 -100.5t65.5 -55t107 -24z" />
    <glyph glyph-name="asciitilde" unicode="~" horiz-adv-x="1294" 
d="M156 838q44 110 102 159.5t141 49.5q98 0 258 -66q177 -70 234 -70q46 0 76 27.5t57 91.5l20 47l111 -45l-18 -47q-44 -110 -101 -159.5t-139 -49.5q-92 0 -260 68q-165 67 -234 67q-47 0 -77.5 -27t-57.5 -89l-20 -50l-111 46z" />
    <glyph glyph-name="exclamdown" unicode="&#xa1;" horiz-adv-x="526" 
d="M123 903q0 60 41 100.5t102 40.5q59 0 99.5 -40.5t40.5 -100.5q0 -58 -40.5 -98.5t-99.5 -40.5q-61 0 -102 40t-41 99zM164 -410v506l18 473h162l18 -473v-506h-198z" />
    <glyph glyph-name="cent" unicode="&#xa2;" horiz-adv-x="1282" 
d="M594 1434h164v-394q101 -12 181 -52t127.5 -97t72 -120.5t24.5 -127.5h-198q0 92 -82.5 167t-212.5 75q-155 0 -255 -99.5t-100 -271.5q0 -174 100 -274.5t255 -100.5q131 0 213 75.5t82 168.5h198q0 -65 -24.5 -129t-72 -120.5t-127.5 -97t-181 -52.5v-394h-164v394
q-218 22 -347.5 162t-129.5 368q0 225 130 364.5t347 161.5v394z" />
    <glyph glyph-name="sterling" unicode="&#xa3;" horiz-adv-x="1468" 
d="M358 1051q0 198 132.5 300.5t357.5 102.5q117 0 207.5 -28.5t145 -74.5t89 -110t47.5 -127t13 -135h-203q0 68 -12 120t-42.5 97.5t-89 69.5t-143.5 24q-136 0 -217.5 -63.5t-81.5 -194.5v-303h664v-164h-664v-401h789v-164h-992v565h-266v164h266v322z" />
    <glyph glyph-name="currency" unicode="&#xa4;" horiz-adv-x="1427" 
d="M1286 1229l-278 -281q75 -98 75 -223t-75 -223l280 -281l-71 -69l-281 280q-101 -76 -225 -76t-222 76l-280 -280l-70 69l281 281q-75 98 -75 223t75 223l-281 281l72 69l278 -280q98 76 224 76q123 0 223 -74l281 278zM524 537q81 -78 189 -78q110 0 188 78t78 188
t-78 188t-188 78q-108 0 -189 -78q-76 -78 -76 -188t76 -188z" />
    <glyph glyph-name="yen" unicode="&#xa5;" horiz-adv-x="1570" 
d="M322 524h307l-549 910h229l477 -824l476 824h229l-549 -910h307v-131h-364v-104h364v-131h-364v-158h-199v158h-364v131h364v104h-364v131z" />
    <glyph glyph-name="brokenbar" unicode="&#xa6;" horiz-adv-x="485" 
d="M164 1434h158v-719h-158v719zM164 309h158v-719h-158v719z" />
    <glyph glyph-name="section" unicode="&#xa7;" horiz-adv-x="1552" 
d="M322 -37q0 -63 26 -117.5t78.5 -98.5t141 -69.5t204.5 -25.5q204 0 312 65t108 179q0 30 -5.5 53.5t-20.5 42.5t-30 33t-45 26t-53 19.5t-67 16t-74.5 14t-88 14.5t-95.5 16q-276 49 -405.5 146.5t-129.5 283.5q0 154 113 258q-76 88 -76 234q0 128 77.5 220t206 136.5
t294.5 44.5q133 0 239.5 -26t176 -70t116 -105t66.5 -127t20 -139h-203q0 63 -21.5 115.5t-67.5 95.5t-129 67.5t-197 24.5q-172 0 -273.5 -58.5t-101.5 -174.5q0 -39 10 -68.5t36 -53t57 -39.5t88.5 -32t114 -27.5t148.5 -27.5q83 -14 128.5 -23t115 -27t107.5 -36
t84.5 -48.5t70 -67t40 -88.5t16.5 -116q0 -162 -109 -268q72 -85 72 -223q0 -191 -156 -307.5t-461 -116.5q-137 0 -249.5 27t-188 72t-126.5 107t-74 129t-23 140h203zM442 711q-61 -58 -61 -146q0 -39 10 -68.5t36 -53t57.5 -39.5t89 -32t114 -27.5t148.5 -27.5
q234 -39 329 -77q64 58 64 147q0 27 -6 49t-14.5 39.5t-26.5 32t-34 25t-45.5 20.5t-52.5 16t-63.5 14t-69.5 12.5t-80.5 13t-86.5 14.5q-193 36 -308 88z" />
    <glyph glyph-name="dieresis" unicode="&#xa8;" horiz-adv-x="890" 
d="M113 1286q0 51 35.5 86t89.5 35q51 0 85.5 -35t34.5 -86q0 -54 -34.5 -89.5t-85.5 -35.5q-54 0 -89.5 35.5t-35.5 89.5zM532 1286q0 51 35.5 86t89.5 35q51 0 86 -35t35 -86q0 -54 -35 -89.5t-86 -35.5q-54 0 -89.5 35.5t-35.5 89.5z" />
    <glyph glyph-name="copyright" unicode="&#xa9;" horiz-adv-x="1753" 
d="M139 719q0 148 58.5 284t157.5 235t236 157.5t286 58.5q200 0 370 -99t268.5 -268.5t98.5 -367.5q0 -150 -58 -287t-157 -236t-235.5 -157.5t-286.5 -58.5t-286.5 58.5t-235.5 157.5t-157.5 236t-58.5 287zM203 719q0 -137 53.5 -262.5t144 -216t215 -144t261.5 -53.5
q183 0 338 90.5t245 246t90 339.5q0 136 -53 260.5t-143 214.5t-215 143.5t-262 53.5q-182 0 -337.5 -90.5t-246 -245.5t-90.5 -336zM637 719q0 -128 71.5 -199t176.5 -71q101 0 160 53t59 125h113q0 -46 -21.5 -93t-61 -87t-105 -65.5t-144.5 -25.5q-155 0 -259 99
t-104 264q0 162 104 261t259 99q79 0 144.5 -25t105 -65.5t61 -87t21.5 -92.5h-113q0 71 -59 123.5t-160 52.5q-105 0 -176.5 -70.5t-71.5 -195.5z" />
    <glyph glyph-name="ordfeminine" unicode="&#xaa;" horiz-adv-x="808" 
d="M190 1452h191q118 0 159.5 -53t41.5 -156v-141q0 -55 15 -72.5t69 -17.5v-80h-58q-54 0 -78 18t-30 60q-57 -88 -176 -88q-185 0 -185 161q0 158 193 158h162q0 70 -23 102.5t-102 32.5h-179v76zM494 1165h-158q-57 0 -81 -17t-24 -65q0 -56 27 -75t90 -19q64 0 105 38
t41 93v45z" />
    <glyph glyph-name="guillemotleft" unicode="&#xab;" horiz-adv-x="1019" 
d="M113 512l260 453h166l-263 -453l263 -453h-166zM481 512l260 453h166l-262 -453l262 -453h-166z" />
    <glyph glyph-name="logicalnot" unicode="&#xac;" horiz-adv-x="950" 
d="M139 881h674v-400h-158v242h-516v158z" />
    <glyph glyph-name="registered" unicode="&#xae;" horiz-adv-x="1753" 
d="M198 431q-59 136 -59 286t58.5 286.5t157 235.5t235.5 157t287 58q200 0 369.5 -98.5t268.5 -268t99 -370.5q0 -200 -99 -369.5t-268.5 -268.5t-369.5 -99q-150 0 -287 58.5t-235.5 157.5t-156.5 235zM257 979q-54 -125 -54 -262t53.5 -261.5t143.5 -215t215 -144
t262 -53.5t261.5 53.5t214.5 144t143.5 215t53.5 261.5t-53.5 262t-143.5 215t-214.5 143.5t-261.5 53.5t-262 -53.5t-215 -143.5t-143 -215zM940 1069q26 0 54.5 -4.5t65.5 -19.5t65.5 -38t48.5 -65.5t20 -97.5q0 -52 -16.5 -93t-45 -66t-58.5 -40.5t-64 -23.5l186 -254
h-129l-180 243h-160v-243h-113v702h326zM727 700h205q20 0 42.5 6t47.5 20.5t41 44t16 69.5q0 41 -16 70.5t-41 43.5t-47.5 19.5t-42.5 5.5h-205v-279z" />
    <glyph glyph-name="macron" unicode="&#xaf;" horiz-adv-x="724" 
d="M113 1296h499v-102h-499v102z" />
    <glyph glyph-name="degree" unicode="&#xb0;" horiz-adv-x="759" 
d="M113 1196q0 110 78 188t188 78t188 -78t78 -188q0 -109 -78 -186.5t-188 -77.5t-188 77.5t-78 186.5zM174 1196q0 -83 60 -143t145 -60t145 60t60 143q0 85 -60 145t-145 60t-145 -60t-60 -145z" />
    <glyph glyph-name="plusminus" unicode="&#xb1;" horiz-adv-x="972" 
d="M139 743h281v283h133v-283h283v-133h-283v-282h-133v282h-281v133zM139 133h697v-133h-697v133z" />
    <glyph glyph-name="twosuperior" unicode="&#xb2;" horiz-adv-x="907" 
d="M145 680l314 276q99 89 128 135.5t29 106.5q0 85 -53.5 123.5t-134.5 38.5q-55 0 -94 -18.5t-59.5 -51t-29.5 -69.5t-9 -82h-121q0 45 9 87t31 84.5t56 73.5t89 50.5t124 19.5q64 0 118.5 -14.5t99 -44t70 -81t25.5 -120.5q0 -72 -44.5 -144t-176.5 -184l-221 -186h496
v-98h-646v98z" />
    <glyph glyph-name="threesuperior" unicode="&#xb3;" horiz-adv-x="884" 
d="M356 969v92h101q75 0 111 35t36 110q0 78 -49.5 116t-132.5 38q-98 0 -136 -49.5t-38 -141.5h-121q0 57 16 106t49 90.5t92 65t138 23.5q133 0 216 -60t83 -173q0 -142 -111 -201q160 -48 160 -195q0 -122 -91.5 -188t-232.5 -66q-83 0 -148 24.5t-104 65t-59 89.5
t-20 102h121q0 -80 53 -133t157 -53q89 0 146 41.5t57 123.5q0 138 -178 138h-115z" />
    <glyph glyph-name="acute" unicode="&#xb4;" horiz-adv-x="473" 
d="M113 1141l120 336h148l-139 -336h-129z" />
    <glyph glyph-name="paragraph" unicode="&#xb6;" horiz-adv-x="1574" 
d="M631 1434h782v-1844h-184v1692h-316v-1692h-184v856h-98q-32 0 -69 4t-88.5 17.5t-98.5 35t-95 60t-82.5 88.5t-56.5 124.5t-22 164.5t22 164.5t56.5 124.5t82.5 88.5t95 60t98.5 35t88.5 17.5t69 4zM729 598v684h-98q-19 0 -41.5 -3t-55 -12.5t-62.5 -24.5t-60.5 -41.5
t-53 -61t-37 -86t-14.5 -113.5t14.5 -114t37 -86.5t53 -61t60.5 -41.5t62.5 -24t55 -12t41.5 -3h98z" />
    <glyph glyph-name="periodcentered" unicode="&#xb7;" horiz-adv-x="620" 
d="M164 514q0 60 42.5 101.5t106.5 41.5q60 0 102 -41.5t42 -101.5q0 -64 -41.5 -106.5t-102.5 -42.5q-65 0 -107 42.5t-42 106.5z" />
    <glyph glyph-name="cedilla" unicode="&#xb8;" horiz-adv-x="624" 
d="M113 -449v105q82 -21 131 -21q66 0 105.5 27.5t39.5 83.5q0 15 -2.5 26.5t-5 20.5t-10.5 15.5t-12.5 11t-17 7.5t-19 4.5t-23.5 2t-24.5 0.5h-29h-30.5h-8l41 178h98l-31 -106q43 -2 76 -10.5t61.5 -26t44 -49.5t15.5 -78q0 -107 -75.5 -157t-188.5 -50q-66 0 -135 16z
" />
    <glyph glyph-name="onesuperior" unicode="&#xb9;" horiz-adv-x="659" 
d="M459 1434h86v-861h-119v736l-274 -127l-39 92z" />
    <glyph glyph-name="ordmasculine" unicode="&#xba;" horiz-adv-x="780" 
d="M391 1462q116 0 197.5 -72.5t81.5 -193.5q0 -120 -82 -193t-197 -73q-114 0 -196 73t-82 193q0 121 82 193.5t196 72.5zM265 1063q52 -53 126 -53t126 52.5t52 133.5q0 83 -52 134.5t-126 51.5t-126 -51.5t-52 -134.5q0 -81 52 -133z" />
    <glyph glyph-name="guillemotright" unicode="&#xbb;" horiz-adv-x="1019" 
d="M907 512l-260 -453h-166l262 453l-262 453h166zM539 512l-260 -453h-166l262 453l-262 453h166z" />
    <glyph glyph-name="onequarter" unicode="&#xbc;" horiz-adv-x="1777" 
d="M475 0l574 1434h127l-574 -1434h-127zM453 1434h86v-861h-119v736l-275 -127l-39 92zM1397 860h114v-536h160v-84h-160v-240h-118v240h-488v73zM1026 324h367v411z" />
    <glyph glyph-name="onehalf" unicode="&#xbd;" horiz-adv-x="1814" 
d="M475 0l574 1434h125l-572 -1434h-127zM453 1434h86v-861h-119v736l-275 -127l-39 92zM1061 98l313 277q100 89 129 135.5t29 105.5q0 85 -53.5 123.5t-135.5 38.5q-55 0 -94 -18.5t-59.5 -51t-29.5 -69.5t-9 -82h-121q0 45 9 87t31 84.5t56 73.5t89 50.5t124 19.5
q64 0 118.5 -14.5t99.5 -44t70.5 -81t25.5 -120.5q0 -72 -44 -143.5t-177 -183.5l-222 -187h496v-98h-645v98z" />
    <glyph glyph-name="threequarters" unicode="&#xbe;" horiz-adv-x="1933" 
d="M348 969v92h101q75 0 111 35t36 110q0 78 -49.5 116t-132.5 38q-98 0 -136 -49.5t-38 -141.5h-121q0 57 16 106t49 90.5t92 65t138 23.5q133 0 216 -60t83 -173q0 -142 -111 -201q160 -48 160 -195q0 -122 -91.5 -188t-232.5 -66q-83 0 -148 24.5t-104.5 65t-59.5 89.5
t-20 102h121q0 -80 53.5 -133t157.5 -53q89 0 146 41.5t57 123.5q0 138 -178 138h-115zM629 0l573 1434h127l-573 -1434h-127zM1552 860h115v-536h160v-84h-160v-240h-119v240h-489v73zM1182 324h366v411z" />
    <glyph glyph-name="questiondown" unicode="&#xbf;" horiz-adv-x="1253" 
d="M778 924q0 -59 -41 -99.5t-102 -40.5q-58 0 -98.5 40.5t-40.5 99.5q0 60 40 100.5t99 40.5q61 0 102 -40.5t41 -100.5zM737 592v-64q0 -54 -2.5 -89t-12.5 -66t-20.5 -50t-37.5 -42.5t-52.5 -39.5t-74.5 -46q-7 -4 -28.5 -16.5t-29 -17t-26 -17t-26 -19.5t-22.5 -20
t-21 -23.5t-16 -26.5t-14 -32t-7 -36t-3 -42q0 -58 21 -97.5t60.5 -59.5t83.5 -28t103 -8q87 0 147 23t90.5 66.5t43 92t12.5 111.5h203q0 -77 -12.5 -139.5t-46.5 -123.5t-88.5 -102.5t-144 -66.5t-208.5 -25q-467 0 -467 351q0 78 15 136.5t48.5 102t70 73t96.5 66.5
q58 36 84.5 54.5t49 44.5t28.5 52.5t6 68.5v55h198z" />
    <glyph glyph-name="Agrave" unicode="&#xc0;" horiz-adv-x="1622" 
d="M864 1550h-129l-141 336h147zM713 1434h198l639 -1432h-198l-148 344h-786l-148 -344h-198zM489 510h644l-322 747z" />
    <glyph glyph-name="Aacute" unicode="&#xc1;" horiz-adv-x="1622" 
d="M764 1550l121 336h147l-139 -336h-129zM713 1434h198l639 -1432h-198l-148 344h-786l-148 -344h-198zM489 510h644l-322 747z" />
    <glyph glyph-name="Acircumflex" unicode="&#xc2;" horiz-adv-x="1622" 
d="M487 1563l269 309h110l269 -309h-158l-166 202l-164 -202h-160zM713 1434h198l639 -1432h-198l-148 344h-786l-148 -344h-198zM489 510h644l-322 747z" />
    <glyph glyph-name="Atilde" unicode="&#xc3;" horiz-adv-x="1622" 
d="M813 1722q8 -3 27.5 -11t26 -10.5t21.5 -8t22 -7.5l17.5 -5t18.5 -4t15 -1q31 0 53.5 23t48.5 82l94 -33q-36 -97 -82.5 -137.5t-105.5 -40.5q-58 0 -168 45q-10 4 -35.5 13.5t-34 12.5t-24.5 8.5t-25.5 7t-19.5 1.5q-30 0 -52 -24t-49 -83l-96 33q38 98 84.5 139
t105.5 41q56 0 158 -41zM713 1434h198l639 -1432h-198l-148 344h-786l-148 -344h-198zM489 510h644l-322 747z" />
    <glyph glyph-name="Adieresis" unicode="&#xc4;" horiz-adv-x="1622" 
d="M479 1696q0 51 35.5 86t89.5 35q51 0 86 -35t35 -86q0 -54 -35 -89.5t-86 -35.5q-54 0 -89.5 35.5t-35.5 89.5zM899 1696q0 51 35.5 86t89.5 35q51 0 86 -35t35 -86q0 -54 -35 -89.5t-86 -35.5q-54 0 -89.5 35.5t-35.5 89.5zM713 1434h198l639 -1432h-198l-148 344h-786
l-148 -344h-198zM489 510h644l-322 747z" />
    <glyph glyph-name="Aring" unicode="&#xc5;" horiz-adv-x="1622" 
d="M630 1586q-77 77 -77 183t77 183.5t183 77.5t183 -77.5t77 -183.5t-77 -183t-183 -77t-183 77zM706 1877q-47 -48 -47 -108t47 -107.5t107 -47.5t108 47.5t48 107.5t-48 108t-108 48t-107 -48zM713 1434h198l639 -1432h-198l-148 344h-786l-148 -344h-198zM489 510h644
l-322 747z" />
    <glyph glyph-name="AE" unicode="&#xc6;" horiz-adv-x="2220" 
d="M713 1434h1403v-164h-811v-449h749v-164h-749v-493h811v-164h-1010v346h-684l-150 -346h-198zM492 510h614v760h-287z" />
    <glyph glyph-name="Ccedilla" unicode="&#xc7;" horiz-adv-x="1669" 
d="M363 925q-29 -95 -29 -208t29 -208t79 -161.5t118 -113.5t144.5 -69t159.5 -22q107 0 198 34.5t149.5 90.5t91 124.5t32.5 137.5h203q0 -75 -26.5 -151t-82.5 -148t-134 -127.5t-190 -89.5t-241 -34h-6l-20 -74q43 -2 75.5 -10.5t61.5 -26t44 -49.5t15 -78
q0 -107 -75.5 -157t-188.5 -50q-66 0 -135 16v105q82 -21 131 -21q66 0 105.5 27.5t39.5 83.5q0 15 -2.5 26.5t-5 20.5t-10.5 15.5t-12.5 11t-17 7.5t-19 4.5t-23.5 2t-24.5 0.5h-29h-30.5h-8l35 152q-133 16 -248 74t-201 150t-135 223t-49 284q0 167 58 307t158 233.5
t233.5 145t283.5 51.5q129 0 241 -34t190 -90t134 -128t82.5 -148t26.5 -151h-203q0 69 -32.5 137.5t-91 124.5t-149.5 90.5t-198 34.5q-83 0 -159.5 -22t-144.5 -68.5t-118 -113t-79 -161.5z" />
    <glyph glyph-name="Egrave" unicode="&#xc8;" horiz-adv-x="1277" 
d="M752 1550h-129l-142 336h148zM164 1434h1010v-164h-812v-449h750v-164h-750v-493h812v-164h-1010v1434z" />
    <glyph glyph-name="Eacute" unicode="&#xc9;" horiz-adv-x="1277" 
d="M623 1550l120 336h148l-139 -336h-129zM164 1434h1010v-164h-812v-449h750v-164h-750v-493h812v-164h-1010v1434z" />
    <glyph glyph-name="Ecircumflex" unicode="&#xca;" horiz-adv-x="1277" 
d="M350 1563l268 309h111l268 -309h-157l-166 202l-164 -202h-160zM164 1434h1010v-164h-812v-449h750v-164h-750v-493h812v-164h-1010v1434z" />
    <glyph glyph-name="Edieresis" unicode="&#xcb;" horiz-adv-x="1277" 
d="M340 1696q0 51 35.5 86t89.5 35q51 0 86 -35t35 -86q0 -54 -35 -89.5t-86 -35.5q-54 0 -89.5 35.5t-35.5 89.5zM760 1696q0 51 35.5 86t89.5 35q51 0 86 -35t35 -86q0 -54 -35 -89.5t-86 -35.5q-54 0 -89.5 35.5t-35.5 89.5zM164 1434h1010v-164h-812v-449h750v-164h-750
v-493h812v-164h-1010v1434z" />
    <glyph glyph-name="Igrave" unicode="&#xcc;" horiz-adv-x="526" 
d="M313 1550h-129l-141 336h147zM164 1434h198v-1434h-198v1434z" />
    <glyph glyph-name="Iacute" unicode="&#xcd;" horiz-adv-x="526" 
d="M215 1550l121 336h147l-139 -336h-129zM164 1434h198v-1434h-198v1434z" />
    <glyph glyph-name="Icircumflex" unicode="&#xce;" horiz-adv-x="526" 
d="M-59 1563l268 309h110l269 -309h-158l-166 202l-164 -202h-159zM164 1434h198v-1434h-198v1434z" />
    <glyph glyph-name="Idieresis" unicode="&#xcf;" horiz-adv-x="526" 
d="M-70 1696q0 51 35.5 86t89.5 35q51 0 86 -35t35 -86q0 -54 -35 -89.5t-86 -35.5q-54 0 -89.5 35.5t-35.5 89.5zM350 1696q0 51 35.5 86t89.5 35q51 0 86 -35t35 -86q0 -54 -35 -89.5t-86 -35.5q-54 0 -89.5 35.5t-35.5 89.5zM164 1434h198v-1434h-198v1434z" />
    <glyph glyph-name="Eth" unicode="&#xd0;" horiz-adv-x="1626" 
d="M-49 784h213v650h575q153 0 289 -48t241 -136.5t166.5 -226t61.5 -306.5t-61.5 -306.5t-166.5 -226t-241 -136.5t-289 -48h-575v651h-213v133zM362 164h377q114 0 214 36t176.5 104t120.5 174.5t44 238.5q0 133 -44 239.5t-120.5 174.5t-176.5 103.5t-214 35.5h-377v-486
h375v-133h-375v-487z" />
    <glyph glyph-name="Ntilde" unicode="&#xd1;" horiz-adv-x="1708" 
d="M856 1722q8 -3 27.5 -11t26 -10.5t21.5 -8t22 -7.5l17.5 -5t18.5 -4t15 -1q31 0 53.5 23t48.5 82l94 -33q-36 -97 -82.5 -137.5t-105.5 -40.5q-58 0 -168 45q-10 4 -35.5 13.5t-34 12.5t-24.5 8.5t-25.5 7t-19.5 1.5q-30 0 -52 -24t-49 -83l-96 33q38 98 84.5 139
t105.5 41q56 0 158 -41zM164 1434h198l984 -1153v1153h198v-1434h-198l-984 1141v-1141h-198v1434z" />
    <glyph glyph-name="Ograve" unicode="&#xd2;" horiz-adv-x="1775" 
d="M944 1550h-129l-141 336h147zM172 463q-41 119 -41 254t40.5 254t112.5 206t167 150.5t206.5 95t229.5 31.5q149 0 285.5 -51t241.5 -143t168 -233.5t63 -309.5t-63 -309.5t-168 -233.5t-241.5 -143t-285.5 -51q-118 0 -229.5 31.5t-206.5 95t-167 150.5t-112 206z
M887 1290q-111 0 -211 -40t-176 -112.5t-121 -181.5t-45 -239t45 -239.5t121 -182t176 -112.5t211 -40q110 0 210.5 40t177 112.5t122 182t45.5 239.5t-45.5 239t-122 181.5t-177 112.5t-210.5 40z" />
    <glyph glyph-name="Oacute" unicode="&#xd3;" horiz-adv-x="1775" 
d="M834 1550l120 336h148l-139 -336h-129zM172 463q-41 119 -41 254t40.5 254t112.5 206t167 150.5t206.5 95t229.5 31.5q149 0 285.5 -51t241.5 -143t168 -233.5t63 -309.5t-63 -309.5t-168 -233.5t-241.5 -143t-285.5 -51q-118 0 -229.5 31.5t-206.5 95t-167 150.5
t-112 206zM887 1290q-111 0 -211 -40t-176 -112.5t-121 -181.5t-45 -239t45 -239.5t121 -182t176 -112.5t211 -40q110 0 210.5 40t177 112.5t122 182t45.5 239.5t-45.5 239t-122 181.5t-177 112.5t-210.5 40z" />
    <glyph glyph-name="Ocircumflex" unicode="&#xd4;" horiz-adv-x="1775" 
d="M565 1563l269 309h110l268 -309h-157l-166 202l-164 -202h-160zM172 463q-41 119 -41 254t40.5 254t112.5 206t167 150.5t206.5 95t229.5 31.5q149 0 285.5 -51t241.5 -143t168 -233.5t63 -309.5t-63 -309.5t-168 -233.5t-241.5 -143t-285.5 -51q-118 0 -229.5 31.5
t-206.5 95t-167 150.5t-112 206zM887 1290q-111 0 -211 -40t-176 -112.5t-121 -181.5t-45 -239t45 -239.5t121 -182t176 -112.5t211 -40q110 0 210.5 40t177 112.5t122 182t45.5 239.5t-45.5 239t-122 181.5t-177 112.5t-210.5 40z" />
    <glyph glyph-name="Otilde" unicode="&#xd5;" horiz-adv-x="1775" 
d="M889 1722q9 -4 27 -11t26 -10t22 -8.5t21.5 -8t17.5 -5t18 -3.5t15 -1q31 0 54 23.5t49 81.5l94 -33q-67 -178 -189 -178q-57 0 -167 45q-10 4 -30.5 12t-28.5 10.5t-23 8t-22.5 7.5t-17.5 3.5t-18 1.5q-30 0 -51.5 -23.5t-48.5 -83.5l-96 33q38 98 84.5 139t105.5 41
q56 0 158 -41zM172 463q-41 119 -41 254t40.5 254t112.5 206t167 150.5t206.5 95t229.5 31.5q149 0 285.5 -51t241.5 -143t168 -233.5t63 -309.5t-63 -309.5t-168 -233.5t-241.5 -143t-285.5 -51q-118 0 -229.5 31.5t-206.5 95t-167 150.5t-112 206zM887 1290
q-111 0 -211 -40t-176 -112.5t-121 -181.5t-45 -239t45 -239.5t121 -182t176 -112.5t211 -40q110 0 210.5 40t177 112.5t122 182t45.5 239.5t-45.5 239t-122 181.5t-177 112.5t-210.5 40z" />
    <glyph glyph-name="Odieresis" unicode="&#xd6;" horiz-adv-x="1775" 
d="M555 1696q0 51 35.5 86t89.5 35q51 0 86 -35t35 -86q0 -54 -35 -89.5t-86 -35.5q-54 0 -89.5 35.5t-35.5 89.5zM975 1696q0 51 35.5 86t89.5 35q51 0 86 -35t35 -86q0 -54 -35 -89.5t-86 -35.5q-54 0 -89.5 35.5t-35.5 89.5zM172 463q-41 119 -41 254t40.5 254t112.5 206
t167 150.5t206.5 95t229.5 31.5q149 0 285.5 -51t241.5 -143t168 -233.5t63 -309.5t-63 -309.5t-168 -233.5t-241.5 -143t-285.5 -51q-118 0 -229.5 31.5t-206.5 95t-167 150.5t-112 206zM887 1290q-111 0 -211 -40t-176 -112.5t-121 -181.5t-45 -239t45 -239.5t121 -182
t176 -112.5t211 -40q110 0 210.5 40t177 112.5t122 182t45.5 239.5t-45.5 239t-122 181.5t-177 112.5t-210.5 40z" />
    <glyph glyph-name="multiply" unicode="&#xd7;" horiz-adv-x="864" 
d="M139 289l199 198l-199 201l94 92l199 -198l199 198l94 -92l-199 -201l199 -198l-94 -94l-199 198l-199 -198z" />
    <glyph glyph-name="Oslash" unicode="&#xd8;" horiz-adv-x="1775" 
d="M518 -205l76 238q-206 79 -334.5 258t-128.5 426q0 135 40.5 254t112.5 206t167 150.5t206.5 95t229.5 31.5q75 0 149 -12l62 196h157l-75 -237q208 -79 336.5 -257.5t128.5 -426.5q0 -168 -63 -309.5t-168 -233.5t-241.5 -143t-285.5 -51q-64 0 -150 14l-61 -199h-158z
M887 1290q-110 0 -210 -40t-176.5 -112.5t-121.5 -181.5t-45 -239q0 -182 85 -317.5t226 -202.5l340 1085q-44 8 -98 8zM788 152q50 -9 99 -9q88 0 170.5 25t152 74.5t121.5 118t81.5 160.5t29.5 196q0 183 -86 318.5t-228 201.5z" />
    <glyph glyph-name="Ugrave" unicode="&#xd9;" horiz-adv-x="1564" 
d="M852 1550h-129l-141 336h147zM1202 1434h199v-840q0 -614 -625 -614q-304 0 -458 150.5t-154 463.5v840h198v-840q0 -234 101.5 -342.5t312.5 -108.5q213 0 319.5 109t106.5 342v840z" />
    <glyph glyph-name="Uacute" unicode="&#xda;" horiz-adv-x="1564" 
d="M727 1550l121 336h147l-139 -336h-129zM1202 1434h199v-840q0 -614 -625 -614q-304 0 -458 150.5t-154 463.5v840h198v-840q0 -234 101.5 -342.5t312.5 -108.5q213 0 319.5 109t106.5 342v840z" />
    <glyph glyph-name="Ucircumflex" unicode="&#xdb;" horiz-adv-x="1564" 
d="M459 1563l268 309h111l268 -309h-158l-166 202l-164 -202h-159zM1202 1434h199v-840q0 -614 -625 -614q-304 0 -458 150.5t-154 463.5v840h198v-840q0 -234 101.5 -342.5t312.5 -108.5q213 0 319.5 109t106.5 342v840z" />
    <glyph glyph-name="Udieresis" unicode="&#xdc;" horiz-adv-x="1564" 
d="M451 1696q0 51 35 86t89 35q51 0 86 -35t35 -86q0 -54 -35 -89.5t-86 -35.5q-54 0 -89 35.5t-35 89.5zM870 1696q0 51 35.5 86t89.5 35q51 0 86 -35t35 -86q0 -54 -35 -89.5t-86 -35.5q-54 0 -89.5 35.5t-35.5 89.5zM1202 1434h199v-840q0 -614 -625 -614
q-304 0 -458 150.5t-154 463.5v840h198v-840q0 -234 101.5 -342.5t312.5 -108.5q213 0 319.5 109t106.5 342v840z" />
    <glyph glyph-name="Yacute" unicode="&#xdd;" horiz-adv-x="1570" 
d="M743 1550l121 336h148l-140 -336h-129zM686 430l-606 1004h229l477 -824l476 824h229l-606 -1004v-430h-199v430z" />
    <glyph glyph-name="Thorn" unicode="&#xde;" horiz-adv-x="1441" 
d="M801 1196q32 0 69 -4t88.5 -17.5t98.5 -34t95 -58t82.5 -86t56.5 -120.5t22 -159t-22 -159t-56.5 -120.5t-82.5 -86t-95 -58t-98.5 -34t-88.5 -17.5t-69 -4h-439v-238h-198v1434h198v-238h439zM362 401h422q20 0 44 3t56.5 11.5t62.5 22.5t60.5 39t52.5 56.5t36 79
t14 104.5q0 78 -26.5 137.5t-64 92t-86 53t-84 26.5t-65.5 6h-422v-631z" />
    <glyph glyph-name="germandbls" unicode="&#xdf;" horiz-adv-x="1316" 
d="M119 979q0 103 28.5 187t86.5 149.5t156 102t228 36.5q227 0 366.5 -101.5t139.5 -291.5q0 -248 -192 -334q129 -35 201.5 -118t72.5 -216q0 -200 -158 -305.5t-434 -105.5v153q186 0 292 67.5t106 209.5q0 125 -81.5 184t-221.5 59h-93v129h68q254 0 254 252
q0 135 -87.5 199.5t-229.5 64.5q-308 0 -308 -321v-979h-194v979z" />
    <glyph glyph-name="agrave" unicode="&#xe0;" horiz-adv-x="1208" 
d="M715 1141h-129l-142 336h148zM227 1024h379q101 0 175.5 -20t120.5 -54.5t73.5 -88.5t38 -113t10.5 -136v-272q0 -109 33.5 -144.5t140.5 -35.5v-160h-133q-116 1 -162.5 43t-54.5 141q-45 -93 -136 -148.5t-223 -55.5q-370 0 -370 321q0 153 93.5 239.5t291.5 86.5h325
q-1 63 -9 101.5t-33 72t-75.5 48.5t-131.5 15h-353v160zM829 467h-319q-101 0 -147 -34.5t-46 -127.5q0 -97 53.5 -131.5t168.5 -34.5q128 0 209 66.5t81 173.5v88z" />
    <glyph glyph-name="aacute" unicode="&#xe1;" horiz-adv-x="1208" 
d="M504 1141l121 336h147l-139 -336h-129zM227 1024h379q101 0 175.5 -20t120.5 -54.5t73.5 -88.5t38 -113t10.5 -136v-272q0 -109 33.5 -144.5t140.5 -35.5v-160h-133q-116 1 -162.5 43t-54.5 141q-45 -93 -136 -148.5t-223 -55.5q-370 0 -370 321q0 153 93.5 239.5
t291.5 86.5h325q-1 63 -9 101.5t-33 72t-75.5 48.5t-131.5 15h-353v160zM829 467h-319q-101 0 -147 -34.5t-46 -127.5q0 -97 53.5 -131.5t168.5 -34.5q128 0 209 66.5t81 173.5v88z" />
    <glyph glyph-name="acircumflex" unicode="&#xe2;" horiz-adv-x="1208" 
d="M281 1153l268 309h110l269 -309h-158l-166 203l-164 -203h-159zM227 1024h379q101 0 175.5 -20t120.5 -54.5t73.5 -88.5t38 -113t10.5 -136v-272q0 -109 33.5 -144.5t140.5 -35.5v-160h-133q-116 1 -162.5 43t-54.5 141q-45 -93 -136 -148.5t-223 -55.5q-370 0 -370 321
q0 153 93.5 239.5t291.5 86.5h325q-1 63 -9 101.5t-33 72t-75.5 48.5t-131.5 15h-353v160zM829 467h-319q-101 0 -147 -34.5t-46 -127.5q0 -97 53.5 -131.5t168.5 -34.5q128 0 209 66.5t81 173.5v88z" />
    <glyph glyph-name="atilde" unicode="&#xe3;" horiz-adv-x="1208" 
d="M606 1313q8 -3 27.5 -11t26 -10.5t21.5 -8t22 -7.5l17.5 -5t18.5 -4t15 -1q31 0 53.5 23t48.5 81l94 -33q-36 -97 -82.5 -137.5t-105.5 -40.5q-58 0 -168 45q-10 4 -35.5 13.5t-34 12.5t-24.5 8.5t-25.5 7t-19.5 1.5q-30 0 -52 -23.5t-49 -82.5l-96 33q38 98 85 139
t106 41q55 0 157 -41zM227 1024h379q101 0 175.5 -20t120.5 -54.5t73.5 -88.5t38 -113t10.5 -136v-272q0 -109 33.5 -144.5t140.5 -35.5v-160h-133q-116 1 -162.5 43t-54.5 141q-45 -93 -136 -148.5t-223 -55.5q-370 0 -370 321q0 153 93.5 239.5t291.5 86.5h325
q-1 63 -9 101.5t-33 72t-75.5 48.5t-131.5 15h-353v160zM829 467h-319q-101 0 -147 -34.5t-46 -127.5q0 -97 53.5 -131.5t168.5 -34.5q128 0 209 66.5t81 173.5v88z" />
    <glyph glyph-name="adieresis" unicode="&#xe4;" horiz-adv-x="1208" 
d="M270 1286q0 51 35.5 86t89.5 35q51 0 86 -35t35 -86q0 -54 -35 -89.5t-86 -35.5q-54 0 -89.5 35.5t-35.5 89.5zM690 1286q0 51 35.5 86t89.5 35q51 0 86 -35t35 -86q0 -54 -35 -89.5t-86 -35.5q-54 0 -89.5 35.5t-35.5 89.5zM227 1024h379q101 0 175.5 -20t120.5 -54.5
t73.5 -88.5t38 -113t10.5 -136v-272q0 -109 33.5 -144.5t140.5 -35.5v-160h-133q-116 1 -162.5 43t-54.5 141q-45 -93 -136 -148.5t-223 -55.5q-370 0 -370 321q0 153 93.5 239.5t291.5 86.5h325q-1 63 -9 101.5t-33 72t-75.5 48.5t-131.5 15h-353v160zM829 467h-319
q-101 0 -147 -34.5t-46 -127.5q0 -97 53.5 -131.5t168.5 -34.5q128 0 209 66.5t81 173.5v88z" />
    <glyph glyph-name="aring" unicode="&#xe5;" horiz-adv-x="1208" 
d="M421 1177q-77 77 -77 183t77 183t183 77t183 -77t77 -183t-77 -183t-183 -77t-183 77zM498 1468q-47 -48 -47 -108t46.5 -108t106.5 -48t108 48t48 108t-48 108t-108 48t-106 -48zM227 1024h379q101 0 175.5 -20t120.5 -54.5t73.5 -88.5t38 -113t10.5 -136v-272
q0 -109 33.5 -144.5t140.5 -35.5v-160h-133q-116 1 -162.5 43t-54.5 141q-45 -93 -136 -148.5t-223 -55.5q-370 0 -370 321q0 153 93.5 239.5t291.5 86.5h325q-1 63 -9 101.5t-33 72t-75.5 48.5t-131.5 15h-353v160zM829 467h-319q-101 0 -147 -34.5t-46 -127.5
q0 -97 53.5 -131.5t168.5 -34.5q128 0 209 66.5t81 173.5v88z" />
    <glyph glyph-name="ae" unicode="&#xe6;" horiz-adv-x="1976" 
d="M219 1024h379q266 0 356 -139q150 162 389 162q242 0 382.5 -148t142.5 -381v-69h-844q18 -156 109.5 -233t218.5 -77q136 0 225.5 56t89.5 143h188q-5 -62 -40.5 -124t-97.5 -115t-160 -86t-214 -33q-146 0 -264.5 64t-185.5 181q-48 -109 -155.5 -177t-256.5 -68
q-370 0 -370 321q0 153 93.5 239.5t291.5 86.5h325q-1 63 -9 101.5t-33.5 72t-76 48.5t-131.5 15h-352v160zM1665 604q-19 154 -100.5 218.5t-212.5 64.5q-121 0 -211 -71.5t-113 -211.5h637zM821 467h-319q-101 0 -147 -34.5t-46 -127.5q0 -97 53 -131.5t168 -34.5
q128 0 209.5 66.5t81.5 173.5v88z" />
    <glyph glyph-name="ccedilla" unicode="&#xe7;" 
d="M309 514q0 -174 100 -274.5t255 -100.5q131 0 212.5 75.5t81.5 168.5h199q0 -55 -17.5 -110t-55 -107t-91.5 -92.5t-133.5 -66t-173.5 -27.5l-24 -86q43 -2 75.5 -10.5t61.5 -26t44 -49.5t15 -78q0 -107 -75.5 -157t-188.5 -50q-66 0 -135 16v105q82 -21 131 -21
q66 0 105.5 27.5t39.5 83.5q0 15 -2.5 26.5t-5 20.5t-10.5 15.5t-12.5 11t-17 7.5t-19 4.5t-23.5 2t-24.5 0.5h-29h-30.5h-8l37 162q-218 22 -348.5 162t-130.5 368q0 245 153.5 387.5t401.5 142.5q98 0 181 -24.5t139 -64.5t95.5 -92.5t57.5 -108t18 -111.5h-199
q0 92 -82 167t-212 75q-155 0 -255 -99.5t-100 -271.5z" />
    <glyph glyph-name="egrave" unicode="&#xe8;" 
d="M690 1141h-129l-141 336h147zM313 449q18 -156 109.5 -233t218.5 -77q136 0 225.5 56t89.5 143h189q-5 -62 -40.5 -124t-97.5 -115t-160 -86t-214 -33q-146 0 -263.5 62.5t-188 185t-70.5 284.5q0 123 41 225t111.5 169t166 104t203.5 37q242 0 382 -148t142 -381v-69
h-844zM954 604q-19 154 -100.5 218.5t-212.5 64.5q-121 0 -211 -71.5t-113 -211.5h637z" />
    <glyph glyph-name="eacute" unicode="&#xe9;" 
d="M592 1141l121 336h147l-139 -336h-129zM313 449q18 -156 109.5 -233t218.5 -77q136 0 225.5 56t89.5 143h189q-5 -62 -40.5 -124t-97.5 -115t-160 -86t-214 -33q-146 0 -263.5 62.5t-188 185t-70.5 284.5q0 123 41 225t111.5 169t166 104t203.5 37q242 0 382 -148
t142 -381v-69h-844zM954 604q-19 154 -100.5 218.5t-212.5 64.5q-121 0 -211 -71.5t-113 -211.5h637z" />
    <glyph glyph-name="ecircumflex" unicode="&#xea;" 
d="M311 1153l269 309h110l268 -309h-157l-166 203l-164 -203h-160zM313 449q18 -156 109.5 -233t218.5 -77q136 0 225.5 56t89.5 143h189q-5 -62 -40.5 -124t-97.5 -115t-160 -86t-214 -33q-146 0 -263.5 62.5t-188 185t-70.5 284.5q0 123 41 225t111.5 169t166 104
t203.5 37q242 0 382 -148t142 -381v-69h-844zM954 604q-19 154 -100.5 218.5t-212.5 64.5q-121 0 -211 -71.5t-113 -211.5h637z" />
    <glyph glyph-name="edieresis" unicode="&#xeb;" 
d="M301 1286q0 51 35.5 86t89.5 35q51 0 86 -35t35 -86q0 -54 -35 -89.5t-86 -35.5q-54 0 -89.5 35.5t-35.5 89.5zM721 1286q0 51 35.5 86t89.5 35q51 0 86 -35t35 -86q0 -54 -35 -89.5t-86 -35.5q-54 0 -89.5 35.5t-35.5 89.5zM313 449q18 -156 109.5 -233t218.5 -77
q136 0 225.5 56t89.5 143h189q-5 -62 -40.5 -124t-97.5 -115t-160 -86t-214 -33q-146 0 -263.5 62.5t-188 185t-70.5 284.5q0 123 41 225t111.5 169t166 104t203.5 37q242 0 382 -148t142 -381v-69h-844zM954 604q-19 154 -100.5 218.5t-212.5 64.5q-121 0 -211 -71.5
t-113 -211.5h637z" />
    <glyph glyph-name="igrave" unicode="&#xec;" horiz-adv-x="456" 
d="M279 1141h-129l-142 336h148zM131 1024h195v-1024h-195v1024z" />
    <glyph glyph-name="iacute" unicode="&#xed;" horiz-adv-x="456" 
d="M180 1141l121 336h148l-140 -336h-129zM131 1024h195v-1024h-195v1024z" />
    <glyph glyph-name="icircumflex" unicode="&#xee;" horiz-adv-x="456" 
d="M-96 1153l268 309h111l268 -309h-158l-166 203l-164 -203h-159zM131 1024h195v-1024h-195v1024z" />
    <glyph glyph-name="idieresis" unicode="&#xef;" horiz-adv-x="456" 
d="M-104 1286q0 51 35 86t89 35q51 0 86 -35t35 -86q0 -54 -35 -89.5t-86 -35.5q-54 0 -89 35.5t-35 89.5zM315 1286q0 51 35.5 86t89.5 35q51 0 86 -35t35 -86q0 -54 -35 -89.5t-86 -35.5q-54 0 -89.5 35.5t-35.5 89.5zM131 1024h195v-1024h-195v1024z" />
    <glyph glyph-name="eth" unicode="&#xf0;" horiz-adv-x="1312" 
d="M131 467q0 147 75 259.5t196 170t266 57.5l18 -2h10l-110 144h-340v133h235l-162 207h238l160 -207h381v-133h-277l236 -305q125 -131 125 -324q0 -146 -73 -258.5t-191.5 -170.5t-260.5 -58q-140 0 -258.5 58t-193 171t-74.5 258zM657 131q131 0 228.5 92t97.5 244
q0 151 -98 243.5t-228 92.5q-132 0 -229.5 -92.5t-97.5 -243.5q0 -102 47.5 -180.5t121 -117t158.5 -38.5z" />
    <glyph glyph-name="ntilde" unicode="&#xf1;" horiz-adv-x="1269" 
d="M637 1313q9 -4 27 -11t26 -10t22 -8.5t21.5 -8t17.5 -5t18 -3.5t15 -1q31 0 54 23t49 81l94 -33q-36 -97 -82.5 -137.5t-105.5 -40.5q-58 0 -168 45q-10 4 -30.5 12t-28.5 10.5t-23 8t-22.5 7.5t-17.5 3.5t-18 1.5q-30 0 -51.5 -23t-48.5 -83l-96 33q38 98 84.5 139
t105.5 41q56 0 158 -41zM143 1024h195v-197q62 101 166 159t227 58q395 0 395 -411v-633h-194v586q0 145 -62.5 222t-220.5 77q-128 0 -219.5 -89t-91.5 -223v-573h-195v1024z" />
    <glyph glyph-name="ograve" unicode="&#xf2;" horiz-adv-x="1331" 
d="M723 1141h-129l-141 336h147zM456 1007q100 37 210 37t210 -37t177 -103.5t122.5 -168t45.5 -223.5t-45.5 -223.5t-122.5 -168t-177 -103.5t-210 -37t-210 37t-177 103.5t-122.5 168t-45.5 223.5t45.5 223.5t122.5 168t177 103.5zM666 139q148 0 252 104.5t104 268.5
t-104 268.5t-252 104.5q-150 0 -253.5 -104.5t-103.5 -268.5t103.5 -268.5t253.5 -104.5z" />
    <glyph glyph-name="oacute" unicode="&#xf3;" horiz-adv-x="1331" 
d="M610 1141l121 336h148l-140 -336h-129zM456 1007q100 37 210 37t210 -37t177 -103.5t122.5 -168t45.5 -223.5t-45.5 -223.5t-122.5 -168t-177 -103.5t-210 -37t-210 37t-177 103.5t-122.5 168t-45.5 223.5t45.5 223.5t122.5 168t177 103.5zM666 139q148 0 252 104.5
t104 268.5t-104 268.5t-252 104.5q-150 0 -253.5 -104.5t-103.5 -268.5t103.5 -268.5t253.5 -104.5z" />
    <glyph glyph-name="ocircumflex" unicode="&#xf4;" horiz-adv-x="1331" 
d="M342 1153l268 309h111l268 -309h-158l-165 203l-164 -203h-160zM456 1007q100 37 210 37t210 -37t177 -103.5t122.5 -168t45.5 -223.5t-45.5 -223.5t-122.5 -168t-177 -103.5t-210 -37t-210 37t-177 103.5t-122.5 168t-45.5 223.5t45.5 223.5t122.5 168t177 103.5z
M666 139q148 0 252 104.5t104 268.5t-104 268.5t-252 104.5q-150 0 -253.5 -104.5t-103.5 -268.5t103.5 -268.5t253.5 -104.5z" />
    <glyph glyph-name="otilde" unicode="&#xf5;" horiz-adv-x="1331" 
d="M668 1313q9 -4 27 -11t26 -10t22 -8.5t21.5 -8t17.5 -5t18 -3.5t15 -1q31 0 54 23t49 81l94 -33q-67 -178 -189 -178q-58 0 -168 45q-10 4 -35.5 13.5t-34 12.5t-24.5 8.5t-25.5 7t-19.5 1.5q-30 0 -51.5 -23t-48.5 -83l-97 33q38 98 85 139t106 41q56 0 158 -41z
M456 1007q100 37 210 37t210 -37t177 -103.5t122.5 -168t45.5 -223.5t-45.5 -223.5t-122.5 -168t-177 -103.5t-210 -37t-210 37t-177 103.5t-122.5 168t-45.5 223.5t45.5 223.5t122.5 168t177 103.5zM666 139q148 0 252 104.5t104 268.5t-104 268.5t-252 104.5
q-150 0 -253.5 -104.5t-103.5 -268.5t103.5 -268.5t253.5 -104.5z" />
    <glyph glyph-name="odieresis" unicode="&#xf6;" horiz-adv-x="1331" 
d="M332 1286q0 51 35.5 86t89.5 35q51 0 86 -35t35 -86q0 -54 -35 -89.5t-86 -35.5q-54 0 -89.5 35.5t-35.5 89.5zM752 1286q0 51 35.5 86t89.5 35q51 0 85.5 -35t34.5 -86q0 -54 -34.5 -89.5t-85.5 -35.5q-54 0 -89.5 35.5t-35.5 89.5zM456 1007q100 37 210 37t210 -37
t177 -103.5t122.5 -168t45.5 -223.5t-45.5 -223.5t-122.5 -168t-177 -103.5t-210 -37t-210 37t-177 103.5t-122.5 168t-45.5 223.5t45.5 223.5t122.5 168t177 103.5zM666 139q148 0 252 104.5t104 268.5t-104 268.5t-252 104.5q-150 0 -253.5 -104.5t-103.5 -268.5
t103.5 -268.5t253.5 -104.5z" />
    <glyph glyph-name="divide" unicode="&#xf7;" horiz-adv-x="890" 
d="M295 993q0 61 42.5 102.5t106.5 41.5q60 0 102 -42t42 -102q0 -64 -41.5 -106.5t-102.5 -42.5q-64 0 -106.5 42t-42.5 107zM139 625h615v-133h-615v133zM295 129q0 60 42.5 101.5t106.5 41.5q60 0 102 -41.5t42 -101.5q0 -64 -41.5 -106.5t-102.5 -42.5q-64 0 -106.5 42
t-42.5 107z" />
    <glyph glyph-name="oslash" unicode="&#xf8;" horiz-adv-x="1345" 
d="M674 1044q42 0 86 -6l61 191h158l-74 -230q146 -60 235 -186t89 -301q0 -122 -45.5 -223.5t-122.5 -168t-177 -103.5t-210 -37q-42 0 -86 6l-60 -191h-157l71 230q-146 60 -234.5 186t-88.5 301q0 122 45.5 223.5t122.5 168t177 103.5t210 37zM674 139q149 0 252.5 104.5
t103.5 268.5t-103.5 268.5t-252.5 104.5q-148 0 -252.5 -104.5t-104.5 -268.5t104.5 -268.5t252.5 -104.5z" />
    <glyph glyph-name="ugrave" unicode="&#xf9;" horiz-adv-x="1325" 
d="M713 1141h-129l-142 336h148zM1300 160v-160h-124q-123 1 -177 47.5t-65 155.5q-62 -104 -166 -163.5t-229 -59.5q-396 0 -396 411v633h195v-586q0 -145 62.5 -222t220.5 -77q128 0 219.5 89t91.5 223v573h194v-684q0 -112 31.5 -146t142.5 -34z" />
    <glyph glyph-name="uacute" unicode="&#xfa;" horiz-adv-x="1325" 
d="M578 1141l120 336h148l-139 -336h-129zM1300 160v-160h-124q-123 1 -177 47.5t-65 155.5q-62 -104 -166 -163.5t-229 -59.5q-396 0 -396 411v633h195v-586q0 -145 62.5 -222t220.5 -77q128 0 219.5 89t91.5 223v573h194v-684q0 -112 31.5 -146t142.5 -34z" />
    <glyph glyph-name="ucircumflex" unicode="&#xfb;" horiz-adv-x="1325" 
d="M324 1153l268 309h110l269 -309h-158l-166 203l-164 -203h-159zM1300 160v-160h-124q-123 1 -177 47.5t-65 155.5q-62 -104 -166 -163.5t-229 -59.5q-396 0 -396 411v633h195v-586q0 -145 62.5 -222t220.5 -77q128 0 219.5 89t91.5 223v573h194v-684q0 -112 31.5 -146
t142.5 -34z" />
    <glyph glyph-name="udieresis" unicode="&#xfc;" horiz-adv-x="1325" 
d="M313 1286q0 51 35.5 86t89.5 35q51 0 86 -35t35 -86q0 -54 -35 -89.5t-86 -35.5q-54 0 -89.5 35.5t-35.5 89.5zM733 1286q0 51 35.5 86t89.5 35q51 0 86 -35t35 -86q0 -54 -35 -89.5t-86 -35.5q-54 0 -89.5 35.5t-35.5 89.5zM1300 160v-160h-124q-123 1 -177 47.5
t-65 155.5q-62 -104 -166 -163.5t-229 -59.5q-396 0 -396 411v633h195v-586q0 -145 62.5 -222t220.5 -77q128 0 219.5 89t91.5 223v573h194v-684q0 -112 31.5 -146t142.5 -34z" />
    <glyph glyph-name="yacute" unicode="&#xfd;" horiz-adv-x="1216" 
d="M567 1141l121 336h148l-140 -336h-129zM1145 1024l-443 -1044q-69 -163 -107 -219q-65 -97 -173 -134q-106 -37 -305 -37v160q106 0 171.5 11t105.5 44t56.5 60t43.5 91q3 7 4.5 11t4.5 10t5 11l8 20l-442 1016h217l325 -803l318 803h211z" />
    <glyph glyph-name="thorn" unicode="&#xfe;" horiz-adv-x="1343" 
d="M1096 896q137 -148 137 -384t-137 -384t-359 -148q-123 0 -229.5 54.5t-169.5 149.5v-594h-195v1844h195v-594q63 95 169.5 149.5t229.5 54.5q222 0 359 -148zM338 422q0 -118 104.5 -200.5t237.5 -82.5q156 0 255 102.5t99 270.5t-99 270.5t-255 102.5
q-133 0 -237.5 -82.5t-104.5 -200.5v-180z" />
    <glyph glyph-name="ydieresis" unicode="&#xff;" horiz-adv-x="1216" 
d="M276 1286q0 51 35.5 86t89.5 35q51 0 86 -35t35 -86q0 -54 -35 -89.5t-86 -35.5q-54 0 -89.5 35.5t-35.5 89.5zM696 1286q0 51 35.5 86t89.5 35q51 0 86 -35t35 -86q0 -54 -35 -89.5t-86 -35.5q-54 0 -89.5 35.5t-35.5 89.5zM1145 1024l-443 -1044q-69 -163 -107 -219
q-65 -97 -173 -134q-106 -37 -305 -37v160q106 0 171.5 11t105.5 44t56.5 60t43.5 91q3 7 4.5 11t4.5 10t5 11l8 20l-442 1016h217l325 -803l318 803h211z" />
    <glyph glyph-name="Amacron" unicode="&#x100;" horiz-adv-x="1622" 
d="M561 1706h500v-102h-500v102zM713 1434h198l639 -1432h-198l-148 344h-786l-148 -344h-198zM489 510h644l-322 747z" />
    <glyph glyph-name="amacron" unicode="&#x101;" horiz-adv-x="1208" 
d="M354 1296h500v-102h-500v102zM227 1024h379q101 0 175.5 -20t120.5 -54.5t73.5 -88.5t38 -113t10.5 -136v-272q0 -109 33.5 -144.5t140.5 -35.5v-160h-133q-116 1 -162.5 43t-54.5 141q-45 -93 -136 -148.5t-223 -55.5q-370 0 -370 321q0 153 93.5 239.5t291.5 86.5h325
q-1 63 -9 101.5t-33 72t-75.5 48.5t-131.5 15h-353v160zM829 467h-319q-101 0 -147 -34.5t-46 -127.5q0 -97 53.5 -131.5t168.5 -34.5q128 0 209 66.5t81 173.5v88z" />
    <glyph glyph-name="Abreve" unicode="&#x102;" horiz-adv-x="1622" 
d="M498 1905h120q0 -101 48 -159t145 -58t145 58t48 159h120q0 -167 -87.5 -254.5t-225.5 -87.5t-225.5 87.5t-87.5 254.5zM713 1434h198l639 -1432h-198l-148 344h-786l-148 -344h-198zM489 510h644l-322 747z" />
    <glyph glyph-name="abreve" unicode="&#x103;" horiz-adv-x="1208" 
d="M291 1495h121q0 -101 48 -159t144 -58q97 0 145 58t48 159h121q0 -167 -88 -254.5t-226 -87.5t-225.5 87.5t-87.5 254.5zM227 1024h379q101 0 175.5 -20t120.5 -54.5t73.5 -88.5t38 -113t10.5 -136v-272q0 -109 33.5 -144.5t140.5 -35.5v-160h-133q-116 1 -162.5 43
t-54.5 141q-45 -93 -136 -148.5t-223 -55.5q-370 0 -370 321q0 153 93.5 239.5t291.5 86.5h325q-1 63 -9 101.5t-33 72t-75.5 48.5t-131.5 15h-353v160zM829 467h-319q-101 0 -147 -34.5t-46 -127.5q0 -97 53.5 -131.5t168.5 -34.5q128 0 209 66.5t81 173.5v88z" />
    <glyph glyph-name="Aogonek" unicode="&#x104;" horiz-adv-x="1622" 
d="M713 1434h198l639 -1432h-108l4 -4q-43 -57 -60 -80.5t-35 -66.5t-18 -84q0 -107 142 -107q64 0 151 23v-113q-71 -19 -147 -19q-71 0 -127 17t-94.5 61.5t-38.5 112.5q0 46 23 99t45.5 85t62.5 82l-146 338h-786l-148 -344h-198zM489 510h644l-322 747z" />
    <glyph glyph-name="aogonek" unicode="&#x105;" horiz-adv-x="1208" 
d="M227 1024h379q101 0 175.5 -20t120.5 -54.5t73.5 -88.5t38 -113t10.5 -136v-272q0 -109 33.5 -144.5t140.5 -35.5v-160h-133q-44 0 -74 6q-45 -60 -66.5 -104.5t-21.5 -96.5q0 -106 141 -106q69 0 152 22v-112q-71 -19 -147 -19q-53 0 -97.5 10t-82.5 31.5t-59.5 59.5
t-21.5 90q0 45 21 95t43 82.5t59 78.5q-54 40 -63 147q-45 -93 -136 -148.5t-223 -55.5q-370 0 -370 321q0 153 93.5 239.5t291.5 86.5h325q-1 63 -9 101.5t-33 72t-75.5 48.5t-131.5 15h-353v160zM829 467h-319q-101 0 -147 -34.5t-46 -127.5q0 -97 53.5 -131.5
t168.5 -34.5q128 0 209 66.5t81 173.5v88z" />
    <glyph glyph-name="Cacute" unicode="&#x106;" horiz-adv-x="1669" 
d="M772 1550l121 336h147l-139 -336h-129zM363 925q-29 -95 -29 -208t29 -208t79 -161.5t118 -113.5t144.5 -69t159.5 -22q107 0 198 34.5t149.5 90.5t91 124.5t32.5 137.5h203q0 -75 -26.5 -151t-82.5 -148t-134 -127.5t-190 -89.5t-241 -34q-150 0 -283.5 51.5t-233.5 145
t-158 233.5t-58 307t58 307t158 233.5t233.5 145t283.5 51.5q129 0 241 -34t190 -90t134 -128t82.5 -148t26.5 -151h-203q0 69 -32.5 137.5t-91 124.5t-149.5 90.5t-198 34.5q-83 0 -159.5 -22t-144.5 -68.5t-118 -113t-79 -161.5z" />
    <glyph glyph-name="cacute" unicode="&#x107;" 
d="M586 1141l121 336h147l-139 -336h-129zM309 514q0 -174 100 -274.5t255 -100.5q131 0 212.5 75.5t81.5 168.5h199q0 -57 -18 -113t-57.5 -108.5t-95.5 -92.5t-139 -64.5t-181 -24.5q-249 0 -402 143t-153 391q0 245 153.5 387.5t401.5 142.5q98 0 181 -24.5t139 -64.5
t95.5 -92.5t57.5 -108t18 -111.5h-199q0 92 -82 167t-212 75q-155 0 -255 -99.5t-100 -271.5z" />
    <glyph glyph-name="Ccircumflex" unicode="&#x108;" horiz-adv-x="1669" 
d="M512 1563l268 309h111l268 -309h-158l-165 202l-164 -202h-160zM363 925q-29 -95 -29 -208t29 -208t79 -161.5t118 -113.5t144.5 -69t159.5 -22q107 0 198 34.5t149.5 90.5t91 124.5t32.5 137.5h203q0 -75 -26.5 -151t-82.5 -148t-134 -127.5t-190 -89.5t-241 -34
q-150 0 -283.5 51.5t-233.5 145t-158 233.5t-58 307t58 307t158 233.5t233.5 145t283.5 51.5q129 0 241 -34t190 -90t134 -128t82.5 -148t26.5 -151h-203q0 69 -32.5 137.5t-91 124.5t-149.5 90.5t-198 34.5q-83 0 -159.5 -22t-144.5 -68.5t-118 -113t-79 -161.5z" />
    <glyph glyph-name="ccircumflex" unicode="&#x109;" 
d="M311 1153l269 309h110l268 -309h-157l-166 203l-164 -203h-160zM309 514q0 -174 100 -274.5t255 -100.5q131 0 212.5 75.5t81.5 168.5h199q0 -57 -18 -113t-57.5 -108.5t-95.5 -92.5t-139 -64.5t-181 -24.5q-249 0 -402 143t-153 391q0 245 153.5 387.5t401.5 142.5
q98 0 181 -24.5t139 -64.5t95.5 -92.5t57.5 -108t18 -111.5h-199q0 92 -82 167t-212 75q-155 0 -255 -99.5t-100 -271.5z" />
    <glyph glyph-name="Cdotaccent" unicode="&#x10a;" horiz-adv-x="1669" 
d="M711 1694q0 51 35.5 86t89.5 35q51 0 85.5 -35t34.5 -86q0 -54 -34.5 -89.5t-85.5 -35.5q-54 0 -89.5 35.5t-35.5 89.5zM363 925q-29 -95 -29 -208t29 -208t79 -161.5t118 -113.5t144.5 -69t159.5 -22q107 0 198 34.5t149.5 90.5t91 124.5t32.5 137.5h203
q0 -75 -26.5 -151t-82.5 -148t-134 -127.5t-190 -89.5t-241 -34q-150 0 -283.5 51.5t-233.5 145t-158 233.5t-58 307t58 307t158 233.5t233.5 145t283.5 51.5q129 0 241 -34t190 -90t134 -128t82.5 -148t26.5 -151h-203q0 69 -32.5 137.5t-91 124.5t-149.5 90.5t-198 34.5
q-83 0 -159.5 -22t-144.5 -68.5t-118 -113t-79 -161.5z" />
    <glyph glyph-name="cdotaccent" unicode="&#x10b;" 
d="M510 1284q0 51 35.5 86t89.5 35q51 0 86 -35t35 -86q0 -54 -35 -89.5t-86 -35.5q-54 0 -89.5 35.5t-35.5 89.5zM309 514q0 -174 100 -274.5t255 -100.5q131 0 212.5 75.5t81.5 168.5h199q0 -57 -18 -113t-57.5 -108.5t-95.5 -92.5t-139 -64.5t-181 -24.5q-249 0 -402 143
t-153 391q0 245 153.5 387.5t401.5 142.5q98 0 181 -24.5t139 -64.5t95.5 -92.5t57.5 -108t18 -111.5h-199q0 92 -82 167t-212 75q-155 0 -255 -99.5t-100 -271.5z" />
    <glyph glyph-name="Ccaron" unicode="&#x10c;" horiz-adv-x="1669" 
d="M512 1860h158l166 -203l163 203h160l-268 -310h-111zM363 925q-29 -95 -29 -208t29 -208t79 -161.5t118 -113.5t144.5 -69t159.5 -22q107 0 198 34.5t149.5 90.5t91 124.5t32.5 137.5h203q0 -75 -26.5 -151t-82.5 -148t-134 -127.5t-190 -89.5t-241 -34
q-150 0 -283.5 51.5t-233.5 145t-158 233.5t-58 307t58 307t158 233.5t233.5 145t283.5 51.5q129 0 241 -34t190 -90t134 -128t82.5 -148t26.5 -151h-203q0 69 -32.5 137.5t-91 124.5t-149.5 90.5t-198 34.5q-83 0 -159.5 -22t-144.5 -68.5t-118 -113t-79 -161.5z" />
    <glyph glyph-name="ccaron" unicode="&#x10d;" 
d="M311 1450h158l166 -203l164 203h159l-268 -309h-110zM309 514q0 -174 100 -274.5t255 -100.5q131 0 212.5 75.5t81.5 168.5h199q0 -57 -18 -113t-57.5 -108.5t-95.5 -92.5t-139 -64.5t-181 -24.5q-249 0 -402 143t-153 391q0 245 153.5 387.5t401.5 142.5q98 0 181 -24.5
t139 -64.5t95.5 -92.5t57.5 -108t18 -111.5h-199q0 92 -82 167t-212 75q-155 0 -255 -99.5t-100 -271.5z" />
    <glyph glyph-name="Dcaron" unicode="&#x10e;" horiz-adv-x="1626" 
d="M489 1860h158l166 -203l164 203h160l-269 -310h-110zM739 1434q153 0 289 -48t241 -136.5t166.5 -226t61.5 -306.5t-61.5 -306.5t-166.5 -226t-241 -136.5t-289 -48h-575v1434h575zM362 164h377q114 0 214 36t176.5 104t120.5 174.5t44 238.5q0 133 -44 239.5
t-120.5 174.5t-176.5 103.5t-214 35.5h-377v-1106z" />
    <glyph glyph-name="dcaron" unicode="&#x10f;" horiz-adv-x="1826" 
d="M1407 1311q0 60 42.5 101.5t106.5 41.5q60 0 102 -41.5t42 -101.5q0 -46 -27 -88l-149 -281h-107l101 223q-50 12 -80.5 52t-30.5 94zM248 128q-137 148 -137 384t136.5 384t358.5 148q123 0 230 -54.5t170 -149.5v594h194v-1434h-194v184q-63 -95 -170 -149.5
t-230 -54.5q-222 0 -358 148zM664 139q133 0 237.5 82.5t104.5 200.5v180q0 118 -104.5 200.5t-237.5 82.5q-157 0 -256 -103t-99 -270t99 -270t256 -103z" />
    <glyph glyph-name="Dcroat" unicode="&#x110;" horiz-adv-x="1626" 
d="M-49 784h213v650h575q153 0 289 -48t241 -136.5t166.5 -226t61.5 -306.5t-61.5 -306.5t-166.5 -226t-241 -136.5t-289 -48h-575v651h-213v133zM362 164h377q114 0 214 36t176.5 104t120.5 174.5t44 238.5q0 133 -44 239.5t-120.5 174.5t-176.5 103.5t-214 35.5h-377v-486
h375v-133h-375v-487z" />
    <glyph glyph-name="dcroat" unicode="&#x111;" horiz-adv-x="1343" 
d="M598 1280h408v154h194v-154h203v-102h-203v-1178h-194v221q-53 -113 -159 -177t-241 -64q-222 0 -358.5 148t-136.5 384t136.5 384t358.5 148q135 0 241 -64t159 -177v375h-408v102zM664 139q133 0 237.5 82.5t104.5 200.5v180q0 118 -104.5 200.5t-237.5 82.5
q-157 0 -256 -103t-99 -270t99 -270t256 -103z" />
    <glyph glyph-name="Emacron" unicode="&#x112;" horiz-adv-x="1277" 
d="M424 1706h500v-102h-500v102zM164 1434h1010v-164h-812v-449h750v-164h-750v-493h812v-164h-1010v1434z" />
    <glyph glyph-name="emacron" unicode="&#x113;" 
d="M383 1296h500v-102h-500v102zM313 449q18 -156 109.5 -233t218.5 -77q136 0 225.5 56t89.5 143h189q-5 -62 -40.5 -124t-97.5 -115t-160 -86t-214 -33q-146 0 -263.5 62.5t-188 185t-70.5 284.5q0 123 41 225t111.5 169t166 104t203.5 37q242 0 382 -148t142 -381v-69
h-844zM954 604q-19 154 -100.5 218.5t-212.5 64.5q-121 0 -211 -71.5t-113 -211.5h637z" />
    <glyph glyph-name="Ebreve" unicode="&#x114;" horiz-adv-x="1277" 
d="M358 1905h121q0 -101 48 -159t145 -58q96 0 144 58t48 159h121q0 -167 -87.5 -254.5t-225.5 -87.5t-226 87.5t-88 254.5zM164 1434h1010v-164h-812v-449h750v-164h-750v-493h812v-164h-1010v1434z" />
    <glyph glyph-name="ebreve" unicode="&#x115;" 
d="M340 1495h121q0 -101 48 -159t144 -58q97 0 145 58t48 159h121q0 -167 -88 -254.5t-226 -87.5t-225.5 87.5t-87.5 254.5zM313 449q18 -156 109.5 -233t218.5 -77q136 0 225.5 56t89.5 143h189q-5 -62 -40.5 -124t-97.5 -115t-160 -86t-214 -33q-146 0 -263.5 62.5
t-188 185t-70.5 284.5q0 123 41 225t111.5 169t166 104t203.5 37q242 0 382 -148t142 -381v-69h-844zM954 604q-19 154 -100.5 218.5t-212.5 64.5q-121 0 -211 -71.5t-113 -211.5h637z" />
    <glyph glyph-name="Edotaccent" unicode="&#x116;" horiz-adv-x="1277" 
d="M549 1694q0 51 35.5 86t89.5 35q51 0 86 -35t35 -86q0 -54 -35 -89.5t-86 -35.5q-54 0 -89.5 35.5t-35.5 89.5zM164 1434h1010v-164h-812v-449h750v-164h-750v-493h812v-164h-1010v1434z" />
    <glyph glyph-name="edotaccent" unicode="&#x117;" 
d="M510 1284q0 51 35.5 86t89.5 35q51 0 86 -35t35 -86q0 -54 -35 -89.5t-86 -35.5q-54 0 -89.5 35.5t-35.5 89.5zM313 449q18 -156 109.5 -233t218.5 -77q136 0 225.5 56t89.5 143h189q-5 -62 -40.5 -124t-97.5 -115t-160 -86t-214 -33q-146 0 -263.5 62.5t-188 185
t-70.5 284.5q0 123 41 225t111.5 169t166 104t203.5 37q242 0 382 -148t142 -381v-69h-844zM954 604q-19 154 -100.5 218.5t-212.5 64.5q-121 0 -211 -71.5t-113 -211.5h637z" />
    <glyph glyph-name="Eogonek" unicode="&#x118;" horiz-adv-x="1277" 
d="M164 1434h1010v-164h-812v-449h750v-164h-750v-493h812v-164h-183l4 -4q-32 -41 -45.5 -60t-32.5 -51.5t-26.5 -60.5t-7.5 -60q0 -106 141 -106q65 0 152 23v-113q-71 -19 -148 -19q-71 0 -127 17t-94.5 61.5t-38.5 112.5q0 46 22 97t44 82.5t61 80.5h-731v1434z" />
    <glyph glyph-name="eogonek" unicode="&#x119;" 
d="M313 449q18 -156 109.5 -233t218.5 -77q136 0 225.5 56t89.5 143h189q-10 -125 -129.5 -231.5t-317.5 -124.5q-32 -41 -45.5 -60t-32.5 -51.5t-26.5 -60.5t-7.5 -60q0 -106 141 -106q69 0 152 22v-112q-71 -19 -148 -19q-71 0 -127 17t-94.5 61.5t-38.5 112.5q0 45 21 95
t43 82.5t59 78.5q-136 8 -244.5 72.5t-173.5 183.5t-65 274q0 123 41 225t111.5 169t166 104t203.5 37q242 0 382 -148t142 -381v-69h-844zM954 604q-19 154 -100.5 218.5t-212.5 64.5q-121 0 -211 -71.5t-113 -211.5h637z" />
    <glyph glyph-name="Ecaron" unicode="&#x11a;" horiz-adv-x="1277" 
d="M356 1860h158l166 -203l164 203h160l-269 -310h-110zM164 1434h1010v-164h-812v-449h750v-164h-750v-493h812v-164h-1010v1434z" />
    <glyph glyph-name="ecaron" unicode="&#x11b;" 
d="M311 1450h158l166 -203l164 203h159l-268 -309h-110zM313 449q18 -156 109.5 -233t218.5 -77q136 0 225.5 56t89.5 143h189q-5 -62 -40.5 -124t-97.5 -115t-160 -86t-214 -33q-146 0 -263.5 62.5t-188 185t-70.5 284.5q0 123 41 225t111.5 169t166 104t203.5 37
q242 0 382 -148t142 -381v-69h-844zM954 604q-19 154 -100.5 218.5t-212.5 64.5q-121 0 -211 -71.5t-113 -211.5h637z" />
    <glyph glyph-name="Gcircumflex" unicode="&#x11c;" horiz-adv-x="1689" 
d="M522 1563l269 309h110l268 -309h-157l-166 202l-164 -202h-160zM334 723q0 -274 154 -425t409 -151q192 0 318 114.5t139 307.5h-541v164h746v-733h-183v199q-87 -98 -215.5 -152.5t-288.5 -54.5q-153 0 -288 50.5t-235.5 143t-159 231.5t-58.5 306t60.5 306.5
t163.5 231.5t239 142.5t289 50.5q146 0 272.5 -46.5t208 -120t128 -161.5t46.5 -174h-203q0 132 -126.5 235t-327.5 103q-117 0 -216.5 -37t-173.5 -107t-115.5 -178.5t-41.5 -244.5z" />
    <glyph glyph-name="gcircumflex" unicode="&#x11d;" horiz-adv-x="1343" 
d="M348 1153l268 309h111l268 -309h-157l-166 203l-164 -203h-160zM268 -250h402q176 0 256 78t80 242v114q-63 -95 -170 -149.5t-230 -54.5q-222 0 -358.5 148t-136.5 384t136.5 384t358.5 148q123 0 230 -54.5t170 -149.5v184h194v-932q0 -502 -514 -502h-418v160z
M664 139q133 0 237.5 82.5t104.5 200.5v180q0 118 -104.5 200.5t-237.5 82.5q-157 0 -256 -103t-99 -270t99 -270t256 -103z" />
    <glyph glyph-name="Gbreve" unicode="&#x11e;" horiz-adv-x="1689" 
d="M530 1905h121q0 -101 48 -159t145 -58q96 0 144 58t48 159h121q0 -167 -87.5 -254.5t-225.5 -87.5t-226 87.5t-88 254.5zM334 723q0 -274 154 -425t409 -151q192 0 318 114.5t139 307.5h-541v164h746v-733h-183v199q-87 -98 -215.5 -152.5t-288.5 -54.5q-153 0 -288 50.5
t-235.5 143t-159 231.5t-58.5 306t60.5 306.5t163.5 231.5t239 142.5t289 50.5q146 0 272.5 -46.5t208 -120t128 -161.5t46.5 -174h-203q0 132 -126.5 235t-327.5 103q-117 0 -216.5 -37t-173.5 -107t-115.5 -178.5t-41.5 -244.5z" />
    <glyph glyph-name="gbreve" unicode="&#x11f;" horiz-adv-x="1343" 
d="M358 1495h121q0 -101 48 -159t145 -58q96 0 144 58t48 159h121q0 -167 -87.5 -254.5t-225.5 -87.5t-226 87.5t-88 254.5zM268 -250h402q176 0 256 78t80 242v114q-63 -95 -170 -149.5t-230 -54.5q-222 0 -358.5 148t-136.5 384t136.5 384t358.5 148q123 0 230 -54.5
t170 -149.5v184h194v-932q0 -502 -514 -502h-418v160zM664 139q133 0 237.5 82.5t104.5 200.5v180q0 118 -104.5 200.5t-237.5 82.5q-157 0 -256 -103t-99 -270t99 -270t256 -103z" />
    <glyph glyph-name="Gdotaccent" unicode="&#x120;" horiz-adv-x="1689" 
d="M721 1694q0 51 35.5 86t89.5 35q51 0 86 -35t35 -86q0 -54 -35 -89.5t-86 -35.5q-54 0 -89.5 35.5t-35.5 89.5zM334 723q0 -274 154 -425t409 -151q192 0 318 114.5t139 307.5h-541v164h746v-733h-183v199q-87 -98 -215.5 -152.5t-288.5 -54.5q-153 0 -288 50.5
t-235.5 143t-159 231.5t-58.5 306t60.5 306.5t163.5 231.5t239 142.5t289 50.5q146 0 272.5 -46.5t208 -120t128 -161.5t46.5 -174h-203q0 132 -126.5 235t-327.5 103q-117 0 -216.5 -37t-173.5 -107t-115.5 -178.5t-41.5 -244.5z" />
    <glyph glyph-name="gdotaccent" unicode="&#x121;" horiz-adv-x="1343" 
d="M549 1284q0 51 35.5 86t89.5 35q51 0 86 -35t35 -86q0 -54 -35 -89.5t-86 -35.5q-54 0 -89.5 35.5t-35.5 89.5zM268 -250h402q176 0 256 78t80 242v114q-63 -95 -170 -149.5t-230 -54.5q-222 0 -358.5 148t-136.5 384t136.5 384t358.5 148q123 0 230 -54.5t170 -149.5
v184h194v-932q0 -502 -514 -502h-418v160zM664 139q133 0 237.5 82.5t104.5 200.5v180q0 118 -104.5 200.5t-237.5 82.5q-157 0 -256 -103t-99 -270t99 -270t256 -103z" />
    <glyph glyph-name="uni0122" unicode="&#x122;" horiz-adv-x="1689" 
d="M334 723q0 -274 154 -425t409 -151q192 0 318 114.5t139 307.5h-541v164h746v-733h-183v199q-87 -98 -215.5 -152.5t-288.5 -54.5q-153 0 -288 50.5t-235.5 143t-159 231.5t-58.5 306t60.5 306.5t163.5 231.5t239 142.5t289 50.5q146 0 272.5 -46.5t208 -120t128 -161.5
t46.5 -174h-203q0 132 -126.5 235t-327.5 103q-117 0 -216.5 -37t-173.5 -107t-115.5 -178.5t-41.5 -244.5zM772 -199q0 43 31 73t76 30q43 0 72.5 -30t29.5 -73q0 -32 -18 -61l-113 -213h-68l74 170q-37 8 -60.5 36.5t-23.5 67.5z" />
    <glyph glyph-name="uni0123" unicode="&#x123;" horiz-adv-x="1343" 
d="M600 1315l121 223h67l-75 -170q38 -6 62 -35t24 -69q0 -43 -31 -73t-76 -30q-43 0 -72.5 30t-29.5 73q0 30 12 51h-2zM268 -250h402q176 0 256 78t80 242v114q-63 -95 -170 -149.5t-230 -54.5q-222 0 -358.5 148t-136.5 384t136.5 384t358.5 148q123 0 230 -54.5
t170 -149.5v184h194v-932q0 -502 -514 -502h-418v160zM664 139q133 0 237.5 82.5t104.5 200.5v180q0 118 -104.5 200.5t-237.5 82.5q-157 0 -256 -103t-99 -270t99 -270t256 -103z" />
    <glyph glyph-name="Hcircumflex" unicode="&#x124;" horiz-adv-x="1716" 
d="M535 1563l268 309h110l269 -309h-158l-166 202l-164 -202h-159zM164 1434h198v-619h992v619h198v-1434h-198v651h-992v-651h-198v1434z" />
    <glyph glyph-name="hcircumflex" unicode="&#x125;" horiz-adv-x="1269" 
d="M440 1137l269 309h110l268 -309h-157l-166 202l-164 -202h-160zM143 1434h195v-607q62 101 166 159t227 58q395 0 395 -411v-633h-194v586q0 145 -62.5 222t-220.5 77q-128 0 -219.5 -89t-91.5 -223v-573h-195v1434z" />
    <glyph glyph-name="Hbar" unicode="&#x126;" horiz-adv-x="1716" 
d="M164 1434h198v-400h992v400h198v-1434h-198v375h-992v-375h-198v1434zM362 539h992v331h-992v-331z" />
    <glyph glyph-name="hbar" unicode="&#x127;" horiz-adv-x="1269" 
d="M745 1280v-102h-407v-351q62 101 166 159t227 58q395 0 395 -411v-633h-194v586q0 145 -62.5 222t-220.5 77q-128 0 -219.5 -89t-91.5 -223v-573h-195v1178h-202v102h202v154h195v-154h407z" />
    <glyph glyph-name="Itilde" unicode="&#x128;" horiz-adv-x="526" 
d="M264 1722q8 -3 27.5 -11t26 -10.5t21.5 -8t22 -7.5l17.5 -5t18.5 -4t15 -1q31 0 53.5 23t48.5 82l94 -33q-36 -97 -82.5 -137.5t-105.5 -40.5q-58 0 -168 45q-10 4 -35.5 13.5t-34 12.5t-24.5 8.5t-25.5 7t-19.5 1.5q-30 0 -52 -24t-49 -83l-96 33q38 98 84.5 139
t105.5 41q56 0 158 -41zM164 1434h198v-1434h-198v1434z" />
    <glyph glyph-name="itilde" unicode="&#x129;" horiz-adv-x="456" 
d="M229 1313q8 -3 27.5 -11t26 -10.5t21.5 -8t22 -7.5l17.5 -5t18.5 -4t15 -1q31 0 53.5 23t48.5 81l94 -33q-36 -97 -82.5 -137.5t-105.5 -40.5q-58 0 -168 45q-10 4 -35.5 13.5t-34 12.5t-24.5 8.5t-25.5 7t-19.5 1.5q-30 0 -52 -23.5t-49 -82.5l-96 33q38 98 85 139
t106 41q55 0 157 -41zM131 1024h195v-1024h-195v1024z" />
    <glyph glyph-name="Imacron" unicode="&#x12a;" horiz-adv-x="526" 
d="M14 1706h500v-102h-500v102zM164 1434h198v-1434h-198v1434z" />
    <glyph glyph-name="imacron" unicode="&#x12b;" horiz-adv-x="456" 
d="M-23 1296h500v-102h-500v102zM131 1024h195v-1024h-195v1024z" />
    <glyph glyph-name="Iogonek" unicode="&#x12e;" horiz-adv-x="526" 
d="M164 1434h198v-1434h-55l4 -4q-32 -41 -45.5 -60t-32.5 -51.5t-26.5 -60.5t-7.5 -60q0 -106 141 -106q65 0 152 23v-113q-71 -19 -148 -19q-71 0 -127 17t-94.5 61.5t-38.5 112.5q0 46 22 97t44 82.5t61 80.5h-47v1434z" />
    <glyph glyph-name="iogonek" unicode="&#x12f;" horiz-adv-x="456" 
d="M100 1360q0 51 38 88t93 37q52 0 88.5 -37t36.5 -88q0 -55 -36 -93t-89 -38q-55 0 -93 37.5t-38 93.5zM131 1024h195v-1024h-56l4 -4q-32 -41 -45.5 -60t-32.5 -51.5t-26.5 -60.5t-7.5 -60q0 -106 141 -106q65 0 152 23v-113q-71 -19 -148 -19q-71 0 -127 17t-94.5 61.5
t-38.5 112.5q0 46 22 97t44 82.5t61 80.5h-43v1024z" />
    <glyph glyph-name="Idotaccent" unicode="&#x130;" horiz-adv-x="526" 
d="M141 1694q0 51 35.5 86t89.5 35q51 0 86 -35t35 -86q0 -54 -35 -89.5t-86 -35.5q-54 0 -89.5 35.5t-35.5 89.5zM164 1434h198v-1434h-198v1434z" />
    <glyph glyph-name="dotlessi" unicode="&#x131;" horiz-adv-x="456" 
d="M131 1024h195v-1024h-195v1024z" />
    <glyph glyph-name="IJ" unicode="&#x132;" horiz-adv-x="1851" 
d="M164 1434h198v-1434h-198v1434zM1489 1434h199v-912q0 -245 -137.5 -393.5t-385.5 -148.5q-256 0 -391 149t-135 403h203q0 -182 82.5 -285.5t242.5 -103.5q151 0 236.5 104t85.5 275v912z" />
    <glyph glyph-name="ij" unicode="&#x133;" horiz-adv-x="911" 
d="M100 1360q0 51 38 88t93 37q52 0 88.5 -37t36.5 -88q0 -55 -36 -93t-89 -38q-55 0 -93 37.5t-38 93.5zM555 1360q0 51 38 88t93 37q52 0 88.5 -37t36.5 -88q0 -55 -36 -93t-89 -38q-56 0 -93.5 37.5t-37.5 93.5zM131 1024h195v-1024h-195v1024zM264 -250h117
q112 0 159.5 49t47.5 160v1065h194v-1102q0 -332 -331 -332h-187v160z" />
    <glyph glyph-name="Jcircumflex" unicode="&#x134;" horiz-adv-x="1325" 
d="M731 1563l268 309h111l268 -309h-157l-166 202l-164 -202h-160zM963 1434h198v-912q0 -245 -137 -393.5t-385 -148.5q-256 0 -391 149t-135 403h202q0 -182 83 -285.5t243 -103.5q151 0 236.5 104t85.5 275v912z" />
    <glyph glyph-name="jcircumflex" unicode="&#x135;" horiz-adv-x="456" 
d="M-96 1153l268 309h111l268 -309h-158l-166 203l-164 -203h-159zM-193 -264h119q110 0 157.5 55t47.5 168v1067h195v-1104q0 -332 -332 -332h-187v146z" />
    <glyph glyph-name="uni0136" unicode="&#x136;" horiz-adv-x="1433" 
d="M164 1434h198v-676h211l492 676h238l-558 -748l617 -686h-250l-522 594h-228v-594h-198v1434zM629 -199q0 43 30.5 73t75.5 30q43 0 73 -30t30 -73q0 -31 -19 -61l-112 -213h-68l74 170q-37 8 -60.5 36.5t-23.5 67.5z" />
    <glyph glyph-name="uni0137" unicode="&#x137;" horiz-adv-x="1220" 
d="M143 1434h195v-822h190l326 412h227l-397 -485l453 -539h-234l-368 453h-197v-453h-195v1434zM539 -199q0 43 30.5 73t75.5 30q43 0 73 -30t30 -73q0 -31 -19 -61l-113 -213h-67l74 170q-37 8 -60.5 36.5t-23.5 67.5z" />
    <glyph glyph-name="kgreenlandic" unicode="&#x138;" horiz-adv-x="1220" 
d="M143 1024h195v-412h190l326 412h227l-397 -485l453 -539h-234l-368 453h-197v-453h-195v1024z" />
    <glyph glyph-name="Lacute" unicode="&#x139;" horiz-adv-x="1304" 
d="M764 1100l121 336h147l-139 -336h-129zM164 1434h198v-1270h838v-164h-1036v1434z" />
    <glyph glyph-name="lacute" unicode="&#x13a;" horiz-adv-x="538" 
d="M193 1550l120 336h148l-139 -336h-129zM512 160v-160h-125q-140 1 -192 62t-52 210v1162h195v-1094q0 -103 27.5 -141.5t121.5 -38.5h25z" />
    <glyph glyph-name="uni013B" unicode="&#x13b;" horiz-adv-x="1304" 
d="M164 1434h198v-1270h838v-164h-1036v1434zM594 -199q0 43 30.5 73t75.5 30q43 0 73 -30t30 -73q0 -31 -19 -61l-112 -213h-68l74 170q-37 8 -60.5 36.5t-23.5 67.5z" />
    <glyph glyph-name="uni013C" unicode="&#x13c;" horiz-adv-x="538" 
d="M512 160v-160h-125q-140 1 -192 62t-52 210v1162h195v-1094q0 -103 27.5 -141.5t121.5 -38.5h25zM240 -199q0 43 30.5 73t75.5 30q43 0 73 -30t30 -73q0 -31 -19 -61l-113 -213h-67l74 170q-37 8 -60.5 36.5t-23.5 67.5z" />
    <glyph glyph-name="Lcaron" unicode="&#x13d;" horiz-adv-x="1304" 
d="M164 1434h198v-1270h838v-164h-1036v1434zM819 1290q0 60 43 102t107 42q60 0 101.5 -42t41.5 -102q0 -46 -27 -88l-149 -280h-107l101 223q-50 12 -80.5 51.5t-30.5 93.5z" />
    <glyph glyph-name="lcaron" unicode="&#x13e;" horiz-adv-x="1007" 
d="M588 1298q0 61 42.5 102.5t106.5 41.5q60 0 102 -42t42 -102q0 -46 -27 -88l-149 -280h-107l100 223q-50 12 -80 51.5t-30 93.5zM512 160v-160h-125q-140 1 -192 62t-52 210v1162h195v-1094q0 -103 27.5 -141.5t121.5 -38.5h25z" />
    <glyph glyph-name="Ldot" unicode="&#x13f;" horiz-adv-x="1304" 
d="M680 1292q0 61 42.5 102.5t106.5 41.5q60 0 102 -42t42 -102q0 -64 -41.5 -106.5t-102.5 -42.5q-65 0 -107 42.5t-42 106.5zM164 1434h198v-1270h838v-164h-1036v1434z" />
    <glyph glyph-name="ldot" unicode="&#x140;" horiz-adv-x="1026" 
d="M555 1292q0 60 43 102t107 42q60 0 101.5 -42t41.5 -102q0 -64 -41.5 -106.5t-101.5 -42.5q-65 0 -107.5 42.5t-42.5 106.5zM512 160v-160h-125q-140 1 -192 62t-52 210v1162h195v-1094q0 -103 27.5 -141.5t121.5 -38.5h25z" />
    <glyph glyph-name="Lslash" unicode="&#x141;" horiz-adv-x="1304" 
d="M-201 721l365 133v580h198v-508l322 116l45 -124l-367 -134v-620h838v-164h-1036v713l-320 -117z" />
    <glyph glyph-name="lslash" unicode="&#x142;" horiz-adv-x="538" 
d="M-229 721l372 135v578h195v-506l317 114l47 -124l-364 -134v-444q0 -103 27.5 -141.5t121.5 -38.5h25v-160h-125q-140 1 -192 62t-52 210v443l-327 -119z" />
    <glyph glyph-name="Nacute" unicode="&#x143;" horiz-adv-x="1708" 
d="M834 1550l120 336h148l-139 -336h-129zM164 1434h198l984 -1153v1153h198v-1434h-198l-984 1141v-1141h-198v1434z" />
    <glyph glyph-name="nacute" unicode="&#x144;" horiz-adv-x="1269" 
d="M565 1141l121 336h148l-140 -336h-129zM143 1024h195v-197q62 101 166 159t227 58q395 0 395 -411v-633h-194v586q0 145 -62.5 222t-220.5 77q-128 0 -219.5 -89t-91.5 -223v-573h-195v1024z" />
    <glyph glyph-name="uni0145" unicode="&#x145;" horiz-adv-x="1708" 
d="M164 1434h198l984 -1153v1153h198v-1434h-198l-984 1141v-1141h-198v1434zM778 -199q0 43 31 73t76 30q43 0 72.5 -30t29.5 -73q0 -32 -18 -61l-113 -213h-68l74 170q-37 8 -60.5 36.5t-23.5 67.5z" />
    <glyph glyph-name="uni0146" unicode="&#x146;" horiz-adv-x="1269" 
d="M143 1024h195v-197q62 101 166 159t227 58q395 0 395 -411v-633h-194v586q0 145 -62.5 222t-220.5 77q-128 0 -219.5 -89t-91.5 -223v-573h-195v1024zM551 -199q0 43 30.5 73t75.5 30q43 0 73 -30t30 -73q0 -31 -19 -61l-112 -213h-68l74 170q-37 8 -60.5 36.5
t-23.5 67.5z" />
    <glyph glyph-name="Ncaron" unicode="&#x147;" horiz-adv-x="1708" 
d="M557 1860h158l166 -203l163 203h160l-268 -310h-111zM164 1434h198l984 -1153v1153h198v-1434h-198l-984 1141v-1141h-198v1434z" />
    <glyph glyph-name="ncaron" unicode="&#x148;" horiz-adv-x="1269" 
d="M311 1450h158l166 -203l164 203h159l-268 -309h-110zM143 1024h195v-197q62 101 166 159t227 58q395 0 395 -411v-633h-194v586q0 145 -62.5 222t-220.5 77q-128 0 -219.5 -89t-91.5 -223v-573h-195v1024z" />
    <glyph glyph-name="napostrophe" unicode="&#x149;" horiz-adv-x="1269" 
d="M563 1372q0 43 31 73t76 30q43 0 72.5 -30t29.5 -73q0 -32 -18 -61l-113 -213h-68l74 170q-37 8 -60.5 36.5t-23.5 67.5zM143 1024h195v-197q62 101 166 159t227 58q395 0 395 -411v-633h-194v586q0 145 -62.5 222t-220.5 77q-128 0 -219.5 -89t-91.5 -223v-573h-195
v1024z" />
    <glyph glyph-name="Omacron" unicode="&#x14c;" horiz-adv-x="1775" 
d="M637 1706h500v-102h-500v102zM172 463q-41 119 -41 254t40.5 254t112.5 206t167 150.5t206.5 95t229.5 31.5q149 0 285.5 -51t241.5 -143t168 -233.5t63 -309.5t-63 -309.5t-168 -233.5t-241.5 -143t-285.5 -51q-118 0 -229.5 31.5t-206.5 95t-167 150.5t-112 206z
M887 1290q-111 0 -211 -40t-176 -112.5t-121 -181.5t-45 -239t45 -239.5t121 -182t176 -112.5t211 -40q110 0 210.5 40t177 112.5t122 182t45.5 239.5t-45.5 239t-122 181.5t-177 112.5t-210.5 40z" />
    <glyph glyph-name="omacron" unicode="&#x14d;" horiz-adv-x="1331" 
d="M416 1296h499v-102h-499v102zM456 1007q100 37 210 37t210 -37t177 -103.5t122.5 -168t45.5 -223.5t-45.5 -223.5t-122.5 -168t-177 -103.5t-210 -37t-210 37t-177 103.5t-122.5 168t-45.5 223.5t45.5 223.5t122.5 168t177 103.5zM666 139q148 0 252 104.5t104 268.5
t-104 268.5t-252 104.5q-150 0 -253.5 -104.5t-103.5 -268.5t103.5 -268.5t253.5 -104.5z" />
    <glyph glyph-name="Obreve" unicode="&#x14e;" horiz-adv-x="1775" 
d="M573 1905h121q0 -101 48 -159t145 -58q96 0 144 58t48 159h121q0 -167 -87.5 -254.5t-225.5 -87.5t-226 87.5t-88 254.5zM172 463q-41 119 -41 254t40.5 254t112.5 206t167 150.5t206.5 95t229.5 31.5q149 0 285.5 -51t241.5 -143t168 -233.5t63 -309.5t-63 -309.5
t-168 -233.5t-241.5 -143t-285.5 -51q-118 0 -229.5 31.5t-206.5 95t-167 150.5t-112 206zM887 1290q-111 0 -211 -40t-176 -112.5t-121 -181.5t-45 -239t45 -239.5t121 -182t176 -112.5t211 -40q110 0 210.5 40t177 112.5t122 182t45.5 239.5t-45.5 239t-122 181.5
t-177 112.5t-210.5 40z" />
    <glyph glyph-name="obreve" unicode="&#x14f;" horiz-adv-x="1331" 
d="M352 1495h121q0 -101 48 -159t145 -58q96 0 144 58t48 159h121q0 -167 -87.5 -254.5t-225.5 -87.5t-226 87.5t-88 254.5zM456 1007q100 37 210 37t210 -37t177 -103.5t122.5 -168t45.5 -223.5t-45.5 -223.5t-122.5 -168t-177 -103.5t-210 -37t-210 37t-177 103.5
t-122.5 168t-45.5 223.5t45.5 223.5t122.5 168t177 103.5zM666 139q148 0 252 104.5t104 268.5t-104 268.5t-252 104.5q-150 0 -253.5 -104.5t-103.5 -268.5t103.5 -268.5t253.5 -104.5z" />
    <glyph glyph-name="Ohungarumlaut" unicode="&#x150;" horiz-adv-x="1775" 
d="M973 1550l119 336h147l-139 -336h-127zM647 1550l121 336h147l-139 -336h-129zM172 463q-41 119 -41 254t40.5 254t112.5 206t167 150.5t206.5 95t229.5 31.5q149 0 285.5 -51t241.5 -143t168 -233.5t63 -309.5t-63 -309.5t-168 -233.5t-241.5 -143t-285.5 -51
q-118 0 -229.5 31.5t-206.5 95t-167 150.5t-112 206zM887 1290q-111 0 -211 -40t-176 -112.5t-121 -181.5t-45 -239t45 -239.5t121 -182t176 -112.5t211 -40q110 0 210.5 40t177 112.5t122 182t45.5 239.5t-45.5 239t-122 181.5t-177 112.5t-210.5 40z" />
    <glyph glyph-name="ohungarumlaut" unicode="&#x151;" horiz-adv-x="1331" 
d="M752 1141l118 336h148l-139 -336h-127zM426 1141l121 336h147l-139 -336h-129zM456 1007q100 37 210 37t210 -37t177 -103.5t122.5 -168t45.5 -223.5t-45.5 -223.5t-122.5 -168t-177 -103.5t-210 -37t-210 37t-177 103.5t-122.5 168t-45.5 223.5t45.5 223.5t122.5 168
t177 103.5zM666 139q148 0 252 104.5t104 268.5t-104 268.5t-252 104.5q-150 0 -253.5 -104.5t-103.5 -268.5t103.5 -268.5t253.5 -104.5z" />
    <glyph glyph-name="OE" unicode="&#x152;" horiz-adv-x="2562" 
d="M172 463q-41 119 -41 254t40.5 254t112.5 206t167 150.5t206.5 95t229.5 31.5q161 0 306.5 -58.5t252.5 -166.5v205h1010v-164h-811v-449h749v-164h-749v-493h811v-164h-1010v205q-107 -108 -252.5 -166.5t-306.5 -58.5q-118 0 -229.5 31.5t-206.5 95t-167 150.5
t-112 206zM887 1290q-111 0 -211 -40t-176 -112.5t-121 -181.5t-45 -239t45 -239.5t121 -182t176 -112.5t211 -40q110 0 210.5 40t177 112.5t122 182t45.5 239.5t-45.5 239t-122 181.5t-177 112.5t-210.5 40z" />
    <glyph glyph-name="oe" unicode="&#x153;" horiz-adv-x="2160" 
d="M666 1044q137 0 255.5 -54t194.5 -154q70 101 182 156t246 55q242 0 382 -148t142 -381v-69h-843q18 -156 109 -233t218 -77q136 0 226 56t90 143h188q-5 -62 -40.5 -124t-97.5 -115t-160 -86t-214 -33q-133 0 -245.5 54t-182.5 154q-76 -100 -194.5 -154t-255.5 -54
q-110 0 -210 37t-177 103.5t-122.5 168t-45.5 223.5t45.5 223.5t122.5 168t177 103.5t210 37zM1866 604q-19 154 -101 218.5t-213 64.5q-121 0 -210 -71.5t-113 -211.5h637zM666 139q148 0 252 104.5t104 268.5t-104 268.5t-252 104.5q-150 0 -253.5 -104.5t-103.5 -268.5
t103.5 -268.5t253.5 -104.5z" />
    <glyph glyph-name="Racute" unicode="&#x154;" horiz-adv-x="1476" 
d="M666 1550l120 336h148l-139 -336h-129zM823 1434q41 0 88 -7t108 -23.5t114.5 -49.5t100 -79.5t74 -120.5t27.5 -165q0 -87 -26 -159.5t-66 -120t-94.5 -83.5t-106 -55t-106.5 -30l401 -541h-235l-387 528h-353v-528h-198v1434h659zM362 692h445q32 0 69 6.5t84 26
t84.5 50t63 84t25.5 122.5t-25.5 122.5t-63 84t-84.5 50t-84 26t-69 6.5h-445v-578z" />
    <glyph glyph-name="racute" unicode="&#x155;" horiz-adv-x="839" 
d="M399 1141l121 336h148l-140 -336h-129zM143 1024h195v-186q57 95 149 150.5t193 55.5h100v-159h-162q-126 0 -203 -85t-77 -231v-569h-195v1024z" />
    <glyph glyph-name="uni0156" unicode="&#x156;" horiz-adv-x="1476" 
d="M823 1434q41 0 88 -7t108 -23.5t114.5 -49.5t100 -79.5t74 -120.5t27.5 -165q0 -87 -26 -159.5t-66 -120t-94.5 -83.5t-106 -55t-106.5 -30l401 -541h-235l-387 528h-353v-528h-198v1434h659zM362 692h445q32 0 69 6.5t84 26t84.5 50t63 84t25.5 122.5t-25.5 122.5
t-63 84t-84.5 50t-84 26t-69 6.5h-445v-578zM608 -199q0 43 31 73t76 30q43 0 72.5 -30t29.5 -73q0 -32 -18 -61l-113 -213h-68l74 170q-37 8 -60.5 36.5t-23.5 67.5z" />
    <glyph glyph-name="uni0157" unicode="&#x157;" horiz-adv-x="839" 
d="M143 1024h195v-186q57 95 149 150.5t193 55.5h100v-159h-162q-126 0 -203 -85t-77 -231v-569h-195v1024zM145 -199q0 43 31 73t76 30q43 0 72.5 -30t29.5 -73q0 -32 -18 -61l-113 -213h-67l73 170q-37 8 -60.5 36.5t-23.5 67.5z" />
    <glyph glyph-name="Rcaron" unicode="&#x158;" horiz-adv-x="1476" 
d="M416 1860h157l166 -203l164 203h160l-268 -310h-111zM823 1434q41 0 88 -7t108 -23.5t114.5 -49.5t100 -79.5t74 -120.5t27.5 -165q0 -87 -26 -159.5t-66 -120t-94.5 -83.5t-106 -55t-106.5 -30l401 -541h-235l-387 528h-353v-528h-198v1434h659zM362 692h445
q32 0 69 6.5t84 26t84.5 50t63 84t25.5 122.5t-25.5 122.5t-63 84t-84.5 50t-84 26t-69 6.5h-445v-578z" />
    <glyph glyph-name="rcaron" unicode="&#x159;" horiz-adv-x="839" 
d="M123 1450h158l165 -203l164 203h160l-268 -309h-111zM143 1024h195v-186q57 95 149 150.5t193 55.5h100v-159h-162q-126 0 -203 -85t-77 -231v-569h-195v1024z" />
    <glyph glyph-name="Sacute" unicode="&#x15a;" horiz-adv-x="1515" 
d="M682 1550l121 336h147l-139 -336h-129zM322 455q0 -63 26 -117.5t78.5 -99t141.5 -70t204 -25.5q204 0 312 65t108 179q0 27 -6 49t-14.5 39.5t-26.5 32t-34 25t-45.5 20.5t-52.5 16t-63.5 14t-69.5 12.5t-80.5 13t-86.5 14.5q-276 49 -405.5 146.5t-129.5 283.5
q0 128 77.5 220t206 136.5t294.5 44.5q133 0 239.5 -26t176 -70t116 -105t66.5 -127t20 -139h-203q0 63 -21.5 115.5t-67.5 95.5t-129 67.5t-197 24.5q-172 0 -273.5 -58.5t-101.5 -174.5q0 -39 10 -68.5t36 -53t57.5 -39.5t89 -32t114 -27.5t148.5 -27.5q83 -14 128.5 -23
t114.5 -27t107 -36t84.5 -48.5t70 -67t40 -88.5t16.5 -116q0 -92 -37.5 -168.5t-111.5 -133.5t-193.5 -89t-274.5 -32q-137 0 -249.5 27t-188 72t-126.5 107t-74 129t-23 140h203z" />
    <glyph glyph-name="sacute" unicode="&#x15b;" horiz-adv-x="1181" 
d="M516 1141l121 336h147l-139 -336h-129zM303 324q0 -76 73 -130.5t224 -54.5q270 0 270 137q0 23 -5.5 39.5t-21.5 29.5t-33.5 21.5t-53 17t-68.5 14.5t-90 16q-31 5 -47 8q-99 17 -169 40.5t-126 60.5t-83.5 93t-27.5 132q0 138 120.5 217t309.5 79q101 0 183 -20.5
t135.5 -54.5t90 -79t52 -92.5t15.5 -97.5h-193q0 77 -69.5 131t-215.5 54q-229 0 -229 -125q0 -21 3.5 -37.5t14.5 -30t20.5 -23t32.5 -18.5t38.5 -15t50.5 -13t57 -11t68 -12q64 -11 107.5 -20t94 -23t83 -29.5t65 -38.5t51 -50.5t30 -65.5t11.5 -84q0 -128 -121 -218.5
t-332 -90.5q-111 0 -199.5 20.5t-145 54t-94 79.5t-53 93t-15.5 97h192z" />
    <glyph glyph-name="Scircumflex" unicode="&#x15c;" horiz-adv-x="1515" 
d="M434 1563l268 309h111l268 -309h-157l-166 202l-164 -202h-160zM322 455q0 -63 26 -117.5t78.5 -99t141.5 -70t204 -25.5q204 0 312 65t108 179q0 27 -6 49t-14.5 39.5t-26.5 32t-34 25t-45.5 20.5t-52.5 16t-63.5 14t-69.5 12.5t-80.5 13t-86.5 14.5
q-276 49 -405.5 146.5t-129.5 283.5q0 128 77.5 220t206 136.5t294.5 44.5q133 0 239.5 -26t176 -70t116 -105t66.5 -127t20 -139h-203q0 63 -21.5 115.5t-67.5 95.5t-129 67.5t-197 24.5q-172 0 -273.5 -58.5t-101.5 -174.5q0 -39 10 -68.5t36 -53t57.5 -39.5t89 -32
t114 -27.5t148.5 -27.5q83 -14 128.5 -23t114.5 -27t107 -36t84.5 -48.5t70 -67t40 -88.5t16.5 -116q0 -92 -37.5 -168.5t-111.5 -133.5t-193.5 -89t-274.5 -32q-137 0 -249.5 27t-188 72t-126.5 107t-74 129t-23 140h203z" />
    <glyph glyph-name="scircumflex" unicode="&#x15d;" horiz-adv-x="1181" 
d="M268 1153l269 309h110l268 -309h-157l-166 203l-164 -203h-160zM303 324q0 -76 73 -130.5t224 -54.5q270 0 270 137q0 23 -5.5 39.5t-21.5 29.5t-33.5 21.5t-53 17t-68.5 14.5t-90 16q-31 5 -47 8q-99 17 -169 40.5t-126 60.5t-83.5 93t-27.5 132q0 138 120.5 217
t309.5 79q101 0 183 -20.5t135.5 -54.5t90 -79t52 -92.5t15.5 -97.5h-193q0 77 -69.5 131t-215.5 54q-229 0 -229 -125q0 -21 3.5 -37.5t14.5 -30t20.5 -23t32.5 -18.5t38.5 -15t50.5 -13t57 -11t68 -12q64 -11 107.5 -20t94 -23t83 -29.5t65 -38.5t51 -50.5t30 -65.5
t11.5 -84q0 -128 -121 -218.5t-332 -90.5q-111 0 -199.5 20.5t-145 54t-94 79.5t-53 93t-15.5 97h192z" />
    <glyph glyph-name="Scedilla" unicode="&#x15e;" horiz-adv-x="1515" 
d="M322 455q0 -63 26 -117.5t78.5 -99t141.5 -70t204 -25.5q204 0 312 65t108 179q0 27 -6 49t-14.5 39.5t-26.5 32t-34 25t-45.5 20.5t-52.5 16t-63.5 14t-69.5 12.5t-80.5 13t-86.5 14.5q-276 49 -405.5 146.5t-129.5 283.5q0 128 77.5 220t206 136.5t294.5 44.5
q133 0 239.5 -26t176 -70t116 -105t66.5 -127t20 -139h-203q0 63 -21.5 115.5t-67.5 95.5t-129 67.5t-197 24.5q-172 0 -273.5 -58.5t-101.5 -174.5q0 -39 10 -68.5t36 -53t57.5 -39.5t89 -32t114 -27.5t148.5 -27.5q83 -14 128.5 -23t114.5 -27t107 -36t84.5 -48.5t70 -67
t40 -88.5t16.5 -116q0 -183 -144.5 -298.5t-427.5 -124.5l-24 -86q43 -2 75.5 -10.5t61.5 -26t44 -49.5t15 -78q0 -107 -75.5 -157t-188.5 -50q-66 0 -135 16v105q82 -21 131 -21q66 0 105.5 27.5t39.5 83.5q0 15 -2.5 26.5t-5 20.5t-10.5 15.5t-12.5 11t-17 7.5t-19 4.5
t-23.5 2t-24.5 0.5h-29h-30.5h-8l37 158q-157 6 -278 48.5t-191.5 110.5t-105.5 148t-35 168h203z" />
    <glyph glyph-name="scedilla" unicode="&#x15f;" horiz-adv-x="1181" 
d="M303 324q0 -76 73 -130.5t224 -54.5q270 0 270 137q0 23 -5.5 39.5t-21.5 29.5t-33.5 21.5t-53 17t-68.5 14.5t-90 16q-31 5 -47 8q-99 17 -169 40.5t-126 60.5t-83.5 93t-27.5 132q0 138 120.5 217t309.5 79q101 0 183 -20.5t135.5 -54.5t90 -79t52 -92.5t15.5 -97.5
h-193q0 77 -69.5 131t-215.5 54q-229 0 -229 -125q0 -21 3.5 -37.5t14.5 -30t20.5 -23t32.5 -18.5t38.5 -15t50.5 -13t57 -11t68 -12q64 -11 107.5 -20t94 -23t83 -29.5t65 -38.5t51 -50.5t30 -65.5t11.5 -84q0 -120 -110 -209.5t-302 -99.5l-24 -86q43 -2 75.5 -10.5
t61.5 -26t44 -49.5t15 -78q0 -107 -75.5 -157t-188.5 -50q-66 0 -135 16v105q82 -21 131 -21q67 0 106.5 27.5t39.5 83.5q0 15 -2.5 26.5t-5 20.5t-10.5 15.5t-12.5 11t-17 7.5t-19 4.5t-23.5 2t-24.5 0.5h-29h-30.5h-9l37 160q-122 6 -213 38.5t-141.5 82.5t-74 105
t-23.5 116h192z" />
    <glyph glyph-name="Scaron" unicode="&#x160;" horiz-adv-x="1515" 
d="M434 1860h158l166 -203l164 203h159l-268 -310h-111zM322 455q0 -63 26 -117.5t78.5 -99t141.5 -70t204 -25.5q204 0 312 65t108 179q0 27 -6 49t-14.5 39.5t-26.5 32t-34 25t-45.5 20.5t-52.5 16t-63.5 14t-69.5 12.5t-80.5 13t-86.5 14.5q-276 49 -405.5 146.5
t-129.5 283.5q0 128 77.5 220t206 136.5t294.5 44.5q133 0 239.5 -26t176 -70t116 -105t66.5 -127t20 -139h-203q0 63 -21.5 115.5t-67.5 95.5t-129 67.5t-197 24.5q-172 0 -273.5 -58.5t-101.5 -174.5q0 -39 10 -68.5t36 -53t57.5 -39.5t89 -32t114 -27.5t148.5 -27.5
q83 -14 128.5 -23t114.5 -27t107 -36t84.5 -48.5t70 -67t40 -88.5t16.5 -116q0 -92 -37.5 -168.5t-111.5 -133.5t-193.5 -89t-274.5 -32q-137 0 -249.5 27t-188 72t-126.5 107t-74 129t-23 140h203z" />
    <glyph glyph-name="scaron" unicode="&#x161;" horiz-adv-x="1181" 
d="M268 1450h158l166 -203l164 203h159l-268 -309h-110zM303 324q0 -76 73 -130.5t224 -54.5q270 0 270 137q0 23 -5.5 39.5t-21.5 29.5t-33.5 21.5t-53 17t-68.5 14.5t-90 16q-31 5 -47 8q-99 17 -169 40.5t-126 60.5t-83.5 93t-27.5 132q0 138 120.5 217t309.5 79
q101 0 183 -20.5t135.5 -54.5t90 -79t52 -92.5t15.5 -97.5h-193q0 77 -69.5 131t-215.5 54q-229 0 -229 -125q0 -21 3.5 -37.5t14.5 -30t20.5 -23t32.5 -18.5t38.5 -15t50.5 -13t57 -11t68 -12q64 -11 107.5 -20t94 -23t83 -29.5t65 -38.5t51 -50.5t30 -65.5t11.5 -84
q0 -128 -121 -218.5t-332 -90.5q-111 0 -199.5 20.5t-145 54t-94 79.5t-53 93t-15.5 97h192z" />
    <glyph glyph-name="uni0162" unicode="&#x162;" horiz-adv-x="1437" 
d="M80 1434h1278v-164h-541v-1270h-199v1270h-538v164zM610 -199q0 43 31 73t76 30q43 0 72.5 -30t29.5 -73q0 -32 -18 -61l-113 -213h-67l73 170q-37 8 -60.5 36.5t-23.5 67.5z" />
    <glyph glyph-name="uni0163" unicode="&#x163;" horiz-adv-x="868" 
d="M74 1024h172v246h194v-246h357v-160h-357v-495q0 -111 47.5 -160t157.5 -49h152v-160h-219q-332 3 -332 332v532h-172v160zM432 -199q0 43 31 73t76 30q43 0 72.5 -30t29.5 -73q0 -32 -18 -61l-113 -213h-68l74 170q-37 8 -60.5 36.5t-23.5 67.5z" />
    <glyph glyph-name="Tcaron" unicode="&#x164;" horiz-adv-x="1437" 
d="M395 1860h158l166 -203l164 203h159l-268 -310h-110zM80 1434h1278v-164h-541v-1270h-199v1270h-538v164z" />
    <glyph glyph-name="tcaron" unicode="&#x165;" horiz-adv-x="1234" 
d="M854 1311q0 60 43 101.5t107 41.5q60 0 101.5 -41.5t41.5 -101.5q0 -46 -27 -88l-149 -281h-107l101 223q-50 12 -80.5 52t-30.5 94zM74 1024h172v246h194v-246h357v-160h-357v-495q0 -111 47.5 -160t157.5 -49h152v-160h-219q-332 3 -332 332v532h-172v160z" />
    <glyph glyph-name="Tbar" unicode="&#x166;" horiz-adv-x="1437" 
d="M1174 725v-102h-357v-623h-199v623h-354v102h354v545h-538v164h1278v-164h-541v-545h357z" />
    <glyph glyph-name="tbar" unicode="&#x167;" horiz-adv-x="868" 
d="M74 1024h172v246h194v-246h357v-160h-357v-205h357v-159h-357v-131q0 -111 47.5 -160t157.5 -49h152v-160h-219q-332 3 -332 332v168h-172v159h172v205h-172v160z" />
    <glyph glyph-name="Utilde" unicode="&#x168;" horiz-adv-x="1564" 
d="M776 1722q8 -3 27.5 -11t26 -10.5t21.5 -8t22 -7.5l17.5 -5t18.5 -4t15 -1q31 0 53.5 23t48.5 82l94 -33q-36 -97 -82.5 -137.5t-105.5 -40.5q-58 0 -168 45q-10 4 -35.5 13.5t-34 12.5t-24.5 8.5t-25.5 7t-19.5 1.5q-30 0 -52 -24t-49 -83l-96 33q38 98 84.5 139
t105.5 41q56 0 158 -41zM1202 1434h199v-840q0 -614 -625 -614q-304 0 -458 150.5t-154 463.5v840h198v-840q0 -234 101.5 -342.5t312.5 -108.5q213 0 319.5 109t106.5 342v840z" />
    <glyph glyph-name="utilde" unicode="&#x169;" horiz-adv-x="1325" 
d="M649 1313q8 -3 27.5 -11t26 -10.5t21.5 -8t22 -7.5l17.5 -5t18.5 -4t15 -1q31 0 53.5 23t48.5 81l94 -33q-36 -97 -82.5 -137.5t-105.5 -40.5q-58 0 -168 45q-10 4 -35.5 13.5t-34 12.5t-24.5 8.5t-25.5 7t-19.5 1.5q-30 0 -52 -23.5t-49 -82.5l-96 33q38 98 85 139
t106 41q55 0 157 -41zM1300 160v-160h-124q-123 1 -177 47.5t-65 155.5q-62 -104 -166 -163.5t-229 -59.5q-396 0 -396 411v633h195v-586q0 -145 62.5 -222t220.5 -77q128 0 219.5 89t91.5 223v573h194v-684q0 -112 31.5 -146t142.5 -34z" />
    <glyph glyph-name="Umacron" unicode="&#x16a;" horiz-adv-x="1564" 
d="M532 1706h500v-102h-500v102zM1202 1434h199v-840q0 -614 -625 -614q-304 0 -458 150.5t-154 463.5v840h198v-840q0 -234 101.5 -342.5t312.5 -108.5q213 0 319.5 109t106.5 342v840z" />
    <glyph glyph-name="umacron" unicode="&#x16b;" horiz-adv-x="1325" 
d="M397 1296h500v-102h-500v102zM1300 160v-160h-124q-123 1 -177 47.5t-65 155.5q-62 -104 -166 -163.5t-229 -59.5q-396 0 -396 411v633h195v-586q0 -145 62.5 -222t220.5 -77q128 0 219.5 89t91.5 223v573h194v-684q0 -112 31.5 -146t142.5 -34z" />
    <glyph glyph-name="Ubreve" unicode="&#x16c;" horiz-adv-x="1564" 
d="M469 1905h121q0 -101 48 -159t144 -58q97 0 145 58t48 159h121q0 -167 -88 -254.5t-226 -87.5t-225.5 87.5t-87.5 254.5zM1202 1434h199v-840q0 -614 -625 -614q-304 0 -458 150.5t-154 463.5v840h198v-840q0 -234 101.5 -342.5t312.5 -108.5q213 0 319.5 109t106.5 342
v840z" />
    <glyph glyph-name="ubreve" unicode="&#x16d;" horiz-adv-x="1325" 
d="M334 1495h121q0 -101 48 -159t144 -58q97 0 145 58t48 159h121q0 -167 -88 -254.5t-226 -87.5t-225.5 87.5t-87.5 254.5zM1300 160v-160h-124q-123 1 -177 47.5t-65 155.5q-62 -104 -166 -163.5t-229 -59.5q-396 0 -396 411v633h195v-586q0 -145 62.5 -222t220.5 -77
q128 0 219.5 89t91.5 223v573h194v-684q0 -112 31.5 -146t142.5 -34z" />
    <glyph glyph-name="Uring" unicode="&#x16e;" horiz-adv-x="1564" 
d="M601 1586q-77 77 -77 183t77 183.5t183 77.5t183 -77.5t77 -183.5t-77 -183t-183 -77t-183 77zM678 1877q-47 -48 -47 -108t46.5 -107.5t106.5 -47.5t108 47.5t48 107.5t-48 108t-108 48t-106 -48zM1202 1434h199v-840q0 -614 -625 -614q-304 0 -458 150.5t-154 463.5
v840h198v-840q0 -234 101.5 -342.5t312.5 -108.5q213 0 319.5 109t106.5 342v840z" />
    <glyph glyph-name="uring" unicode="&#x16f;" horiz-adv-x="1325" 
d="M466 1177q-77 77 -77 183t77 183t183 77t183 -77t77 -183t-77 -183t-183 -77t-183 77zM543 1468q-47 -48 -47 -108t46.5 -108t106.5 -48t108 48t48 108t-48 108t-108 48t-106 -48zM1300 160v-160h-124q-123 1 -177 47.5t-65 155.5q-62 -104 -166 -163.5t-229 -59.5
q-396 0 -396 411v633h195v-586q0 -145 62.5 -222t220.5 -77q128 0 219.5 89t91.5 223v573h194v-684q0 -112 31.5 -146t142.5 -34z" />
    <glyph glyph-name="Uhungarumlaut" unicode="&#x170;" horiz-adv-x="1564" 
d="M879 1550l118 336h148l-139 -336h-127zM553 1550l121 336h147l-139 -336h-129zM1202 1434h199v-840q0 -614 -625 -614q-304 0 -458 150.5t-154 463.5v840h198v-840q0 -234 101.5 -342.5t312.5 -108.5q213 0 319.5 109t106.5 342v840z" />
    <glyph glyph-name="uhungarumlaut" unicode="&#x171;" horiz-adv-x="1325" 
d="M750 1141l118 336h148l-139 -336h-127zM424 1141l121 336h147l-139 -336h-129zM1300 160v-160h-124q-123 1 -177 47.5t-65 155.5q-62 -104 -166 -163.5t-229 -59.5q-396 0 -396 411v633h195v-586q0 -145 62.5 -222t220.5 -77q128 0 219.5 89t91.5 223v573h194v-684
q0 -112 31.5 -146t142.5 -34z" />
    <glyph glyph-name="Uogonek" unicode="&#x172;" horiz-adv-x="1564" 
d="M1202 1434h199v-840q0 -559 -520 -610l4 -2q-33 -43 -46 -60.5t-33 -51t-27 -61t-7 -59.5q0 -106 141 -106q69 0 152 22v-112q-71 -19 -147 -19q-53 0 -97.5 10t-82.5 31.5t-59.5 59.5t-21.5 90q0 45 20.5 94.5t42.5 81.5t58 78q-306 0 -460 150.5t-154 463.5v840h198
v-840q0 -234 101.5 -342.5t312.5 -108.5q213 0 319.5 109t106.5 342v840z" />
    <glyph glyph-name="uogonek" unicode="&#x173;" horiz-adv-x="1325" 
d="M1300 160v-160h-124q-52 0 -97 10q-71 -94 -71 -178q0 -106 141 -106q68 0 151 22v-113q-67 -18 -147 -18q-53 0 -97.5 10t-82 31t-59 59t-21.5 90q0 59 28.5 115t79.5 123q-58 47 -67 158q-62 -104 -166 -163.5t-229 -59.5q-396 0 -396 411v633h195v-586
q0 -145 62.5 -222t220.5 -77q128 0 219.5 89t91.5 223v573h194v-684q0 -112 31.5 -146t142.5 -34z" />
    <glyph glyph-name="Wcircumflex" unicode="&#x174;" horiz-adv-x="2162" 
d="M758 1563l268 309h111l268 -309h-158l-166 202l-163 -202h-160zM535 0l-455 1434h199l354 -1178l344 1178h192l349 -1192l358 1192h207l-463 -1434h-223l-324 1106l-323 -1106h-215z" />
    <glyph glyph-name="wcircumflex" unicode="&#x175;" horiz-adv-x="1609" 
d="M481 1153l269 309h110l268 -309h-157l-166 203l-164 -203h-160zM72 1024h202l203 -772l230 772h198l228 -770l202 770h203l-307 -1024h-197l-229 791l-230 -791h-196z" />
    <glyph glyph-name="Ycircumflex" unicode="&#x176;" horiz-adv-x="1570" 
d="M463 1563l268 309h111l268 -309h-158l-166 202l-163 -202h-160zM686 430l-606 1004h229l477 -824l476 824h229l-606 -1004v-430h-199v430z" />
    <glyph glyph-name="ycircumflex" unicode="&#x177;" horiz-adv-x="1216" 
d="M285 1153l268 309h111l268 -309h-158l-166 203l-164 -203h-159zM1145 1024l-443 -1044q-69 -163 -107 -219q-65 -97 -173 -134q-106 -37 -305 -37v160q106 0 171.5 11t105.5 44t56.5 60t43.5 91q3 7 4.5 11t4.5 10t5 11l8 20l-442 1016h217l325 -803l318 803h211z" />
    <glyph glyph-name="Ydieresis" unicode="&#x178;" horiz-adv-x="1570" 
d="M453 1696q0 51 35.5 86t89.5 35q51 0 85.5 -35t34.5 -86q0 -54 -34.5 -89.5t-85.5 -35.5q-54 0 -89.5 35.5t-35.5 89.5zM872 1696q0 51 35.5 86t89.5 35q51 0 86 -35t35 -86q0 -54 -35 -89.5t-86 -35.5q-54 0 -89.5 35.5t-35.5 89.5zM686 430l-606 1004h229l477 -824
l476 824h229l-606 -1004v-430h-199v430z" />
    <glyph glyph-name="Zacute" unicode="&#x179;" horiz-adv-x="1294" 
d="M571 1550l121 336h148l-140 -336h-129zM1161 1434v-156l-827 -1114h880v-164h-1134v156l829 1114h-813v164h1065z" />
    <glyph glyph-name="zacute" unicode="&#x17a;" horiz-adv-x="1071" 
d="M473 1141l121 336h147l-139 -336h-129zM954 1024v-135l-620 -729h665v-160h-915v137l621 727h-605v160h854z" />
    <glyph glyph-name="Zdotaccent" unicode="&#x17b;" horiz-adv-x="1294" 
d="M524 1694q0 51 35.5 86t89.5 35q51 0 86 -35t35 -86q0 -54 -35 -89.5t-86 -35.5q-54 0 -89.5 35.5t-35.5 89.5zM1161 1434v-156l-827 -1114h880v-164h-1134v156l829 1114h-813v164h1065z" />
    <glyph glyph-name="zdotaccent" unicode="&#x17c;" horiz-adv-x="1071" 
d="M414 1284q0 51 35.5 86t89.5 35q51 0 85.5 -35t34.5 -86q0 -54 -34.5 -89.5t-85.5 -35.5q-54 0 -89.5 35.5t-35.5 89.5zM954 1024v-135l-620 -729h665v-160h-915v137l621 727h-605v160h854z" />
    <glyph glyph-name="Zcaron" unicode="&#x17d;" horiz-adv-x="1294" 
d="M324 1860h157l166 -203l164 203h160l-269 -310h-110zM1161 1434v-156l-827 -1114h880v-164h-1134v156l829 1114h-813v164h1065z" />
    <glyph glyph-name="zcaron" unicode="&#x17e;" horiz-adv-x="1071" 
d="M213 1450h158l166 -203l163 203h160l-268 -309h-111zM954 1024v-135l-620 -729h665v-160h-915v137l621 727h-605v160h854z" />
    <glyph glyph-name="longs" unicode="&#x17f;" horiz-adv-x="763" 
d="M692 1294h-143q-111 0 -158 -45t-47 -155v-1094h-194v1124q0 327 331 330h211v-160z" />
    <glyph glyph-name="florin" unicode="&#x192;" horiz-adv-x="839" 
d="M766 1317h-143q-108 0 -156.5 -55t-48.5 -168v-82h350v-160h-350v-930q0 -329 -330 -332h-213v146h143q110 0 157.5 55t47.5 168v893h-168v160h168v112q0 327 332 330h211v-137z" />
    <glyph glyph-name="uni0218" unicode="&#x218;" horiz-adv-x="1515" 
d="M322 455q0 -63 26 -117.5t78.5 -99t141.5 -70t204 -25.5q204 0 312 65t108 179q0 27 -6 49t-14.5 39.5t-26.5 32t-34 25t-45.5 20.5t-52.5 16t-63.5 14t-69.5 12.5t-80.5 13t-86.5 14.5q-276 49 -405.5 146.5t-129.5 283.5q0 128 77.5 220t206 136.5t294.5 44.5
q133 0 239.5 -26t176 -70t116 -105t66.5 -127t20 -139h-203q0 63 -21.5 115.5t-67.5 95.5t-129 67.5t-197 24.5q-172 0 -273.5 -58.5t-101.5 -174.5q0 -39 10 -68.5t36 -53t57.5 -39.5t89 -32t114 -27.5t148.5 -27.5q83 -14 128.5 -23t114.5 -27t107 -36t84.5 -48.5t70 -67
t40 -88.5t16.5 -116q0 -92 -37.5 -168.5t-111.5 -133.5t-193.5 -89t-274.5 -32q-137 0 -249.5 27t-188 72t-126.5 107t-74 129t-23 140h203zM647 -199q0 43 31 73t76 30q43 0 72.5 -30t29.5 -73q0 -32 -18 -61l-113 -213h-68l74 170q-37 8 -60.5 36.5t-23.5 67.5z" />
    <glyph glyph-name="uni0219" unicode="&#x219;" horiz-adv-x="1181" 
d="M303 324q0 -76 73 -130.5t224 -54.5q270 0 270 137q0 23 -5.5 39.5t-21.5 29.5t-33.5 21.5t-53 17t-68.5 14.5t-90 16q-31 5 -47 8q-99 17 -169 40.5t-126 60.5t-83.5 93t-27.5 132q0 138 120.5 217t309.5 79q101 0 183 -20.5t135.5 -54.5t90 -79t52 -92.5t15.5 -97.5
h-193q0 77 -69.5 131t-215.5 54q-229 0 -229 -125q0 -21 3.5 -37.5t14.5 -30t20.5 -23t32.5 -18.5t38.5 -15t50.5 -13t57 -11t68 -12q64 -11 107.5 -20t94 -23t83 -29.5t65 -38.5t51 -50.5t30 -65.5t11.5 -84q0 -128 -121 -218.5t-332 -90.5q-111 0 -199.5 20.5t-145 54
t-94 79.5t-53 93t-15.5 97h192zM494 -199q0 43 30.5 73t75.5 30q43 0 72.5 -30t29.5 -73q0 -32 -18 -61l-113 -213h-67l74 170q-37 8 -60.5 36.5t-23.5 67.5z" />
    <glyph glyph-name="uni021A" unicode="&#x21a;" horiz-adv-x="1437" 
d="M80 1434h1278v-164h-541v-1270h-199v1270h-538v164zM608 -199q0 43 31 73t76 30q43 0 72.5 -30t29.5 -73q0 -32 -18 -61l-113 -213h-68l74 170q-37 8 -60.5 36.5t-23.5 67.5z" />
    <glyph glyph-name="uni021B" unicode="&#x21b;" horiz-adv-x="868" 
d="M74 1024h172v246h194v-246h357v-160h-357v-495q0 -111 47.5 -160t157.5 -49h152v-160h-219q-332 3 -332 332v532h-172v160zM432 -199q0 43 31 73t76 30q43 0 72.5 -30t29.5 -73q0 -32 -18 -61l-113 -213h-68l74 170q-37 8 -60.5 36.5t-23.5 67.5z" />
    <glyph glyph-name="uni0237" unicode="&#x237;" horiz-adv-x="456" 
d="M98 1360q0 51 38 88t93 37q52 0 88.5 -37t36.5 -88q0 -55 -36 -93t-89 -38q-55 0 -93 37.5t-38 93.5zM-193 -250h117q112 0 159.5 49t47.5 160v1065h195v-1102q0 -332 -332 -332h-187v160z" />
    <glyph glyph-name="circumflex" unicode="&#x2c6;" horiz-adv-x="872" 
d="M113 1153l268 309h111l268 -309h-158l-166 203l-164 -203h-159z" />
    <glyph glyph-name="caron" unicode="&#x2c7;" horiz-adv-x="872" 
d="M113 1450h157l166 -203l164 203h160l-268 -309h-111z" />
    <glyph glyph-name="uni02C9" unicode="&#x2c9;" horiz-adv-x="724" 
d="M113 1321h499v-102h-499v102z" />
    <glyph glyph-name="breve" unicode="&#x2d8;" horiz-adv-x="851" 
d="M113 1495h120q0 -101 48 -159t145 -58q96 0 144 58t48 159h121q0 -167 -87.5 -254.5t-225.5 -87.5t-225.5 87.5t-87.5 254.5z" />
    <glyph glyph-name="dotaccent" unicode="&#x2d9;" horiz-adv-x="471" 
d="M113 1284q0 51 35.5 86t89.5 35q51 0 85.5 -35t34.5 -86q0 -54 -34.5 -89.5t-85.5 -35.5q-54 0 -89.5 35.5t-35.5 89.5z" />
    <glyph glyph-name="ring" unicode="&#x2da;" horiz-adv-x="727" 
d="M182 1177q-78 77 -78 183t77.5 183t183.5 77t183 -77t77 -183t-77 -183t-183 -77t-183 77zM258 1468q-47 -48 -47 -108t47 -108t107 -48t107.5 48t47.5 108t-47.5 108t-107.5 48t-107 -48z" />
    <glyph glyph-name="ogonek" unicode="&#x2db;" horiz-adv-x="632" 
d="M276 31l64 -51q-33 -43 -46 -60.5t-33 -51t-27 -61t-7 -59.5q0 -106 142 -106q68 0 151 22v-113q-68 -18 -147 -18q-71 0 -127 17t-94.5 61.5t-38.5 112.5q0 29 8.5 60t19 54.5t31 54.5t33.5 48t37.5 48t33.5 42z" />
    <glyph glyph-name="tilde" unicode="&#x2dc;" horiz-adv-x="917" 
d="M461 1313q9 -4 27 -11t26 -10t22 -8.5t21.5 -8t17.5 -5t18 -3.5t15 -1q31 0 54 23t49 81l94 -33q-67 -178 -189 -178q-57 0 -167 45q-10 4 -30.5 12t-28.5 10.5t-23 8t-22.5 7.5t-17.5 3.5t-18 1.5q-30 0 -51.5 -23t-48.5 -83l-96 33q38 98 84.5 139t105.5 41
q56 0 158 -41z" />
    <glyph glyph-name="hungarumlaut" unicode="&#x2dd;" horiz-adv-x="817" 
d="M438 1141l119 336h148l-140 -336h-127zM113 1141l120 336h148l-139 -336h-129z" />
    <glyph glyph-name="uni0326" unicode="&#x326;" horiz-adv-x="485" 
d="M139 -199q0 43 31 73t76 30q43 0 72.5 -30t29.5 -73q0 -32 -18 -61l-113 -213h-67l73 170q-37 8 -60.5 36.5t-23.5 67.5z" />
    <glyph glyph-name="uni0394" unicode="&#x394;" horiz-adv-x="1511" 
d="M98 0l574 1434h170l573 -1434h-1317zM319 156h873l-436 1089z" />
    <glyph glyph-name="uni03A9" unicode="&#x3a9;" horiz-adv-x="1765" 
d="M981 156q236 100 345.5 243t109.5 367q0 117 -46.5 217t-123.5 166.5t-177 103.5t-208 37t-207.5 -37t-176.5 -103.5t-123 -166.5t-46 -217q0 -224 108.5 -367t343.5 -243v-156h-655v156h418q-418 223 -418 624q0 123 40.5 231.5t112.5 188.5t167 138t206.5 87t229.5 29
q119 0 230.5 -29t207 -87t167 -138t112 -188.5t40.5 -231.5q0 -404 -417 -624h415v-156h-655v156z" />
    <glyph glyph-name="uni03BC" unicode="&#x3bc;" horiz-adv-x="1300" 
d="M1300 160v-160h-124q-123 1 -177 47.5t-65 155.5q-62 -104 -166 -163.5t-229 -59.5t-201 36v-426h-195v1434h195v-586q0 -145 62.5 -222t220.5 -77q128 0 219.5 89t91.5 223v573h194v-684q0 -112 31.5 -146t142.5 -34z" />
    <glyph glyph-name="pi" unicode="&#x3c0;" horiz-adv-x="1363" 
d="M115 1024h1085v-1024h-199v860h-487l-156 -860h-198l155 860h-200v164z" />
    <glyph glyph-name="Wgrave" unicode="&#x1e80;" horiz-adv-x="2162" 
d="M1118 1550h-129l-141 336h147zM535 0l-455 1434h199l354 -1178l344 1178h192l349 -1192l358 1192h207l-463 -1434h-223l-324 1106l-323 -1106h-215z" />
    <glyph glyph-name="wgrave" unicode="&#x1e81;" horiz-adv-x="1609" 
d="M842 1141h-129l-142 336h148zM72 1024h202l203 -772l230 772h198l228 -770l202 770h203l-307 -1024h-197l-229 791l-230 -791h-196z" />
    <glyph glyph-name="Wacute" unicode="&#x1e82;" horiz-adv-x="2162" 
d="M1047 1550l120 336h148l-139 -336h-129zM535 0l-455 1434h199l354 -1178l344 1178h192l349 -1192l358 1192h207l-463 -1434h-223l-324 1106l-323 -1106h-215z" />
    <glyph glyph-name="wacute" unicode="&#x1e83;" horiz-adv-x="1609" 
d="M770 1141l121 336h147l-139 -336h-129zM72 1024h202l203 -772l230 772h198l228 -770l202 770h203l-307 -1024h-197l-229 791l-230 -791h-196z" />
    <glyph glyph-name="Wdieresis" unicode="&#x1e84;" horiz-adv-x="2162" 
d="M748 1696q0 51 35 86t89 35q51 0 86 -35t35 -86q0 -54 -35 -89.5t-86 -35.5q-54 0 -89 35.5t-35 89.5zM1167 1696q0 51 35.5 86t89.5 35q51 0 86 -35t35 -86q0 -54 -35 -89.5t-86 -35.5q-54 0 -89.5 35.5t-35.5 89.5zM535 0l-455 1434h199l354 -1178l344 1178h192
l349 -1192l358 1192h207l-463 -1434h-223l-324 1106l-323 -1106h-215z" />
    <glyph glyph-name="wdieresis" unicode="&#x1e85;" horiz-adv-x="1609" 
d="M473 1286q0 51 35.5 86t89.5 35q51 0 86 -35t35 -86q0 -54 -35 -89.5t-86 -35.5q-54 0 -89.5 35.5t-35.5 89.5zM893 1286q0 51 35.5 86t89.5 35q51 0 86 -35t35 -86q0 -54 -35 -89.5t-86 -35.5q-54 0 -89.5 35.5t-35.5 89.5zM72 1024h202l203 -772l230 772h198l228 -770
l202 770h203l-307 -1024h-197l-229 791l-230 -791h-196z" />
    <glyph glyph-name="endash" unicode="&#x2013;" horiz-adv-x="1095" 
d="M139 580h819v-134h-819v134z" />
    <glyph glyph-name="emdash" unicode="&#x2014;" horiz-adv-x="1300" 
d="M139 580h1024v-134h-1024v134z" />
    <glyph glyph-name="quoteleft" unicode="&#x2018;" horiz-adv-x="569" 
d="M432 1085q0 -60 -42.5 -101.5t-106.5 -41.5q-60 0 -102 41.5t-42 101.5q0 47 27 89l149 280h107l-100 -223q50 -12 80 -52t30 -94z" />
    <glyph glyph-name="quoteright" unicode="&#x2019;" horiz-adv-x="569" 
d="M139 1311q0 60 43 101.5t107 41.5q60 0 101.5 -41.5t41.5 -101.5q0 -47 -26 -88l-150 -281h-106l100 223q-50 12 -80.5 52t-30.5 94z" />
    <glyph glyph-name="quotesinglbase" unicode="&#x201a;" horiz-adv-x="497" 
d="M139 49q0 45 32 77t81 32q44 0 76 -32.5t32 -76.5q0 -37 -14 -59l-123 -230h-73l77 179q-40 8 -64 37.5t-24 72.5z" />
    <glyph glyph-name="quotedblleft" unicode="&#x201c;" horiz-adv-x="980" 
d="M844 1085q0 -60 -43 -101.5t-107 -41.5q-60 0 -101.5 41.5t-41.5 101.5q0 47 27 89l149 280h107l-101 -223q50 -12 80.5 -52t30.5 -94zM432 1085q0 -60 -42.5 -101.5t-106.5 -41.5q-60 0 -102 41.5t-42 101.5q0 47 27 89l149 280h107l-100 -223q50 -12 80 -52t30 -94z
" />
    <glyph glyph-name="quotedblright" unicode="&#x201d;" horiz-adv-x="980" 
d="M139 1311q0 60 43 101.5t107 41.5q60 0 101.5 -41.5t41.5 -101.5q0 -47 -26 -88l-150 -281h-106l100 223q-50 12 -80.5 52t-30.5 94zM551 1311q0 60 42.5 101.5t106.5 41.5q60 0 102 -41.5t42 -101.5q0 -46 -27 -88l-149 -281h-107l101 223q-50 12 -80.5 52t-30.5 94z
" />
    <glyph glyph-name="quotedblbase" unicode="&#x201e;" horiz-adv-x="727" 
d="M156 -123v451h149l-41 -451h-108zM422 -123v451h149l-41 -451h-108z" />
    <glyph glyph-name="dagger" unicode="&#x2020;" horiz-adv-x="884" 
d="M362 1434h158v-410h258v-158h-258v-1276h-158v1276h-258v158h258v410z" />
    <glyph glyph-name="daggerdbl" unicode="&#x2021;" horiz-adv-x="884" 
d="M104 1085h258v349h158v-349h258v-157h-258v-832h258v-157h-258v-349h-158v349h-258v157h258v832h-258v157z" />
    <glyph glyph-name="bullet" unicode="&#x2022;" horiz-adv-x="772" 
d="M164 514q0 93 64.5 156t160.5 63q92 0 155.5 -63.5t63.5 -155.5q0 -96 -63 -160.5t-156 -64.5q-97 0 -161 64t-64 161z" />
    <glyph glyph-name="ellipsis" unicode="&#x2026;" horiz-adv-x="1708" 
d="M139 129q0 60 43 101.5t107 41.5q60 0 101.5 -41.5t41.5 -101.5q0 -64 -41.5 -106.5t-101.5 -42.5q-65 0 -107.5 42.5t-42.5 106.5zM709 129q0 60 42.5 101.5t106.5 41.5q60 0 101.5 -41.5t41.5 -101.5q0 -64 -41.5 -106.5t-101.5 -42.5q-64 0 -106.5 42t-42.5 107z
M1278 129q0 60 42.5 101.5t106.5 41.5q60 0 102 -41.5t42 -101.5q0 -64 -41.5 -106.5t-102.5 -42.5q-65 0 -107 42t-42 107z" />
    <glyph glyph-name="perthousand" unicode="&#x2030;" horiz-adv-x="2992" 
d="M210 687q-104 117 -104 325t103 325t283 117q179 0 282 -117t103 -325t-103 -325.5t-282 -117.5t-282 118zM694 0l574 1434h127l-574 -1434h-127zM687 1266q-69 90 -195 90t-195.5 -90t-69.5 -254q0 -163 69.5 -253.5t195.5 -90.5t195 90.5t69 253.5q0 164 -69 254z
M1315 97q-103 117 -103 325t103 325t282 117t282 -117t103 -325t-103 -325t-282 -117t-282 117zM2219 97q-103 117 -103 325t102.5 325t280.5 117q179 0 282 -117t103 -325t-103 -325t-282 -117q-178 0 -280 117zM1793 676q-70 90 -196 90t-195 -90t-69 -254
q0 -163 69 -253.5t195 -90.5t195.5 90.5t69.5 253.5q0 164 -69 254zM2499 766q-125 0 -194 -90t-69 -254q0 -163 69.5 -253.5t193.5 -90.5q126 0 195 90.5t69 253.5q0 164 -69 254t-195 90z" />
    <glyph glyph-name="guilsinglleft" unicode="&#x2039;" horiz-adv-x="651" 
d="M113 512l260 453h166l-263 -453l263 -453h-166z" />
    <glyph glyph-name="guilsinglright" unicode="&#x203a;" horiz-adv-x="651" 
d="M539 512l-260 -453h-166l262 453l-262 453h166z" />
    <glyph glyph-name="fraction" unicode="&#x2044;" horiz-adv-x="911" 
d="M104 0l574 1434h127l-574 -1434h-127z" />
    <glyph glyph-name="Euro" unicode="&#x20ac;" horiz-adv-x="1693" 
d="M-61 934h247q63 243 257.5 383.5t449.5 140.5q129 0 241 -34t190 -90t134 -128t82.5 -148t26.5 -151h-203q0 69 -32.5 137.5t-91 124.5t-149.5 90.5t-198 34.5q-171 0 -308 -92.5t-192 -267.5h649v-103h-671q-9 -79 -9 -110q0 -44 7 -98h673v-103h-653q53 -181 192 -277
t312 -96q107 0 198 35t149.5 91t91 124.5t32.5 137.5h203q0 -75 -26.5 -151t-82.5 -148t-134 -128t-190 -90t-241 -34q-169 0 -315.5 63t-251 185.5t-144.5 287.5h-243v103h227q-6 49 -6 98q0 57 6 110h-227v103z" />
    <glyph glyph-name="trademark" unicode="&#x2122;" horiz-adv-x="1769" 
d="M113 1434h639v-82h-269v-635h-100v635h-270v82zM872 1434h97l297 -600l295 600h96v-717h-96v526l-254 -526h-86l-252 522v-522h-97v717z" />
    <glyph glyph-name="partialdiff" unicode="&#x2202;" horiz-adv-x="1312" 
d="M131 467q0 148 75 260t196 168.5t266 56.5l18 -2h10l-377 484h238l502 -648q123 -133 123 -319q0 -146 -73 -258.5t-191.5 -170.5t-260.5 -58q-140 0 -258.5 58t-193 171t-74.5 258zM657 143q129 0 225.5 89.5t96.5 234.5q0 143 -96.5 232t-225.5 89q-84 0 -157 -38
t-119.5 -112.5t-46.5 -170.5q0 -145 96 -234.5t227 -89.5z" />
    <glyph glyph-name="product" unicode="&#x220f;" horiz-adv-x="1286" 
d="M164 1434h958v-1844h-159v1688h-639v-1688h-160v1844z" />
    <glyph glyph-name="summation" unicode="&#x2211;" horiz-adv-x="1159" 
d="M1053 1434v-142h-729l311 -780l-311 -780h729v-142h-949l369 922l-369 922h949z" />
    <glyph glyph-name="minus" unicode="&#x2212;" horiz-adv-x="972" 
d="M139 580h697v-134h-697v134z" />
    <glyph glyph-name="uni2215" unicode="&#x2215;" horiz-adv-x="1034" 
d="M104 0l697 1434h127l-697 -1434h-127z" />
    <glyph glyph-name="uni2219" unicode="&#x2219;" horiz-adv-x="620" 
d="M164 514q0 60 42.5 101.5t106.5 41.5q60 0 102 -41.5t42 -101.5q0 -64 -41.5 -106.5t-102.5 -42.5q-65 0 -107 42.5t-42 106.5z" />
    <glyph glyph-name="radical" unicode="&#x221a;" horiz-adv-x="1632" 
d="M106 651h412l266 -692l584 1477h158l-656 -1641h-172l-276 701h-316v155z" />
    <glyph glyph-name="infinity" unicode="&#x221e;" horiz-adv-x="1269" 
d="M1157 608q0 -118 -84 -202t-203 -84q-75 0 -136 35t-97 96q-38 -60 -100.5 -95.5t-135.5 -35.5q-120 0 -204 83.5t-84 202.5q0 120 84 203.5t204 83.5q74 0 136.5 -35t99.5 -96q36 60 97 95.5t136 35.5q119 0 203 -83.5t84 -203.5zM680 608q0 -78 56 -134t134 -56
t134.5 56t56.5 134q0 79 -56.5 135t-134.5 56t-134 -56t-56 -135zM594 606q0 78 -56.5 134.5t-134.5 56.5q-79 0 -135.5 -56.5t-56.5 -134.5q0 -79 56 -134.5t136 -55.5q78 0 134.5 55.5t56.5 134.5z" />
    <glyph glyph-name="integral" unicode="&#x222b;" horiz-adv-x="845" 
d="M750 1294q-129 0 -179.5 -57t-50.5 -174v-1135q0 -78 -10.5 -130t-36.5 -94t-74.5 -65.5t-121.5 -35.5t-179 -13v160q127 0 177.5 57.5t50.5 174.5v1134q0 78 10.5 130t37 94t75 65.5t121.5 35.5t180 13v-160z" />
    <glyph glyph-name="approxequal" unicode="&#x2248;" horiz-adv-x="1294" 
d="M158 838q43 110 100.5 159.5t142.5 49.5q95 0 258 -66q177 -70 234 -70q45 0 76 27.5t57 91.5l21 47l108 -45l-18 -47q-43 -110 -99.5 -159.5t-138.5 -49.5q-92 0 -260 68q-165 67 -236 67q-46 0 -77.5 -27t-57.5 -89l-20 -50l-109 46z" />
    <glyph glyph-name="notequal" unicode="&#x2260;" horiz-adv-x="1017" 
d="M205 -203l147 469h-192v133h233l72 226h-305v133h346l149 473h158l-149 -473h192v-133h-233l-72 -226h305v-133h-346l-148 -469h-157z" />
    <glyph glyph-name="lessequal" unicode="&#x2264;" horiz-adv-x="970" 
d="M104 750l760 436v-170l-575 -314l575 -317v-168l-760 434v99zM104 133h760v-133h-760v133z" />
    <glyph glyph-name="greaterequal" unicode="&#x2265;" horiz-adv-x="970" 
d="M864 750v-99l-760 -434v168l578 317l-578 314v170zM864 133v-133h-760v133h760z" />
    <glyph glyph-name="uni24C5" unicode="&#x24c5;" horiz-adv-x="1753" 
d="M198 431q-59 136 -59 286t58.5 286.5t157 235.5t235.5 157t287 58q200 0 369.5 -98.5t268.5 -268t99 -370.5q0 -200 -99 -369.5t-268.5 -268.5t-369.5 -99q-150 0 -287 58.5t-235.5 157.5t-156.5 235zM257 979q-54 -125 -54 -262t53.5 -262t143.5 -215t215 -143.5
t262 -53.5t261.5 53.5t214.5 143.5t143.5 215t53.5 262t-53.5 262t-143.5 215t-214.5 143.5t-261.5 53.5t-262 -53.5t-215 -143.5t-143 -215zM940 1069q26 0 54.5 -4.5t65.5 -19.5t65.5 -38t48.5 -65.5t20 -97.5t-20 -98t-48.5 -68t-65 -41t-66 -21.5t-54.5 -5.5h-213v-243
h-113v702h326zM727 700h205q20 0 42.5 6t47.5 20.5t41 44t16 69.5q0 41 -16 70.5t-41 43.5t-47.5 19.5t-42.5 5.5h-205v-279z" />
    <glyph glyph-name="lozenge" unicode="&#x25ca;" horiz-adv-x="1101" 
d="M98 510l369 924h170l369 -924l-369 -920h-170zM844 510l-293 733l-293 -733l293 -731z" />
    <glyph glyph-name="fi" unicode="&#xfb01;" horiz-adv-x="1312" 
d="M956 1360q0 51 38 88t93 37q52 0 88.5 -37t36.5 -88q0 -55 -36 -93t-89 -38q-55 0 -93 37.5t-38 93.5zM72 1024h168v100q0 327 329 330h213v-160h-143q-115 0 -160 -42.5t-45 -157.5v-70h748v-1024h-195v864h-553v-864h-194v864h-168v160z" />
    <glyph glyph-name="fl" unicode="&#xfb02;" horiz-adv-x="1394" 
d="M72 1024h168v100q0 327 329 330h625v-1114q0 -112 31.5 -146t142.5 -34v-160h-125q-140 1 -192 62t-52 210v1022h-360q-115 0 -160 -42.5t-45 -157.5v-70h328v-160h-328v-864h-194v864h-168v160z" />
    <glyph glyph-name="zero.lnum_tnum" horiz-adv-x="1638" 
d="M348 176q-172 196 -172 541t172 541t469 196q298 0 470.5 -196t172.5 -541t-172.5 -541t-470.5 -196q-297 0 -469 196zM1142 1140q-116 150 -325 150t-323.5 -149.5t-114.5 -423.5q0 -272 114.5 -423t323.5 -151t324.5 151t115.5 423q0 273 -115 423z" />
    <glyph glyph-name="one.lnum_tnum" horiz-adv-x="1638" 
d="M1038 1434h142v-1434h-199v1227l-461 -211l-61 151z" />
    <glyph glyph-name="two.lnum_tnum" horiz-adv-x="1638" 
d="M307 164l520 461q114 101 170.5 169t74.5 117.5t18 116.5q0 71 -25.5 123.5t-71 82t-99.5 43t-118 13.5q-73 0 -129.5 -21t-91.5 -55t-58 -81.5t-31.5 -97t-8.5 -105.5h-203q0 76 15 146.5t52.5 140.5t94 121.5t148 83.5t206.5 32q106 0 196.5 -23.5t165 -73t117.5 -135
t43 -200.5q0 -59 -13.5 -110t-51.5 -116.5t-113.5 -145t-191.5 -177.5l-367 -309h827v-164h-1075v164z" />
    <glyph glyph-name="three.lnum_tnum" horiz-adv-x="1562" 
d="M639 641v162h166q126 0 185 54.5t59 182.5q0 126 -83 188t-221 62q-84 0 -142 -23t-89 -67t-44 -97t-13 -124h-203q0 76 16 143.5t53 129t92.5 106t140.5 70.5t192 26q220 0 357.5 -101.5t137.5 -289.5q0 -250 -201 -334q132 -32 208.5 -111.5t76.5 -205.5
q0 -107 -42 -190.5t-116.5 -135t-171 -78t-209.5 -26.5q-111 0 -204 27t-156.5 72t-108.5 106t-65.5 127.5t-20.5 136.5h203q0 -129 89 -217.5t261 -88.5q95 0 169.5 28.5t121.5 91t47 151.5q0 123 -77.5 174t-219.5 51h-188z" />
    <glyph glyph-name="four.lnum_tnum" horiz-adv-x="1638" 
d="M999 1434h193v-871h266v-164h-266v-399h-199v399h-815v123zM422 563h571v641z" />
    <glyph glyph-name="five.lnum_tnum" horiz-adv-x="1638" 
d="M391 680l103 754h770v-164h-594l-56 -406q109 72 248 72q86 0 169.5 -31t152 -89t111 -150.5t42.5 -204.5q0 -144 -70.5 -255t-186 -168.5t-253.5 -57.5q-103 0 -197.5 33t-168 93t-117 151.5t-43.5 201.5h203q0 -143 92.5 -229.5t222.5 -86.5t223 86t93 226
q0 146 -91.5 231.5t-218.5 85.5q-143 0 -235 -92h-199z" />
    <glyph glyph-name="six.lnum_tnum" horiz-adv-x="1638" 
d="M809 952q145 0 266 -56.5t196 -168.5t75 -260q0 -145 -74.5 -258t-193.5 -171t-259 -58q-142 0 -260.5 58t-191 170.5t-72.5 258.5q0 183 121 317l495 650h238l-371 -484h10zM819 143q131 0 227.5 89.5t96.5 234.5q0 143 -96.5 232t-227.5 89q-129 0 -225 -89t-96 -232
q0 -145 96 -234.5t225 -89.5z" />
    <glyph glyph-name="seven.lnum_tnum" horiz-adv-x="1638" 
d="M1300 1434v-156l-573 -1278h-221l581 1270h-749v164h962z" />
    <glyph glyph-name="eight.lnum_tnum" horiz-adv-x="1638" 
d="M447 1351q142 103 372 103t372 -103t142 -288q0 -109 -55 -191t-152 -131q115 -47 181.5 -132t66.5 -206q0 -136 -77.5 -233.5t-201 -143.5t-276.5 -46t-276.5 46t-201 143.5t-77.5 233.5q0 121 66.5 206t181.5 132q-97 49 -152 131t-55 191q0 185 142 288zM591 878
q83 -61 228 -61t227 60.5t82 177.5q0 116 -82 175.5t-227 59.5t-228 -59.5t-83 -175.5q0 -117 83 -177zM565 208q98 -65 254 -65t254 64.5t98 191.5t-98 190.5t-254 63.5t-254 -63.5t-98 -190.5t98 -191z" />
    <glyph glyph-name="nine.lnum_tnum" horiz-adv-x="1638" 
d="M831 481q-108 0 -205 33.5t-170.5 94.5t-117 154t-43.5 204q0 145 74.5 258t193 171t258.5 58q142 0 260.5 -58t191.5 -170.5t73 -258.5q0 -184 -121 -318l-496 -649h-237l370 483h-10zM821 1290q-131 0 -227 -89t-96 -234q0 -96 46.5 -171t119.5 -113t157 -38
q129 0 225.5 89.5t96.5 232.5q0 97 -46.5 172t-119.5 113t-156 38z" />
    </font>
</defs>
</svg>
