<svg width="32" height="32" viewBox="0 0 32 32" fill="none" xmlns="http://www.w3.org/2000/svg">
<g clip-path="url(#clip0_1131_1455)">
<path fill-rule="evenodd" clip-rule="evenodd" d="M17.036 6.08916C18.6474 4.01013 20.8885 4 20.8885 4C20.8885 4 21.222 5.95339 19.6209 7.83587C17.9101 9.846 15.9672 9.51773 15.9672 9.51773C15.9672 9.51773 15.6027 7.93718 17.036 6.08916Z" fill="white"/>
<path fill-rule="evenodd" clip-rule="evenodd" d="M16.1718 10.8879C17.0003 10.8879 18.5392 9.77344 20.5442 9.77344C23.9928 9.77344 25.3495 12.1747 25.3495 12.1747C25.3495 12.1747 22.6962 13.5019 22.6962 16.7218C22.6962 20.355 26.002 21.6073 26.002 21.6073C26.002 21.6073 23.6925 27.97 20.5711 27.97C19.1378 27.97 18.0235 27.0257 16.5136 27.0257C15.0036 27.0257 13.4481 28.0065 12.4518 28.0065C9.60179 28.0065 6.00195 21.972 6.00195 17.121C6.00195 12.2699 9.04669 9.83828 11.905 9.83828C13.7629 9.83828 15.2045 10.8859 16.1718 10.8859V10.8879Z" fill="white"/>
</g>
<defs>
<clipPath id="clip0_1131_1455">
<rect width="20" height="24" fill="white" transform="translate(6 4)"/>
</clipPath>
</defs>
</svg>
