<svg width="223" height="168" viewBox="0 0 223 168" fill="none" xmlns="http://www.w3.org/2000/svg">
<path d="M0 133.671C0 129.531 3.35554 126.176 7.49481 126.176H215.044C219.183 126.176 222.538 129.531 222.538 133.671C222.538 137.81 219.183 141.165 215.044 141.165H7.4948C3.35553 141.165 0 137.81 0 133.671Z" fill="white" fill-opacity="0.5"/>
<rect x="2.30566" y="127.328" width="179.876" height="12.6835" rx="6.34177" fill="#E48011"/>
<path d="M0 160.19C0 156.051 3.35554 152.695 7.49481 152.695H215.044C219.183 152.695 222.538 156.051 222.538 160.19C222.538 164.329 219.183 167.685 215.044 167.685H7.4948C3.35553 167.685 0 164.329 0 160.19Z" fill="white" fill-opacity="0.5"/>
<path d="M2.30566 160.189C2.30566 156.687 5.14497 153.848 8.64743 153.848H68.6059C72.1084 153.848 74.9477 156.687 74.9477 160.189C74.9477 163.692 72.1084 166.531 68.6059 166.531H8.64743C5.14497 166.531 2.30566 163.692 2.30566 160.189Z" fill="#FFDC60"/>
<mask id="path-5-inside-1_1297_85" fill="white">
<path d="M120.226 11.2143C111.148 9.28467 101.693 10.2785 93.2141 14.0534C84.7357 17.8282 77.6699 24.1903 73.0295 32.2277C68.3891 40.2651 66.4122 49.5653 67.3824 58.7953C68.3525 68.0253 72.2197 76.7112 78.4298 83.6082C84.6399 90.5052 92.874 95.2592 101.952 97.1888C111.03 99.1184 120.486 98.1245 128.964 94.3497C137.443 90.5748 144.509 84.2128 149.149 76.1754C153.789 68.1379 155.766 58.8377 154.796 49.6078L111.089 54.2015L120.226 11.2143Z"/>
</mask>
<path d="M120.226 11.2143C111.148 9.28467 101.693 10.2785 93.2141 14.0534C84.7357 17.8282 77.6699 24.1903 73.0295 32.2277C68.3891 40.2651 66.4122 49.5653 67.3824 58.7953C68.3525 68.0253 72.2197 76.7112 78.4298 83.6082C84.6399 90.5052 92.874 95.2592 101.952 97.1888C111.03 99.1184 120.486 98.1245 128.964 94.3497C137.443 90.5748 144.509 84.2128 149.149 76.1754C153.789 68.1379 155.766 58.8377 154.796 49.6078L111.089 54.2015L120.226 11.2143Z" fill="#E48011" stroke="#E48011" stroke-width="2.92984" mask="url(#path-5-inside-1_1297_85)"/>
<path d="M128.909 1.19034C138.558 3.40704 147.256 8.62126 153.759 16.0857C160.262 23.5501 164.234 32.8815 165.107 42.7424L118.413 46.8775L128.909 1.19034Z" fill="#FFDC60"/>
</svg>
