<svg width="239" height="102" viewBox="0 0 239 102" fill="none" xmlns="http://www.w3.org/2000/svg">
<path d="M0 47.0085C0 40.6935 5.1193 35.5742 11.4343 35.5742C17.7493 35.5742 22.8686 40.6935 22.8686 47.0085V90.2047C22.8686 96.5197 17.7493 101.639 11.4343 101.639C5.1193 101.639 0 96.5197 0 90.2047V47.0085Z" fill="#E9AA65"/>
<path d="M43.1963 11.4343C43.1963 5.1193 48.3156 0 54.6306 0C60.9456 0 66.0649 5.11931 66.0649 11.4343V90.2038C66.0649 96.5188 60.9456 101.638 54.6306 101.638C48.3156 101.638 43.1963 96.5188 43.1963 90.2038V11.4343Z" fill="#E48011"/>
<path d="M86.3926 60.9812C86.3926 54.6662 91.5119 49.5469 97.8269 49.5469C104.142 49.5469 109.261 54.6662 109.261 60.9812V90.2021C109.261 96.5171 104.142 101.636 97.8269 101.636C91.5119 101.636 86.3926 96.5171 86.3926 90.2021V60.9812Z" fill="#E9AA65"/>
<path d="M129.589 36.8445C129.589 30.5295 134.708 25.4102 141.023 25.4102C147.338 25.4102 152.457 30.5295 152.457 36.8444V90.2044C152.457 96.5194 147.338 101.639 141.023 101.639C134.708 101.639 129.589 96.5194 129.589 90.2045V36.8445Z" fill="#E48011"/>
<path d="M172.785 82.5788C172.785 76.2638 177.904 71.1445 184.219 71.1445C190.534 71.1445 195.654 76.2638 195.654 82.5788V90.2017C195.654 96.5167 190.534 101.636 184.219 101.636C177.904 101.636 172.785 96.5167 172.785 90.2017V82.5788Z" fill="#E9AA65"/>
<path d="M215.98 25.407C215.98 19.092 221.1 13.9727 227.415 13.9727C233.73 13.9727 238.849 19.092 238.849 25.4069V90.2012C238.849 96.5162 233.73 101.636 227.415 101.636C221.1 101.636 215.98 96.5162 215.98 90.2012V25.407Z" fill="#E48011"/>
</svg>
