<svg width="32" height="32" viewBox="0 0 32 32" fill="none" xmlns="http://www.w3.org/2000/svg">
<path d="M14.7639 15.1328L4.09082 26.3001C4.09082 26.3001 4.09082 26.3001 4.09082 26.3062C4.41941 27.5153 5.53905 28.4145 6.87167 28.4145C7.40715 28.4145 7.90612 28.2748 8.33207 28.0257L8.36858 28.0074L20.3804 21.1782L14.7578 15.145L14.7639 15.1328Z" fill="#EA4335"/>
<path d="M25.5646 13.2367H25.5524L20.368 10.2656L14.5264 15.3936L20.3923 21.1717L25.5463 18.2371C26.453 17.7571 27.0676 16.8153 27.0676 15.7338C27.0676 14.6523 26.4651 13.7228 25.5646 13.2367Z" fill="#FBBC04"/>
<path d="M4.09736 5.10938C4.03042 5.34026 4 5.58936 4 5.83847V25.5666C4.01217 25.8521 4.03042 26.0648 4.09736 26.2957L15.1356 15.4139L4.09736 5.10938Z" fill="#4285F4"/>
<path d="M14.843 15.7045L20.3621 10.2606L8.36858 3.40708C7.93046 3.15189 7.4254 3 6.87775 3C5.54513 3 4.41941 3.89314 4.09082 5.1083L14.843 15.7045Z" fill="#34A853"/>
</svg>
