<svg width="73" height="44" viewBox="0 0 73 44" fill="none" xmlns="http://www.w3.org/2000/svg">
<path d="M21.7716 43.2727C33.7958 43.2727 43.5433 33.5858 43.5433 21.6364C43.5433 9.68693 33.7958 0 21.7716 0C9.74749 0 0 9.68693 0 21.6364C0 33.5858 9.74749 43.2727 21.7716 43.2727Z" fill="#D2D2D2"/>
<path d="M50.8004 43.2727C62.8246 43.2727 72.5721 33.5858 72.5721 21.6364C72.5721 9.68693 62.8246 0 50.8004 0C38.7763 0 29.0288 9.68693 29.0288 21.6364C29.0288 33.5858 38.7763 43.2727 50.8004 43.2727Z" fill="white"/>
<path d="M36.2853 5.51172C40.7393 9.47349 43.5429 15.23 43.5429 21.6379C43.5429 28.0458 40.7393 33.8023 36.2853 37.7641C31.8313 33.8023 29.0278 28.0458 29.0278 21.6379C29.0278 15.23 31.8313 9.47349 36.2853 5.51172Z" fill="#838383"/>
</svg>
