<svg width="32" height="32" viewBox="0 0 32 32" fill="none" xmlns="http://www.w3.org/2000/svg">
<path d="M26.8702 16.7317V16.3152C26.8702 15.8199 26.4645 15.4146 25.9687 15.4146H25.1573C24.6615 15.4146 24.2558 15.8199 24.2558 16.3152V16.7317H22.7346L22.4416 21.3358H28.6957L28.4028 16.7317H26.8702ZM24.7066 16.3039C24.7066 16.0563 24.9094 15.8537 25.1573 15.8537H25.9687C26.2166 15.8537 26.4194 16.0563 26.4194 16.3039V16.7205H24.7066V16.3039ZM22.9149 20.8856L23.1515 17.1707H24.2558V18.0263C24.2558 18.0488 24.2671 18.06 24.2896 18.06H24.6728C24.6953 18.06 24.7066 18.0488 24.7066 18.0263V17.1707H26.4194V18.0263C26.4194 18.0488 26.4307 18.06 26.4533 18.06H26.8364C26.8589 18.06 26.8702 18.0488 26.8702 18.0263V17.1707H27.9745L28.2112 20.8856H22.9149ZM10.7446 13.1182V14.8068H11.6912V13.0507C11.6912 11.9475 10.9249 11.4296 10.1924 11.4296C9.8318 11.4296 9.51628 11.576 9.32471 11.8124H9.31344V11.531H8.36686V14.8068H9.31344V13.2083C9.31344 12.5666 9.66277 12.2964 10.0572 12.2964C10.3276 12.2964 10.7446 12.4765 10.7446 13.1182ZM12.5025 14.8068H13.4491V12.2964H14.0914V11.5197H13.4491V10.6191H12.5025V11.5197H11.8715V12.2964H12.5025V14.8068ZM6.77796 14.8068H7.72454V11.531H6.77796V14.8068ZM7.25125 11.1032C7.55551 11.1032 7.80342 10.8555 7.80342 10.5516C7.80342 10.2477 7.55551 10 7.25125 10C6.94699 10 6.69908 10.2477 6.69908 10.5516C6.69908 10.8555 6.94699 11.1032 7.25125 11.1032ZM15.8831 11.4296C14.8915 11.4296 14.1703 12.2964 14.1703 13.1632C14.1703 14.0525 14.914 14.9081 15.8944 14.9081C16.6043 14.9081 17.1903 14.5028 17.4495 14.0075L16.672 13.7373C16.4691 13.9962 16.2212 14.1088 15.8944 14.1088C15.5563 14.1088 15.1732 13.8949 15.0831 13.4672H17.01C17.427 13.4672 17.6411 13.3884 17.6411 13.0732C17.6073 12.3977 17.0213 11.4296 15.8831 11.4296ZM15.0831 12.8143C15.2295 12.3977 15.5676 12.2402 15.8944 12.2402C16.3677 12.2402 16.6381 12.5441 16.7283 12.8143H15.0831ZM24.2108 14.5591H24.222V14.7955H25.1799V10.1914H24.222V11.7674H24.2108C24.1319 11.6548 23.7826 11.4296 23.3318 11.4296C22.3965 11.4296 21.5964 12.2064 21.5964 13.1632C21.5964 14.1201 22.3852 14.8968 23.3318 14.8968C23.7826 14.9081 24.1319 14.6717 24.2108 14.5591ZM22.4866 13.1632C22.4866 12.6792 22.8698 12.2739 23.3656 12.2739C23.8614 12.2739 24.2333 12.6679 24.2333 13.1632C24.2333 13.6585 23.8614 14.0525 23.3656 14.0525C22.8698 14.0525 22.4866 13.6585 22.4866 13.1632ZM27.2533 14.9081C28.2225 14.9081 29 14.1313 29 13.1745C29 12.2176 28.2225 11.4409 27.2533 11.4409C26.2842 11.4409 25.5067 12.2176 25.5067 13.1745C25.5067 14.1201 26.2842 14.9081 27.2533 14.9081ZM27.2533 12.2852C27.7266 12.2852 28.121 12.6792 28.121 13.1632C28.121 13.6473 27.7379 14.0413 27.2533 14.0413C26.7801 14.0413 26.3856 13.6473 26.3856 13.1632C26.3856 12.6792 26.7801 12.2852 27.2533 12.2852ZM3.02546 11.9475L4.95242 14.4916C5.15526 14.7505 5.34683 14.8293 5.49332 14.8293C5.85392 14.8293 6.04549 14.6154 6.04549 14.3002V10.1914H5.02003V13.0394L3.09307 10.5066C2.89023 10.2477 2.69866 10.1689 2.55217 10.1689C2.19157 10.1689 2 10.3827 2 10.6979V14.8068H3.02546V11.9475ZM18.9032 13.2083C18.9032 12.5666 19.2525 12.2964 19.6469 12.2964C19.9174 12.2964 20.3343 12.4653 20.3343 13.1182V14.8068H21.2922V13.0507C21.2922 11.9475 20.5259 11.4296 19.7934 11.4296C19.4328 11.4296 19.1173 11.576 18.9257 11.8124H18.9032V11.531H17.9566V14.8068H18.9032V13.2083ZM6.12437 15.8987L5.42571 16.8668V16.878H5.43698L6.47371 16.2814C6.48497 16.2814 6.48497 16.2702 6.47371 16.2589L6.14691 15.8874C6.13564 15.8987 6.12437 15.8987 6.12437 15.8987ZM12.0856 17.2946C11.725 17.2946 11.4094 17.4409 11.2179 17.6773H11.2066V16.0563H10.26V20.6604H11.2066V19.0732C11.2066 18.4315 11.5559 18.1614 11.9503 18.1614C12.2208 18.1614 12.6377 18.3302 12.6377 18.9831V20.6717H13.5956V18.9156C13.5843 17.8124 12.8293 17.2946 12.0856 17.2946ZM15.6578 17.2946C14.6886 17.2946 13.9111 18.0713 13.9111 19.0281C13.9111 19.985 14.6886 20.7617 15.6578 20.7617C16.6269 20.7617 17.4044 19.985 17.4044 19.0281C17.4044 18.0713 16.6269 17.2946 15.6578 17.2946ZM15.6578 19.9174C15.1845 19.9174 14.7901 19.5235 14.7901 19.0394C14.7901 18.5553 15.1732 18.1614 15.6578 18.1614C16.1311 18.1614 16.5255 18.5553 16.5255 19.0394C16.5142 19.5235 16.1311 19.9174 15.6578 19.9174ZM19.568 17.2946C19.1173 17.2946 18.7679 17.5197 18.6891 17.6323H18.6778V17.3959H17.7312V22H18.6778V20.424H18.6891C18.7679 20.5366 19.1173 20.7617 19.568 20.7617C20.5033 20.7617 21.2922 19.9737 21.2922 19.0281C21.3034 18.0826 20.5146 17.2946 19.568 17.2946ZM19.5342 19.9174C19.0384 19.9174 18.6665 19.5235 18.6665 19.0281C18.6665 18.5328 19.0384 18.1388 19.5342 18.1388C20.0301 18.1388 20.4132 18.5328 20.4132 19.0281C20.4132 19.5235 20.0413 19.9174 19.5342 19.9174ZM4.33264 19.9287C4.06219 19.9287 3.7692 19.8161 3.61144 19.6248L5.52713 18.5103C5.9328 18.2739 6.12437 18.0713 5.95534 17.7561C5.68489 17.3283 4.98623 16.8668 4.24249 16.8668C3.18322 16.8668 2.31553 17.8011 2.31553 18.8368C2.31553 19.9512 3.29591 20.818 4.36644 20.818C5.3581 20.818 6.24833 20.1088 6.29341 19.0732H5.31302C5.26795 19.5347 4.87354 19.9287 4.33264 19.9287ZM4.29883 17.7223C4.55801 17.7223 4.77212 17.8236 4.96369 17.9925L3.23957 18.9831C3.12688 18.3302 3.63397 17.7223 4.29883 17.7223ZM4.28756 15.4934L4.70451 16.6191L4.71578 16.6304C4.71578 16.6304 4.72705 16.6304 4.72705 16.6191L4.8172 15.4259C4.8172 15.4146 4.80593 15.4146 4.80593 15.4146L4.32137 15.4822C4.28756 15.4822 4.27629 15.4822 4.28756 15.4934ZM8.49082 17.9024C8.0288 17.7448 7.67947 17.6323 7.67947 17.3171C7.67947 17.1032 7.87104 16.9006 8.22037 16.9006C8.58097 16.9006 8.78381 17.0919 8.95284 17.227L9.74165 16.6754C9.40359 16.2589 8.84015 15.9212 8.23164 15.9212C7.39775 15.9212 6.67654 16.5291 6.67654 17.3283C6.67654 17.925 7.08222 18.4878 7.91611 18.7692C8.44574 18.9381 8.77254 19.0507 8.77254 19.3884C8.77254 19.6248 8.53589 19.8274 8.25417 19.8274C7.90484 19.8274 7.61185 19.591 7.39775 19.3996L6.56386 19.985C6.9808 20.469 7.63439 20.818 8.23164 20.818C9.15568 20.818 9.798 20.1088 9.798 19.3771C9.798 18.7917 9.48247 18.2402 8.49082 17.9024ZM5.25668 15.4709L5.08765 16.6529C5.08765 16.6529 5.08765 16.6642 5.09891 16.6642H5.11018L5.7525 15.651C5.7525 15.6398 5.7525 15.6285 5.74124 15.6285L5.27922 15.4597C5.26795 15.4597 5.25668 15.4597 5.25668 15.4709Z" fill="white"/>
</svg>
