<svg width="104" height="45" viewBox="0 0 104 45" fill="none" xmlns="http://www.w3.org/2000/svg">
<mask id="mask0_1057_263" style="mask-type:luminance" maskUnits="userSpaceOnUse" x="42" y="6" width="62" height="27">
<path d="M103.63 6.97656H42.397V32.0853H103.63V6.97656Z" fill="white"/>
</mask>
<g mask="url(#mask0_1057_263)">
<path d="M103.63 13.8672V31.4252H97.2889V19.1405H91.19V31.4852H84.9099V13.8672H103.63Z" fill="white"/>
<path fill-rule="evenodd" clip-rule="evenodd" d="M71.8658 32.0853C77.5422 32.0853 81.709 28.6096 81.709 23.3962C81.709 18.3624 78.6292 15.0666 73.4359 15.0666C71.0204 15.0666 69.0879 15.9054 67.5783 17.3437C67.9406 14.3474 70.4769 12.1901 73.2547 12.1901C73.919 12.1901 78.7501 12.1901 78.7501 12.1901L81.5883 6.97656C81.5883 6.97656 75.4891 7.09651 72.6509 7.09651C66.1893 7.21633 61.781 13.0291 61.781 20.1602C61.781 28.4299 66.0081 32.0853 71.8658 32.0853ZM71.9262 19.6808C74.0398 19.6808 75.4891 21.0591 75.4891 23.3962C75.4891 25.4936 74.2209 27.2313 71.9262 27.2313C69.7523 27.2313 68.3029 25.6134 68.3029 23.3962C68.3029 21.119 69.7523 19.6808 71.9262 19.6808Z" fill="white"/>
<path d="M56.5879 25.5558C56.5879 25.5558 55.0783 26.3947 52.8439 26.5745C50.3075 26.6345 48.0128 25.0164 48.0128 22.2C48.0128 19.3834 50.0056 17.8254 52.7834 17.8254C54.4743 17.8254 56.7087 18.9639 56.7087 18.9639C56.7087 18.9639 58.3391 15.9677 59.1846 14.4696C57.6144 13.2711 55.5613 12.6719 53.1458 12.6719C47.107 12.6719 42.3967 16.6269 42.3967 22.2C42.3967 27.773 46.805 31.6682 53.2062 31.5483C55.0178 31.4884 57.4333 30.8891 58.943 29.9303L56.5879 25.5558Z" fill="white"/>
</g>
<mask id="mask1_1057_263" style="mask-type:luminance" maskUnits="userSpaceOnUse" x="-9" y="0" width="38" height="45">
<path d="M28.1473 0H-8.63062V44.6376H28.1473V0Z" fill="white"/>
</mask>
<g mask="url(#mask1_1057_263)">
<path d="M12.4612 15.8453L17.6017 12.7578H28.1476L12.4612 22.2062V15.8453Z" fill="white"/>
<path d="M12.4232 9.67147L12.4609 22.4676L6.94238 19.1198V0L12.4232 9.67147Z" fill="white"/>
<path d="M28.1473 12.7589H17.6015L12.4232 9.67148L6.94238 0L28.1473 12.7589Z" fill="white"/>
<path d="M12.4609 34.966V28.7539L6.94238 25.4805V44.6375L12.4609 34.966Z" fill="white"/>
<path d="M17.6014 31.8772L-3.14984 19.3786L-8.63062 9.70703L28.1095 31.8772H17.6014Z" fill="white"/>
<path d="M6.94238 44.6378L12.4609 34.9662L17.6015 31.8789H28.1094L6.94238 44.6378Z" fill="white"/>
<path d="M-8.63062 34.9304L6.98014 25.5194L1.76394 22.3203L-3.11214 25.2589L-8.63062 34.9304Z" fill="white"/>
</g>
</svg>
