<svg width="32" height="32" viewBox="0 0 32 32" fill="none" xmlns="http://www.w3.org/2000/svg">
<g clip-path="url(#clip0_1131_1472)">
<path fill-rule="evenodd" clip-rule="evenodd" d="M29.627 21.0017C29.1049 21.6636 27.8257 22.1357 27.8257 22.1357L18.3094 25.5702V23.0373L25.3127 20.5301C26.1075 20.244 26.2295 19.8396 25.5835 19.6273C24.9387 19.4144 23.7712 19.4754 22.9758 19.7627L18.3094 21.4141V18.7855L18.5783 18.694C18.5783 18.694 19.9268 18.2145 21.8229 18.0034C23.719 17.7936 26.0407 18.0321 27.8633 18.7263C29.9173 19.3784 30.1486 20.3398 29.627 21.0017ZM19.2152 16.6888V10.2115C19.2152 9.45083 19.0756 8.75052 18.3652 8.55226C17.8212 8.37718 17.4837 8.88472 17.4837 9.64482V25.8654L13.1299 24.477V5.13672C14.981 5.48199 17.6779 6.29821 19.1278 6.78928C22.8149 8.06119 24.065 9.64421 24.065 13.211C24.065 16.6876 21.9291 18.0052 19.2152 16.6888ZM5.14114 22.7726C3.03254 22.176 2.68162 20.9328 3.64272 20.2166C4.53096 19.5553 6.04152 19.0575 6.04152 19.0575L12.2841 16.8273V19.3699L7.7919 20.9852C6.99837 21.2713 6.87634 21.6764 7.52112 21.8887C8.16651 22.101 9.33464 22.0406 10.1294 21.7539L12.2841 20.9681V23.2429C12.1475 23.2673 11.9951 23.2917 11.8543 23.3155C9.69893 23.6693 7.40334 23.5217 5.14114 22.7726ZM28.2403 23.7798C28.5129 23.7798 28.7686 23.8859 28.961 24.0817C29.1535 24.2745 29.2597 24.5319 29.2597 24.8052C29.2597 25.0797 29.1535 25.3359 28.961 25.5287C28.7686 25.7233 28.5129 25.8294 28.2403 25.8294C27.9677 25.8294 27.7127 25.7233 27.5197 25.5287C27.3272 25.3359 27.2216 25.0797 27.2216 24.8052C27.2216 24.2403 27.6781 23.7798 28.2403 23.7798ZM27.3928 24.8052C27.3928 25.0327 27.4808 25.2469 27.6411 25.4067C27.8008 25.569 28.0145 25.6568 28.2403 25.6568C28.7084 25.6568 29.0879 25.2749 29.0879 24.8052C29.0879 24.5771 29.0005 24.3629 28.8396 24.2025C28.6799 24.0402 28.4662 23.953 28.2403 23.953C28.0145 23.953 27.8008 24.0402 27.6411 24.2025C27.4808 24.3629 27.3928 24.5771 27.3928 24.8052ZM28.5482 24.2531C28.6599 24.3025 28.7163 24.3977 28.7163 24.5331C28.7163 24.6027 28.7018 24.6612 28.672 24.707C28.6508 24.7399 28.6204 24.7668 28.5864 24.79C28.6131 24.8058 28.6368 24.8247 28.6544 24.8467C28.6787 24.8784 28.6927 24.929 28.6945 24.998L28.6999 25.1438C28.7018 25.1828 28.7042 25.2127 28.7103 25.231C28.7164 25.2578 28.7279 25.2749 28.7425 25.2804L28.7576 25.2877V25.3042V25.3292V25.3542H28.7327H28.5524H28.5378L28.5306 25.3414C28.5245 25.3292 28.5202 25.3152 28.516 25.2969C28.513 25.2804 28.5099 25.2518 28.5081 25.2078L28.499 25.0267C28.4966 24.9638 28.4753 24.9248 28.4352 24.904C28.4103 24.8925 28.3691 24.887 28.3132 24.887H28.0042V25.3292V25.3542H27.9787H27.8317H27.8068V25.3292V24.2391V24.2141H27.8317H28.3338C28.4201 24.2141 28.4923 24.2269 28.5482 24.2531ZM28.0042 24.7125H28.3187C28.3818 24.7125 28.4322 24.7009 28.468 24.6771C28.5008 24.6533 28.5166 24.61 28.5166 24.5472C28.5166 24.4788 28.4941 24.4343 28.4468 24.4105C28.4207 24.3977 28.3842 24.3904 28.3381 24.3904H28.0042V24.7125Z" fill="white"/>
</g>
<defs>
<clipPath id="clip0_1131_1472">
<rect width="27" height="21" fill="white" transform="translate(3 5)"/>
</clipPath>
</defs>
</svg>
