<svg width="32" height="32" viewBox="0 0 32 32" fill="none" xmlns="http://www.w3.org/2000/svg">
<g clip-path="url(#clip0_1131_1459)">
<path d="M15.4642 6C9.94962 6 5.42968 10.2212 5 15.5849L10.6286 17.8934C11.1057 17.5707 11.6826 17.3799 12.3022 17.3799C12.3568 17.3799 12.4138 17.3799 12.4684 17.3846L14.9705 13.7853V13.7334C14.9705 11.5663 16.7462 9.80429 18.9302 9.80429C21.1142 9.80429 22.8899 11.5663 22.8899 13.7334C22.8899 15.9006 21.1142 17.6626 18.9302 17.6626C18.8993 17.6626 18.8708 17.6626 18.84 17.6626L15.2696 20.1901C15.2696 20.2349 15.272 20.282 15.272 20.3291C15.272 21.9568 13.9378 23.2783 12.2998 23.2783C10.8612 23.2783 9.65763 22.2583 9.38463 20.9086L5.36084 19.2597C6.60714 23.634 10.6571 26.84 15.4642 26.84C21.2637 26.84 25.9665 22.1735 25.9665 16.4188C25.9665 10.6641 21.2637 6 15.4642 6Z" fill="white"/>
<path d="M11.582 21.8095L10.293 21.2795C10.5209 21.7506 10.9173 22.1463 11.4419 22.3654C12.5767 22.8342 13.8871 22.2994 14.3595 21.1735C14.5898 20.6293 14.5898 20.0263 14.3619 19.4798C14.134 18.9333 13.7067 18.5069 13.1583 18.2784C12.6123 18.0523 12.0283 18.0617 11.5132 18.2549L12.8449 18.8014C13.6829 19.1476 14.077 20.1017 13.728 20.9332C13.3791 21.7647 12.4176 22.1581 11.5796 21.8095" fill="white"/>
<path d="M21.5696 13.7366C21.5696 12.2926 20.3851 11.1172 18.9298 11.1172C17.4746 11.1172 16.29 12.2926 16.29 13.7366C16.29 15.1806 17.4746 16.3537 18.9298 16.3537C20.3851 16.3537 21.5696 15.1782 21.5696 13.7366ZM16.9524 13.7319C16.9524 12.646 17.8402 11.765 18.9346 11.765C20.029 11.765 20.9168 12.646 20.9168 13.7319C20.9168 14.8178 20.029 15.6988 18.9346 15.6988C17.8402 15.6988 16.9524 14.8178 16.9524 13.7319Z" fill="white"/>
</g>
<defs>
<clipPath id="clip0_1131_1459">
<rect width="21" height="21" fill="white" transform="translate(5 6)"/>
</clipPath>
</defs>
</svg>
