<svg width="86" height="56" viewBox="0 0 86 56" fill="none" xmlns="http://www.w3.org/2000/svg">
<path d="M16.6889 0H37.9532C40.934 0 42.7648 2.52781 42.0843 5.64473L32.1559 50.0163C31.452 53.1087 28.4947 55.6364 25.5139 55.6364H4.27277C1.29199 55.6364 -0.538774 53.1087 0.141981 50.0163L10.0466 5.64473C10.727 2.52781 13.7078 0 16.6889 0Z" fill="#838383"/>
<path d="M36.1697 0H60.6032C63.5839 0 62.2224 2.52781 61.542 5.64473L51.637 50.0163C50.9566 53.1087 51.1678 55.6364 48.187 55.6364H23.7774C20.7966 55.6364 18.9658 53.1087 19.6463 50.0163L29.5278 5.64473C30.2316 2.52781 33.2124 0 36.1697 0Z" fill="#D2D2D2"/>
<path d="M59.664 0H80.9049C83.886 0 85.7399 2.52781 85.036 5.64473L75.131 50.0163C74.4271 53.1087 71.4698 55.6364 68.489 55.6364H47.2479C44.2671 55.6364 42.4363 53.1087 43.1171 50.0163L53.0217 5.64473C53.7021 2.52781 56.6829 0 59.664 0Z" fill="white"/>
<path d="M20.6324 17.2036C18.3555 17.2283 17.6751 17.2036 17.4636 17.1545C17.3698 17.572 15.8209 24.9836 15.8209 24.9836C15.4921 26.4805 15.234 27.5604 14.4359 28.2474C13.9667 28.6649 13.4267 28.8611 12.7932 28.8611C11.7836 28.8611 11.1971 28.3212 11.0797 27.3395V26.9957C11.0797 26.9957 11.3848 24.9836 11.3848 24.9589C11.3848 24.9589 13.0044 18.1853 13.2859 17.302C13.2859 17.2526 13.3094 17.2283 13.3094 17.2036C10.1644 17.2283 9.60092 17.2036 9.55399 17.1545C9.53053 17.2283 9.46014 17.6454 9.46014 17.6454L7.81708 25.2779L7.6763 25.9406L7.41821 28.0512C7.41821 28.6892 7.53553 29.1801 7.77015 29.6219C8.5213 30.9964 10.6805 31.1926 11.9013 31.1926C13.4736 31.1926 14.929 30.8489 15.9147 30.2109C17.6279 29.1557 18.0975 27.4866 18.4963 26.0144L18.6844 25.2536C18.6844 25.2536 20.3505 18.2343 20.6324 17.302C20.609 17.2526 20.609 17.2283 20.6324 17.2036ZM26.3121 22.873C25.9132 22.873 25.1856 22.9711 24.5286 23.3145C24.2936 23.4373 24.059 23.5844 23.8244 23.7319L24.0355 22.922L23.9182 22.7745C22.5336 23.0692 22.2048 23.1183 20.914 23.3145L20.8201 23.3882C20.6559 24.6889 20.5382 25.6707 19.9751 28.2231C19.764 29.1557 19.529 30.1128 19.3178 31.0454L19.3648 31.1679C20.7028 31.0945 21.1017 31.0945 22.2517 31.1188L22.3456 31.0207C22.4863 30.2356 22.5101 30.0637 22.8386 28.4683C22.9794 27.7075 23.3079 26.0634 23.4486 25.4745C23.7305 25.3517 24.0121 25.2045 24.2936 25.2045C24.9275 25.2045 24.8571 25.7935 24.8336 26.0144C24.8101 26.4068 24.5755 27.6832 24.3171 28.7873L24.1529 29.4991C24.0355 30.039 23.9182 30.5299 23.8009 31.0698L23.8478 31.1679C25.1621 31.0945 25.5378 31.0945 26.6644 31.1188L26.8052 31.0207C27.0163 29.7938 27.0632 29.4747 27.439 27.7075L27.6267 26.8976C27.9786 25.3026 28.1429 24.4927 27.8848 23.83C27.5798 23.0692 26.9225 22.873 26.3121 22.873ZM32.6259 24.5661C31.9452 24.7136 31.4994 24.787 31.0532 24.8608C30.6075 24.9345 30.1848 24.9836 29.5278 25.0817L29.4809 25.1308L29.434 25.1798C29.3636 25.695 29.3167 26.1615 29.2225 26.6767C29.1286 27.2167 29.0113 27.855 28.8236 28.7383C28.6594 29.4257 28.589 29.671 28.4951 29.8919C28.4247 30.1371 28.3306 30.3827 28.1429 31.0454L28.1898 31.0945L28.2367 31.1435C28.8705 31.1188 29.2694 31.0945 29.6921 31.0945C30.1144 31.0945 30.5605 31.0945 31.2175 31.0945L31.2882 31.0454L31.3586 30.9717C31.4525 30.358 31.4759 30.2109 31.5228 29.8919C31.5932 29.5729 31.6871 29.131 31.9452 27.9775C32.0625 27.4132 32.2033 26.8733 32.3209 26.3087C32.4617 25.7444 32.579 25.1798 32.6963 24.6399L32.6728 24.5908L32.6259 24.5661ZM38.2825 22.922C37.6486 22.922 36.1232 22.9955 34.9259 24.149C34.0809 24.9589 33.6821 26.0878 33.424 27.1676C33.189 28.2721 32.9075 30.2599 34.6444 30.9964C35.1844 31.2416 35.9586 31.2907 36.4517 31.2907C37.7425 31.2907 39.0336 30.9226 40.0194 29.8428C40.7936 28.9592 41.1225 27.6585 41.2398 27.1185C41.6386 25.327 41.3336 24.4927 40.9579 23.9772C40.3713 23.192 39.3386 22.922 38.2825 22.922ZM38.3294 26.9714C38.2825 27.2657 38.024 28.3949 37.6721 28.8611C37.4375 29.2048 37.1559 29.4257 36.8271 29.4257C36.7332 29.4257 36.1936 29.4257 36.1701 28.5664C36.1467 28.1493 36.2405 27.7075 36.3578 27.2413C36.6394 25.8916 36.9913 24.738 37.8833 24.738C38.5875 24.7627 38.6344 25.6216 38.3294 26.9714ZM68.7006 31.1435C68.8883 29.9409 69.076 28.763 69.5925 26.4558C69.8271 25.3517 70.0852 24.2471 70.3436 23.143L70.2967 23.0202C68.9117 23.2901 68.5363 23.3392 67.1983 23.5601L67.081 23.6338C67.0575 23.7563 67.0575 23.8544 67.034 23.9528C66.8229 23.6091 66.5179 23.2901 66.0483 23.1183C65.4617 22.873 64.0533 23.2164 62.8563 24.3452C62.0113 25.1551 61.6125 26.2843 61.3775 27.3395C61.1429 28.4193 60.8613 30.4071 62.5983 31.1188C63.1379 31.3644 63.6544 31.4378 64.1471 31.4135C64.6871 31.3888 65.1564 31.0945 65.6259 30.7017C65.579 30.8736 65.5556 31.0207 65.5086 31.1926L65.579 31.2907C66.8229 31.2416 67.2221 31.2416 68.5598 31.2416L68.7006 31.1435ZM66.6352 26.4315C66.5883 26.6524 66.5413 26.8976 66.4709 27.1676C66.3771 27.5604 66.2832 27.9531 66.1891 28.3459C66.0952 28.6158 65.9779 28.8611 65.8606 29.0329C65.6259 29.3766 65.086 29.5729 64.781 29.5729C64.6871 29.5729 64.1471 29.5729 64.1237 28.7383C64.1237 28.3212 64.194 27.9041 64.3117 27.4132C64.6167 26.0878 64.9452 24.9589 65.8371 24.9589C66.4006 24.9345 66.7056 25.4988 66.6352 26.4315ZM48.5156 22.873C48.1167 22.873 47.3656 22.9711 46.7083 23.3145C46.4736 23.4373 46.239 23.5844 46.0044 23.7319L46.2155 22.922L46.0982 22.7745C44.6898 23.0692 44.3848 23.1183 43.094 23.3145L43.0001 23.3882C42.8356 24.6889 42.7183 25.6707 42.1552 28.2231C41.944 29.1557 41.7325 30.1128 41.4979 31.0454L41.5682 31.1679C42.8825 31.0945 43.2817 31.0945 44.4317 31.1188L44.5256 31.0207C44.6663 30.2356 44.6898 30.0637 44.9952 28.4683C45.1594 27.7075 45.4644 26.0634 45.6286 25.4745C45.9105 25.3517 46.1921 25.2045 46.4736 25.2045C47.1075 25.2045 47.0371 25.7935 47.0136 26.0144C46.9902 26.4068 46.7552 27.6832 46.4971 28.7873L46.3329 29.4991C46.2155 30.039 46.0982 30.5299 45.9809 31.0698L46.0278 31.1679C47.3421 31.0945 47.741 31.0945 48.8444 31.1188L48.9852 31.0207C49.1729 29.7938 49.2433 29.4747 49.5952 27.7075L49.7598 26.8976C50.1117 25.3026 50.2994 24.4927 50.0413 23.83C49.7832 23.0692 49.1025 22.873 48.5156 22.873ZM63.1848 21.2533C63.2787 20.8849 63.3494 20.4187 63.3494 20.0016C63.3494 19.4126 63.2317 18.848 62.9267 18.3818C62.1052 17.1792 60.4859 17.1792 58.5848 17.1545H57.6694C55.2517 17.1792 54.2894 17.1792 53.8906 17.1055C53.8671 17.302 53.7967 17.621 53.7967 17.621L52.8813 21.8422C52.8813 21.8422 50.8159 30.7508 50.7221 31.1679C52.8344 31.1435 53.7029 31.1435 54.0548 31.1926C54.1486 30.7755 54.6417 28.2721 54.6417 28.2721C54.6417 28.2721 55.064 26.4558 55.0875 26.3824C55.0875 26.3824 55.2283 26.1859 55.369 26.1125H55.5571C57.364 26.1125 59.4294 26.1125 61.049 24.8851C62.1052 24.0262 62.8563 22.7745 63.1848 21.2533ZM59.7817 21.5232C59.5705 22.4555 59.0071 23.2411 58.2794 23.6091C57.6694 23.9281 56.9183 23.9528 56.1436 23.9528H55.6275L55.6744 23.7563C55.6744 23.7563 56.5898 19.5598 56.5898 19.5841L56.6132 19.3632L56.6367 19.1917L57.0121 19.2408C57.0121 19.2408 58.8898 19.4126 58.9602 19.4126C59.6644 19.7069 59.9929 20.4924 59.7817 21.5232ZM79.6144 22.9955L79.5206 22.873C78.136 23.1673 77.8775 23.2164 76.6102 23.3882L76.5164 23.4863C76.5164 23.511 76.5164 23.5354 76.4929 23.5601V23.5354C75.554 25.8178 75.5775 25.327 74.8029 27.1185C74.7794 27.0451 74.7794 26.9714 74.7794 26.8976L74.5917 23.0202L74.4744 22.8974C73.0191 23.192 72.9956 23.2411 71.6579 23.4129L71.5406 23.511C71.5406 23.5601 71.5406 23.6091 71.5171 23.6582L71.5406 23.6829C71.7048 24.5661 71.6579 24.3699 71.8221 25.7688C71.8925 26.4558 72.0098 27.1432 72.0806 27.8303C72.1979 28.9839 72.2917 29.5238 72.456 31.2663C71.5406 32.8123 71.3294 33.4013 70.4844 34.7758L69.8741 35.7818C69.8037 35.8799 69.7333 35.9537 69.6394 35.9784C69.5456 36.0274 69.4048 36.0518 69.2406 36.0518H68.8883L68.3956 37.7943L70.1321 37.819C71.1417 37.819 71.7752 37.3282 72.1275 36.6655L73.2071 34.7267H73.1836L73.3009 34.5792C74.0521 32.9351 79.6144 22.9955 79.6144 22.9955ZM32.6494 22.3084C32.0156 21.9156 30.9359 22.0384 30.1848 22.5783C29.434 23.1183 29.3401 23.8544 29.9736 24.2471C30.6075 24.6399 31.7105 24.5171 32.4382 23.9772C33.1656 23.4129 33.2832 22.6764 32.6494 22.3084Z" fill="#0A0501"/>
</svg>
