<svg width="108" height="34" viewBox="0 0 108 34" fill="none" xmlns="http://www.w3.org/2000/svg">
<path d="M40.7 0.491167L26.4624 32.8911H17.229L10.4889 7.20247C10.2303 6.02838 9.51013 5.01214 8.49447 4.32865C5.77993 3.11963 2.93612 2.24348 0 1.68278L0.258399 0.718997H15.2348C16.1581 0.754048 17.063 1.06939 17.7831 1.6302C18.5033 2.1909 19.0204 2.9619 19.2419 3.83805L22.9907 22.5525L31.9839 0.473641H40.7185L40.7 0.491167ZM76.6541 22.57C76.6541 13.9312 64.411 13.4406 64.411 9.6031C64.411 8.39408 65.6667 7.20247 68.1596 6.95711C71.0772 6.71187 73.9951 7.20247 76.6541 8.39408L78.15 1.43742C75.5277 0.47364 72.7208 -0.017072 69.9139 0.000453426C61.1793 0.000453426 55.1777 4.55648 55.1777 10.7947C55.1777 15.5959 59.6651 17.9966 62.9152 19.6788C66.1653 21.361 67.661 22.3248 67.661 23.5163C67.661 25.6717 64.9095 26.6355 62.4165 26.6355C59.3141 26.6004 56.2488 25.952 53.4235 24.7079L51.6691 31.6646C54.7714 32.821 58.077 33.3993 61.4009 33.3468C70.6342 33.592 76.6357 29.0186 76.6357 22.5525L76.6541 22.57ZM99.6267 33.1365H107.622L100.383 0.736522H92.8858C92.0922 0.771573 91.3354 1.01681 90.6701 1.43742C90.0048 1.85791 89.488 2.45378 89.1374 3.13715L76.1556 33.3818H85.3888L87.1432 28.5804H98.3888L99.6445 33.1365H99.6267ZM89.8943 21.6063L94.6405 9.6031L97.133 21.6063H89.8943ZM52.9433 0.491167L45.7044 32.8911H36.9698L44.2087 0.491167H52.9433Z" fill="white"/>
</svg>
