<svg width="32" height="32" viewBox="0 0 32 32" fill="none" xmlns="http://www.w3.org/2000/svg">
<g clip-path="url(#clip0_1131_1467)">
<path d="M49.5523 16.3348C49.3128 16.1244 49.0456 15.9498 48.7587 15.8157C49.655 15.3259 50.2153 14.3667 50.2145 13.3229C50.2145 12.5262 49.9294 9.93599 46.2788 9.93599H41.3629V15.303H39.7258C39.5131 15.5878 39.0305 16.2714 38.8473 16.5526H41.3629V22.3845H46.2806C48.9437 22.3854 50.5987 20.9952 50.5987 18.7514C50.5987 17.7719 50.2386 16.9394 49.5532 16.3358M42.7221 11.2352H46.2797C47.2422 11.2352 48.8552 11.4815 48.8552 13.2135C48.8552 14.5229 47.916 15.303 46.2797 15.303H42.7221V11.2352ZM46.2788 21.0871H42.7213V16.5563H46.2788C47.6274 16.5563 49.2413 16.9394 49.2413 18.7247C49.2413 20.7802 47.3852 21.088 46.2788 21.088M56.9936 9.65023C53.5924 9.65023 51.2153 12.3241 51.2153 16.1538C51.2153 19.9836 53.5924 22.6611 56.9936 22.6611C60.3949 22.6611 62.7621 19.9891 62.7621 16.1538C62.7621 12.3186 60.3913 9.65023 56.9936 9.65023ZM56.9936 21.3444C54.4021 21.3444 52.5871 19.209 52.5871 16.1538C52.5871 13.0987 54.403 10.9651 56.9936 10.9651C59.5843 10.9651 61.3859 13.0996 61.3859 16.1538C61.3859 19.2081 59.5807 21.3444 56.9936 21.3444ZM9.02819 8.6055L9.01836 8.61377C7.09524 10.5626 6.01304 13.2227 6.01661 15.9976C6.01393 18.269 6.73867 20.4779 8.07914 22.2834C8.09255 22.3009 8.11399 22.311 8.13365 22.3009C8.15153 22.2899 8.15242 22.2669 8.14527 22.2476C7.37584 19.8016 11.3088 13.8723 13.3409 11.3868C13.3472 11.3786 13.3561 11.3685 13.3561 11.3565C13.3561 11.3427 13.3463 11.3317 13.3373 11.3225C9.91915 7.82449 9.00674 8.6248 9.01925 8.61377M23.1898 8.6055L23.1996 8.61377C25.1227 10.5617 26.204 13.2227 26.2005 15.9976C26.2031 18.269 25.4784 20.4779 24.1379 22.2834C24.1254 22.3009 24.1031 22.311 24.0834 22.3009C24.0664 22.2899 24.0655 22.2669 24.0718 22.2476C24.8412 19.8016 20.9119 13.8687 18.8806 11.3823C18.8735 11.374 18.8654 11.3639 18.8654 11.3529C18.8654 11.3372 18.8744 11.3271 18.8851 11.3179C22.3042 7.81989 23.2103 8.6248 23.1987 8.61469M16.1094 5.62109C18.146 5.62109 19.8216 6.19537 21.3658 7.13995C21.3846 7.15005 21.39 7.1721 21.3828 7.1914C21.3757 7.20978 21.3542 7.21437 21.3337 7.20886C19.3802 6.77424 16.4097 8.51086 16.13 8.68361C16.1237 8.6882 16.1175 8.69188 16.1085 8.69188C16.0987 8.69188 16.0924 8.68728 16.0862 8.68361C15.3418 8.24348 12.5965 6.76414 10.8673 7.21897C10.8477 7.22356 10.8271 7.21988 10.8182 7.20059C10.811 7.18129 10.8182 7.15924 10.8351 7.14913C12.3811 6.19537 14.0782 5.62109 16.1094 5.62109ZM16.1094 13.944C16.121 13.944 16.1336 13.9541 16.1416 13.9605C19.1612 16.322 24.3301 22.1585 22.7528 23.8096L22.7546 23.8078V23.8096H22.751C20.9137 25.4672 18.5526 26.3797 16.1085 26.3769C13.6644 26.3797 11.3025 25.4672 9.46518 23.8096C7.89058 22.1585 13.0585 16.322 16.0746 13.9605C16.0835 13.9541 16.0969 13.944 16.1094 13.944Z" fill="white"/>
</g>
<defs>
<clipPath id="clip0_1131_1467">
<rect width="22" height="20" fill="white" transform="translate(5 6)"/>
</clipPath>
</defs>
</svg>
