<?xml version="1.0" standalone="no"?>
<!DOCTYPE svg PUBLIC "-//W3C//DTD SVG 1.1//EN" "http://www.w3.org/Graphics/SVG/1.1/DTD/svg11.dtd" >
<svg xmlns="http://www.w3.org/2000/svg" xmlns:xlink="http://www.w3.org/1999/xlink" version="1.1">
<metadata>
Created by FontForge 20230101 at Tue Sep 28 04:49:55 2021
 By Unknown
Tour de Force Font Foundry &#38; Dusan Jelesijevic
</metadata>
<defs>
<font id="FONTSPRINGDEMO-LupioItalic" horiz-adv-x="598" >
  <font-face 
    font-family="FSP DEMO - Lupio"
    font-weight="400"
    font-style="italic"
    font-stretch="normal"
    units-per-em="1000"
    panose-1="0 0 0 0 0 0 0 0 0 0"
    ascent="800"
    descent="-200"
    x-height="500"
    cap-height="700"
    bbox="-129 -200 1140 725"
    underline-thickness="50"
    underline-position="-125"
    slope="-10"
    unicode-range="U+000D-007E"
  />
<missing-glyph 
d="M101 197q-6 0 -9 -1v-98q2 -1 9 -1q18 0 24.5 12t6.5 38t-6.5 38t-24.5 12zM253 161v-24h-40v-38h47v-24h-76v145h76v-25h-47v-34h40zM99 73q-23 0 -36 2v143q26 4 37 4q33 0 47 -18t14 -57t-14.5 -56.5t-47.5 -17.5zM286 220h39l19 -80l19 80h40q1 -21 3.5 -78.5
t2.5 -66.5h-29q0 53 -3 104l-20 -82h-27l-20 82h-1q-2 -68 -2 -104h-28q2 84 7 145zM482 73q-29 0 -41 17.5t-12 56.5t12 57t41 18t41.5 -18t12.5 -57t-12.5 -56.5t-41.5 -17.5zM482 197q-14 0 -19 -11.5t-5 -38.5q0 -50 24 -50q15 0 20 12t5 38q0 27 -5 38.5t-20 11.5z
M472 496q34 0 48 -20t14 -43q0 -21 -16.5 -35t-35.5 -17q-104 -12 -166 -72q3 8 8.5 20.5t22.5 44.5t34.5 57t42.5 45t48 20zM139 444q26 0 52 -19.5t44 -47t32 -54.5t21 -47l7 -19q-57 72 -156 72q-24 0 -43 15t-19 37q0 26 16.5 44.5t45.5 18.5zM314 593q19 -18 24 -50
t-1.5 -64t-15.5 -62t-17 -49l-9 -18q10 93 -61 161q-17 17 -20.5 40t11.5 41q18 18 41.5 19.5t47.5 -18.5z" />
    <glyph glyph-name=".notdef" 
d="M101 197q-6 0 -9 -1v-98q2 -1 9 -1q18 0 24.5 12t6.5 38t-6.5 38t-24.5 12zM253 161v-24h-40v-38h47v-24h-76v145h76v-25h-47v-34h40zM99 73q-23 0 -36 2v143q26 4 37 4q33 0 47 -18t14 -57t-14.5 -56.5t-47.5 -17.5zM286 220h39l19 -80l19 80h40q1 -21 3.5 -78.5
t2.5 -66.5h-29q0 53 -3 104l-20 -82h-27l-20 82h-1q-2 -68 -2 -104h-28q2 84 7 145zM482 73q-29 0 -41 17.5t-12 56.5t12 57t41 18t41.5 -18t12.5 -57t-12.5 -56.5t-41.5 -17.5zM482 197q-14 0 -19 -11.5t-5 -38.5q0 -50 24 -50q15 0 20 12t5 38q0 27 -5 38.5t-20 11.5z
M472 496q34 0 48 -20t14 -43q0 -21 -16.5 -35t-35.5 -17q-104 -12 -166 -72q3 8 8.5 20.5t22.5 44.5t34.5 57t42.5 45t48 20zM139 444q26 0 52 -19.5t44 -47t32 -54.5t21 -47l7 -19q-57 72 -156 72q-24 0 -43 15t-19 37q0 26 16.5 44.5t45.5 18.5zM314 593q19 -18 24 -50
t-1.5 -64t-15.5 -62t-17 -49l-9 -18q10 93 -61 161q-17 17 -20.5 40t11.5 41q18 18 41.5 19.5t47.5 -18.5z" />
    <glyph glyph-name="uni0000" horiz-adv-x="0" 
 />
    <glyph glyph-name="uni000D" unicode="&#xd;" horiz-adv-x="250" 
 />
    <glyph glyph-name="space" unicode=" " horiz-adv-x="260" 
 />
    <glyph glyph-name="exclam" unicode="!" 
d="M101 197q-6 0 -9 -1v-98q2 -1 9 -1q18 0 24.5 12t6.5 38t-6.5 38t-24.5 12zM253 161v-24h-40v-38h47v-24h-76v145h76v-25h-47v-34h40zM99 73q-23 0 -36 2v143q26 4 37 4q33 0 47 -18t14 -57t-14.5 -56.5t-47.5 -17.5zM286 220h39l19 -80l19 80h40q1 -21 3.5 -78.5
t2.5 -66.5h-29q0 53 -3 104l-20 -82h-27l-20 82h-1q-2 -68 -2 -104h-28q2 84 7 145zM482 73q-29 0 -41 17.5t-12 56.5t12 57t41 18t41.5 -18t12.5 -57t-12.5 -56.5t-41.5 -17.5zM482 197q-14 0 -19 -11.5t-5 -38.5q0 -50 24 -50q15 0 20 12t5 38q0 27 -5 38.5t-20 11.5z
M472 496q34 0 48 -20t14 -43q0 -21 -16.5 -35t-35.5 -17q-104 -12 -166 -72q3 8 8.5 20.5t22.5 44.5t34.5 57t42.5 45t48 20zM139 444q26 0 52 -19.5t44 -47t32 -54.5t21 -47l7 -19q-57 72 -156 72q-24 0 -43 15t-19 37q0 26 16.5 44.5t45.5 18.5zM314 593q19 -18 24 -50
t-1.5 -64t-15.5 -62t-17 -49l-9 -18q10 93 -61 161q-17 17 -20.5 40t11.5 41q18 18 41.5 19.5t47.5 -18.5z" />
    <glyph glyph-name="quotedbl" unicode="&#x22;" 
d="M101 197q-6 0 -9 -1v-98q2 -1 9 -1q18 0 24.5 12t6.5 38t-6.5 38t-24.5 12zM253 161v-24h-40v-38h47v-24h-76v145h76v-25h-47v-34h40zM99 73q-23 0 -36 2v143q26 4 37 4q33 0 47 -18t14 -57t-14.5 -56.5t-47.5 -17.5zM286 220h39l19 -80l19 80h40q1 -21 3.5 -78.5
t2.5 -66.5h-29q0 53 -3 104l-20 -82h-27l-20 82h-1q-2 -68 -2 -104h-28q2 84 7 145zM482 73q-29 0 -41 17.5t-12 56.5t12 57t41 18t41.5 -18t12.5 -57t-12.5 -56.5t-41.5 -17.5zM482 197q-14 0 -19 -11.5t-5 -38.5q0 -50 24 -50q15 0 20 12t5 38q0 27 -5 38.5t-20 11.5z
M472 496q34 0 48 -20t14 -43q0 -21 -16.5 -35t-35.5 -17q-104 -12 -166 -72q3 8 8.5 20.5t22.5 44.5t34.5 57t42.5 45t48 20zM139 444q26 0 52 -19.5t44 -47t32 -54.5t21 -47l7 -19q-57 72 -156 72q-24 0 -43 15t-19 37q0 26 16.5 44.5t45.5 18.5zM314 593q19 -18 24 -50
t-1.5 -64t-15.5 -62t-17 -49l-9 -18q10 93 -61 161q-17 17 -20.5 40t11.5 41q18 18 41.5 19.5t47.5 -18.5z" />
    <glyph glyph-name="numbersign" unicode="#" 
d="M101 197q-6 0 -9 -1v-98q2 -1 9 -1q18 0 24.5 12t6.5 38t-6.5 38t-24.5 12zM253 161v-24h-40v-38h47v-24h-76v145h76v-25h-47v-34h40zM99 73q-23 0 -36 2v143q26 4 37 4q33 0 47 -18t14 -57t-14.5 -56.5t-47.5 -17.5zM286 220h39l19 -80l19 80h40q1 -21 3.5 -78.5
t2.5 -66.5h-29q0 53 -3 104l-20 -82h-27l-20 82h-1q-2 -68 -2 -104h-28q2 84 7 145zM482 73q-29 0 -41 17.5t-12 56.5t12 57t41 18t41.5 -18t12.5 -57t-12.5 -56.5t-41.5 -17.5zM482 197q-14 0 -19 -11.5t-5 -38.5q0 -50 24 -50q15 0 20 12t5 38q0 27 -5 38.5t-20 11.5z
M472 496q34 0 48 -20t14 -43q0 -21 -16.5 -35t-35.5 -17q-104 -12 -166 -72q3 8 8.5 20.5t22.5 44.5t34.5 57t42.5 45t48 20zM139 444q26 0 52 -19.5t44 -47t32 -54.5t21 -47l7 -19q-57 72 -156 72q-24 0 -43 15t-19 37q0 26 16.5 44.5t45.5 18.5zM314 593q19 -18 24 -50
t-1.5 -64t-15.5 -62t-17 -49l-9 -18q10 93 -61 161q-17 17 -20.5 40t11.5 41q18 18 41.5 19.5t47.5 -18.5z" />
    <glyph glyph-name="dollar" unicode="$" 
d="M101 197q-6 0 -9 -1v-98q2 -1 9 -1q18 0 24.5 12t6.5 38t-6.5 38t-24.5 12zM253 161v-24h-40v-38h47v-24h-76v145h76v-25h-47v-34h40zM99 73q-23 0 -36 2v143q26 4 37 4q33 0 47 -18t14 -57t-14.5 -56.5t-47.5 -17.5zM286 220h39l19 -80l19 80h40q1 -21 3.5 -78.5
t2.5 -66.5h-29q0 53 -3 104l-20 -82h-27l-20 82h-1q-2 -68 -2 -104h-28q2 84 7 145zM482 73q-29 0 -41 17.5t-12 56.5t12 57t41 18t41.5 -18t12.5 -57t-12.5 -56.5t-41.5 -17.5zM482 197q-14 0 -19 -11.5t-5 -38.5q0 -50 24 -50q15 0 20 12t5 38q0 27 -5 38.5t-20 11.5z
M472 496q34 0 48 -20t14 -43q0 -21 -16.5 -35t-35.5 -17q-104 -12 -166 -72q3 8 8.5 20.5t22.5 44.5t34.5 57t42.5 45t48 20zM139 444q26 0 52 -19.5t44 -47t32 -54.5t21 -47l7 -19q-57 72 -156 72q-24 0 -43 15t-19 37q0 26 16.5 44.5t45.5 18.5zM314 593q19 -18 24 -50
t-1.5 -64t-15.5 -62t-17 -49l-9 -18q10 93 -61 161q-17 17 -20.5 40t11.5 41q18 18 41.5 19.5t47.5 -18.5z" />
    <glyph glyph-name="percent" unicode="%" 
d="M101 197q-6 0 -9 -1v-98q2 -1 9 -1q18 0 24.5 12t6.5 38t-6.5 38t-24.5 12zM253 161v-24h-40v-38h47v-24h-76v145h76v-25h-47v-34h40zM99 73q-23 0 -36 2v143q26 4 37 4q33 0 47 -18t14 -57t-14.5 -56.5t-47.5 -17.5zM286 220h39l19 -80l19 80h40q1 -21 3.5 -78.5
t2.5 -66.5h-29q0 53 -3 104l-20 -82h-27l-20 82h-1q-2 -68 -2 -104h-28q2 84 7 145zM482 73q-29 0 -41 17.5t-12 56.5t12 57t41 18t41.5 -18t12.5 -57t-12.5 -56.5t-41.5 -17.5zM482 197q-14 0 -19 -11.5t-5 -38.5q0 -50 24 -50q15 0 20 12t5 38q0 27 -5 38.5t-20 11.5z
M472 496q34 0 48 -20t14 -43q0 -21 -16.5 -35t-35.5 -17q-104 -12 -166 -72q3 8 8.5 20.5t22.5 44.5t34.5 57t42.5 45t48 20zM139 444q26 0 52 -19.5t44 -47t32 -54.5t21 -47l7 -19q-57 72 -156 72q-24 0 -43 15t-19 37q0 26 16.5 44.5t45.5 18.5zM314 593q19 -18 24 -50
t-1.5 -64t-15.5 -62t-17 -49l-9 -18q10 93 -61 161q-17 17 -20.5 40t11.5 41q18 18 41.5 19.5t47.5 -18.5z" />
    <glyph glyph-name="ampersand" unicode="&#x26;" 
d="M101 197q-6 0 -9 -1v-98q2 -1 9 -1q18 0 24.5 12t6.5 38t-6.5 38t-24.5 12zM253 161v-24h-40v-38h47v-24h-76v145h76v-25h-47v-34h40zM99 73q-23 0 -36 2v143q26 4 37 4q33 0 47 -18t14 -57t-14.5 -56.5t-47.5 -17.5zM286 220h39l19 -80l19 80h40q1 -21 3.5 -78.5
t2.5 -66.5h-29q0 53 -3 104l-20 -82h-27l-20 82h-1q-2 -68 -2 -104h-28q2 84 7 145zM482 73q-29 0 -41 17.5t-12 56.5t12 57t41 18t41.5 -18t12.5 -57t-12.5 -56.5t-41.5 -17.5zM482 197q-14 0 -19 -11.5t-5 -38.5q0 -50 24 -50q15 0 20 12t5 38q0 27 -5 38.5t-20 11.5z
M472 496q34 0 48 -20t14 -43q0 -21 -16.5 -35t-35.5 -17q-104 -12 -166 -72q3 8 8.5 20.5t22.5 44.5t34.5 57t42.5 45t48 20zM139 444q26 0 52 -19.5t44 -47t32 -54.5t21 -47l7 -19q-57 72 -156 72q-24 0 -43 15t-19 37q0 26 16.5 44.5t45.5 18.5zM314 593q19 -18 24 -50
t-1.5 -64t-15.5 -62t-17 -49l-9 -18q10 93 -61 161q-17 17 -20.5 40t11.5 41q18 18 41.5 19.5t47.5 -18.5z" />
    <glyph glyph-name="quotesingle" unicode="'" 
d="M101 197q-6 0 -9 -1v-98q2 -1 9 -1q18 0 24.5 12t6.5 38t-6.5 38t-24.5 12zM253 161v-24h-40v-38h47v-24h-76v145h76v-25h-47v-34h40zM99 73q-23 0 -36 2v143q26 4 37 4q33 0 47 -18t14 -57t-14.5 -56.5t-47.5 -17.5zM286 220h39l19 -80l19 80h40q1 -21 3.5 -78.5
t2.5 -66.5h-29q0 53 -3 104l-20 -82h-27l-20 82h-1q-2 -68 -2 -104h-28q2 84 7 145zM482 73q-29 0 -41 17.5t-12 56.5t12 57t41 18t41.5 -18t12.5 -57t-12.5 -56.5t-41.5 -17.5zM482 197q-14 0 -19 -11.5t-5 -38.5q0 -50 24 -50q15 0 20 12t5 38q0 27 -5 38.5t-20 11.5z
M472 496q34 0 48 -20t14 -43q0 -21 -16.5 -35t-35.5 -17q-104 -12 -166 -72q3 8 8.5 20.5t22.5 44.5t34.5 57t42.5 45t48 20zM139 444q26 0 52 -19.5t44 -47t32 -54.5t21 -47l7 -19q-57 72 -156 72q-24 0 -43 15t-19 37q0 26 16.5 44.5t45.5 18.5zM314 593q19 -18 24 -50
t-1.5 -64t-15.5 -62t-17 -49l-9 -18q10 93 -61 161q-17 17 -20.5 40t11.5 41q18 18 41.5 19.5t47.5 -18.5z" />
    <glyph glyph-name="parenleft" unicode="(" 
d="M101 197q-6 0 -9 -1v-98q2 -1 9 -1q18 0 24.5 12t6.5 38t-6.5 38t-24.5 12zM253 161v-24h-40v-38h47v-24h-76v145h76v-25h-47v-34h40zM99 73q-23 0 -36 2v143q26 4 37 4q33 0 47 -18t14 -57t-14.5 -56.5t-47.5 -17.5zM286 220h39l19 -80l19 80h40q1 -21 3.5 -78.5
t2.5 -66.5h-29q0 53 -3 104l-20 -82h-27l-20 82h-1q-2 -68 -2 -104h-28q2 84 7 145zM482 73q-29 0 -41 17.5t-12 56.5t12 57t41 18t41.5 -18t12.5 -57t-12.5 -56.5t-41.5 -17.5zM482 197q-14 0 -19 -11.5t-5 -38.5q0 -50 24 -50q15 0 20 12t5 38q0 27 -5 38.5t-20 11.5z
M472 496q34 0 48 -20t14 -43q0 -21 -16.5 -35t-35.5 -17q-104 -12 -166 -72q3 8 8.5 20.5t22.5 44.5t34.5 57t42.5 45t48 20zM139 444q26 0 52 -19.5t44 -47t32 -54.5t21 -47l7 -19q-57 72 -156 72q-24 0 -43 15t-19 37q0 26 16.5 44.5t45.5 18.5zM314 593q19 -18 24 -50
t-1.5 -64t-15.5 -62t-17 -49l-9 -18q10 93 -61 161q-17 17 -20.5 40t11.5 41q18 18 41.5 19.5t47.5 -18.5z" />
    <glyph glyph-name="parenright" unicode=")" 
d="M101 197q-6 0 -9 -1v-98q2 -1 9 -1q18 0 24.5 12t6.5 38t-6.5 38t-24.5 12zM253 161v-24h-40v-38h47v-24h-76v145h76v-25h-47v-34h40zM99 73q-23 0 -36 2v143q26 4 37 4q33 0 47 -18t14 -57t-14.5 -56.5t-47.5 -17.5zM286 220h39l19 -80l19 80h40q1 -21 3.5 -78.5
t2.5 -66.5h-29q0 53 -3 104l-20 -82h-27l-20 82h-1q-2 -68 -2 -104h-28q2 84 7 145zM482 73q-29 0 -41 17.5t-12 56.5t12 57t41 18t41.5 -18t12.5 -57t-12.5 -56.5t-41.5 -17.5zM482 197q-14 0 -19 -11.5t-5 -38.5q0 -50 24 -50q15 0 20 12t5 38q0 27 -5 38.5t-20 11.5z
M472 496q34 0 48 -20t14 -43q0 -21 -16.5 -35t-35.5 -17q-104 -12 -166 -72q3 8 8.5 20.5t22.5 44.5t34.5 57t42.5 45t48 20zM139 444q26 0 52 -19.5t44 -47t32 -54.5t21 -47l7 -19q-57 72 -156 72q-24 0 -43 15t-19 37q0 26 16.5 44.5t45.5 18.5zM314 593q19 -18 24 -50
t-1.5 -64t-15.5 -62t-17 -49l-9 -18q10 93 -61 161q-17 17 -20.5 40t11.5 41q18 18 41.5 19.5t47.5 -18.5z" />
    <glyph glyph-name="asterisk" unicode="*" 
d="M101 197q-6 0 -9 -1v-98q2 -1 9 -1q18 0 24.5 12t6.5 38t-6.5 38t-24.5 12zM253 161v-24h-40v-38h47v-24h-76v145h76v-25h-47v-34h40zM99 73q-23 0 -36 2v143q26 4 37 4q33 0 47 -18t14 -57t-14.5 -56.5t-47.5 -17.5zM286 220h39l19 -80l19 80h40q1 -21 3.5 -78.5
t2.5 -66.5h-29q0 53 -3 104l-20 -82h-27l-20 82h-1q-2 -68 -2 -104h-28q2 84 7 145zM482 73q-29 0 -41 17.5t-12 56.5t12 57t41 18t41.5 -18t12.5 -57t-12.5 -56.5t-41.5 -17.5zM482 197q-14 0 -19 -11.5t-5 -38.5q0 -50 24 -50q15 0 20 12t5 38q0 27 -5 38.5t-20 11.5z
M472 496q34 0 48 -20t14 -43q0 -21 -16.5 -35t-35.5 -17q-104 -12 -166 -72q3 8 8.5 20.5t22.5 44.5t34.5 57t42.5 45t48 20zM139 444q26 0 52 -19.5t44 -47t32 -54.5t21 -47l7 -19q-57 72 -156 72q-24 0 -43 15t-19 37q0 26 16.5 44.5t45.5 18.5zM314 593q19 -18 24 -50
t-1.5 -64t-15.5 -62t-17 -49l-9 -18q10 93 -61 161q-17 17 -20.5 40t11.5 41q18 18 41.5 19.5t47.5 -18.5z" />
    <glyph glyph-name="plus" unicode="+" 
d="M101 197q-6 0 -9 -1v-98q2 -1 9 -1q18 0 24.5 12t6.5 38t-6.5 38t-24.5 12zM253 161v-24h-40v-38h47v-24h-76v145h76v-25h-47v-34h40zM99 73q-23 0 -36 2v143q26 4 37 4q33 0 47 -18t14 -57t-14.5 -56.5t-47.5 -17.5zM286 220h39l19 -80l19 80h40q1 -21 3.5 -78.5
t2.5 -66.5h-29q0 53 -3 104l-20 -82h-27l-20 82h-1q-2 -68 -2 -104h-28q2 84 7 145zM482 73q-29 0 -41 17.5t-12 56.5t12 57t41 18t41.5 -18t12.5 -57t-12.5 -56.5t-41.5 -17.5zM482 197q-14 0 -19 -11.5t-5 -38.5q0 -50 24 -50q15 0 20 12t5 38q0 27 -5 38.5t-20 11.5z
M472 496q34 0 48 -20t14 -43q0 -21 -16.5 -35t-35.5 -17q-104 -12 -166 -72q3 8 8.5 20.5t22.5 44.5t34.5 57t42.5 45t48 20zM139 444q26 0 52 -19.5t44 -47t32 -54.5t21 -47l7 -19q-57 72 -156 72q-24 0 -43 15t-19 37q0 26 16.5 44.5t45.5 18.5zM314 593q19 -18 24 -50
t-1.5 -64t-15.5 -62t-17 -49l-9 -18q10 93 -61 161q-17 17 -20.5 40t11.5 41q18 18 41.5 19.5t47.5 -18.5z" />
    <glyph glyph-name="comma" unicode="," horiz-adv-x="278" 
d="M79 62q5 30 29.5 50.5t55.5 20.5q29 0 46 -21t12 -50q-2 -16 -17 -38l-101 -142h-52l68 110q-23 6 -34 25t-7 45z" />
    <glyph glyph-name="hyphen" unicode="-" 
d="M101 197q-6 0 -9 -1v-98q2 -1 9 -1q18 0 24.5 12t6.5 38t-6.5 38t-24.5 12zM253 161v-24h-40v-38h47v-24h-76v145h76v-25h-47v-34h40zM99 73q-23 0 -36 2v143q26 4 37 4q33 0 47 -18t14 -57t-14.5 -56.5t-47.5 -17.5zM286 220h39l19 -80l19 80h40q1 -21 3.5 -78.5
t2.5 -66.5h-29q0 53 -3 104l-20 -82h-27l-20 82h-1q-2 -68 -2 -104h-28q2 84 7 145zM482 73q-29 0 -41 17.5t-12 56.5t12 57t41 18t41.5 -18t12.5 -57t-12.5 -56.5t-41.5 -17.5zM482 197q-14 0 -19 -11.5t-5 -38.5q0 -50 24 -50q15 0 20 12t5 38q0 27 -5 38.5t-20 11.5z
M472 496q34 0 48 -20t14 -43q0 -21 -16.5 -35t-35.5 -17q-104 -12 -166 -72q3 8 8.5 20.5t22.5 44.5t34.5 57t42.5 45t48 20zM139 444q26 0 52 -19.5t44 -47t32 -54.5t21 -47l7 -19q-57 72 -156 72q-24 0 -43 15t-19 37q0 26 16.5 44.5t45.5 18.5zM314 593q19 -18 24 -50
t-1.5 -64t-15.5 -62t-17 -49l-9 -18q10 93 -61 161q-17 17 -20.5 40t11.5 41q18 18 41.5 19.5t47.5 -18.5z" />
    <glyph glyph-name="period" unicode="." horiz-adv-x="278" 
d="M79 63q5 30 29.5 50t55.5 20q29 0 46 -20.5t12 -49.5q-5 -31 -29 -52t-54 -21q-31 0 -48 20.5t-12 52.5z" />
    <glyph glyph-name="slash" unicode="/" 
d="M101 197q-6 0 -9 -1v-98q2 -1 9 -1q18 0 24.5 12t6.5 38t-6.5 38t-24.5 12zM253 161v-24h-40v-38h47v-24h-76v145h76v-25h-47v-34h40zM99 73q-23 0 -36 2v143q26 4 37 4q33 0 47 -18t14 -57t-14.5 -56.5t-47.5 -17.5zM286 220h39l19 -80l19 80h40q1 -21 3.5 -78.5
t2.5 -66.5h-29q0 53 -3 104l-20 -82h-27l-20 82h-1q-2 -68 -2 -104h-28q2 84 7 145zM482 73q-29 0 -41 17.5t-12 56.5t12 57t41 18t41.5 -18t12.5 -57t-12.5 -56.5t-41.5 -17.5zM482 197q-14 0 -19 -11.5t-5 -38.5q0 -50 24 -50q15 0 20 12t5 38q0 27 -5 38.5t-20 11.5z
M472 496q34 0 48 -20t14 -43q0 -21 -16.5 -35t-35.5 -17q-104 -12 -166 -72q3 8 8.5 20.5t22.5 44.5t34.5 57t42.5 45t48 20zM139 444q26 0 52 -19.5t44 -47t32 -54.5t21 -47l7 -19q-57 72 -156 72q-24 0 -43 15t-19 37q0 26 16.5 44.5t45.5 18.5zM314 593q19 -18 24 -50
t-1.5 -64t-15.5 -62t-17 -49l-9 -18q10 93 -61 161q-17 17 -20.5 40t11.5 41q18 18 41.5 19.5t47.5 -18.5z" />
    <glyph glyph-name="zero" unicode="0" horiz-adv-x="754" 
d="M126 350q30 169 130.5 264.5t245.5 95.5t212.5 -96t37.5 -264q-30 -169 -131 -264.5t-246 -95.5t-212 95.5t-37 264.5zM488 630q-96 0 -168 -74.5t-95 -205.5q-49 -280 164 -280q96 0 168.5 75t95.5 205q24 136 -17 208t-148 72z" />
    <glyph glyph-name="one" unicode="1" horiz-adv-x="468" 
d="M442 700h69l-123 -700h-97l105 599l-243 -103l-16 74z" />
    <glyph glyph-name="two" unicode="2" horiz-adv-x="667" 
d="M98 80l294 225q93 71 123.5 110t39.5 87q11 68 -24 98t-107 30q-79 0 -126.5 -51.5t-60.5 -124.5h-99q9 47 29 89.5t54 81.5t89 62t125 23q52 0 94 -11.5t74.5 -35.5t46 -66t3.5 -98q-10 -59 -56.5 -118t-171.5 -150l-206 -151h404l-14 -80h-525z" />
    <glyph glyph-name="three" unicode="3" horiz-adv-x="649" 
d="M311 313l14 79h81q61 0 95 27t45 89q11 63 -21.5 92.5t-105.5 29.5t-114.5 -41.5t-53.5 -110.5h-99q18 100 87.5 166t194.5 66q107 0 166 -49.5t43 -141.5q-22 -122 -127 -163q132 -34 111 -155q-18 -103 -101.5 -156.5t-198.5 -53.5q-88 0 -145.5 34.5t-76 85
t-8.5 109.5h99q-12 -65 21.5 -107t123.5 -42q66 0 121.5 34.5t66.5 97.5q11 60 -23 85t-103 25h-92z" />
    <glyph glyph-name="four" unicode="4" 
d="M101 197q-6 0 -9 -1v-98q2 -1 9 -1q18 0 24.5 12t6.5 38t-6.5 38t-24.5 12zM253 161v-24h-40v-38h47v-24h-76v145h76v-25h-47v-34h40zM99 73q-23 0 -36 2v143q26 4 37 4q33 0 47 -18t14 -57t-14.5 -56.5t-47.5 -17.5zM286 220h39l19 -80l19 80h40q1 -21 3.5 -78.5
t2.5 -66.5h-29q0 53 -3 104l-20 -82h-27l-20 82h-1q-2 -68 -2 -104h-28q2 84 7 145zM482 73q-29 0 -41 17.5t-12 56.5t12 57t41 18t41.5 -18t12.5 -57t-12.5 -56.5t-41.5 -17.5zM482 197q-14 0 -19 -11.5t-5 -38.5q0 -50 24 -50q15 0 20 12t5 38q0 27 -5 38.5t-20 11.5z
M472 496q34 0 48 -20t14 -43q0 -21 -16.5 -35t-35.5 -17q-104 -12 -166 -72q3 8 8.5 20.5t22.5 44.5t34.5 57t42.5 45t48 20zM139 444q26 0 52 -19.5t44 -47t32 -54.5t21 -47l7 -19q-57 72 -156 72q-24 0 -43 15t-19 37q0 26 16.5 44.5t45.5 18.5zM314 593q19 -18 24 -50
t-1.5 -64t-15.5 -62t-17 -49l-9 -18q10 93 -61 161q-17 17 -20.5 40t11.5 41q18 18 41.5 19.5t47.5 -18.5z" />
    <glyph glyph-name="five" unicode="5" horiz-adv-x="621" 
d="M161 332l114 368h376l-14 -80h-290l-61 -198q61 35 127 35q90 0 149.5 -62.5t41.5 -169.5q-19 -106 -103 -170.5t-188 -64.5q-105 0 -169.5 64t-46.5 170h99q-12 -71 23 -112.5t104 -41.5q58 0 114 42.5t67 109.5q13 73 -21.5 114t-102.5 41q-70 0 -122 -45h-97z" />
    <glyph glyph-name="six" unicode="6" horiz-adv-x="641" 
d="M402 465q106 0 170 -65.5t45 -171.5q-19 -107 -106 -172.5t-193 -65.5q-107 0 -170 65.5t-44 172.5q16 91 88 157l296 315h116l-222 -236h5l10 1h5zM332 70q58 0 116 44.5t70 113.5q13 72 -24 114.5t-106 42.5q-57 0 -115 -44.5t-70 -112.5q-13 -72 23.5 -115t105.5 -43z
" />
    <glyph glyph-name="seven" unicode="7" horiz-adv-x="540" 
d="M628 700l-13 -76l-389 -624h-108l392 620h-366l14 80h470z" />
    <glyph glyph-name="eight" unicode="8" horiz-adv-x="670" 
d="M460 710q112 0 172.5 -50.5t45.5 -140.5q-19 -106 -129 -157q112 -50 92 -165q-17 -98 -104.5 -152.5t-203.5 -54.5t-183.5 54.5t-50.5 152.5q20 115 150 165q-92 52 -73 157q15 90 93.5 140.5t190.5 50.5zM405 399q71 0 116.5 29.5t55.5 86.5q10 58 -22.5 86.5
t-108.5 28.5q-65 0 -114 -30t-58 -85q-10 -57 25 -86.5t106 -29.5zM347 70q70 0 126.5 32t67.5 93q11 62 -31.5 93t-118.5 31t-129.5 -31t-64.5 -93q-11 -63 28.5 -94t121.5 -31z" />
    <glyph glyph-name="nine" unicode="9" horiz-adv-x="641" 
d="M362 235q-106 0 -170 65.5t-45 171.5q19 107 106 172.5t193 65.5q107 0 170 -65.5t44 -172.5q-16 -86 -81 -150l-303 -322h-116l223 236h-5l-11 -1h-5zM432 630q-58 0 -115.5 -44.5t-70.5 -113.5q-13 -72 24 -114.5t107 -42.5q57 0 114.5 44.5t69.5 112.5
q13 70 -26.5 114t-102.5 44z" />
    <glyph glyph-name="colon" unicode=":" horiz-adv-x="278" 
d="M146 440q5 29 29.5 49.5t55.5 20.5q29 0 46 -20.5t12 -49.5q-6 -31 -30 -52t-53 -21q-32 0 -49 21t-11 52zM79 63q5 30 29.5 50t55.5 20q29 0 46 -20.5t12 -49.5q-5 -31 -29 -52t-54 -21q-31 0 -48 20.5t-12 52.5z" />
    <glyph glyph-name="semicolon" unicode=";" horiz-adv-x="278" 
d="M146 440q5 29 29.5 49.5t55.5 20.5q29 0 46 -20.5t12 -49.5q-6 -31 -30 -52t-53 -21q-32 0 -49 21t-11 52zM79 62q5 30 29.5 50.5t55.5 20.5q29 0 46 -21t12 -50q-2 -16 -17 -38l-101 -142h-52l68 110q-23 6 -34 25t-7 45z" />
    <glyph glyph-name="less" unicode="&#x3c;" 
d="M101 197q-6 0 -9 -1v-98q2 -1 9 -1q18 0 24.5 12t6.5 38t-6.5 38t-24.5 12zM253 161v-24h-40v-38h47v-24h-76v145h76v-25h-47v-34h40zM99 73q-23 0 -36 2v143q26 4 37 4q33 0 47 -18t14 -57t-14.5 -56.5t-47.5 -17.5zM286 220h39l19 -80l19 80h40q1 -21 3.5 -78.5
t2.5 -66.5h-29q0 53 -3 104l-20 -82h-27l-20 82h-1q-2 -68 -2 -104h-28q2 84 7 145zM482 73q-29 0 -41 17.5t-12 56.5t12 57t41 18t41.5 -18t12.5 -57t-12.5 -56.5t-41.5 -17.5zM482 197q-14 0 -19 -11.5t-5 -38.5q0 -50 24 -50q15 0 20 12t5 38q0 27 -5 38.5t-20 11.5z
M472 496q34 0 48 -20t14 -43q0 -21 -16.5 -35t-35.5 -17q-104 -12 -166 -72q3 8 8.5 20.5t22.5 44.5t34.5 57t42.5 45t48 20zM139 444q26 0 52 -19.5t44 -47t32 -54.5t21 -47l7 -19q-57 72 -156 72q-24 0 -43 15t-19 37q0 26 16.5 44.5t45.5 18.5zM314 593q19 -18 24 -50
t-1.5 -64t-15.5 -62t-17 -49l-9 -18q10 93 -61 161q-17 17 -20.5 40t11.5 41q18 18 41.5 19.5t47.5 -18.5z" />
    <glyph glyph-name="equal" unicode="=" 
d="M101 197q-6 0 -9 -1v-98q2 -1 9 -1q18 0 24.5 12t6.5 38t-6.5 38t-24.5 12zM253 161v-24h-40v-38h47v-24h-76v145h76v-25h-47v-34h40zM99 73q-23 0 -36 2v143q26 4 37 4q33 0 47 -18t14 -57t-14.5 -56.5t-47.5 -17.5zM286 220h39l19 -80l19 80h40q1 -21 3.5 -78.5
t2.5 -66.5h-29q0 53 -3 104l-20 -82h-27l-20 82h-1q-2 -68 -2 -104h-28q2 84 7 145zM482 73q-29 0 -41 17.5t-12 56.5t12 57t41 18t41.5 -18t12.5 -57t-12.5 -56.5t-41.5 -17.5zM482 197q-14 0 -19 -11.5t-5 -38.5q0 -50 24 -50q15 0 20 12t5 38q0 27 -5 38.5t-20 11.5z
M472 496q34 0 48 -20t14 -43q0 -21 -16.5 -35t-35.5 -17q-104 -12 -166 -72q3 8 8.5 20.5t22.5 44.5t34.5 57t42.5 45t48 20zM139 444q26 0 52 -19.5t44 -47t32 -54.5t21 -47l7 -19q-57 72 -156 72q-24 0 -43 15t-19 37q0 26 16.5 44.5t45.5 18.5zM314 593q19 -18 24 -50
t-1.5 -64t-15.5 -62t-17 -49l-9 -18q10 93 -61 161q-17 17 -20.5 40t11.5 41q18 18 41.5 19.5t47.5 -18.5z" />
    <glyph glyph-name="greater" unicode="&#x3e;" 
d="M101 197q-6 0 -9 -1v-98q2 -1 9 -1q18 0 24.5 12t6.5 38t-6.5 38t-24.5 12zM253 161v-24h-40v-38h47v-24h-76v145h76v-25h-47v-34h40zM99 73q-23 0 -36 2v143q26 4 37 4q33 0 47 -18t14 -57t-14.5 -56.5t-47.5 -17.5zM286 220h39l19 -80l19 80h40q1 -21 3.5 -78.5
t2.5 -66.5h-29q0 53 -3 104l-20 -82h-27l-20 82h-1q-2 -68 -2 -104h-28q2 84 7 145zM482 73q-29 0 -41 17.5t-12 56.5t12 57t41 18t41.5 -18t12.5 -57t-12.5 -56.5t-41.5 -17.5zM482 197q-14 0 -19 -11.5t-5 -38.5q0 -50 24 -50q15 0 20 12t5 38q0 27 -5 38.5t-20 11.5z
M472 496q34 0 48 -20t14 -43q0 -21 -16.5 -35t-35.5 -17q-104 -12 -166 -72q3 8 8.5 20.5t22.5 44.5t34.5 57t42.5 45t48 20zM139 444q26 0 52 -19.5t44 -47t32 -54.5t21 -47l7 -19q-57 72 -156 72q-24 0 -43 15t-19 37q0 26 16.5 44.5t45.5 18.5zM314 593q19 -18 24 -50
t-1.5 -64t-15.5 -62t-17 -49l-9 -18q10 93 -61 161q-17 17 -20.5 40t11.5 41q18 18 41.5 19.5t47.5 -18.5z" />
    <glyph glyph-name="question" unicode="?" horiz-adv-x="612" 
d="M290 221l5 31q13 73 34 98.5t93 64.5q3 1 17 8.5t17.5 10t15.5 9.5t16 10.5t13 11.5t13 14.5t10 15.5t9 19.5t5 22.5q9 55 -20 74.5t-95 19.5q-75 0 -116 -40t-52 -103h-99q9 47 26 84t48 70t84 51t125 18q49 0 86.5 -8t67 -26.5t41.5 -53t3 -83.5q-12 -73 -45.5 -111
t-98.5 -74q-59 -33 -77 -50.5t-24 -56.5l-5 -27h-97zM241 59q5 29 28.5 48.5t53.5 19.5q29 0 45 -20t11 -48q-4 -29 -27.5 -49t-52.5 -20q-30 0 -46.5 20t-11.5 49z" />
    <glyph glyph-name="at" unicode="@" 
d="M101 197q-6 0 -9 -1v-98q2 -1 9 -1q18 0 24.5 12t6.5 38t-6.5 38t-24.5 12zM253 161v-24h-40v-38h47v-24h-76v145h76v-25h-47v-34h40zM99 73q-23 0 -36 2v143q26 4 37 4q33 0 47 -18t14 -57t-14.5 -56.5t-47.5 -17.5zM286 220h39l19 -80l19 80h40q1 -21 3.5 -78.5
t2.5 -66.5h-29q0 53 -3 104l-20 -82h-27l-20 82h-1q-2 -68 -2 -104h-28q2 84 7 145zM482 73q-29 0 -41 17.5t-12 56.5t12 57t41 18t41.5 -18t12.5 -57t-12.5 -56.5t-41.5 -17.5zM482 197q-14 0 -19 -11.5t-5 -38.5q0 -50 24 -50q15 0 20 12t5 38q0 27 -5 38.5t-20 11.5z
M472 496q34 0 48 -20t14 -43q0 -21 -16.5 -35t-35.5 -17q-104 -12 -166 -72q3 8 8.5 20.5t22.5 44.5t34.5 57t42.5 45t48 20zM139 444q26 0 52 -19.5t44 -47t32 -54.5t21 -47l7 -19q-57 72 -156 72q-24 0 -43 15t-19 37q0 26 16.5 44.5t45.5 18.5zM314 593q19 -18 24 -50
t-1.5 -64t-15.5 -62t-17 -49l-9 -18q10 93 -61 161q-17 17 -20.5 40t11.5 41q18 18 41.5 19.5t47.5 -18.5z" />
    <glyph glyph-name="A" unicode="A" horiz-adv-x="792" 
d="M471 700h97l189 -699h-96l-42 168h-373l-102 -168h-109zM295 249h303l-89 352z" />
    <glyph glyph-name="B" unicode="B" horiz-adv-x="703" 
d="M80 0l123 700h289q14 0 26.5 -0.5t30.5 -3t32.5 -6.5t32 -10.5t29.5 -16t25 -23.5t17.5 -32t8 -41t-3.5 -52q-19 -110 -125 -155q131 -36 108 -169q-11 -60 -43 -101.5t-75.5 -59t-77.5 -24t-68 -6.5h-329zM246 392h185q138 0 159 117q5 32 -1.5 54.5t-18 33t-33 16.5
t-33.5 6.5t-33 0.5h-185zM191 80h221q18 0 35.5 2.5t47 12t51 35t28.5 64.5q6 32 -1.5 55.5t-21 35t-34.5 18.5t-34.5 8t-29.5 1h-221z" />
    <glyph glyph-name="C" unicode="C" horiz-adv-x="815" 
d="M225 350q-24 -136 36 -208t173 -72q97 0 174 59t90 130h99q-18 -100 -121.5 -184.5t-255.5 -84.5t-237.5 98.5t-56.5 261.5q19 108 82.5 191t151.5 126t187 43q78 0 138.5 -25t93 -65t45.5 -86.5t5 -92.5h-99q12 74 -38 131.5t-159 57.5q-65 0 -127.5 -29.5t-113.5 -95
t-67 -155.5z" />
    <glyph glyph-name="D" unicode="D" horiz-adv-x="794" 
d="M484 700q75 0 137.5 -23.5t106 -66.5t62 -110.5t3.5 -149.5q-29 -163 -153 -256.5t-279 -93.5h-281l123 700h281zM191 80h184q110 0 203 72t116 198q23 130 -39.5 200t-184.5 70h-184z" />
    <glyph glyph-name="E" unicode="E" horiz-adv-x="624" 
d="M203 700h493l-14 -80h-396l-38 -219h366l-14 -80h-366l-43 -241h396l-14 -80h-493z" />
    <glyph glyph-name="F" unicode="F" horiz-adv-x="604" 
d="M203 700h486l-14 -80h-389l-42 -236h360l-14 -80h-360l-53 -304h-97z" />
    <glyph glyph-name="G" unicode="G" horiz-adv-x="825" 
d="M225 353q-24 -135 36 -208t190 -73q88 0 162 56.5t97 149.5h-264l14 80h364l-63 -358h-89l17 97q-108 -101 -264 -101q-154 0 -240.5 97t-58.5 260q29 162 152.5 259.5t277.5 97.5q71 0 129 -22.5t91.5 -58.5t48.5 -79t8 -85h-99q11 66 -39 115.5t-154 49.5
q-113 0 -203 -73.5t-113 -203.5z" />
    <glyph glyph-name="H" unicode="H" horiz-adv-x="838" 
d="M203 700h97l-53 -302h484l53 302h97l-123 -700h-97l56 318h-484l-56 -318h-97z" />
    <glyph glyph-name="I" unicode="I" horiz-adv-x="257" 
d="M203 700h97l-123 -700h-97z" />
    <glyph glyph-name="J" unicode="J" horiz-adv-x="647" 
d="M593 700h97l-78 -445q-22 -120 -101.5 -192.5t-200.5 -72.5q-125 0 -178 73t-31 197h99q-33 -190 125 -190q68 0 122 52t68 133z" />
    <glyph glyph-name="K" unicode="K" horiz-adv-x="700" 
d="M203 700h97l-58 -330h103l298 330h116l-336 -365l242 -335h-122l-204 290h-111l-51 -290h-97z" />
    <glyph glyph-name="L" unicode="L" horiz-adv-x="637" 
d="M203 700h97l-109 -620h409l-14 -80h-506z" />
    <glyph glyph-name="M" unicode="M" horiz-adv-x="924" 
d="M204 700h93l182 -602l395 602h94l-123 -700h-94l84 476l-315 -476h-106l1 2l-3 -2l-149 504l-89 -504h-93z" />
    <glyph glyph-name="N" unicode="N" horiz-adv-x="834" 
d="M203 700h97l380 -567l100 567h97l-123 -700h-97l-381 561l-99 -561h-97z" />
    <glyph glyph-name="O" unicode="O" horiz-adv-x="867" 
d="M126 350q29 163 155 261.5t277 98.5q73 0 135 -25t106 -70t62.5 -114t3.5 -151q-29 -163 -155.5 -261.5t-278.5 -98.5q-72 0 -134 25t-105.5 70t-62 114t-3.5 151zM544 630q-68 0 -135 -33t-118.5 -98.5t-65.5 -148.5q-23 -128 39.5 -204t180.5 -76q106 0 202.5 78
t118.5 202q22 128 -41.5 204t-180.5 76z" />
    <glyph glyph-name="P" unicode="P" horiz-adv-x="692" 
d="M514 700q24 0 50 -4t60.5 -19t59 -39t37 -68.5t2.5 -102.5t-38.5 -103t-61 -69t-72.5 -39t-67.5 -19t-51.5 -4h-214l-41 -233h-97l123 700h311zM232 313h206q12 0 29 3t42.5 13t47.5 25.5t41.5 45t25.5 67.5q8 47 -3 79.5t-36 47.5t-47.5 20.5t-45.5 5.5h-206z" />
    <glyph glyph-name="Q" unicode="Q" horiz-adv-x="867" 
d="M660 -200l-135 201q-49 -11 -94 -11q-72 0 -134 25t-105.5 70t-62 114t-3.5 151q29 163 155 261.5t277 98.5q73 0 135 -25t106 -70t62.5 -114t3.5 -151q-19 -108 -83.5 -189t-157.5 -126l161 -235h-125zM544 630q-106 0 -202 -78t-117 -202q-23 -128 40 -204t180 -76
q68 0 135 33t119 98.5t67 148.5q22 128 -41 204t-181 76z" />
    <glyph glyph-name="R" unicode="R" horiz-adv-x="721" 
d="M525 700q25 0 52.5 -4.5t61.5 -18.5t58 -36.5t36.5 -63.5t3.5 -94t-34.5 -94t-61 -65.5t-69 -38.5t-68.5 -21l149 -264h-115l-144 258h-172l-45 -258h-97l123 700h322zM237 338h217q17 0 41 6t55 20t55.5 44t31.5 71q7 42 -4 71.5t-35.5 43.5t-47.5 20t-47 6h-217z" />
    <glyph glyph-name="S" unicode="S" horiz-adv-x="740" 
d="M196 222q-12 -66 32.5 -109t160.5 -43q94 0 155 32t71 87q4 23 -2 39t-15.5 26t-36 18t-45.5 12t-62 11q-34 6 -52 9q-131 24 -186 71.5t-38 138.5q16 93 104 144.5t212 51.5q155 0 217 -65.5t45 -162.5h-99q12 67 -26 107.5t-151 40.5q-78 0 -135.5 -29t-67.5 -85
q-9 -54 33 -76t168 -45q70 -13 104.5 -22t76 -30t54.5 -56.5t4 -89.5q-17 -93 -103 -150t-235 -57q-161 0 -230 68t-52 164h99z" />
    <glyph glyph-name="T" unicode="T" horiz-adv-x="702" 
d="M162 700h624l-14 -80h-264l-109 -620h-97l109 620h-263z" />
    <glyph glyph-name="U" unicode="U" horiz-adv-x="764" 
d="M710 700h97l-72 -410q-52 -300 -358 -300q-149 0 -211 73.5t-35 226.5l72 410h97l-72 -410q-20 -117 17 -168.5t146 -51.5q98 0 162.5 54t84.5 166z" />
    <glyph glyph-name="V" unicode="V" horiz-adv-x="800" 
d="M351 0l-189 700h104l151 -572l352 572h115l-436 -700h-97z" />
    <glyph glyph-name="W" unicode="W" horiz-adv-x="1056" 
d="M261 0l-99 700h97l70 -562l263 562h102l67 -572l272 572h107l-349 -700h-109l-63 540l-253 -540h-105z" />
    <glyph glyph-name="X" unicode="X" horiz-adv-x="811" 
d="M39 0l372 365l-211 335h117l162 -270l251 270h131l-325 -337l234 -363h-117l-183 302l-295 -302h-136z" />
    <glyph glyph-name="Y" unicode="Y" horiz-adv-x="767" 
d="M372 210l-210 490h104l163 -402l302 402h120l-382 -490l-37 -210h-97z" />
    <glyph glyph-name="Z" unicode="Z" horiz-adv-x="632" 
d="M690 700l-13 -76l-500 -544h430l-14 -80h-554l13 76l501 544h-397l14 80h520z" />
    <glyph glyph-name="bracketleft" unicode="[" 
d="M101 197q-6 0 -9 -1v-98q2 -1 9 -1q18 0 24.5 12t6.5 38t-6.5 38t-24.5 12zM253 161v-24h-40v-38h47v-24h-76v145h76v-25h-47v-34h40zM99 73q-23 0 -36 2v143q26 4 37 4q33 0 47 -18t14 -57t-14.5 -56.5t-47.5 -17.5zM286 220h39l19 -80l19 80h40q1 -21 3.5 -78.5
t2.5 -66.5h-29q0 53 -3 104l-20 -82h-27l-20 82h-1q-2 -68 -2 -104h-28q2 84 7 145zM482 73q-29 0 -41 17.5t-12 56.5t12 57t41 18t41.5 -18t12.5 -57t-12.5 -56.5t-41.5 -17.5zM482 197q-14 0 -19 -11.5t-5 -38.5q0 -50 24 -50q15 0 20 12t5 38q0 27 -5 38.5t-20 11.5z
M472 496q34 0 48 -20t14 -43q0 -21 -16.5 -35t-35.5 -17q-104 -12 -166 -72q3 8 8.5 20.5t22.5 44.5t34.5 57t42.5 45t48 20zM139 444q26 0 52 -19.5t44 -47t32 -54.5t21 -47l7 -19q-57 72 -156 72q-24 0 -43 15t-19 37q0 26 16.5 44.5t45.5 18.5zM314 593q19 -18 24 -50
t-1.5 -64t-15.5 -62t-17 -49l-9 -18q10 93 -61 161q-17 17 -20.5 40t11.5 41q18 18 41.5 19.5t47.5 -18.5z" />
    <glyph glyph-name="backslash" unicode="\" 
d="M101 197q-6 0 -9 -1v-98q2 -1 9 -1q18 0 24.5 12t6.5 38t-6.5 38t-24.5 12zM253 161v-24h-40v-38h47v-24h-76v145h76v-25h-47v-34h40zM99 73q-23 0 -36 2v143q26 4 37 4q33 0 47 -18t14 -57t-14.5 -56.5t-47.5 -17.5zM286 220h39l19 -80l19 80h40q1 -21 3.5 -78.5
t2.5 -66.5h-29q0 53 -3 104l-20 -82h-27l-20 82h-1q-2 -68 -2 -104h-28q2 84 7 145zM482 73q-29 0 -41 17.5t-12 56.5t12 57t41 18t41.5 -18t12.5 -57t-12.5 -56.5t-41.5 -17.5zM482 197q-14 0 -19 -11.5t-5 -38.5q0 -50 24 -50q15 0 20 12t5 38q0 27 -5 38.5t-20 11.5z
M472 496q34 0 48 -20t14 -43q0 -21 -16.5 -35t-35.5 -17q-104 -12 -166 -72q3 8 8.5 20.5t22.5 44.5t34.5 57t42.5 45t48 20zM139 444q26 0 52 -19.5t44 -47t32 -54.5t21 -47l7 -19q-57 72 -156 72q-24 0 -43 15t-19 37q0 26 16.5 44.5t45.5 18.5zM314 593q19 -18 24 -50
t-1.5 -64t-15.5 -62t-17 -49l-9 -18q10 93 -61 161q-17 17 -20.5 40t11.5 41q18 18 41.5 19.5t47.5 -18.5z" />
    <glyph glyph-name="bracketright" unicode="]" 
d="M101 197q-6 0 -9 -1v-98q2 -1 9 -1q18 0 24.5 12t6.5 38t-6.5 38t-24.5 12zM253 161v-24h-40v-38h47v-24h-76v145h76v-25h-47v-34h40zM99 73q-23 0 -36 2v143q26 4 37 4q33 0 47 -18t14 -57t-14.5 -56.5t-47.5 -17.5zM286 220h39l19 -80l19 80h40q1 -21 3.5 -78.5
t2.5 -66.5h-29q0 53 -3 104l-20 -82h-27l-20 82h-1q-2 -68 -2 -104h-28q2 84 7 145zM482 73q-29 0 -41 17.5t-12 56.5t12 57t41 18t41.5 -18t12.5 -57t-12.5 -56.5t-41.5 -17.5zM482 197q-14 0 -19 -11.5t-5 -38.5q0 -50 24 -50q15 0 20 12t5 38q0 27 -5 38.5t-20 11.5z
M472 496q34 0 48 -20t14 -43q0 -21 -16.5 -35t-35.5 -17q-104 -12 -166 -72q3 8 8.5 20.5t22.5 44.5t34.5 57t42.5 45t48 20zM139 444q26 0 52 -19.5t44 -47t32 -54.5t21 -47l7 -19q-57 72 -156 72q-24 0 -43 15t-19 37q0 26 16.5 44.5t45.5 18.5zM314 593q19 -18 24 -50
t-1.5 -64t-15.5 -62t-17 -49l-9 -18q10 93 -61 161q-17 17 -20.5 40t11.5 41q18 18 41.5 19.5t47.5 -18.5z" />
    <glyph glyph-name="asciicircum" unicode="^" 
d="M101 197q-6 0 -9 -1v-98q2 -1 9 -1q18 0 24.5 12t6.5 38t-6.5 38t-24.5 12zM253 161v-24h-40v-38h47v-24h-76v145h76v-25h-47v-34h40zM99 73q-23 0 -36 2v143q26 4 37 4q33 0 47 -18t14 -57t-14.5 -56.5t-47.5 -17.5zM286 220h39l19 -80l19 80h40q1 -21 3.5 -78.5
t2.5 -66.5h-29q0 53 -3 104l-20 -82h-27l-20 82h-1q-2 -68 -2 -104h-28q2 84 7 145zM482 73q-29 0 -41 17.5t-12 56.5t12 57t41 18t41.5 -18t12.5 -57t-12.5 -56.5t-41.5 -17.5zM482 197q-14 0 -19 -11.5t-5 -38.5q0 -50 24 -50q15 0 20 12t5 38q0 27 -5 38.5t-20 11.5z
M472 496q34 0 48 -20t14 -43q0 -21 -16.5 -35t-35.5 -17q-104 -12 -166 -72q3 8 8.5 20.5t22.5 44.5t34.5 57t42.5 45t48 20zM139 444q26 0 52 -19.5t44 -47t32 -54.5t21 -47l7 -19q-57 72 -156 72q-24 0 -43 15t-19 37q0 26 16.5 44.5t45.5 18.5zM314 593q19 -18 24 -50
t-1.5 -64t-15.5 -62t-17 -49l-9 -18q10 93 -61 161q-17 17 -20.5 40t11.5 41q18 18 41.5 19.5t47.5 -18.5z" />
    <glyph glyph-name="underscore" unicode="_" 
d="M101 197q-6 0 -9 -1v-98q2 -1 9 -1q18 0 24.5 12t6.5 38t-6.5 38t-24.5 12zM253 161v-24h-40v-38h47v-24h-76v145h76v-25h-47v-34h40zM99 73q-23 0 -36 2v143q26 4 37 4q33 0 47 -18t14 -57t-14.5 -56.5t-47.5 -17.5zM286 220h39l19 -80l19 80h40q1 -21 3.5 -78.5
t2.5 -66.5h-29q0 53 -3 104l-20 -82h-27l-20 82h-1q-2 -68 -2 -104h-28q2 84 7 145zM482 73q-29 0 -41 17.5t-12 56.5t12 57t41 18t41.5 -18t12.5 -57t-12.5 -56.5t-41.5 -17.5zM482 197q-14 0 -19 -11.5t-5 -38.5q0 -50 24 -50q15 0 20 12t5 38q0 27 -5 38.5t-20 11.5z
M472 496q34 0 48 -20t14 -43q0 -21 -16.5 -35t-35.5 -17q-104 -12 -166 -72q3 8 8.5 20.5t22.5 44.5t34.5 57t42.5 45t48 20zM139 444q26 0 52 -19.5t44 -47t32 -54.5t21 -47l7 -19q-57 72 -156 72q-24 0 -43 15t-19 37q0 26 16.5 44.5t45.5 18.5zM314 593q19 -18 24 -50
t-1.5 -64t-15.5 -62t-17 -49l-9 -18q10 93 -61 161q-17 17 -20.5 40t11.5 41q18 18 41.5 19.5t47.5 -18.5z" />
    <glyph glyph-name="grave" unicode="`" 
d="M101 197q-6 0 -9 -1v-98q2 -1 9 -1q18 0 24.5 12t6.5 38t-6.5 38t-24.5 12zM253 161v-24h-40v-38h47v-24h-76v145h76v-25h-47v-34h40zM99 73q-23 0 -36 2v143q26 4 37 4q33 0 47 -18t14 -57t-14.5 -56.5t-47.5 -17.5zM286 220h39l19 -80l19 80h40q1 -21 3.5 -78.5
t2.5 -66.5h-29q0 53 -3 104l-20 -82h-27l-20 82h-1q-2 -68 -2 -104h-28q2 84 7 145zM482 73q-29 0 -41 17.5t-12 56.5t12 57t41 18t41.5 -18t12.5 -57t-12.5 -56.5t-41.5 -17.5zM482 197q-14 0 -19 -11.5t-5 -38.5q0 -50 24 -50q15 0 20 12t5 38q0 27 -5 38.5t-20 11.5z
M472 496q34 0 48 -20t14 -43q0 -21 -16.5 -35t-35.5 -17q-104 -12 -166 -72q3 8 8.5 20.5t22.5 44.5t34.5 57t42.5 45t48 20zM139 444q26 0 52 -19.5t44 -47t32 -54.5t21 -47l7 -19q-57 72 -156 72q-24 0 -43 15t-19 37q0 26 16.5 44.5t45.5 18.5zM314 593q19 -18 24 -50
t-1.5 -64t-15.5 -62t-17 -49l-9 -18q10 93 -61 161q-17 17 -20.5 40t11.5 41q18 18 41.5 19.5t47.5 -18.5z" />
    <glyph glyph-name="a" unicode="a" horiz-adv-x="587" 
d="M199 500h185q81 0 123.5 -26t48.5 -70.5t-3 -104.5l-24 -133q-9 -50 3 -69t58 -19h9l-14 -78h-65q-56 1 -75.5 21t-14.5 69q-67 -100 -193 -100q-181 0 -153 157q28 159 216 159h159q6 37 5.5 62.5t-26 39.5t-81.5 14h-172zM445 228h-156q-94 0 -108 -79q-9 -49 11.5 -65
t82.5 -16q57 0 105.5 33t57.5 84z" />
    <glyph glyph-name="b" unicode="b" horiz-adv-x="656" 
d="M646 250q-20 -115 -100 -187.5t-188 -72.5q-60 0 -107 26.5t-70 73.5l-16 -90h-95l123 700h95l-51 -291q39 47 95.5 74t117.5 27q108 0 162 -72.5t34 -187.5zM215 287l-15 -88q-7 -56 34.5 -93.5t109.5 -37.5q71 0 131 51t74 131q14 84 -22.5 133t-118.5 49
q-59 0 -120 -41t-71 -97z" />
    <glyph glyph-name="c" unicode="c" horiz-adv-x="619" 
d="M195 251q-15 -87 22.5 -135t118.5 -48q58 0 107.5 37.5t57.5 81.5h97q-14 -76 -87 -136.5t-188 -60.5q-121 0 -183.5 70t-41.5 191q21 120 108.5 189.5t208.5 69.5q115 0 167 -60t38 -136h-97q8 46 -22.5 82t-100.5 36t-130 -49.5t-75 -131.5z" />
    <glyph glyph-name="d" unicode="d" horiz-adv-x="656" 
d="M98 250q20 115 100 187.5t188 72.5q60 0 107 -26.5t70 -73.5l51 290h95l-123 -700h-95l16 90q-39 -46 -96 -73t-117 -27q-108 0 -162 72.5t-34 187.5zM336 68q59 0 120 41t71 97l16 88q10 59 -31 98.5t-112 39.5t-131 -51t-74 -131q-14 -84 22.5 -133t118.5 -49z" />
    <glyph glyph-name="e" unicode="e" horiz-adv-x="619" 
d="M191 219q-6 -77 30 -114t104 -37q61 0 112.5 28t58.5 69h92q-17 -66 -94 -120.5t-187 -54.5q-109 0 -169.5 70.5t-39.5 189.5q21 120 106.5 190.5t194.5 70.5q118 0 174 -72t37 -186l-6 -34h-413zM518 295q6 76 -26.5 107t-102.5 31q-53 0 -105 -35.5t-77 -102.5h311z
" />
    <glyph glyph-name="f" unicode="f" horiz-adv-x="418" 
d="M493 632h-70q-56 0 -81.5 -21t-35.5 -77l-6 -34h171l-14 -78h-171l-74 -422h-95l75 422h-83l14 78h82l9 49q27 160 189 161h104z" />
    <glyph glyph-name="g" unicode="g" horiz-adv-x="656" 
d="M109 -122h196q164 0 192 156l10 56q-39 -46 -96 -73t-117 -27q-108 0 -162 72.5t-34 187.5t100 187.5t188 72.5q60 0 107 -26.5t70 -73.5l16 90h95l-80 -455q-43 -245 -294 -245h-204zM336 68q59 0 120 41t71 97l16 88q10 59 -31 98.5t-112 39.5t-131 -51t-74 -131
q-14 -84 22.5 -133t118.5 -49z" />
    <glyph glyph-name="h" unicode="h" horiz-adv-x="620" 
d="M193 700h95l-52 -296q39 49 95 77.5t116 28.5q193 0 157 -201l-54 -309h-95l50 286q7 44 4.5 76.5t-31 51t-85.5 18.5t-112 -44t-67 -108l-49 -280h-95z" />
    <glyph glyph-name="i" unicode="i" horiz-adv-x="223" 
d="M166 664q5 25 26.5 43t48.5 18q25 0 40 -18t10 -43q-4 -27 -25 -45.5t-47 -18.5q-27 0 -42.5 18.5t-10.5 45.5zM152 500h95l-88 -500h-95z" />
    <glyph glyph-name="j" unicode="j" horiz-adv-x="223" 
d="M165 664q5 25 26.5 43t48.5 18q25 0 40 -18t10 -43q-4 -27 -25 -45.5t-47 -18.5q-27 0 -42.5 18.5t-10.5 45.5zM-116 -122h57q55 0 82.5 24t36.5 78l92 520h95l-95 -538q-28 -162 -190 -162h-91z" />
    <glyph glyph-name="k" unicode="k" horiz-adv-x="596" 
d="M193 700h95l-70 -401h93l194 201h111l-236 -237l175 -263h-114l-141 221h-96l-39 -221h-95z" />
    <glyph glyph-name="l" unicode="l" horiz-adv-x="263" 
d="M264 78l-14 -78h-61q-68 1 -88 30.5t-8 102.5l100 567h95l-94 -534q-9 -50 1.5 -69t56.5 -19h12z" />
    <glyph glyph-name="m" unicode="m" horiz-adv-x="957" 
d="M159 500h95l-19 -107q35 54 88 85.5t110 31.5q147 0 152 -134q34 61 90 97.5t119 36.5q95 0 129.5 -53.5t17.5 -147.5l-54 -309h-95l51 290q12 70 -9.5 106t-91.5 36q-56 0 -105 -41.5t-61 -106.5l-50 -284h-95l51 290q12 70 -9.5 106t-91.5 36q-55 0 -104 -41.5
t-61 -106.5l-50 -284h-95z" />
    <glyph glyph-name="n" unicode="n" horiz-adv-x="620" 
d="M158 500h95l-17 -96q39 49 95 77.5t116 28.5q193 0 157 -201l-54 -309h-95l50 286q7 44 4.5 76.5t-31 51t-85.5 18.5t-112 -44t-67 -108l-49 -280h-95z" />
    <glyph glyph-name="o" unicode="o" horiz-adv-x="650" 
d="M415 510q112 0 179 -71t46 -189t-113 -189t-204 -71t-179 71t-46 189t113 189t204 71zM337 68q67 0 129.5 52t76.5 130q14 82 -25 132t-117 50q-67 0 -129.5 -52t-76.5 -130q-14 -82 24.5 -132t117.5 -50z" />
    <glyph glyph-name="p" unicode="p" horiz-adv-x="656" 
d="M158 500h95l-16 -91q39 47 96 74t117 27q108 0 162 -72.5t34 -187.5t-100 -187.5t-188 -72.5q-60 0 -107 26.5t-70 73.5l-51 -290h-95zM203 213l-3 -16q-6 -55 35 -92t109 -37q71 0 131 51t74 131q14 84 -22.5 133t-118.5 49q-59 0 -120 -41t-71 -97l-14 -79v-2z" />
    <glyph glyph-name="q" unicode="q" horiz-adv-x="656" 
d="M674 500l-123 -700h-95l51 290q-39 -46 -96 -73t-117 -27q-108 0 -162 72.5t-34 187.5t100 187.5t188 72.5q60 0 107.5 -26.5t69.5 -72.5l16 89h95zM527 206l2 7l15 88q7 56 -34.5 93.5t-109.5 37.5q-71 0 -131 -51t-74 -131q-14 -84 22.5 -133t118.5 -49q59 0 120 41
t71 97z" />
    <glyph glyph-name="r" unicode="r" horiz-adv-x="410" 
d="M158 500h95l-16 -91q36 47 86 74t99 27h49l-14 -78h-79q-62 0 -106.5 -41.5t-57.5 -112.5l-49 -278h-95z" />
    <glyph glyph-name="s" unicode="s" horiz-adv-x="577" 
d="M176 158q-7 -39 21 -64.5t108 -25.5q63 0 100.5 17.5t43.5 49.5q5 31 -18.5 42t-101.5 25q-16 2 -24 4q-96 17 -139 52.5t-31 106.5q12 67 78 106t158 39q117 0 165.5 -50.5t36.5 -117.5h-94q16 90 -123 90q-111 0 -123 -61q-4 -26 11 -41t37.5 -21t77.5 -16
q43 -8 70 -14t55 -18t42 -27t21 -38.5t1 -54.5q-11 -62 -78 -106.5t-170 -44.5q-129 0 -179.5 50t-38.5 118h94z" />
    <glyph glyph-name="t" unicode="t" horiz-adv-x="424" 
d="M124 500h84l21 120h95l-21 -120h174l-14 -78h-174l-42 -242q-10 -54 9 -78t73 -24h74l-14 -78h-107q-162 1 -133 162l45 260h-84z" />
    <glyph glyph-name="u" unicode="u" horiz-adv-x="647" 
d="M649 78l-14 -78h-61q-60 1 -82.5 23.5t-18.5 75.5q-39 -51 -95 -80t-117 -29q-193 0 -157 201l54 309h95l-50 -286q-7 -44 -4.5 -76.5t31 -51t85.5 -18.5t112 44t67 108l49 280h95l-59 -334q-9 -50 1.5 -69t56.5 -19h12z" />
    <glyph glyph-name="v" unicode="v" horiz-adv-x="619" 
d="M123 500h97l103 -393l240 393h109l-318 -500h-89z" />
    <glyph glyph-name="w" unicode="w" horiz-adv-x="786" 
d="M123 500h96l33 -382l181 382h97l45 -371l162 371h102l-238 -500h-96l-44 386l-180 -386h-96z" />
    <glyph glyph-name="x" unicode="x" horiz-adv-x="635" 
d="M35 0l263 261l-155 239h116l112 -185l178 185h119l-240 -239l172 -261h-117l-127 208l-200 -208h-121z" />
    <glyph glyph-name="y" unicode="y" horiz-adv-x="594" 
d="M647 500l-306 -510q-31 -51 -46 -73t-42 -51t-54.5 -39.5t-71.5 -18.5t-105 -8l13 78q68 0 108.5 14t54.5 30t40 58q6 9 9 14l6 10l-129 496h106l89 -388l222 388h106z" />
    <glyph glyph-name="z" unicode="z" horiz-adv-x="523" 
d="M554 500l-11 -66l-366 -356h325l-14 -78h-447l12 67l365 355h-295l14 78h417z" />
    <glyph glyph-name="braceleft" unicode="{" 
d="M101 197q-6 0 -9 -1v-98q2 -1 9 -1q18 0 24.5 12t6.5 38t-6.5 38t-24.5 12zM253 161v-24h-40v-38h47v-24h-76v145h76v-25h-47v-34h40zM99 73q-23 0 -36 2v143q26 4 37 4q33 0 47 -18t14 -57t-14.5 -56.5t-47.5 -17.5zM286 220h39l19 -80l19 80h40q1 -21 3.5 -78.5
t2.5 -66.5h-29q0 53 -3 104l-20 -82h-27l-20 82h-1q-2 -68 -2 -104h-28q2 84 7 145zM482 73q-29 0 -41 17.5t-12 56.5t12 57t41 18t41.5 -18t12.5 -57t-12.5 -56.5t-41.5 -17.5zM482 197q-14 0 -19 -11.5t-5 -38.5q0 -50 24 -50q15 0 20 12t5 38q0 27 -5 38.5t-20 11.5z
M472 496q34 0 48 -20t14 -43q0 -21 -16.5 -35t-35.5 -17q-104 -12 -166 -72q3 8 8.5 20.5t22.5 44.5t34.5 57t42.5 45t48 20zM139 444q26 0 52 -19.5t44 -47t32 -54.5t21 -47l7 -19q-57 72 -156 72q-24 0 -43 15t-19 37q0 26 16.5 44.5t45.5 18.5zM314 593q19 -18 24 -50
t-1.5 -64t-15.5 -62t-17 -49l-9 -18q10 93 -61 161q-17 17 -20.5 40t11.5 41q18 18 41.5 19.5t47.5 -18.5z" />
    <glyph glyph-name="bar" unicode="|" 
d="M101 197q-6 0 -9 -1v-98q2 -1 9 -1q18 0 24.5 12t6.5 38t-6.5 38t-24.5 12zM253 161v-24h-40v-38h47v-24h-76v145h76v-25h-47v-34h40zM99 73q-23 0 -36 2v143q26 4 37 4q33 0 47 -18t14 -57t-14.5 -56.5t-47.5 -17.5zM286 220h39l19 -80l19 80h40q1 -21 3.5 -78.5
t2.5 -66.5h-29q0 53 -3 104l-20 -82h-27l-20 82h-1q-2 -68 -2 -104h-28q2 84 7 145zM482 73q-29 0 -41 17.5t-12 56.5t12 57t41 18t41.5 -18t12.5 -57t-12.5 -56.5t-41.5 -17.5zM482 197q-14 0 -19 -11.5t-5 -38.5q0 -50 24 -50q15 0 20 12t5 38q0 27 -5 38.5t-20 11.5z
M472 496q34 0 48 -20t14 -43q0 -21 -16.5 -35t-35.5 -17q-104 -12 -166 -72q3 8 8.5 20.5t22.5 44.5t34.5 57t42.5 45t48 20zM139 444q26 0 52 -19.5t44 -47t32 -54.5t21 -47l7 -19q-57 72 -156 72q-24 0 -43 15t-19 37q0 26 16.5 44.5t45.5 18.5zM314 593q19 -18 24 -50
t-1.5 -64t-15.5 -62t-17 -49l-9 -18q10 93 -61 161q-17 17 -20.5 40t11.5 41q18 18 41.5 19.5t47.5 -18.5z" />
    <glyph glyph-name="braceright" unicode="}" 
d="M101 197q-6 0 -9 -1v-98q2 -1 9 -1q18 0 24.5 12t6.5 38t-6.5 38t-24.5 12zM253 161v-24h-40v-38h47v-24h-76v145h76v-25h-47v-34h40zM99 73q-23 0 -36 2v143q26 4 37 4q33 0 47 -18t14 -57t-14.5 -56.5t-47.5 -17.5zM286 220h39l19 -80l19 80h40q1 -21 3.5 -78.5
t2.5 -66.5h-29q0 53 -3 104l-20 -82h-27l-20 82h-1q-2 -68 -2 -104h-28q2 84 7 145zM482 73q-29 0 -41 17.5t-12 56.5t12 57t41 18t41.5 -18t12.5 -57t-12.5 -56.5t-41.5 -17.5zM482 197q-14 0 -19 -11.5t-5 -38.5q0 -50 24 -50q15 0 20 12t5 38q0 27 -5 38.5t-20 11.5z
M472 496q34 0 48 -20t14 -43q0 -21 -16.5 -35t-35.5 -17q-104 -12 -166 -72q3 8 8.5 20.5t22.5 44.5t34.5 57t42.5 45t48 20zM139 444q26 0 52 -19.5t44 -47t32 -54.5t21 -47l7 -19q-57 72 -156 72q-24 0 -43 15t-19 37q0 26 16.5 44.5t45.5 18.5zM314 593q19 -18 24 -50
t-1.5 -64t-15.5 -62t-17 -49l-9 -18q10 93 -61 161q-17 17 -20.5 40t11.5 41q18 18 41.5 19.5t47.5 -18.5z" />
    <glyph glyph-name="asciitilde" unicode="~" 
d="M101 197q-6 0 -9 -1v-98q2 -1 9 -1q18 0 24.5 12t6.5 38t-6.5 38t-24.5 12zM253 161v-24h-40v-38h47v-24h-76v145h76v-25h-47v-34h40zM99 73q-23 0 -36 2v143q26 4 37 4q33 0 47 -18t14 -57t-14.5 -56.5t-47.5 -17.5zM286 220h39l19 -80l19 80h40q1 -21 3.5 -78.5
t2.5 -66.5h-29q0 53 -3 104l-20 -82h-27l-20 82h-1q-2 -68 -2 -104h-28q2 84 7 145zM482 73q-29 0 -41 17.5t-12 56.5t12 57t41 18t41.5 -18t12.5 -57t-12.5 -56.5t-41.5 -17.5zM482 197q-14 0 -19 -11.5t-5 -38.5q0 -50 24 -50q15 0 20 12t5 38q0 27 -5 38.5t-20 11.5z
M472 496q34 0 48 -20t14 -43q0 -21 -16.5 -35t-35.5 -17q-104 -12 -166 -72q3 8 8.5 20.5t22.5 44.5t34.5 57t42.5 45t48 20zM139 444q26 0 52 -19.5t44 -47t32 -54.5t21 -47l7 -19q-57 72 -156 72q-24 0 -43 15t-19 37q0 26 16.5 44.5t45.5 18.5zM314 593q19 -18 24 -50
t-1.5 -64t-15.5 -62t-17 -49l-9 -18q10 93 -61 161q-17 17 -20.5 40t11.5 41q18 18 41.5 19.5t47.5 -18.5z" />
    </font>
</defs>
</svg>
