<?xml version="1.0" standalone="no"?>
<!DOCTYPE svg PUBLIC "-//W3C//DTD SVG 1.1//EN" "http://www.w3.org/Graphics/SVG/1.1/DTD/svg11.dtd" >
<svg xmlns="http://www.w3.org/2000/svg" xmlns:xlink="http://www.w3.org/1999/xlink" version="1.1">
<metadata>
Created by FontForge 20230101 at Wed Dec 30 23:16:21 2020
 By Unknown
Tour de Force Font Foundry &#38; Dusan Jelesijevic
</metadata>
<defs>
<font id="FONTSPRINGDEMO-LupioSemBdRegular" horiz-adv-x="598" >
  <font-face 
    font-family="FSP DEMO - Lupio SemBd"
    font-weight="600"
    font-stretch="normal"
    units-per-em="1000"
    panose-1="0 0 0 0 0 0 0 0 0 0"
    ascent="800"
    descent="-200"
    x-height="500"
    cap-height="700"
    bbox="-86 -200 1047 735"
    underline-thickness="50"
    underline-position="-125"
    unicode-range="U+000D-007E"
  />
<missing-glyph 
d="M101 197q-6 0 -9 -1v-98q2 -1 9 -1q18 0 24.5 12t6.5 38t-6.5 38t-24.5 12zM253 161v-24h-40v-38h47v-24h-76v145h76v-25h-47v-34h40zM99 73q-23 0 -36 2v143q26 4 37 4q33 0 47 -18t14 -57t-14.5 -56.5t-47.5 -17.5zM286 220h39l19 -80l19 80h40q1 -21 3.5 -78.5
t2.5 -66.5h-29q0 53 -3 104l-20 -82h-27l-20 82h-1q-2 -68 -2 -104h-28q2 84 7 145zM482 73q-29 0 -41 17.5t-12 56.5t12 57t41 18t41.5 -18t12.5 -57t-12.5 -56.5t-41.5 -17.5zM482 197q-14 0 -19 -11.5t-5 -38.5q0 -50 24 -50q15 0 20 12t5 38q0 27 -5 38.5t-20 11.5z
M472 496q34 0 48 -20t14 -43q0 -21 -16.5 -35t-35.5 -17q-104 -12 -166 -72q3 8 8.5 20.5t22.5 44.5t34.5 57t42.5 45t48 20zM139 444q26 0 52 -19.5t44 -47t32 -54.5t21 -47l7 -19q-57 72 -156 72q-24 0 -43 15t-19 37q0 26 16.5 44.5t45.5 18.5zM314 593q19 -18 24 -50
t-1.5 -64t-15.5 -62t-17 -49l-9 -18q10 93 -61 161q-17 17 -20.5 40t11.5 41q18 18 41.5 19.5t47.5 -18.5z" />
    <glyph glyph-name=".notdef" 
d="M101 197q-6 0 -9 -1v-98q2 -1 9 -1q18 0 24.5 12t6.5 38t-6.5 38t-24.5 12zM253 161v-24h-40v-38h47v-24h-76v145h76v-25h-47v-34h40zM99 73q-23 0 -36 2v143q26 4 37 4q33 0 47 -18t14 -57t-14.5 -56.5t-47.5 -17.5zM286 220h39l19 -80l19 80h40q1 -21 3.5 -78.5
t2.5 -66.5h-29q0 53 -3 104l-20 -82h-27l-20 82h-1q-2 -68 -2 -104h-28q2 84 7 145zM482 73q-29 0 -41 17.5t-12 56.5t12 57t41 18t41.5 -18t12.5 -57t-12.5 -56.5t-41.5 -17.5zM482 197q-14 0 -19 -11.5t-5 -38.5q0 -50 24 -50q15 0 20 12t5 38q0 27 -5 38.5t-20 11.5z
M472 496q34 0 48 -20t14 -43q0 -21 -16.5 -35t-35.5 -17q-104 -12 -166 -72q3 8 8.5 20.5t22.5 44.5t34.5 57t42.5 45t48 20zM139 444q26 0 52 -19.5t44 -47t32 -54.5t21 -47l7 -19q-57 72 -156 72q-24 0 -43 15t-19 37q0 26 16.5 44.5t45.5 18.5zM314 593q19 -18 24 -50
t-1.5 -64t-15.5 -62t-17 -49l-9 -18q10 93 -61 161q-17 17 -20.5 40t11.5 41q18 18 41.5 19.5t47.5 -18.5z" />
    <glyph glyph-name="uni0000" horiz-adv-x="0" 
 />
    <glyph glyph-name="uni000D" unicode="&#xd;" horiz-adv-x="250" 
 />
    <glyph glyph-name="space" unicode=" " horiz-adv-x="260" 
 />
    <glyph glyph-name="exclam" unicode="!" 
d="M101 197q-6 0 -9 -1v-98q2 -1 9 -1q18 0 24.5 12t6.5 38t-6.5 38t-24.5 12zM253 161v-24h-40v-38h47v-24h-76v145h76v-25h-47v-34h40zM99 73q-23 0 -36 2v143q26 4 37 4q33 0 47 -18t14 -57t-14.5 -56.5t-47.5 -17.5zM286 220h39l19 -80l19 80h40q1 -21 3.5 -78.5
t2.5 -66.5h-29q0 53 -3 104l-20 -82h-27l-20 82h-1q-2 -68 -2 -104h-28q2 84 7 145zM482 73q-29 0 -41 17.5t-12 56.5t12 57t41 18t41.5 -18t12.5 -57t-12.5 -56.5t-41.5 -17.5zM482 197q-14 0 -19 -11.5t-5 -38.5q0 -50 24 -50q15 0 20 12t5 38q0 27 -5 38.5t-20 11.5z
M472 496q34 0 48 -20t14 -43q0 -21 -16.5 -35t-35.5 -17q-104 -12 -166 -72q3 8 8.5 20.5t22.5 44.5t34.5 57t42.5 45t48 20zM139 444q26 0 52 -19.5t44 -47t32 -54.5t21 -47l7 -19q-57 72 -156 72q-24 0 -43 15t-19 37q0 26 16.5 44.5t45.5 18.5zM314 593q19 -18 24 -50
t-1.5 -64t-15.5 -62t-17 -49l-9 -18q10 93 -61 161q-17 17 -20.5 40t11.5 41q18 18 41.5 19.5t47.5 -18.5z" />
    <glyph glyph-name="quotedbl" unicode="&#x22;" 
d="M101 197q-6 0 -9 -1v-98q2 -1 9 -1q18 0 24.5 12t6.5 38t-6.5 38t-24.5 12zM253 161v-24h-40v-38h47v-24h-76v145h76v-25h-47v-34h40zM99 73q-23 0 -36 2v143q26 4 37 4q33 0 47 -18t14 -57t-14.5 -56.5t-47.5 -17.5zM286 220h39l19 -80l19 80h40q1 -21 3.5 -78.5
t2.5 -66.5h-29q0 53 -3 104l-20 -82h-27l-20 82h-1q-2 -68 -2 -104h-28q2 84 7 145zM482 73q-29 0 -41 17.5t-12 56.5t12 57t41 18t41.5 -18t12.5 -57t-12.5 -56.5t-41.5 -17.5zM482 197q-14 0 -19 -11.5t-5 -38.5q0 -50 24 -50q15 0 20 12t5 38q0 27 -5 38.5t-20 11.5z
M472 496q34 0 48 -20t14 -43q0 -21 -16.5 -35t-35.5 -17q-104 -12 -166 -72q3 8 8.5 20.5t22.5 44.5t34.5 57t42.5 45t48 20zM139 444q26 0 52 -19.5t44 -47t32 -54.5t21 -47l7 -19q-57 72 -156 72q-24 0 -43 15t-19 37q0 26 16.5 44.5t45.5 18.5zM314 593q19 -18 24 -50
t-1.5 -64t-15.5 -62t-17 -49l-9 -18q10 93 -61 161q-17 17 -20.5 40t11.5 41q18 18 41.5 19.5t47.5 -18.5z" />
    <glyph glyph-name="numbersign" unicode="#" 
d="M101 197q-6 0 -9 -1v-98q2 -1 9 -1q18 0 24.5 12t6.5 38t-6.5 38t-24.5 12zM253 161v-24h-40v-38h47v-24h-76v145h76v-25h-47v-34h40zM99 73q-23 0 -36 2v143q26 4 37 4q33 0 47 -18t14 -57t-14.5 -56.5t-47.5 -17.5zM286 220h39l19 -80l19 80h40q1 -21 3.5 -78.5
t2.5 -66.5h-29q0 53 -3 104l-20 -82h-27l-20 82h-1q-2 -68 -2 -104h-28q2 84 7 145zM482 73q-29 0 -41 17.5t-12 56.5t12 57t41 18t41.5 -18t12.5 -57t-12.5 -56.5t-41.5 -17.5zM482 197q-14 0 -19 -11.5t-5 -38.5q0 -50 24 -50q15 0 20 12t5 38q0 27 -5 38.5t-20 11.5z
M472 496q34 0 48 -20t14 -43q0 -21 -16.5 -35t-35.5 -17q-104 -12 -166 -72q3 8 8.5 20.5t22.5 44.5t34.5 57t42.5 45t48 20zM139 444q26 0 52 -19.5t44 -47t32 -54.5t21 -47l7 -19q-57 72 -156 72q-24 0 -43 15t-19 37q0 26 16.5 44.5t45.5 18.5zM314 593q19 -18 24 -50
t-1.5 -64t-15.5 -62t-17 -49l-9 -18q10 93 -61 161q-17 17 -20.5 40t11.5 41q18 18 41.5 19.5t47.5 -18.5z" />
    <glyph glyph-name="dollar" unicode="$" 
d="M101 197q-6 0 -9 -1v-98q2 -1 9 -1q18 0 24.5 12t6.5 38t-6.5 38t-24.5 12zM253 161v-24h-40v-38h47v-24h-76v145h76v-25h-47v-34h40zM99 73q-23 0 -36 2v143q26 4 37 4q33 0 47 -18t14 -57t-14.5 -56.5t-47.5 -17.5zM286 220h39l19 -80l19 80h40q1 -21 3.5 -78.5
t2.5 -66.5h-29q0 53 -3 104l-20 -82h-27l-20 82h-1q-2 -68 -2 -104h-28q2 84 7 145zM482 73q-29 0 -41 17.5t-12 56.5t12 57t41 18t41.5 -18t12.5 -57t-12.5 -56.5t-41.5 -17.5zM482 197q-14 0 -19 -11.5t-5 -38.5q0 -50 24 -50q15 0 20 12t5 38q0 27 -5 38.5t-20 11.5z
M472 496q34 0 48 -20t14 -43q0 -21 -16.5 -35t-35.5 -17q-104 -12 -166 -72q3 8 8.5 20.5t22.5 44.5t34.5 57t42.5 45t48 20zM139 444q26 0 52 -19.5t44 -47t32 -54.5t21 -47l7 -19q-57 72 -156 72q-24 0 -43 15t-19 37q0 26 16.5 44.5t45.5 18.5zM314 593q19 -18 24 -50
t-1.5 -64t-15.5 -62t-17 -49l-9 -18q10 93 -61 161q-17 17 -20.5 40t11.5 41q18 18 41.5 19.5t47.5 -18.5z" />
    <glyph glyph-name="percent" unicode="%" 
d="M101 197q-6 0 -9 -1v-98q2 -1 9 -1q18 0 24.5 12t6.5 38t-6.5 38t-24.5 12zM253 161v-24h-40v-38h47v-24h-76v145h76v-25h-47v-34h40zM99 73q-23 0 -36 2v143q26 4 37 4q33 0 47 -18t14 -57t-14.5 -56.5t-47.5 -17.5zM286 220h39l19 -80l19 80h40q1 -21 3.5 -78.5
t2.5 -66.5h-29q0 53 -3 104l-20 -82h-27l-20 82h-1q-2 -68 -2 -104h-28q2 84 7 145zM482 73q-29 0 -41 17.5t-12 56.5t12 57t41 18t41.5 -18t12.5 -57t-12.5 -56.5t-41.5 -17.5zM482 197q-14 0 -19 -11.5t-5 -38.5q0 -50 24 -50q15 0 20 12t5 38q0 27 -5 38.5t-20 11.5z
M472 496q34 0 48 -20t14 -43q0 -21 -16.5 -35t-35.5 -17q-104 -12 -166 -72q3 8 8.5 20.5t22.5 44.5t34.5 57t42.5 45t48 20zM139 444q26 0 52 -19.5t44 -47t32 -54.5t21 -47l7 -19q-57 72 -156 72q-24 0 -43 15t-19 37q0 26 16.5 44.5t45.5 18.5zM314 593q19 -18 24 -50
t-1.5 -64t-15.5 -62t-17 -49l-9 -18q10 93 -61 161q-17 17 -20.5 40t11.5 41q18 18 41.5 19.5t47.5 -18.5z" />
    <glyph glyph-name="ampersand" unicode="&#x26;" 
d="M101 197q-6 0 -9 -1v-98q2 -1 9 -1q18 0 24.5 12t6.5 38t-6.5 38t-24.5 12zM253 161v-24h-40v-38h47v-24h-76v145h76v-25h-47v-34h40zM99 73q-23 0 -36 2v143q26 4 37 4q33 0 47 -18t14 -57t-14.5 -56.5t-47.5 -17.5zM286 220h39l19 -80l19 80h40q1 -21 3.5 -78.5
t2.5 -66.5h-29q0 53 -3 104l-20 -82h-27l-20 82h-1q-2 -68 -2 -104h-28q2 84 7 145zM482 73q-29 0 -41 17.5t-12 56.5t12 57t41 18t41.5 -18t12.5 -57t-12.5 -56.5t-41.5 -17.5zM482 197q-14 0 -19 -11.5t-5 -38.5q0 -50 24 -50q15 0 20 12t5 38q0 27 -5 38.5t-20 11.5z
M472 496q34 0 48 -20t14 -43q0 -21 -16.5 -35t-35.5 -17q-104 -12 -166 -72q3 8 8.5 20.5t22.5 44.5t34.5 57t42.5 45t48 20zM139 444q26 0 52 -19.5t44 -47t32 -54.5t21 -47l7 -19q-57 72 -156 72q-24 0 -43 15t-19 37q0 26 16.5 44.5t45.5 18.5zM314 593q19 -18 24 -50
t-1.5 -64t-15.5 -62t-17 -49l-9 -18q10 93 -61 161q-17 17 -20.5 40t11.5 41q18 18 41.5 19.5t47.5 -18.5z" />
    <glyph glyph-name="quotesingle" unicode="'" 
d="M101 197q-6 0 -9 -1v-98q2 -1 9 -1q18 0 24.5 12t6.5 38t-6.5 38t-24.5 12zM253 161v-24h-40v-38h47v-24h-76v145h76v-25h-47v-34h40zM99 73q-23 0 -36 2v143q26 4 37 4q33 0 47 -18t14 -57t-14.5 -56.5t-47.5 -17.5zM286 220h39l19 -80l19 80h40q1 -21 3.5 -78.5
t2.5 -66.5h-29q0 53 -3 104l-20 -82h-27l-20 82h-1q-2 -68 -2 -104h-28q2 84 7 145zM482 73q-29 0 -41 17.5t-12 56.5t12 57t41 18t41.5 -18t12.5 -57t-12.5 -56.5t-41.5 -17.5zM482 197q-14 0 -19 -11.5t-5 -38.5q0 -50 24 -50q15 0 20 12t5 38q0 27 -5 38.5t-20 11.5z
M472 496q34 0 48 -20t14 -43q0 -21 -16.5 -35t-35.5 -17q-104 -12 -166 -72q3 8 8.5 20.5t22.5 44.5t34.5 57t42.5 45t48 20zM139 444q26 0 52 -19.5t44 -47t32 -54.5t21 -47l7 -19q-57 72 -156 72q-24 0 -43 15t-19 37q0 26 16.5 44.5t45.5 18.5zM314 593q19 -18 24 -50
t-1.5 -64t-15.5 -62t-17 -49l-9 -18q10 93 -61 161q-17 17 -20.5 40t11.5 41q18 18 41.5 19.5t47.5 -18.5z" />
    <glyph glyph-name="parenleft" unicode="(" 
d="M101 197q-6 0 -9 -1v-98q2 -1 9 -1q18 0 24.5 12t6.5 38t-6.5 38t-24.5 12zM253 161v-24h-40v-38h47v-24h-76v145h76v-25h-47v-34h40zM99 73q-23 0 -36 2v143q26 4 37 4q33 0 47 -18t14 -57t-14.5 -56.5t-47.5 -17.5zM286 220h39l19 -80l19 80h40q1 -21 3.5 -78.5
t2.5 -66.5h-29q0 53 -3 104l-20 -82h-27l-20 82h-1q-2 -68 -2 -104h-28q2 84 7 145zM482 73q-29 0 -41 17.5t-12 56.5t12 57t41 18t41.5 -18t12.5 -57t-12.5 -56.5t-41.5 -17.5zM482 197q-14 0 -19 -11.5t-5 -38.5q0 -50 24 -50q15 0 20 12t5 38q0 27 -5 38.5t-20 11.5z
M472 496q34 0 48 -20t14 -43q0 -21 -16.5 -35t-35.5 -17q-104 -12 -166 -72q3 8 8.5 20.5t22.5 44.5t34.5 57t42.5 45t48 20zM139 444q26 0 52 -19.5t44 -47t32 -54.5t21 -47l7 -19q-57 72 -156 72q-24 0 -43 15t-19 37q0 26 16.5 44.5t45.5 18.5zM314 593q19 -18 24 -50
t-1.5 -64t-15.5 -62t-17 -49l-9 -18q10 93 -61 161q-17 17 -20.5 40t11.5 41q18 18 41.5 19.5t47.5 -18.5z" />
    <glyph glyph-name="parenright" unicode=")" 
d="M101 197q-6 0 -9 -1v-98q2 -1 9 -1q18 0 24.5 12t6.5 38t-6.5 38t-24.5 12zM253 161v-24h-40v-38h47v-24h-76v145h76v-25h-47v-34h40zM99 73q-23 0 -36 2v143q26 4 37 4q33 0 47 -18t14 -57t-14.5 -56.5t-47.5 -17.5zM286 220h39l19 -80l19 80h40q1 -21 3.5 -78.5
t2.5 -66.5h-29q0 53 -3 104l-20 -82h-27l-20 82h-1q-2 -68 -2 -104h-28q2 84 7 145zM482 73q-29 0 -41 17.5t-12 56.5t12 57t41 18t41.5 -18t12.5 -57t-12.5 -56.5t-41.5 -17.5zM482 197q-14 0 -19 -11.5t-5 -38.5q0 -50 24 -50q15 0 20 12t5 38q0 27 -5 38.5t-20 11.5z
M472 496q34 0 48 -20t14 -43q0 -21 -16.5 -35t-35.5 -17q-104 -12 -166 -72q3 8 8.5 20.5t22.5 44.5t34.5 57t42.5 45t48 20zM139 444q26 0 52 -19.5t44 -47t32 -54.5t21 -47l7 -19q-57 72 -156 72q-24 0 -43 15t-19 37q0 26 16.5 44.5t45.5 18.5zM314 593q19 -18 24 -50
t-1.5 -64t-15.5 -62t-17 -49l-9 -18q10 93 -61 161q-17 17 -20.5 40t11.5 41q18 18 41.5 19.5t47.5 -18.5z" />
    <glyph glyph-name="asterisk" unicode="*" 
d="M101 197q-6 0 -9 -1v-98q2 -1 9 -1q18 0 24.5 12t6.5 38t-6.5 38t-24.5 12zM253 161v-24h-40v-38h47v-24h-76v145h76v-25h-47v-34h40zM99 73q-23 0 -36 2v143q26 4 37 4q33 0 47 -18t14 -57t-14.5 -56.5t-47.5 -17.5zM286 220h39l19 -80l19 80h40q1 -21 3.5 -78.5
t2.5 -66.5h-29q0 53 -3 104l-20 -82h-27l-20 82h-1q-2 -68 -2 -104h-28q2 84 7 145zM482 73q-29 0 -41 17.5t-12 56.5t12 57t41 18t41.5 -18t12.5 -57t-12.5 -56.5t-41.5 -17.5zM482 197q-14 0 -19 -11.5t-5 -38.5q0 -50 24 -50q15 0 20 12t5 38q0 27 -5 38.5t-20 11.5z
M472 496q34 0 48 -20t14 -43q0 -21 -16.5 -35t-35.5 -17q-104 -12 -166 -72q3 8 8.5 20.5t22.5 44.5t34.5 57t42.5 45t48 20zM139 444q26 0 52 -19.5t44 -47t32 -54.5t21 -47l7 -19q-57 72 -156 72q-24 0 -43 15t-19 37q0 26 16.5 44.5t45.5 18.5zM314 593q19 -18 24 -50
t-1.5 -64t-15.5 -62t-17 -49l-9 -18q10 93 -61 161q-17 17 -20.5 40t11.5 41q18 18 41.5 19.5t47.5 -18.5z" />
    <glyph glyph-name="plus" unicode="+" 
d="M101 197q-6 0 -9 -1v-98q2 -1 9 -1q18 0 24.5 12t6.5 38t-6.5 38t-24.5 12zM253 161v-24h-40v-38h47v-24h-76v145h76v-25h-47v-34h40zM99 73q-23 0 -36 2v143q26 4 37 4q33 0 47 -18t14 -57t-14.5 -56.5t-47.5 -17.5zM286 220h39l19 -80l19 80h40q1 -21 3.5 -78.5
t2.5 -66.5h-29q0 53 -3 104l-20 -82h-27l-20 82h-1q-2 -68 -2 -104h-28q2 84 7 145zM482 73q-29 0 -41 17.5t-12 56.5t12 57t41 18t41.5 -18t12.5 -57t-12.5 -56.5t-41.5 -17.5zM482 197q-14 0 -19 -11.5t-5 -38.5q0 -50 24 -50q15 0 20 12t5 38q0 27 -5 38.5t-20 11.5z
M472 496q34 0 48 -20t14 -43q0 -21 -16.5 -35t-35.5 -17q-104 -12 -166 -72q3 8 8.5 20.5t22.5 44.5t34.5 57t42.5 45t48 20zM139 444q26 0 52 -19.5t44 -47t32 -54.5t21 -47l7 -19q-57 72 -156 72q-24 0 -43 15t-19 37q0 26 16.5 44.5t45.5 18.5zM314 593q19 -18 24 -50
t-1.5 -64t-15.5 -62t-17 -49l-9 -18q10 93 -61 161q-17 17 -20.5 40t11.5 41q18 18 41.5 19.5t47.5 -18.5z" />
    <glyph glyph-name="comma" unicode="," horiz-adv-x="285" 
d="M53 82q0 37 26 62.5t65 25.5q37 0 63 -25.5t26 -62.5q0 -28 -14 -50l-88 -166h-74l59 128q-28 8 -45.5 32t-17.5 56z" />
    <glyph glyph-name="hyphen" unicode="-" 
d="M101 197q-6 0 -9 -1v-98q2 -1 9 -1q18 0 24.5 12t6.5 38t-6.5 38t-24.5 12zM253 161v-24h-40v-38h47v-24h-76v145h76v-25h-47v-34h40zM99 73q-23 0 -36 2v143q26 4 37 4q33 0 47 -18t14 -57t-14.5 -56.5t-47.5 -17.5zM286 220h39l19 -80l19 80h40q1 -21 3.5 -78.5
t2.5 -66.5h-29q0 53 -3 104l-20 -82h-27l-20 82h-1q-2 -68 -2 -104h-28q2 84 7 145zM482 73q-29 0 -41 17.5t-12 56.5t12 57t41 18t41.5 -18t12.5 -57t-12.5 -56.5t-41.5 -17.5zM482 197q-14 0 -19 -11.5t-5 -38.5q0 -50 24 -50q15 0 20 12t5 38q0 27 -5 38.5t-20 11.5z
M472 496q34 0 48 -20t14 -43q0 -21 -16.5 -35t-35.5 -17q-104 -12 -166 -72q3 8 8.5 20.5t22.5 44.5t34.5 57t42.5 45t48 20zM139 444q26 0 52 -19.5t44 -47t32 -54.5t21 -47l7 -19q-57 72 -156 72q-24 0 -43 15t-19 37q0 26 16.5 44.5t45.5 18.5zM314 593q19 -18 24 -50
t-1.5 -64t-15.5 -62t-17 -49l-9 -18q10 93 -61 161q-17 17 -20.5 40t11.5 41q18 18 41.5 19.5t47.5 -18.5z" />
    <glyph glyph-name="period" unicode="." horiz-adv-x="285" 
d="M53 81q0 37 26 63t65 26q37 0 63 -26t26 -63q0 -39 -26 -65t-63 -26q-39 0 -65 26t-26 65z" />
    <glyph glyph-name="slash" unicode="/" 
d="M101 197q-6 0 -9 -1v-98q2 -1 9 -1q18 0 24.5 12t6.5 38t-6.5 38t-24.5 12zM253 161v-24h-40v-38h47v-24h-76v145h76v-25h-47v-34h40zM99 73q-23 0 -36 2v143q26 4 37 4q33 0 47 -18t14 -57t-14.5 -56.5t-47.5 -17.5zM286 220h39l19 -80l19 80h40q1 -21 3.5 -78.5
t2.5 -66.5h-29q0 53 -3 104l-20 -82h-27l-20 82h-1q-2 -68 -2 -104h-28q2 84 7 145zM482 73q-29 0 -41 17.5t-12 56.5t12 57t41 18t41.5 -18t12.5 -57t-12.5 -56.5t-41.5 -17.5zM482 197q-14 0 -19 -11.5t-5 -38.5q0 -50 24 -50q15 0 20 12t5 38q0 27 -5 38.5t-20 11.5z
M472 496q34 0 48 -20t14 -43q0 -21 -16.5 -35t-35.5 -17q-104 -12 -166 -72q3 8 8.5 20.5t22.5 44.5t34.5 57t42.5 45t48 20zM139 444q26 0 52 -19.5t44 -47t32 -54.5t21 -47l7 -19q-57 72 -156 72q-24 0 -43 15t-19 37q0 26 16.5 44.5t45.5 18.5zM314 593q19 -18 24 -50
t-1.5 -64t-15.5 -62t-17 -49l-9 -18q10 93 -61 161q-17 17 -20.5 40t11.5 41q18 18 41.5 19.5t47.5 -18.5z" />
    <glyph glyph-name="zero" unicode="0" horiz-adv-x="744" 
d="M46 350q0 169 86.5 264.5t238.5 95.5q153 0 240 -95.5t87 -264.5t-87 -264.5t-240 -95.5q-152 0 -238.5 95.5t-86.5 264.5zM371 590q-86 0 -131 -62t-45 -178q0 -115 45 -177.5t131 -62.5q87 0 132.5 62.5t45.5 177.5q0 116 -45.5 178t-132.5 62z" />
    <glyph glyph-name="one" unicode="1" horiz-adv-x="473" 
d="M309 700h104v-700h-147v549l-194 -89l-46 110z" />
    <glyph glyph-name="two" unicode="2" horiz-adv-x="652" 
d="M69 120l257 223q60 52 79 83t19 69q0 51 -33 73t-81 22q-118 0 -118 -146h-149q0 49 13 93t41 84.5t82.5 64.5t128.5 24q52 0 97.5 -11.5t84 -36t61 -69.5t22.5 -105q0 -53 -35.5 -113.5t-143.5 -145.5l-136 -109h351v-120h-540v120z" />
    <glyph glyph-name="three" unicode="3" horiz-adv-x="639" 
d="M243 292v119h79q41 0 63 23t22 64q0 45 -28 68.5t-74 23.5q-50 0 -76.5 -31t-26.5 -89h-149q0 104 62.5 172t190.5 68q110 0 180.5 -50.5t70.5 -143.5q0 -111 -90 -159q130 -41 130 -163q0 -95 -76 -149t-195 -54q-136 0 -209.5 70t-73.5 164h149q0 -48 34 -80.5
t97 -32.5q56 0 90.5 27t34.5 74q0 39 -29 59t-78 20h-98z" />
    <glyph glyph-name="four" unicode="4" 
d="M101 197q-6 0 -9 -1v-98q2 -1 9 -1q18 0 24.5 12t6.5 38t-6.5 38t-24.5 12zM253 161v-24h-40v-38h47v-24h-76v145h76v-25h-47v-34h40zM99 73q-23 0 -36 2v143q26 4 37 4q33 0 47 -18t14 -57t-14.5 -56.5t-47.5 -17.5zM286 220h39l19 -80l19 80h40q1 -21 3.5 -78.5
t2.5 -66.5h-29q0 53 -3 104l-20 -82h-27l-20 82h-1q-2 -68 -2 -104h-28q2 84 7 145zM482 73q-29 0 -41 17.5t-12 56.5t12 57t41 18t41.5 -18t12.5 -57t-12.5 -56.5t-41.5 -17.5zM482 197q-14 0 -19 -11.5t-5 -38.5q0 -50 24 -50q15 0 20 12t5 38q0 27 -5 38.5t-20 11.5z
M472 496q34 0 48 -20t14 -43q0 -21 -16.5 -35t-35.5 -17q-104 -12 -166 -72q3 8 8.5 20.5t22.5 44.5t34.5 57t42.5 45t48 20zM139 444q26 0 52 -19.5t44 -47t32 -54.5t21 -47l7 -19q-57 72 -156 72q-24 0 -43 15t-19 37q0 26 16.5 44.5t45.5 18.5zM314 593q19 -18 24 -50
t-1.5 -64t-15.5 -62t-17 -49l-9 -18q10 93 -61 161q-17 17 -20.5 40t11.5 41q18 18 41.5 19.5t47.5 -18.5z" />
    <glyph glyph-name="five" unicode="5" horiz-adv-x="621" 
d="M77 302l50 398h411v-120h-279l-19 -153q49 25 107 25q88 0 160 -61t72 -166t-75 -170t-187 -65q-114 0 -194 64t-80 170h147q0 -50 35.5 -82t85.5 -32q51 0 85 30t34 80q0 57 -33 88.5t-81 31.5q-51 0 -92 -38h-147z" />
    <glyph glyph-name="six" unicode="6" horiz-adv-x="641" 
d="M335 700h180l-171 -230q107 -7 179 -72.5t72 -166.5q0 -108 -80 -174.5t-195 -66.5q-118 0 -196 66t-78 175q0 78 46 137zM320 110q52 0 89 34t37 87t-37 86.5t-89 33.5q-51 0 -88 -33.5t-37 -86.5t37 -87t88 -34z" />
    <glyph glyph-name="seven" unicode="7" horiz-adv-x="538" 
d="M513 700v-116l-262 -584h-162l266 580h-330v120h488z" />
    <glyph glyph-name="eight" unicode="8" horiz-adv-x="655" 
d="M328 710q115 0 188 -51.5t73 -140.5q0 -103 -103 -157q122 -57 122 -169q0 -96 -80.5 -149t-199.5 -53q-120 0 -201 53t-81 149q0 112 123 169q-103 53 -103 157q0 90 73 141t189 51zM328 420q52 0 81.5 22t29.5 63q0 40 -30 62.5t-81 22.5q-52 0 -82 -22.5t-30 -62.5
q0 -41 30 -63t82 -22zM328 110q58 0 94 25.5t36 70.5q0 93 -130 93q-132 0 -132 -93q0 -45 36.5 -70.5t95.5 -25.5z" />
    <glyph glyph-name="nine" unicode="9" horiz-adv-x="641" 
d="M309 0h-180l171 230q-107 7 -179 72.5t-72 166.5q0 108 80 174.5t195 66.5q118 0 196 -66t78 -175q0 -78 -46 -137zM324 590q-52 0 -89 -34t-37 -87t37 -86.5t89 -33.5q51 0 88 33.5t37 86.5t-37 87t-88 34z" />
    <glyph glyph-name="colon" unicode=":" horiz-adv-x="285" 
d="M53 421q0 37 26 63t65 26q37 0 63 -26t26 -63q0 -39 -26 -65t-63 -26q-39 0 -65 26t-26 65zM53 81q0 37 26 63t65 26q37 0 63 -26t26 -63q0 -39 -26 -65t-63 -26q-39 0 -65 26t-26 65z" />
    <glyph glyph-name="semicolon" unicode=";" horiz-adv-x="285" 
d="M53 421q0 37 26 63t65 26q37 0 63 -26t26 -63q0 -39 -26 -65t-63 -26q-39 0 -65 26t-26 65zM53 82q0 37 26 62.5t65 25.5q37 0 63 -25.5t26 -62.5q0 -28 -14 -50l-88 -166h-74l59 128q-28 8 -45.5 32t-17.5 56z" />
    <glyph glyph-name="less" unicode="&#x3c;" 
d="M101 197q-6 0 -9 -1v-98q2 -1 9 -1q18 0 24.5 12t6.5 38t-6.5 38t-24.5 12zM253 161v-24h-40v-38h47v-24h-76v145h76v-25h-47v-34h40zM99 73q-23 0 -36 2v143q26 4 37 4q33 0 47 -18t14 -57t-14.5 -56.5t-47.5 -17.5zM286 220h39l19 -80l19 80h40q1 -21 3.5 -78.5
t2.5 -66.5h-29q0 53 -3 104l-20 -82h-27l-20 82h-1q-2 -68 -2 -104h-28q2 84 7 145zM482 73q-29 0 -41 17.5t-12 56.5t12 57t41 18t41.5 -18t12.5 -57t-12.5 -56.5t-41.5 -17.5zM482 197q-14 0 -19 -11.5t-5 -38.5q0 -50 24 -50q15 0 20 12t5 38q0 27 -5 38.5t-20 11.5z
M472 496q34 0 48 -20t14 -43q0 -21 -16.5 -35t-35.5 -17q-104 -12 -166 -72q3 8 8.5 20.5t22.5 44.5t34.5 57t42.5 45t48 20zM139 444q26 0 52 -19.5t44 -47t32 -54.5t21 -47l7 -19q-57 72 -156 72q-24 0 -43 15t-19 37q0 26 16.5 44.5t45.5 18.5zM314 593q19 -18 24 -50
t-1.5 -64t-15.5 -62t-17 -49l-9 -18q10 93 -61 161q-17 17 -20.5 40t11.5 41q18 18 41.5 19.5t47.5 -18.5z" />
    <glyph glyph-name="equal" unicode="=" 
d="M101 197q-6 0 -9 -1v-98q2 -1 9 -1q18 0 24.5 12t6.5 38t-6.5 38t-24.5 12zM253 161v-24h-40v-38h47v-24h-76v145h76v-25h-47v-34h40zM99 73q-23 0 -36 2v143q26 4 37 4q33 0 47 -18t14 -57t-14.5 -56.5t-47.5 -17.5zM286 220h39l19 -80l19 80h40q1 -21 3.5 -78.5
t2.5 -66.5h-29q0 53 -3 104l-20 -82h-27l-20 82h-1q-2 -68 -2 -104h-28q2 84 7 145zM482 73q-29 0 -41 17.5t-12 56.5t12 57t41 18t41.5 -18t12.5 -57t-12.5 -56.5t-41.5 -17.5zM482 197q-14 0 -19 -11.5t-5 -38.5q0 -50 24 -50q15 0 20 12t5 38q0 27 -5 38.5t-20 11.5z
M472 496q34 0 48 -20t14 -43q0 -21 -16.5 -35t-35.5 -17q-104 -12 -166 -72q3 8 8.5 20.5t22.5 44.5t34.5 57t42.5 45t48 20zM139 444q26 0 52 -19.5t44 -47t32 -54.5t21 -47l7 -19q-57 72 -156 72q-24 0 -43 15t-19 37q0 26 16.5 44.5t45.5 18.5zM314 593q19 -18 24 -50
t-1.5 -64t-15.5 -62t-17 -49l-9 -18q10 93 -61 161q-17 17 -20.5 40t11.5 41q18 18 41.5 19.5t47.5 -18.5z" />
    <glyph glyph-name="greater" unicode="&#x3e;" 
d="M101 197q-6 0 -9 -1v-98q2 -1 9 -1q18 0 24.5 12t6.5 38t-6.5 38t-24.5 12zM253 161v-24h-40v-38h47v-24h-76v145h76v-25h-47v-34h40zM99 73q-23 0 -36 2v143q26 4 37 4q33 0 47 -18t14 -57t-14.5 -56.5t-47.5 -17.5zM286 220h39l19 -80l19 80h40q1 -21 3.5 -78.5
t2.5 -66.5h-29q0 53 -3 104l-20 -82h-27l-20 82h-1q-2 -68 -2 -104h-28q2 84 7 145zM482 73q-29 0 -41 17.5t-12 56.5t12 57t41 18t41.5 -18t12.5 -57t-12.5 -56.5t-41.5 -17.5zM482 197q-14 0 -19 -11.5t-5 -38.5q0 -50 24 -50q15 0 20 12t5 38q0 27 -5 38.5t-20 11.5z
M472 496q34 0 48 -20t14 -43q0 -21 -16.5 -35t-35.5 -17q-104 -12 -166 -72q3 8 8.5 20.5t22.5 44.5t34.5 57t42.5 45t48 20zM139 444q26 0 52 -19.5t44 -47t32 -54.5t21 -47l7 -19q-57 72 -156 72q-24 0 -43 15t-19 37q0 26 16.5 44.5t45.5 18.5zM314 593q19 -18 24 -50
t-1.5 -64t-15.5 -62t-17 -49l-9 -18q10 93 -61 161q-17 17 -20.5 40t11.5 41q18 18 41.5 19.5t47.5 -18.5z" />
    <glyph glyph-name="question" unicode="?" horiz-adv-x="617" 
d="M229 229v23q0 43 3.5 67.5t16 44t28.5 31t51 31.5q56 32 71 49q19 23 19 53q0 62 -103 62q-116 0 -116 -110h-149q0 49 12 87.5t40 72.5t83.5 52.5t134.5 18.5q110 0 178.5 -44t68.5 -134q0 -68 -24.5 -108.5t-83.5 -75.5q-52 -31 -67.5 -48.5t-15.5 -54.5v-17h-147z
M218 76q0 36 24.5 60.5t61.5 24.5q35 0 59.5 -24.5t24.5 -60.5q0 -37 -24.5 -61.5t-59.5 -24.5q-37 0 -61.5 24.5t-24.5 61.5z" />
    <glyph glyph-name="at" unicode="@" 
d="M101 197q-6 0 -9 -1v-98q2 -1 9 -1q18 0 24.5 12t6.5 38t-6.5 38t-24.5 12zM253 161v-24h-40v-38h47v-24h-76v145h76v-25h-47v-34h40zM99 73q-23 0 -36 2v143q26 4 37 4q33 0 47 -18t14 -57t-14.5 -56.5t-47.5 -17.5zM286 220h39l19 -80l19 80h40q1 -21 3.5 -78.5
t2.5 -66.5h-29q0 53 -3 104l-20 -82h-27l-20 82h-1q-2 -68 -2 -104h-28q2 84 7 145zM482 73q-29 0 -41 17.5t-12 56.5t12 57t41 18t41.5 -18t12.5 -57t-12.5 -56.5t-41.5 -17.5zM482 197q-14 0 -19 -11.5t-5 -38.5q0 -50 24 -50q15 0 20 12t5 38q0 27 -5 38.5t-20 11.5z
M472 496q34 0 48 -20t14 -43q0 -21 -16.5 -35t-35.5 -17q-104 -12 -166 -72q3 8 8.5 20.5t22.5 44.5t34.5 57t42.5 45t48 20zM139 444q26 0 52 -19.5t44 -47t32 -54.5t21 -47l7 -19q-57 72 -156 72q-24 0 -43 15t-19 37q0 26 16.5 44.5t45.5 18.5zM314 593q19 -18 24 -50
t-1.5 -64t-15.5 -62t-17 -49l-9 -18q10 93 -61 161q-17 17 -20.5 40t11.5 41q18 18 41.5 19.5t47.5 -18.5z" />
    <glyph glyph-name="A" unicode="A" horiz-adv-x="812" 
d="M333 701h147l307 -700h-147l-59 142h-350l-59 -142h-147zM280 263h252l-126 305z" />
    <glyph glyph-name="B" unicode="B" horiz-adv-x="703" 
d="M60 0v700h317q31 0 58.5 -3t62.5 -14.5t59.5 -31t42 -55.5t17.5 -84q0 -103 -90 -149q130 -41 130 -164q0 -60 -24.5 -102t-64.5 -61.5t-76.5 -27.5t-74.5 -8h-357zM207 414h157q104 0 104 83q0 28 -10.5 46.5t-29 25.5t-32 9t-32.5 2h-157v-166zM207 120h191
q110 0 110 88q0 29 -10.5 48t-30 26.5t-34.5 9.5t-35 2h-191v-174z" />
    <glyph glyph-name="C" unicode="C" horiz-adv-x="800" 
d="M195 350q0 -119 64.5 -179.5t154.5 -60.5q84 0 137 49t53 113h149q0 -48 -22 -97t-62.5 -91t-107 -68t-147.5 -26q-157 0 -262.5 98.5t-105.5 261.5t105.5 261.5t262.5 98.5q81 0 147.5 -26t107 -68t62.5 -91t22 -97h-149q0 64 -53 113t-137 49q-90 0 -154.5 -60.5
t-64.5 -179.5z" />
    <glyph glyph-name="D" unicode="D" horiz-adv-x="782" 
d="M356 700q163 0 271.5 -93t108.5 -257t-108.5 -257t-271.5 -93h-296v700h296zM207 120h149q105 0 168 59t63 171q0 113 -63 171.5t-168 58.5h-149v-460z" />
    <glyph glyph-name="E" unicode="E" horiz-adv-x="612" 
d="M60 700h513v-120h-366v-163h336v-120h-336v-177h366v-120h-513v700z" />
    <glyph glyph-name="F" unicode="F" horiz-adv-x="588" 
d="M56 700h501v-120h-354v-178h324v-120h-324v-282h-147v700z" />
    <glyph glyph-name="G" unicode="G" horiz-adv-x="810" 
d="M195 352q0 -112 63.5 -175t167.5 -63q85 0 138.5 36t66.5 107h-234v121h367v-378h-130v80q-78 -86 -218 -86q-74 0 -141 25t-118 70t-81 113.5t-30 149.5q0 161 110 259.5t265 98.5q142 0 237 -79.5t95 -170.5h-149q0 53 -51.5 91.5t-133.5 38.5q-102 0 -163 -61
t-61 -177z" />
    <glyph glyph-name="H" unicode="H" horiz-adv-x="828" 
d="M60 700h147v-282h414v282h147v-700h-147v298h-414v-298h-147v700z" />
    <glyph glyph-name="I" unicode="I" horiz-adv-x="267" 
d="M60 700h147v-700h-147v700z" />
    <glyph glyph-name="J" unicode="J" horiz-adv-x="652" 
d="M445 700h147v-435q0 -123 -70 -199t-203 -76q-137 0 -205.5 76.5t-68.5 206.5h149q0 -163 126 -163q61 0 93 44t32 111v435z" />
    <glyph glyph-name="K" unicode="K" horiz-adv-x="732" 
d="M60 700h147v-310h84l209 310h176l-256 -364l287 -336h-184l-221 270h-95v-270h-147v700z" />
    <glyph glyph-name="L" unicode="L" horiz-adv-x="619" 
d="M60 700h147v-580h374v-120h-521v700z" />
    <glyph glyph-name="M" unicode="M" horiz-adv-x="922" 
d="M61 700h147l257 -547l250 547h147v-700h-147v407l-177 -407h-146l-184 414v-414h-147v700z" />
    <glyph glyph-name="N" unicode="N" horiz-adv-x="822" 
d="M60 700h147l408 -496v496h147v-700h-147l-408 486v-486h-147v700z" />
    <glyph glyph-name="O" unicode="O" horiz-adv-x="852" 
d="M46 350q0 109 53 192.5t138.5 125.5t187.5 42q103 0 188.5 -42t138.5 -125.5t53 -192.5t-53 -192.5t-138.5 -125.5t-188.5 -42q-102 0 -187.5 42t-138.5 125.5t-53 192.5zM425 590q-98 0 -164 -66.5t-66 -173.5t66 -173.5t164 -66.5q99 0 165 66.5t66 173.5t-66 173.5
t-165 66.5z" />
    <glyph glyph-name="P" unicode="P" horiz-adv-x="684" 
d="M386 700q27 0 55.5 -4.5t67 -19.5t67.5 -39.5t49.5 -69t20.5 -103.5t-20.5 -103.5t-49.5 -69t-67.5 -39.5t-67 -19.5t-55.5 -4.5h-179v-228h-147v700h326zM207 348h166q19 0 38 5t39.5 17t33.5 36.5t13 57.5q0 62 -40 89t-84 27h-166v-232z" />
    <glyph glyph-name="Q" unicode="Q" horiz-adv-x="852" 
d="M657 -200l-165 195q-37 -5 -67 -5q-102 0 -187.5 42t-138.5 125.5t-53 192.5t53 192.5t138.5 125.5t187.5 42q103 0 188.5 -42t138.5 -125.5t53 -192.5q0 -105 -48.5 -185.5t-131.5 -125.5l209 -239h-177zM425 590q-98 0 -164 -66.5t-66 -173.5t66 -173.5t164 -66.5
q99 0 165 66.5t66 173.5t-66 173.5t-165 66.5z" />
    <glyph glyph-name="R" unicode="R" horiz-adv-x="734" 
d="M404 700q29 0 60 -5t68 -20t65.5 -38.5t47.5 -64.5t19 -94q0 -91 -48.5 -144.5t-120.5 -75.5l191 -258h-170l-178 243h-131v-243h-147v700h344zM207 363h185q45 0 84 27t39 82q0 54 -39 81t-84 27h-185v-217z" />
    <glyph glyph-name="S" unicode="S" horiz-adv-x="735" 
d="M192 230q0 -54 45.5 -85t134.5 -31q79 0 125 22.5t46 60.5q0 36 -53 53q-22 8 -165 34q-4 0 -8 1q-128 23 -186.5 76t-58.5 143q0 97 83.5 151.5t208.5 54.5q82 0 143.5 -19t97.5 -52.5t53.5 -74t17.5 -87.5h-149q0 48 -39.5 78.5t-123.5 30.5q-63 0 -103 -20.5
t-40 -56.5q0 -40 34.5 -54t162.5 -37q52 -9 86 -17.5t73.5 -24t62 -36.5t37.5 -54t15 -76q0 -99 -79.5 -159.5t-234.5 -60.5q-167 0 -251 70t-84 170h149z" />
    <glyph glyph-name="T" unicode="T" horiz-adv-x="687" 
d="M32 700h624v-120h-239v-580h-147v580h-238v120z" />
    <glyph glyph-name="U" unicode="U" horiz-adv-x="754" 
d="M547 700h147v-410q0 -153 -80 -226.5t-239 -73.5q-158 0 -236.5 73.5t-78.5 226.5v410h147v-410q0 -94 40.5 -137t127.5 -43q88 0 130 43t42 137v410z" />
    <glyph glyph-name="V" unicode="V" horiz-adv-x="825" 
d="M339 0l-308 700h158l223 -550l224 550h157l-307 -700h-147z" />
    <glyph glyph-name="W" unicode="W" horiz-adv-x="1078" 
d="M249 0l-218 700h151l141 -495l136 495h154l136 -495l141 495h157l-224 -700h-153l-134 481l-134 -481h-153z" />
    <glyph glyph-name="X" unicode="X" horiz-adv-x="846" 
d="M31 0l303 364l-267 336h179l182 -246l173 246h179l-255 -336l289 -364h-179l-207 282l-217 -282h-180z" />
    <glyph glyph-name="Y" unicode="Y" horiz-adv-x="797" 
d="M325 210l-294 490h170l198 -339l197 339h170l-294 -490v-210h-147v210z" />
    <glyph glyph-name="Z" unicode="Z" horiz-adv-x="634" 
d="M577 700v-116l-356 -464h382v-120h-572v116l358 464h-350v120h538z" />
    <glyph glyph-name="bracketleft" unicode="[" 
d="M101 197q-6 0 -9 -1v-98q2 -1 9 -1q18 0 24.5 12t6.5 38t-6.5 38t-24.5 12zM253 161v-24h-40v-38h47v-24h-76v145h76v-25h-47v-34h40zM99 73q-23 0 -36 2v143q26 4 37 4q33 0 47 -18t14 -57t-14.5 -56.5t-47.5 -17.5zM286 220h39l19 -80l19 80h40q1 -21 3.5 -78.5
t2.5 -66.5h-29q0 53 -3 104l-20 -82h-27l-20 82h-1q-2 -68 -2 -104h-28q2 84 7 145zM482 73q-29 0 -41 17.5t-12 56.5t12 57t41 18t41.5 -18t12.5 -57t-12.5 -56.5t-41.5 -17.5zM482 197q-14 0 -19 -11.5t-5 -38.5q0 -50 24 -50q15 0 20 12t5 38q0 27 -5 38.5t-20 11.5z
M472 496q34 0 48 -20t14 -43q0 -21 -16.5 -35t-35.5 -17q-104 -12 -166 -72q3 8 8.5 20.5t22.5 44.5t34.5 57t42.5 45t48 20zM139 444q26 0 52 -19.5t44 -47t32 -54.5t21 -47l7 -19q-57 72 -156 72q-24 0 -43 15t-19 37q0 26 16.5 44.5t45.5 18.5zM314 593q19 -18 24 -50
t-1.5 -64t-15.5 -62t-17 -49l-9 -18q10 93 -61 161q-17 17 -20.5 40t11.5 41q18 18 41.5 19.5t47.5 -18.5z" />
    <glyph glyph-name="backslash" unicode="\" 
d="M101 197q-6 0 -9 -1v-98q2 -1 9 -1q18 0 24.5 12t6.5 38t-6.5 38t-24.5 12zM253 161v-24h-40v-38h47v-24h-76v145h76v-25h-47v-34h40zM99 73q-23 0 -36 2v143q26 4 37 4q33 0 47 -18t14 -57t-14.5 -56.5t-47.5 -17.5zM286 220h39l19 -80l19 80h40q1 -21 3.5 -78.5
t2.5 -66.5h-29q0 53 -3 104l-20 -82h-27l-20 82h-1q-2 -68 -2 -104h-28q2 84 7 145zM482 73q-29 0 -41 17.5t-12 56.5t12 57t41 18t41.5 -18t12.5 -57t-12.5 -56.5t-41.5 -17.5zM482 197q-14 0 -19 -11.5t-5 -38.5q0 -50 24 -50q15 0 20 12t5 38q0 27 -5 38.5t-20 11.5z
M472 496q34 0 48 -20t14 -43q0 -21 -16.5 -35t-35.5 -17q-104 -12 -166 -72q3 8 8.5 20.5t22.5 44.5t34.5 57t42.5 45t48 20zM139 444q26 0 52 -19.5t44 -47t32 -54.5t21 -47l7 -19q-57 72 -156 72q-24 0 -43 15t-19 37q0 26 16.5 44.5t45.5 18.5zM314 593q19 -18 24 -50
t-1.5 -64t-15.5 -62t-17 -49l-9 -18q10 93 -61 161q-17 17 -20.5 40t11.5 41q18 18 41.5 19.5t47.5 -18.5z" />
    <glyph glyph-name="bracketright" unicode="]" 
d="M101 197q-6 0 -9 -1v-98q2 -1 9 -1q18 0 24.5 12t6.5 38t-6.5 38t-24.5 12zM253 161v-24h-40v-38h47v-24h-76v145h76v-25h-47v-34h40zM99 73q-23 0 -36 2v143q26 4 37 4q33 0 47 -18t14 -57t-14.5 -56.5t-47.5 -17.5zM286 220h39l19 -80l19 80h40q1 -21 3.5 -78.5
t2.5 -66.5h-29q0 53 -3 104l-20 -82h-27l-20 82h-1q-2 -68 -2 -104h-28q2 84 7 145zM482 73q-29 0 -41 17.5t-12 56.5t12 57t41 18t41.5 -18t12.5 -57t-12.5 -56.5t-41.5 -17.5zM482 197q-14 0 -19 -11.5t-5 -38.5q0 -50 24 -50q15 0 20 12t5 38q0 27 -5 38.5t-20 11.5z
M472 496q34 0 48 -20t14 -43q0 -21 -16.5 -35t-35.5 -17q-104 -12 -166 -72q3 8 8.5 20.5t22.5 44.5t34.5 57t42.5 45t48 20zM139 444q26 0 52 -19.5t44 -47t32 -54.5t21 -47l7 -19q-57 72 -156 72q-24 0 -43 15t-19 37q0 26 16.5 44.5t45.5 18.5zM314 593q19 -18 24 -50
t-1.5 -64t-15.5 -62t-17 -49l-9 -18q10 93 -61 161q-17 17 -20.5 40t11.5 41q18 18 41.5 19.5t47.5 -18.5z" />
    <glyph glyph-name="asciicircum" unicode="^" 
d="M101 197q-6 0 -9 -1v-98q2 -1 9 -1q18 0 24.5 12t6.5 38t-6.5 38t-24.5 12zM253 161v-24h-40v-38h47v-24h-76v145h76v-25h-47v-34h40zM99 73q-23 0 -36 2v143q26 4 37 4q33 0 47 -18t14 -57t-14.5 -56.5t-47.5 -17.5zM286 220h39l19 -80l19 80h40q1 -21 3.5 -78.5
t2.5 -66.5h-29q0 53 -3 104l-20 -82h-27l-20 82h-1q-2 -68 -2 -104h-28q2 84 7 145zM482 73q-29 0 -41 17.5t-12 56.5t12 57t41 18t41.5 -18t12.5 -57t-12.5 -56.5t-41.5 -17.5zM482 197q-14 0 -19 -11.5t-5 -38.5q0 -50 24 -50q15 0 20 12t5 38q0 27 -5 38.5t-20 11.5z
M472 496q34 0 48 -20t14 -43q0 -21 -16.5 -35t-35.5 -17q-104 -12 -166 -72q3 8 8.5 20.5t22.5 44.5t34.5 57t42.5 45t48 20zM139 444q26 0 52 -19.5t44 -47t32 -54.5t21 -47l7 -19q-57 72 -156 72q-24 0 -43 15t-19 37q0 26 16.5 44.5t45.5 18.5zM314 593q19 -18 24 -50
t-1.5 -64t-15.5 -62t-17 -49l-9 -18q10 93 -61 161q-17 17 -20.5 40t11.5 41q18 18 41.5 19.5t47.5 -18.5z" />
    <glyph glyph-name="underscore" unicode="_" 
d="M101 197q-6 0 -9 -1v-98q2 -1 9 -1q18 0 24.5 12t6.5 38t-6.5 38t-24.5 12zM253 161v-24h-40v-38h47v-24h-76v145h76v-25h-47v-34h40zM99 73q-23 0 -36 2v143q26 4 37 4q33 0 47 -18t14 -57t-14.5 -56.5t-47.5 -17.5zM286 220h39l19 -80l19 80h40q1 -21 3.5 -78.5
t2.5 -66.5h-29q0 53 -3 104l-20 -82h-27l-20 82h-1q-2 -68 -2 -104h-28q2 84 7 145zM482 73q-29 0 -41 17.5t-12 56.5t12 57t41 18t41.5 -18t12.5 -57t-12.5 -56.5t-41.5 -17.5zM482 197q-14 0 -19 -11.5t-5 -38.5q0 -50 24 -50q15 0 20 12t5 38q0 27 -5 38.5t-20 11.5z
M472 496q34 0 48 -20t14 -43q0 -21 -16.5 -35t-35.5 -17q-104 -12 -166 -72q3 8 8.5 20.5t22.5 44.5t34.5 57t42.5 45t48 20zM139 444q26 0 52 -19.5t44 -47t32 -54.5t21 -47l7 -19q-57 72 -156 72q-24 0 -43 15t-19 37q0 26 16.5 44.5t45.5 18.5zM314 593q19 -18 24 -50
t-1.5 -64t-15.5 -62t-17 -49l-9 -18q10 93 -61 161q-17 17 -20.5 40t11.5 41q18 18 41.5 19.5t47.5 -18.5z" />
    <glyph glyph-name="grave" unicode="`" 
d="M101 197q-6 0 -9 -1v-98q2 -1 9 -1q18 0 24.5 12t6.5 38t-6.5 38t-24.5 12zM253 161v-24h-40v-38h47v-24h-76v145h76v-25h-47v-34h40zM99 73q-23 0 -36 2v143q26 4 37 4q33 0 47 -18t14 -57t-14.5 -56.5t-47.5 -17.5zM286 220h39l19 -80l19 80h40q1 -21 3.5 -78.5
t2.5 -66.5h-29q0 53 -3 104l-20 -82h-27l-20 82h-1q-2 -68 -2 -104h-28q2 84 7 145zM482 73q-29 0 -41 17.5t-12 56.5t12 57t41 18t41.5 -18t12.5 -57t-12.5 -56.5t-41.5 -17.5zM482 197q-14 0 -19 -11.5t-5 -38.5q0 -50 24 -50q15 0 20 12t5 38q0 27 -5 38.5t-20 11.5z
M472 496q34 0 48 -20t14 -43q0 -21 -16.5 -35t-35.5 -17q-104 -12 -166 -72q3 8 8.5 20.5t22.5 44.5t34.5 57t42.5 45t48 20zM139 444q26 0 52 -19.5t44 -47t32 -54.5t21 -47l7 -19q-57 72 -156 72q-24 0 -43 15t-19 37q0 26 16.5 44.5t45.5 18.5zM314 593q19 -18 24 -50
t-1.5 -64t-15.5 -62t-17 -49l-9 -18q10 93 -61 161q-17 17 -20.5 40t11.5 41q18 18 41.5 19.5t47.5 -18.5z" />
    <glyph glyph-name="a" unicode="a" horiz-adv-x="582" 
d="M98 500h199q119 0 166.5 -51t47.5 -147v-108q0 -43 13.5 -59.5t53.5 -16.5h8v-118h-100q-55 0 -77.5 19.5t-27.5 64.5q-42 -94 -158 -94q-180 0 -180 159q0 79 47.5 119t157.5 40h119q-1 40 -18.5 57t-72.5 17h-178v118zM367 212h-113q-33 0 -49.5 -11t-16.5 -39
q0 -53 75 -53q45 0 74.5 18t29.5 58v27z" />
    <glyph glyph-name="b" unicode="b" horiz-adv-x="646" 
d="M610 250q0 -115 -65 -187.5t-172 -72.5q-118 0 -178 90v-80h-144v703l144 -3v-280q60 90 178 90q107 0 172 -72.5t65 -187.5zM195 214q0 -43 40.5 -74.5t91.5 -31.5q60 0 98 38.5t38 103.5t-38 103.5t-98 38.5q-51 0 -91.5 -31.5t-40.5 -74.5v-72z" />
    <glyph glyph-name="c" unicode="c" horiz-adv-x="604" 
d="M183 251q0 -67 36.5 -105t93.5 -38q47 0 77.5 28.5t30.5 65.5h147q0 -83 -64 -147.5t-189 -64.5q-128 0 -203.5 69.5t-75.5 191.5q0 121 75.5 190t203.5 69q65 0 115.5 -19t79.5 -50.5t43.5 -67.5t14.5 -74h-147q0 36 -30.5 64.5t-77.5 28.5q-57 0 -93.5 -37.5
t-36.5 -103.5z" />
    <glyph glyph-name="d" unicode="d" horiz-adv-x="646" 
d="M36 250q0 115 65 187.5t172 72.5q118 0 178 -90v280h145v-700h-145v80q-60 -90 -178 -90q-107 0 -172 72.5t-65 187.5zM319 108q51 0 91.5 31.5t40.5 74.5v72q0 43 -40.5 74.5t-91.5 31.5q-60 0 -98 -38.5t-38 -103.5t38 -103.5t98 -38.5z" />
    <glyph glyph-name="e" unicode="e" horiz-adv-x="604" 
d="M177 206q22 -97 128 -97q55 0 87.5 17t32.5 47h139q-11 -77 -78.5 -130t-186.5 -53q-115 0 -189 70t-74 190t74 190.5t189 70.5q127 0 196.5 -70.5t71.5 -184.5v-50h-390zM429 296q-19 97 -124 97q-45 0 -80 -24.5t-47 -72.5h251z" />
    <glyph glyph-name="f" unicode="f" horiz-adv-x="404" 
d="M378 592h-62q-46 0 -62 -10.5t-16 -55.5v-26h141v-118h-141v-382h-145v382h-67v118h67v51q0 159 167 159h118v-118z" />
    <glyph glyph-name="g" unicode="g" horiz-adv-x="646" 
d="M115 -82h212q67 0 95.5 23.5t28.5 84.5v54q-60 -90 -178 -90q-107 0 -172 72.5t-65 187.5t65 187.5t172 72.5q118 0 178 -90v80h145v-455q0 -123 -62 -184t-195 -61h-224v118zM319 108q51 0 91.5 31.5t40.5 74.5v72q0 43 -40.5 74.5t-91.5 31.5q-60 0 -98 -38.5
t-38 -103.5t38 -103.5t98 -38.5z" />
    <glyph glyph-name="h" unicode="h" horiz-adv-x="612" 
d="M50 700h145v-290q29 47 76.5 73.5t105.5 26.5q95 0 140 -53t45 -146v-311h-145v274q0 58 -23.5 88t-83.5 30q-49 0 -82 -33t-33 -89v-270h-145v700z" />
    <glyph glyph-name="i" unicode="i" horiz-adv-x="238" 
d="M35 651q0 35 24.5 59.5t61.5 24.5q35 0 59.5 -24.5t24.5 -59.5q0 -36 -24.5 -61t-59.5 -25q-37 0 -61.5 24.5t-24.5 61.5zM46 500h145v-500h-145v500z" />
    <glyph glyph-name="j" unicode="j" horiz-adv-x="238" 
d="M33 651q0 35 24.5 59.5t61.5 24.5q35 0 59.5 -24.5t24.5 -59.5q0 -36 -24.5 -61t-59.5 -25q-37 0 -61.5 24.5t-24.5 61.5zM-86 -82h55q42 0 59.5 15.5t17.5 57.5v509h145v-541q0 -159 -166 -159h-111v118z" />
    <glyph glyph-name="k" unicode="k" horiz-adv-x="610" 
d="M50 700h145v-381h69l121 181h168l-170 -236l198 -264h-172l-140 201h-74v-201h-145v700z" />
    <glyph glyph-name="l" unicode="l" horiz-adv-x="278" 
d="M270 118v-118h-91q-70 0 -99.5 32.5t-29.5 105.5v562h145v-506q0 -44 13 -60t52 -16h10z" />
    <glyph glyph-name="m" unicode="m" horiz-adv-x="927" 
d="M50 500h145v-85q57 95 166 95q130 0 164 -116q26 54 72.5 85t104.5 31q88 0 131.5 -53.5t43.5 -145.5v-311h-145v280q0 58 -20 85t-74 27q-43 0 -72.5 -30.5t-29.5 -85.5v-276h-145v280q0 58 -20 85t-74 27q-43 0 -72.5 -30.5t-29.5 -85.5v-276h-145v500z" />
    <glyph glyph-name="n" unicode="n" horiz-adv-x="612" 
d="M50 500h145v-90q29 47 76.5 73.5t105.5 26.5q95 0 140 -53t45 -146v-311h-145v274q0 58 -23.5 88t-83.5 30q-49 0 -82 -33t-33 -89v-270h-145v500z" />
    <glyph glyph-name="o" unicode="o" horiz-adv-x="635" 
d="M317 108q59 0 96.5 41t37.5 101t-37.5 101t-96.5 41q-58 0 -96 -41t-38 -101t38 -101t96 -41zM317 510q119 0 200 -70.5t81 -189.5t-81 -189.5t-200 -70.5t-200 70.5t-81 189.5t81 189.5t200 70.5z" />
    <glyph glyph-name="p" unicode="p" horiz-adv-x="646" 
d="M50 500h145v-80q60 90 178 90q107 0 172 -72.5t65 -187.5t-65 -187.5t-172 -72.5q-118 0 -178 90v-280h-145v700zM195 214q0 -43 40.5 -74.5t91.5 -31.5q60 0 98 38.5t38 103.5t-38 103.5t-98 38.5q-51 0 -91.5 -31.5t-40.5 -74.5v-72z" />
    <glyph glyph-name="q" unicode="q" horiz-adv-x="646" 
d="M596 500v-700h-145v280q-60 -90 -178 -90q-107 0 -172 72.5t-65 187.5t65 187.5t172 72.5q118 0 178 -90v80h145zM319 108q51 0 91.5 31.5t40.5 74.5v72q0 43 -40.5 74.5t-91.5 31.5q-60 0 -98 -38.5t-38 -103.5t38 -103.5t98 -38.5z" />
    <glyph glyph-name="r" unicode="r" horiz-adv-x="420" 
d="M50 500h145v-86q28 44 69.5 70t85.5 26h49v-118h-99q-49 0 -77 -30t-28 -89v-273h-145v500z" />
    <glyph glyph-name="s" unicode="s" horiz-adv-x="572" 
d="M183 165q0 -69 113 -69q92 0 92 41q0 19 -27 28t-120 29t-141.5 56.5t-48.5 104.5q0 77 67 116t161 39q122 0 181.5 -52t59.5 -123h-147q0 32 -20 50.5t-71 18.5q-84 0 -84 -38q0 -21 28.5 -32.5t120.5 -30.5q46 -10 73 -18.5t57.5 -25t44.5 -43.5t14 -65q0 -73 -67 -117
t-180 -44q-118 0 -185.5 53.5t-67.5 121.5h147z" />
    <glyph glyph-name="t" unicode="t" horiz-adv-x="413" 
d="M26 500h71v120h145v-120h147v-118h-147v-192q0 -42 17.5 -57t60.5 -15h68v-118h-124q-167 0 -167 159v223h-71v118z" />
    <glyph glyph-name="u" unicode="u" horiz-adv-x="645" 
d="M637 118v-118h-91q-59 0 -88.5 23t-37.5 72q-29 -49 -77.5 -77t-107.5 -28q-95 0 -140 53t-45 146v311h145v-274q0 -58 23.5 -88t83.5 -30q49 0 82 33t33 89v270h145v-306q0 -44 13 -60t52 -16h10z" />
    <glyph glyph-name="v" unicode="v" horiz-adv-x="644" 
d="M25 500h159l137 -330l139 330h149l-230 -500h-124z" />
    <glyph glyph-name="w" unicode="w" horiz-adv-x="816" 
d="M25 500h146l77 -322l91 322h139l91 -321l76 321h146l-150 -500h-140l-93 344l-93 -344h-140z" />
    <glyph glyph-name="x" unicode="x" horiz-adv-x="655" 
d="M25 0l208 261l-188 239h168l115 -160l115 160h167l-188 -239l208 -261h-170l-132 183l-133 -183h-170z" />
    <glyph glyph-name="y" unicode="y" horiz-adv-x="609" 
d="M584 500l-212 -510q-17 -41 -28.5 -64.5t-29.5 -48.5t-37.5 -37t-50 -22.5t-70 -14t-94.5 -3.5v118q49 0 78.5 3.5t47 16t24 22.5t17.5 36l5 11l-209 493h156l126 -336l121 336h156z" />
    <glyph glyph-name="z" unicode="z" horiz-adv-x="513" 
d="M469 500v-101l-251 -281h270v-118h-459v102l251 280h-243v118h432z" />
    <glyph glyph-name="braceleft" unicode="{" 
d="M101 197q-6 0 -9 -1v-98q2 -1 9 -1q18 0 24.5 12t6.5 38t-6.5 38t-24.5 12zM253 161v-24h-40v-38h47v-24h-76v145h76v-25h-47v-34h40zM99 73q-23 0 -36 2v143q26 4 37 4q33 0 47 -18t14 -57t-14.5 -56.5t-47.5 -17.5zM286 220h39l19 -80l19 80h40q1 -21 3.5 -78.5
t2.5 -66.5h-29q0 53 -3 104l-20 -82h-27l-20 82h-1q-2 -68 -2 -104h-28q2 84 7 145zM482 73q-29 0 -41 17.5t-12 56.5t12 57t41 18t41.5 -18t12.5 -57t-12.5 -56.5t-41.5 -17.5zM482 197q-14 0 -19 -11.5t-5 -38.5q0 -50 24 -50q15 0 20 12t5 38q0 27 -5 38.5t-20 11.5z
M472 496q34 0 48 -20t14 -43q0 -21 -16.5 -35t-35.5 -17q-104 -12 -166 -72q3 8 8.5 20.5t22.5 44.5t34.5 57t42.5 45t48 20zM139 444q26 0 52 -19.5t44 -47t32 -54.5t21 -47l7 -19q-57 72 -156 72q-24 0 -43 15t-19 37q0 26 16.5 44.5t45.5 18.5zM314 593q19 -18 24 -50
t-1.5 -64t-15.5 -62t-17 -49l-9 -18q10 93 -61 161q-17 17 -20.5 40t11.5 41q18 18 41.5 19.5t47.5 -18.5z" />
    <glyph glyph-name="bar" unicode="|" 
d="M101 197q-6 0 -9 -1v-98q2 -1 9 -1q18 0 24.5 12t6.5 38t-6.5 38t-24.5 12zM253 161v-24h-40v-38h47v-24h-76v145h76v-25h-47v-34h40zM99 73q-23 0 -36 2v143q26 4 37 4q33 0 47 -18t14 -57t-14.5 -56.5t-47.5 -17.5zM286 220h39l19 -80l19 80h40q1 -21 3.5 -78.5
t2.5 -66.5h-29q0 53 -3 104l-20 -82h-27l-20 82h-1q-2 -68 -2 -104h-28q2 84 7 145zM482 73q-29 0 -41 17.5t-12 56.5t12 57t41 18t41.5 -18t12.5 -57t-12.5 -56.5t-41.5 -17.5zM482 197q-14 0 -19 -11.5t-5 -38.5q0 -50 24 -50q15 0 20 12t5 38q0 27 -5 38.5t-20 11.5z
M472 496q34 0 48 -20t14 -43q0 -21 -16.5 -35t-35.5 -17q-104 -12 -166 -72q3 8 8.5 20.5t22.5 44.5t34.5 57t42.5 45t48 20zM139 444q26 0 52 -19.5t44 -47t32 -54.5t21 -47l7 -19q-57 72 -156 72q-24 0 -43 15t-19 37q0 26 16.5 44.5t45.5 18.5zM314 593q19 -18 24 -50
t-1.5 -64t-15.5 -62t-17 -49l-9 -18q10 93 -61 161q-17 17 -20.5 40t11.5 41q18 18 41.5 19.5t47.5 -18.5z" />
    <glyph glyph-name="braceright" unicode="}" 
d="M101 197q-6 0 -9 -1v-98q2 -1 9 -1q18 0 24.5 12t6.5 38t-6.5 38t-24.5 12zM253 161v-24h-40v-38h47v-24h-76v145h76v-25h-47v-34h40zM99 73q-23 0 -36 2v143q26 4 37 4q33 0 47 -18t14 -57t-14.5 -56.5t-47.5 -17.5zM286 220h39l19 -80l19 80h40q1 -21 3.5 -78.5
t2.5 -66.5h-29q0 53 -3 104l-20 -82h-27l-20 82h-1q-2 -68 -2 -104h-28q2 84 7 145zM482 73q-29 0 -41 17.5t-12 56.5t12 57t41 18t41.5 -18t12.5 -57t-12.5 -56.5t-41.5 -17.5zM482 197q-14 0 -19 -11.5t-5 -38.5q0 -50 24 -50q15 0 20 12t5 38q0 27 -5 38.5t-20 11.5z
M472 496q34 0 48 -20t14 -43q0 -21 -16.5 -35t-35.5 -17q-104 -12 -166 -72q3 8 8.5 20.5t22.5 44.5t34.5 57t42.5 45t48 20zM139 444q26 0 52 -19.5t44 -47t32 -54.5t21 -47l7 -19q-57 72 -156 72q-24 0 -43 15t-19 37q0 26 16.5 44.5t45.5 18.5zM314 593q19 -18 24 -50
t-1.5 -64t-15.5 -62t-17 -49l-9 -18q10 93 -61 161q-17 17 -20.5 40t11.5 41q18 18 41.5 19.5t47.5 -18.5z" />
    <glyph glyph-name="asciitilde" unicode="~" 
d="M101 197q-6 0 -9 -1v-98q2 -1 9 -1q18 0 24.5 12t6.5 38t-6.5 38t-24.5 12zM253 161v-24h-40v-38h47v-24h-76v145h76v-25h-47v-34h40zM99 73q-23 0 -36 2v143q26 4 37 4q33 0 47 -18t14 -57t-14.5 -56.5t-47.5 -17.5zM286 220h39l19 -80l19 80h40q1 -21 3.5 -78.5
t2.5 -66.5h-29q0 53 -3 104l-20 -82h-27l-20 82h-1q-2 -68 -2 -104h-28q2 84 7 145zM482 73q-29 0 -41 17.5t-12 56.5t12 57t41 18t41.5 -18t12.5 -57t-12.5 -56.5t-41.5 -17.5zM482 197q-14 0 -19 -11.5t-5 -38.5q0 -50 24 -50q15 0 20 12t5 38q0 27 -5 38.5t-20 11.5z
M472 496q34 0 48 -20t14 -43q0 -21 -16.5 -35t-35.5 -17q-104 -12 -166 -72q3 8 8.5 20.5t22.5 44.5t34.5 57t42.5 45t48 20zM139 444q26 0 52 -19.5t44 -47t32 -54.5t21 -47l7 -19q-57 72 -156 72q-24 0 -43 15t-19 37q0 26 16.5 44.5t45.5 18.5zM314 593q19 -18 24 -50
t-1.5 -64t-15.5 -62t-17 -49l-9 -18q10 93 -61 161q-17 17 -20.5 40t11.5 41q18 18 41.5 19.5t47.5 -18.5z" />
    </font>
</defs>
</svg>
