<?xml version="1.0" standalone="no"?>
<!DOCTYPE svg PUBLIC "-//W3C//DTD SVG 1.1//EN" "http://www.w3.org/Graphics/SVG/1.1/DTD/svg11.dtd" >
<svg xmlns="http://www.w3.org/2000/svg" xmlns:xlink="http://www.w3.org/1999/xlink" version="1.1">
<metadata>
Created by FontForge 20230101 at Wed Dec 30 23:16:49 2020
 By Unknown
Tour de Force Font Foundry &#38; Dusan Jelesijevic
</metadata>
<defs>
<font id="FONTSPRINGDEMO-LupioExtLtItalic" horiz-adv-x="598" >
  <font-face 
    font-family="FSP DEMO - Lupio ExtLt"
    font-weight="200"
    font-style="italic"
    font-stretch="normal"
    units-per-em="1000"
    panose-1="0 0 0 0 0 0 0 0 0 0"
    ascent="800"
    descent="-200"
    x-height="500"
    cap-height="700"
    bbox="-137 -200 1110 715"
    underline-thickness="50"
    underline-position="-125"
    slope="-10"
    unicode-range="U+000D-007E"
  />
<missing-glyph 
d="M101 197q-6 0 -9 -1v-98q2 -1 9 -1q18 0 24.5 12t6.5 38t-6.5 38t-24.5 12zM253 161v-24h-40v-38h47v-24h-76v145h76v-25h-47v-34h40zM99 73q-23 0 -36 2v143q26 4 37 4q33 0 47 -18t14 -57t-14.5 -56.5t-47.5 -17.5zM286 220h39l19 -80l19 80h40q1 -21 3.5 -78.5
t2.5 -66.5h-29q0 53 -3 104l-20 -82h-27l-20 82h-1q-2 -68 -2 -104h-28q2 84 7 145zM482 73q-29 0 -41 17.5t-12 56.5t12 57t41 18t41.5 -18t12.5 -57t-12.5 -56.5t-41.5 -17.5zM482 197q-14 0 -19 -11.5t-5 -38.5q0 -50 24 -50q15 0 20 12t5 38q0 27 -5 38.5t-20 11.5z
M472 496q34 0 48 -20t14 -43q0 -21 -16.5 -35t-35.5 -17q-104 -12 -166 -72q3 8 8.5 20.5t22.5 44.5t34.5 57t42.5 45t48 20zM139 444q26 0 52 -19.5t44 -47t32 -54.5t21 -47l7 -19q-57 72 -156 72q-24 0 -43 15t-19 37q0 26 16.5 44.5t45.5 18.5zM314 593q19 -18 24 -50
t-1.5 -64t-15.5 -62t-17 -49l-9 -18q10 93 -61 161q-17 17 -20.5 40t11.5 41q18 18 41.5 19.5t47.5 -18.5z" />
    <glyph glyph-name=".notdef" 
d="M101 197q-6 0 -9 -1v-98q2 -1 9 -1q18 0 24.5 12t6.5 38t-6.5 38t-24.5 12zM253 161v-24h-40v-38h47v-24h-76v145h76v-25h-47v-34h40zM99 73q-23 0 -36 2v143q26 4 37 4q33 0 47 -18t14 -57t-14.5 -56.5t-47.5 -17.5zM286 220h39l19 -80l19 80h40q1 -21 3.5 -78.5
t2.5 -66.5h-29q0 53 -3 104l-20 -82h-27l-20 82h-1q-2 -68 -2 -104h-28q2 84 7 145zM482 73q-29 0 -41 17.5t-12 56.5t12 57t41 18t41.5 -18t12.5 -57t-12.5 -56.5t-41.5 -17.5zM482 197q-14 0 -19 -11.5t-5 -38.5q0 -50 24 -50q15 0 20 12t5 38q0 27 -5 38.5t-20 11.5z
M472 496q34 0 48 -20t14 -43q0 -21 -16.5 -35t-35.5 -17q-104 -12 -166 -72q3 8 8.5 20.5t22.5 44.5t34.5 57t42.5 45t48 20zM139 444q26 0 52 -19.5t44 -47t32 -54.5t21 -47l7 -19q-57 72 -156 72q-24 0 -43 15t-19 37q0 26 16.5 44.5t45.5 18.5zM314 593q19 -18 24 -50
t-1.5 -64t-15.5 -62t-17 -49l-9 -18q10 93 -61 161q-17 17 -20.5 40t11.5 41q18 18 41.5 19.5t47.5 -18.5z" />
    <glyph glyph-name="uni0000" horiz-adv-x="0" 
 />
    <glyph glyph-name="uni000D" unicode="&#xd;" horiz-adv-x="250" 
 />
    <glyph glyph-name="space" unicode=" " horiz-adv-x="260" 
 />
    <glyph glyph-name="exclam" unicode="!" 
d="M101 197q-6 0 -9 -1v-98q2 -1 9 -1q18 0 24.5 12t6.5 38t-6.5 38t-24.5 12zM253 161v-24h-40v-38h47v-24h-76v145h76v-25h-47v-34h40zM99 73q-23 0 -36 2v143q26 4 37 4q33 0 47 -18t14 -57t-14.5 -56.5t-47.5 -17.5zM286 220h39l19 -80l19 80h40q1 -21 3.5 -78.5
t2.5 -66.5h-29q0 53 -3 104l-20 -82h-27l-20 82h-1q-2 -68 -2 -104h-28q2 84 7 145zM482 73q-29 0 -41 17.5t-12 56.5t12 57t41 18t41.5 -18t12.5 -57t-12.5 -56.5t-41.5 -17.5zM482 197q-14 0 -19 -11.5t-5 -38.5q0 -50 24 -50q15 0 20 12t5 38q0 27 -5 38.5t-20 11.5z
M472 496q34 0 48 -20t14 -43q0 -21 -16.5 -35t-35.5 -17q-104 -12 -166 -72q3 8 8.5 20.5t22.5 44.5t34.5 57t42.5 45t48 20zM139 444q26 0 52 -19.5t44 -47t32 -54.5t21 -47l7 -19q-57 72 -156 72q-24 0 -43 15t-19 37q0 26 16.5 44.5t45.5 18.5zM314 593q19 -18 24 -50
t-1.5 -64t-15.5 -62t-17 -49l-9 -18q10 93 -61 161q-17 17 -20.5 40t11.5 41q18 18 41.5 19.5t47.5 -18.5z" />
    <glyph glyph-name="quotedbl" unicode="&#x22;" 
d="M101 197q-6 0 -9 -1v-98q2 -1 9 -1q18 0 24.5 12t6.5 38t-6.5 38t-24.5 12zM253 161v-24h-40v-38h47v-24h-76v145h76v-25h-47v-34h40zM99 73q-23 0 -36 2v143q26 4 37 4q33 0 47 -18t14 -57t-14.5 -56.5t-47.5 -17.5zM286 220h39l19 -80l19 80h40q1 -21 3.5 -78.5
t2.5 -66.5h-29q0 53 -3 104l-20 -82h-27l-20 82h-1q-2 -68 -2 -104h-28q2 84 7 145zM482 73q-29 0 -41 17.5t-12 56.5t12 57t41 18t41.5 -18t12.5 -57t-12.5 -56.5t-41.5 -17.5zM482 197q-14 0 -19 -11.5t-5 -38.5q0 -50 24 -50q15 0 20 12t5 38q0 27 -5 38.5t-20 11.5z
M472 496q34 0 48 -20t14 -43q0 -21 -16.5 -35t-35.5 -17q-104 -12 -166 -72q3 8 8.5 20.5t22.5 44.5t34.5 57t42.5 45t48 20zM139 444q26 0 52 -19.5t44 -47t32 -54.5t21 -47l7 -19q-57 72 -156 72q-24 0 -43 15t-19 37q0 26 16.5 44.5t45.5 18.5zM314 593q19 -18 24 -50
t-1.5 -64t-15.5 -62t-17 -49l-9 -18q10 93 -61 161q-17 17 -20.5 40t11.5 41q18 18 41.5 19.5t47.5 -18.5z" />
    <glyph glyph-name="numbersign" unicode="#" 
d="M101 197q-6 0 -9 -1v-98q2 -1 9 -1q18 0 24.5 12t6.5 38t-6.5 38t-24.5 12zM253 161v-24h-40v-38h47v-24h-76v145h76v-25h-47v-34h40zM99 73q-23 0 -36 2v143q26 4 37 4q33 0 47 -18t14 -57t-14.5 -56.5t-47.5 -17.5zM286 220h39l19 -80l19 80h40q1 -21 3.5 -78.5
t2.5 -66.5h-29q0 53 -3 104l-20 -82h-27l-20 82h-1q-2 -68 -2 -104h-28q2 84 7 145zM482 73q-29 0 -41 17.5t-12 56.5t12 57t41 18t41.5 -18t12.5 -57t-12.5 -56.5t-41.5 -17.5zM482 197q-14 0 -19 -11.5t-5 -38.5q0 -50 24 -50q15 0 20 12t5 38q0 27 -5 38.5t-20 11.5z
M472 496q34 0 48 -20t14 -43q0 -21 -16.5 -35t-35.5 -17q-104 -12 -166 -72q3 8 8.5 20.5t22.5 44.5t34.5 57t42.5 45t48 20zM139 444q26 0 52 -19.5t44 -47t32 -54.5t21 -47l7 -19q-57 72 -156 72q-24 0 -43 15t-19 37q0 26 16.5 44.5t45.5 18.5zM314 593q19 -18 24 -50
t-1.5 -64t-15.5 -62t-17 -49l-9 -18q10 93 -61 161q-17 17 -20.5 40t11.5 41q18 18 41.5 19.5t47.5 -18.5z" />
    <glyph glyph-name="dollar" unicode="$" 
d="M101 197q-6 0 -9 -1v-98q2 -1 9 -1q18 0 24.5 12t6.5 38t-6.5 38t-24.5 12zM253 161v-24h-40v-38h47v-24h-76v145h76v-25h-47v-34h40zM99 73q-23 0 -36 2v143q26 4 37 4q33 0 47 -18t14 -57t-14.5 -56.5t-47.5 -17.5zM286 220h39l19 -80l19 80h40q1 -21 3.5 -78.5
t2.5 -66.5h-29q0 53 -3 104l-20 -82h-27l-20 82h-1q-2 -68 -2 -104h-28q2 84 7 145zM482 73q-29 0 -41 17.5t-12 56.5t12 57t41 18t41.5 -18t12.5 -57t-12.5 -56.5t-41.5 -17.5zM482 197q-14 0 -19 -11.5t-5 -38.5q0 -50 24 -50q15 0 20 12t5 38q0 27 -5 38.5t-20 11.5z
M472 496q34 0 48 -20t14 -43q0 -21 -16.5 -35t-35.5 -17q-104 -12 -166 -72q3 8 8.5 20.5t22.5 44.5t34.5 57t42.5 45t48 20zM139 444q26 0 52 -19.5t44 -47t32 -54.5t21 -47l7 -19q-57 72 -156 72q-24 0 -43 15t-19 37q0 26 16.5 44.5t45.5 18.5zM314 593q19 -18 24 -50
t-1.5 -64t-15.5 -62t-17 -49l-9 -18q10 93 -61 161q-17 17 -20.5 40t11.5 41q18 18 41.5 19.5t47.5 -18.5z" />
    <glyph glyph-name="percent" unicode="%" 
d="M101 197q-6 0 -9 -1v-98q2 -1 9 -1q18 0 24.5 12t6.5 38t-6.5 38t-24.5 12zM253 161v-24h-40v-38h47v-24h-76v145h76v-25h-47v-34h40zM99 73q-23 0 -36 2v143q26 4 37 4q33 0 47 -18t14 -57t-14.5 -56.5t-47.5 -17.5zM286 220h39l19 -80l19 80h40q1 -21 3.5 -78.5
t2.5 -66.5h-29q0 53 -3 104l-20 -82h-27l-20 82h-1q-2 -68 -2 -104h-28q2 84 7 145zM482 73q-29 0 -41 17.5t-12 56.5t12 57t41 18t41.5 -18t12.5 -57t-12.5 -56.5t-41.5 -17.5zM482 197q-14 0 -19 -11.5t-5 -38.5q0 -50 24 -50q15 0 20 12t5 38q0 27 -5 38.5t-20 11.5z
M472 496q34 0 48 -20t14 -43q0 -21 -16.5 -35t-35.5 -17q-104 -12 -166 -72q3 8 8.5 20.5t22.5 44.5t34.5 57t42.5 45t48 20zM139 444q26 0 52 -19.5t44 -47t32 -54.5t21 -47l7 -19q-57 72 -156 72q-24 0 -43 15t-19 37q0 26 16.5 44.5t45.5 18.5zM314 593q19 -18 24 -50
t-1.5 -64t-15.5 -62t-17 -49l-9 -18q10 93 -61 161q-17 17 -20.5 40t11.5 41q18 18 41.5 19.5t47.5 -18.5z" />
    <glyph glyph-name="ampersand" unicode="&#x26;" 
d="M101 197q-6 0 -9 -1v-98q2 -1 9 -1q18 0 24.5 12t6.5 38t-6.5 38t-24.5 12zM253 161v-24h-40v-38h47v-24h-76v145h76v-25h-47v-34h40zM99 73q-23 0 -36 2v143q26 4 37 4q33 0 47 -18t14 -57t-14.5 -56.5t-47.5 -17.5zM286 220h39l19 -80l19 80h40q1 -21 3.5 -78.5
t2.5 -66.5h-29q0 53 -3 104l-20 -82h-27l-20 82h-1q-2 -68 -2 -104h-28q2 84 7 145zM482 73q-29 0 -41 17.5t-12 56.5t12 57t41 18t41.5 -18t12.5 -57t-12.5 -56.5t-41.5 -17.5zM482 197q-14 0 -19 -11.5t-5 -38.5q0 -50 24 -50q15 0 20 12t5 38q0 27 -5 38.5t-20 11.5z
M472 496q34 0 48 -20t14 -43q0 -21 -16.5 -35t-35.5 -17q-104 -12 -166 -72q3 8 8.5 20.5t22.5 44.5t34.5 57t42.5 45t48 20zM139 444q26 0 52 -19.5t44 -47t32 -54.5t21 -47l7 -19q-57 72 -156 72q-24 0 -43 15t-19 37q0 26 16.5 44.5t45.5 18.5zM314 593q19 -18 24 -50
t-1.5 -64t-15.5 -62t-17 -49l-9 -18q10 93 -61 161q-17 17 -20.5 40t11.5 41q18 18 41.5 19.5t47.5 -18.5z" />
    <glyph glyph-name="quotesingle" unicode="'" 
d="M101 197q-6 0 -9 -1v-98q2 -1 9 -1q18 0 24.5 12t6.5 38t-6.5 38t-24.5 12zM253 161v-24h-40v-38h47v-24h-76v145h76v-25h-47v-34h40zM99 73q-23 0 -36 2v143q26 4 37 4q33 0 47 -18t14 -57t-14.5 -56.5t-47.5 -17.5zM286 220h39l19 -80l19 80h40q1 -21 3.5 -78.5
t2.5 -66.5h-29q0 53 -3 104l-20 -82h-27l-20 82h-1q-2 -68 -2 -104h-28q2 84 7 145zM482 73q-29 0 -41 17.5t-12 56.5t12 57t41 18t41.5 -18t12.5 -57t-12.5 -56.5t-41.5 -17.5zM482 197q-14 0 -19 -11.5t-5 -38.5q0 -50 24 -50q15 0 20 12t5 38q0 27 -5 38.5t-20 11.5z
M472 496q34 0 48 -20t14 -43q0 -21 -16.5 -35t-35.5 -17q-104 -12 -166 -72q3 8 8.5 20.5t22.5 44.5t34.5 57t42.5 45t48 20zM139 444q26 0 52 -19.5t44 -47t32 -54.5t21 -47l7 -19q-57 72 -156 72q-24 0 -43 15t-19 37q0 26 16.5 44.5t45.5 18.5zM314 593q19 -18 24 -50
t-1.5 -64t-15.5 -62t-17 -49l-9 -18q10 93 -61 161q-17 17 -20.5 40t11.5 41q18 18 41.5 19.5t47.5 -18.5z" />
    <glyph glyph-name="parenleft" unicode="(" 
d="M101 197q-6 0 -9 -1v-98q2 -1 9 -1q18 0 24.5 12t6.5 38t-6.5 38t-24.5 12zM253 161v-24h-40v-38h47v-24h-76v145h76v-25h-47v-34h40zM99 73q-23 0 -36 2v143q26 4 37 4q33 0 47 -18t14 -57t-14.5 -56.5t-47.5 -17.5zM286 220h39l19 -80l19 80h40q1 -21 3.5 -78.5
t2.5 -66.5h-29q0 53 -3 104l-20 -82h-27l-20 82h-1q-2 -68 -2 -104h-28q2 84 7 145zM482 73q-29 0 -41 17.5t-12 56.5t12 57t41 18t41.5 -18t12.5 -57t-12.5 -56.5t-41.5 -17.5zM482 197q-14 0 -19 -11.5t-5 -38.5q0 -50 24 -50q15 0 20 12t5 38q0 27 -5 38.5t-20 11.5z
M472 496q34 0 48 -20t14 -43q0 -21 -16.5 -35t-35.5 -17q-104 -12 -166 -72q3 8 8.5 20.5t22.5 44.5t34.5 57t42.5 45t48 20zM139 444q26 0 52 -19.5t44 -47t32 -54.5t21 -47l7 -19q-57 72 -156 72q-24 0 -43 15t-19 37q0 26 16.5 44.5t45.5 18.5zM314 593q19 -18 24 -50
t-1.5 -64t-15.5 -62t-17 -49l-9 -18q10 93 -61 161q-17 17 -20.5 40t11.5 41q18 18 41.5 19.5t47.5 -18.5z" />
    <glyph glyph-name="parenright" unicode=")" 
d="M101 197q-6 0 -9 -1v-98q2 -1 9 -1q18 0 24.5 12t6.5 38t-6.5 38t-24.5 12zM253 161v-24h-40v-38h47v-24h-76v145h76v-25h-47v-34h40zM99 73q-23 0 -36 2v143q26 4 37 4q33 0 47 -18t14 -57t-14.5 -56.5t-47.5 -17.5zM286 220h39l19 -80l19 80h40q1 -21 3.5 -78.5
t2.5 -66.5h-29q0 53 -3 104l-20 -82h-27l-20 82h-1q-2 -68 -2 -104h-28q2 84 7 145zM482 73q-29 0 -41 17.5t-12 56.5t12 57t41 18t41.5 -18t12.5 -57t-12.5 -56.5t-41.5 -17.5zM482 197q-14 0 -19 -11.5t-5 -38.5q0 -50 24 -50q15 0 20 12t5 38q0 27 -5 38.5t-20 11.5z
M472 496q34 0 48 -20t14 -43q0 -21 -16.5 -35t-35.5 -17q-104 -12 -166 -72q3 8 8.5 20.5t22.5 44.5t34.5 57t42.5 45t48 20zM139 444q26 0 52 -19.5t44 -47t32 -54.5t21 -47l7 -19q-57 72 -156 72q-24 0 -43 15t-19 37q0 26 16.5 44.5t45.5 18.5zM314 593q19 -18 24 -50
t-1.5 -64t-15.5 -62t-17 -49l-9 -18q10 93 -61 161q-17 17 -20.5 40t11.5 41q18 18 41.5 19.5t47.5 -18.5z" />
    <glyph glyph-name="asterisk" unicode="*" 
d="M101 197q-6 0 -9 -1v-98q2 -1 9 -1q18 0 24.5 12t6.5 38t-6.5 38t-24.5 12zM253 161v-24h-40v-38h47v-24h-76v145h76v-25h-47v-34h40zM99 73q-23 0 -36 2v143q26 4 37 4q33 0 47 -18t14 -57t-14.5 -56.5t-47.5 -17.5zM286 220h39l19 -80l19 80h40q1 -21 3.5 -78.5
t2.5 -66.5h-29q0 53 -3 104l-20 -82h-27l-20 82h-1q-2 -68 -2 -104h-28q2 84 7 145zM482 73q-29 0 -41 17.5t-12 56.5t12 57t41 18t41.5 -18t12.5 -57t-12.5 -56.5t-41.5 -17.5zM482 197q-14 0 -19 -11.5t-5 -38.5q0 -50 24 -50q15 0 20 12t5 38q0 27 -5 38.5t-20 11.5z
M472 496q34 0 48 -20t14 -43q0 -21 -16.5 -35t-35.5 -17q-104 -12 -166 -72q3 8 8.5 20.5t22.5 44.5t34.5 57t42.5 45t48 20zM139 444q26 0 52 -19.5t44 -47t32 -54.5t21 -47l7 -19q-57 72 -156 72q-24 0 -43 15t-19 37q0 26 16.5 44.5t45.5 18.5zM314 593q19 -18 24 -50
t-1.5 -64t-15.5 -62t-17 -49l-9 -18q10 93 -61 161q-17 17 -20.5 40t11.5 41q18 18 41.5 19.5t47.5 -18.5z" />
    <glyph glyph-name="plus" unicode="+" 
d="M101 197q-6 0 -9 -1v-98q2 -1 9 -1q18 0 24.5 12t6.5 38t-6.5 38t-24.5 12zM253 161v-24h-40v-38h47v-24h-76v145h76v-25h-47v-34h40zM99 73q-23 0 -36 2v143q26 4 37 4q33 0 47 -18t14 -57t-14.5 -56.5t-47.5 -17.5zM286 220h39l19 -80l19 80h40q1 -21 3.5 -78.5
t2.5 -66.5h-29q0 53 -3 104l-20 -82h-27l-20 82h-1q-2 -68 -2 -104h-28q2 84 7 145zM482 73q-29 0 -41 17.5t-12 56.5t12 57t41 18t41.5 -18t12.5 -57t-12.5 -56.5t-41.5 -17.5zM482 197q-14 0 -19 -11.5t-5 -38.5q0 -50 24 -50q15 0 20 12t5 38q0 27 -5 38.5t-20 11.5z
M472 496q34 0 48 -20t14 -43q0 -21 -16.5 -35t-35.5 -17q-104 -12 -166 -72q3 8 8.5 20.5t22.5 44.5t34.5 57t42.5 45t48 20zM139 444q26 0 52 -19.5t44 -47t32 -54.5t21 -47l7 -19q-57 72 -156 72q-24 0 -43 15t-19 37q0 26 16.5 44.5t45.5 18.5zM314 593q19 -18 24 -50
t-1.5 -64t-15.5 -62t-17 -49l-9 -18q10 93 -61 161q-17 17 -20.5 40t11.5 41q18 18 41.5 19.5t47.5 -18.5z" />
    <glyph glyph-name="comma" unicode="," horiz-adv-x="271" 
d="M186 18l-85 -119h-30l55 92q-20 3 -29.5 17.5t-5.5 35.5q4 22 22 37t41 15q22 0 34.5 -15t8.5 -37q-2 -12 -11 -26z" />
    <glyph glyph-name="hyphen" unicode="-" 
d="M101 197q-6 0 -9 -1v-98q2 -1 9 -1q18 0 24.5 12t6.5 38t-6.5 38t-24.5 12zM253 161v-24h-40v-38h47v-24h-76v145h76v-25h-47v-34h40zM99 73q-23 0 -36 2v143q26 4 37 4q33 0 47 -18t14 -57t-14.5 -56.5t-47.5 -17.5zM286 220h39l19 -80l19 80h40q1 -21 3.5 -78.5
t2.5 -66.5h-29q0 53 -3 104l-20 -82h-27l-20 82h-1q-2 -68 -2 -104h-28q2 84 7 145zM482 73q-29 0 -41 17.5t-12 56.5t12 57t41 18t41.5 -18t12.5 -57t-12.5 -56.5t-41.5 -17.5zM482 197q-14 0 -19 -11.5t-5 -38.5q0 -50 24 -50q15 0 20 12t5 38q0 27 -5 38.5t-20 11.5z
M472 496q34 0 48 -20t14 -43q0 -21 -16.5 -35t-35.5 -17q-104 -12 -166 -72q3 8 8.5 20.5t22.5 44.5t34.5 57t42.5 45t48 20zM139 444q26 0 52 -19.5t44 -47t32 -54.5t21 -47l7 -19q-57 72 -156 72q-24 0 -43 15t-19 37q0 26 16.5 44.5t45.5 18.5zM314 593q19 -18 24 -50
t-1.5 -64t-15.5 -62t-17 -49l-9 -18q10 93 -61 161q-17 17 -20.5 40t11.5 41q18 18 41.5 19.5t47.5 -18.5z" />
    <glyph glyph-name="period" unicode="." horiz-adv-x="271" 
d="M91 44q4 22 22 37t41 15q22 0 34.5 -15t8.5 -37q-4 -23 -22 -38.5t-40 -15.5q-23 0 -35.5 15.5t-8.5 38.5z" />
    <glyph glyph-name="slash" unicode="/" 
d="M101 197q-6 0 -9 -1v-98q2 -1 9 -1q18 0 24.5 12t6.5 38t-6.5 38t-24.5 12zM253 161v-24h-40v-38h47v-24h-76v145h76v-25h-47v-34h40zM99 73q-23 0 -36 2v143q26 4 37 4q33 0 47 -18t14 -57t-14.5 -56.5t-47.5 -17.5zM286 220h39l19 -80l19 80h40q1 -21 3.5 -78.5
t2.5 -66.5h-29q0 53 -3 104l-20 -82h-27l-20 82h-1q-2 -68 -2 -104h-28q2 84 7 145zM482 73q-29 0 -41 17.5t-12 56.5t12 57t41 18t41.5 -18t12.5 -57t-12.5 -56.5t-41.5 -17.5zM482 197q-14 0 -19 -11.5t-5 -38.5q0 -50 24 -50q15 0 20 12t5 38q0 27 -5 38.5t-20 11.5z
M472 496q34 0 48 -20t14 -43q0 -21 -16.5 -35t-35.5 -17q-104 -12 -166 -72q3 8 8.5 20.5t22.5 44.5t34.5 57t42.5 45t48 20zM139 444q26 0 52 -19.5t44 -47t32 -54.5t21 -47l7 -19q-57 72 -156 72q-24 0 -43 15t-19 37q0 26 16.5 44.5t45.5 18.5zM314 593q19 -18 24 -50
t-1.5 -64t-15.5 -62t-17 -49l-9 -18q10 93 -61 161q-17 17 -20.5 40t11.5 41q18 18 41.5 19.5t47.5 -18.5z" />
    <glyph glyph-name="zero" unicode="0" horiz-adv-x="764" 
d="M143 350q30 168 127.5 264t235.5 96q139 0 204 -96t35 -264t-128.5 -264t-237.5 -96q-138 0 -202 96t-34 264zM499 670q-112 0 -196.5 -85.5t-110.5 -234.5q-27 -153 22 -236.5t172 -83.5q113 0 198.5 85.5t111.5 234.5q27 154 -23 237t-174 83z" />
    <glyph glyph-name="one" unicode="1" horiz-adv-x="463" 
d="M452 700h34l-123 -700h-47l115 654l-276 -118l-8 34z" />
    <glyph glyph-name="two" unicode="2" horiz-adv-x="682" 
d="M106 40l292 228q117 92 154 137.5t47 103.5q15 86 -29.5 124t-135.5 38q-98 0 -156.5 -61.5t-73.5 -145.5h-49q8 44 27.5 85t52 78.5t85 60t117.5 22.5q108 0 168.5 -50t42.5 -151q-12 -66 -57.5 -121.5t-175.5 -153.5l-252 -194h453l-7 -40h-510z" />
    <glyph glyph-name="three" unicode="3" horiz-adv-x="659" 
d="M327 335l6 33h84q147 0 173 150q14 80 -28 116.5t-132 36.5q-179 0 -212 -186h-49q16 96 81 160.5t187 64.5q105 0 161.5 -48t40.5 -140q-22 -131 -130 -168q135 -31 111 -165q-16 -96 -98 -147t-192 -51q-126 0 -180.5 66.5t-38.5 157.5h49q-14 -80 27 -132.5t152 -52.5
q83 0 150.5 40.5t82.5 122.5q13 74 -29.5 108t-127.5 34h-88z" />
    <glyph glyph-name="four" unicode="4" 
d="M101 197q-6 0 -9 -1v-98q2 -1 9 -1q18 0 24.5 12t6.5 38t-6.5 38t-24.5 12zM253 161v-24h-40v-38h47v-24h-76v145h76v-25h-47v-34h40zM99 73q-23 0 -36 2v143q26 4 37 4q33 0 47 -18t14 -57t-14.5 -56.5t-47.5 -17.5zM286 220h39l19 -80l19 80h40q1 -21 3.5 -78.5
t2.5 -66.5h-29q0 53 -3 104l-20 -82h-27l-20 82h-1q-2 -68 -2 -104h-28q2 84 7 145zM482 73q-29 0 -41 17.5t-12 56.5t12 57t41 18t41.5 -18t12.5 -57t-12.5 -56.5t-41.5 -17.5zM482 197q-14 0 -19 -11.5t-5 -38.5q0 -50 24 -50q15 0 20 12t5 38q0 27 -5 38.5t-20 11.5z
M472 496q34 0 48 -20t14 -43q0 -21 -16.5 -35t-35.5 -17q-104 -12 -166 -72q3 8 8.5 20.5t22.5 44.5t34.5 57t42.5 45t48 20zM139 444q26 0 52 -19.5t44 -47t32 -54.5t21 -47l7 -19q-57 72 -156 72q-24 0 -43 15t-19 37q0 26 16.5 44.5t45.5 18.5zM314 593q19 -18 24 -50
t-1.5 -64t-15.5 -62t-17 -49l-9 -18q10 93 -61 161q-17 17 -20.5 40t11.5 41q18 18 41.5 19.5t47.5 -18.5z" />
    <glyph glyph-name="five" unicode="5" horiz-adv-x="621" 
d="M191 362l109 338h341l-7 -40h-300l-80 -247q68 44 145 44q92 0 150 -64t39 -169q-18 -105 -100 -169.5t-178 -64.5t-156 64t-42 170h47q-16 -91 29.5 -144t127.5 -53q71 0 140.5 54t84.5 142q17 91 -28 144t-127 53q-81 0 -148 -58h-47z" />
    <glyph glyph-name="six" unicode="6" horiz-adv-x="641" 
d="M401 461q97 0 157.5 -64.5t41.5 -170.5t-102 -171t-180 -65t-156.5 65t-40.5 171q16 92 86 157l311 317h54l-243 -249q34 10 72 10zM325 27q45 0 92.5 22.5t86.5 69.5t49 107q16 91 -29.5 144.5t-128.5 53.5q-71 0 -141.5 -55t-85.5 -143q-16 -92 29.5 -145.5
t127.5 -53.5z" />
    <glyph glyph-name="seven" unicode="7" horiz-adv-x="543" 
d="M621 700l-6 -36l-414 -664h-54l416 660h-402l7 40h453z" />
    <glyph glyph-name="eight" unicode="8" horiz-adv-x="685" 
d="M468 710q109 0 167 -46.5t42 -135.5q-23 -127 -161 -168q66 -19 98.5 -64t20.5 -114q-11 -64 -55.5 -108.5t-105 -64t-133.5 -19.5q-113 0 -178.5 48.5t-49.5 143.5q12 69 61.5 114t122.5 64q-126 41 -103 168q16 89 90 135.5t184 46.5zM409 377q91 0 150 37t72 111
q13 75 -29.5 111.5t-139.5 36.5q-86 0 -147.5 -37.5t-74.5 -110.5q-13 -74 32 -111t137 -37zM348 27q89 0 158 39.5t83 118.5q14 80 -39 118.5t-147 38.5q-95 0 -162 -38.5t-80 -118.5q-14 -81 36 -119.5t151 -38.5z" />
    <glyph glyph-name="nine" unicode="9" horiz-adv-x="641" 
d="M363 239q-96 0 -156.5 65t-41.5 171t101.5 170.5t179.5 64.5t157 -64.5t41 -170.5q-17 -97 -94 -164l-304 -311h-54l243 249q-34 -10 -72 -10zM440 673q-72 0 -142.5 -55t-85.5 -143q-16 -92 29.5 -145.5t128.5 -53.5q45 0 92 22.5t86 69.5t49 107q16 91 -29.5 144.5
t-127.5 53.5z" />
    <glyph glyph-name="colon" unicode=":" horiz-adv-x="271" 
d="M164 458q4 22 22 37t41 15q22 0 34.5 -15t8.5 -37q-4 -23 -22 -38.5t-40 -15.5q-23 0 -35.5 15.5t-8.5 38.5zM91 44q4 22 22 37t41 15q22 0 34.5 -15t8.5 -37q-4 -23 -22 -38.5t-40 -15.5q-23 0 -35.5 15.5t-8.5 38.5z" />
    <glyph glyph-name="semicolon" unicode=";" horiz-adv-x="271" 
d="M164 458q4 22 22 37t41 15q22 0 34.5 -15t8.5 -37q-4 -23 -22 -38.5t-40 -15.5q-23 0 -35.5 15.5t-8.5 38.5zM91 43q4 22 22 37t41 15q22 0 34.5 -15t8.5 -37q-3 -16 -14 -29l-82 -116h-30l56 93q-20 3 -30 17.5t-6 34.5z" />
    <glyph glyph-name="less" unicode="&#x3c;" 
d="M101 197q-6 0 -9 -1v-98q2 -1 9 -1q18 0 24.5 12t6.5 38t-6.5 38t-24.5 12zM253 161v-24h-40v-38h47v-24h-76v145h76v-25h-47v-34h40zM99 73q-23 0 -36 2v143q26 4 37 4q33 0 47 -18t14 -57t-14.5 -56.5t-47.5 -17.5zM286 220h39l19 -80l19 80h40q1 -21 3.5 -78.5
t2.5 -66.5h-29q0 53 -3 104l-20 -82h-27l-20 82h-1q-2 -68 -2 -104h-28q2 84 7 145zM482 73q-29 0 -41 17.5t-12 56.5t12 57t41 18t41.5 -18t12.5 -57t-12.5 -56.5t-41.5 -17.5zM482 197q-14 0 -19 -11.5t-5 -38.5q0 -50 24 -50q15 0 20 12t5 38q0 27 -5 38.5t-20 11.5z
M472 496q34 0 48 -20t14 -43q0 -21 -16.5 -35t-35.5 -17q-104 -12 -166 -72q3 8 8.5 20.5t22.5 44.5t34.5 57t42.5 45t48 20zM139 444q26 0 52 -19.5t44 -47t32 -54.5t21 -47l7 -19q-57 72 -156 72q-24 0 -43 15t-19 37q0 26 16.5 44.5t45.5 18.5zM314 593q19 -18 24 -50
t-1.5 -64t-15.5 -62t-17 -49l-9 -18q10 93 -61 161q-17 17 -20.5 40t11.5 41q18 18 41.5 19.5t47.5 -18.5z" />
    <glyph glyph-name="equal" unicode="=" 
d="M101 197q-6 0 -9 -1v-98q2 -1 9 -1q18 0 24.5 12t6.5 38t-6.5 38t-24.5 12zM253 161v-24h-40v-38h47v-24h-76v145h76v-25h-47v-34h40zM99 73q-23 0 -36 2v143q26 4 37 4q33 0 47 -18t14 -57t-14.5 -56.5t-47.5 -17.5zM286 220h39l19 -80l19 80h40q1 -21 3.5 -78.5
t2.5 -66.5h-29q0 53 -3 104l-20 -82h-27l-20 82h-1q-2 -68 -2 -104h-28q2 84 7 145zM482 73q-29 0 -41 17.5t-12 56.5t12 57t41 18t41.5 -18t12.5 -57t-12.5 -56.5t-41.5 -17.5zM482 197q-14 0 -19 -11.5t-5 -38.5q0 -50 24 -50q15 0 20 12t5 38q0 27 -5 38.5t-20 11.5z
M472 496q34 0 48 -20t14 -43q0 -21 -16.5 -35t-35.5 -17q-104 -12 -166 -72q3 8 8.5 20.5t22.5 44.5t34.5 57t42.5 45t48 20zM139 444q26 0 52 -19.5t44 -47t32 -54.5t21 -47l7 -19q-57 72 -156 72q-24 0 -43 15t-19 37q0 26 16.5 44.5t45.5 18.5zM314 593q19 -18 24 -50
t-1.5 -64t-15.5 -62t-17 -49l-9 -18q10 93 -61 161q-17 17 -20.5 40t11.5 41q18 18 41.5 19.5t47.5 -18.5z" />
    <glyph glyph-name="greater" unicode="&#x3e;" 
d="M101 197q-6 0 -9 -1v-98q2 -1 9 -1q18 0 24.5 12t6.5 38t-6.5 38t-24.5 12zM253 161v-24h-40v-38h47v-24h-76v145h76v-25h-47v-34h40zM99 73q-23 0 -36 2v143q26 4 37 4q33 0 47 -18t14 -57t-14.5 -56.5t-47.5 -17.5zM286 220h39l19 -80l19 80h40q1 -21 3.5 -78.5
t2.5 -66.5h-29q0 53 -3 104l-20 -82h-27l-20 82h-1q-2 -68 -2 -104h-28q2 84 7 145zM482 73q-29 0 -41 17.5t-12 56.5t12 57t41 18t41.5 -18t12.5 -57t-12.5 -56.5t-41.5 -17.5zM482 197q-14 0 -19 -11.5t-5 -38.5q0 -50 24 -50q15 0 20 12t5 38q0 27 -5 38.5t-20 11.5z
M472 496q34 0 48 -20t14 -43q0 -21 -16.5 -35t-35.5 -17q-104 -12 -166 -72q3 8 8.5 20.5t22.5 44.5t34.5 57t42.5 45t48 20zM139 444q26 0 52 -19.5t44 -47t32 -54.5t21 -47l7 -19q-57 72 -156 72q-24 0 -43 15t-19 37q0 26 16.5 44.5t45.5 18.5zM314 593q19 -18 24 -50
t-1.5 -64t-15.5 -62t-17 -49l-9 -18q10 93 -61 161q-17 17 -20.5 40t11.5 41q18 18 41.5 19.5t47.5 -18.5z" />
    <glyph glyph-name="question" unicode="?" horiz-adv-x="607" 
d="M312 214l6 38q11 59 30 80.5t93 63.5q3 2 17.5 10t18.5 11t16 10.5t16.5 12.5t13.5 14t13.5 17.5t11 20t10 25t6.5 29.5q13 76 -22 101.5t-113 25.5q-171 0 -203 -178h-49q8 46 24 81.5t44.5 67.5t76.5 49.5t113 17.5q43 0 76.5 -7.5t61 -24.5t38.5 -50.5t2 -81.5
q-8 -50 -31 -85.5t-44 -51t-60 -37.5q-7 -4 -11 -6q-62 -35 -78 -53t-24 -63l-6 -37h-47zM254 43q4 21 22 36t40 15q21 0 33.5 -15t8.5 -36q-4 -22 -22 -37.5t-39 -15.5q-23 0 -35 15.5t-8 37.5z" />
    <glyph glyph-name="at" unicode="@" 
d="M101 197q-6 0 -9 -1v-98q2 -1 9 -1q18 0 24.5 12t6.5 38t-6.5 38t-24.5 12zM253 161v-24h-40v-38h47v-24h-76v145h76v-25h-47v-34h40zM99 73q-23 0 -36 2v143q26 4 37 4q33 0 47 -18t14 -57t-14.5 -56.5t-47.5 -17.5zM286 220h39l19 -80l19 80h40q1 -21 3.5 -78.5
t2.5 -66.5h-29q0 53 -3 104l-20 -82h-27l-20 82h-1q-2 -68 -2 -104h-28q2 84 7 145zM482 73q-29 0 -41 17.5t-12 56.5t12 57t41 18t41.5 -18t12.5 -57t-12.5 -56.5t-41.5 -17.5zM482 197q-14 0 -19 -11.5t-5 -38.5q0 -50 24 -50q15 0 20 12t5 38q0 27 -5 38.5t-20 11.5z
M472 496q34 0 48 -20t14 -43q0 -21 -16.5 -35t-35.5 -17q-104 -12 -166 -72q3 8 8.5 20.5t22.5 44.5t34.5 57t42.5 45t48 20zM139 444q26 0 52 -19.5t44 -47t32 -54.5t21 -47l7 -19q-57 72 -156 72q-24 0 -43 15t-19 37q0 26 16.5 44.5t45.5 18.5zM314 593q19 -18 24 -50
t-1.5 -64t-15.5 -62t-17 -49l-9 -18q10 93 -61 161q-17 17 -20.5 40t11.5 41q18 18 41.5 19.5t47.5 -18.5z" />
    <glyph glyph-name="A" unicode="A" horiz-adv-x="772" 
d="M487 701h47l193 -700h-43l-53 194h-415l-121 -194h-50zM241 235h379l-114 423z" />
    <glyph glyph-name="B" unicode="B" horiz-adv-x="703" 
d="M100 0l123 700h262q24 0 44.5 -1.5t53.5 -12t54 -28t33 -53.5t4 -86q-21 -120 -137 -161q142 -29 117 -174q-8 -50 -33 -86.5t-52.5 -54.5t-63.5 -28.5t-58 -12.5t-45 -2h-302zM212 368h212q174 0 200 148q7 42 -1.5 71.5t-23.5 44t-42 22t-41.5 8.5t-36.5 1h-3h-213z
M154 37h251q16 0 29.5 1t44.5 9t53.5 22t44.5 45t29 73t-3 72.5t-26.5 45t-44.5 22t-42 8.5t-33 1h-251z" />
    <glyph glyph-name="C" unicode="C" horiz-adv-x="830" 
d="M192 350q-27 -150 42.5 -235t199.5 -85q118 0 207 68t103 147h47q-7 -43 -35.5 -87t-73.5 -82t-112 -62t-143 -24q-146 0 -229.5 99t-54.5 261q28 162 146.5 261t264.5 99q76 0 134.5 -24t90 -62t44.5 -82t5 -87h-47q7 37 -3.5 74t-36.5 69t-76.5 52t-117.5 20
q-119 0 -224 -87t-131 -233z" />
    <glyph glyph-name="D" unicode="D" horiz-adv-x="807" 
d="M489 700q70 0 130 -23.5t103.5 -66.5t62 -110.5t3.5 -149.5q-19 -109 -86 -190t-154.5 -120.5t-181.5 -39.5h-266l123 700h266zM154 38h219q78 0 153.5 34.5t135.5 107.5t77 170q26 148 -48 230t-208 82h-219z" />
    <glyph glyph-name="E" unicode="E" horiz-adv-x="637" 
d="M223 700h473l-7 -40h-426l-48 -275h396l-7 -40h-396l-54 -305h426l-7 -40h-473z" />
    <glyph glyph-name="F" unicode="F" horiz-adv-x="608" 
d="M214 700h471l-7 -40h-424l-52 -293h395l-7 -40h-395l-57 -327h-47z" />
    <glyph glyph-name="G" unicode="G" horiz-adv-x="840" 
d="M192 354q-26 -151 42.5 -233.5t211.5 -82.5q121 0 211.5 71t112.5 183h-322l7 36h362l-58 -328h-40l32 179q-45 -83 -126.5 -131.5t-190.5 -48.5q-154 0 -237 96t-54 259q29 162 149 259t272 97q138 0 210.5 -75.5t56.5 -164.5h-47q13 78 -45 139t-181 61
q-129 0 -234.5 -85t-131.5 -231z" />
    <glyph glyph-name="H" unicode="H" horiz-adv-x="848" 
d="M223 700h47l-56 -322h554l56 322h47l-123 -700h-47l60 338h-554l-60 -338h-47z" />
    <glyph glyph-name="I" unicode="I" horiz-adv-x="247" 
d="M223 700h47l-123 -700h-47z" />
    <glyph glyph-name="J" unicode="J" horiz-adv-x="642" 
d="M618 700h47l-80 -455q-20 -117 -97 -186t-186 -69q-112 0 -163 69t-30 188h47q-19 -105 18.5 -161t134.5 -56q82 0 146.5 58.5t82.5 156.5z" />
    <glyph glyph-name="K" unicode="K" horiz-adv-x="667" 
d="M223 700h47l-61 -351h119l335 351h56l-351 -367l254 -333h-59l-238 311h-123l-55 -311h-47z" />
    <glyph glyph-name="L" unicode="L" horiz-adv-x="654" 
d="M223 700h47l-116 -660h444l-7 -40h-491z" />
    <glyph glyph-name="M" unicode="M" horiz-adv-x="927" 
d="M224 700h45l204 -647l432 647h45l-123 -700h-45l107 611l-406 -611h-34l-194 622l-109 -622h-45z" />
    <glyph glyph-name="N" unicode="N" horiz-adv-x="847" 
d="M223 700h47l441 -640l112 640h47l-123 -700h-47l-440 639l-113 -639h-47z" />
    <glyph glyph-name="O" unicode="O" horiz-adv-x="882" 
d="M143 350q29 162 153.5 261t268.5 99q69 0 129 -25t103 -70t61.5 -114t3.5 -151q-29 -162 -154 -261t-270 -99q-69 0 -128.5 25t-102 70t-61 114t-3.5 151zM558 670q-76 0 -152.5 -37t-136.5 -112t-77 -171q-26 -146 48 -233t205 -87q120 0 231 88.5t137 231.5
q25 146 -49 233t-206 87z" />
    <glyph glyph-name="P" unicode="P" horiz-adv-x="699" 
d="M519 700q21 0 45 -4t58 -18.5t58 -38t36.5 -68t2.5 -102.5t-38.5 -102.5t-61 -68t-71 -38t-64 -18.5t-46.5 -4h-249l-42 -237h-47l123 699h296zM195 275h246q18 0 44.5 6t67 23.5t73.5 60t44 104.5q9 50 -0.5 88t-28 57.5t-46 31t-47 14.5t-38.5 3h-247z" />
    <glyph glyph-name="Q" unicode="Q" horiz-adv-x="882" 
d="M705 -200l-141 210q-63 -20 -126 -20q-69 0 -128.5 25t-102 70t-61 114t-3.5 151q29 162 153.5 261t268.5 99q69 0 129 -25t103 -70t61.5 -114t3.5 -151q-20 -115 -90.5 -199t-169.5 -126l150 -225h-47zM558 670q-76 0 -152.5 -37t-136.5 -112t-77 -171q-26 -146 48 -233
t205 -87q120 0 231 88.5t137 231.5q25 146 -49 233t-206 87z" />
    <glyph glyph-name="R" unicode="R" horiz-adv-x="709" 
d="M522 700q21 0 46 -4t58.5 -17.5t58 -35.5t37 -62.5t3.5 -92.5q-11 -59 -42.5 -103t-73.5 -66t-76.5 -32t-67.5 -13l153 -273h-54l-152 272h-217l-48 -272h-47l123 699h299zM202 310h250q18 0 44.5 6t66.5 22t71.5 55t41.5 94q8 45 -2 79t-29 51.5t-46 28.5t-47 14t-38 3
h-250z" />
    <glyph glyph-name="S" unicode="S" horiz-adv-x="745" 
d="M160 215q-15 -81 36.5 -133.5t190.5 -52.5q114 0 185 41.5t83 111.5q7 38 -0.5 62.5t-37 39t-54.5 21t-81 15.5q-30 5 -46 8q-71 13 -112.5 25t-78 33.5t-48 55t-3.5 82.5q16 90 99 138t206 48q79 0 134.5 -19t82.5 -51.5t35.5 -70.5t0.5 -82h-49q9 35 1.5 68.5t-26.5 59
t-66.5 41t-119.5 15.5q-98 0 -166.5 -36.5t-82.5 -110.5q-5 -31 1.5 -54t21 -38.5t46.5 -27.5t64 -19t87 -17q124 -21 155 -32q83 -29 90 -99q2 -23 -3 -52q-16 -87 -98 -141t-226 -54q-155 0 -220.5 66t-49.5 159h49z" />
    <glyph glyph-name="T" unicode="T" horiz-adv-x="717" 
d="M170 700h624l-7 -40h-289l-116 -660h-47l116 660h-288z" />
    <glyph glyph-name="U" unicode="U" horiz-adv-x="774" 
d="M750 700h47l-72 -410q-26 -152 -114.5 -226t-230.5 -74q-281 0 -229 300l72 410h47l-72 -410q-24 -136 20.5 -198t168.5 -62q114 0 191 64.5t100 195.5z" />
    <glyph glyph-name="V" unicode="V" horiz-adv-x="775" 
d="M364 0l-12 41l-183 659h47l176 -653l407 653h52l-440 -700h-47z" />
    <glyph glyph-name="W" unicode="W" horiz-adv-x="1033" 
d="M274 0l-105 700h45l91 -635l307 635h49l83 -636l316 636h50l-352 -700h-48l-83 632l-305 -632h-48z" />
    <glyph glyph-name="X" unicode="X" horiz-adv-x="776" 
d="M46 0l377 364l-218 336h54l197 -309l303 309h64l-340 -342l241 -358h-54l-219 334l-340 -334h-65z" />
    <glyph glyph-name="Y" unicode="Y" horiz-adv-x="737" 
d="M382 210l-213 490h48l192 -453l349 453h56l-385 -490l-37 -210h-47z" />
    <glyph glyph-name="Z" unicode="Z" horiz-adv-x="629" 
d="M680 700l-6 -36l-559 -624h475l-7 -40h-537l6 36l561 624h-443l7 40h503z" />
    <glyph glyph-name="bracketleft" unicode="[" 
d="M101 197q-6 0 -9 -1v-98q2 -1 9 -1q18 0 24.5 12t6.5 38t-6.5 38t-24.5 12zM253 161v-24h-40v-38h47v-24h-76v145h76v-25h-47v-34h40zM99 73q-23 0 -36 2v143q26 4 37 4q33 0 47 -18t14 -57t-14.5 -56.5t-47.5 -17.5zM286 220h39l19 -80l19 80h40q1 -21 3.5 -78.5
t2.5 -66.5h-29q0 53 -3 104l-20 -82h-27l-20 82h-1q-2 -68 -2 -104h-28q2 84 7 145zM482 73q-29 0 -41 17.5t-12 56.5t12 57t41 18t41.5 -18t12.5 -57t-12.5 -56.5t-41.5 -17.5zM482 197q-14 0 -19 -11.5t-5 -38.5q0 -50 24 -50q15 0 20 12t5 38q0 27 -5 38.5t-20 11.5z
M472 496q34 0 48 -20t14 -43q0 -21 -16.5 -35t-35.5 -17q-104 -12 -166 -72q3 8 8.5 20.5t22.5 44.5t34.5 57t42.5 45t48 20zM139 444q26 0 52 -19.5t44 -47t32 -54.5t21 -47l7 -19q-57 72 -156 72q-24 0 -43 15t-19 37q0 26 16.5 44.5t45.5 18.5zM314 593q19 -18 24 -50
t-1.5 -64t-15.5 -62t-17 -49l-9 -18q10 93 -61 161q-17 17 -20.5 40t11.5 41q18 18 41.5 19.5t47.5 -18.5z" />
    <glyph glyph-name="backslash" unicode="\" 
d="M101 197q-6 0 -9 -1v-98q2 -1 9 -1q18 0 24.5 12t6.5 38t-6.5 38t-24.5 12zM253 161v-24h-40v-38h47v-24h-76v145h76v-25h-47v-34h40zM99 73q-23 0 -36 2v143q26 4 37 4q33 0 47 -18t14 -57t-14.5 -56.5t-47.5 -17.5zM286 220h39l19 -80l19 80h40q1 -21 3.5 -78.5
t2.5 -66.5h-29q0 53 -3 104l-20 -82h-27l-20 82h-1q-2 -68 -2 -104h-28q2 84 7 145zM482 73q-29 0 -41 17.5t-12 56.5t12 57t41 18t41.5 -18t12.5 -57t-12.5 -56.5t-41.5 -17.5zM482 197q-14 0 -19 -11.5t-5 -38.5q0 -50 24 -50q15 0 20 12t5 38q0 27 -5 38.5t-20 11.5z
M472 496q34 0 48 -20t14 -43q0 -21 -16.5 -35t-35.5 -17q-104 -12 -166 -72q3 8 8.5 20.5t22.5 44.5t34.5 57t42.5 45t48 20zM139 444q26 0 52 -19.5t44 -47t32 -54.5t21 -47l7 -19q-57 72 -156 72q-24 0 -43 15t-19 37q0 26 16.5 44.5t45.5 18.5zM314 593q19 -18 24 -50
t-1.5 -64t-15.5 -62t-17 -49l-9 -18q10 93 -61 161q-17 17 -20.5 40t11.5 41q18 18 41.5 19.5t47.5 -18.5z" />
    <glyph glyph-name="bracketright" unicode="]" 
d="M101 197q-6 0 -9 -1v-98q2 -1 9 -1q18 0 24.5 12t6.5 38t-6.5 38t-24.5 12zM253 161v-24h-40v-38h47v-24h-76v145h76v-25h-47v-34h40zM99 73q-23 0 -36 2v143q26 4 37 4q33 0 47 -18t14 -57t-14.5 -56.5t-47.5 -17.5zM286 220h39l19 -80l19 80h40q1 -21 3.5 -78.5
t2.5 -66.5h-29q0 53 -3 104l-20 -82h-27l-20 82h-1q-2 -68 -2 -104h-28q2 84 7 145zM482 73q-29 0 -41 17.5t-12 56.5t12 57t41 18t41.5 -18t12.5 -57t-12.5 -56.5t-41.5 -17.5zM482 197q-14 0 -19 -11.5t-5 -38.5q0 -50 24 -50q15 0 20 12t5 38q0 27 -5 38.5t-20 11.5z
M472 496q34 0 48 -20t14 -43q0 -21 -16.5 -35t-35.5 -17q-104 -12 -166 -72q3 8 8.5 20.5t22.5 44.5t34.5 57t42.5 45t48 20zM139 444q26 0 52 -19.5t44 -47t32 -54.5t21 -47l7 -19q-57 72 -156 72q-24 0 -43 15t-19 37q0 26 16.5 44.5t45.5 18.5zM314 593q19 -18 24 -50
t-1.5 -64t-15.5 -62t-17 -49l-9 -18q10 93 -61 161q-17 17 -20.5 40t11.5 41q18 18 41.5 19.5t47.5 -18.5z" />
    <glyph glyph-name="asciicircum" unicode="^" 
d="M101 197q-6 0 -9 -1v-98q2 -1 9 -1q18 0 24.5 12t6.5 38t-6.5 38t-24.5 12zM253 161v-24h-40v-38h47v-24h-76v145h76v-25h-47v-34h40zM99 73q-23 0 -36 2v143q26 4 37 4q33 0 47 -18t14 -57t-14.5 -56.5t-47.5 -17.5zM286 220h39l19 -80l19 80h40q1 -21 3.5 -78.5
t2.5 -66.5h-29q0 53 -3 104l-20 -82h-27l-20 82h-1q-2 -68 -2 -104h-28q2 84 7 145zM482 73q-29 0 -41 17.5t-12 56.5t12 57t41 18t41.5 -18t12.5 -57t-12.5 -56.5t-41.5 -17.5zM482 197q-14 0 -19 -11.5t-5 -38.5q0 -50 24 -50q15 0 20 12t5 38q0 27 -5 38.5t-20 11.5z
M472 496q34 0 48 -20t14 -43q0 -21 -16.5 -35t-35.5 -17q-104 -12 -166 -72q3 8 8.5 20.5t22.5 44.5t34.5 57t42.5 45t48 20zM139 444q26 0 52 -19.5t44 -47t32 -54.5t21 -47l7 -19q-57 72 -156 72q-24 0 -43 15t-19 37q0 26 16.5 44.5t45.5 18.5zM314 593q19 -18 24 -50
t-1.5 -64t-15.5 -62t-17 -49l-9 -18q10 93 -61 161q-17 17 -20.5 40t11.5 41q18 18 41.5 19.5t47.5 -18.5z" />
    <glyph glyph-name="underscore" unicode="_" 
d="M101 197q-6 0 -9 -1v-98q2 -1 9 -1q18 0 24.5 12t6.5 38t-6.5 38t-24.5 12zM253 161v-24h-40v-38h47v-24h-76v145h76v-25h-47v-34h40zM99 73q-23 0 -36 2v143q26 4 37 4q33 0 47 -18t14 -57t-14.5 -56.5t-47.5 -17.5zM286 220h39l19 -80l19 80h40q1 -21 3.5 -78.5
t2.5 -66.5h-29q0 53 -3 104l-20 -82h-27l-20 82h-1q-2 -68 -2 -104h-28q2 84 7 145zM482 73q-29 0 -41 17.5t-12 56.5t12 57t41 18t41.5 -18t12.5 -57t-12.5 -56.5t-41.5 -17.5zM482 197q-14 0 -19 -11.5t-5 -38.5q0 -50 24 -50q15 0 20 12t5 38q0 27 -5 38.5t-20 11.5z
M472 496q34 0 48 -20t14 -43q0 -21 -16.5 -35t-35.5 -17q-104 -12 -166 -72q3 8 8.5 20.5t22.5 44.5t34.5 57t42.5 45t48 20zM139 444q26 0 52 -19.5t44 -47t32 -54.5t21 -47l7 -19q-57 72 -156 72q-24 0 -43 15t-19 37q0 26 16.5 44.5t45.5 18.5zM314 593q19 -18 24 -50
t-1.5 -64t-15.5 -62t-17 -49l-9 -18q10 93 -61 161q-17 17 -20.5 40t11.5 41q18 18 41.5 19.5t47.5 -18.5z" />
    <glyph glyph-name="grave" unicode="`" 
d="M101 197q-6 0 -9 -1v-98q2 -1 9 -1q18 0 24.5 12t6.5 38t-6.5 38t-24.5 12zM253 161v-24h-40v-38h47v-24h-76v145h76v-25h-47v-34h40zM99 73q-23 0 -36 2v143q26 4 37 4q33 0 47 -18t14 -57t-14.5 -56.5t-47.5 -17.5zM286 220h39l19 -80l19 80h40q1 -21 3.5 -78.5
t2.5 -66.5h-29q0 53 -3 104l-20 -82h-27l-20 82h-1q-2 -68 -2 -104h-28q2 84 7 145zM482 73q-29 0 -41 17.5t-12 56.5t12 57t41 18t41.5 -18t12.5 -57t-12.5 -56.5t-41.5 -17.5zM482 197q-14 0 -19 -11.5t-5 -38.5q0 -50 24 -50q15 0 20 12t5 38q0 27 -5 38.5t-20 11.5z
M472 496q34 0 48 -20t14 -43q0 -21 -16.5 -35t-35.5 -17q-104 -12 -166 -72q3 8 8.5 20.5t22.5 44.5t34.5 57t42.5 45t48 20zM139 444q26 0 52 -19.5t44 -47t32 -54.5t21 -47l7 -19q-57 72 -156 72q-24 0 -43 15t-19 37q0 26 16.5 44.5t45.5 18.5zM314 593q19 -18 24 -50
t-1.5 -64t-15.5 -62t-17 -49l-9 -18q10 93 -61 161q-17 17 -20.5 40t11.5 41q18 18 41.5 19.5t47.5 -18.5z" />
    <glyph glyph-name="a" unicode="a" horiz-adv-x="597" 
d="M211 500h169q80 0 120.5 -26.5t44 -71.5t-5.5 -105l-27 -158q-10 -57 1.5 -79t64.5 -22h11l-7 -38h-29q-63 0 -81 24.5t-8 90.5q-29 -56 -83.5 -90.5t-128.5 -34.5q-94 0 -131.5 31.5t-23.5 115.5q13 70 59 101t134 31h199l5 27q8 50 9.5 86.5t-30.5 58t-104 21.5h-165z
M483 231h-198q-69 0 -101 -19.5t-42 -74.5q-12 -69 14 -89t110 -20q76 0 137 47t72 110z" />
    <glyph glyph-name="b" unicode="b" horiz-adv-x="666" 
d="M639 250q-20 -115 -102 -187.5t-192 -72.5q-69 0 -121 35t-68 94l-21 -119h-45l123 700h45l-56 -320q37 59 101.5 94.5t133.5 35.5q110 0 166 -72.5t36 -187.5zM187 299l-17 -100q-13 -73 38 -122t134 -49q89 0 161 62t89 160q18 101 -27 161.5t-145 60.5
q-72 0 -145.5 -50t-86.5 -121z" />
    <glyph glyph-name="c" unicode="c" horiz-adv-x="634" 
d="M162 251q-19 -106 29 -164.5t149 -58.5q76 0 136.5 46t69.5 98h47q-12 -69 -83 -125.5t-177 -56.5q-115 0 -177 70.5t-41 190.5q21 119 108 189t202 70q105 0 156.5 -56.5t39.5 -124.5h-47q9 55 -29.5 99t-126.5 44q-89 0 -163.5 -60t-92.5 -161z" />
    <glyph glyph-name="d" unicode="d" horiz-adv-x="666" 
d="M115 250q20 115 102 187.5t192 72.5q69 0 121 -35.5t68 -93.5l56 319h45l-123 -700h-45l21 119q-37 -58 -101.5 -93.5t-133.5 -35.5q-110 0 -166 72.5t-36 187.5zM334 28q72 0 146 50.5t86 120.5l18 102q13 73 -38 122t-134 49q-89 0 -160.5 -62t-89.5 -160
q-18 -102 27 -162t145 -60z" />
    <glyph glyph-name="e" unicode="e" horiz-adv-x="634" 
d="M606 251l-1 -6h-444q-17 -105 28.5 -162t135.5 -57q76 0 139 43.5t71 88.5h47q-13 -61 -88.5 -114.5t-176.5 -53.5q-103 0 -163 71t-39 189q21 119 106 190t188 71q110 0 163.5 -70.5t33.5 -189.5zM562 273q12 97 -28.5 149.5t-129.5 52.5q-74 0 -144 -54.5t-93 -147.5
h395z" />
    <glyph glyph-name="f" unicode="f" horiz-adv-x="433" 
d="M505 672h-77q-66 0 -100 -31.5t-46 -99.5l-7 -41h201l-7 -38h-201l-81 -462h-45l81 462h-96l7 38h96l8 46q30 164 186 164h88z" />
    <glyph glyph-name="g" unicode="g" horiz-adv-x="666" 
d="M116 -162h182q98 0 160.5 54t79.5 149l14 78q-37 -58 -101.5 -93.5t-133.5 -35.5q-110 0 -166 72.5t-36 187.5t102 187.5t192 72.5q69 0 121 -35.5t68 -93.5l21 119h45l-80 -455q-21 -117 -93 -181t-197 -64h-184zM334 28q72 0 146 50.5t86 120.5l18 102q13 73 -38 122
t-134 49q-89 0 -160.5 -62t-89.5 -160q-18 -102 27 -162t145 -60z" />
    <glyph glyph-name="h" unicode="h" horiz-adv-x="627" 
d="M213 700h45l-57 -324q36 60 97 97t128 37q201 0 165 -204l-54 -306h-45l53 299q15 86 -12 129.5t-127 43.5q-70 0 -138.5 -54t-81.5 -128l-51 -290h-45z" />
    <glyph glyph-name="i" unicode="i" horiz-adv-x="208" 
d="M183 675q3 17 16.5 28.5t31.5 11.5q17 0 26.5 -12t6.5 -28q-3 -17 -16.5 -29t-30.5 -12q-18 0 -27.5 12t-6.5 29zM169 500h45l-88 -500h-45z" />
    <glyph glyph-name="j" unicode="j" horiz-adv-x="208" 
d="M182 675q3 17 17 28.5t31 11.5t26.5 -12t6.5 -28q-3 -17 -16.5 -29t-30.5 -12t-27 12t-7 29zM-131 -162h60q66 0 100.5 32.5t46.5 99.5l93 530h45l-94 -536q-30 -164 -186 -164h-71z" />
    <glyph glyph-name="k" unicode="k" horiz-adv-x="583" 
d="M213 700h45l-74 -421h112l242 221h53l-261 -238l199 -262h-55l-183 241h-114l-42 -241h-45z" />
    <glyph glyph-name="l" unicode="l" horiz-adv-x="248" 
d="M237 38l-7 -38h-31q-66 1 -82.5 28t-3.5 100l100 572h45l-98 -561q-13 -53 -1.5 -77t63.5 -24h15z" />
    <glyph glyph-name="m" unicode="m" horiz-adv-x="987" 
d="M178 500h45l-22 -124q35 60 93.5 97t120.5 37q161 0 161 -145q34 64 94.5 104.5t125.5 40.5q191 0 155 -204l-54 -306h-45l53 300q15 86 -10 129t-119 43q-60 0 -125 -50t-82 -120l-53 -302h-45l53 300q15 86 -10 129t-119 43q-61 0 -126 -51t-81 -122l-53 -299h-45z" />
    <glyph glyph-name="n" unicode="n" horiz-adv-x="627" 
d="M178 500h45l-22 -124q36 60 97 97t128 37q201 0 165 -204l-54 -306h-45l53 299q15 86 -12 129.5t-127 43.5q-70 0 -138.5 -54t-81.5 -128l-51 -290h-45z" />
    <glyph glyph-name="o" unicode="o" horiz-adv-x="665" 
d="M337 28q81 0 158.5 62t94.5 160q18 102 -32 162t-143 60q-81 0 -158 -62t-95 -160q-18 -102 32.5 -162t142.5 -60zM422 510q105 0 170.5 -71.5t44.5 -188.5t-111.5 -188.5t-195.5 -71.5t-170.5 71.5t-44.5 188.5t111.5 188.5t195.5 71.5z" />
    <glyph glyph-name="p" unicode="p" horiz-adv-x="666" 
d="M178 500h45l-21 -120q37 59 101.5 94.5t133.5 35.5q110 0 166 -72.5t36 -187.5t-102 -187.5t-192 -72.5q-69 0 -121 35.5t-68 93.5l-56 -319h-45zM169 194q-10 -71 41 -118.5t132 -47.5q89 0 161 62t89 160q18 101 -27 161.5t-145 60.5q-71 0 -144.5 -50t-87.5 -120z" />
    <glyph glyph-name="q" unicode="q" horiz-adv-x="666" 
d="M664 500l-123 -700h-45l56 319q-37 -58 -101.5 -93.5t-133.5 -35.5q-110 0 -166 72.5t-36 187.5t102 187.5t192 72.5q69 0 121 -35t68 -93l21 118h45zM584 301q13 73 -38 122t-134 49q-89 0 -160.5 -62t-89.5 -160q-18 -102 27 -162t145 -60q72 0 146 50.5t86 120.5z" />
    <glyph glyph-name="r" unicode="r" horiz-adv-x="400" 
d="M178 500h45l-21 -120q34 59 88 94.5t115 35.5h49l-7 -38h-59q-74 0 -131 -53t-72 -136l-50 -283h-45z" />
    <glyph glyph-name="s" unicode="s" horiz-adv-x="582" 
d="M141 155q-9 -55 28 -94t132 -39q76 0 128.5 29.5t60.5 76.5q4 25 -1.5 41.5t-24.5 26t-37.5 14t-53.5 10.5q-20 3 -30 5q-43 8 -70.5 14.5t-54.5 18.5t-40.5 26.5t-19.5 37.5t-1 53q11 65 75.5 100t150.5 35q106 0 150.5 -49.5t32.5 -115.5h-42q10 57 -21.5 95t-126.5 38
q-65 0 -115.5 -25.5t-59.5 -76.5q-8 -50 28 -70t133 -37t124 -30q62 -29 48 -108q-11 -62 -76 -101.5t-164 -39.5q-108 0 -157.5 50t-38.5 115h43z" />
    <glyph glyph-name="t" unicode="t" horiz-adv-x="435" 
d="M134 500h97l21 120h45l-21 -120h202l-7 -38h-202l-51 -292q-12 -67 11 -99.5t89 -32.5h78l-7 -38h-89q-158 0 -128 164l52 298h-97z" />
    <glyph glyph-name="u" unicode="u" horiz-adv-x="650" 
d="M639 38l-7 -38h-31q-65 1 -82 27t-5 97q-36 -60 -97 -97t-128 -37q-201 0 -165 204l54 306h45l-53 -299q-7 -51 -3.5 -89.5t38.5 -61t104 -22.5q70 0 138.5 54t81.5 128l51 290h45l-63 -361q-13 -53 -1.5 -77t63.5 -24h15z" />
    <glyph glyph-name="v" unicode="v" horiz-adv-x="594" 
d="M133 500h43l126 -456l287 456h48l-318 -500h-45l1 1z" />
    <glyph glyph-name="w" unicode="w" horiz-adv-x="756" 
d="M133 500h43l50 -440l215 440h46l60 -440l204 440h48l-238 -500h-45l-60 445l-216 -445h-45z" />
    <glyph glyph-name="x" unicode="x" horiz-adv-x="615" 
d="M45 0l278 261l-165 239h49l149 -217l225 217h55l-254 -243l183 -257h-50l-164 235l-247 -235h-59z" />
    <glyph glyph-name="y" unicode="y" horiz-adv-x="579" 
d="M622 500l-311 -510q-56 -93 -77 -117q-51 -57 -143 -69q-33 -4 -74 -4l7 40q28 0 51 2t42.5 8t33.5 10.5t27.5 16t21.5 18t19.5 23t17 24.5t17.5 29t18 30l-138 499h44l122 -456l273 456h49z" />
    <glyph glyph-name="z" unicode="z" horiz-adv-x="533" 
d="M552 500l-5 -31l-426 -431h374l-7 -38h-434l6 32l426 430h-343l7 38h402z" />
    <glyph glyph-name="braceleft" unicode="{" 
d="M101 197q-6 0 -9 -1v-98q2 -1 9 -1q18 0 24.5 12t6.5 38t-6.5 38t-24.5 12zM253 161v-24h-40v-38h47v-24h-76v145h76v-25h-47v-34h40zM99 73q-23 0 -36 2v143q26 4 37 4q33 0 47 -18t14 -57t-14.5 -56.5t-47.5 -17.5zM286 220h39l19 -80l19 80h40q1 -21 3.5 -78.5
t2.5 -66.5h-29q0 53 -3 104l-20 -82h-27l-20 82h-1q-2 -68 -2 -104h-28q2 84 7 145zM482 73q-29 0 -41 17.5t-12 56.5t12 57t41 18t41.5 -18t12.5 -57t-12.5 -56.5t-41.5 -17.5zM482 197q-14 0 -19 -11.5t-5 -38.5q0 -50 24 -50q15 0 20 12t5 38q0 27 -5 38.5t-20 11.5z
M472 496q34 0 48 -20t14 -43q0 -21 -16.5 -35t-35.5 -17q-104 -12 -166 -72q3 8 8.5 20.5t22.5 44.5t34.5 57t42.5 45t48 20zM139 444q26 0 52 -19.5t44 -47t32 -54.5t21 -47l7 -19q-57 72 -156 72q-24 0 -43 15t-19 37q0 26 16.5 44.5t45.5 18.5zM314 593q19 -18 24 -50
t-1.5 -64t-15.5 -62t-17 -49l-9 -18q10 93 -61 161q-17 17 -20.5 40t11.5 41q18 18 41.5 19.5t47.5 -18.5z" />
    <glyph glyph-name="bar" unicode="|" 
d="M101 197q-6 0 -9 -1v-98q2 -1 9 -1q18 0 24.5 12t6.5 38t-6.5 38t-24.5 12zM253 161v-24h-40v-38h47v-24h-76v145h76v-25h-47v-34h40zM99 73q-23 0 -36 2v143q26 4 37 4q33 0 47 -18t14 -57t-14.5 -56.5t-47.5 -17.5zM286 220h39l19 -80l19 80h40q1 -21 3.5 -78.5
t2.5 -66.5h-29q0 53 -3 104l-20 -82h-27l-20 82h-1q-2 -68 -2 -104h-28q2 84 7 145zM482 73q-29 0 -41 17.5t-12 56.5t12 57t41 18t41.5 -18t12.5 -57t-12.5 -56.5t-41.5 -17.5zM482 197q-14 0 -19 -11.5t-5 -38.5q0 -50 24 -50q15 0 20 12t5 38q0 27 -5 38.5t-20 11.5z
M472 496q34 0 48 -20t14 -43q0 -21 -16.5 -35t-35.5 -17q-104 -12 -166 -72q3 8 8.5 20.5t22.5 44.5t34.5 57t42.5 45t48 20zM139 444q26 0 52 -19.5t44 -47t32 -54.5t21 -47l7 -19q-57 72 -156 72q-24 0 -43 15t-19 37q0 26 16.5 44.5t45.5 18.5zM314 593q19 -18 24 -50
t-1.5 -64t-15.5 -62t-17 -49l-9 -18q10 93 -61 161q-17 17 -20.5 40t11.5 41q18 18 41.5 19.5t47.5 -18.5z" />
    <glyph glyph-name="braceright" unicode="}" 
d="M101 197q-6 0 -9 -1v-98q2 -1 9 -1q18 0 24.5 12t6.5 38t-6.5 38t-24.5 12zM253 161v-24h-40v-38h47v-24h-76v145h76v-25h-47v-34h40zM99 73q-23 0 -36 2v143q26 4 37 4q33 0 47 -18t14 -57t-14.5 -56.5t-47.5 -17.5zM286 220h39l19 -80l19 80h40q1 -21 3.5 -78.5
t2.5 -66.5h-29q0 53 -3 104l-20 -82h-27l-20 82h-1q-2 -68 -2 -104h-28q2 84 7 145zM482 73q-29 0 -41 17.5t-12 56.5t12 57t41 18t41.5 -18t12.5 -57t-12.5 -56.5t-41.5 -17.5zM482 197q-14 0 -19 -11.5t-5 -38.5q0 -50 24 -50q15 0 20 12t5 38q0 27 -5 38.5t-20 11.5z
M472 496q34 0 48 -20t14 -43q0 -21 -16.5 -35t-35.5 -17q-104 -12 -166 -72q3 8 8.5 20.5t22.5 44.5t34.5 57t42.5 45t48 20zM139 444q26 0 52 -19.5t44 -47t32 -54.5t21 -47l7 -19q-57 72 -156 72q-24 0 -43 15t-19 37q0 26 16.5 44.5t45.5 18.5zM314 593q19 -18 24 -50
t-1.5 -64t-15.5 -62t-17 -49l-9 -18q10 93 -61 161q-17 17 -20.5 40t11.5 41q18 18 41.5 19.5t47.5 -18.5z" />
    <glyph glyph-name="asciitilde" unicode="~" 
d="M101 197q-6 0 -9 -1v-98q2 -1 9 -1q18 0 24.5 12t6.5 38t-6.5 38t-24.5 12zM253 161v-24h-40v-38h47v-24h-76v145h76v-25h-47v-34h40zM99 73q-23 0 -36 2v143q26 4 37 4q33 0 47 -18t14 -57t-14.5 -56.5t-47.5 -17.5zM286 220h39l19 -80l19 80h40q1 -21 3.5 -78.5
t2.5 -66.5h-29q0 53 -3 104l-20 -82h-27l-20 82h-1q-2 -68 -2 -104h-28q2 84 7 145zM482 73q-29 0 -41 17.5t-12 56.5t12 57t41 18t41.5 -18t12.5 -57t-12.5 -56.5t-41.5 -17.5zM482 197q-14 0 -19 -11.5t-5 -38.5q0 -50 24 -50q15 0 20 12t5 38q0 27 -5 38.5t-20 11.5z
M472 496q34 0 48 -20t14 -43q0 -21 -16.5 -35t-35.5 -17q-104 -12 -166 -72q3 8 8.5 20.5t22.5 44.5t34.5 57t42.5 45t48 20zM139 444q26 0 52 -19.5t44 -47t32 -54.5t21 -47l7 -19q-57 72 -156 72q-24 0 -43 15t-19 37q0 26 16.5 44.5t45.5 18.5zM314 593q19 -18 24 -50
t-1.5 -64t-15.5 -62t-17 -49l-9 -18q10 93 -61 161q-17 17 -20.5 40t11.5 41q18 18 41.5 19.5t47.5 -18.5z" />
    </font>
</defs>
</svg>
