<?xml version="1.0" standalone="no"?>
<!DOCTYPE svg PUBLIC "-//W3C//DTD SVG 1.1//EN" "http://www.w3.org/Graphics/SVG/1.1/DTD/svg11.dtd" >
<svg xmlns="http://www.w3.org/2000/svg" xmlns:xlink="http://www.w3.org/1999/xlink" version="1.1">
<metadata>
Created by FontForge 20230101 at Wed Dec 30 23:16:22 2020
 By Unknown
Tour de Force Font Foundry &#38; Dusan Jelesijevic
</metadata>
<defs>
<font id="FONTSPRINGDEMO-LupioBoldItalic" horiz-adv-x="598" >
  <font-face 
    font-family="FSP DEMO - Lupio"
    font-weight="700"
    font-style="italic"
    font-stretch="normal"
    units-per-em="1000"
    panose-1="0 0 0 0 0 0 0 0 0 0"
    ascent="800"
    descent="-200"
    x-height="500"
    cap-height="700"
    bbox="-118 -200 1185 740"
    underline-thickness="50"
    underline-position="-125"
    slope="-10"
    unicode-range="U+000D-007E"
  />
<missing-glyph 
d="M101 197q-6 0 -9 -1v-98q2 -1 9 -1q18 0 24.5 12t6.5 38t-6.5 38t-24.5 12zM253 161v-24h-40v-38h47v-24h-76v145h76v-25h-47v-34h40zM99 73q-23 0 -36 2v143q26 4 37 4q33 0 47 -18t14 -57t-14.5 -56.5t-47.5 -17.5zM286 220h39l19 -80l19 80h40q1 -21 3.5 -78.5
t2.5 -66.5h-29q0 53 -3 104l-20 -82h-27l-20 82h-1q-2 -68 -2 -104h-28q2 84 7 145zM482 73q-29 0 -41 17.5t-12 56.5t12 57t41 18t41.5 -18t12.5 -57t-12.5 -56.5t-41.5 -17.5zM482 197q-14 0 -19 -11.5t-5 -38.5q0 -50 24 -50q15 0 20 12t5 38q0 27 -5 38.5t-20 11.5z
M472 496q34 0 48 -20t14 -43q0 -21 -16.5 -35t-35.5 -17q-104 -12 -166 -72q3 8 8.5 20.5t22.5 44.5t34.5 57t42.5 45t48 20zM139 444q26 0 52 -19.5t44 -47t32 -54.5t21 -47l7 -19q-57 72 -156 72q-24 0 -43 15t-19 37q0 26 16.5 44.5t45.5 18.5zM314 593q19 -18 24 -50
t-1.5 -64t-15.5 -62t-17 -49l-9 -18q10 93 -61 161q-17 17 -20.5 40t11.5 41q18 18 41.5 19.5t47.5 -18.5z" />
    <glyph glyph-name=".notdef" 
d="M101 197q-6 0 -9 -1v-98q2 -1 9 -1q18 0 24.5 12t6.5 38t-6.5 38t-24.5 12zM253 161v-24h-40v-38h47v-24h-76v145h76v-25h-47v-34h40zM99 73q-23 0 -36 2v143q26 4 37 4q33 0 47 -18t14 -57t-14.5 -56.5t-47.5 -17.5zM286 220h39l19 -80l19 80h40q1 -21 3.5 -78.5
t2.5 -66.5h-29q0 53 -3 104l-20 -82h-27l-20 82h-1q-2 -68 -2 -104h-28q2 84 7 145zM482 73q-29 0 -41 17.5t-12 56.5t12 57t41 18t41.5 -18t12.5 -57t-12.5 -56.5t-41.5 -17.5zM482 197q-14 0 -19 -11.5t-5 -38.5q0 -50 24 -50q15 0 20 12t5 38q0 27 -5 38.5t-20 11.5z
M472 496q34 0 48 -20t14 -43q0 -21 -16.5 -35t-35.5 -17q-104 -12 -166 -72q3 8 8.5 20.5t22.5 44.5t34.5 57t42.5 45t48 20zM139 444q26 0 52 -19.5t44 -47t32 -54.5t21 -47l7 -19q-57 72 -156 72q-24 0 -43 15t-19 37q0 26 16.5 44.5t45.5 18.5zM314 593q19 -18 24 -50
t-1.5 -64t-15.5 -62t-17 -49l-9 -18q10 93 -61 161q-17 17 -20.5 40t11.5 41q18 18 41.5 19.5t47.5 -18.5z" />
    <glyph glyph-name="uni0000" horiz-adv-x="0" 
 />
    <glyph glyph-name="uni000D" unicode="&#xd;" horiz-adv-x="250" 
 />
    <glyph glyph-name="space" unicode=" " horiz-adv-x="260" 
 />
    <glyph glyph-name="exclam" unicode="!" 
d="M101 197q-6 0 -9 -1v-98q2 -1 9 -1q18 0 24.5 12t6.5 38t-6.5 38t-24.5 12zM253 161v-24h-40v-38h47v-24h-76v145h76v-25h-47v-34h40zM99 73q-23 0 -36 2v143q26 4 37 4q33 0 47 -18t14 -57t-14.5 -56.5t-47.5 -17.5zM286 220h39l19 -80l19 80h40q1 -21 3.5 -78.5
t2.5 -66.5h-29q0 53 -3 104l-20 -82h-27l-20 82h-1q-2 -68 -2 -104h-28q2 84 7 145zM482 73q-29 0 -41 17.5t-12 56.5t12 57t41 18t41.5 -18t12.5 -57t-12.5 -56.5t-41.5 -17.5zM482 197q-14 0 -19 -11.5t-5 -38.5q0 -50 24 -50q15 0 20 12t5 38q0 27 -5 38.5t-20 11.5z
M472 496q34 0 48 -20t14 -43q0 -21 -16.5 -35t-35.5 -17q-104 -12 -166 -72q3 8 8.5 20.5t22.5 44.5t34.5 57t42.5 45t48 20zM139 444q26 0 52 -19.5t44 -47t32 -54.5t21 -47l7 -19q-57 72 -156 72q-24 0 -43 15t-19 37q0 26 16.5 44.5t45.5 18.5zM314 593q19 -18 24 -50
t-1.5 -64t-15.5 -62t-17 -49l-9 -18q10 93 -61 161q-17 17 -20.5 40t11.5 41q18 18 41.5 19.5t47.5 -18.5z" />
    <glyph glyph-name="quotedbl" unicode="&#x22;" 
d="M101 197q-6 0 -9 -1v-98q2 -1 9 -1q18 0 24.5 12t6.5 38t-6.5 38t-24.5 12zM253 161v-24h-40v-38h47v-24h-76v145h76v-25h-47v-34h40zM99 73q-23 0 -36 2v143q26 4 37 4q33 0 47 -18t14 -57t-14.5 -56.5t-47.5 -17.5zM286 220h39l19 -80l19 80h40q1 -21 3.5 -78.5
t2.5 -66.5h-29q0 53 -3 104l-20 -82h-27l-20 82h-1q-2 -68 -2 -104h-28q2 84 7 145zM482 73q-29 0 -41 17.5t-12 56.5t12 57t41 18t41.5 -18t12.5 -57t-12.5 -56.5t-41.5 -17.5zM482 197q-14 0 -19 -11.5t-5 -38.5q0 -50 24 -50q15 0 20 12t5 38q0 27 -5 38.5t-20 11.5z
M472 496q34 0 48 -20t14 -43q0 -21 -16.5 -35t-35.5 -17q-104 -12 -166 -72q3 8 8.5 20.5t22.5 44.5t34.5 57t42.5 45t48 20zM139 444q26 0 52 -19.5t44 -47t32 -54.5t21 -47l7 -19q-57 72 -156 72q-24 0 -43 15t-19 37q0 26 16.5 44.5t45.5 18.5zM314 593q19 -18 24 -50
t-1.5 -64t-15.5 -62t-17 -49l-9 -18q10 93 -61 161q-17 17 -20.5 40t11.5 41q18 18 41.5 19.5t47.5 -18.5z" />
    <glyph glyph-name="numbersign" unicode="#" 
d="M101 197q-6 0 -9 -1v-98q2 -1 9 -1q18 0 24.5 12t6.5 38t-6.5 38t-24.5 12zM253 161v-24h-40v-38h47v-24h-76v145h76v-25h-47v-34h40zM99 73q-23 0 -36 2v143q26 4 37 4q33 0 47 -18t14 -57t-14.5 -56.5t-47.5 -17.5zM286 220h39l19 -80l19 80h40q1 -21 3.5 -78.5
t2.5 -66.5h-29q0 53 -3 104l-20 -82h-27l-20 82h-1q-2 -68 -2 -104h-28q2 84 7 145zM482 73q-29 0 -41 17.5t-12 56.5t12 57t41 18t41.5 -18t12.5 -57t-12.5 -56.5t-41.5 -17.5zM482 197q-14 0 -19 -11.5t-5 -38.5q0 -50 24 -50q15 0 20 12t5 38q0 27 -5 38.5t-20 11.5z
M472 496q34 0 48 -20t14 -43q0 -21 -16.5 -35t-35.5 -17q-104 -12 -166 -72q3 8 8.5 20.5t22.5 44.5t34.5 57t42.5 45t48 20zM139 444q26 0 52 -19.5t44 -47t32 -54.5t21 -47l7 -19q-57 72 -156 72q-24 0 -43 15t-19 37q0 26 16.5 44.5t45.5 18.5zM314 593q19 -18 24 -50
t-1.5 -64t-15.5 -62t-17 -49l-9 -18q10 93 -61 161q-17 17 -20.5 40t11.5 41q18 18 41.5 19.5t47.5 -18.5z" />
    <glyph glyph-name="dollar" unicode="$" 
d="M101 197q-6 0 -9 -1v-98q2 -1 9 -1q18 0 24.5 12t6.5 38t-6.5 38t-24.5 12zM253 161v-24h-40v-38h47v-24h-76v145h76v-25h-47v-34h40zM99 73q-23 0 -36 2v143q26 4 37 4q33 0 47 -18t14 -57t-14.5 -56.5t-47.5 -17.5zM286 220h39l19 -80l19 80h40q1 -21 3.5 -78.5
t2.5 -66.5h-29q0 53 -3 104l-20 -82h-27l-20 82h-1q-2 -68 -2 -104h-28q2 84 7 145zM482 73q-29 0 -41 17.5t-12 56.5t12 57t41 18t41.5 -18t12.5 -57t-12.5 -56.5t-41.5 -17.5zM482 197q-14 0 -19 -11.5t-5 -38.5q0 -50 24 -50q15 0 20 12t5 38q0 27 -5 38.5t-20 11.5z
M472 496q34 0 48 -20t14 -43q0 -21 -16.5 -35t-35.5 -17q-104 -12 -166 -72q3 8 8.5 20.5t22.5 44.5t34.5 57t42.5 45t48 20zM139 444q26 0 52 -19.5t44 -47t32 -54.5t21 -47l7 -19q-57 72 -156 72q-24 0 -43 15t-19 37q0 26 16.5 44.5t45.5 18.5zM314 593q19 -18 24 -50
t-1.5 -64t-15.5 -62t-17 -49l-9 -18q10 93 -61 161q-17 17 -20.5 40t11.5 41q18 18 41.5 19.5t47.5 -18.5z" />
    <glyph glyph-name="percent" unicode="%" 
d="M101 197q-6 0 -9 -1v-98q2 -1 9 -1q18 0 24.5 12t6.5 38t-6.5 38t-24.5 12zM253 161v-24h-40v-38h47v-24h-76v145h76v-25h-47v-34h40zM99 73q-23 0 -36 2v143q26 4 37 4q33 0 47 -18t14 -57t-14.5 -56.5t-47.5 -17.5zM286 220h39l19 -80l19 80h40q1 -21 3.5 -78.5
t2.5 -66.5h-29q0 53 -3 104l-20 -82h-27l-20 82h-1q-2 -68 -2 -104h-28q2 84 7 145zM482 73q-29 0 -41 17.5t-12 56.5t12 57t41 18t41.5 -18t12.5 -57t-12.5 -56.5t-41.5 -17.5zM482 197q-14 0 -19 -11.5t-5 -38.5q0 -50 24 -50q15 0 20 12t5 38q0 27 -5 38.5t-20 11.5z
M472 496q34 0 48 -20t14 -43q0 -21 -16.5 -35t-35.5 -17q-104 -12 -166 -72q3 8 8.5 20.5t22.5 44.5t34.5 57t42.5 45t48 20zM139 444q26 0 52 -19.5t44 -47t32 -54.5t21 -47l7 -19q-57 72 -156 72q-24 0 -43 15t-19 37q0 26 16.5 44.5t45.5 18.5zM314 593q19 -18 24 -50
t-1.5 -64t-15.5 -62t-17 -49l-9 -18q10 93 -61 161q-17 17 -20.5 40t11.5 41q18 18 41.5 19.5t47.5 -18.5z" />
    <glyph glyph-name="ampersand" unicode="&#x26;" 
d="M101 197q-6 0 -9 -1v-98q2 -1 9 -1q18 0 24.5 12t6.5 38t-6.5 38t-24.5 12zM253 161v-24h-40v-38h47v-24h-76v145h76v-25h-47v-34h40zM99 73q-23 0 -36 2v143q26 4 37 4q33 0 47 -18t14 -57t-14.5 -56.5t-47.5 -17.5zM286 220h39l19 -80l19 80h40q1 -21 3.5 -78.5
t2.5 -66.5h-29q0 53 -3 104l-20 -82h-27l-20 82h-1q-2 -68 -2 -104h-28q2 84 7 145zM482 73q-29 0 -41 17.5t-12 56.5t12 57t41 18t41.5 -18t12.5 -57t-12.5 -56.5t-41.5 -17.5zM482 197q-14 0 -19 -11.5t-5 -38.5q0 -50 24 -50q15 0 20 12t5 38q0 27 -5 38.5t-20 11.5z
M472 496q34 0 48 -20t14 -43q0 -21 -16.5 -35t-35.5 -17q-104 -12 -166 -72q3 8 8.5 20.5t22.5 44.5t34.5 57t42.5 45t48 20zM139 444q26 0 52 -19.5t44 -47t32 -54.5t21 -47l7 -19q-57 72 -156 72q-24 0 -43 15t-19 37q0 26 16.5 44.5t45.5 18.5zM314 593q19 -18 24 -50
t-1.5 -64t-15.5 -62t-17 -49l-9 -18q10 93 -61 161q-17 17 -20.5 40t11.5 41q18 18 41.5 19.5t47.5 -18.5z" />
    <glyph glyph-name="quotesingle" unicode="'" 
d="M101 197q-6 0 -9 -1v-98q2 -1 9 -1q18 0 24.5 12t6.5 38t-6.5 38t-24.5 12zM253 161v-24h-40v-38h47v-24h-76v145h76v-25h-47v-34h40zM99 73q-23 0 -36 2v143q26 4 37 4q33 0 47 -18t14 -57t-14.5 -56.5t-47.5 -17.5zM286 220h39l19 -80l19 80h40q1 -21 3.5 -78.5
t2.5 -66.5h-29q0 53 -3 104l-20 -82h-27l-20 82h-1q-2 -68 -2 -104h-28q2 84 7 145zM482 73q-29 0 -41 17.5t-12 56.5t12 57t41 18t41.5 -18t12.5 -57t-12.5 -56.5t-41.5 -17.5zM482 197q-14 0 -19 -11.5t-5 -38.5q0 -50 24 -50q15 0 20 12t5 38q0 27 -5 38.5t-20 11.5z
M472 496q34 0 48 -20t14 -43q0 -21 -16.5 -35t-35.5 -17q-104 -12 -166 -72q3 8 8.5 20.5t22.5 44.5t34.5 57t42.5 45t48 20zM139 444q26 0 52 -19.5t44 -47t32 -54.5t21 -47l7 -19q-57 72 -156 72q-24 0 -43 15t-19 37q0 26 16.5 44.5t45.5 18.5zM314 593q19 -18 24 -50
t-1.5 -64t-15.5 -62t-17 -49l-9 -18q10 93 -61 161q-17 17 -20.5 40t11.5 41q18 18 41.5 19.5t47.5 -18.5z" />
    <glyph glyph-name="parenleft" unicode="(" 
d="M101 197q-6 0 -9 -1v-98q2 -1 9 -1q18 0 24.5 12t6.5 38t-6.5 38t-24.5 12zM253 161v-24h-40v-38h47v-24h-76v145h76v-25h-47v-34h40zM99 73q-23 0 -36 2v143q26 4 37 4q33 0 47 -18t14 -57t-14.5 -56.5t-47.5 -17.5zM286 220h39l19 -80l19 80h40q1 -21 3.5 -78.5
t2.5 -66.5h-29q0 53 -3 104l-20 -82h-27l-20 82h-1q-2 -68 -2 -104h-28q2 84 7 145zM482 73q-29 0 -41 17.5t-12 56.5t12 57t41 18t41.5 -18t12.5 -57t-12.5 -56.5t-41.5 -17.5zM482 197q-14 0 -19 -11.5t-5 -38.5q0 -50 24 -50q15 0 20 12t5 38q0 27 -5 38.5t-20 11.5z
M472 496q34 0 48 -20t14 -43q0 -21 -16.5 -35t-35.5 -17q-104 -12 -166 -72q3 8 8.5 20.5t22.5 44.5t34.5 57t42.5 45t48 20zM139 444q26 0 52 -19.5t44 -47t32 -54.5t21 -47l7 -19q-57 72 -156 72q-24 0 -43 15t-19 37q0 26 16.5 44.5t45.5 18.5zM314 593q19 -18 24 -50
t-1.5 -64t-15.5 -62t-17 -49l-9 -18q10 93 -61 161q-17 17 -20.5 40t11.5 41q18 18 41.5 19.5t47.5 -18.5z" />
    <glyph glyph-name="parenright" unicode=")" 
d="M101 197q-6 0 -9 -1v-98q2 -1 9 -1q18 0 24.5 12t6.5 38t-6.5 38t-24.5 12zM253 161v-24h-40v-38h47v-24h-76v145h76v-25h-47v-34h40zM99 73q-23 0 -36 2v143q26 4 37 4q33 0 47 -18t14 -57t-14.5 -56.5t-47.5 -17.5zM286 220h39l19 -80l19 80h40q1 -21 3.5 -78.5
t2.5 -66.5h-29q0 53 -3 104l-20 -82h-27l-20 82h-1q-2 -68 -2 -104h-28q2 84 7 145zM482 73q-29 0 -41 17.5t-12 56.5t12 57t41 18t41.5 -18t12.5 -57t-12.5 -56.5t-41.5 -17.5zM482 197q-14 0 -19 -11.5t-5 -38.5q0 -50 24 -50q15 0 20 12t5 38q0 27 -5 38.5t-20 11.5z
M472 496q34 0 48 -20t14 -43q0 -21 -16.5 -35t-35.5 -17q-104 -12 -166 -72q3 8 8.5 20.5t22.5 44.5t34.5 57t42.5 45t48 20zM139 444q26 0 52 -19.5t44 -47t32 -54.5t21 -47l7 -19q-57 72 -156 72q-24 0 -43 15t-19 37q0 26 16.5 44.5t45.5 18.5zM314 593q19 -18 24 -50
t-1.5 -64t-15.5 -62t-17 -49l-9 -18q10 93 -61 161q-17 17 -20.5 40t11.5 41q18 18 41.5 19.5t47.5 -18.5z" />
    <glyph glyph-name="asterisk" unicode="*" 
d="M101 197q-6 0 -9 -1v-98q2 -1 9 -1q18 0 24.5 12t6.5 38t-6.5 38t-24.5 12zM253 161v-24h-40v-38h47v-24h-76v145h76v-25h-47v-34h40zM99 73q-23 0 -36 2v143q26 4 37 4q33 0 47 -18t14 -57t-14.5 -56.5t-47.5 -17.5zM286 220h39l19 -80l19 80h40q1 -21 3.5 -78.5
t2.5 -66.5h-29q0 53 -3 104l-20 -82h-27l-20 82h-1q-2 -68 -2 -104h-28q2 84 7 145zM482 73q-29 0 -41 17.5t-12 56.5t12 57t41 18t41.5 -18t12.5 -57t-12.5 -56.5t-41.5 -17.5zM482 197q-14 0 -19 -11.5t-5 -38.5q0 -50 24 -50q15 0 20 12t5 38q0 27 -5 38.5t-20 11.5z
M472 496q34 0 48 -20t14 -43q0 -21 -16.5 -35t-35.5 -17q-104 -12 -166 -72q3 8 8.5 20.5t22.5 44.5t34.5 57t42.5 45t48 20zM139 444q26 0 52 -19.5t44 -47t32 -54.5t21 -47l7 -19q-57 72 -156 72q-24 0 -43 15t-19 37q0 26 16.5 44.5t45.5 18.5zM314 593q19 -18 24 -50
t-1.5 -64t-15.5 -62t-17 -49l-9 -18q10 93 -61 161q-17 17 -20.5 40t11.5 41q18 18 41.5 19.5t47.5 -18.5z" />
    <glyph glyph-name="plus" unicode="+" 
d="M101 197q-6 0 -9 -1v-98q2 -1 9 -1q18 0 24.5 12t6.5 38t-6.5 38t-24.5 12zM253 161v-24h-40v-38h47v-24h-76v145h76v-25h-47v-34h40zM99 73q-23 0 -36 2v143q26 4 37 4q33 0 47 -18t14 -57t-14.5 -56.5t-47.5 -17.5zM286 220h39l19 -80l19 80h40q1 -21 3.5 -78.5
t2.5 -66.5h-29q0 53 -3 104l-20 -82h-27l-20 82h-1q-2 -68 -2 -104h-28q2 84 7 145zM482 73q-29 0 -41 17.5t-12 56.5t12 57t41 18t41.5 -18t12.5 -57t-12.5 -56.5t-41.5 -17.5zM482 197q-14 0 -19 -11.5t-5 -38.5q0 -50 24 -50q15 0 20 12t5 38q0 27 -5 38.5t-20 11.5z
M472 496q34 0 48 -20t14 -43q0 -21 -16.5 -35t-35.5 -17q-104 -12 -166 -72q3 8 8.5 20.5t22.5 44.5t34.5 57t42.5 45t48 20zM139 444q26 0 52 -19.5t44 -47t32 -54.5t21 -47l7 -19q-57 72 -156 72q-24 0 -43 15t-19 37q0 26 16.5 44.5t45.5 18.5zM314 593q19 -18 24 -50
t-1.5 -64t-15.5 -62t-17 -49l-9 -18q10 93 -61 161q-17 17 -20.5 40t11.5 41q18 18 41.5 19.5t47.5 -18.5z" />
    <glyph glyph-name="comma" unicode="," horiz-adv-x="289" 
d="M241 44l-1 -1q0 -1 -1 -1l-1 -2l-129 -182h-86l88 137q-29 10 -42.5 36t-7.5 60q8 41 41.5 69.5t76.5 28.5q41 0 64.5 -29t16.5 -69q-4 -24 -19 -47z" />
    <glyph glyph-name="hyphen" unicode="-" 
d="M101 197q-6 0 -9 -1v-98q2 -1 9 -1q18 0 24.5 12t6.5 38t-6.5 38t-24.5 12zM253 161v-24h-40v-38h47v-24h-76v145h76v-25h-47v-34h40zM99 73q-23 0 -36 2v143q26 4 37 4q33 0 47 -18t14 -57t-14.5 -56.5t-47.5 -17.5zM286 220h39l19 -80l19 80h40q1 -21 3.5 -78.5
t2.5 -66.5h-29q0 53 -3 104l-20 -82h-27l-20 82h-1q-2 -68 -2 -104h-28q2 84 7 145zM482 73q-29 0 -41 17.5t-12 56.5t12 57t41 18t41.5 -18t12.5 -57t-12.5 -56.5t-41.5 -17.5zM482 197q-14 0 -19 -11.5t-5 -38.5q0 -50 24 -50q15 0 20 12t5 38q0 27 -5 38.5t-20 11.5z
M472 496q34 0 48 -20t14 -43q0 -21 -16.5 -35t-35.5 -17q-104 -12 -166 -72q3 8 8.5 20.5t22.5 44.5t34.5 57t42.5 45t48 20zM139 444q26 0 52 -19.5t44 -47t32 -54.5t21 -47l7 -19q-57 72 -156 72q-24 0 -43 15t-19 37q0 26 16.5 44.5t45.5 18.5zM314 593q19 -18 24 -50
t-1.5 -64t-15.5 -62t-17 -49l-9 -18q10 93 -61 161q-17 17 -20.5 40t11.5 41q18 18 41.5 19.5t47.5 -18.5z" />
    <glyph glyph-name="period" unicode="." horiz-adv-x="289" 
d="M61 91q8 41 41.5 69.5t76.5 28.5q41 0 64.5 -29t16.5 -69q-7 -43 -41 -72t-75 -29q-43 0 -67 28.5t-16 72.5z" />
    <glyph glyph-name="slash" unicode="/" 
d="M101 197q-6 0 -9 -1v-98q2 -1 9 -1q18 0 24.5 12t6.5 38t-6.5 38t-24.5 12zM253 161v-24h-40v-38h47v-24h-76v145h76v-25h-47v-34h40zM99 73q-23 0 -36 2v143q26 4 37 4q33 0 47 -18t14 -57t-14.5 -56.5t-47.5 -17.5zM286 220h39l19 -80l19 80h40q1 -21 3.5 -78.5
t2.5 -66.5h-29q0 53 -3 104l-20 -82h-27l-20 82h-1q-2 -68 -2 -104h-28q2 84 7 145zM482 73q-29 0 -41 17.5t-12 56.5t12 57t41 18t41.5 -18t12.5 -57t-12.5 -56.5t-41.5 -17.5zM482 197q-14 0 -19 -11.5t-5 -38.5q0 -50 24 -50q15 0 20 12t5 38q0 27 -5 38.5t-20 11.5z
M472 496q34 0 48 -20t14 -43q0 -21 -16.5 -35t-35.5 -17q-104 -12 -166 -72q3 8 8.5 20.5t22.5 44.5t34.5 57t42.5 45t48 20zM139 444q26 0 52 -19.5t44 -47t32 -54.5t21 -47l7 -19q-57 72 -156 72q-24 0 -43 15t-19 37q0 26 16.5 44.5t45.5 18.5zM314 593q19 -18 24 -50
t-1.5 -64t-15.5 -62t-17 -49l-9 -18q10 93 -61 161q-17 17 -20.5 40t11.5 41q18 18 41.5 19.5t47.5 -18.5z" />
    <glyph glyph-name="zero" unicode="0" horiz-adv-x="739" 
d="M100 350q30 169 135 264.5t260 95.5q156 0 227.5 -95.5t41.5 -264.5t-135 -264.5t-261 -95.5q-155 0 -226.5 95.5t-41.5 264.5zM471 570q-73 0 -126 -58t-71 -162q-19 -109 8 -164.5t111 -55.5q73 0 125.5 58t71.5 162q19 110 -8 165t-111 55z" />
    <glyph glyph-name="one" unicode="1" horiz-adv-x="475" 
d="M426 700h122l-123 -700h-172l92 523l-191 -81l-33 128z" />
    <glyph glyph-name="two" unicode="2" horiz-adv-x="644" 
d="M86 140l298 222q57 43 78.5 70t27.5 60q8 44 -14 61.5t-67 17.5q-50 0 -81.5 -37t-41.5 -95h-174q9 50 30 95t57 86.5t96 66t137 24.5q53 0 96.5 -11.5t79 -36.5t50.5 -70.5t4 -108.5q-20 -119 -223 -256l-129 -88h325l-25 -140h-549z" />
    <glyph glyph-name="three" unicode="3" horiz-adv-x="634" 
d="M287 286l23 130h77q34 0 56 20t29 57q7 40 -9 59t-58 19q-85 0 -104 -104h-174q19 106 96 175t206 69q111 0 174.5 -52t47.5 -145q-19 -106 -117 -157q120 -43 99 -162q-16 -94 -103 -149t-207 -55q-139 0 -202 70.5t-46 165.5h174q-8 -44 15 -70t89 -26q41 0 72 24.5
t38 62.5q6 34 -15 51t-61 17h-100z" />
    <glyph glyph-name="four" unicode="4" 
d="M101 197q-6 0 -9 -1v-98q2 -1 9 -1q18 0 24.5 12t6.5 38t-6.5 38t-24.5 12zM253 161v-24h-40v-38h47v-24h-76v145h76v-25h-47v-34h40zM99 73q-23 0 -36 2v143q26 4 37 4q33 0 47 -18t14 -57t-14.5 -56.5t-47.5 -17.5zM286 220h39l19 -80l19 80h40q1 -21 3.5 -78.5
t2.5 -66.5h-29q0 53 -3 104l-20 -82h-27l-20 82h-1q-2 -68 -2 -104h-28q2 84 7 145zM482 73q-29 0 -41 17.5t-12 56.5t12 57t41 18t41.5 -18t12.5 -57t-12.5 -56.5t-41.5 -17.5zM482 197q-14 0 -19 -11.5t-5 -38.5q0 -50 24 -50q15 0 20 12t5 38q0 27 -5 38.5t-20 11.5z
M472 496q34 0 48 -20t14 -43q0 -21 -16.5 -35t-35.5 -17q-104 -12 -166 -72q3 8 8.5 20.5t22.5 44.5t34.5 57t42.5 45t48 20zM139 444q26 0 52 -19.5t44 -47t32 -54.5t21 -47l7 -19q-57 72 -156 72q-24 0 -43 15t-19 37q0 26 16.5 44.5t45.5 18.5zM314 593q19 -18 24 -50
t-1.5 -64t-15.5 -62t-17 -49l-9 -18q10 93 -61 161q-17 17 -20.5 40t11.5 41q18 18 41.5 19.5t47.5 -18.5z" />
    <glyph glyph-name="five" unicode="5" horiz-adv-x="621" 
d="M115 287l122 413h428l-24 -140h-273l-39 -131q50 22 105 22q86 0 148 -60.5t44 -164.5q-18 -106 -105.5 -171t-204.5 -65q-119 0 -189.5 63.5t-52.5 170.5h174q-7 -43 14.5 -68t71.5 -25q39 0 74.5 25t42.5 64q8 43 -12.5 68t-66.5 25q-53 0 -85 -26h-172z" />
    <glyph glyph-name="six" unicode="6" horiz-adv-x="641" 
d="M445 701h211l-208 -230q101 -12 158 -77t39 -162q-19 -107 -113.5 -174.5t-212.5 -67.5q-122 0 -190.5 67t-49.5 175q13 76 71 137zM344 131q39 0 79 29t48 72q8 46 -16 74t-75 28q-39 0 -79 -29.5t-48 -72.5q-8 -45 16.5 -73t74.5 -28z" />
    <glyph glyph-name="seven" unicode="7" horiz-adv-x="537" 
d="M640 700l-24 -136l-353 -564h-189l357 560h-312l24 140h497z" />
    <glyph glyph-name="eight" unicode="8" horiz-adv-x="647" 
d="M449 711q118 0 183 -52.5t49 -142.5q-9 -49 -42 -88.5t-83 -65.5q108 -58 88 -167q-17 -96 -109 -150.5t-213 -54.5q-78 0 -138 23t-91.5 70.5t-20.5 111.5q20 108 148 167q-88 55 -71 154q16 90 99.5 142.5t200.5 52.5zM398 420q42 0 70.5 22.5t34.5 56.5q14 77 -77 77
q-36 0 -67.5 -22.5t-37.5 -54.5q-6 -34 14.5 -56.5t62.5 -22.5zM346 125q45 0 82 24.5t44 62.5q7 40 -18.5 63.5t-76.5 23.5t-85.5 -23.5t-41.5 -63.5q-7 -41 16.5 -64t79.5 -23z" />
    <glyph glyph-name="nine" unicode="9" horiz-adv-x="641" 
d="M321 0h-211l208 230q-101 12 -158 77t-39 162q19 108 113 175t212 67q122 0 191 -67t50 -175q-13 -76 -71 -137zM422 570q-40 0 -80 -29t-47 -72q-8 -46 16 -74t75 -28q39 0 79 29.5t48 72.5q8 46 -16.5 73.5t-74.5 27.5z" />
    <glyph glyph-name="colon" unicode=":" horiz-adv-x="289" 
d="M118 412q7 41 41 69.5t77 28.5q40 0 64 -28.5t17 -69.5q-8 -43 -41.5 -72t-74.5 -29q-44 0 -67.5 29t-15.5 72zM61 91q8 41 41.5 69.5t76.5 28.5q41 0 64.5 -29t16.5 -69q-7 -43 -41 -72t-75 -29q-43 0 -67 28.5t-16 72.5z" />
    <glyph glyph-name="semicolon" unicode=";" horiz-adv-x="289" 
d="M118 412q7 41 41 69.5t77 28.5q40 0 64 -28.5t17 -69.5q-8 -43 -41.5 -72t-74.5 -29q-44 0 -67.5 29t-15.5 72zM241 44l-1 -1q0 -1 -1 -1l-1 -2l-129 -182h-86l88 137q-29 10 -42.5 36t-7.5 60q8 41 41.5 69.5t76.5 28.5q41 0 64.5 -29t16.5 -69q-4 -24 -19 -47z" />
    <glyph glyph-name="less" unicode="&#x3c;" 
d="M101 197q-6 0 -9 -1v-98q2 -1 9 -1q18 0 24.5 12t6.5 38t-6.5 38t-24.5 12zM253 161v-24h-40v-38h47v-24h-76v145h76v-25h-47v-34h40zM99 73q-23 0 -36 2v143q26 4 37 4q33 0 47 -18t14 -57t-14.5 -56.5t-47.5 -17.5zM286 220h39l19 -80l19 80h40q1 -21 3.5 -78.5
t2.5 -66.5h-29q0 53 -3 104l-20 -82h-27l-20 82h-1q-2 -68 -2 -104h-28q2 84 7 145zM482 73q-29 0 -41 17.5t-12 56.5t12 57t41 18t41.5 -18t12.5 -57t-12.5 -56.5t-41.5 -17.5zM482 197q-14 0 -19 -11.5t-5 -38.5q0 -50 24 -50q15 0 20 12t5 38q0 27 -5 38.5t-20 11.5z
M472 496q34 0 48 -20t14 -43q0 -21 -16.5 -35t-35.5 -17q-104 -12 -166 -72q3 8 8.5 20.5t22.5 44.5t34.5 57t42.5 45t48 20zM139 444q26 0 52 -19.5t44 -47t32 -54.5t21 -47l7 -19q-57 72 -156 72q-24 0 -43 15t-19 37q0 26 16.5 44.5t45.5 18.5zM314 593q19 -18 24 -50
t-1.5 -64t-15.5 -62t-17 -49l-9 -18q10 93 -61 161q-17 17 -20.5 40t11.5 41q18 18 41.5 19.5t47.5 -18.5z" />
    <glyph glyph-name="equal" unicode="=" 
d="M101 197q-6 0 -9 -1v-98q2 -1 9 -1q18 0 24.5 12t6.5 38t-6.5 38t-24.5 12zM253 161v-24h-40v-38h47v-24h-76v145h76v-25h-47v-34h40zM99 73q-23 0 -36 2v143q26 4 37 4q33 0 47 -18t14 -57t-14.5 -56.5t-47.5 -17.5zM286 220h39l19 -80l19 80h40q1 -21 3.5 -78.5
t2.5 -66.5h-29q0 53 -3 104l-20 -82h-27l-20 82h-1q-2 -68 -2 -104h-28q2 84 7 145zM482 73q-29 0 -41 17.5t-12 56.5t12 57t41 18t41.5 -18t12.5 -57t-12.5 -56.5t-41.5 -17.5zM482 197q-14 0 -19 -11.5t-5 -38.5q0 -50 24 -50q15 0 20 12t5 38q0 27 -5 38.5t-20 11.5z
M472 496q34 0 48 -20t14 -43q0 -21 -16.5 -35t-35.5 -17q-104 -12 -166 -72q3 8 8.5 20.5t22.5 44.5t34.5 57t42.5 45t48 20zM139 444q26 0 52 -19.5t44 -47t32 -54.5t21 -47l7 -19q-57 72 -156 72q-24 0 -43 15t-19 37q0 26 16.5 44.5t45.5 18.5zM314 593q19 -18 24 -50
t-1.5 -64t-15.5 -62t-17 -49l-9 -18q10 93 -61 161q-17 17 -20.5 40t11.5 41q18 18 41.5 19.5t47.5 -18.5z" />
    <glyph glyph-name="greater" unicode="&#x3e;" 
d="M101 197q-6 0 -9 -1v-98q2 -1 9 -1q18 0 24.5 12t6.5 38t-6.5 38t-24.5 12zM253 161v-24h-40v-38h47v-24h-76v145h76v-25h-47v-34h40zM99 73q-23 0 -36 2v143q26 4 37 4q33 0 47 -18t14 -57t-14.5 -56.5t-47.5 -17.5zM286 220h39l19 -80l19 80h40q1 -21 3.5 -78.5
t2.5 -66.5h-29q0 53 -3 104l-20 -82h-27l-20 82h-1q-2 -68 -2 -104h-28q2 84 7 145zM482 73q-29 0 -41 17.5t-12 56.5t12 57t41 18t41.5 -18t12.5 -57t-12.5 -56.5t-41.5 -17.5zM482 197q-14 0 -19 -11.5t-5 -38.5q0 -50 24 -50q15 0 20 12t5 38q0 27 -5 38.5t-20 11.5z
M472 496q34 0 48 -20t14 -43q0 -21 -16.5 -35t-35.5 -17q-104 -12 -166 -72q3 8 8.5 20.5t22.5 44.5t34.5 57t42.5 45t48 20zM139 444q26 0 52 -19.5t44 -47t32 -54.5t21 -47l7 -19q-57 72 -156 72q-24 0 -43 15t-19 37q0 26 16.5 44.5t45.5 18.5zM314 593q19 -18 24 -50
t-1.5 -64t-15.5 -62t-17 -49l-9 -18q10 93 -61 161q-17 17 -20.5 40t11.5 41q18 18 41.5 19.5t47.5 -18.5z" />
    <glyph glyph-name="question" unicode="?" horiz-adv-x="619" 
d="M259 233l4 20q15 82 38.5 113.5t91.5 65.5q3 2 19.5 10t21 10.5t17 10t17.5 12.5t12.5 13t11 17t5.5 19q5 29 -13 40t-66 11q-50 0 -81.5 -28t-38.5 -70h-174q9 50 28 89t55 73t97 52.5t144 18.5q56 0 99 -9t75.5 -29t45.5 -56t4 -86q-11 -63 -42 -105.5t-97 -76.5
q-53 -28 -73.5 -47.5t-26.5 -55.5l-2 -12h-172zM225 85q7 39 39 66t72 27t62 -27t15 -66q-8 -41 -39 -68t-71 -27t-62.5 27.5t-15.5 67.5z" />
    <glyph glyph-name="at" unicode="@" 
d="M101 197q-6 0 -9 -1v-98q2 -1 9 -1q18 0 24.5 12t6.5 38t-6.5 38t-24.5 12zM253 161v-24h-40v-38h47v-24h-76v145h76v-25h-47v-34h40zM99 73q-23 0 -36 2v143q26 4 37 4q33 0 47 -18t14 -57t-14.5 -56.5t-47.5 -17.5zM286 220h39l19 -80l19 80h40q1 -21 3.5 -78.5
t2.5 -66.5h-29q0 53 -3 104l-20 -82h-27l-20 82h-1q-2 -68 -2 -104h-28q2 84 7 145zM482 73q-29 0 -41 17.5t-12 56.5t12 57t41 18t41.5 -18t12.5 -57t-12.5 -56.5t-41.5 -17.5zM482 197q-14 0 -19 -11.5t-5 -38.5q0 -50 24 -50q15 0 20 12t5 38q0 27 -5 38.5t-20 11.5z
M472 496q34 0 48 -20t14 -43q0 -21 -16.5 -35t-35.5 -17q-104 -12 -166 -72q3 8 8.5 20.5t22.5 44.5t34.5 57t42.5 45t48 20zM139 444q26 0 52 -19.5t44 -47t32 -54.5t21 -47l7 -19q-57 72 -156 72q-24 0 -43 15t-19 37q0 26 16.5 44.5t45.5 18.5zM314 593q19 -18 24 -50
t-1.5 -64t-15.5 -62t-17 -49l-9 -18q10 93 -61 161q-17 17 -20.5 40t11.5 41q18 18 41.5 19.5t47.5 -18.5z" />
    <glyph glyph-name="A" unicode="A" horiz-adv-x="822" 
d="M448 700h172l182 -700h-172l-27 129h-318l-73 -129h-192zM364 269h208l-56 268z" />
    <glyph glyph-name="B" unicode="B" horiz-adv-x="703" 
d="M50 0l123 700h331q33 0 61.5 -3.5t61.5 -15t54.5 -31t32.5 -56t2 -84.5q-17 -97 -112 -145q119 -42 98 -162q-11 -60 -42.5 -102.5t-75 -63t-83.5 -29t-80 -8.5h-371zM297 424h144q86 0 98 68q7 42 -12.5 55t-61.5 13h-145zM247 140h176q93 0 107 74q7 43 -17 58t-64 15
h-177z" />
    <glyph glyph-name="C" unicode="C" horiz-adv-x="792" 
d="M275 350q-20 -114 26.5 -167t133.5 -53q67 0 126.5 45.5t69.5 103.5h174q-9 -50 -40 -100t-79.5 -92.5t-121 -69.5t-154.5 -27q-160 0 -249 98.5t-60 261.5t152.5 261.5t283.5 98.5q82 0 145 -27t96.5 -69.5t47 -92.5t4.5 -100h-174q11 61 -27 105t-117 44
q-34 0 -69.5 -12t-70 -36.5t-61 -69t-36.5 -102.5z" />
    <glyph glyph-name="D" unicode="D" horiz-adv-x="776" 
d="M476 700q168 0 260.5 -93t63.5 -257t-154 -257t-293 -93h-303l123 700h303zM247 140h131q94 0 162 54t86 156q37 210 -174 210h-131z" />
    <glyph glyph-name="E" unicode="E" horiz-adv-x="606" 
d="M174 700h523l-24 -140h-351l-24 -135h321l-25 -140h-321l-25 -145h351l-25 -140h-523z" />
    <glyph glyph-name="F" unicode="F" horiz-adv-x="583" 
d="M171 700h508l-24 -140h-337l-26 -149h306l-24 -140h-306l-48 -270h-172z" />
    <glyph glyph-name="G" unicode="G" horiz-adv-x="802" 
d="M274 352q-38 -219 185 -219q74 0 131 32t81 96h-227l23 128h367l-69 -389h-137l14 78q-94 -86 -230 -86q-154 0 -247 99t-65 261q19 107 87.5 190t161.5 125.5t194 42.5q142 0 225.5 -80t67.5 -172h-172q9 48 -30.5 80t-118.5 32q-88 0 -155 -56t-86 -162z" />
    <glyph glyph-name="H" unicode="H" horiz-adv-x="823" 
d="M173 700h172l-48 -272h379l48 272h172l-123 -700h-172l51 288h-379l-51 -288h-172z" />
    <glyph glyph-name="I" unicode="I" horiz-adv-x="272" 
d="M173 700h172l-123 -700h-172z" />
    <glyph glyph-name="J" unicode="J" horiz-adv-x="654" 
d="M555 700h172l-75 -430q-22 -124 -106.5 -202t-224.5 -78q-143 0 -199 78.5t-33 211.5h174q-6 -42 -5.5 -75.5t22.5 -54t67 -20.5q49 0 86 41.5t47 98.5z" />
    <glyph glyph-name="K" unicode="K" horiz-adv-x="749" 
d="M173 700h172l-52 -300h74l246 300h206l-311 -362l221 -338h-216l-159 261h-86l-46 -261h-172z" />
    <glyph glyph-name="L" unicode="L" horiz-adv-x="611" 
d="M173 700h172l-98 -560h356l-25 -140h-528z" />
    <glyph glyph-name="M" unicode="M" horiz-adv-x="921" 
d="M173 700h172l148 -513l329 513h172l-123 -700h-172l63 358l-221 -358h-151l-101 383l-67 -383h-172z" />
    <glyph glyph-name="N" unicode="N" horiz-adv-x="816" 
d="M173 700h172l291 -463l81 463h172l-123 -700h-172l-293 450l-79 -450h-172z" />
    <glyph glyph-name="O" unicode="O" horiz-adv-x="844" 
d="M101 350q29 164 157.5 262t289.5 98q162 0 256.5 -98t65.5 -262t-158 -262t-291 -98q-161 0 -255 98t-65 262zM523 570q-86 0 -158.5 -61.5t-89.5 -158.5q-18 -100 28 -160t143 -60q86 0 159 62t91 158q17 100 -29 160t-144 60z" />
    <glyph glyph-name="P" unicode="P" horiz-adv-x="681" 
d="M507 701q28 0 57 -4.5t65 -20t61 -40.5t37.5 -69.5t2.5 -103.5q-11 -59 -39 -103.5t-62 -69.5t-75.5 -40.5t-72 -20t-58.5 -4.5h-161l-40 -225h-172l124 701h333zM287 365h145q40 0 77.5 23.5t46.5 74.5q9 52 -17 75t-72 23h-146z" />
    <glyph glyph-name="Q" unicode="Q" horiz-adv-x="844" 
d="M607 -200l-130 193q-29 -3 -57 -3q-161 0 -255 98t-65 262t157.5 262t289.5 98q162 0 256.5 -98t65.5 -262q-18 -102 -77 -180t-146 -124l173 -246h-212zM523 570q-86 0 -159 -61.5t-90 -158.5q-18 -100 28 -160t143 -60q86 0 159 62t91 158q17 101 -28.5 160.5
t-143.5 59.5z" />
    <glyph glyph-name="R" unicode="R" horiz-adv-x="740" 
d="M530 701q31 0 62.5 -5.5t66 -20.5t58.5 -39t35.5 -65.5t2.5 -94.5q-16 -88 -71 -142.5t-129 -79.5l145 -254h-192l-131 235h-114l-41 -235h-172l124 701h356zM288 375h169q42 0 78.5 24.5t44.5 68.5q7 45 -18 69t-72 24h-169z" />
    <glyph glyph-name="S" unicode="S" horiz-adv-x="732" 
d="M250 234q-8 -48 26 -75.5t116 -27.5q66 0 112.5 15t52.5 47q6 30 -30 44t-137 33q-25 4 -39 7q-122 23 -168.5 78t-30.5 144q17 98 113 155t221 57q160 0 226.5 -67.5t49.5 -169.5h-174q8 48 -20 72t-107 24q-49 0 -88.5 -15.5t-44.5 -42.5q-6 -36 22.5 -49.5
t146.5 -35.5q50 -9 83.5 -18t69.5 -25t55 -37t28.5 -54.5t1.5 -76.5q-18 -102 -110.5 -164t-249.5 -62q-170 0 -243 71t-56 173h174z" />
    <glyph glyph-name="T" unicode="T" horiz-adv-x="679" 
d="M151 700h624l-24 -140h-226l-99 -560h-172l99 560h-226z" />
    <glyph glyph-name="U" unicode="U" horiz-adv-x="749" 
d="M650 700h172l-72 -410q-52 -300 -378 -300q-163 0 -230.5 73.5t-40.5 226.5l72 410h172l-72 -410q-15 -86 12 -123t112 -37q152 0 181 160z" />
    <glyph glyph-name="V" unicode="V" horiz-adv-x="837" 
d="M333 0l-182 700h182l113 -519l295 519h192l-428 -700h-172z" />
    <glyph glyph-name="W" unicode="W" horiz-adv-x="1090" 
d="M243 0l-92 700h172l48 -483l215 483h157l43 -477l215 477h184l-345 -700h-175l-42 438l-196 -438h-184z" />
    <glyph glyph-name="X" unicode="X" horiz-adv-x="863" 
d="M28 0l364 364l-205 336h209l120 -222l190 222h219l-310 -336l221 -364h-209l-131 246l-228 -246h-240z" />
    <glyph glyph-name="Y" unicode="Y" horiz-adv-x="812" 
d="M357 210l-206 490h188l123 -325l237 325h209l-379 -490l-37 -210h-172z" />
    <glyph glyph-name="Z" unicode="Z" horiz-adv-x="636" 
d="M705 700l-24 -136l-406 -424h358l-25 -140h-580l24 136l407 424h-324l24 140h546z" />
    <glyph glyph-name="bracketleft" unicode="[" 
d="M101 197q-6 0 -9 -1v-98q2 -1 9 -1q18 0 24.5 12t6.5 38t-6.5 38t-24.5 12zM253 161v-24h-40v-38h47v-24h-76v145h76v-25h-47v-34h40zM99 73q-23 0 -36 2v143q26 4 37 4q33 0 47 -18t14 -57t-14.5 -56.5t-47.5 -17.5zM286 220h39l19 -80l19 80h40q1 -21 3.5 -78.5
t2.5 -66.5h-29q0 53 -3 104l-20 -82h-27l-20 82h-1q-2 -68 -2 -104h-28q2 84 7 145zM482 73q-29 0 -41 17.5t-12 56.5t12 57t41 18t41.5 -18t12.5 -57t-12.5 -56.5t-41.5 -17.5zM482 197q-14 0 -19 -11.5t-5 -38.5q0 -50 24 -50q15 0 20 12t5 38q0 27 -5 38.5t-20 11.5z
M472 496q34 0 48 -20t14 -43q0 -21 -16.5 -35t-35.5 -17q-104 -12 -166 -72q3 8 8.5 20.5t22.5 44.5t34.5 57t42.5 45t48 20zM139 444q26 0 52 -19.5t44 -47t32 -54.5t21 -47l7 -19q-57 72 -156 72q-24 0 -43 15t-19 37q0 26 16.5 44.5t45.5 18.5zM314 593q19 -18 24 -50
t-1.5 -64t-15.5 -62t-17 -49l-9 -18q10 93 -61 161q-17 17 -20.5 40t11.5 41q18 18 41.5 19.5t47.5 -18.5z" />
    <glyph glyph-name="backslash" unicode="\" 
d="M101 197q-6 0 -9 -1v-98q2 -1 9 -1q18 0 24.5 12t6.5 38t-6.5 38t-24.5 12zM253 161v-24h-40v-38h47v-24h-76v145h76v-25h-47v-34h40zM99 73q-23 0 -36 2v143q26 4 37 4q33 0 47 -18t14 -57t-14.5 -56.5t-47.5 -17.5zM286 220h39l19 -80l19 80h40q1 -21 3.5 -78.5
t2.5 -66.5h-29q0 53 -3 104l-20 -82h-27l-20 82h-1q-2 -68 -2 -104h-28q2 84 7 145zM482 73q-29 0 -41 17.5t-12 56.5t12 57t41 18t41.5 -18t12.5 -57t-12.5 -56.5t-41.5 -17.5zM482 197q-14 0 -19 -11.5t-5 -38.5q0 -50 24 -50q15 0 20 12t5 38q0 27 -5 38.5t-20 11.5z
M472 496q34 0 48 -20t14 -43q0 -21 -16.5 -35t-35.5 -17q-104 -12 -166 -72q3 8 8.5 20.5t22.5 44.5t34.5 57t42.5 45t48 20zM139 444q26 0 52 -19.5t44 -47t32 -54.5t21 -47l7 -19q-57 72 -156 72q-24 0 -43 15t-19 37q0 26 16.5 44.5t45.5 18.5zM314 593q19 -18 24 -50
t-1.5 -64t-15.5 -62t-17 -49l-9 -18q10 93 -61 161q-17 17 -20.5 40t11.5 41q18 18 41.5 19.5t47.5 -18.5z" />
    <glyph glyph-name="bracketright" unicode="]" 
d="M101 197q-6 0 -9 -1v-98q2 -1 9 -1q18 0 24.5 12t6.5 38t-6.5 38t-24.5 12zM253 161v-24h-40v-38h47v-24h-76v145h76v-25h-47v-34h40zM99 73q-23 0 -36 2v143q26 4 37 4q33 0 47 -18t14 -57t-14.5 -56.5t-47.5 -17.5zM286 220h39l19 -80l19 80h40q1 -21 3.5 -78.5
t2.5 -66.5h-29q0 53 -3 104l-20 -82h-27l-20 82h-1q-2 -68 -2 -104h-28q2 84 7 145zM482 73q-29 0 -41 17.5t-12 56.5t12 57t41 18t41.5 -18t12.5 -57t-12.5 -56.5t-41.5 -17.5zM482 197q-14 0 -19 -11.5t-5 -38.5q0 -50 24 -50q15 0 20 12t5 38q0 27 -5 38.5t-20 11.5z
M472 496q34 0 48 -20t14 -43q0 -21 -16.5 -35t-35.5 -17q-104 -12 -166 -72q3 8 8.5 20.5t22.5 44.5t34.5 57t42.5 45t48 20zM139 444q26 0 52 -19.5t44 -47t32 -54.5t21 -47l7 -19q-57 72 -156 72q-24 0 -43 15t-19 37q0 26 16.5 44.5t45.5 18.5zM314 593q19 -18 24 -50
t-1.5 -64t-15.5 -62t-17 -49l-9 -18q10 93 -61 161q-17 17 -20.5 40t11.5 41q18 18 41.5 19.5t47.5 -18.5z" />
    <glyph glyph-name="asciicircum" unicode="^" 
d="M101 197q-6 0 -9 -1v-98q2 -1 9 -1q18 0 24.5 12t6.5 38t-6.5 38t-24.5 12zM253 161v-24h-40v-38h47v-24h-76v145h76v-25h-47v-34h40zM99 73q-23 0 -36 2v143q26 4 37 4q33 0 47 -18t14 -57t-14.5 -56.5t-47.5 -17.5zM286 220h39l19 -80l19 80h40q1 -21 3.5 -78.5
t2.5 -66.5h-29q0 53 -3 104l-20 -82h-27l-20 82h-1q-2 -68 -2 -104h-28q2 84 7 145zM482 73q-29 0 -41 17.5t-12 56.5t12 57t41 18t41.5 -18t12.5 -57t-12.5 -56.5t-41.5 -17.5zM482 197q-14 0 -19 -11.5t-5 -38.5q0 -50 24 -50q15 0 20 12t5 38q0 27 -5 38.5t-20 11.5z
M472 496q34 0 48 -20t14 -43q0 -21 -16.5 -35t-35.5 -17q-104 -12 -166 -72q3 8 8.5 20.5t22.5 44.5t34.5 57t42.5 45t48 20zM139 444q26 0 52 -19.5t44 -47t32 -54.5t21 -47l7 -19q-57 72 -156 72q-24 0 -43 15t-19 37q0 26 16.5 44.5t45.5 18.5zM314 593q19 -18 24 -50
t-1.5 -64t-15.5 -62t-17 -49l-9 -18q10 93 -61 161q-17 17 -20.5 40t11.5 41q18 18 41.5 19.5t47.5 -18.5z" />
    <glyph glyph-name="underscore" unicode="_" 
d="M101 197q-6 0 -9 -1v-98q2 -1 9 -1q18 0 24.5 12t6.5 38t-6.5 38t-24.5 12zM253 161v-24h-40v-38h47v-24h-76v145h76v-25h-47v-34h40zM99 73q-23 0 -36 2v143q26 4 37 4q33 0 47 -18t14 -57t-14.5 -56.5t-47.5 -17.5zM286 220h39l19 -80l19 80h40q1 -21 3.5 -78.5
t2.5 -66.5h-29q0 53 -3 104l-20 -82h-27l-20 82h-1q-2 -68 -2 -104h-28q2 84 7 145zM482 73q-29 0 -41 17.5t-12 56.5t12 57t41 18t41.5 -18t12.5 -57t-12.5 -56.5t-41.5 -17.5zM482 197q-14 0 -19 -11.5t-5 -38.5q0 -50 24 -50q15 0 20 12t5 38q0 27 -5 38.5t-20 11.5z
M472 496q34 0 48 -20t14 -43q0 -21 -16.5 -35t-35.5 -17q-104 -12 -166 -72q3 8 8.5 20.5t22.5 44.5t34.5 57t42.5 45t48 20zM139 444q26 0 52 -19.5t44 -47t32 -54.5t21 -47l7 -19q-57 72 -156 72q-24 0 -43 15t-19 37q0 26 16.5 44.5t45.5 18.5zM314 593q19 -18 24 -50
t-1.5 -64t-15.5 -62t-17 -49l-9 -18q10 93 -61 161q-17 17 -20.5 40t11.5 41q18 18 41.5 19.5t47.5 -18.5z" />
    <glyph glyph-name="grave" unicode="`" 
d="M101 197q-6 0 -9 -1v-98q2 -1 9 -1q18 0 24.5 12t6.5 38t-6.5 38t-24.5 12zM253 161v-24h-40v-38h47v-24h-76v145h76v-25h-47v-34h40zM99 73q-23 0 -36 2v143q26 4 37 4q33 0 47 -18t14 -57t-14.5 -56.5t-47.5 -17.5zM286 220h39l19 -80l19 80h40q1 -21 3.5 -78.5
t2.5 -66.5h-29q0 53 -3 104l-20 -82h-27l-20 82h-1q-2 -68 -2 -104h-28q2 84 7 145zM482 73q-29 0 -41 17.5t-12 56.5t12 57t41 18t41.5 -18t12.5 -57t-12.5 -56.5t-41.5 -17.5zM482 197q-14 0 -19 -11.5t-5 -38.5q0 -50 24 -50q15 0 20 12t5 38q0 27 -5 38.5t-20 11.5z
M472 496q34 0 48 -20t14 -43q0 -21 -16.5 -35t-35.5 -17q-104 -12 -166 -72q3 8 8.5 20.5t22.5 44.5t34.5 57t42.5 45t48 20zM139 444q26 0 52 -19.5t44 -47t32 -54.5t21 -47l7 -19q-57 72 -156 72q-24 0 -43 15t-19 37q0 26 16.5 44.5t45.5 18.5zM314 593q19 -18 24 -50
t-1.5 -64t-15.5 -62t-17 -49l-9 -18q10 93 -61 161q-17 17 -20.5 40t11.5 41q18 18 41.5 19.5t47.5 -18.5z" />
    <glyph glyph-name="a" unicode="a" horiz-adv-x="593" 
d="M180 500h207q120 0 161 -51t24 -146l-16 -95q-8 -40 2.5 -55t46.5 -15h8l-24 -138h-119q-55 0 -73.5 20t-14.5 67q-51 -97 -168 -97q-88 0 -127 40.5t-25 116.5q14 78 70 119.5t171 41.5h100q3 20 2.5 33.5t-16 20.5t-50.5 7h-182zM388 221h-92q-64 0 -72 -47
q-5 -29 7 -38.5t54 -9.5q32 0 61.5 12.5t35.5 46.5z" />
    <glyph glyph-name="b" unicode="b" horiz-adv-x="641" 
d="M658 250q-20 -116 -97 -188t-183 -72q-115 0 -154 89l-14 -79h-170l123 700h170l-49 -279q70 89 186 89q106 0 157 -72t31 -188zM247 212q-3 -36 24.5 -60t75.5 -24q45 0 87.5 34t51.5 88q11 58 -14 90t-82 32q-39 0 -81.5 -27t-48.5 -62z" />
    <glyph glyph-name="c" unicode="c" horiz-adv-x="596" 
d="M244 250q-22 -122 86 -122q33 0 65.5 25t38.5 56h172q-7 -40 -28 -77t-56.5 -69.5t-91 -52.5t-122.5 -20q-130 0 -194 69t-42 191t110 191t218 69q67 0 115.5 -19.5t72 -52.5t31.5 -70t1 -77h-172q7 34 -11.5 57.5t-63.5 23.5q-44 0 -81.5 -33t-47.5 -89z" />
    <glyph glyph-name="d" unicode="d" horiz-adv-x="641" 
d="M72 250q20 116 97 188t183 72q114 0 154 -87l48 277h170l-123 -700h-170l14 78q-71 -88 -185 -88q-106 0 -157 72t-31 188zM340 128q39 0 81 27.5t48 62.5l12 65q7 38 -20 63.5t-78 25.5q-45 0 -87 -33.5t-52 -88.5q-10 -58 15 -90t81 -32z" />
    <glyph glyph-name="e" unicode="e" horiz-adv-x="596" 
d="M613 251l-8 -44h-369q-2 -53 20 -73.5t66 -20.5q37 0 69.5 18.5t36.5 45.5h169q-26 -81 -103.5 -134t-201.5 -53q-117 0 -179 70t-41 190t108 190t204 70q133 0 191.5 -71.5t37.5 -187.5zM449 292q5 53 -14 74t-65 21q-32 0 -65.5 -23.5t-52.5 -71.5h197z" />
    <glyph glyph-name="f" unicode="f" horiz-adv-x="397" 
d="M478 573h-59q-38 0 -53.5 -9.5t-21.5 -42.5l-4 -21h126l-24 -138h-126l-64 -362h-170l64 362h-61l24 138h62l9 53q27 158 196 158h126z" />
    <glyph glyph-name="g" unicode="g" horiz-adv-x="641" 
d="M98 -62h218q103 0 119 85l10 55q-71 -88 -185 -88q-106 0 -157 72t-31 188t97 188t183 72q114 0 154 -87l13 77h170l-80 -455q-22 -124 -94.5 -184.5t-207.5 -60.5h-233zM340 128q39 0 81 27.5t48 62.5l12 65q7 38 -20 63.5t-78 25.5q-45 0 -87 -33.5t-52 -88.5
q-10 -58 15 -90t81 -32z" />
    <glyph glyph-name="h" unicode="h" horiz-adv-x="609" 
d="M163 700h170l-51 -290q75 100 196 100q92 0 127 -52.5t19 -144.5l-55 -313h-170l47 268q10 55 -2.5 79.5t-69.5 24.5q-38 0 -73.5 -29t-43.5 -78l-47 -265h-170z" />
    <glyph glyph-name="i" unicode="i" horiz-adv-x="245" 
d="M142 646q7 39 39.5 66.5t73.5 27.5q40 0 63 -27.5t16 -66.5q-7 -42 -39.5 -70t-72.5 -28q-41 0 -64 28t-16 70zM126 500h170l-88 -500h-170z" />
    <glyph glyph-name="j" unicode="j" horiz-adv-x="245" 
d="M139 646q7 39 40 66.5t74 27.5q39 0 62 -27.5t16 -66.5q-7 -42 -39.5 -70t-71.5 -28q-41 0 -64.5 28t-16.5 70zM-94 -62h54q37 0 54 11t23 46l89 505h170l-96 -543q-27 -157 -196 -157h-122z" />
    <glyph glyph-name="k" unicode="k" horiz-adv-x="617" 
d="M163 700h170l-66 -378h51l139 178h196l-198 -236l139 -264h-201l-92 199h-56l-35 -199h-170z" />
    <glyph glyph-name="l" unicode="l" horiz-adv-x="285" 
d="M304 138l-24 -138h-106q-71 0 -96.5 34t-12.5 106l98 560h170l-86 -492q-8 -40 2.5 -55t46.5 -15h8z" />
    <glyph glyph-name="m" unicode="m" horiz-adv-x="912" 
d="M128 500h170l-15 -85q70 95 177 95q127 0 140 -116q70 116 191 116q85 0 118.5 -52.5t17.5 -144.5l-55 -313h-170l48 275q13 48 2 72.5t-61 24.5q-31 0 -62.5 -26t-39.5 -73l-48 -273h-170l48 275q13 48 2 72.5t-61 24.5q-31 0 -62 -25.5t-40 -71.5l-48 -275h-170z" />
    <glyph glyph-name="n" unicode="n" horiz-adv-x="609" 
d="M128 500h170l-16 -90q75 100 196 100q92 0 127 -52.5t19 -144.5l-55 -313h-170l47 268q10 55 -2.5 79.5t-69.5 24.5q-38 0 -73.5 -29t-43.5 -78l-47 -265h-170z" />
    <glyph glyph-name="o" unicode="o" horiz-adv-x="627" 
d="M337 128q46 0 86.5 37t48.5 85q9 53 -12.5 87.5t-79.5 34.5q-46 0 -87 -37t-49 -85q-9 -53 13 -87.5t80 -34.5zM404 510q122 0 191.5 -70.5t48.5 -189.5t-115.5 -189.5t-216.5 -70.5t-191.5 70.5t-48.5 189.5t115.5 189.5t216.5 70.5z" />
    <glyph glyph-name="p" unicode="p" horiz-adv-x="641" 
d="M128 500h170l-14 -79q70 89 186 89q106 0 157 -72t31 -188t-97 -188t-183 -72q-115 0 -154 89l-49 -279h-170zM247 211q-2 -36 25 -59.5t75 -23.5q45 0 87.5 34t51.5 88q11 58 -14 90t-82 32q-39 0 -81.5 -27t-48.5 -62z" />
    <glyph glyph-name="q" unicode="q" horiz-adv-x="641" 
d="M689 500l-123 -700h-170l49 278q-71 -88 -185 -88q-106 0 -157 72t-31 188t97 188t183 72q114 0 154 -87l13 77h170zM482 288q5 36 -22.5 60t-76.5 24q-45 0 -87 -33.5t-52 -88.5q-10 -58 15 -90t81 -32q39 0 81 27.5t48 62.5z" />
    <glyph glyph-name="r" unicode="r" horiz-adv-x="425" 
d="M128 500h170l-15 -87q35 44 80 70.5t86 26.5h49l-24 -138h-109q-89 0 -107 -102l-48 -270h-170z" />
    <glyph glyph-name="s" unicode="s" horiz-adv-x="569" 
d="M213 169q-6 -33 18 -48.5t84 -15.5q82 0 89 34q3 16 -15.5 23.5t-94.5 23.5q-111 23 -156.5 61.5t-35.5 100.5q15 81 90 122t176 41q125 0 176.5 -53t38.5 -126h-155q6 34 -11 49t-68 15q-33 0 -55.5 -9.5t-25.5 -25.5t16 -23.5t91 -24.5q22 -5 34 -8q46 -11 69 -18.5
t51.5 -23.5t37.5 -41t3 -61q-13 -77 -88 -124t-196 -47q-123 0 -181.5 54t-46.5 125h155z" />
    <glyph glyph-name="t" unicode="t" horiz-adv-x="408" 
d="M108 500h65l21 120h170l-21 -120h133l-24 -138h-133l-30 -167q-6 -36 6.5 -46.5t50.5 -10.5h66l-24 -138h-134q-82 0 -118.5 40t-22.5 118l36 204h-65z" />
    <glyph glyph-name="u" unicode="u" horiz-adv-x="644" 
d="M663 138l-24 -138h-106q-59 0 -86.5 23.5t-26.5 71.5q-76 -105 -201 -105q-91 0 -126.5 53t-19.5 145l55 312h170l-47 -267q-9 -55 3.5 -80t69.5 -25q38 0 73 29t43 78l47 265h170l-51 -292q-8 -40 2.5 -55t46.5 -15h8z" />
    <glyph glyph-name="v" unicode="v" horiz-adv-x="656" 
d="M108 500h171l73 -307l181 307h191l-318 -500h-156z" />
    <glyph glyph-name="w" unicode="w" horiz-adv-x="831" 
d="M108 500h161l16 -308l138 308h161l28 -288l116 288h171l-238 -500h-163l-25 296l-129 -296h-174z" />
    <glyph glyph-name="x" unicode="x" horiz-adv-x="665" 
d="M20 0l248 261l-141 239h196l63 -125l112 125h217l-225 -239l155 -261h-198l-78 145l-130 -145h-219z" />
    <glyph glyph-name="y" unicode="y" horiz-adv-x="616" 
d="M684 500l-299 -510q-36 -62 -60.5 -93.5t-64.5 -56.5t-92.5 -32.5t-138.5 -7.5l24 138q62 0 94 6.5t44 17t27 35.5l8 12l-118 491h171l60 -301l164 301h181z" />
    <glyph glyph-name="z" unicode="z" horiz-adv-x="508" 
d="M558 500l-21 -119l-266 -243h242l-24 -138h-466l21 119l267 243h-216l24 138h439z" />
    <glyph glyph-name="braceleft" unicode="{" 
d="M101 197q-6 0 -9 -1v-98q2 -1 9 -1q18 0 24.5 12t6.5 38t-6.5 38t-24.5 12zM253 161v-24h-40v-38h47v-24h-76v145h76v-25h-47v-34h40zM99 73q-23 0 -36 2v143q26 4 37 4q33 0 47 -18t14 -57t-14.5 -56.5t-47.5 -17.5zM286 220h39l19 -80l19 80h40q1 -21 3.5 -78.5
t2.5 -66.5h-29q0 53 -3 104l-20 -82h-27l-20 82h-1q-2 -68 -2 -104h-28q2 84 7 145zM482 73q-29 0 -41 17.5t-12 56.5t12 57t41 18t41.5 -18t12.5 -57t-12.5 -56.5t-41.5 -17.5zM482 197q-14 0 -19 -11.5t-5 -38.5q0 -50 24 -50q15 0 20 12t5 38q0 27 -5 38.5t-20 11.5z
M472 496q34 0 48 -20t14 -43q0 -21 -16.5 -35t-35.5 -17q-104 -12 -166 -72q3 8 8.5 20.5t22.5 44.5t34.5 57t42.5 45t48 20zM139 444q26 0 52 -19.5t44 -47t32 -54.5t21 -47l7 -19q-57 72 -156 72q-24 0 -43 15t-19 37q0 26 16.5 44.5t45.5 18.5zM314 593q19 -18 24 -50
t-1.5 -64t-15.5 -62t-17 -49l-9 -18q10 93 -61 161q-17 17 -20.5 40t11.5 41q18 18 41.5 19.5t47.5 -18.5z" />
    <glyph glyph-name="bar" unicode="|" 
d="M101 197q-6 0 -9 -1v-98q2 -1 9 -1q18 0 24.5 12t6.5 38t-6.5 38t-24.5 12zM253 161v-24h-40v-38h47v-24h-76v145h76v-25h-47v-34h40zM99 73q-23 0 -36 2v143q26 4 37 4q33 0 47 -18t14 -57t-14.5 -56.5t-47.5 -17.5zM286 220h39l19 -80l19 80h40q1 -21 3.5 -78.5
t2.5 -66.5h-29q0 53 -3 104l-20 -82h-27l-20 82h-1q-2 -68 -2 -104h-28q2 84 7 145zM482 73q-29 0 -41 17.5t-12 56.5t12 57t41 18t41.5 -18t12.5 -57t-12.5 -56.5t-41.5 -17.5zM482 197q-14 0 -19 -11.5t-5 -38.5q0 -50 24 -50q15 0 20 12t5 38q0 27 -5 38.5t-20 11.5z
M472 496q34 0 48 -20t14 -43q0 -21 -16.5 -35t-35.5 -17q-104 -12 -166 -72q3 8 8.5 20.5t22.5 44.5t34.5 57t42.5 45t48 20zM139 444q26 0 52 -19.5t44 -47t32 -54.5t21 -47l7 -19q-57 72 -156 72q-24 0 -43 15t-19 37q0 26 16.5 44.5t45.5 18.5zM314 593q19 -18 24 -50
t-1.5 -64t-15.5 -62t-17 -49l-9 -18q10 93 -61 161q-17 17 -20.5 40t11.5 41q18 18 41.5 19.5t47.5 -18.5z" />
    <glyph glyph-name="braceright" unicode="}" 
d="M101 197q-6 0 -9 -1v-98q2 -1 9 -1q18 0 24.5 12t6.5 38t-6.5 38t-24.5 12zM253 161v-24h-40v-38h47v-24h-76v145h76v-25h-47v-34h40zM99 73q-23 0 -36 2v143q26 4 37 4q33 0 47 -18t14 -57t-14.5 -56.5t-47.5 -17.5zM286 220h39l19 -80l19 80h40q1 -21 3.5 -78.5
t2.5 -66.5h-29q0 53 -3 104l-20 -82h-27l-20 82h-1q-2 -68 -2 -104h-28q2 84 7 145zM482 73q-29 0 -41 17.5t-12 56.5t12 57t41 18t41.5 -18t12.5 -57t-12.5 -56.5t-41.5 -17.5zM482 197q-14 0 -19 -11.5t-5 -38.5q0 -50 24 -50q15 0 20 12t5 38q0 27 -5 38.5t-20 11.5z
M472 496q34 0 48 -20t14 -43q0 -21 -16.5 -35t-35.5 -17q-104 -12 -166 -72q3 8 8.5 20.5t22.5 44.5t34.5 57t42.5 45t48 20zM139 444q26 0 52 -19.5t44 -47t32 -54.5t21 -47l7 -19q-57 72 -156 72q-24 0 -43 15t-19 37q0 26 16.5 44.5t45.5 18.5zM314 593q19 -18 24 -50
t-1.5 -64t-15.5 -62t-17 -49l-9 -18q10 93 -61 161q-17 17 -20.5 40t11.5 41q18 18 41.5 19.5t47.5 -18.5z" />
    <glyph glyph-name="asciitilde" unicode="~" 
d="M101 197q-6 0 -9 -1v-98q2 -1 9 -1q18 0 24.5 12t6.5 38t-6.5 38t-24.5 12zM253 161v-24h-40v-38h47v-24h-76v145h76v-25h-47v-34h40zM99 73q-23 0 -36 2v143q26 4 37 4q33 0 47 -18t14 -57t-14.5 -56.5t-47.5 -17.5zM286 220h39l19 -80l19 80h40q1 -21 3.5 -78.5
t2.5 -66.5h-29q0 53 -3 104l-20 -82h-27l-20 82h-1q-2 -68 -2 -104h-28q2 84 7 145zM482 73q-29 0 -41 17.5t-12 56.5t12 57t41 18t41.5 -18t12.5 -57t-12.5 -56.5t-41.5 -17.5zM482 197q-14 0 -19 -11.5t-5 -38.5q0 -50 24 -50q15 0 20 12t5 38q0 27 -5 38.5t-20 11.5z
M472 496q34 0 48 -20t14 -43q0 -21 -16.5 -35t-35.5 -17q-104 -12 -166 -72q3 8 8.5 20.5t22.5 44.5t34.5 57t42.5 45t48 20zM139 444q26 0 52 -19.5t44 -47t32 -54.5t21 -47l7 -19q-57 72 -156 72q-24 0 -43 15t-19 37q0 26 16.5 44.5t45.5 18.5zM314 593q19 -18 24 -50
t-1.5 -64t-15.5 -62t-17 -49l-9 -18q10 93 -61 161q-17 17 -20.5 40t11.5 41q18 18 41.5 19.5t47.5 -18.5z" />
    </font>
</defs>
</svg>
