<?xml version="1.0" standalone="no"?>
<!DOCTYPE svg PUBLIC "-//W3C//DTD SVG 1.1//EN" "http://www.w3.org/Graphics/SVG/1.1/DTD/svg11.dtd" >
<svg xmlns="http://www.w3.org/2000/svg" xmlns:xlink="http://www.w3.org/1999/xlink" version="1.1">
<metadata>
Created by FontForge 20230101 at Tue Sep 28 04:49:55 2021
 By Unknown
Tour de Force Font Foundry &#38; Dusan Jelesijevic
</metadata>
<defs>
<font id="FONTSPRINGDEMO-LupioSemBdItalic" horiz-adv-x="598" >
  <font-face 
    font-family="FSP DEMO - Lupio SemBd"
    font-weight="600"
    font-style="italic"
    font-stretch="normal"
    units-per-em="1000"
    panose-1="0 0 0 0 0 0 0 0 0 0"
    ascent="800"
    descent="-200"
    x-height="500"
    cap-height="700"
    bbox="-121 -200 1170 735"
    underline-thickness="50"
    underline-position="-125"
    slope="-10"
    unicode-range="U+000D-007E"
  />
<missing-glyph 
d="M101 197q-6 0 -9 -1v-98q2 -1 9 -1q18 0 24.5 12t6.5 38t-6.5 38t-24.5 12zM253 161v-24h-40v-38h47v-24h-76v145h76v-25h-47v-34h40zM99 73q-23 0 -36 2v143q26 4 37 4q33 0 47 -18t14 -57t-14.5 -56.5t-47.5 -17.5zM286 220h39l19 -80l19 80h40q1 -21 3.5 -78.5
t2.5 -66.5h-29q0 53 -3 104l-20 -82h-27l-20 82h-1q-2 -68 -2 -104h-28q2 84 7 145zM482 73q-29 0 -41 17.5t-12 56.5t12 57t41 18t41.5 -18t12.5 -57t-12.5 -56.5t-41.5 -17.5zM482 197q-14 0 -19 -11.5t-5 -38.5q0 -50 24 -50q15 0 20 12t5 38q0 27 -5 38.5t-20 11.5z
M472 496q34 0 48 -20t14 -43q0 -21 -16.5 -35t-35.5 -17q-104 -12 -166 -72q3 8 8.5 20.5t22.5 44.5t34.5 57t42.5 45t48 20zM139 444q26 0 52 -19.5t44 -47t32 -54.5t21 -47l7 -19q-57 72 -156 72q-24 0 -43 15t-19 37q0 26 16.5 44.5t45.5 18.5zM314 593q19 -18 24 -50
t-1.5 -64t-15.5 -62t-17 -49l-9 -18q10 93 -61 161q-17 17 -20.5 40t11.5 41q18 18 41.5 19.5t47.5 -18.5z" />
    <glyph glyph-name=".notdef" 
d="M101 197q-6 0 -9 -1v-98q2 -1 9 -1q18 0 24.5 12t6.5 38t-6.5 38t-24.5 12zM253 161v-24h-40v-38h47v-24h-76v145h76v-25h-47v-34h40zM99 73q-23 0 -36 2v143q26 4 37 4q33 0 47 -18t14 -57t-14.5 -56.5t-47.5 -17.5zM286 220h39l19 -80l19 80h40q1 -21 3.5 -78.5
t2.5 -66.5h-29q0 53 -3 104l-20 -82h-27l-20 82h-1q-2 -68 -2 -104h-28q2 84 7 145zM482 73q-29 0 -41 17.5t-12 56.5t12 57t41 18t41.5 -18t12.5 -57t-12.5 -56.5t-41.5 -17.5zM482 197q-14 0 -19 -11.5t-5 -38.5q0 -50 24 -50q15 0 20 12t5 38q0 27 -5 38.5t-20 11.5z
M472 496q34 0 48 -20t14 -43q0 -21 -16.5 -35t-35.5 -17q-104 -12 -166 -72q3 8 8.5 20.5t22.5 44.5t34.5 57t42.5 45t48 20zM139 444q26 0 52 -19.5t44 -47t32 -54.5t21 -47l7 -19q-57 72 -156 72q-24 0 -43 15t-19 37q0 26 16.5 44.5t45.5 18.5zM314 593q19 -18 24 -50
t-1.5 -64t-15.5 -62t-17 -49l-9 -18q10 93 -61 161q-17 17 -20.5 40t11.5 41q18 18 41.5 19.5t47.5 -18.5z" />
    <glyph glyph-name="uni0000" horiz-adv-x="0" 
 />
    <glyph glyph-name="uni000D" unicode="&#xd;" horiz-adv-x="250" 
 />
    <glyph glyph-name="space" unicode=" " horiz-adv-x="260" 
 />
    <glyph glyph-name="exclam" unicode="!" 
d="M101 197q-6 0 -9 -1v-98q2 -1 9 -1q18 0 24.5 12t6.5 38t-6.5 38t-24.5 12zM253 161v-24h-40v-38h47v-24h-76v145h76v-25h-47v-34h40zM99 73q-23 0 -36 2v143q26 4 37 4q33 0 47 -18t14 -57t-14.5 -56.5t-47.5 -17.5zM286 220h39l19 -80l19 80h40q1 -21 3.5 -78.5
t2.5 -66.5h-29q0 53 -3 104l-20 -82h-27l-20 82h-1q-2 -68 -2 -104h-28q2 84 7 145zM482 73q-29 0 -41 17.5t-12 56.5t12 57t41 18t41.5 -18t12.5 -57t-12.5 -56.5t-41.5 -17.5zM482 197q-14 0 -19 -11.5t-5 -38.5q0 -50 24 -50q15 0 20 12t5 38q0 27 -5 38.5t-20 11.5z
M472 496q34 0 48 -20t14 -43q0 -21 -16.5 -35t-35.5 -17q-104 -12 -166 -72q3 8 8.5 20.5t22.5 44.5t34.5 57t42.5 45t48 20zM139 444q26 0 52 -19.5t44 -47t32 -54.5t21 -47l7 -19q-57 72 -156 72q-24 0 -43 15t-19 37q0 26 16.5 44.5t45.5 18.5zM314 593q19 -18 24 -50
t-1.5 -64t-15.5 -62t-17 -49l-9 -18q10 93 -61 161q-17 17 -20.5 40t11.5 41q18 18 41.5 19.5t47.5 -18.5z" />
    <glyph glyph-name="quotedbl" unicode="&#x22;" 
d="M101 197q-6 0 -9 -1v-98q2 -1 9 -1q18 0 24.5 12t6.5 38t-6.5 38t-24.5 12zM253 161v-24h-40v-38h47v-24h-76v145h76v-25h-47v-34h40zM99 73q-23 0 -36 2v143q26 4 37 4q33 0 47 -18t14 -57t-14.5 -56.5t-47.5 -17.5zM286 220h39l19 -80l19 80h40q1 -21 3.5 -78.5
t2.5 -66.5h-29q0 53 -3 104l-20 -82h-27l-20 82h-1q-2 -68 -2 -104h-28q2 84 7 145zM482 73q-29 0 -41 17.5t-12 56.5t12 57t41 18t41.5 -18t12.5 -57t-12.5 -56.5t-41.5 -17.5zM482 197q-14 0 -19 -11.5t-5 -38.5q0 -50 24 -50q15 0 20 12t5 38q0 27 -5 38.5t-20 11.5z
M472 496q34 0 48 -20t14 -43q0 -21 -16.5 -35t-35.5 -17q-104 -12 -166 -72q3 8 8.5 20.5t22.5 44.5t34.5 57t42.5 45t48 20zM139 444q26 0 52 -19.5t44 -47t32 -54.5t21 -47l7 -19q-57 72 -156 72q-24 0 -43 15t-19 37q0 26 16.5 44.5t45.5 18.5zM314 593q19 -18 24 -50
t-1.5 -64t-15.5 -62t-17 -49l-9 -18q10 93 -61 161q-17 17 -20.5 40t11.5 41q18 18 41.5 19.5t47.5 -18.5z" />
    <glyph glyph-name="numbersign" unicode="#" 
d="M101 197q-6 0 -9 -1v-98q2 -1 9 -1q18 0 24.5 12t6.5 38t-6.5 38t-24.5 12zM253 161v-24h-40v-38h47v-24h-76v145h76v-25h-47v-34h40zM99 73q-23 0 -36 2v143q26 4 37 4q33 0 47 -18t14 -57t-14.5 -56.5t-47.5 -17.5zM286 220h39l19 -80l19 80h40q1 -21 3.5 -78.5
t2.5 -66.5h-29q0 53 -3 104l-20 -82h-27l-20 82h-1q-2 -68 -2 -104h-28q2 84 7 145zM482 73q-29 0 -41 17.5t-12 56.5t12 57t41 18t41.5 -18t12.5 -57t-12.5 -56.5t-41.5 -17.5zM482 197q-14 0 -19 -11.5t-5 -38.5q0 -50 24 -50q15 0 20 12t5 38q0 27 -5 38.5t-20 11.5z
M472 496q34 0 48 -20t14 -43q0 -21 -16.5 -35t-35.5 -17q-104 -12 -166 -72q3 8 8.5 20.5t22.5 44.5t34.5 57t42.5 45t48 20zM139 444q26 0 52 -19.5t44 -47t32 -54.5t21 -47l7 -19q-57 72 -156 72q-24 0 -43 15t-19 37q0 26 16.5 44.5t45.5 18.5zM314 593q19 -18 24 -50
t-1.5 -64t-15.5 -62t-17 -49l-9 -18q10 93 -61 161q-17 17 -20.5 40t11.5 41q18 18 41.5 19.5t47.5 -18.5z" />
    <glyph glyph-name="dollar" unicode="$" 
d="M101 197q-6 0 -9 -1v-98q2 -1 9 -1q18 0 24.5 12t6.5 38t-6.5 38t-24.5 12zM253 161v-24h-40v-38h47v-24h-76v145h76v-25h-47v-34h40zM99 73q-23 0 -36 2v143q26 4 37 4q33 0 47 -18t14 -57t-14.5 -56.5t-47.5 -17.5zM286 220h39l19 -80l19 80h40q1 -21 3.5 -78.5
t2.5 -66.5h-29q0 53 -3 104l-20 -82h-27l-20 82h-1q-2 -68 -2 -104h-28q2 84 7 145zM482 73q-29 0 -41 17.5t-12 56.5t12 57t41 18t41.5 -18t12.5 -57t-12.5 -56.5t-41.5 -17.5zM482 197q-14 0 -19 -11.5t-5 -38.5q0 -50 24 -50q15 0 20 12t5 38q0 27 -5 38.5t-20 11.5z
M472 496q34 0 48 -20t14 -43q0 -21 -16.5 -35t-35.5 -17q-104 -12 -166 -72q3 8 8.5 20.5t22.5 44.5t34.5 57t42.5 45t48 20zM139 444q26 0 52 -19.5t44 -47t32 -54.5t21 -47l7 -19q-57 72 -156 72q-24 0 -43 15t-19 37q0 26 16.5 44.5t45.5 18.5zM314 593q19 -18 24 -50
t-1.5 -64t-15.5 -62t-17 -49l-9 -18q10 93 -61 161q-17 17 -20.5 40t11.5 41q18 18 41.5 19.5t47.5 -18.5z" />
    <glyph glyph-name="percent" unicode="%" 
d="M101 197q-6 0 -9 -1v-98q2 -1 9 -1q18 0 24.5 12t6.5 38t-6.5 38t-24.5 12zM253 161v-24h-40v-38h47v-24h-76v145h76v-25h-47v-34h40zM99 73q-23 0 -36 2v143q26 4 37 4q33 0 47 -18t14 -57t-14.5 -56.5t-47.5 -17.5zM286 220h39l19 -80l19 80h40q1 -21 3.5 -78.5
t2.5 -66.5h-29q0 53 -3 104l-20 -82h-27l-20 82h-1q-2 -68 -2 -104h-28q2 84 7 145zM482 73q-29 0 -41 17.5t-12 56.5t12 57t41 18t41.5 -18t12.5 -57t-12.5 -56.5t-41.5 -17.5zM482 197q-14 0 -19 -11.5t-5 -38.5q0 -50 24 -50q15 0 20 12t5 38q0 27 -5 38.5t-20 11.5z
M472 496q34 0 48 -20t14 -43q0 -21 -16.5 -35t-35.5 -17q-104 -12 -166 -72q3 8 8.5 20.5t22.5 44.5t34.5 57t42.5 45t48 20zM139 444q26 0 52 -19.5t44 -47t32 -54.5t21 -47l7 -19q-57 72 -156 72q-24 0 -43 15t-19 37q0 26 16.5 44.5t45.5 18.5zM314 593q19 -18 24 -50
t-1.5 -64t-15.5 -62t-17 -49l-9 -18q10 93 -61 161q-17 17 -20.5 40t11.5 41q18 18 41.5 19.5t47.5 -18.5z" />
    <glyph glyph-name="ampersand" unicode="&#x26;" 
d="M101 197q-6 0 -9 -1v-98q2 -1 9 -1q18 0 24.5 12t6.5 38t-6.5 38t-24.5 12zM253 161v-24h-40v-38h47v-24h-76v145h76v-25h-47v-34h40zM99 73q-23 0 -36 2v143q26 4 37 4q33 0 47 -18t14 -57t-14.5 -56.5t-47.5 -17.5zM286 220h39l19 -80l19 80h40q1 -21 3.5 -78.5
t2.5 -66.5h-29q0 53 -3 104l-20 -82h-27l-20 82h-1q-2 -68 -2 -104h-28q2 84 7 145zM482 73q-29 0 -41 17.5t-12 56.5t12 57t41 18t41.5 -18t12.5 -57t-12.5 -56.5t-41.5 -17.5zM482 197q-14 0 -19 -11.5t-5 -38.5q0 -50 24 -50q15 0 20 12t5 38q0 27 -5 38.5t-20 11.5z
M472 496q34 0 48 -20t14 -43q0 -21 -16.5 -35t-35.5 -17q-104 -12 -166 -72q3 8 8.5 20.5t22.5 44.5t34.5 57t42.5 45t48 20zM139 444q26 0 52 -19.5t44 -47t32 -54.5t21 -47l7 -19q-57 72 -156 72q-24 0 -43 15t-19 37q0 26 16.5 44.5t45.5 18.5zM314 593q19 -18 24 -50
t-1.5 -64t-15.5 -62t-17 -49l-9 -18q10 93 -61 161q-17 17 -20.5 40t11.5 41q18 18 41.5 19.5t47.5 -18.5z" />
    <glyph glyph-name="quotesingle" unicode="'" 
d="M101 197q-6 0 -9 -1v-98q2 -1 9 -1q18 0 24.5 12t6.5 38t-6.5 38t-24.5 12zM253 161v-24h-40v-38h47v-24h-76v145h76v-25h-47v-34h40zM99 73q-23 0 -36 2v143q26 4 37 4q33 0 47 -18t14 -57t-14.5 -56.5t-47.5 -17.5zM286 220h39l19 -80l19 80h40q1 -21 3.5 -78.5
t2.5 -66.5h-29q0 53 -3 104l-20 -82h-27l-20 82h-1q-2 -68 -2 -104h-28q2 84 7 145zM482 73q-29 0 -41 17.5t-12 56.5t12 57t41 18t41.5 -18t12.5 -57t-12.5 -56.5t-41.5 -17.5zM482 197q-14 0 -19 -11.5t-5 -38.5q0 -50 24 -50q15 0 20 12t5 38q0 27 -5 38.5t-20 11.5z
M472 496q34 0 48 -20t14 -43q0 -21 -16.5 -35t-35.5 -17q-104 -12 -166 -72q3 8 8.5 20.5t22.5 44.5t34.5 57t42.5 45t48 20zM139 444q26 0 52 -19.5t44 -47t32 -54.5t21 -47l7 -19q-57 72 -156 72q-24 0 -43 15t-19 37q0 26 16.5 44.5t45.5 18.5zM314 593q19 -18 24 -50
t-1.5 -64t-15.5 -62t-17 -49l-9 -18q10 93 -61 161q-17 17 -20.5 40t11.5 41q18 18 41.5 19.5t47.5 -18.5z" />
    <glyph glyph-name="parenleft" unicode="(" 
d="M101 197q-6 0 -9 -1v-98q2 -1 9 -1q18 0 24.5 12t6.5 38t-6.5 38t-24.5 12zM253 161v-24h-40v-38h47v-24h-76v145h76v-25h-47v-34h40zM99 73q-23 0 -36 2v143q26 4 37 4q33 0 47 -18t14 -57t-14.5 -56.5t-47.5 -17.5zM286 220h39l19 -80l19 80h40q1 -21 3.5 -78.5
t2.5 -66.5h-29q0 53 -3 104l-20 -82h-27l-20 82h-1q-2 -68 -2 -104h-28q2 84 7 145zM482 73q-29 0 -41 17.5t-12 56.5t12 57t41 18t41.5 -18t12.5 -57t-12.5 -56.5t-41.5 -17.5zM482 197q-14 0 -19 -11.5t-5 -38.5q0 -50 24 -50q15 0 20 12t5 38q0 27 -5 38.5t-20 11.5z
M472 496q34 0 48 -20t14 -43q0 -21 -16.5 -35t-35.5 -17q-104 -12 -166 -72q3 8 8.5 20.5t22.5 44.5t34.5 57t42.5 45t48 20zM139 444q26 0 52 -19.5t44 -47t32 -54.5t21 -47l7 -19q-57 72 -156 72q-24 0 -43 15t-19 37q0 26 16.5 44.5t45.5 18.5zM314 593q19 -18 24 -50
t-1.5 -64t-15.5 -62t-17 -49l-9 -18q10 93 -61 161q-17 17 -20.5 40t11.5 41q18 18 41.5 19.5t47.5 -18.5z" />
    <glyph glyph-name="parenright" unicode=")" 
d="M101 197q-6 0 -9 -1v-98q2 -1 9 -1q18 0 24.5 12t6.5 38t-6.5 38t-24.5 12zM253 161v-24h-40v-38h47v-24h-76v145h76v-25h-47v-34h40zM99 73q-23 0 -36 2v143q26 4 37 4q33 0 47 -18t14 -57t-14.5 -56.5t-47.5 -17.5zM286 220h39l19 -80l19 80h40q1 -21 3.5 -78.5
t2.5 -66.5h-29q0 53 -3 104l-20 -82h-27l-20 82h-1q-2 -68 -2 -104h-28q2 84 7 145zM482 73q-29 0 -41 17.5t-12 56.5t12 57t41 18t41.5 -18t12.5 -57t-12.5 -56.5t-41.5 -17.5zM482 197q-14 0 -19 -11.5t-5 -38.5q0 -50 24 -50q15 0 20 12t5 38q0 27 -5 38.5t-20 11.5z
M472 496q34 0 48 -20t14 -43q0 -21 -16.5 -35t-35.5 -17q-104 -12 -166 -72q3 8 8.5 20.5t22.5 44.5t34.5 57t42.5 45t48 20zM139 444q26 0 52 -19.5t44 -47t32 -54.5t21 -47l7 -19q-57 72 -156 72q-24 0 -43 15t-19 37q0 26 16.5 44.5t45.5 18.5zM314 593q19 -18 24 -50
t-1.5 -64t-15.5 -62t-17 -49l-9 -18q10 93 -61 161q-17 17 -20.5 40t11.5 41q18 18 41.5 19.5t47.5 -18.5z" />
    <glyph glyph-name="asterisk" unicode="*" 
d="M101 197q-6 0 -9 -1v-98q2 -1 9 -1q18 0 24.5 12t6.5 38t-6.5 38t-24.5 12zM253 161v-24h-40v-38h47v-24h-76v145h76v-25h-47v-34h40zM99 73q-23 0 -36 2v143q26 4 37 4q33 0 47 -18t14 -57t-14.5 -56.5t-47.5 -17.5zM286 220h39l19 -80l19 80h40q1 -21 3.5 -78.5
t2.5 -66.5h-29q0 53 -3 104l-20 -82h-27l-20 82h-1q-2 -68 -2 -104h-28q2 84 7 145zM482 73q-29 0 -41 17.5t-12 56.5t12 57t41 18t41.5 -18t12.5 -57t-12.5 -56.5t-41.5 -17.5zM482 197q-14 0 -19 -11.5t-5 -38.5q0 -50 24 -50q15 0 20 12t5 38q0 27 -5 38.5t-20 11.5z
M472 496q34 0 48 -20t14 -43q0 -21 -16.5 -35t-35.5 -17q-104 -12 -166 -72q3 8 8.5 20.5t22.5 44.5t34.5 57t42.5 45t48 20zM139 444q26 0 52 -19.5t44 -47t32 -54.5t21 -47l7 -19q-57 72 -156 72q-24 0 -43 15t-19 37q0 26 16.5 44.5t45.5 18.5zM314 593q19 -18 24 -50
t-1.5 -64t-15.5 -62t-17 -49l-9 -18q10 93 -61 161q-17 17 -20.5 40t11.5 41q18 18 41.5 19.5t47.5 -18.5z" />
    <glyph glyph-name="plus" unicode="+" 
d="M101 197q-6 0 -9 -1v-98q2 -1 9 -1q18 0 24.5 12t6.5 38t-6.5 38t-24.5 12zM253 161v-24h-40v-38h47v-24h-76v145h76v-25h-47v-34h40zM99 73q-23 0 -36 2v143q26 4 37 4q33 0 47 -18t14 -57t-14.5 -56.5t-47.5 -17.5zM286 220h39l19 -80l19 80h40q1 -21 3.5 -78.5
t2.5 -66.5h-29q0 53 -3 104l-20 -82h-27l-20 82h-1q-2 -68 -2 -104h-28q2 84 7 145zM482 73q-29 0 -41 17.5t-12 56.5t12 57t41 18t41.5 -18t12.5 -57t-12.5 -56.5t-41.5 -17.5zM482 197q-14 0 -19 -11.5t-5 -38.5q0 -50 24 -50q15 0 20 12t5 38q0 27 -5 38.5t-20 11.5z
M472 496q34 0 48 -20t14 -43q0 -21 -16.5 -35t-35.5 -17q-104 -12 -166 -72q3 8 8.5 20.5t22.5 44.5t34.5 57t42.5 45t48 20zM139 444q26 0 52 -19.5t44 -47t32 -54.5t21 -47l7 -19q-57 72 -156 72q-24 0 -43 15t-19 37q0 26 16.5 44.5t45.5 18.5zM314 593q19 -18 24 -50
t-1.5 -64t-15.5 -62t-17 -49l-9 -18q10 93 -61 161q-17 17 -20.5 40t11.5 41q18 18 41.5 19.5t47.5 -18.5z" />
    <glyph glyph-name="comma" unicode="," horiz-adv-x="285" 
d="M67 81q7 37 37.5 63t69.5 26q37 0 58.5 -26t14.5 -63q-4 -23 -24 -51l-115 -164h-74l81 128q-27 8 -40 32t-8 55z" />
    <glyph glyph-name="hyphen" unicode="-" 
d="M101 197q-6 0 -9 -1v-98q2 -1 9 -1q18 0 24.5 12t6.5 38t-6.5 38t-24.5 12zM253 161v-24h-40v-38h47v-24h-76v145h76v-25h-47v-34h40zM99 73q-23 0 -36 2v143q26 4 37 4q33 0 47 -18t14 -57t-14.5 -56.5t-47.5 -17.5zM286 220h39l19 -80l19 80h40q1 -21 3.5 -78.5
t2.5 -66.5h-29q0 53 -3 104l-20 -82h-27l-20 82h-1q-2 -68 -2 -104h-28q2 84 7 145zM482 73q-29 0 -41 17.5t-12 56.5t12 57t41 18t41.5 -18t12.5 -57t-12.5 -56.5t-41.5 -17.5zM482 197q-14 0 -19 -11.5t-5 -38.5q0 -50 24 -50q15 0 20 12t5 38q0 27 -5 38.5t-20 11.5z
M472 496q34 0 48 -20t14 -43q0 -21 -16.5 -35t-35.5 -17q-104 -12 -166 -72q3 8 8.5 20.5t22.5 44.5t34.5 57t42.5 45t48 20zM139 444q26 0 52 -19.5t44 -47t32 -54.5t21 -47l7 -19q-57 72 -156 72q-24 0 -43 15t-19 37q0 26 16.5 44.5t45.5 18.5zM314 593q19 -18 24 -50
t-1.5 -64t-15.5 -62t-17 -49l-9 -18q10 93 -61 161q-17 17 -20.5 40t11.5 41q18 18 41.5 19.5t47.5 -18.5z" />
    <glyph glyph-name="period" unicode="." horiz-adv-x="285" 
d="M67 81q7 37 37.5 63t69.5 26q37 0 58.5 -26t14.5 -63q-7 -39 -37.5 -65t-67.5 -26q-39 0 -60.5 26t-14.5 65z" />
    <glyph glyph-name="slash" unicode="/" 
d="M101 197q-6 0 -9 -1v-98q2 -1 9 -1q18 0 24.5 12t6.5 38t-6.5 38t-24.5 12zM253 161v-24h-40v-38h47v-24h-76v145h76v-25h-47v-34h40zM99 73q-23 0 -36 2v143q26 4 37 4q33 0 47 -18t14 -57t-14.5 -56.5t-47.5 -17.5zM286 220h39l19 -80l19 80h40q1 -21 3.5 -78.5
t2.5 -66.5h-29q0 53 -3 104l-20 -82h-27l-20 82h-1q-2 -68 -2 -104h-28q2 84 7 145zM482 73q-29 0 -41 17.5t-12 56.5t12 57t41 18t41.5 -18t12.5 -57t-12.5 -56.5t-41.5 -17.5zM482 197q-14 0 -19 -11.5t-5 -38.5q0 -50 24 -50q15 0 20 12t5 38q0 27 -5 38.5t-20 11.5z
M472 496q34 0 48 -20t14 -43q0 -21 -16.5 -35t-35.5 -17q-104 -12 -166 -72q3 8 8.5 20.5t22.5 44.5t34.5 57t42.5 45t48 20zM139 444q26 0 52 -19.5t44 -47t32 -54.5t21 -47l7 -19q-57 72 -156 72q-24 0 -43 15t-19 37q0 26 16.5 44.5t45.5 18.5zM314 593q19 -18 24 -50
t-1.5 -64t-15.5 -62t-17 -49l-9 -18q10 93 -61 161q-17 17 -20.5 40t11.5 41q18 18 41.5 19.5t47.5 -18.5z" />
    <glyph glyph-name="zero" unicode="0" horiz-adv-x="744" 
d="M108 350q30 169 133 264.5t255 95.5q153 0 223.5 -95.5t40.5 -264.5t-134 -264.5t-257 -95.5q-152 0 -221.5 95.5t-39.5 264.5zM475 590q-81 0 -139.5 -63.5t-78.5 -176.5q-43 -240 133 -240q81 0 141 63.5t80 176.5q42 240 -136 240z" />
    <glyph glyph-name="one" unicode="1" horiz-adv-x="473" 
d="M432 700h104l-123 -700h-147l97 549l-210 -89l-26 110z" />
    <glyph glyph-name="two" unicode="2" horiz-adv-x="652" 
d="M90 120l296 223q70 52 94.5 83t30.5 69q9 52 -17 73.5t-80 21.5q-59 0 -95.5 -41.5t-48.5 -104.5h-149q9 49 29.5 93t56 84.5t94 64.5t132.5 24q52 0 95.5 -11.5t78 -36t49 -69.5t3.5 -105q-10 -53 -56 -113.5t-169 -145.5l-155 -109h351l-21 -120h-540z" />
    <glyph glyph-name="three" unicode="3" horiz-adv-x="639" 
d="M294 292l21 119h79q41 0 67 23t34 64q16 92 -86 92q-45 0 -80 -32.5t-44 -87.5h-149q18 104 92.5 172t202.5 68q110 0 172 -50.5t45 -143.5q-19 -110 -118 -159q123 -41 101 -163q-17 -95 -102.5 -149t-204.5 -54q-70 0 -121.5 20.5t-79 54t-38 74.5t-2.5 85h149
q-9 -50 16.5 -81.5t94.5 -31.5q50 0 92 28t51 73q7 39 -19 59t-75 20h-98z" />
    <glyph glyph-name="four" unicode="4" 
d="M101 197q-6 0 -9 -1v-98q2 -1 9 -1q18 0 24.5 12t6.5 38t-6.5 38t-24.5 12zM253 161v-24h-40v-38h47v-24h-76v145h76v-25h-47v-34h40zM99 73q-23 0 -36 2v143q26 4 37 4q33 0 47 -18t14 -57t-14.5 -56.5t-47.5 -17.5zM286 220h39l19 -80l19 80h40q1 -21 3.5 -78.5
t2.5 -66.5h-29q0 53 -3 104l-20 -82h-27l-20 82h-1q-2 -68 -2 -104h-28q2 84 7 145zM482 73q-29 0 -41 17.5t-12 56.5t12 57t41 18t41.5 -18t12.5 -57t-12.5 -56.5t-41.5 -17.5zM482 197q-14 0 -19 -11.5t-5 -38.5q0 -50 24 -50q15 0 20 12t5 38q0 27 -5 38.5t-20 11.5z
M472 496q34 0 48 -20t14 -43q0 -21 -16.5 -35t-35.5 -17q-104 -12 -166 -72q3 8 8.5 20.5t22.5 44.5t34.5 57t42.5 45t48 20zM139 444q26 0 52 -19.5t44 -47t32 -54.5t21 -47l7 -19q-57 72 -156 72q-24 0 -43 15t-19 37q0 26 16.5 44.5t45.5 18.5zM314 593q19 -18 24 -50
t-1.5 -64t-15.5 -62t-17 -49l-9 -18q10 93 -61 161q-17 17 -20.5 40t11.5 41q18 18 41.5 19.5t47.5 -18.5z" />
    <glyph glyph-name="five" unicode="5" horiz-adv-x="621" 
d="M130 302l120 398h411l-21 -120h-279l-47 -154q55 26 113 26q88 0 149 -61t43 -166q-19 -105 -105.5 -170t-198.5 -65q-114 0 -182.5 63.5t-50.5 170.5h147q-8 -52 18.5 -83t82.5 -31q46 0 88 31t51 79q10 58 -14.5 89t-78.5 31q-52 0 -99 -38h-147z" />
    <glyph glyph-name="six" unicode="6" horiz-adv-x="641" 
d="M458 700h180l-212 -230q106 -7 167 -72.5t43 -166.5q-19 -108 -111 -174.5t-207 -66.5q-117 0 -183.5 66t-47.5 175q14 81 74 142zM339 110q46 0 92.5 34.5t55.5 86.5q9 54 -19.5 87t-85.5 33q-46 0 -92 -34.5t-54 -85.5q-10 -55 18 -88t85 -33z" />
    <glyph glyph-name="seven" unicode="7" horiz-adv-x="538" 
d="M636 700l-20 -116l-365 -584h-162l368 580h-330l21 120h488z" />
    <glyph glyph-name="eight" unicode="8" horiz-adv-x="655" 
d="M453 710q115 0 179 -51.5t48 -140.5q-9 -51 -44 -91.5t-87 -65.5q113 -57 93 -169q-12 -64 -59.5 -111t-113.5 -69t-143 -22q-120 0 -191.5 53.5t-54.5 148.5q20 112 152 169q-93 53 -75 157q16 90 98 141t198 51zM402 420q52 0 85.5 22t40.5 63t-16 63t-80 22
q-46 0 -83 -23.5t-44 -61.5q-7 -41 19 -63t78 -22zM347 110q52 0 95.5 26t51.5 70q9 48 -21.5 70.5t-91.5 22.5q-132 0 -149 -93q-8 -47 21.5 -71.5t93.5 -24.5z" />
    <glyph glyph-name="nine" unicode="9" horiz-adv-x="641" 
d="M309 0h-180l212 230q-106 7 -166.5 72.5t-42.5 166.5q19 108 110.5 174.5t206.5 66.5q118 0 184.5 -66t47.5 -175q-13 -77 -69 -136zM428 590q-46 0 -92 -34.5t-55 -86.5q-10 -54 18.5 -87t86.5 -33q45 0 91 34.5t55 85.5q10 55 -18.5 88t-85.5 33z" />
    <glyph glyph-name="colon" unicode=":" horiz-adv-x="285" 
d="M127 421q7 37 37.5 63t69.5 26q37 0 58.5 -26t14.5 -63q-7 -39 -37.5 -65t-67.5 -26q-39 0 -60.5 26t-14.5 65zM67 81q7 37 37.5 63t69.5 26q37 0 58.5 -26t14.5 -63q-7 -39 -37.5 -65t-67.5 -26q-39 0 -60.5 26t-14.5 65z" />
    <glyph glyph-name="semicolon" unicode=";" horiz-adv-x="285" 
d="M127 421q7 37 37.5 63t69.5 26q37 0 58.5 -26t14.5 -63q-7 -39 -37.5 -65t-67.5 -26q-39 0 -60.5 26t-14.5 65zM67 81q7 37 37.5 63t69.5 26q37 0 58.5 -26t14.5 -63q-4 -23 -24 -51l-115 -164h-74l81 128q-27 8 -40 32t-8 55z" />
    <glyph glyph-name="less" unicode="&#x3c;" 
d="M101 197q-6 0 -9 -1v-98q2 -1 9 -1q18 0 24.5 12t6.5 38t-6.5 38t-24.5 12zM253 161v-24h-40v-38h47v-24h-76v145h76v-25h-47v-34h40zM99 73q-23 0 -36 2v143q26 4 37 4q33 0 47 -18t14 -57t-14.5 -56.5t-47.5 -17.5zM286 220h39l19 -80l19 80h40q1 -21 3.5 -78.5
t2.5 -66.5h-29q0 53 -3 104l-20 -82h-27l-20 82h-1q-2 -68 -2 -104h-28q2 84 7 145zM482 73q-29 0 -41 17.5t-12 56.5t12 57t41 18t41.5 -18t12.5 -57t-12.5 -56.5t-41.5 -17.5zM482 197q-14 0 -19 -11.5t-5 -38.5q0 -50 24 -50q15 0 20 12t5 38q0 27 -5 38.5t-20 11.5z
M472 496q34 0 48 -20t14 -43q0 -21 -16.5 -35t-35.5 -17q-104 -12 -166 -72q3 8 8.5 20.5t22.5 44.5t34.5 57t42.5 45t48 20zM139 444q26 0 52 -19.5t44 -47t32 -54.5t21 -47l7 -19q-57 72 -156 72q-24 0 -43 15t-19 37q0 26 16.5 44.5t45.5 18.5zM314 593q19 -18 24 -50
t-1.5 -64t-15.5 -62t-17 -49l-9 -18q10 93 -61 161q-17 17 -20.5 40t11.5 41q18 18 41.5 19.5t47.5 -18.5z" />
    <glyph glyph-name="equal" unicode="=" 
d="M101 197q-6 0 -9 -1v-98q2 -1 9 -1q18 0 24.5 12t6.5 38t-6.5 38t-24.5 12zM253 161v-24h-40v-38h47v-24h-76v145h76v-25h-47v-34h40zM99 73q-23 0 -36 2v143q26 4 37 4q33 0 47 -18t14 -57t-14.5 -56.5t-47.5 -17.5zM286 220h39l19 -80l19 80h40q1 -21 3.5 -78.5
t2.5 -66.5h-29q0 53 -3 104l-20 -82h-27l-20 82h-1q-2 -68 -2 -104h-28q2 84 7 145zM482 73q-29 0 -41 17.5t-12 56.5t12 57t41 18t41.5 -18t12.5 -57t-12.5 -56.5t-41.5 -17.5zM482 197q-14 0 -19 -11.5t-5 -38.5q0 -50 24 -50q15 0 20 12t5 38q0 27 -5 38.5t-20 11.5z
M472 496q34 0 48 -20t14 -43q0 -21 -16.5 -35t-35.5 -17q-104 -12 -166 -72q3 8 8.5 20.5t22.5 44.5t34.5 57t42.5 45t48 20zM139 444q26 0 52 -19.5t44 -47t32 -54.5t21 -47l7 -19q-57 72 -156 72q-24 0 -43 15t-19 37q0 26 16.5 44.5t45.5 18.5zM314 593q19 -18 24 -50
t-1.5 -64t-15.5 -62t-17 -49l-9 -18q10 93 -61 161q-17 17 -20.5 40t11.5 41q18 18 41.5 19.5t47.5 -18.5z" />
    <glyph glyph-name="greater" unicode="&#x3e;" 
d="M101 197q-6 0 -9 -1v-98q2 -1 9 -1q18 0 24.5 12t6.5 38t-6.5 38t-24.5 12zM253 161v-24h-40v-38h47v-24h-76v145h76v-25h-47v-34h40zM99 73q-23 0 -36 2v143q26 4 37 4q33 0 47 -18t14 -57t-14.5 -56.5t-47.5 -17.5zM286 220h39l19 -80l19 80h40q1 -21 3.5 -78.5
t2.5 -66.5h-29q0 53 -3 104l-20 -82h-27l-20 82h-1q-2 -68 -2 -104h-28q2 84 7 145zM482 73q-29 0 -41 17.5t-12 56.5t12 57t41 18t41.5 -18t12.5 -57t-12.5 -56.5t-41.5 -17.5zM482 197q-14 0 -19 -11.5t-5 -38.5q0 -50 24 -50q15 0 20 12t5 38q0 27 -5 38.5t-20 11.5z
M472 496q34 0 48 -20t14 -43q0 -21 -16.5 -35t-35.5 -17q-104 -12 -166 -72q3 8 8.5 20.5t22.5 44.5t34.5 57t42.5 45t48 20zM139 444q26 0 52 -19.5t44 -47t32 -54.5t21 -47l7 -19q-57 72 -156 72q-24 0 -43 15t-19 37q0 26 16.5 44.5t45.5 18.5zM314 593q19 -18 24 -50
t-1.5 -64t-15.5 -62t-17 -49l-9 -18q10 93 -61 161q-17 17 -20.5 40t11.5 41q18 18 41.5 19.5t47.5 -18.5z" />
    <glyph glyph-name="question" unicode="?" horiz-adv-x="617" 
d="M269 229l4 23q14 80 36.5 108.5t93.5 65.5q64 33 83 53q20 21 25 49q6 35 -16 48.5t-76 13.5q-58 0 -92.5 -31.5t-42.5 -78.5h-149q9 49 27 87.5t52.5 72.5t93 52.5t137.5 18.5q110 0 171 -44t45 -134q-12 -68 -44 -108.5t-96 -75.5q-57 -31 -76 -48.5t-26 -54.5l-3 -17
h-147zM231 76q7 36 35.5 60.5t65.5 24.5q35 0 55.5 -24.5t13.5 -60.5q-6 -37 -35 -61.5t-64 -24.5q-37 0 -57 24.5t-14 61.5z" />
    <glyph glyph-name="at" unicode="@" 
d="M101 197q-6 0 -9 -1v-98q2 -1 9 -1q18 0 24.5 12t6.5 38t-6.5 38t-24.5 12zM253 161v-24h-40v-38h47v-24h-76v145h76v-25h-47v-34h40zM99 73q-23 0 -36 2v143q26 4 37 4q33 0 47 -18t14 -57t-14.5 -56.5t-47.5 -17.5zM286 220h39l19 -80l19 80h40q1 -21 3.5 -78.5
t2.5 -66.5h-29q0 53 -3 104l-20 -82h-27l-20 82h-1q-2 -68 -2 -104h-28q2 84 7 145zM482 73q-29 0 -41 17.5t-12 56.5t12 57t41 18t41.5 -18t12.5 -57t-12.5 -56.5t-41.5 -17.5zM482 197q-14 0 -19 -11.5t-5 -38.5q0 -50 24 -50q15 0 20 12t5 38q0 27 -5 38.5t-20 11.5z
M472 496q34 0 48 -20t14 -43q0 -21 -16.5 -35t-35.5 -17q-104 -12 -166 -72q3 8 8.5 20.5t22.5 44.5t34.5 57t42.5 45t48 20zM139 444q26 0 52 -19.5t44 -47t32 -54.5t21 -47l7 -19q-57 72 -156 72q-24 0 -43 15t-19 37q0 26 16.5 44.5t45.5 18.5zM314 593q19 -18 24 -50
t-1.5 -64t-15.5 -62t-17 -49l-9 -18q10 93 -61 161q-17 17 -20.5 40t11.5 41q18 18 41.5 19.5t47.5 -18.5z" />
    <glyph glyph-name="A" unicode="A" horiz-adv-x="812" 
d="M456 700h147l184 -699h-149l-34 142h-326l-84 -142h-169zM348 263h228l-65 275z" />
    <glyph glyph-name="B" unicode="B" horiz-adv-x="703" 
d="M60 0l123 700h317q31 0 58 -3t60 -14.5t54.5 -31t32.5 -55.5t2 -84q-18 -103 -116 -149q123 -40 101 -164q-11 -60 -42.5 -102t-75 -61.5t-81.5 -27.5t-76 -8h-357zM280 414h157q104 0 119 83q5 29 -1 47t-22.5 25t-30 9t-36.5 2h-157zM228 120h191q110 0 126 88
q5 29 -2.5 48t-25.5 26.5t-32.5 9.5t-34.5 2h-191z" />
    <glyph glyph-name="C" unicode="C" horiz-adv-x="800" 
d="M257 350q-21 -121 30 -180.5t146 -59.5q78 0 143 50t76 112h149q-9 -48 -39 -97t-78 -91t-119.5 -68t-152.5 -26q-157 0 -245 98.5t-59 261.5t151.5 261.5t279.5 98.5q81 0 143 -26t95 -68t46.5 -91t4.5 -97h-149q12 66 -29.5 114t-131.5 48q-84 0 -162 -61t-99 -179z
" />
    <glyph glyph-name="D" unicode="D" horiz-adv-x="782" 
d="M479 700q79 0 143.5 -23.5t109 -66.5t63 -110t3.5 -150q-29 -164 -154 -257t-288 -93h-296l123 700h296zM228 120h149q99 0 176 60t96 170q20 114 -30 172t-161 58h-149z" />
    <glyph glyph-name="E" unicode="E" horiz-adv-x="612" 
d="M183 700h513l-21 -120h-366l-28 -163h336l-22 -120h-336l-31 -177h366l-21 -120h-513z" />
    <glyph glyph-name="F" unicode="F" horiz-adv-x="588" 
d="M179 700h501l-21 -120h-354l-31 -178h324l-21 -120h-324l-50 -282h-147z" />
    <glyph glyph-name="G" unicode="G" horiz-adv-x="810" 
d="M257 352q-20 -114 29.5 -176t159.5 -62q80 0 142 36.5t87 106.5h-233l22 121h367l-67 -378h-130l14 80q-92 -86 -233 -86q-154 0 -244.5 98t-62.5 260q28 161 155.5 259.5t282.5 98.5q142 0 223 -79.5t65 -170.5h-149q10 54 -32 92t-130 38q-96 0 -171 -62t-95 -176z" />
    <glyph glyph-name="H" unicode="H" horiz-adv-x="828" 
d="M183 700h147l-49 -282h414l49 282h147l-123 -700h-147l53 298h-414l-53 -298h-147z" />
    <glyph glyph-name="I" unicode="I" horiz-adv-x="267" 
d="M183 700h147l-123 -700h-147z" />
    <glyph glyph-name="J" unicode="J" horiz-adv-x="652" 
d="M568 700h147l-76 -435q-22 -123 -105.5 -199t-216.5 -76q-137 0 -192 76.5t-32 206.5h149q-13 -78 6.5 -120.5t90.5 -42.5q56 0 98.5 45t54.5 110z" />
    <glyph glyph-name="K" unicode="K" horiz-adv-x="732" 
d="M183 700h147l-54 -310h84l263 310h176l-320 -364l228 -336h-184l-173 270h-95l-48 -270h-147z" />
    <glyph glyph-name="L" unicode="L" horiz-adv-x="619" 
d="M183 700h147l-102 -580h374l-21 -120h-521z" />
    <glyph glyph-name="M" unicode="M" horiz-adv-x="922" 
d="M184 700h147l158 -538l349 538h147l-123 -700h-147l71 406l-248 -406h-146l-111 415l-73 -415h-147z" />
    <glyph glyph-name="N" unicode="N" horiz-adv-x="822" 
d="M183 700h147l321 -496l87 496h147l-123 -700h-147l-322 486l-86 -486h-147z" />
    <glyph glyph-name="O" unicode="O" horiz-adv-x="852" 
d="M108 350q19 109 86.5 192.5t160.5 125.5t195 42q76 0 140.5 -25t109 -70t63.5 -114t4 -151q-19 -109 -87 -192.5t-161 -125.5t-196 -42q-158 0 -251 98t-64 262zM529 590q-93 0 -173.5 -67t-98.5 -173q-19 -109 32 -174.5t155 -65.5q93 0 174 67t100 173
q19 109 -33 174.5t-156 65.5z" />
    <glyph glyph-name="P" unicode="P" horiz-adv-x="684" 
d="M509 700q27 0 55 -4.5t63.5 -19.5t60.5 -39.5t37.5 -69t2.5 -103.5q-11 -59 -39 -103.5t-61.5 -69t-74.5 -39.5t-70.5 -19.5t-56.5 -4.5h-179l-40 -228h-147l123 700h326zM268 348h166q15 0 34.5 5t43.5 17t42.5 36.5t24.5 57.5q11 63 -21.5 89.5t-82.5 26.5h-166z" />
    <glyph glyph-name="Q" unicode="Q" horiz-adv-x="852" 
d="M622 -200l-131 195q-38 -5 -68 -5q-158 0 -251 98t-64 262q19 109 86.5 192.5t160.5 125.5t195 42q76 0 140.5 -25t109 -70t63.5 -114t4 -151q-19 -106 -81.5 -186t-153.5 -125l167 -239h-177zM529 590q-93 0 -173.5 -67t-98.5 -173q-19 -109 32 -174.5t155 -65.5
q93 0 174 67t100 173q19 109 -33 174.5t-156 65.5z" />
    <glyph glyph-name="R" unicode="R" horiz-adv-x="734" 
d="M527 700q29 0 59.5 -5t64.5 -20t58.5 -38.5t36 -64.5t2.5 -94q-16 -91 -74 -144.5t-134 -75.5l146 -258h-170l-135 243h-131l-43 -243h-147l123 700h344zM271 363h185q39 0 86 27.5t56 81.5q10 55 -22 81.5t-82 26.5h-185z" />
    <glyph glyph-name="S" unicode="S" horiz-adv-x="735" 
d="M233 230q-10 -55 27.5 -85.5t131.5 -30.5q73 0 126 23t60 60q6 33 -27.5 47t-129.5 31q-35 6 -54 10q-124 23 -173 76t-33 143q17 97 110 151.5t218 54.5q158 0 223 -66.5t48 -166.5h-149q8 50 -23 79.5t-121 29.5q-58 0 -104 -21t-52 -56q-7 -40 25 -54t156 -37
q50 -9 83 -17.5t69 -24t55 -36t28.5 -54t1.5 -76.5q-17 -99 -107.5 -159.5t-245.5 -60.5q-86 0 -148.5 20.5t-95.5 55t-45 76t-3 88.5h149z" />
    <glyph glyph-name="T" unicode="T" horiz-adv-x="687" 
d="M155 700h624l-21 -120h-239l-102 -580h-147l102 580h-238z" />
    <glyph glyph-name="U" unicode="U" horiz-adv-x="754" 
d="M670 700h147l-72 -410q-52 -300 -372 -300q-158 0 -223.5 73.5t-38.5 226.5l72 410h147l-72 -410q-17 -96 13 -138t123 -42q173 0 204 180z" />
    <glyph glyph-name="V" unicode="V" horiz-adv-x="825" 
d="M339 0l-185 700h152l126 -550l321 550h163l-430 -700h-147z" />
    <glyph glyph-name="W" unicode="W" horiz-adv-x="1078" 
d="M249 0l-95 700h149l55 -498l224 498h154l49 -493l227 493h158l-347 -700h-147l-49 481l-219 -481h-159z" />
    <glyph glyph-name="X" unicode="X" horiz-adv-x="846" 
d="M29 0l368 365l-207 335h179l139 -246l216 246h182l-316 -338l224 -362h-179l-151 272l-258 -272h-197z" />
    <glyph glyph-name="Y" unicode="Y" horiz-adv-x="797" 
d="M362 210l-208 490h162l139 -339l256 339h178l-380 -490l-37 -210h-147z" />
    <glyph glyph-name="Z" unicode="Z" horiz-adv-x="634" 
d="M700 700l-20 -116l-438 -464h382l-21 -120h-572l20 116l440 464h-350l21 120h538z" />
    <glyph glyph-name="bracketleft" unicode="[" 
d="M101 197q-6 0 -9 -1v-98q2 -1 9 -1q18 0 24.5 12t6.5 38t-6.5 38t-24.5 12zM253 161v-24h-40v-38h47v-24h-76v145h76v-25h-47v-34h40zM99 73q-23 0 -36 2v143q26 4 37 4q33 0 47 -18t14 -57t-14.5 -56.5t-47.5 -17.5zM286 220h39l19 -80l19 80h40q1 -21 3.5 -78.5
t2.5 -66.5h-29q0 53 -3 104l-20 -82h-27l-20 82h-1q-2 -68 -2 -104h-28q2 84 7 145zM482 73q-29 0 -41 17.5t-12 56.5t12 57t41 18t41.5 -18t12.5 -57t-12.5 -56.5t-41.5 -17.5zM482 197q-14 0 -19 -11.5t-5 -38.5q0 -50 24 -50q15 0 20 12t5 38q0 27 -5 38.5t-20 11.5z
M472 496q34 0 48 -20t14 -43q0 -21 -16.5 -35t-35.5 -17q-104 -12 -166 -72q3 8 8.5 20.5t22.5 44.5t34.5 57t42.5 45t48 20zM139 444q26 0 52 -19.5t44 -47t32 -54.5t21 -47l7 -19q-57 72 -156 72q-24 0 -43 15t-19 37q0 26 16.5 44.5t45.5 18.5zM314 593q19 -18 24 -50
t-1.5 -64t-15.5 -62t-17 -49l-9 -18q10 93 -61 161q-17 17 -20.5 40t11.5 41q18 18 41.5 19.5t47.5 -18.5z" />
    <glyph glyph-name="backslash" unicode="\" 
d="M101 197q-6 0 -9 -1v-98q2 -1 9 -1q18 0 24.5 12t6.5 38t-6.5 38t-24.5 12zM253 161v-24h-40v-38h47v-24h-76v145h76v-25h-47v-34h40zM99 73q-23 0 -36 2v143q26 4 37 4q33 0 47 -18t14 -57t-14.5 -56.5t-47.5 -17.5zM286 220h39l19 -80l19 80h40q1 -21 3.5 -78.5
t2.5 -66.5h-29q0 53 -3 104l-20 -82h-27l-20 82h-1q-2 -68 -2 -104h-28q2 84 7 145zM482 73q-29 0 -41 17.5t-12 56.5t12 57t41 18t41.5 -18t12.5 -57t-12.5 -56.5t-41.5 -17.5zM482 197q-14 0 -19 -11.5t-5 -38.5q0 -50 24 -50q15 0 20 12t5 38q0 27 -5 38.5t-20 11.5z
M472 496q34 0 48 -20t14 -43q0 -21 -16.5 -35t-35.5 -17q-104 -12 -166 -72q3 8 8.5 20.5t22.5 44.5t34.5 57t42.5 45t48 20zM139 444q26 0 52 -19.5t44 -47t32 -54.5t21 -47l7 -19q-57 72 -156 72q-24 0 -43 15t-19 37q0 26 16.5 44.5t45.5 18.5zM314 593q19 -18 24 -50
t-1.5 -64t-15.5 -62t-17 -49l-9 -18q10 93 -61 161q-17 17 -20.5 40t11.5 41q18 18 41.5 19.5t47.5 -18.5z" />
    <glyph glyph-name="bracketright" unicode="]" 
d="M101 197q-6 0 -9 -1v-98q2 -1 9 -1q18 0 24.5 12t6.5 38t-6.5 38t-24.5 12zM253 161v-24h-40v-38h47v-24h-76v145h76v-25h-47v-34h40zM99 73q-23 0 -36 2v143q26 4 37 4q33 0 47 -18t14 -57t-14.5 -56.5t-47.5 -17.5zM286 220h39l19 -80l19 80h40q1 -21 3.5 -78.5
t2.5 -66.5h-29q0 53 -3 104l-20 -82h-27l-20 82h-1q-2 -68 -2 -104h-28q2 84 7 145zM482 73q-29 0 -41 17.5t-12 56.5t12 57t41 18t41.5 -18t12.5 -57t-12.5 -56.5t-41.5 -17.5zM482 197q-14 0 -19 -11.5t-5 -38.5q0 -50 24 -50q15 0 20 12t5 38q0 27 -5 38.5t-20 11.5z
M472 496q34 0 48 -20t14 -43q0 -21 -16.5 -35t-35.5 -17q-104 -12 -166 -72q3 8 8.5 20.5t22.5 44.5t34.5 57t42.5 45t48 20zM139 444q26 0 52 -19.5t44 -47t32 -54.5t21 -47l7 -19q-57 72 -156 72q-24 0 -43 15t-19 37q0 26 16.5 44.5t45.5 18.5zM314 593q19 -18 24 -50
t-1.5 -64t-15.5 -62t-17 -49l-9 -18q10 93 -61 161q-17 17 -20.5 40t11.5 41q18 18 41.5 19.5t47.5 -18.5z" />
    <glyph glyph-name="asciicircum" unicode="^" 
d="M101 197q-6 0 -9 -1v-98q2 -1 9 -1q18 0 24.5 12t6.5 38t-6.5 38t-24.5 12zM253 161v-24h-40v-38h47v-24h-76v145h76v-25h-47v-34h40zM99 73q-23 0 -36 2v143q26 4 37 4q33 0 47 -18t14 -57t-14.5 -56.5t-47.5 -17.5zM286 220h39l19 -80l19 80h40q1 -21 3.5 -78.5
t2.5 -66.5h-29q0 53 -3 104l-20 -82h-27l-20 82h-1q-2 -68 -2 -104h-28q2 84 7 145zM482 73q-29 0 -41 17.5t-12 56.5t12 57t41 18t41.5 -18t12.5 -57t-12.5 -56.5t-41.5 -17.5zM482 197q-14 0 -19 -11.5t-5 -38.5q0 -50 24 -50q15 0 20 12t5 38q0 27 -5 38.5t-20 11.5z
M472 496q34 0 48 -20t14 -43q0 -21 -16.5 -35t-35.5 -17q-104 -12 -166 -72q3 8 8.5 20.5t22.5 44.5t34.5 57t42.5 45t48 20zM139 444q26 0 52 -19.5t44 -47t32 -54.5t21 -47l7 -19q-57 72 -156 72q-24 0 -43 15t-19 37q0 26 16.5 44.5t45.5 18.5zM314 593q19 -18 24 -50
t-1.5 -64t-15.5 -62t-17 -49l-9 -18q10 93 -61 161q-17 17 -20.5 40t11.5 41q18 18 41.5 19.5t47.5 -18.5z" />
    <glyph glyph-name="underscore" unicode="_" 
d="M101 197q-6 0 -9 -1v-98q2 -1 9 -1q18 0 24.5 12t6.5 38t-6.5 38t-24.5 12zM253 161v-24h-40v-38h47v-24h-76v145h76v-25h-47v-34h40zM99 73q-23 0 -36 2v143q26 4 37 4q33 0 47 -18t14 -57t-14.5 -56.5t-47.5 -17.5zM286 220h39l19 -80l19 80h40q1 -21 3.5 -78.5
t2.5 -66.5h-29q0 53 -3 104l-20 -82h-27l-20 82h-1q-2 -68 -2 -104h-28q2 84 7 145zM482 73q-29 0 -41 17.5t-12 56.5t12 57t41 18t41.5 -18t12.5 -57t-12.5 -56.5t-41.5 -17.5zM482 197q-14 0 -19 -11.5t-5 -38.5q0 -50 24 -50q15 0 20 12t5 38q0 27 -5 38.5t-20 11.5z
M472 496q34 0 48 -20t14 -43q0 -21 -16.5 -35t-35.5 -17q-104 -12 -166 -72q3 8 8.5 20.5t22.5 44.5t34.5 57t42.5 45t48 20zM139 444q26 0 52 -19.5t44 -47t32 -54.5t21 -47l7 -19q-57 72 -156 72q-24 0 -43 15t-19 37q0 26 16.5 44.5t45.5 18.5zM314 593q19 -18 24 -50
t-1.5 -64t-15.5 -62t-17 -49l-9 -18q10 93 -61 161q-17 17 -20.5 40t11.5 41q18 18 41.5 19.5t47.5 -18.5z" />
    <glyph glyph-name="grave" unicode="`" 
d="M101 197q-6 0 -9 -1v-98q2 -1 9 -1q18 0 24.5 12t6.5 38t-6.5 38t-24.5 12zM253 161v-24h-40v-38h47v-24h-76v145h76v-25h-47v-34h40zM99 73q-23 0 -36 2v143q26 4 37 4q33 0 47 -18t14 -57t-14.5 -56.5t-47.5 -17.5zM286 220h39l19 -80l19 80h40q1 -21 3.5 -78.5
t2.5 -66.5h-29q0 53 -3 104l-20 -82h-27l-20 82h-1q-2 -68 -2 -104h-28q2 84 7 145zM482 73q-29 0 -41 17.5t-12 56.5t12 57t41 18t41.5 -18t12.5 -57t-12.5 -56.5t-41.5 -17.5zM482 197q-14 0 -19 -11.5t-5 -38.5q0 -50 24 -50q15 0 20 12t5 38q0 27 -5 38.5t-20 11.5z
M472 496q34 0 48 -20t14 -43q0 -21 -16.5 -35t-35.5 -17q-104 -12 -166 -72q3 8 8.5 20.5t22.5 44.5t34.5 57t42.5 45t48 20zM139 444q26 0 52 -19.5t44 -47t32 -54.5t21 -47l7 -19q-57 72 -156 72q-24 0 -43 15t-19 37q0 26 16.5 44.5t45.5 18.5zM314 593q19 -18 24 -50
t-1.5 -64t-15.5 -62t-17 -49l-9 -18q10 93 -61 161q-17 17 -20.5 40t11.5 41q18 18 41.5 19.5t47.5 -18.5z" />
    <glyph glyph-name="a" unicode="a" horiz-adv-x="582" 
d="M186 500h199q119 0 157.5 -51t21.5 -147l-19 -108q-8 -43 3 -59.5t51 -16.5h8l-21 -118h-100q-55 0 -74 19.5t-16 64.5q-59 -94 -175 -94q-180 0 -152 159q14 79 68.5 119t164.5 40h119q8 42 -5 58t-73 16h-178zM404 212h-113q-66 0 -74 -50q-5 -28 9.5 -40.5t55.5 -12.5
q40 0 75.5 18.5t42.5 57.5z" />
    <glyph glyph-name="b" unicode="b" horiz-adv-x="646" 
d="M654 250q-20 -115 -98 -187.5t-185 -72.5q-120 0 -162 91l-14 -81h-144l124 703l143 -3l-49 -281q75 91 194 91q107 0 159 -72.5t32 -187.5zM246 291l-13 -77q-8 -45 24 -75.5t89 -30.5q54 0 102 39.5t59 102.5q12 67 -17 104.5t-94 37.5q-44 0 -91.5 -30t-58.5 -71z" />
    <glyph glyph-name="c" unicode="c" horiz-adv-x="604" 
d="M227 251q-12 -68 15 -105.5t90 -37.5q41 0 79.5 29.5t45.5 64.5h147q-15 -83 -90.5 -147.5t-200.5 -64.5q-128 0 -191.5 69.5t-41.5 191.5q22 121 109.5 190t215.5 69q65 0 112 -19t70.5 -50.5t32 -67.5t1.5 -74h-147q7 38 -16 65.5t-76 27.5q-51 0 -97.5 -38.5
t-57.5 -102.5z" />
    <glyph glyph-name="d" unicode="d" horiz-adv-x="646" 
d="M80 250q20 115 98 187.5t185 72.5q118 0 162 -90l49 280h145l-123 -700h-145l14 80q-76 -90 -194 -90q-107 0 -159 72.5t-32 187.5zM338 108q46 0 94.5 32t56.5 74l12 72q8 45 -24 75.5t-89 30.5q-54 0 -102 -39.5t-59 -102.5q-11 -67 17.5 -104.5t93.5 -37.5z" />
    <glyph glyph-name="e" unicode="e" horiz-adv-x="604" 
d="M213 206q3 -97 111 -97q49 0 87.5 17.5t43.5 46.5h139q-24 -77 -101 -130t-196 -53q-115 0 -176.5 70.5t-40.5 189.5q21 120 107.5 190.5t201.5 70.5q127 0 184.5 -70.5t38.5 -184.5l-9 -50h-390zM482 296q1 51 -26.5 74t-81.5 23q-40 0 -80.5 -25t-62.5 -72h251z" />
    <glyph glyph-name="f" unicode="f" horiz-adv-x="404" 
d="M482 592h-62q-46 0 -63.5 -10.5t-25.5 -55.5l-5 -26h141l-21 -118h-140l-68 -382h-145l67 382h-67l21 118h67l9 51q29 159 195 159h118z" />
    <glyph glyph-name="g" unicode="g" horiz-adv-x="646" 
d="M101 -82h212q62 0 97 24t46 84l9 54q-76 -90 -194 -90q-107 0 -159 72.5t-32 187.5t98 187.5t185 72.5q118 0 162 -90l14 80h145l-80 -455q-21 -123 -93.5 -184t-206.5 -61h-224zM338 108q46 0 94.5 32t56.5 74l12 72q8 45 -24 75.5t-89 30.5q-54 0 -102 -39.5
t-59 -102.5q-11 -67 17.5 -104.5t93.5 -37.5z" />
    <glyph glyph-name="h" unicode="h" horiz-adv-x="612" 
d="M173 700h145l-51 -290q37 47 89.5 73.5t110.5 26.5q95 0 131 -53t19 -146l-55 -311h-145l48 274q11 61 -4.5 89.5t-81.5 28.5q-44 0 -85.5 -34t-50.5 -88l-48 -270h-145z" />
    <glyph glyph-name="i" unicode="i" horiz-adv-x="238" 
d="M150 651q6 35 35 59.5t66 24.5q35 0 55 -24.5t14 -59.5q-7 -36 -35.5 -61t-63.5 -25q-37 0 -57.5 24.5t-13.5 61.5zM134 500h145l-88 -500h-145z" />
    <glyph glyph-name="j" unicode="j" horiz-adv-x="238" 
d="M148 651q6 35 35 59.5t66 24.5q35 0 55 -24.5t14 -59.5q-7 -36 -35.5 -61t-63.5 -25q-37 0 -57.5 24.5t-13.5 61.5zM-100 -82h55q42 0 62 15.5t27 57.5l90 509h145l-95 -541q-29 -159 -194 -159h-111z" />
    <glyph glyph-name="k" unicode="k" horiz-adv-x="610" 
d="M173 700h145l-67 -381h69l153 181h168l-211 -236l151 -264h-172l-105 201h-74l-35 -201h-145z" />
    <glyph glyph-name="l" unicode="l" horiz-adv-x="278" 
d="M291 118l-21 -118h-91q-70 0 -94 33t-11 105l99 562h145l-89 -506q-8 -43 2.5 -59.5t49.5 -16.5h10z" />
    <glyph glyph-name="m" unicode="m" horiz-adv-x="927" 
d="M139 500h145l-16 -91q72 101 184 101q133 0 144 -121q34 57 86 89t111 32q88 0 122 -53.5t18 -145.5l-55 -311h-145l49 280q10 58 -5 85t-69 27q-43 0 -78 -30.5t-44 -85.5l-49 -276h-145l49 280q10 58 -5 85t-69 27q-43 0 -78 -30.5t-44 -85.5l-49 -276h-145z" />
    <glyph glyph-name="n" unicode="n" horiz-adv-x="612" 
d="M138 500h145l-16 -90q37 47 89.5 73.5t110.5 26.5q95 0 131 -53t19 -146l-55 -311h-145l48 274q11 61 -4.5 89.5t-81.5 28.5q-44 0 -85.5 -34t-50.5 -88l-48 -270h-145z" />
    <glyph glyph-name="o" unicode="o" horiz-adv-x="635" 
d="M407 510q119 0 187.5 -70.5t47.5 -189.5t-114.5 -189.5t-212.5 -70.5t-187.5 70.5t-47.5 189.5t114.5 189.5t212.5 70.5zM336 108q53 0 101 42t58 100q11 62 -16.5 102t-92.5 40q-53 0 -101 -42t-58 -100q-11 -62 17 -102t92 -40z" />
    <glyph glyph-name="p" unicode="p" horiz-adv-x="646" 
d="M138 500h145l-14 -81q75 91 194 91q107 0 159 -72.5t32 -187.5t-98 -187.5t-185 -72.5q-57 0 -99.5 23.5t-62.5 66.5l-49 -280h-145zM233 214q-8 -45 24 -75.5t89 -30.5q54 0 102 39.5t59 102.5q12 67 -17 104.5t-94 37.5q-44 0 -91 -29.5t-58 -69.5l-3 -13v-3l-11 -59
v-4z" />
    <glyph glyph-name="q" unicode="q" horiz-adv-x="646" 
d="M684 500l-123 -700h-145l49 280q-76 -90 -194 -90q-107 0 -159 72.5t-32 187.5t98 187.5t185 72.5q118 0 162 -90l14 80h145zM488 209l13 77q8 45 -24 75.5t-89 30.5q-54 0 -102 -39.5t-59 -102.5q-11 -67 17.5 -104.5t93.5 -37.5q44 0 91.5 30t58.5 71z" />
    <glyph glyph-name="r" unicode="r" horiz-adv-x="420" 
d="M138 500h145l-15 -86q35 44 81.5 70t90.5 26h49l-21 -118h-99q-105 0 -126 -119l-48 -273h-145z" />
    <glyph glyph-name="s" unicode="s" horiz-adv-x="572" 
d="M212 165q-6 -37 17 -53t84 -16q44 0 70 11.5t29 29.5t-20 27t-100 26q-11 3 -17 4q-89 20 -131 56.5t-30 104.5q9 52 50 88.5t93.5 51.5t111.5 15q122 0 172.5 -52t37.5 -123h-147q3 19 1.5 34.5t-21 25t-59.5 9.5q-34 0 -60.5 -10t-29.5 -28q-4 -21 22 -32.5t115 -30.5
q44 -10 69.5 -18.5t53 -25t37 -43.5t3.5 -65q-13 -73 -88 -117t-188 -44q-118 0 -176 53.5t-46 121.5h147z" />
    <glyph glyph-name="t" unicode="t" horiz-adv-x="413" 
d="M114 500h71l21 120h145l-21 -120h147l-21 -118h-147l-34 -192q-7 -41 8 -56.5t58 -15.5h68l-21 -118h-124q-166 0 -139 159l39 223h-71z" />
    <glyph glyph-name="u" unicode="u" horiz-adv-x="645" 
d="M658 118l-21 -118h-91q-59 0 -85 23t-24 72q-81 -105 -204 -105q-95 0 -131 53t-19 146l55 311h145l-48 -274q-11 -61 4.5 -89.5t81.5 -28.5q44 0 85.5 34t51.5 88l47 270h145l-54 -306q-8 -43 2.5 -59.5t49.5 -16.5h10z" />
    <glyph glyph-name="v" unicode="v" horiz-adv-x="644" 
d="M113 500h150l79 -329l197 329h158l-318 -500h-124z" />
    <glyph glyph-name="w" unicode="w" horiz-adv-x="816" 
d="M113 500h136l27 -328l151 328h139l35 -321l132 321h146l-238 -500h-134l-32 344l-154 -344h-146z" />
    <glyph glyph-name="x" unicode="x" horiz-adv-x="655" 
d="M25 0l253 261l-145 239h168l81 -149l134 149h182l-230 -239l162 -261h-170l-93 170l-152 -170h-190z" />
    <glyph glyph-name="y" unicode="y" horiz-adv-x="609" 
d="M672 500l-302 -510q-29 -50 -48 -76t-46 -52t-59 -37t-78 -18t-112 -7l21 118q49 0 79 3.5t49.5 16t27.5 22.5t24 36l7 11l-122 493h156l65 -326l175 326h163z" />
    <glyph glyph-name="z" unicode="z" horiz-adv-x="513" 
d="M557 500l-18 -101l-300 -281h270l-21 -118h-459l18 102l300 280h-243l21 118h432z" />
    <glyph glyph-name="braceleft" unicode="{" 
d="M101 197q-6 0 -9 -1v-98q2 -1 9 -1q18 0 24.5 12t6.5 38t-6.5 38t-24.5 12zM253 161v-24h-40v-38h47v-24h-76v145h76v-25h-47v-34h40zM99 73q-23 0 -36 2v143q26 4 37 4q33 0 47 -18t14 -57t-14.5 -56.5t-47.5 -17.5zM286 220h39l19 -80l19 80h40q1 -21 3.5 -78.5
t2.5 -66.5h-29q0 53 -3 104l-20 -82h-27l-20 82h-1q-2 -68 -2 -104h-28q2 84 7 145zM482 73q-29 0 -41 17.5t-12 56.5t12 57t41 18t41.5 -18t12.5 -57t-12.5 -56.5t-41.5 -17.5zM482 197q-14 0 -19 -11.5t-5 -38.5q0 -50 24 -50q15 0 20 12t5 38q0 27 -5 38.5t-20 11.5z
M472 496q34 0 48 -20t14 -43q0 -21 -16.5 -35t-35.5 -17q-104 -12 -166 -72q3 8 8.5 20.5t22.5 44.5t34.5 57t42.5 45t48 20zM139 444q26 0 52 -19.5t44 -47t32 -54.5t21 -47l7 -19q-57 72 -156 72q-24 0 -43 15t-19 37q0 26 16.5 44.5t45.5 18.5zM314 593q19 -18 24 -50
t-1.5 -64t-15.5 -62t-17 -49l-9 -18q10 93 -61 161q-17 17 -20.5 40t11.5 41q18 18 41.5 19.5t47.5 -18.5z" />
    <glyph glyph-name="bar" unicode="|" 
d="M101 197q-6 0 -9 -1v-98q2 -1 9 -1q18 0 24.5 12t6.5 38t-6.5 38t-24.5 12zM253 161v-24h-40v-38h47v-24h-76v145h76v-25h-47v-34h40zM99 73q-23 0 -36 2v143q26 4 37 4q33 0 47 -18t14 -57t-14.5 -56.5t-47.5 -17.5zM286 220h39l19 -80l19 80h40q1 -21 3.5 -78.5
t2.5 -66.5h-29q0 53 -3 104l-20 -82h-27l-20 82h-1q-2 -68 -2 -104h-28q2 84 7 145zM482 73q-29 0 -41 17.5t-12 56.5t12 57t41 18t41.5 -18t12.5 -57t-12.5 -56.5t-41.5 -17.5zM482 197q-14 0 -19 -11.5t-5 -38.5q0 -50 24 -50q15 0 20 12t5 38q0 27 -5 38.5t-20 11.5z
M472 496q34 0 48 -20t14 -43q0 -21 -16.5 -35t-35.5 -17q-104 -12 -166 -72q3 8 8.5 20.5t22.5 44.5t34.5 57t42.5 45t48 20zM139 444q26 0 52 -19.5t44 -47t32 -54.5t21 -47l7 -19q-57 72 -156 72q-24 0 -43 15t-19 37q0 26 16.5 44.5t45.5 18.5zM314 593q19 -18 24 -50
t-1.5 -64t-15.5 -62t-17 -49l-9 -18q10 93 -61 161q-17 17 -20.5 40t11.5 41q18 18 41.5 19.5t47.5 -18.5z" />
    <glyph glyph-name="braceright" unicode="}" 
d="M101 197q-6 0 -9 -1v-98q2 -1 9 -1q18 0 24.5 12t6.5 38t-6.5 38t-24.5 12zM253 161v-24h-40v-38h47v-24h-76v145h76v-25h-47v-34h40zM99 73q-23 0 -36 2v143q26 4 37 4q33 0 47 -18t14 -57t-14.5 -56.5t-47.5 -17.5zM286 220h39l19 -80l19 80h40q1 -21 3.5 -78.5
t2.5 -66.5h-29q0 53 -3 104l-20 -82h-27l-20 82h-1q-2 -68 -2 -104h-28q2 84 7 145zM482 73q-29 0 -41 17.5t-12 56.5t12 57t41 18t41.5 -18t12.5 -57t-12.5 -56.5t-41.5 -17.5zM482 197q-14 0 -19 -11.5t-5 -38.5q0 -50 24 -50q15 0 20 12t5 38q0 27 -5 38.5t-20 11.5z
M472 496q34 0 48 -20t14 -43q0 -21 -16.5 -35t-35.5 -17q-104 -12 -166 -72q3 8 8.5 20.5t22.5 44.5t34.5 57t42.5 45t48 20zM139 444q26 0 52 -19.5t44 -47t32 -54.5t21 -47l7 -19q-57 72 -156 72q-24 0 -43 15t-19 37q0 26 16.5 44.5t45.5 18.5zM314 593q19 -18 24 -50
t-1.5 -64t-15.5 -62t-17 -49l-9 -18q10 93 -61 161q-17 17 -20.5 40t11.5 41q18 18 41.5 19.5t47.5 -18.5z" />
    <glyph glyph-name="asciitilde" unicode="~" 
d="M101 197q-6 0 -9 -1v-98q2 -1 9 -1q18 0 24.5 12t6.5 38t-6.5 38t-24.5 12zM253 161v-24h-40v-38h47v-24h-76v145h76v-25h-47v-34h40zM99 73q-23 0 -36 2v143q26 4 37 4q33 0 47 -18t14 -57t-14.5 -56.5t-47.5 -17.5zM286 220h39l19 -80l19 80h40q1 -21 3.5 -78.5
t2.5 -66.5h-29q0 53 -3 104l-20 -82h-27l-20 82h-1q-2 -68 -2 -104h-28q2 84 7 145zM482 73q-29 0 -41 17.5t-12 56.5t12 57t41 18t41.5 -18t12.5 -57t-12.5 -56.5t-41.5 -17.5zM482 197q-14 0 -19 -11.5t-5 -38.5q0 -50 24 -50q15 0 20 12t5 38q0 27 -5 38.5t-20 11.5z
M472 496q34 0 48 -20t14 -43q0 -21 -16.5 -35t-35.5 -17q-104 -12 -166 -72q3 8 8.5 20.5t22.5 44.5t34.5 57t42.5 45t48 20zM139 444q26 0 52 -19.5t44 -47t32 -54.5t21 -47l7 -19q-57 72 -156 72q-24 0 -43 15t-19 37q0 26 16.5 44.5t45.5 18.5zM314 593q19 -18 24 -50
t-1.5 -64t-15.5 -62t-17 -49l-9 -18q10 93 -61 161q-17 17 -20.5 40t11.5 41q18 18 41.5 19.5t47.5 -18.5z" />
    </font>
</defs>
</svg>
