<?xml version="1.0" standalone="no"?>
<!DOCTYPE svg PUBLIC "-//W3C//DTD SVG 1.1//EN" "http://www.w3.org/Graphics/SVG/1.1/DTD/svg11.dtd" >
<svg xmlns="http://www.w3.org/2000/svg" xmlns:xlink="http://www.w3.org/1999/xlink" version="1.1">
<metadata>
Created by FontForge 20230101 at Wed Dec 30 23:16:22 2020
 By Unknown
Tour de Force Font Foundry &#38; Dusan Jelesijevic
</metadata>
<defs>
<font id="FONTSPRINGDEMO-LupioBold" horiz-adv-x="598" >
  <font-face 
    font-family="FSP DEMO - Lupio"
    font-weight="700"
    font-stretch="normal"
    units-per-em="1000"
    panose-1="0 0 0 0 0 0 0 0 0 0"
    ascent="800"
    descent="-200"
    x-height="500"
    cap-height="700"
    bbox="-83 -200 1062 740"
    underline-thickness="50"
    underline-position="-125"
    unicode-range="U+000D-007E"
  />
<missing-glyph 
d="M101 197q-6 0 -9 -1v-98q2 -1 9 -1q18 0 24.5 12t6.5 38t-6.5 38t-24.5 12zM253 161v-24h-40v-38h47v-24h-76v145h76v-25h-47v-34h40zM99 73q-23 0 -36 2v143q26 4 37 4q33 0 47 -18t14 -57t-14.5 -56.5t-47.5 -17.5zM286 220h39l19 -80l19 80h40q1 -21 3.5 -78.5
t2.5 -66.5h-29q0 53 -3 104l-20 -82h-27l-20 82h-1q-2 -68 -2 -104h-28q2 84 7 145zM482 73q-29 0 -41 17.5t-12 56.5t12 57t41 18t41.5 -18t12.5 -57t-12.5 -56.5t-41.5 -17.5zM482 197q-14 0 -19 -11.5t-5 -38.5q0 -50 24 -50q15 0 20 12t5 38q0 27 -5 38.5t-20 11.5z
M472 496q34 0 48 -20t14 -43q0 -21 -16.5 -35t-35.5 -17q-104 -12 -166 -72q3 8 8.5 20.5t22.5 44.5t34.5 57t42.5 45t48 20zM139 444q26 0 52 -19.5t44 -47t32 -54.5t21 -47l7 -19q-57 72 -156 72q-24 0 -43 15t-19 37q0 26 16.5 44.5t45.5 18.5zM314 593q19 -18 24 -50
t-1.5 -64t-15.5 -62t-17 -49l-9 -18q10 93 -61 161q-17 17 -20.5 40t11.5 41q18 18 41.5 19.5t47.5 -18.5z" />
    <glyph glyph-name=".notdef" 
d="M101 197q-6 0 -9 -1v-98q2 -1 9 -1q18 0 24.5 12t6.5 38t-6.5 38t-24.5 12zM253 161v-24h-40v-38h47v-24h-76v145h76v-25h-47v-34h40zM99 73q-23 0 -36 2v143q26 4 37 4q33 0 47 -18t14 -57t-14.5 -56.5t-47.5 -17.5zM286 220h39l19 -80l19 80h40q1 -21 3.5 -78.5
t2.5 -66.5h-29q0 53 -3 104l-20 -82h-27l-20 82h-1q-2 -68 -2 -104h-28q2 84 7 145zM482 73q-29 0 -41 17.5t-12 56.5t12 57t41 18t41.5 -18t12.5 -57t-12.5 -56.5t-41.5 -17.5zM482 197q-14 0 -19 -11.5t-5 -38.5q0 -50 24 -50q15 0 20 12t5 38q0 27 -5 38.5t-20 11.5z
M472 496q34 0 48 -20t14 -43q0 -21 -16.5 -35t-35.5 -17q-104 -12 -166 -72q3 8 8.5 20.5t22.5 44.5t34.5 57t42.5 45t48 20zM139 444q26 0 52 -19.5t44 -47t32 -54.5t21 -47l7 -19q-57 72 -156 72q-24 0 -43 15t-19 37q0 26 16.5 44.5t45.5 18.5zM314 593q19 -18 24 -50
t-1.5 -64t-15.5 -62t-17 -49l-9 -18q10 93 -61 161q-17 17 -20.5 40t11.5 41q18 18 41.5 19.5t47.5 -18.5z" />
    <glyph glyph-name="uni0000" horiz-adv-x="0" 
 />
    <glyph glyph-name="uni000D" unicode="&#xd;" horiz-adv-x="250" 
 />
    <glyph glyph-name="space" unicode=" " horiz-adv-x="260" 
 />
    <glyph glyph-name="exclam" unicode="!" 
d="M101 197q-6 0 -9 -1v-98q2 -1 9 -1q18 0 24.5 12t6.5 38t-6.5 38t-24.5 12zM253 161v-24h-40v-38h47v-24h-76v145h76v-25h-47v-34h40zM99 73q-23 0 -36 2v143q26 4 37 4q33 0 47 -18t14 -57t-14.5 -56.5t-47.5 -17.5zM286 220h39l19 -80l19 80h40q1 -21 3.5 -78.5
t2.5 -66.5h-29q0 53 -3 104l-20 -82h-27l-20 82h-1q-2 -68 -2 -104h-28q2 84 7 145zM482 73q-29 0 -41 17.5t-12 56.5t12 57t41 18t41.5 -18t12.5 -57t-12.5 -56.5t-41.5 -17.5zM482 197q-14 0 -19 -11.5t-5 -38.5q0 -50 24 -50q15 0 20 12t5 38q0 27 -5 38.5t-20 11.5z
M472 496q34 0 48 -20t14 -43q0 -21 -16.5 -35t-35.5 -17q-104 -12 -166 -72q3 8 8.5 20.5t22.5 44.5t34.5 57t42.5 45t48 20zM139 444q26 0 52 -19.5t44 -47t32 -54.5t21 -47l7 -19q-57 72 -156 72q-24 0 -43 15t-19 37q0 26 16.5 44.5t45.5 18.5zM314 593q19 -18 24 -50
t-1.5 -64t-15.5 -62t-17 -49l-9 -18q10 93 -61 161q-17 17 -20.5 40t11.5 41q18 18 41.5 19.5t47.5 -18.5z" />
    <glyph glyph-name="quotedbl" unicode="&#x22;" 
d="M101 197q-6 0 -9 -1v-98q2 -1 9 -1q18 0 24.5 12t6.5 38t-6.5 38t-24.5 12zM253 161v-24h-40v-38h47v-24h-76v145h76v-25h-47v-34h40zM99 73q-23 0 -36 2v143q26 4 37 4q33 0 47 -18t14 -57t-14.5 -56.5t-47.5 -17.5zM286 220h39l19 -80l19 80h40q1 -21 3.5 -78.5
t2.5 -66.5h-29q0 53 -3 104l-20 -82h-27l-20 82h-1q-2 -68 -2 -104h-28q2 84 7 145zM482 73q-29 0 -41 17.5t-12 56.5t12 57t41 18t41.5 -18t12.5 -57t-12.5 -56.5t-41.5 -17.5zM482 197q-14 0 -19 -11.5t-5 -38.5q0 -50 24 -50q15 0 20 12t5 38q0 27 -5 38.5t-20 11.5z
M472 496q34 0 48 -20t14 -43q0 -21 -16.5 -35t-35.5 -17q-104 -12 -166 -72q3 8 8.5 20.5t22.5 44.5t34.5 57t42.5 45t48 20zM139 444q26 0 52 -19.5t44 -47t32 -54.5t21 -47l7 -19q-57 72 -156 72q-24 0 -43 15t-19 37q0 26 16.5 44.5t45.5 18.5zM314 593q19 -18 24 -50
t-1.5 -64t-15.5 -62t-17 -49l-9 -18q10 93 -61 161q-17 17 -20.5 40t11.5 41q18 18 41.5 19.5t47.5 -18.5z" />
    <glyph glyph-name="numbersign" unicode="#" 
d="M101 197q-6 0 -9 -1v-98q2 -1 9 -1q18 0 24.5 12t6.5 38t-6.5 38t-24.5 12zM253 161v-24h-40v-38h47v-24h-76v145h76v-25h-47v-34h40zM99 73q-23 0 -36 2v143q26 4 37 4q33 0 47 -18t14 -57t-14.5 -56.5t-47.5 -17.5zM286 220h39l19 -80l19 80h40q1 -21 3.5 -78.5
t2.5 -66.5h-29q0 53 -3 104l-20 -82h-27l-20 82h-1q-2 -68 -2 -104h-28q2 84 7 145zM482 73q-29 0 -41 17.5t-12 56.5t12 57t41 18t41.5 -18t12.5 -57t-12.5 -56.5t-41.5 -17.5zM482 197q-14 0 -19 -11.5t-5 -38.5q0 -50 24 -50q15 0 20 12t5 38q0 27 -5 38.5t-20 11.5z
M472 496q34 0 48 -20t14 -43q0 -21 -16.5 -35t-35.5 -17q-104 -12 -166 -72q3 8 8.5 20.5t22.5 44.5t34.5 57t42.5 45t48 20zM139 444q26 0 52 -19.5t44 -47t32 -54.5t21 -47l7 -19q-57 72 -156 72q-24 0 -43 15t-19 37q0 26 16.5 44.5t45.5 18.5zM314 593q19 -18 24 -50
t-1.5 -64t-15.5 -62t-17 -49l-9 -18q10 93 -61 161q-17 17 -20.5 40t11.5 41q18 18 41.5 19.5t47.5 -18.5z" />
    <glyph glyph-name="dollar" unicode="$" 
d="M101 197q-6 0 -9 -1v-98q2 -1 9 -1q18 0 24.5 12t6.5 38t-6.5 38t-24.5 12zM253 161v-24h-40v-38h47v-24h-76v145h76v-25h-47v-34h40zM99 73q-23 0 -36 2v143q26 4 37 4q33 0 47 -18t14 -57t-14.5 -56.5t-47.5 -17.5zM286 220h39l19 -80l19 80h40q1 -21 3.5 -78.5
t2.5 -66.5h-29q0 53 -3 104l-20 -82h-27l-20 82h-1q-2 -68 -2 -104h-28q2 84 7 145zM482 73q-29 0 -41 17.5t-12 56.5t12 57t41 18t41.5 -18t12.5 -57t-12.5 -56.5t-41.5 -17.5zM482 197q-14 0 -19 -11.5t-5 -38.5q0 -50 24 -50q15 0 20 12t5 38q0 27 -5 38.5t-20 11.5z
M472 496q34 0 48 -20t14 -43q0 -21 -16.5 -35t-35.5 -17q-104 -12 -166 -72q3 8 8.5 20.5t22.5 44.5t34.5 57t42.5 45t48 20zM139 444q26 0 52 -19.5t44 -47t32 -54.5t21 -47l7 -19q-57 72 -156 72q-24 0 -43 15t-19 37q0 26 16.5 44.5t45.5 18.5zM314 593q19 -18 24 -50
t-1.5 -64t-15.5 -62t-17 -49l-9 -18q10 93 -61 161q-17 17 -20.5 40t11.5 41q18 18 41.5 19.5t47.5 -18.5z" />
    <glyph glyph-name="percent" unicode="%" 
d="M101 197q-6 0 -9 -1v-98q2 -1 9 -1q18 0 24.5 12t6.5 38t-6.5 38t-24.5 12zM253 161v-24h-40v-38h47v-24h-76v145h76v-25h-47v-34h40zM99 73q-23 0 -36 2v143q26 4 37 4q33 0 47 -18t14 -57t-14.5 -56.5t-47.5 -17.5zM286 220h39l19 -80l19 80h40q1 -21 3.5 -78.5
t2.5 -66.5h-29q0 53 -3 104l-20 -82h-27l-20 82h-1q-2 -68 -2 -104h-28q2 84 7 145zM482 73q-29 0 -41 17.5t-12 56.5t12 57t41 18t41.5 -18t12.5 -57t-12.5 -56.5t-41.5 -17.5zM482 197q-14 0 -19 -11.5t-5 -38.5q0 -50 24 -50q15 0 20 12t5 38q0 27 -5 38.5t-20 11.5z
M472 496q34 0 48 -20t14 -43q0 -21 -16.5 -35t-35.5 -17q-104 -12 -166 -72q3 8 8.5 20.5t22.5 44.5t34.5 57t42.5 45t48 20zM139 444q26 0 52 -19.5t44 -47t32 -54.5t21 -47l7 -19q-57 72 -156 72q-24 0 -43 15t-19 37q0 26 16.5 44.5t45.5 18.5zM314 593q19 -18 24 -50
t-1.5 -64t-15.5 -62t-17 -49l-9 -18q10 93 -61 161q-17 17 -20.5 40t11.5 41q18 18 41.5 19.5t47.5 -18.5z" />
    <glyph glyph-name="ampersand" unicode="&#x26;" 
d="M101 197q-6 0 -9 -1v-98q2 -1 9 -1q18 0 24.5 12t6.5 38t-6.5 38t-24.5 12zM253 161v-24h-40v-38h47v-24h-76v145h76v-25h-47v-34h40zM99 73q-23 0 -36 2v143q26 4 37 4q33 0 47 -18t14 -57t-14.5 -56.5t-47.5 -17.5zM286 220h39l19 -80l19 80h40q1 -21 3.5 -78.5
t2.5 -66.5h-29q0 53 -3 104l-20 -82h-27l-20 82h-1q-2 -68 -2 -104h-28q2 84 7 145zM482 73q-29 0 -41 17.5t-12 56.5t12 57t41 18t41.5 -18t12.5 -57t-12.5 -56.5t-41.5 -17.5zM482 197q-14 0 -19 -11.5t-5 -38.5q0 -50 24 -50q15 0 20 12t5 38q0 27 -5 38.5t-20 11.5z
M472 496q34 0 48 -20t14 -43q0 -21 -16.5 -35t-35.5 -17q-104 -12 -166 -72q3 8 8.5 20.5t22.5 44.5t34.5 57t42.5 45t48 20zM139 444q26 0 52 -19.5t44 -47t32 -54.5t21 -47l7 -19q-57 72 -156 72q-24 0 -43 15t-19 37q0 26 16.5 44.5t45.5 18.5zM314 593q19 -18 24 -50
t-1.5 -64t-15.5 -62t-17 -49l-9 -18q10 93 -61 161q-17 17 -20.5 40t11.5 41q18 18 41.5 19.5t47.5 -18.5z" />
    <glyph glyph-name="quotesingle" unicode="'" 
d="M101 197q-6 0 -9 -1v-98q2 -1 9 -1q18 0 24.5 12t6.5 38t-6.5 38t-24.5 12zM253 161v-24h-40v-38h47v-24h-76v145h76v-25h-47v-34h40zM99 73q-23 0 -36 2v143q26 4 37 4q33 0 47 -18t14 -57t-14.5 -56.5t-47.5 -17.5zM286 220h39l19 -80l19 80h40q1 -21 3.5 -78.5
t2.5 -66.5h-29q0 53 -3 104l-20 -82h-27l-20 82h-1q-2 -68 -2 -104h-28q2 84 7 145zM482 73q-29 0 -41 17.5t-12 56.5t12 57t41 18t41.5 -18t12.5 -57t-12.5 -56.5t-41.5 -17.5zM482 197q-14 0 -19 -11.5t-5 -38.5q0 -50 24 -50q15 0 20 12t5 38q0 27 -5 38.5t-20 11.5z
M472 496q34 0 48 -20t14 -43q0 -21 -16.5 -35t-35.5 -17q-104 -12 -166 -72q3 8 8.5 20.5t22.5 44.5t34.5 57t42.5 45t48 20zM139 444q26 0 52 -19.5t44 -47t32 -54.5t21 -47l7 -19q-57 72 -156 72q-24 0 -43 15t-19 37q0 26 16.5 44.5t45.5 18.5zM314 593q19 -18 24 -50
t-1.5 -64t-15.5 -62t-17 -49l-9 -18q10 93 -61 161q-17 17 -20.5 40t11.5 41q18 18 41.5 19.5t47.5 -18.5z" />
    <glyph glyph-name="parenleft" unicode="(" 
d="M101 197q-6 0 -9 -1v-98q2 -1 9 -1q18 0 24.5 12t6.5 38t-6.5 38t-24.5 12zM253 161v-24h-40v-38h47v-24h-76v145h76v-25h-47v-34h40zM99 73q-23 0 -36 2v143q26 4 37 4q33 0 47 -18t14 -57t-14.5 -56.5t-47.5 -17.5zM286 220h39l19 -80l19 80h40q1 -21 3.5 -78.5
t2.5 -66.5h-29q0 53 -3 104l-20 -82h-27l-20 82h-1q-2 -68 -2 -104h-28q2 84 7 145zM482 73q-29 0 -41 17.5t-12 56.5t12 57t41 18t41.5 -18t12.5 -57t-12.5 -56.5t-41.5 -17.5zM482 197q-14 0 -19 -11.5t-5 -38.5q0 -50 24 -50q15 0 20 12t5 38q0 27 -5 38.5t-20 11.5z
M472 496q34 0 48 -20t14 -43q0 -21 -16.5 -35t-35.5 -17q-104 -12 -166 -72q3 8 8.5 20.5t22.5 44.5t34.5 57t42.5 45t48 20zM139 444q26 0 52 -19.5t44 -47t32 -54.5t21 -47l7 -19q-57 72 -156 72q-24 0 -43 15t-19 37q0 26 16.5 44.5t45.5 18.5zM314 593q19 -18 24 -50
t-1.5 -64t-15.5 -62t-17 -49l-9 -18q10 93 -61 161q-17 17 -20.5 40t11.5 41q18 18 41.5 19.5t47.5 -18.5z" />
    <glyph glyph-name="parenright" unicode=")" 
d="M101 197q-6 0 -9 -1v-98q2 -1 9 -1q18 0 24.5 12t6.5 38t-6.5 38t-24.5 12zM253 161v-24h-40v-38h47v-24h-76v145h76v-25h-47v-34h40zM99 73q-23 0 -36 2v143q26 4 37 4q33 0 47 -18t14 -57t-14.5 -56.5t-47.5 -17.5zM286 220h39l19 -80l19 80h40q1 -21 3.5 -78.5
t2.5 -66.5h-29q0 53 -3 104l-20 -82h-27l-20 82h-1q-2 -68 -2 -104h-28q2 84 7 145zM482 73q-29 0 -41 17.5t-12 56.5t12 57t41 18t41.5 -18t12.5 -57t-12.5 -56.5t-41.5 -17.5zM482 197q-14 0 -19 -11.5t-5 -38.5q0 -50 24 -50q15 0 20 12t5 38q0 27 -5 38.5t-20 11.5z
M472 496q34 0 48 -20t14 -43q0 -21 -16.5 -35t-35.5 -17q-104 -12 -166 -72q3 8 8.5 20.5t22.5 44.5t34.5 57t42.5 45t48 20zM139 444q26 0 52 -19.5t44 -47t32 -54.5t21 -47l7 -19q-57 72 -156 72q-24 0 -43 15t-19 37q0 26 16.5 44.5t45.5 18.5zM314 593q19 -18 24 -50
t-1.5 -64t-15.5 -62t-17 -49l-9 -18q10 93 -61 161q-17 17 -20.5 40t11.5 41q18 18 41.5 19.5t47.5 -18.5z" />
    <glyph glyph-name="asterisk" unicode="*" 
d="M101 197q-6 0 -9 -1v-98q2 -1 9 -1q18 0 24.5 12t6.5 38t-6.5 38t-24.5 12zM253 161v-24h-40v-38h47v-24h-76v145h76v-25h-47v-34h40zM99 73q-23 0 -36 2v143q26 4 37 4q33 0 47 -18t14 -57t-14.5 -56.5t-47.5 -17.5zM286 220h39l19 -80l19 80h40q1 -21 3.5 -78.5
t2.5 -66.5h-29q0 53 -3 104l-20 -82h-27l-20 82h-1q-2 -68 -2 -104h-28q2 84 7 145zM482 73q-29 0 -41 17.5t-12 56.5t12 57t41 18t41.5 -18t12.5 -57t-12.5 -56.5t-41.5 -17.5zM482 197q-14 0 -19 -11.5t-5 -38.5q0 -50 24 -50q15 0 20 12t5 38q0 27 -5 38.5t-20 11.5z
M472 496q34 0 48 -20t14 -43q0 -21 -16.5 -35t-35.5 -17q-104 -12 -166 -72q3 8 8.5 20.5t22.5 44.5t34.5 57t42.5 45t48 20zM139 444q26 0 52 -19.5t44 -47t32 -54.5t21 -47l7 -19q-57 72 -156 72q-24 0 -43 15t-19 37q0 26 16.5 44.5t45.5 18.5zM314 593q19 -18 24 -50
t-1.5 -64t-15.5 -62t-17 -49l-9 -18q10 93 -61 161q-17 17 -20.5 40t11.5 41q18 18 41.5 19.5t47.5 -18.5z" />
    <glyph glyph-name="plus" unicode="+" 
d="M101 197q-6 0 -9 -1v-98q2 -1 9 -1q18 0 24.5 12t6.5 38t-6.5 38t-24.5 12zM253 161v-24h-40v-38h47v-24h-76v145h76v-25h-47v-34h40zM99 73q-23 0 -36 2v143q26 4 37 4q33 0 47 -18t14 -57t-14.5 -56.5t-47.5 -17.5zM286 220h39l19 -80l19 80h40q1 -21 3.5 -78.5
t2.5 -66.5h-29q0 53 -3 104l-20 -82h-27l-20 82h-1q-2 -68 -2 -104h-28q2 84 7 145zM482 73q-29 0 -41 17.5t-12 56.5t12 57t41 18t41.5 -18t12.5 -57t-12.5 -56.5t-41.5 -17.5zM482 197q-14 0 -19 -11.5t-5 -38.5q0 -50 24 -50q15 0 20 12t5 38q0 27 -5 38.5t-20 11.5z
M472 496q34 0 48 -20t14 -43q0 -21 -16.5 -35t-35.5 -17q-104 -12 -166 -72q3 8 8.5 20.5t22.5 44.5t34.5 57t42.5 45t48 20zM139 444q26 0 52 -19.5t44 -47t32 -54.5t21 -47l7 -19q-57 72 -156 72q-24 0 -43 15t-19 37q0 26 16.5 44.5t45.5 18.5zM314 593q19 -18 24 -50
t-1.5 -64t-15.5 -62t-17 -49l-9 -18q10 93 -61 161q-17 17 -20.5 40t11.5 41q18 18 41.5 19.5t47.5 -18.5z" />
    <glyph glyph-name="comma" unicode="," horiz-adv-x="289" 
d="M45 91q0 41 29 69.5t72 28.5q40 0 69 -28.5t29 -69.5q0 -31 -15 -55l-95 -178h-86l64 137q-30 10 -48.5 36t-18.5 60z" />
    <glyph glyph-name="hyphen" unicode="-" 
d="M101 197q-6 0 -9 -1v-98q2 -1 9 -1q18 0 24.5 12t6.5 38t-6.5 38t-24.5 12zM253 161v-24h-40v-38h47v-24h-76v145h76v-25h-47v-34h40zM99 73q-23 0 -36 2v143q26 4 37 4q33 0 47 -18t14 -57t-14.5 -56.5t-47.5 -17.5zM286 220h39l19 -80l19 80h40q1 -21 3.5 -78.5
t2.5 -66.5h-29q0 53 -3 104l-20 -82h-27l-20 82h-1q-2 -68 -2 -104h-28q2 84 7 145zM482 73q-29 0 -41 17.5t-12 56.5t12 57t41 18t41.5 -18t12.5 -57t-12.5 -56.5t-41.5 -17.5zM482 197q-14 0 -19 -11.5t-5 -38.5q0 -50 24 -50q15 0 20 12t5 38q0 27 -5 38.5t-20 11.5z
M472 496q34 0 48 -20t14 -43q0 -21 -16.5 -35t-35.5 -17q-104 -12 -166 -72q3 8 8.5 20.5t22.5 44.5t34.5 57t42.5 45t48 20zM139 444q26 0 52 -19.5t44 -47t32 -54.5t21 -47l7 -19q-57 72 -156 72q-24 0 -43 15t-19 37q0 26 16.5 44.5t45.5 18.5zM314 593q19 -18 24 -50
t-1.5 -64t-15.5 -62t-17 -49l-9 -18q10 93 -61 161q-17 17 -20.5 40t11.5 41q18 18 41.5 19.5t47.5 -18.5z" />
    <glyph glyph-name="period" unicode="." horiz-adv-x="289" 
d="M45 91q0 41 29 69.5t72 28.5q40 0 69 -28.5t29 -69.5q0 -43 -28.5 -72t-69.5 -29q-44 0 -72.5 29t-28.5 72z" />
    <glyph glyph-name="slash" unicode="/" 
d="M101 197q-6 0 -9 -1v-98q2 -1 9 -1q18 0 24.5 12t6.5 38t-6.5 38t-24.5 12zM253 161v-24h-40v-38h47v-24h-76v145h76v-25h-47v-34h40zM99 73q-23 0 -36 2v143q26 4 37 4q33 0 47 -18t14 -57t-14.5 -56.5t-47.5 -17.5zM286 220h39l19 -80l19 80h40q1 -21 3.5 -78.5
t2.5 -66.5h-29q0 53 -3 104l-20 -82h-27l-20 82h-1q-2 -68 -2 -104h-28q2 84 7 145zM482 73q-29 0 -41 17.5t-12 56.5t12 57t41 18t41.5 -18t12.5 -57t-12.5 -56.5t-41.5 -17.5zM482 197q-14 0 -19 -11.5t-5 -38.5q0 -50 24 -50q15 0 20 12t5 38q0 27 -5 38.5t-20 11.5z
M472 496q34 0 48 -20t14 -43q0 -21 -16.5 -35t-35.5 -17q-104 -12 -166 -72q3 8 8.5 20.5t22.5 44.5t34.5 57t42.5 45t48 20zM139 444q26 0 52 -19.5t44 -47t32 -54.5t21 -47l7 -19q-57 72 -156 72q-24 0 -43 15t-19 37q0 26 16.5 44.5t45.5 18.5zM314 593q19 -18 24 -50
t-1.5 -64t-15.5 -62t-17 -49l-9 -18q10 93 -61 161q-17 17 -20.5 40t11.5 41q18 18 41.5 19.5t47.5 -18.5z" />
    <glyph glyph-name="zero" unicode="0" horiz-adv-x="739" 
d="M38 350q0 169 88 264.5t244 95.5t244 -95.5t88 -264.5t-88 -264.5t-244 -95.5t-244 95.5t-88 264.5zM370 570q-78 0 -118 -57t-40 -163t40 -163t118 -57q79 0 118.5 57t39.5 163t-39.5 163t-118.5 57z" />
    <glyph glyph-name="one" unicode="1" horiz-adv-x="475" 
d="M303 700h122v-700h-172v523l-177 -81l-56 128z" />
    <glyph glyph-name="two" unicode="2" horiz-adv-x="644" 
d="M61 140l259 222q50 43 66.5 70t16.5 60q0 43 -27.5 61t-67.5 18q-99 0 -99 -132h-174q0 50 13 95t42 86.5t84.5 66t132.5 24.5q53 0 98.5 -11.5t85.5 -36.5t63 -70.5t23 -108.5q0 -120 -178 -256l-114 -88h325v-140h-549v140z" />
    <glyph glyph-name="three" unicode="3" horiz-adv-x="634" 
d="M237 286v130h77q34 0 52.5 20t18.5 57q0 38 -22 58t-59 20q-46 0 -65.5 -25t-19.5 -79h-174q0 106 65 175t194 69q111 0 183.5 -52t72.5 -145q0 -107 -89 -157q128 -43 128 -162q0 -95 -77 -149.5t-197 -54.5q-139 0 -214.5 70.5t-75.5 165.5h174q0 -42 30.5 -69
t90.5 -27q47 0 71 23.5t24 63.5q0 34 -24 51t-64 17h-100z" />
    <glyph glyph-name="four" unicode="4" 
d="M101 197q-6 0 -9 -1v-98q2 -1 9 -1q18 0 24.5 12t6.5 38t-6.5 38t-24.5 12zM253 161v-24h-40v-38h47v-24h-76v145h76v-25h-47v-34h40zM99 73q-23 0 -36 2v143q26 4 37 4q33 0 47 -18t14 -57t-14.5 -56.5t-47.5 -17.5zM286 220h39l19 -80l19 80h40q1 -21 3.5 -78.5
t2.5 -66.5h-29q0 53 -3 104l-20 -82h-27l-20 82h-1q-2 -68 -2 -104h-28q2 84 7 145zM482 73q-29 0 -41 17.5t-12 56.5t12 57t41 18t41.5 -18t12.5 -57t-12.5 -56.5t-41.5 -17.5zM482 197q-14 0 -19 -11.5t-5 -38.5q0 -50 24 -50q15 0 20 12t5 38q0 27 -5 38.5t-20 11.5z
M472 496q34 0 48 -20t14 -43q0 -21 -16.5 -35t-35.5 -17q-104 -12 -166 -72q3 8 8.5 20.5t22.5 44.5t34.5 57t42.5 45t48 20zM139 444q26 0 52 -19.5t44 -47t32 -54.5t21 -47l7 -19q-57 72 -156 72q-24 0 -43 15t-19 37q0 26 16.5 44.5t45.5 18.5zM314 593q19 -18 24 -50
t-1.5 -64t-15.5 -62t-17 -49l-9 -18q10 93 -61 161q-17 17 -20.5 40t11.5 41q18 18 41.5 19.5t47.5 -18.5z" />
    <glyph glyph-name="five" unicode="5" horiz-adv-x="621" 
d="M64 287l50 413h428v-140h-273l-16 -131q45 22 101 22q86 0 159 -60.5t73 -164.5q0 -106 -76 -171t-192 -65q-119 0 -201 63.5t-82 170.5h174q0 -41 29 -67t73 -26q45 0 73 24t28 65t-27.5 67t-67.5 26q-53 0 -81 -26h-172z" />
    <glyph glyph-name="six" unicode="6" horiz-adv-x="641" 
d="M321 701h211l-168 -230q103 -12 171.5 -77t68.5 -162q0 -107 -82.5 -174.5t-200.5 -67.5q-122 0 -202.5 67t-80.5 175q0 76 47 138zM321 131q45 0 77 28.5t32 72.5q0 45 -32 73.5t-77 28.5t-77 -28.5t-32 -73.5q0 -44 32 -72.5t77 -28.5z" />
    <glyph glyph-name="seven" unicode="7" horiz-adv-x="537" 
d="M517 700v-136l-254 -564h-189l258 560h-312v140h497z" />
    <glyph glyph-name="eight" unicode="8" horiz-adv-x="647" 
d="M324 711q117 0 191.5 -52.5t74.5 -142.5q0 -99 -98 -154q118 -58 118 -167q0 -96 -82.5 -150.5t-203.5 -54.5t-203.5 54.5t-82.5 150.5q0 109 118 167q-98 55 -98 154q0 90 74.5 142.5t191.5 52.5zM324 420q42 0 66.5 22.5t24.5 56.5q0 33 -24.5 55t-66.5 22t-66.5 -22
t-24.5 -55q0 -34 24.5 -56.5t66.5 -22.5zM324 125q50 0 80.5 23.5t30.5 63.5t-30 63.5t-81 23.5t-81 -23.5t-30 -63.5t30.5 -63.5t80.5 -23.5z" />
    <glyph glyph-name="nine" unicode="9" horiz-adv-x="641" 
d="M321 0h-211l168 230q-103 12 -171.5 77t-68.5 162q0 107 82.5 174.5t200.5 67.5q122 0 202.5 -67t80.5 -175q0 -76 -47 -138zM321 570q-45 0 -77 -28.5t-32 -72.5q0 -45 32 -73.5t77 -28.5t77 28.5t32 73.5q0 44 -32 72.5t-77 28.5z" />
    <glyph glyph-name="colon" unicode=":" horiz-adv-x="289" 
d="M45 412q0 41 29 69.5t72 28.5q40 0 69 -29t29 -69q0 -43 -28.5 -72t-69.5 -29q-44 0 -72.5 28.5t-28.5 72.5zM45 91q0 41 29 69.5t72 28.5q40 0 69 -28.5t29 -69.5q0 -43 -28.5 -72t-69.5 -29q-44 0 -72.5 29t-28.5 72z" />
    <glyph glyph-name="semicolon" unicode=";" horiz-adv-x="289" 
d="M45 412q0 41 29 69.5t72 28.5q40 0 69 -29t29 -69q0 -43 -28.5 -72t-69.5 -29q-44 0 -72.5 28.5t-28.5 72.5zM45 91q0 41 29 69.5t72 28.5q40 0 69 -28.5t29 -69.5q0 -31 -15 -55l-95 -178h-86l64 137q-30 10 -48.5 36t-18.5 60z" />
    <glyph glyph-name="less" unicode="&#x3c;" 
d="M101 197q-6 0 -9 -1v-98q2 -1 9 -1q18 0 24.5 12t6.5 38t-6.5 38t-24.5 12zM253 161v-24h-40v-38h47v-24h-76v145h76v-25h-47v-34h40zM99 73q-23 0 -36 2v143q26 4 37 4q33 0 47 -18t14 -57t-14.5 -56.5t-47.5 -17.5zM286 220h39l19 -80l19 80h40q1 -21 3.5 -78.5
t2.5 -66.5h-29q0 53 -3 104l-20 -82h-27l-20 82h-1q-2 -68 -2 -104h-28q2 84 7 145zM482 73q-29 0 -41 17.5t-12 56.5t12 57t41 18t41.5 -18t12.5 -57t-12.5 -56.5t-41.5 -17.5zM482 197q-14 0 -19 -11.5t-5 -38.5q0 -50 24 -50q15 0 20 12t5 38q0 27 -5 38.5t-20 11.5z
M472 496q34 0 48 -20t14 -43q0 -21 -16.5 -35t-35.5 -17q-104 -12 -166 -72q3 8 8.5 20.5t22.5 44.5t34.5 57t42.5 45t48 20zM139 444q26 0 52 -19.5t44 -47t32 -54.5t21 -47l7 -19q-57 72 -156 72q-24 0 -43 15t-19 37q0 26 16.5 44.5t45.5 18.5zM314 593q19 -18 24 -50
t-1.5 -64t-15.5 -62t-17 -49l-9 -18q10 93 -61 161q-17 17 -20.5 40t11.5 41q18 18 41.5 19.5t47.5 -18.5z" />
    <glyph glyph-name="equal" unicode="=" 
d="M101 197q-6 0 -9 -1v-98q2 -1 9 -1q18 0 24.5 12t6.5 38t-6.5 38t-24.5 12zM253 161v-24h-40v-38h47v-24h-76v145h76v-25h-47v-34h40zM99 73q-23 0 -36 2v143q26 4 37 4q33 0 47 -18t14 -57t-14.5 -56.5t-47.5 -17.5zM286 220h39l19 -80l19 80h40q1 -21 3.5 -78.5
t2.5 -66.5h-29q0 53 -3 104l-20 -82h-27l-20 82h-1q-2 -68 -2 -104h-28q2 84 7 145zM482 73q-29 0 -41 17.5t-12 56.5t12 57t41 18t41.5 -18t12.5 -57t-12.5 -56.5t-41.5 -17.5zM482 197q-14 0 -19 -11.5t-5 -38.5q0 -50 24 -50q15 0 20 12t5 38q0 27 -5 38.5t-20 11.5z
M472 496q34 0 48 -20t14 -43q0 -21 -16.5 -35t-35.5 -17q-104 -12 -166 -72q3 8 8.5 20.5t22.5 44.5t34.5 57t42.5 45t48 20zM139 444q26 0 52 -19.5t44 -47t32 -54.5t21 -47l7 -19q-57 72 -156 72q-24 0 -43 15t-19 37q0 26 16.5 44.5t45.5 18.5zM314 593q19 -18 24 -50
t-1.5 -64t-15.5 -62t-17 -49l-9 -18q10 93 -61 161q-17 17 -20.5 40t11.5 41q18 18 41.5 19.5t47.5 -18.5z" />
    <glyph glyph-name="greater" unicode="&#x3e;" 
d="M101 197q-6 0 -9 -1v-98q2 -1 9 -1q18 0 24.5 12t6.5 38t-6.5 38t-24.5 12zM253 161v-24h-40v-38h47v-24h-76v145h76v-25h-47v-34h40zM99 73q-23 0 -36 2v143q26 4 37 4q33 0 47 -18t14 -57t-14.5 -56.5t-47.5 -17.5zM286 220h39l19 -80l19 80h40q1 -21 3.5 -78.5
t2.5 -66.5h-29q0 53 -3 104l-20 -82h-27l-20 82h-1q-2 -68 -2 -104h-28q2 84 7 145zM482 73q-29 0 -41 17.5t-12 56.5t12 57t41 18t41.5 -18t12.5 -57t-12.5 -56.5t-41.5 -17.5zM482 197q-14 0 -19 -11.5t-5 -38.5q0 -50 24 -50q15 0 20 12t5 38q0 27 -5 38.5t-20 11.5z
M472 496q34 0 48 -20t14 -43q0 -21 -16.5 -35t-35.5 -17q-104 -12 -166 -72q3 8 8.5 20.5t22.5 44.5t34.5 57t42.5 45t48 20zM139 444q26 0 52 -19.5t44 -47t32 -54.5t21 -47l7 -19q-57 72 -156 72q-24 0 -43 15t-19 37q0 26 16.5 44.5t45.5 18.5zM314 593q19 -18 24 -50
t-1.5 -64t-15.5 -62t-17 -49l-9 -18q10 93 -61 161q-17 17 -20.5 40t11.5 41q18 18 41.5 19.5t47.5 -18.5z" />
    <glyph glyph-name="question" unicode="?" horiz-adv-x="619" 
d="M218 233v20q0 82 18.5 113.5t80.5 65.5q4 2 16 8.5t16 9t14 9t14 10.5t11 10.5t9.5 13t5 14.5t2.5 17q0 51 -88 51q-103 0 -103 -98h-174q0 50 12.5 89t42 73t87.5 52.5t141 18.5q256 0 256 -180q0 -63 -24 -105.5t-83 -76.5q-48 -28 -65 -47.5t-17 -55.5v-12h-172z
M210 85q0 39 27.5 66t67.5 27t66.5 -27t26.5 -66q0 -41 -26.5 -68t-66.5 -27t-67.5 27.5t-27.5 67.5z" />
    <glyph glyph-name="at" unicode="@" 
d="M101 197q-6 0 -9 -1v-98q2 -1 9 -1q18 0 24.5 12t6.5 38t-6.5 38t-24.5 12zM253 161v-24h-40v-38h47v-24h-76v145h76v-25h-47v-34h40zM99 73q-23 0 -36 2v143q26 4 37 4q33 0 47 -18t14 -57t-14.5 -56.5t-47.5 -17.5zM286 220h39l19 -80l19 80h40q1 -21 3.5 -78.5
t2.5 -66.5h-29q0 53 -3 104l-20 -82h-27l-20 82h-1q-2 -68 -2 -104h-28q2 84 7 145zM482 73q-29 0 -41 17.5t-12 56.5t12 57t41 18t41.5 -18t12.5 -57t-12.5 -56.5t-41.5 -17.5zM482 197q-14 0 -19 -11.5t-5 -38.5q0 -50 24 -50q15 0 20 12t5 38q0 27 -5 38.5t-20 11.5z
M472 496q34 0 48 -20t14 -43q0 -21 -16.5 -35t-35.5 -17q-104 -12 -166 -72q3 8 8.5 20.5t22.5 44.5t34.5 57t42.5 45t48 20zM139 444q26 0 52 -19.5t44 -47t32 -54.5t21 -47l7 -19q-57 72 -156 72q-24 0 -43 15t-19 37q0 26 16.5 44.5t45.5 18.5zM314 593q19 -18 24 -50
t-1.5 -64t-15.5 -62t-17 -49l-9 -18q10 93 -61 161q-17 17 -20.5 40t11.5 41q18 18 41.5 19.5t47.5 -18.5z" />
    <glyph glyph-name="A" unicode="A" horiz-adv-x="822" 
d="M325 701h172l305 -701h-172l-52 129h-334l-52 -129h-172zM301 269h221l-111 274z" />
    <glyph glyph-name="B" unicode="B" horiz-adv-x="703" 
d="M50 0v700h331q245 0 245 -190q0 -98 -87 -145q127 -42 127 -162q0 -60 -24.5 -102.5t-64 -63t-78 -29t-78.5 -8.5h-371zM222 424h144q86 0 86 68t-86 68h-144v-136zM222 140h176q94 0 94 74q0 73 -94 73h-176v-147z" />
    <glyph glyph-name="C" unicode="C" horiz-adv-x="792" 
d="M213 350q0 -112 59 -166t140 -54q73 0 121.5 44.5t48.5 104.5h174q0 -50 -22 -100t-63.5 -92.5t-109 -69.5t-149.5 -27q-160 0 -266.5 98.5t-106.5 261.5t106.5 261.5t266.5 98.5q82 0 149.5 -27t109 -69.5t63.5 -92.5t22 -100h-174q0 60 -48.5 104.5t-121.5 44.5
q-38 0 -71.5 -12t-63 -36.5t-47 -68.5t-17.5 -103z" />
    <glyph glyph-name="D" unicode="D" horiz-adv-x="776" 
d="M353 700q168 0 276.5 -93t108.5 -257t-108.5 -257t-276.5 -93h-303v700h303zM222 140h131q99 0 155 53t56 157t-56 157t-155 53h-131v-420z" />
    <glyph glyph-name="E" unicode="E" horiz-adv-x="606" 
d="M51 700h523v-140h-351v-135h321v-140h-321v-145h351v-140h-523v700z" />
    <glyph glyph-name="F" unicode="F" horiz-adv-x="583" 
d="M48 700h508v-140h-336v-149h306v-140h-306v-270h-172v699z" />
    <glyph glyph-name="G" unicode="G" horiz-adv-x="802" 
d="M212 352q0 -108 59.5 -163.5t164.5 -55.5q168 0 189 128h-227v128h367v-389h-137v78q-78 -86 -215 -86q-154 0 -264.5 99t-110.5 261q0 107 54 190t139.5 125.5t186.5 42.5q142 0 239.5 -80t97.5 -172h-172q0 47 -47.5 79.5t-120.5 32.5q-94 0 -148.5 -55.5t-54.5 -162.5
z" />
    <glyph glyph-name="H" unicode="H" horiz-adv-x="823" 
d="M50 700h172v-272h379v272h172v-700h-172v288h-379v-288h-172v700z" />
    <glyph glyph-name="I" unicode="I" horiz-adv-x="272" 
d="M50 700h172v-700h-172v700z" />
    <glyph glyph-name="J" unicode="J" horiz-adv-x="654" 
d="M432 700h172v-430q0 -124 -70.5 -202t-210.5 -78q-143 0 -213 78.5t-70 211.5h174q0 -150 110 -150q55 0 81.5 40t26.5 100v430z" />
    <glyph glyph-name="K" unicode="K" horiz-adv-x="749" 
d="M50 700h172v-300h74l194 300h206l-248 -362l281 -338h-216l-205 261h-86v-261h-172v700z" />
    <glyph glyph-name="L" unicode="L" horiz-adv-x="611" 
d="M50 700h172v-560h356v-140h-528v700z" />
    <glyph glyph-name="M" unicode="M" horiz-adv-x="921" 
d="M50 700h172l239 -514l238 514h172v-700h-172v371l-158 -371h-161l-158 371v-371h-172v700z" />
    <glyph glyph-name="N" unicode="N" horiz-adv-x="816" 
d="M50 700h172l372 -463v463h172v-700h-172l-372 450v-450h-172v700z" />
    <glyph glyph-name="O" unicode="O" horiz-adv-x="844" 
d="M39 350q0 164 111.5 262t272.5 98q162 0 273.5 -98t111.5 -262t-111.5 -262t-273.5 -98q-161 0 -272.5 98t-111.5 262zM423 570q-92 0 -151 -60.5t-59 -159.5q0 -98 59 -159t151 -61t151.5 61t59.5 159q0 99 -59.5 159.5t-151.5 60.5z" />
    <glyph glyph-name="P" unicode="P" horiz-adv-x="681" 
d="M383 701q28 0 58 -4.5t68.5 -20t68 -40.5t50 -69.5t20.5 -103.5t-20.5 -103.5t-50 -69.5t-68 -40.5t-68.5 -20t-58 -4.5h-161v-225h-172v701h333zM222 365h146q41 0 73.5 23.5t32.5 74.5t-32.5 74.5t-73.5 23.5h-146v-196z" />
    <glyph glyph-name="Q" unicode="Q" horiz-adv-x="844" 
d="M642 -200l-164 193q-27 -3 -56 -3q-161 0 -272.5 98t-111.5 262t111.5 262t272.5 98q162 0 273.5 -98t111.5 -262q0 -102 -45.5 -180t-123.5 -124l216 -246h-212zM422 570q-92 0 -151 -60.5t-59 -159.5q0 -98 59 -159t151 -61t151.5 61t59.5 159q0 99 -59.5 159.5
t-151.5 60.5z" />
    <glyph glyph-name="R" unicode="R" horiz-adv-x="740" 
d="M406 701q41 0 82 -9.5t84.5 -32.5t71 -70t27.5 -113q0 -88 -46 -142.5t-115 -79.5l190 -254h-192l-172 235h-114v-235h-172v701h356zM222 375h169q42 0 74 24.5t32 68.5t-32 68.5t-74 24.5h-169v-186z" />
    <glyph glyph-name="S" unicode="S" horiz-adv-x="732" 
d="M209 234q0 -46 42 -74.5t118 -28.5q154 0 154 62q0 16 -10.5 27.5t-35.5 19.5t-55 14.5t-80 15.5q-26 4 -40 7q-125 23 -181.5 78t-56.5 144q0 98 86 155t211 57q160 0 238.5 -67.5t78.5 -169.5h-174q0 96 -143 96q-55 0 -89 -15t-34 -43q0 -36 31 -49.5t153 -35.5
q52 -9 86.5 -18t73.5 -25t62 -37t38 -54.5t15 -76.5q0 -101 -81.5 -163.5t-238.5 -62.5q-170 0 -256 71t-86 173h174z" />
    <glyph glyph-name="T" unicode="T" horiz-adv-x="679" 
d="M28 700h624v-140h-226v-560h-172v560h-226v140z" />
    <glyph glyph-name="U" unicode="U" horiz-adv-x="749" 
d="M527 700h172v-410q0 -153 -81 -226.5t-244 -73.5t-243.5 73.5t-80.5 226.5v410h172v-410q0 -84 36 -122t116 -38t116.5 38t36.5 122v410z" />
    <glyph glyph-name="V" unicode="V" horiz-adv-x="837" 
d="M333 0l-305 700h187l204 -519l204 519h187l-305 -700h-172z" />
    <glyph glyph-name="W" unicode="W" horiz-adv-x="1090" 
d="M243 0l-215 700h174l132 -480l129 480h157l128 -480l132 480h182l-222 -700h-180l-119 438l-119 -438h-179z" />
    <glyph glyph-name="X" unicode="X" horiz-adv-x="863" 
d="M28 0l300 364l-264 336h209l164 -229l156 229h209l-251 -336l285 -364h-209l-189 266l-200 -266h-210z" />
    <glyph glyph-name="Y" unicode="Y" horiz-adv-x="812" 
d="M320 210l-292 490h198l180 -325l180 325h199l-293 -490v-210h-172v210z" />
    <glyph glyph-name="Z" unicode="Z" horiz-adv-x="636" 
d="M582 700v-136l-332 -424h358v-140h-580v136l332 424h-324v140h546z" />
    <glyph glyph-name="bracketleft" unicode="[" 
d="M101 197q-6 0 -9 -1v-98q2 -1 9 -1q18 0 24.5 12t6.5 38t-6.5 38t-24.5 12zM253 161v-24h-40v-38h47v-24h-76v145h76v-25h-47v-34h40zM99 73q-23 0 -36 2v143q26 4 37 4q33 0 47 -18t14 -57t-14.5 -56.5t-47.5 -17.5zM286 220h39l19 -80l19 80h40q1 -21 3.5 -78.5
t2.5 -66.5h-29q0 53 -3 104l-20 -82h-27l-20 82h-1q-2 -68 -2 -104h-28q2 84 7 145zM482 73q-29 0 -41 17.5t-12 56.5t12 57t41 18t41.5 -18t12.5 -57t-12.5 -56.5t-41.5 -17.5zM482 197q-14 0 -19 -11.5t-5 -38.5q0 -50 24 -50q15 0 20 12t5 38q0 27 -5 38.5t-20 11.5z
M472 496q34 0 48 -20t14 -43q0 -21 -16.5 -35t-35.5 -17q-104 -12 -166 -72q3 8 8.5 20.5t22.5 44.5t34.5 57t42.5 45t48 20zM139 444q26 0 52 -19.5t44 -47t32 -54.5t21 -47l7 -19q-57 72 -156 72q-24 0 -43 15t-19 37q0 26 16.5 44.5t45.5 18.5zM314 593q19 -18 24 -50
t-1.5 -64t-15.5 -62t-17 -49l-9 -18q10 93 -61 161q-17 17 -20.5 40t11.5 41q18 18 41.5 19.5t47.5 -18.5z" />
    <glyph glyph-name="backslash" unicode="\" 
d="M101 197q-6 0 -9 -1v-98q2 -1 9 -1q18 0 24.5 12t6.5 38t-6.5 38t-24.5 12zM253 161v-24h-40v-38h47v-24h-76v145h76v-25h-47v-34h40zM99 73q-23 0 -36 2v143q26 4 37 4q33 0 47 -18t14 -57t-14.5 -56.5t-47.5 -17.5zM286 220h39l19 -80l19 80h40q1 -21 3.5 -78.5
t2.5 -66.5h-29q0 53 -3 104l-20 -82h-27l-20 82h-1q-2 -68 -2 -104h-28q2 84 7 145zM482 73q-29 0 -41 17.5t-12 56.5t12 57t41 18t41.5 -18t12.5 -57t-12.5 -56.5t-41.5 -17.5zM482 197q-14 0 -19 -11.5t-5 -38.5q0 -50 24 -50q15 0 20 12t5 38q0 27 -5 38.5t-20 11.5z
M472 496q34 0 48 -20t14 -43q0 -21 -16.5 -35t-35.5 -17q-104 -12 -166 -72q3 8 8.5 20.5t22.5 44.5t34.5 57t42.5 45t48 20zM139 444q26 0 52 -19.5t44 -47t32 -54.5t21 -47l7 -19q-57 72 -156 72q-24 0 -43 15t-19 37q0 26 16.5 44.5t45.5 18.5zM314 593q19 -18 24 -50
t-1.5 -64t-15.5 -62t-17 -49l-9 -18q10 93 -61 161q-17 17 -20.5 40t11.5 41q18 18 41.5 19.5t47.5 -18.5z" />
    <glyph glyph-name="bracketright" unicode="]" 
d="M101 197q-6 0 -9 -1v-98q2 -1 9 -1q18 0 24.5 12t6.5 38t-6.5 38t-24.5 12zM253 161v-24h-40v-38h47v-24h-76v145h76v-25h-47v-34h40zM99 73q-23 0 -36 2v143q26 4 37 4q33 0 47 -18t14 -57t-14.5 -56.5t-47.5 -17.5zM286 220h39l19 -80l19 80h40q1 -21 3.5 -78.5
t2.5 -66.5h-29q0 53 -3 104l-20 -82h-27l-20 82h-1q-2 -68 -2 -104h-28q2 84 7 145zM482 73q-29 0 -41 17.5t-12 56.5t12 57t41 18t41.5 -18t12.5 -57t-12.5 -56.5t-41.5 -17.5zM482 197q-14 0 -19 -11.5t-5 -38.5q0 -50 24 -50q15 0 20 12t5 38q0 27 -5 38.5t-20 11.5z
M472 496q34 0 48 -20t14 -43q0 -21 -16.5 -35t-35.5 -17q-104 -12 -166 -72q3 8 8.5 20.5t22.5 44.5t34.5 57t42.5 45t48 20zM139 444q26 0 52 -19.5t44 -47t32 -54.5t21 -47l7 -19q-57 72 -156 72q-24 0 -43 15t-19 37q0 26 16.5 44.5t45.5 18.5zM314 593q19 -18 24 -50
t-1.5 -64t-15.5 -62t-17 -49l-9 -18q10 93 -61 161q-17 17 -20.5 40t11.5 41q18 18 41.5 19.5t47.5 -18.5z" />
    <glyph glyph-name="asciicircum" unicode="^" 
d="M101 197q-6 0 -9 -1v-98q2 -1 9 -1q18 0 24.5 12t6.5 38t-6.5 38t-24.5 12zM253 161v-24h-40v-38h47v-24h-76v145h76v-25h-47v-34h40zM99 73q-23 0 -36 2v143q26 4 37 4q33 0 47 -18t14 -57t-14.5 -56.5t-47.5 -17.5zM286 220h39l19 -80l19 80h40q1 -21 3.5 -78.5
t2.5 -66.5h-29q0 53 -3 104l-20 -82h-27l-20 82h-1q-2 -68 -2 -104h-28q2 84 7 145zM482 73q-29 0 -41 17.5t-12 56.5t12 57t41 18t41.5 -18t12.5 -57t-12.5 -56.5t-41.5 -17.5zM482 197q-14 0 -19 -11.5t-5 -38.5q0 -50 24 -50q15 0 20 12t5 38q0 27 -5 38.5t-20 11.5z
M472 496q34 0 48 -20t14 -43q0 -21 -16.5 -35t-35.5 -17q-104 -12 -166 -72q3 8 8.5 20.5t22.5 44.5t34.5 57t42.5 45t48 20zM139 444q26 0 52 -19.5t44 -47t32 -54.5t21 -47l7 -19q-57 72 -156 72q-24 0 -43 15t-19 37q0 26 16.5 44.5t45.5 18.5zM314 593q19 -18 24 -50
t-1.5 -64t-15.5 -62t-17 -49l-9 -18q10 93 -61 161q-17 17 -20.5 40t11.5 41q18 18 41.5 19.5t47.5 -18.5z" />
    <glyph glyph-name="underscore" unicode="_" 
d="M101 197q-6 0 -9 -1v-98q2 -1 9 -1q18 0 24.5 12t6.5 38t-6.5 38t-24.5 12zM253 161v-24h-40v-38h47v-24h-76v145h76v-25h-47v-34h40zM99 73q-23 0 -36 2v143q26 4 37 4q33 0 47 -18t14 -57t-14.5 -56.5t-47.5 -17.5zM286 220h39l19 -80l19 80h40q1 -21 3.5 -78.5
t2.5 -66.5h-29q0 53 -3 104l-20 -82h-27l-20 82h-1q-2 -68 -2 -104h-28q2 84 7 145zM482 73q-29 0 -41 17.5t-12 56.5t12 57t41 18t41.5 -18t12.5 -57t-12.5 -56.5t-41.5 -17.5zM482 197q-14 0 -19 -11.5t-5 -38.5q0 -50 24 -50q15 0 20 12t5 38q0 27 -5 38.5t-20 11.5z
M472 496q34 0 48 -20t14 -43q0 -21 -16.5 -35t-35.5 -17q-104 -12 -166 -72q3 8 8.5 20.5t22.5 44.5t34.5 57t42.5 45t48 20zM139 444q26 0 52 -19.5t44 -47t32 -54.5t21 -47l7 -19q-57 72 -156 72q-24 0 -43 15t-19 37q0 26 16.5 44.5t45.5 18.5zM314 593q19 -18 24 -50
t-1.5 -64t-15.5 -62t-17 -49l-9 -18q10 93 -61 161q-17 17 -20.5 40t11.5 41q18 18 41.5 19.5t47.5 -18.5z" />
    <glyph glyph-name="grave" unicode="`" 
d="M101 197q-6 0 -9 -1v-98q2 -1 9 -1q18 0 24.5 12t6.5 38t-6.5 38t-24.5 12zM253 161v-24h-40v-38h47v-24h-76v145h76v-25h-47v-34h40zM99 73q-23 0 -36 2v143q26 4 37 4q33 0 47 -18t14 -57t-14.5 -56.5t-47.5 -17.5zM286 220h39l19 -80l19 80h40q1 -21 3.5 -78.5
t2.5 -66.5h-29q0 53 -3 104l-20 -82h-27l-20 82h-1q-2 -68 -2 -104h-28q2 84 7 145zM482 73q-29 0 -41 17.5t-12 56.5t12 57t41 18t41.5 -18t12.5 -57t-12.5 -56.5t-41.5 -17.5zM482 197q-14 0 -19 -11.5t-5 -38.5q0 -50 24 -50q15 0 20 12t5 38q0 27 -5 38.5t-20 11.5z
M472 496q34 0 48 -20t14 -43q0 -21 -16.5 -35t-35.5 -17q-104 -12 -166 -72q3 8 8.5 20.5t22.5 44.5t34.5 57t42.5 45t48 20zM139 444q26 0 52 -19.5t44 -47t32 -54.5t21 -47l7 -19q-57 72 -156 72q-24 0 -43 15t-19 37q0 26 16.5 44.5t45.5 18.5zM314 593q19 -18 24 -50
t-1.5 -64t-15.5 -62t-17 -49l-9 -18q10 93 -61 161q-17 17 -20.5 40t11.5 41q18 18 41.5 19.5t47.5 -18.5z" />
    <glyph glyph-name="a" unicode="a" horiz-adv-x="593" 
d="M92 500h207q120 0 170 -51t50 -146v-95q0 -40 13 -55t49 -15h8v-138h-119q-55 0 -77 20t-26 67q-35 -97 -151 -97q-88 0 -134 40.5t-46 116.5q0 78 49 119.5t164 41.5h100q-1 32 -16 46.5t-59 14.5h-182v131zM349 221h-92q-33 0 -48.5 -10.5t-15.5 -36.5q0 -28 17 -38
t53 -10q86 0 86 59v36z" />
    <glyph glyph-name="b" unicode="b" horiz-adv-x="641" 
d="M614 250q0 -116 -64 -188t-170 -72q-115 0 -170 89v-79h-170v700h170v-278q55 88 170 88q106 0 170 -72t64 -188zM210 218q0 -36 34.5 -63t79.5 -27q51 0 84.5 33t33.5 89t-33.5 89t-84.5 33q-45 0 -79.5 -26.5t-34.5 -62.5v-65z" />
    <glyph glyph-name="c" unicode="c" horiz-adv-x="596" 
d="M200 250q0 -57 28.5 -89.5t78.5 -32.5q39 0 64.5 24t25.5 57h172q0 -40 -14.5 -77t-44 -69.5t-81.5 -52.5t-119 -20q-130 0 -206 69t-76 191t76 191t206 69q67 0 119 -19.5t81.5 -52.5t44 -70t14.5 -77h-172q0 33 -25.5 57t-64.5 24q-50 0 -78.5 -32t-28.5 -90z" />
    <glyph glyph-name="d" unicode="d" horiz-adv-x="641" 
d="M28 250q0 116 64 188t170 72q115 0 169 -87v277h170v-700h-170v78q-55 -88 -169 -88q-106 0 -170 72t-64 188zM317 128q45 0 79.5 27t34.5 63v65q0 36 -34.5 62.5t-79.5 26.5q-51 0 -84 -33t-33 -89t33 -89t84 -33z" />
    <glyph glyph-name="e" unicode="e" horiz-adv-x="596" 
d="M569 251v-44h-369q15 -94 102 -94q43 0 69 18t26 46h169q-12 -81 -80 -134t-192 -53q-117 0 -191.5 70t-74.5 190t74.5 190t191.5 70q133 0 204 -71.5t71 -187.5zM398 292q-6 52 -30.5 73.5t-65.5 21.5q-38 0 -66 -23t-36 -72h198z" />
    <glyph glyph-name="f" unicode="f" horiz-adv-x="397" 
d="M377 573h-59q-38 0 -52 -9.5t-14 -42.5v-21h126v-138h-126v-362h-170v362h-61v138h61v53q0 78 43.5 118t125.5 40h126v-138z" />
    <glyph glyph-name="g" unicode="g" horiz-adv-x="641" 
d="M109 -62h218q56 0 80 20t24 65v55q-55 -88 -169 -88q-106 0 -170 72t-64 188t64 188t170 72q115 0 169 -87v77h170v-455q0 -124 -62 -184.5t-197 -60.5h-233v138zM317 128q45 0 79.5 27t34.5 63v65q0 36 -34.5 62.5t-79.5 26.5q-51 0 -84 -33t-33 -89t33 -89t84 -33z" />
    <glyph glyph-name="h" unicode="h" horiz-adv-x="609" 
d="M40 700h170v-290q57 100 178 100q92 0 136.5 -52.5t44.5 -144.5v-313h-170v268q0 52 -20 78t-71 26q-43 0 -70.5 -28.5t-27.5 -78.5v-265h-170v700z" />
    <glyph glyph-name="i" unicode="i" horiz-adv-x="245" 
d="M28 646q0 39 28 66.5t69 27.5q40 0 67.5 -27.5t27.5 -66.5q0 -42 -27.5 -70t-67.5 -28q-41 0 -69 28t-28 70zM38 500h170v-500h-170v500z" />
    <glyph glyph-name="j" unicode="j" horiz-adv-x="245" 
d="M25 646q0 39 28.5 66.5t69.5 27.5q39 0 66.5 -27.5t27.5 -66.5q0 -42 -27.5 -70t-66.5 -28q-41 0 -69.5 28t-28.5 70zM-83 -62h54q37 0 52 11t15 46v505h170v-543q0 -157 -169 -157h-122v138z" />
    <glyph glyph-name="k" unicode="k" horiz-adv-x="617" 
d="M40 700h170v-378h51l108 178h196l-157 -236l186 -264h-201l-127 199h-56v-199h-170v700z" />
    <glyph glyph-name="l" unicode="l" horiz-adv-x="285" 
d="M280 138v-138h-106q-71 0 -102.5 34t-31.5 106v560h170v-492q0 -40 13 -55t49 -15h8z" />
    <glyph glyph-name="m" unicode="m" horiz-adv-x="912" 
d="M40 500h170v-84q53 94 160 94q126 0 160 -115q24 55 68 85t103 30q85 0 128 -52.5t43 -144.5v-313h-170v275q0 51 -16.5 74t-60.5 23q-37 0 -60.5 -25t-23.5 -74v-273h-170v275q0 51 -16.5 74t-60.5 23q-37 0 -60.5 -25t-23.5 -74v-273h-170v500z" />
    <glyph glyph-name="n" unicode="n" horiz-adv-x="609" 
d="M40 500h170v-90q57 100 178 100q92 0 136.5 -52.5t44.5 -144.5v-313h-170v268q0 52 -20 78t-71 26q-43 0 -70.5 -28.5t-27.5 -78.5v-265h-170v500z" />
    <glyph glyph-name="o" unicode="o" horiz-adv-x="627" 
d="M314 128q52 0 83 36t31 86t-31 86t-83 36t-83 -36t-31 -86t31 -86t83 -36zM314 510q122 0 204 -70.5t82 -189.5t-82 -189.5t-204 -70.5t-204 70.5t-82 189.5t82 189.5t204 70.5z" />
    <glyph glyph-name="p" unicode="p" horiz-adv-x="641" 
d="M40 500h170v-78q55 88 170 88q106 0 170 -72t64 -188t-64 -188t-170 -72q-115 0 -170 89v-279h-170v700zM210 218q0 -36 34.5 -63t79.5 -27q51 0 84.5 33t33.5 89t-33.5 89t-84.5 33q-45 0 -79.5 -26.5t-34.5 -62.5v-65z" />
    <glyph glyph-name="q" unicode="q" horiz-adv-x="641" 
d="M601 500v-700h-170v278q-55 -88 -169 -88q-106 0 -170 72t-64 188t64 188t170 72q115 0 169 -87v77h170zM317 128q45 0 79.5 27t34.5 63v65q0 36 -34.5 62.5t-79.5 26.5q-51 0 -84 -33t-33 -89t33 -89t84 -33z" />
    <glyph glyph-name="r" unicode="r" horiz-adv-x="425" 
d="M40 500h170v-87q27 44 67.5 70.5t81.5 26.5h49v-138h-109q-89 0 -89 -102v-270h-170v500z" />
    <glyph glyph-name="s" unicode="s" horiz-adv-x="569" 
d="M183 169q0 -64 113 -64q83 0 83 34q0 16 -19.5 23.5t-98.5 23.5q-115 23 -167.5 61.5t-52.5 100.5q0 81 68 122t169 41q125 0 185.5 -53t60.5 -126h-155q0 64 -90 64q-75 0 -75 -35q0 -16 19.5 -23.5t97.5 -24.5q22 -5 34 -8q38 -9 58 -14t49 -17t43.5 -25.5t25.5 -36
t11 -51.5q0 -77 -66.5 -124t-187.5 -47q-123 0 -191.5 54t-68.5 125h155z" />
    <glyph glyph-name="t" unicode="t" horiz-adv-x="408" 
d="M20 500h65v120h170v-120h133v-138h-133v-167q0 -36 14.5 -46.5t52.5 -10.5h66v-138h-134q-82 0 -125.5 40t-43.5 118v204h-65v138z" />
    <glyph glyph-name="u" unicode="u" horiz-adv-x="644" 
d="M639 138v-138h-106q-114 0 -130 95q-27 -50 -74.5 -77.5t-107.5 -27.5q-91 0 -136 53t-45 145v312h170v-267q0 -52 20 -78.5t71 -26.5q43 0 70.5 28.5t27.5 78.5v265h170v-292q0 -40 13 -55t49 -15h8z" />
    <glyph glyph-name="v" unicode="v" horiz-adv-x="656" 
d="M20 500h181l127 -307l127 307h181l-230 -500h-156z" />
    <glyph glyph-name="w" unicode="w" horiz-adv-x="831" 
d="M20 500h171l65 -288l79 288h161l79 -288l65 288h171l-150 -500h-163l-82 315l-82 -315h-164z" />
    <glyph glyph-name="x" unicode="x" horiz-adv-x="665" 
d="M20 0l202 261l-183 239h196l95 -140l100 140h197l-183 -239l201 -261h-198l-114 159l-114 -159h-199z" />
    <glyph glyph-name="y" unicode="y" horiz-adv-x="616" 
d="M596 500l-209 -510q-26 -62 -44.5 -93.5t-54.5 -56.5t-87 -32.5t-137 -7.5v138q62 0 93 6.5t41 17t21 35.5l5 12l-204 491h171l118 -314l116 314h171z" />
    <glyph glyph-name="z" unicode="z" horiz-adv-x="508" 
d="M470 500v-119l-223 -243h242v-138h-466v119l224 243h-216v138h439z" />
    <glyph glyph-name="braceleft" unicode="{" 
d="M101 197q-6 0 -9 -1v-98q2 -1 9 -1q18 0 24.5 12t6.5 38t-6.5 38t-24.5 12zM253 161v-24h-40v-38h47v-24h-76v145h76v-25h-47v-34h40zM99 73q-23 0 -36 2v143q26 4 37 4q33 0 47 -18t14 -57t-14.5 -56.5t-47.5 -17.5zM286 220h39l19 -80l19 80h40q1 -21 3.5 -78.5
t2.5 -66.5h-29q0 53 -3 104l-20 -82h-27l-20 82h-1q-2 -68 -2 -104h-28q2 84 7 145zM482 73q-29 0 -41 17.5t-12 56.5t12 57t41 18t41.5 -18t12.5 -57t-12.5 -56.5t-41.5 -17.5zM482 197q-14 0 -19 -11.5t-5 -38.5q0 -50 24 -50q15 0 20 12t5 38q0 27 -5 38.5t-20 11.5z
M472 496q34 0 48 -20t14 -43q0 -21 -16.5 -35t-35.5 -17q-104 -12 -166 -72q3 8 8.5 20.5t22.5 44.5t34.5 57t42.5 45t48 20zM139 444q26 0 52 -19.5t44 -47t32 -54.5t21 -47l7 -19q-57 72 -156 72q-24 0 -43 15t-19 37q0 26 16.5 44.5t45.5 18.5zM314 593q19 -18 24 -50
t-1.5 -64t-15.5 -62t-17 -49l-9 -18q10 93 -61 161q-17 17 -20.5 40t11.5 41q18 18 41.5 19.5t47.5 -18.5z" />
    <glyph glyph-name="bar" unicode="|" 
d="M101 197q-6 0 -9 -1v-98q2 -1 9 -1q18 0 24.5 12t6.5 38t-6.5 38t-24.5 12zM253 161v-24h-40v-38h47v-24h-76v145h76v-25h-47v-34h40zM99 73q-23 0 -36 2v143q26 4 37 4q33 0 47 -18t14 -57t-14.5 -56.5t-47.5 -17.5zM286 220h39l19 -80l19 80h40q1 -21 3.5 -78.5
t2.5 -66.5h-29q0 53 -3 104l-20 -82h-27l-20 82h-1q-2 -68 -2 -104h-28q2 84 7 145zM482 73q-29 0 -41 17.5t-12 56.5t12 57t41 18t41.5 -18t12.5 -57t-12.5 -56.5t-41.5 -17.5zM482 197q-14 0 -19 -11.5t-5 -38.5q0 -50 24 -50q15 0 20 12t5 38q0 27 -5 38.5t-20 11.5z
M472 496q34 0 48 -20t14 -43q0 -21 -16.5 -35t-35.5 -17q-104 -12 -166 -72q3 8 8.5 20.5t22.5 44.5t34.5 57t42.5 45t48 20zM139 444q26 0 52 -19.5t44 -47t32 -54.5t21 -47l7 -19q-57 72 -156 72q-24 0 -43 15t-19 37q0 26 16.5 44.5t45.5 18.5zM314 593q19 -18 24 -50
t-1.5 -64t-15.5 -62t-17 -49l-9 -18q10 93 -61 161q-17 17 -20.5 40t11.5 41q18 18 41.5 19.5t47.5 -18.5z" />
    <glyph glyph-name="braceright" unicode="}" 
d="M101 197q-6 0 -9 -1v-98q2 -1 9 -1q18 0 24.5 12t6.5 38t-6.5 38t-24.5 12zM253 161v-24h-40v-38h47v-24h-76v145h76v-25h-47v-34h40zM99 73q-23 0 -36 2v143q26 4 37 4q33 0 47 -18t14 -57t-14.5 -56.5t-47.5 -17.5zM286 220h39l19 -80l19 80h40q1 -21 3.5 -78.5
t2.5 -66.5h-29q0 53 -3 104l-20 -82h-27l-20 82h-1q-2 -68 -2 -104h-28q2 84 7 145zM482 73q-29 0 -41 17.5t-12 56.5t12 57t41 18t41.5 -18t12.5 -57t-12.5 -56.5t-41.5 -17.5zM482 197q-14 0 -19 -11.5t-5 -38.5q0 -50 24 -50q15 0 20 12t5 38q0 27 -5 38.5t-20 11.5z
M472 496q34 0 48 -20t14 -43q0 -21 -16.5 -35t-35.5 -17q-104 -12 -166 -72q3 8 8.5 20.5t22.5 44.5t34.5 57t42.5 45t48 20zM139 444q26 0 52 -19.5t44 -47t32 -54.5t21 -47l7 -19q-57 72 -156 72q-24 0 -43 15t-19 37q0 26 16.5 44.5t45.5 18.5zM314 593q19 -18 24 -50
t-1.5 -64t-15.5 -62t-17 -49l-9 -18q10 93 -61 161q-17 17 -20.5 40t11.5 41q18 18 41.5 19.5t47.5 -18.5z" />
    <glyph glyph-name="asciitilde" unicode="~" 
d="M101 197q-6 0 -9 -1v-98q2 -1 9 -1q18 0 24.5 12t6.5 38t-6.5 38t-24.5 12zM253 161v-24h-40v-38h47v-24h-76v145h76v-25h-47v-34h40zM99 73q-23 0 -36 2v143q26 4 37 4q33 0 47 -18t14 -57t-14.5 -56.5t-47.5 -17.5zM286 220h39l19 -80l19 80h40q1 -21 3.5 -78.5
t2.5 -66.5h-29q0 53 -3 104l-20 -82h-27l-20 82h-1q-2 -68 -2 -104h-28q2 84 7 145zM482 73q-29 0 -41 17.5t-12 56.5t12 57t41 18t41.5 -18t12.5 -57t-12.5 -56.5t-41.5 -17.5zM482 197q-14 0 -19 -11.5t-5 -38.5q0 -50 24 -50q15 0 20 12t5 38q0 27 -5 38.5t-20 11.5z
M472 496q34 0 48 -20t14 -43q0 -21 -16.5 -35t-35.5 -17q-104 -12 -166 -72q3 8 8.5 20.5t22.5 44.5t34.5 57t42.5 45t48 20zM139 444q26 0 52 -19.5t44 -47t32 -54.5t21 -47l7 -19q-57 72 -156 72q-24 0 -43 15t-19 37q0 26 16.5 44.5t45.5 18.5zM314 593q19 -18 24 -50
t-1.5 -64t-15.5 -62t-17 -49l-9 -18q10 93 -61 161q-17 17 -20.5 40t11.5 41q18 18 41.5 19.5t47.5 -18.5z" />
    </font>
</defs>
</svg>
