<?xml version="1.0" standalone="no"?>
<!DOCTYPE svg PUBLIC "-//W3C//DTD SVG 1.1//EN" "http://www.w3.org/Graphics/SVG/1.1/DTD/svg11.dtd" >
<svg xmlns="http://www.w3.org/2000/svg" xmlns:xlink="http://www.w3.org/1999/xlink" version="1.1">
<metadata>
Created by FontForge 20230101 at Wed Dec 30 23:16:19 2020
 By Unknown
Tour de Force Font Foundry &#38; Dusan Jelesijevic
</metadata>
<defs>
<font id="FONTSPRINGDEMO-LupioExtLtRegular" horiz-adv-x="598" >
  <font-face 
    font-family="FSP DEMO - Lupio ExtLt"
    font-weight="200"
    font-stretch="normal"
    units-per-em="1000"
    panose-1="0 0 0 0 0 0 0 0 0 0"
    ascent="800"
    descent="-200"
    x-height="500"
    cap-height="700"
    bbox="-102 -200 987 715"
    underline-thickness="50"
    underline-position="-125"
    unicode-range="U+000D-007E"
  />
<missing-glyph 
d="M101 197q-6 0 -9 -1v-98q2 -1 9 -1q18 0 24.5 12t6.5 38t-6.5 38t-24.5 12zM253 161v-24h-40v-38h47v-24h-76v145h76v-25h-47v-34h40zM99 73q-23 0 -36 2v143q26 4 37 4q33 0 47 -18t14 -57t-14.5 -56.5t-47.5 -17.5zM286 220h39l19 -80l19 80h40q1 -21 3.5 -78.5
t2.5 -66.5h-29q0 53 -3 104l-20 -82h-27l-20 82h-1q-2 -68 -2 -104h-28q2 84 7 145zM482 73q-29 0 -41 17.5t-12 56.5t12 57t41 18t41.5 -18t12.5 -57t-12.5 -56.5t-41.5 -17.5zM482 197q-14 0 -19 -11.5t-5 -38.5q0 -50 24 -50q15 0 20 12t5 38q0 27 -5 38.5t-20 11.5z
M472 496q34 0 48 -20t14 -43q0 -21 -16.5 -35t-35.5 -17q-104 -12 -166 -72q3 8 8.5 20.5t22.5 44.5t34.5 57t42.5 45t48 20zM139 444q26 0 52 -19.5t44 -47t32 -54.5t21 -47l7 -19q-57 72 -156 72q-24 0 -43 15t-19 37q0 26 16.5 44.5t45.5 18.5zM314 593q19 -18 24 -50
t-1.5 -64t-15.5 -62t-17 -49l-9 -18q10 93 -61 161q-17 17 -20.5 40t11.5 41q18 18 41.5 19.5t47.5 -18.5z" />
    <glyph glyph-name=".notdef" 
d="M101 197q-6 0 -9 -1v-98q2 -1 9 -1q18 0 24.5 12t6.5 38t-6.5 38t-24.5 12zM253 161v-24h-40v-38h47v-24h-76v145h76v-25h-47v-34h40zM99 73q-23 0 -36 2v143q26 4 37 4q33 0 47 -18t14 -57t-14.5 -56.5t-47.5 -17.5zM286 220h39l19 -80l19 80h40q1 -21 3.5 -78.5
t2.5 -66.5h-29q0 53 -3 104l-20 -82h-27l-20 82h-1q-2 -68 -2 -104h-28q2 84 7 145zM482 73q-29 0 -41 17.5t-12 56.5t12 57t41 18t41.5 -18t12.5 -57t-12.5 -56.5t-41.5 -17.5zM482 197q-14 0 -19 -11.5t-5 -38.5q0 -50 24 -50q15 0 20 12t5 38q0 27 -5 38.5t-20 11.5z
M472 496q34 0 48 -20t14 -43q0 -21 -16.5 -35t-35.5 -17q-104 -12 -166 -72q3 8 8.5 20.5t22.5 44.5t34.5 57t42.5 45t48 20zM139 444q26 0 52 -19.5t44 -47t32 -54.5t21 -47l7 -19q-57 72 -156 72q-24 0 -43 15t-19 37q0 26 16.5 44.5t45.5 18.5zM314 593q19 -18 24 -50
t-1.5 -64t-15.5 -62t-17 -49l-9 -18q10 93 -61 161q-17 17 -20.5 40t11.5 41q18 18 41.5 19.5t47.5 -18.5z" />
    <glyph glyph-name="uni0000" horiz-adv-x="0" 
 />
    <glyph glyph-name="uni000D" unicode="&#xd;" horiz-adv-x="250" 
 />
    <glyph glyph-name="space" unicode=" " horiz-adv-x="260" 
 />
    <glyph glyph-name="exclam" unicode="!" 
d="M101 197q-6 0 -9 -1v-98q2 -1 9 -1q18 0 24.5 12t6.5 38t-6.5 38t-24.5 12zM253 161v-24h-40v-38h47v-24h-76v145h76v-25h-47v-34h40zM99 73q-23 0 -36 2v143q26 4 37 4q33 0 47 -18t14 -57t-14.5 -56.5t-47.5 -17.5zM286 220h39l19 -80l19 80h40q1 -21 3.5 -78.5
t2.5 -66.5h-29q0 53 -3 104l-20 -82h-27l-20 82h-1q-2 -68 -2 -104h-28q2 84 7 145zM482 73q-29 0 -41 17.5t-12 56.5t12 57t41 18t41.5 -18t12.5 -57t-12.5 -56.5t-41.5 -17.5zM482 197q-14 0 -19 -11.5t-5 -38.5q0 -50 24 -50q15 0 20 12t5 38q0 27 -5 38.5t-20 11.5z
M472 496q34 0 48 -20t14 -43q0 -21 -16.5 -35t-35.5 -17q-104 -12 -166 -72q3 8 8.5 20.5t22.5 44.5t34.5 57t42.5 45t48 20zM139 444q26 0 52 -19.5t44 -47t32 -54.5t21 -47l7 -19q-57 72 -156 72q-24 0 -43 15t-19 37q0 26 16.5 44.5t45.5 18.5zM314 593q19 -18 24 -50
t-1.5 -64t-15.5 -62t-17 -49l-9 -18q10 93 -61 161q-17 17 -20.5 40t11.5 41q18 18 41.5 19.5t47.5 -18.5z" />
    <glyph glyph-name="quotedbl" unicode="&#x22;" 
d="M101 197q-6 0 -9 -1v-98q2 -1 9 -1q18 0 24.5 12t6.5 38t-6.5 38t-24.5 12zM253 161v-24h-40v-38h47v-24h-76v145h76v-25h-47v-34h40zM99 73q-23 0 -36 2v143q26 4 37 4q33 0 47 -18t14 -57t-14.5 -56.5t-47.5 -17.5zM286 220h39l19 -80l19 80h40q1 -21 3.5 -78.5
t2.5 -66.5h-29q0 53 -3 104l-20 -82h-27l-20 82h-1q-2 -68 -2 -104h-28q2 84 7 145zM482 73q-29 0 -41 17.5t-12 56.5t12 57t41 18t41.5 -18t12.5 -57t-12.5 -56.5t-41.5 -17.5zM482 197q-14 0 -19 -11.5t-5 -38.5q0 -50 24 -50q15 0 20 12t5 38q0 27 -5 38.5t-20 11.5z
M472 496q34 0 48 -20t14 -43q0 -21 -16.5 -35t-35.5 -17q-104 -12 -166 -72q3 8 8.5 20.5t22.5 44.5t34.5 57t42.5 45t48 20zM139 444q26 0 52 -19.5t44 -47t32 -54.5t21 -47l7 -19q-57 72 -156 72q-24 0 -43 15t-19 37q0 26 16.5 44.5t45.5 18.5zM314 593q19 -18 24 -50
t-1.5 -64t-15.5 -62t-17 -49l-9 -18q10 93 -61 161q-17 17 -20.5 40t11.5 41q18 18 41.5 19.5t47.5 -18.5z" />
    <glyph glyph-name="numbersign" unicode="#" 
d="M101 197q-6 0 -9 -1v-98q2 -1 9 -1q18 0 24.5 12t6.5 38t-6.5 38t-24.5 12zM253 161v-24h-40v-38h47v-24h-76v145h76v-25h-47v-34h40zM99 73q-23 0 -36 2v143q26 4 37 4q33 0 47 -18t14 -57t-14.5 -56.5t-47.5 -17.5zM286 220h39l19 -80l19 80h40q1 -21 3.5 -78.5
t2.5 -66.5h-29q0 53 -3 104l-20 -82h-27l-20 82h-1q-2 -68 -2 -104h-28q2 84 7 145zM482 73q-29 0 -41 17.5t-12 56.5t12 57t41 18t41.5 -18t12.5 -57t-12.5 -56.5t-41.5 -17.5zM482 197q-14 0 -19 -11.5t-5 -38.5q0 -50 24 -50q15 0 20 12t5 38q0 27 -5 38.5t-20 11.5z
M472 496q34 0 48 -20t14 -43q0 -21 -16.5 -35t-35.5 -17q-104 -12 -166 -72q3 8 8.5 20.5t22.5 44.5t34.5 57t42.5 45t48 20zM139 444q26 0 52 -19.5t44 -47t32 -54.5t21 -47l7 -19q-57 72 -156 72q-24 0 -43 15t-19 37q0 26 16.5 44.5t45.5 18.5zM314 593q19 -18 24 -50
t-1.5 -64t-15.5 -62t-17 -49l-9 -18q10 93 -61 161q-17 17 -20.5 40t11.5 41q18 18 41.5 19.5t47.5 -18.5z" />
    <glyph glyph-name="dollar" unicode="$" 
d="M101 197q-6 0 -9 -1v-98q2 -1 9 -1q18 0 24.5 12t6.5 38t-6.5 38t-24.5 12zM253 161v-24h-40v-38h47v-24h-76v145h76v-25h-47v-34h40zM99 73q-23 0 -36 2v143q26 4 37 4q33 0 47 -18t14 -57t-14.5 -56.5t-47.5 -17.5zM286 220h39l19 -80l19 80h40q1 -21 3.5 -78.5
t2.5 -66.5h-29q0 53 -3 104l-20 -82h-27l-20 82h-1q-2 -68 -2 -104h-28q2 84 7 145zM482 73q-29 0 -41 17.5t-12 56.5t12 57t41 18t41.5 -18t12.5 -57t-12.5 -56.5t-41.5 -17.5zM482 197q-14 0 -19 -11.5t-5 -38.5q0 -50 24 -50q15 0 20 12t5 38q0 27 -5 38.5t-20 11.5z
M472 496q34 0 48 -20t14 -43q0 -21 -16.5 -35t-35.5 -17q-104 -12 -166 -72q3 8 8.5 20.5t22.5 44.5t34.5 57t42.5 45t48 20zM139 444q26 0 52 -19.5t44 -47t32 -54.5t21 -47l7 -19q-57 72 -156 72q-24 0 -43 15t-19 37q0 26 16.5 44.5t45.5 18.5zM314 593q19 -18 24 -50
t-1.5 -64t-15.5 -62t-17 -49l-9 -18q10 93 -61 161q-17 17 -20.5 40t11.5 41q18 18 41.5 19.5t47.5 -18.5z" />
    <glyph glyph-name="percent" unicode="%" 
d="M101 197q-6 0 -9 -1v-98q2 -1 9 -1q18 0 24.5 12t6.5 38t-6.5 38t-24.5 12zM253 161v-24h-40v-38h47v-24h-76v145h76v-25h-47v-34h40zM99 73q-23 0 -36 2v143q26 4 37 4q33 0 47 -18t14 -57t-14.5 -56.5t-47.5 -17.5zM286 220h39l19 -80l19 80h40q1 -21 3.5 -78.5
t2.5 -66.5h-29q0 53 -3 104l-20 -82h-27l-20 82h-1q-2 -68 -2 -104h-28q2 84 7 145zM482 73q-29 0 -41 17.5t-12 56.5t12 57t41 18t41.5 -18t12.5 -57t-12.5 -56.5t-41.5 -17.5zM482 197q-14 0 -19 -11.5t-5 -38.5q0 -50 24 -50q15 0 20 12t5 38q0 27 -5 38.5t-20 11.5z
M472 496q34 0 48 -20t14 -43q0 -21 -16.5 -35t-35.5 -17q-104 -12 -166 -72q3 8 8.5 20.5t22.5 44.5t34.5 57t42.5 45t48 20zM139 444q26 0 52 -19.5t44 -47t32 -54.5t21 -47l7 -19q-57 72 -156 72q-24 0 -43 15t-19 37q0 26 16.5 44.5t45.5 18.5zM314 593q19 -18 24 -50
t-1.5 -64t-15.5 -62t-17 -49l-9 -18q10 93 -61 161q-17 17 -20.5 40t11.5 41q18 18 41.5 19.5t47.5 -18.5z" />
    <glyph glyph-name="ampersand" unicode="&#x26;" 
d="M101 197q-6 0 -9 -1v-98q2 -1 9 -1q18 0 24.5 12t6.5 38t-6.5 38t-24.5 12zM253 161v-24h-40v-38h47v-24h-76v145h76v-25h-47v-34h40zM99 73q-23 0 -36 2v143q26 4 37 4q33 0 47 -18t14 -57t-14.5 -56.5t-47.5 -17.5zM286 220h39l19 -80l19 80h40q1 -21 3.5 -78.5
t2.5 -66.5h-29q0 53 -3 104l-20 -82h-27l-20 82h-1q-2 -68 -2 -104h-28q2 84 7 145zM482 73q-29 0 -41 17.5t-12 56.5t12 57t41 18t41.5 -18t12.5 -57t-12.5 -56.5t-41.5 -17.5zM482 197q-14 0 -19 -11.5t-5 -38.5q0 -50 24 -50q15 0 20 12t5 38q0 27 -5 38.5t-20 11.5z
M472 496q34 0 48 -20t14 -43q0 -21 -16.5 -35t-35.5 -17q-104 -12 -166 -72q3 8 8.5 20.5t22.5 44.5t34.5 57t42.5 45t48 20zM139 444q26 0 52 -19.5t44 -47t32 -54.5t21 -47l7 -19q-57 72 -156 72q-24 0 -43 15t-19 37q0 26 16.5 44.5t45.5 18.5zM314 593q19 -18 24 -50
t-1.5 -64t-15.5 -62t-17 -49l-9 -18q10 93 -61 161q-17 17 -20.5 40t11.5 41q18 18 41.5 19.5t47.5 -18.5z" />
    <glyph glyph-name="quotesingle" unicode="'" 
d="M101 197q-6 0 -9 -1v-98q2 -1 9 -1q18 0 24.5 12t6.5 38t-6.5 38t-24.5 12zM253 161v-24h-40v-38h47v-24h-76v145h76v-25h-47v-34h40zM99 73q-23 0 -36 2v143q26 4 37 4q33 0 47 -18t14 -57t-14.5 -56.5t-47.5 -17.5zM286 220h39l19 -80l19 80h40q1 -21 3.5 -78.5
t2.5 -66.5h-29q0 53 -3 104l-20 -82h-27l-20 82h-1q-2 -68 -2 -104h-28q2 84 7 145zM482 73q-29 0 -41 17.5t-12 56.5t12 57t41 18t41.5 -18t12.5 -57t-12.5 -56.5t-41.5 -17.5zM482 197q-14 0 -19 -11.5t-5 -38.5q0 -50 24 -50q15 0 20 12t5 38q0 27 -5 38.5t-20 11.5z
M472 496q34 0 48 -20t14 -43q0 -21 -16.5 -35t-35.5 -17q-104 -12 -166 -72q3 8 8.5 20.5t22.5 44.5t34.5 57t42.5 45t48 20zM139 444q26 0 52 -19.5t44 -47t32 -54.5t21 -47l7 -19q-57 72 -156 72q-24 0 -43 15t-19 37q0 26 16.5 44.5t45.5 18.5zM314 593q19 -18 24 -50
t-1.5 -64t-15.5 -62t-17 -49l-9 -18q10 93 -61 161q-17 17 -20.5 40t11.5 41q18 18 41.5 19.5t47.5 -18.5z" />
    <glyph glyph-name="parenleft" unicode="(" 
d="M101 197q-6 0 -9 -1v-98q2 -1 9 -1q18 0 24.5 12t6.5 38t-6.5 38t-24.5 12zM253 161v-24h-40v-38h47v-24h-76v145h76v-25h-47v-34h40zM99 73q-23 0 -36 2v143q26 4 37 4q33 0 47 -18t14 -57t-14.5 -56.5t-47.5 -17.5zM286 220h39l19 -80l19 80h40q1 -21 3.5 -78.5
t2.5 -66.5h-29q0 53 -3 104l-20 -82h-27l-20 82h-1q-2 -68 -2 -104h-28q2 84 7 145zM482 73q-29 0 -41 17.5t-12 56.5t12 57t41 18t41.5 -18t12.5 -57t-12.5 -56.5t-41.5 -17.5zM482 197q-14 0 -19 -11.5t-5 -38.5q0 -50 24 -50q15 0 20 12t5 38q0 27 -5 38.5t-20 11.5z
M472 496q34 0 48 -20t14 -43q0 -21 -16.5 -35t-35.5 -17q-104 -12 -166 -72q3 8 8.5 20.5t22.5 44.5t34.5 57t42.5 45t48 20zM139 444q26 0 52 -19.5t44 -47t32 -54.5t21 -47l7 -19q-57 72 -156 72q-24 0 -43 15t-19 37q0 26 16.5 44.5t45.5 18.5zM314 593q19 -18 24 -50
t-1.5 -64t-15.5 -62t-17 -49l-9 -18q10 93 -61 161q-17 17 -20.5 40t11.5 41q18 18 41.5 19.5t47.5 -18.5z" />
    <glyph glyph-name="parenright" unicode=")" 
d="M101 197q-6 0 -9 -1v-98q2 -1 9 -1q18 0 24.5 12t6.5 38t-6.5 38t-24.5 12zM253 161v-24h-40v-38h47v-24h-76v145h76v-25h-47v-34h40zM99 73q-23 0 -36 2v143q26 4 37 4q33 0 47 -18t14 -57t-14.5 -56.5t-47.5 -17.5zM286 220h39l19 -80l19 80h40q1 -21 3.5 -78.5
t2.5 -66.5h-29q0 53 -3 104l-20 -82h-27l-20 82h-1q-2 -68 -2 -104h-28q2 84 7 145zM482 73q-29 0 -41 17.5t-12 56.5t12 57t41 18t41.5 -18t12.5 -57t-12.5 -56.5t-41.5 -17.5zM482 197q-14 0 -19 -11.5t-5 -38.5q0 -50 24 -50q15 0 20 12t5 38q0 27 -5 38.5t-20 11.5z
M472 496q34 0 48 -20t14 -43q0 -21 -16.5 -35t-35.5 -17q-104 -12 -166 -72q3 8 8.5 20.5t22.5 44.5t34.5 57t42.5 45t48 20zM139 444q26 0 52 -19.5t44 -47t32 -54.5t21 -47l7 -19q-57 72 -156 72q-24 0 -43 15t-19 37q0 26 16.5 44.5t45.5 18.5zM314 593q19 -18 24 -50
t-1.5 -64t-15.5 -62t-17 -49l-9 -18q10 93 -61 161q-17 17 -20.5 40t11.5 41q18 18 41.5 19.5t47.5 -18.5z" />
    <glyph glyph-name="asterisk" unicode="*" 
d="M101 197q-6 0 -9 -1v-98q2 -1 9 -1q18 0 24.5 12t6.5 38t-6.5 38t-24.5 12zM253 161v-24h-40v-38h47v-24h-76v145h76v-25h-47v-34h40zM99 73q-23 0 -36 2v143q26 4 37 4q33 0 47 -18t14 -57t-14.5 -56.5t-47.5 -17.5zM286 220h39l19 -80l19 80h40q1 -21 3.5 -78.5
t2.5 -66.5h-29q0 53 -3 104l-20 -82h-27l-20 82h-1q-2 -68 -2 -104h-28q2 84 7 145zM482 73q-29 0 -41 17.5t-12 56.5t12 57t41 18t41.5 -18t12.5 -57t-12.5 -56.5t-41.5 -17.5zM482 197q-14 0 -19 -11.5t-5 -38.5q0 -50 24 -50q15 0 20 12t5 38q0 27 -5 38.5t-20 11.5z
M472 496q34 0 48 -20t14 -43q0 -21 -16.5 -35t-35.5 -17q-104 -12 -166 -72q3 8 8.5 20.5t22.5 44.5t34.5 57t42.5 45t48 20zM139 444q26 0 52 -19.5t44 -47t32 -54.5t21 -47l7 -19q-57 72 -156 72q-24 0 -43 15t-19 37q0 26 16.5 44.5t45.5 18.5zM314 593q19 -18 24 -50
t-1.5 -64t-15.5 -62t-17 -49l-9 -18q10 93 -61 161q-17 17 -20.5 40t11.5 41q18 18 41.5 19.5t47.5 -18.5z" />
    <glyph glyph-name="plus" unicode="+" 
d="M101 197q-6 0 -9 -1v-98q2 -1 9 -1q18 0 24.5 12t6.5 38t-6.5 38t-24.5 12zM253 161v-24h-40v-38h47v-24h-76v145h76v-25h-47v-34h40zM99 73q-23 0 -36 2v143q26 4 37 4q33 0 47 -18t14 -57t-14.5 -56.5t-47.5 -17.5zM286 220h39l19 -80l19 80h40q1 -21 3.5 -78.5
t2.5 -66.5h-29q0 53 -3 104l-20 -82h-27l-20 82h-1q-2 -68 -2 -104h-28q2 84 7 145zM482 73q-29 0 -41 17.5t-12 56.5t12 57t41 18t41.5 -18t12.5 -57t-12.5 -56.5t-41.5 -17.5zM482 197q-14 0 -19 -11.5t-5 -38.5q0 -50 24 -50q15 0 20 12t5 38q0 27 -5 38.5t-20 11.5z
M472 496q34 0 48 -20t14 -43q0 -21 -16.5 -35t-35.5 -17q-104 -12 -166 -72q3 8 8.5 20.5t22.5 44.5t34.5 57t42.5 45t48 20zM139 444q26 0 52 -19.5t44 -47t32 -54.5t21 -47l7 -19q-57 72 -156 72q-24 0 -43 15t-19 37q0 26 16.5 44.5t45.5 18.5zM314 593q19 -18 24 -50
t-1.5 -64t-15.5 -62t-17 -49l-9 -18q10 93 -61 161q-17 17 -20.5 40t11.5 41q18 18 41.5 19.5t47.5 -18.5z" />
    <glyph glyph-name="comma" unicode="," horiz-adv-x="271" 
d="M183 18l-64 -119h-30l39 92q-20 3 -32.5 17.5t-12.5 35.5q0 22 15.5 37t38.5 15q22 0 37 -15t15 -37q0 -14 -6 -26z" />
    <glyph glyph-name="hyphen" unicode="-" 
d="M101 197q-6 0 -9 -1v-98q2 -1 9 -1q18 0 24.5 12t6.5 38t-6.5 38t-24.5 12zM253 161v-24h-40v-38h47v-24h-76v145h76v-25h-47v-34h40zM99 73q-23 0 -36 2v143q26 4 37 4q33 0 47 -18t14 -57t-14.5 -56.5t-47.5 -17.5zM286 220h39l19 -80l19 80h40q1 -21 3.5 -78.5
t2.5 -66.5h-29q0 53 -3 104l-20 -82h-27l-20 82h-1q-2 -68 -2 -104h-28q2 84 7 145zM482 73q-29 0 -41 17.5t-12 56.5t12 57t41 18t41.5 -18t12.5 -57t-12.5 -56.5t-41.5 -17.5zM482 197q-14 0 -19 -11.5t-5 -38.5q0 -50 24 -50q15 0 20 12t5 38q0 27 -5 38.5t-20 11.5z
M472 496q34 0 48 -20t14 -43q0 -21 -16.5 -35t-35.5 -17q-104 -12 -166 -72q3 8 8.5 20.5t22.5 44.5t34.5 57t42.5 45t48 20zM139 444q26 0 52 -19.5t44 -47t32 -54.5t21 -47l7 -19q-57 72 -156 72q-24 0 -43 15t-19 37q0 26 16.5 44.5t45.5 18.5zM314 593q19 -18 24 -50
t-1.5 -64t-15.5 -62t-17 -49l-9 -18q10 93 -61 161q-17 17 -20.5 40t11.5 41q18 18 41.5 19.5t47.5 -18.5z" />
    <glyph glyph-name="period" unicode="." horiz-adv-x="271" 
d="M83 44q0 22 15.5 37t38.5 15q22 0 37 -15t15 -37q0 -23 -15 -38.5t-37 -15.5q-23 0 -38.5 15.5t-15.5 38.5z" />
    <glyph glyph-name="slash" unicode="/" 
d="M101 197q-6 0 -9 -1v-98q2 -1 9 -1q18 0 24.5 12t6.5 38t-6.5 38t-24.5 12zM253 161v-24h-40v-38h47v-24h-76v145h76v-25h-47v-34h40zM99 73q-23 0 -36 2v143q26 4 37 4q33 0 47 -18t14 -57t-14.5 -56.5t-47.5 -17.5zM286 220h39l19 -80l19 80h40q1 -21 3.5 -78.5
t2.5 -66.5h-29q0 53 -3 104l-20 -82h-27l-20 82h-1q-2 -68 -2 -104h-28q2 84 7 145zM482 73q-29 0 -41 17.5t-12 56.5t12 57t41 18t41.5 -18t12.5 -57t-12.5 -56.5t-41.5 -17.5zM482 197q-14 0 -19 -11.5t-5 -38.5q0 -50 24 -50q15 0 20 12t5 38q0 27 -5 38.5t-20 11.5z
M472 496q34 0 48 -20t14 -43q0 -21 -16.5 -35t-35.5 -17q-104 -12 -166 -72q3 8 8.5 20.5t22.5 44.5t34.5 57t42.5 45t48 20zM139 444q26 0 52 -19.5t44 -47t32 -54.5t21 -47l7 -19q-57 72 -156 72q-24 0 -43 15t-19 37q0 26 16.5 44.5t45.5 18.5zM314 593q19 -18 24 -50
t-1.5 -64t-15.5 -62t-17 -49l-9 -18q10 93 -61 161q-17 17 -20.5 40t11.5 41q18 18 41.5 19.5t47.5 -18.5z" />
    <glyph glyph-name="zero" unicode="0" horiz-adv-x="764" 
d="M81 350q0 168 81 264t219 96q139 0 220.5 -96t81.5 -264t-81.5 -264t-220.5 -96q-138 0 -219 96t-81 264zM381 670q-118 0 -184.5 -84t-66.5 -236q0 -151 67 -235.5t184 -84.5q118 0 185.5 84.5t67.5 235.5t-67.5 235.5t-185.5 84.5z" />
    <glyph glyph-name="one" unicode="1" horiz-adv-x="463" 
d="M329 700h34v-700h-47v654l-256 -118l-14 34z" />
    <glyph glyph-name="two" unicode="2" horiz-adv-x="682" 
d="M99 40l252 228q101 91 129.5 136.5t28.5 104.5q0 84 -54 123t-139 39q-54 0 -94 -18t-60.5 -49.5t-30 -66t-9.5 -73.5h-49q0 44 12.5 85t38.5 78.5t74.5 60t113.5 22.5q108 0 177 -50t69 -151q0 -66 -36 -121.5t-148 -153.5l-218 -194h453v-40h-510v40z" />
    <glyph glyph-name="three" unicode="3" horiz-adv-x="659" 
d="M268 335v33h84q75 0 111 36.5t36 113.5q0 78 -51.5 115.5t-135.5 37.5q-102 0 -141 -50.5t-39 -135.5h-49q0 45 11.5 83t36.5 71t71 52t110 19q105 0 170 -48t65 -140q0 -132 -100 -168q140 -31 140 -165q0 -96 -72.5 -147t-182.5 -51q-126 0 -192.5 66.5t-66.5 157.5h49
q0 -78 53.5 -131.5t158.5 -53.5q88 0 146 40t58 123q0 142 -182 142h-88z" />
    <glyph glyph-name="four" unicode="4" 
d="M101 197q-6 0 -9 -1v-98q2 -1 9 -1q18 0 24.5 12t6.5 38t-6.5 38t-24.5 12zM253 161v-24h-40v-38h47v-24h-76v145h76v-25h-47v-34h40zM99 73q-23 0 -36 2v143q26 4 37 4q33 0 47 -18t14 -57t-14.5 -56.5t-47.5 -17.5zM286 220h39l19 -80l19 80h40q1 -21 3.5 -78.5
t2.5 -66.5h-29q0 53 -3 104l-20 -82h-27l-20 82h-1q-2 -68 -2 -104h-28q2 84 7 145zM482 73q-29 0 -41 17.5t-12 56.5t12 57t41 18t41.5 -18t12.5 -57t-12.5 -56.5t-41.5 -17.5zM482 197q-14 0 -19 -11.5t-5 -38.5q0 -50 24 -50q15 0 20 12t5 38q0 27 -5 38.5t-20 11.5z
M472 496q34 0 48 -20t14 -43q0 -21 -16.5 -35t-35.5 -17q-104 -12 -166 -72q3 8 8.5 20.5t22.5 44.5t34.5 57t42.5 45t48 20zM139 444q26 0 52 -19.5t44 -47t32 -54.5t21 -47l7 -19q-57 72 -156 72q-24 0 -43 15t-19 37q0 26 16.5 44.5t45.5 18.5zM314 593q19 -18 24 -50
t-1.5 -64t-15.5 -62t-17 -49l-9 -18q10 93 -61 161q-17 17 -20.5 40t11.5 41q18 18 41.5 19.5t47.5 -18.5z" />
    <glyph glyph-name="five" unicode="5" horiz-adv-x="621" 
d="M127 362l50 338h341v-40h-300l-36 -247q61 44 136 44q91 0 161 -63.5t70 -169.5q0 -105 -70.5 -169.5t-166.5 -64.5t-167.5 64.5t-71.5 169.5h47q0 -89 57 -143t134 -54t134 53.5t57 142.5q0 90 -57 143.5t-133 53.5q-82 0 -138 -58h-47z" />
    <glyph glyph-name="six" unicode="6" horiz-adv-x="641" 
d="M320 461q97 0 168.5 -64.5t71.5 -170.5t-72 -171t-168 -65q-97 0 -168 65t-71 171q0 93 60 158l254 316h54l-199 -249q33 10 70 10zM320 27q77 0 135 54.5t58 144.5q0 89 -58 143.5t-135 54.5t-134.5 -54.5t-57.5 -143.5q0 -90 57.5 -144.5t134.5 -54.5z" />
    <glyph glyph-name="seven" unicode="7" horiz-adv-x="543" 
d="M498 700v-36l-297 -664h-54l300 660h-402v40h453z" />
    <glyph glyph-name="eight" unicode="8" horiz-adv-x="685" 
d="M343 710q109 0 175 -46.5t66 -135.5q0 -127 -132 -168q69 -19 110 -64t41 -114q0 -95 -73.5 -143.5t-186.5 -48.5t-187.5 48.5t-74.5 143.5q0 69 41 114t111 64q-132 41 -132 168q0 89 66 135.5t176 46.5zM343 377q91 0 143 37t52 111t-52 111t-143 37q-92 0 -144 -37
t-52 -111t52 -111t144 -37zM343 27q95 0 154 39t59 119t-59 118.5t-154 38.5t-155 -38.5t-60 -118.5t60 -119t155 -39z" />
    <glyph glyph-name="nine" unicode="9" horiz-adv-x="641" 
d="M321 239q-96 0 -168 65t-72 171t71.5 170.5t168.5 64.5t168 -64.5t71 -170.5q0 -96 -62 -161l-252 -314h-54l199 249q-33 -10 -70 -10zM321 673q-77 0 -135 -54.5t-58 -143.5q0 -90 58 -144.5t135 -54.5t134.5 54.5t57.5 144.5q0 89 -57.5 143.5t-134.5 54.5z" />
    <glyph glyph-name="colon" unicode=":" horiz-adv-x="271" 
d="M83 458q0 22 15.5 37t38.5 15q22 0 37 -15t15 -37q0 -23 -15 -38.5t-37 -15.5q-23 0 -38.5 15.5t-15.5 38.5zM83 44q0 22 15.5 37t38.5 15q22 0 37 -15t15 -37q0 -23 -15 -38.5t-37 -15.5q-23 0 -38.5 15.5t-15.5 38.5z" />
    <glyph glyph-name="semicolon" unicode=";" horiz-adv-x="271" 
d="M83 458q0 22 15.5 37t38.5 15q22 0 37 -15t15 -37q0 -23 -15 -38.5t-37 -15.5q-23 0 -38.5 15.5t-15.5 38.5zM83 43q0 22 15.5 37t38.5 15q22 0 37 -15t15 -37q0 -15 -8 -28l-62 -117h-30l40 93q-20 3 -33 17.5t-13 34.5z" />
    <glyph glyph-name="less" unicode="&#x3c;" 
d="M101 197q-6 0 -9 -1v-98q2 -1 9 -1q18 0 24.5 12t6.5 38t-6.5 38t-24.5 12zM253 161v-24h-40v-38h47v-24h-76v145h76v-25h-47v-34h40zM99 73q-23 0 -36 2v143q26 4 37 4q33 0 47 -18t14 -57t-14.5 -56.5t-47.5 -17.5zM286 220h39l19 -80l19 80h40q1 -21 3.5 -78.5
t2.5 -66.5h-29q0 53 -3 104l-20 -82h-27l-20 82h-1q-2 -68 -2 -104h-28q2 84 7 145zM482 73q-29 0 -41 17.5t-12 56.5t12 57t41 18t41.5 -18t12.5 -57t-12.5 -56.5t-41.5 -17.5zM482 197q-14 0 -19 -11.5t-5 -38.5q0 -50 24 -50q15 0 20 12t5 38q0 27 -5 38.5t-20 11.5z
M472 496q34 0 48 -20t14 -43q0 -21 -16.5 -35t-35.5 -17q-104 -12 -166 -72q3 8 8.5 20.5t22.5 44.5t34.5 57t42.5 45t48 20zM139 444q26 0 52 -19.5t44 -47t32 -54.5t21 -47l7 -19q-57 72 -156 72q-24 0 -43 15t-19 37q0 26 16.5 44.5t45.5 18.5zM314 593q19 -18 24 -50
t-1.5 -64t-15.5 -62t-17 -49l-9 -18q10 93 -61 161q-17 17 -20.5 40t11.5 41q18 18 41.5 19.5t47.5 -18.5z" />
    <glyph glyph-name="equal" unicode="=" 
d="M101 197q-6 0 -9 -1v-98q2 -1 9 -1q18 0 24.5 12t6.5 38t-6.5 38t-24.5 12zM253 161v-24h-40v-38h47v-24h-76v145h76v-25h-47v-34h40zM99 73q-23 0 -36 2v143q26 4 37 4q33 0 47 -18t14 -57t-14.5 -56.5t-47.5 -17.5zM286 220h39l19 -80l19 80h40q1 -21 3.5 -78.5
t2.5 -66.5h-29q0 53 -3 104l-20 -82h-27l-20 82h-1q-2 -68 -2 -104h-28q2 84 7 145zM482 73q-29 0 -41 17.5t-12 56.5t12 57t41 18t41.5 -18t12.5 -57t-12.5 -56.5t-41.5 -17.5zM482 197q-14 0 -19 -11.5t-5 -38.5q0 -50 24 -50q15 0 20 12t5 38q0 27 -5 38.5t-20 11.5z
M472 496q34 0 48 -20t14 -43q0 -21 -16.5 -35t-35.5 -17q-104 -12 -166 -72q3 8 8.5 20.5t22.5 44.5t34.5 57t42.5 45t48 20zM139 444q26 0 52 -19.5t44 -47t32 -54.5t21 -47l7 -19q-57 72 -156 72q-24 0 -43 15t-19 37q0 26 16.5 44.5t45.5 18.5zM314 593q19 -18 24 -50
t-1.5 -64t-15.5 -62t-17 -49l-9 -18q10 93 -61 161q-17 17 -20.5 40t11.5 41q18 18 41.5 19.5t47.5 -18.5z" />
    <glyph glyph-name="greater" unicode="&#x3e;" 
d="M101 197q-6 0 -9 -1v-98q2 -1 9 -1q18 0 24.5 12t6.5 38t-6.5 38t-24.5 12zM253 161v-24h-40v-38h47v-24h-76v145h76v-25h-47v-34h40zM99 73q-23 0 -36 2v143q26 4 37 4q33 0 47 -18t14 -57t-14.5 -56.5t-47.5 -17.5zM286 220h39l19 -80l19 80h40q1 -21 3.5 -78.5
t2.5 -66.5h-29q0 53 -3 104l-20 -82h-27l-20 82h-1q-2 -68 -2 -104h-28q2 84 7 145zM482 73q-29 0 -41 17.5t-12 56.5t12 57t41 18t41.5 -18t12.5 -57t-12.5 -56.5t-41.5 -17.5zM482 197q-14 0 -19 -11.5t-5 -38.5q0 -50 24 -50q15 0 20 12t5 38q0 27 -5 38.5t-20 11.5z
M472 496q34 0 48 -20t14 -43q0 -21 -16.5 -35t-35.5 -17q-104 -12 -166 -72q3 8 8.5 20.5t22.5 44.5t34.5 57t42.5 45t48 20zM139 444q26 0 52 -19.5t44 -47t32 -54.5t21 -47l7 -19q-57 72 -156 72q-24 0 -43 15t-19 37q0 26 16.5 44.5t45.5 18.5zM314 593q19 -18 24 -50
t-1.5 -64t-15.5 -62t-17 -49l-9 -18q10 93 -61 161q-17 17 -20.5 40t11.5 41q18 18 41.5 19.5t47.5 -18.5z" />
    <glyph glyph-name="question" unicode="?" horiz-adv-x="607" 
d="M274 214v38q0 59 15 80.5t82 63.5q2 2 15.5 10.5t16.5 10.5t14.5 10.5t14.5 13t11 13.5t11 17.5t7 20t5.5 25t1.5 29.5q0 74 -42.5 100.5t-115.5 26.5q-52 0 -87.5 -14t-53 -40t-24 -55.5t-6.5 -68.5h-49q0 45 9.5 81t32.5 68t68 49.5t110 17.5q207 0 207 -164
q0 -33 -7.5 -59.5t-14.5 -41t-28 -33t-28.5 -23.5t-36.5 -23q-55 -35 -68 -52.5t-13 -63.5v-37h-47zM246 43q0 21 15.5 36t37.5 15q21 0 36 -15t15 -36q0 -22 -15 -37.5t-36 -15.5q-23 0 -38 15t-15 38z" />
    <glyph glyph-name="at" unicode="@" 
d="M101 197q-6 0 -9 -1v-98q2 -1 9 -1q18 0 24.5 12t6.5 38t-6.5 38t-24.5 12zM253 161v-24h-40v-38h47v-24h-76v145h76v-25h-47v-34h40zM99 73q-23 0 -36 2v143q26 4 37 4q33 0 47 -18t14 -57t-14.5 -56.5t-47.5 -17.5zM286 220h39l19 -80l19 80h40q1 -21 3.5 -78.5
t2.5 -66.5h-29q0 53 -3 104l-20 -82h-27l-20 82h-1q-2 -68 -2 -104h-28q2 84 7 145zM482 73q-29 0 -41 17.5t-12 56.5t12 57t41 18t41.5 -18t12.5 -57t-12.5 -56.5t-41.5 -17.5zM482 197q-14 0 -19 -11.5t-5 -38.5q0 -50 24 -50q15 0 20 12t5 38q0 27 -5 38.5t-20 11.5z
M472 496q34 0 48 -20t14 -43q0 -21 -16.5 -35t-35.5 -17q-104 -12 -166 -72q3 8 8.5 20.5t22.5 44.5t34.5 57t42.5 45t48 20zM139 444q26 0 52 -19.5t44 -47t32 -54.5t21 -47l7 -19q-57 72 -156 72q-24 0 -43 15t-19 37q0 26 16.5 44.5t45.5 18.5zM314 593q19 -18 24 -50
t-1.5 -64t-15.5 -62t-17 -49l-9 -18q10 93 -61 161q-17 17 -20.5 40t11.5 41q18 18 41.5 19.5t47.5 -18.5z" />
    <glyph glyph-name="A" unicode="A" horiz-adv-x="772" 
d="M363 701h47l317 -700h-47l-87 194h-414l-87 -194h-47zM197 235h378l-189 421z" />
    <glyph glyph-name="B" unicode="B" horiz-adv-x="703" 
d="M100 0v700h262q24 0 45 -1.5t55.5 -12t58.5 -28t42.5 -53.5t18.5 -86q0 -120 -108 -161q148 -29 148 -174q0 -50 -18.5 -86.5t-42.5 -54.5t-58.5 -28.5t-56 -12.5t-44.5 -2h-302zM147 368h212q174 0 174 148q0 147 -174 147h-212v-295zM147 37h251q175 0 175 150
q0 149 -175 149h-251v-299z" />
    <glyph glyph-name="C" unicode="C" horiz-adv-x="830" 
d="M130 350q0 -148 87.5 -234t211.5 -86t198 67.5t74 147.5h47q0 -43 -21 -87t-59 -82t-100.5 -62t-138.5 -24q-146 0 -247 99t-101 261t101 261t247 99q76 0 138.5 -24t100.5 -62t59 -82t21 -87h-47q0 80 -74 147.5t-198 67.5t-211.5 -86t-87.5 -234z" />
    <glyph glyph-name="D" unicode="D" horiz-adv-x="807" 
d="M366 700q94 0 175 -39.5t133 -120.5t52 -190t-52 -190t-133 -120.5t-175 -39.5h-266v700h266zM147 38h219q128 0 219.5 83t91.5 229t-91.5 229t-219.5 83h-219v-624z" />
    <glyph glyph-name="E" unicode="E" horiz-adv-x="637" 
d="M100 700h473v-40h-426v-275h396v-40h-396v-305h426v-40h-473v700z" />
    <glyph glyph-name="F" unicode="F" horiz-adv-x="608" 
d="M91 700h471v-40h-424v-293h394v-40h-394v-327h-47v700z" />
    <glyph glyph-name="G" unicode="G" horiz-adv-x="840" 
d="M130 354q0 -149 85.5 -232.5t223.5 -83.5q127 0 202.5 70t77.5 184h-322v36h362v-328h-40v179q-30 -83 -103 -131.5t-182 -48.5q-154 0 -253.5 96t-99.5 259q0 162 103 259t255 97q138 0 223.5 -75.5t85.5 -164.5h-47q0 76 -72 138t-189 62q-134 0 -222 -84t-88 -232z
" />
    <glyph glyph-name="H" unicode="H" horiz-adv-x="848" 
d="M100 700h47v-322h554v322h47v-700h-47v338h-554v-338h-47v700z" />
    <glyph glyph-name="I" unicode="I" horiz-adv-x="247" 
d="M100 700h47v-700h-47v700z" />
    <glyph glyph-name="J" unicode="J" horiz-adv-x="642" 
d="M495 700h47v-455q0 -117 -64.5 -186t-173.5 -69q-112 0 -175.5 69t-63.5 188h47q0 -103 50.5 -160t141.5 -57q88 0 139.5 57.5t51.5 157.5v455z" />
    <glyph glyph-name="K" unicode="K" horiz-adv-x="667" 
d="M100 700h47v-351h119l274 351h56l-287 -367l313 -333h-59l-293 311h-123v-311h-47v700z" />
    <glyph glyph-name="L" unicode="L" horiz-adv-x="654" 
d="M100 700h47v-660h444v-40h-491v700z" />
    <glyph glyph-name="M" unicode="M" horiz-adv-x="927" 
d="M101 700h45l318 -647l318 647h45v-700h-45v616l-301 -616h-34l-301 616v-616h-45v700z" />
    <glyph glyph-name="N" unicode="N" horiz-adv-x="847" 
d="M100 700h47l553 -638v638h47v-700h-47l-553 637v-637h-47v700z" />
    <glyph glyph-name="O" unicode="O" horiz-adv-x="882" 
d="M81 350q0 162 107.5 261t251.5 99q145 0 252.5 -99t107.5 -261t-107.5 -261t-252.5 -99q-144 0 -251.5 99t-107.5 261zM440 670q-125 0 -217.5 -88t-92.5 -232t92.5 -232t217.5 -88q126 0 218.5 88t92.5 232t-92.5 232t-218.5 88z" />
    <glyph glyph-name="P" unicode="P" horiz-adv-x="699" 
d="M396 700q21 0 46 -4t61 -18.5t64 -38t48.5 -68t20.5 -102.5t-20.5 -102.5t-48.5 -68t-64 -38t-61 -18.5t-46 -4h-249v-237h-47v699h296zM147 275h246q16 0 35 3t49 14.5t53 31t40 57.5t17 88t-17 88t-40 57t-53 31t-49 15t-35 3h-246v-388z" />
    <glyph glyph-name="Q" unicode="Q" horiz-adv-x="882" 
d="M740 -200l-178 210q-60 -20 -122 -20q-144 0 -251.5 99t-107.5 261t107.5 261t251.5 99q145 0 252.5 -99t107.5 -261q0 -114 -56 -199t-147 -127l190 -224h-47zM440 670q-125 0 -217.5 -88t-92.5 -232t92.5 -232t217.5 -88q126 0 218.5 88t92.5 232t-92.5 232t-218.5 88z
" />
    <glyph glyph-name="R" unicode="R" horiz-adv-x="709" 
d="M399 700q21 0 47 -4t61.5 -17.5t63.5 -35.5t48 -62.5t20 -92.5q0 -48 -16.5 -86.5t-41 -60.5t-56.5 -37.5t-57.5 -21.5t-50.5 -8l201 -273h-54l-200 272h-217v-272h-47v699h299zM147 310h250q16 0 35 3t48.5 13.5t52.5 28.5t40 52.5t17 79.5t-17 79t-40 51.5t-52 28.5
t-49 14t-35 3h-250v-353z" />
    <glyph glyph-name="S" unicode="S" horiz-adv-x="745" 
d="M122 215q0 -79 63.5 -132.5t196.5 -53.5q120 0 180.5 41t60.5 112q0 22 -5.5 39.5t-11.5 29.5t-22.5 22.5t-26.5 16t-37 12t-40 9t-49.5 8.5t-52.5 9q-59 11 -96 20t-75 24t-58.5 34t-33.5 49t-13 69q0 90 74.5 138t197.5 48q153 0 222.5 -64.5t69.5 -158.5h-49
q0 81 -56 132.5t-187 51.5q-104 0 -163.5 -36t-59.5 -111q0 -31 10.5 -54t28 -38.5t51.5 -27.5t67.5 -19t89.5 -17q130 -22 164 -33q88 -30 105 -104q5 -21 5 -46q0 -87 -72.5 -141t-216.5 -54q-155 0 -232.5 66t-77.5 159h49z" />
    <glyph glyph-name="T" unicode="T" horiz-adv-x="717" 
d="M47 700h624v-40h-289v-660h-47v660h-288v40z" />
    <glyph glyph-name="U" unicode="U" horiz-adv-x="774" 
d="M627 700h47v-410q0 -152 -75 -226t-217 -74q-282 0 -282 300v410h47v-410q0 -134 58.5 -197t176.5 -63q245 0 245 260v410z" />
    <glyph glyph-name="V" unicode="V" horiz-adv-x="775" 
d="M364 0l-318 700h50l291 -653l292 653h49l-317 -700h-47z" />
    <glyph glyph-name="W" unicode="W" horiz-adv-x="1033" 
d="M274 0l-228 700h46l205 -641l197 641h44l197 -641l205 641h47l-229 -700h-48l-194 632l-194 -632h-48z" />
    <glyph glyph-name="X" unicode="X" horiz-adv-x="776" 
d="M46 0l313 364l-277 336h59l248 -306l247 306h59l-275 -336l309 -364h-59l-281 337l-283 -337h-60z" />
    <glyph glyph-name="Y" unicode="Y" horiz-adv-x="737" 
d="M345 210l-299 490h55l268 -448l267 448h55l-299 -490v-210h-47v210z" />
    <glyph glyph-name="Z" unicode="Z" horiz-adv-x="629" 
d="M557 700v-36l-449 -624h475v-40h-537v36l451 624h-443v40h503z" />
    <glyph glyph-name="bracketleft" unicode="[" 
d="M101 197q-6 0 -9 -1v-98q2 -1 9 -1q18 0 24.5 12t6.5 38t-6.5 38t-24.5 12zM253 161v-24h-40v-38h47v-24h-76v145h76v-25h-47v-34h40zM99 73q-23 0 -36 2v143q26 4 37 4q33 0 47 -18t14 -57t-14.5 -56.5t-47.5 -17.5zM286 220h39l19 -80l19 80h40q1 -21 3.5 -78.5
t2.5 -66.5h-29q0 53 -3 104l-20 -82h-27l-20 82h-1q-2 -68 -2 -104h-28q2 84 7 145zM482 73q-29 0 -41 17.5t-12 56.5t12 57t41 18t41.5 -18t12.5 -57t-12.5 -56.5t-41.5 -17.5zM482 197q-14 0 -19 -11.5t-5 -38.5q0 -50 24 -50q15 0 20 12t5 38q0 27 -5 38.5t-20 11.5z
M472 496q34 0 48 -20t14 -43q0 -21 -16.5 -35t-35.5 -17q-104 -12 -166 -72q3 8 8.5 20.5t22.5 44.5t34.5 57t42.5 45t48 20zM139 444q26 0 52 -19.5t44 -47t32 -54.5t21 -47l7 -19q-57 72 -156 72q-24 0 -43 15t-19 37q0 26 16.5 44.5t45.5 18.5zM314 593q19 -18 24 -50
t-1.5 -64t-15.5 -62t-17 -49l-9 -18q10 93 -61 161q-17 17 -20.5 40t11.5 41q18 18 41.5 19.5t47.5 -18.5z" />
    <glyph glyph-name="backslash" unicode="\" 
d="M101 197q-6 0 -9 -1v-98q2 -1 9 -1q18 0 24.5 12t6.5 38t-6.5 38t-24.5 12zM253 161v-24h-40v-38h47v-24h-76v145h76v-25h-47v-34h40zM99 73q-23 0 -36 2v143q26 4 37 4q33 0 47 -18t14 -57t-14.5 -56.5t-47.5 -17.5zM286 220h39l19 -80l19 80h40q1 -21 3.5 -78.5
t2.5 -66.5h-29q0 53 -3 104l-20 -82h-27l-20 82h-1q-2 -68 -2 -104h-28q2 84 7 145zM482 73q-29 0 -41 17.5t-12 56.5t12 57t41 18t41.5 -18t12.5 -57t-12.5 -56.5t-41.5 -17.5zM482 197q-14 0 -19 -11.5t-5 -38.5q0 -50 24 -50q15 0 20 12t5 38q0 27 -5 38.5t-20 11.5z
M472 496q34 0 48 -20t14 -43q0 -21 -16.5 -35t-35.5 -17q-104 -12 -166 -72q3 8 8.5 20.5t22.5 44.5t34.5 57t42.5 45t48 20zM139 444q26 0 52 -19.5t44 -47t32 -54.5t21 -47l7 -19q-57 72 -156 72q-24 0 -43 15t-19 37q0 26 16.5 44.5t45.5 18.5zM314 593q19 -18 24 -50
t-1.5 -64t-15.5 -62t-17 -49l-9 -18q10 93 -61 161q-17 17 -20.5 40t11.5 41q18 18 41.5 19.5t47.5 -18.5z" />
    <glyph glyph-name="bracketright" unicode="]" 
d="M101 197q-6 0 -9 -1v-98q2 -1 9 -1q18 0 24.5 12t6.5 38t-6.5 38t-24.5 12zM253 161v-24h-40v-38h47v-24h-76v145h76v-25h-47v-34h40zM99 73q-23 0 -36 2v143q26 4 37 4q33 0 47 -18t14 -57t-14.5 -56.5t-47.5 -17.5zM286 220h39l19 -80l19 80h40q1 -21 3.5 -78.5
t2.5 -66.5h-29q0 53 -3 104l-20 -82h-27l-20 82h-1q-2 -68 -2 -104h-28q2 84 7 145zM482 73q-29 0 -41 17.5t-12 56.5t12 57t41 18t41.5 -18t12.5 -57t-12.5 -56.5t-41.5 -17.5zM482 197q-14 0 -19 -11.5t-5 -38.5q0 -50 24 -50q15 0 20 12t5 38q0 27 -5 38.5t-20 11.5z
M472 496q34 0 48 -20t14 -43q0 -21 -16.5 -35t-35.5 -17q-104 -12 -166 -72q3 8 8.5 20.5t22.5 44.5t34.5 57t42.5 45t48 20zM139 444q26 0 52 -19.5t44 -47t32 -54.5t21 -47l7 -19q-57 72 -156 72q-24 0 -43 15t-19 37q0 26 16.5 44.5t45.5 18.5zM314 593q19 -18 24 -50
t-1.5 -64t-15.5 -62t-17 -49l-9 -18q10 93 -61 161q-17 17 -20.5 40t11.5 41q18 18 41.5 19.5t47.5 -18.5z" />
    <glyph glyph-name="asciicircum" unicode="^" 
d="M101 197q-6 0 -9 -1v-98q2 -1 9 -1q18 0 24.5 12t6.5 38t-6.5 38t-24.5 12zM253 161v-24h-40v-38h47v-24h-76v145h76v-25h-47v-34h40zM99 73q-23 0 -36 2v143q26 4 37 4q33 0 47 -18t14 -57t-14.5 -56.5t-47.5 -17.5zM286 220h39l19 -80l19 80h40q1 -21 3.5 -78.5
t2.5 -66.5h-29q0 53 -3 104l-20 -82h-27l-20 82h-1q-2 -68 -2 -104h-28q2 84 7 145zM482 73q-29 0 -41 17.5t-12 56.5t12 57t41 18t41.5 -18t12.5 -57t-12.5 -56.5t-41.5 -17.5zM482 197q-14 0 -19 -11.5t-5 -38.5q0 -50 24 -50q15 0 20 12t5 38q0 27 -5 38.5t-20 11.5z
M472 496q34 0 48 -20t14 -43q0 -21 -16.5 -35t-35.5 -17q-104 -12 -166 -72q3 8 8.5 20.5t22.5 44.5t34.5 57t42.5 45t48 20zM139 444q26 0 52 -19.5t44 -47t32 -54.5t21 -47l7 -19q-57 72 -156 72q-24 0 -43 15t-19 37q0 26 16.5 44.5t45.5 18.5zM314 593q19 -18 24 -50
t-1.5 -64t-15.5 -62t-17 -49l-9 -18q10 93 -61 161q-17 17 -20.5 40t11.5 41q18 18 41.5 19.5t47.5 -18.5z" />
    <glyph glyph-name="underscore" unicode="_" 
d="M101 197q-6 0 -9 -1v-98q2 -1 9 -1q18 0 24.5 12t6.5 38t-6.5 38t-24.5 12zM253 161v-24h-40v-38h47v-24h-76v145h76v-25h-47v-34h40zM99 73q-23 0 -36 2v143q26 4 37 4q33 0 47 -18t14 -57t-14.5 -56.5t-47.5 -17.5zM286 220h39l19 -80l19 80h40q1 -21 3.5 -78.5
t2.5 -66.5h-29q0 53 -3 104l-20 -82h-27l-20 82h-1q-2 -68 -2 -104h-28q2 84 7 145zM482 73q-29 0 -41 17.5t-12 56.5t12 57t41 18t41.5 -18t12.5 -57t-12.5 -56.5t-41.5 -17.5zM482 197q-14 0 -19 -11.5t-5 -38.5q0 -50 24 -50q15 0 20 12t5 38q0 27 -5 38.5t-20 11.5z
M472 496q34 0 48 -20t14 -43q0 -21 -16.5 -35t-35.5 -17q-104 -12 -166 -72q3 8 8.5 20.5t22.5 44.5t34.5 57t42.5 45t48 20zM139 444q26 0 52 -19.5t44 -47t32 -54.5t21 -47l7 -19q-57 72 -156 72q-24 0 -43 15t-19 37q0 26 16.5 44.5t45.5 18.5zM314 593q19 -18 24 -50
t-1.5 -64t-15.5 -62t-17 -49l-9 -18q10 93 -61 161q-17 17 -20.5 40t11.5 41q18 18 41.5 19.5t47.5 -18.5z" />
    <glyph glyph-name="grave" unicode="`" 
d="M101 197q-6 0 -9 -1v-98q2 -1 9 -1q18 0 24.5 12t6.5 38t-6.5 38t-24.5 12zM253 161v-24h-40v-38h47v-24h-76v145h76v-25h-47v-34h40zM99 73q-23 0 -36 2v143q26 4 37 4q33 0 47 -18t14 -57t-14.5 -56.5t-47.5 -17.5zM286 220h39l19 -80l19 80h40q1 -21 3.5 -78.5
t2.5 -66.5h-29q0 53 -3 104l-20 -82h-27l-20 82h-1q-2 -68 -2 -104h-28q2 84 7 145zM482 73q-29 0 -41 17.5t-12 56.5t12 57t41 18t41.5 -18t12.5 -57t-12.5 -56.5t-41.5 -17.5zM482 197q-14 0 -19 -11.5t-5 -38.5q0 -50 24 -50q15 0 20 12t5 38q0 27 -5 38.5t-20 11.5z
M472 496q34 0 48 -20t14 -43q0 -21 -16.5 -35t-35.5 -17q-104 -12 -166 -72q3 8 8.5 20.5t22.5 44.5t34.5 57t42.5 45t48 20zM139 444q26 0 52 -19.5t44 -47t32 -54.5t21 -47l7 -19q-57 72 -156 72q-24 0 -43 15t-19 37q0 26 16.5 44.5t45.5 18.5zM314 593q19 -18 24 -50
t-1.5 -64t-15.5 -62t-17 -49l-9 -18q10 93 -61 161q-17 17 -20.5 40t11.5 41q18 18 41.5 19.5t47.5 -18.5z" />
    <glyph glyph-name="a" unicode="a" horiz-adv-x="597" 
d="M123 500h169q61 0 101 -14.5t60 -44t27 -62.5t7 -82v-158q0 -57 15.5 -79t68.5 -22h11v-38h-29q-63 0 -85 24.5t-24 90.5q-19 -56 -67.5 -90.5t-122.5 -34.5q-94 0 -137.5 31.5t-43.5 115.5q0 70 40.5 101t129.5 31h199v27q0 34 -2.5 55.5t-11 44.5t-25 36t-45 21.5
t-70.5 8.5h-165v38zM442 231h-198q-69 0 -97.5 -19.5t-28.5 -74.5q0 -68 32 -88.5t111 -20.5q82 0 131.5 46t49.5 111v46z" />
    <glyph glyph-name="b" unicode="b" horiz-adv-x="666" 
d="M595 250q0 -115 -69 -187.5t-179 -72.5q-69 0 -127.5 35.5t-84.5 93.5v-119h-45v700h45v-319q26 58 84.5 93.5t127.5 35.5q110 0 179 -72.5t69 -187.5zM135 199q0 -72 62.5 -121.5t139.5 -49.5q95 0 153 61t58 161t-58 161t-153 61q-77 0 -139.5 -49.5t-62.5 -121.5v-102
z" />
    <glyph glyph-name="c" unicode="c" horiz-adv-x="634" 
d="M118 251q0 -104 61 -163.5t156 -59.5q82 0 131.5 45t49.5 99h47q0 -69 -61.5 -125.5t-166.5 -56.5q-115 0 -189.5 70.5t-74.5 190.5q0 119 74.5 189t189.5 70q105 0 166.5 -56.5t61.5 -124.5h-47q0 53 -49.5 98t-131.5 45q-95 0 -156 -59t-61 -162z" />
    <glyph glyph-name="d" unicode="d" horiz-adv-x="666" 
d="M71 250q0 115 69 187.5t179 72.5q69 0 127.5 -35.5t84.5 -93.5v319h45v-700h-45v119q-26 -58 -84.5 -93.5t-127.5 -35.5q-110 0 -179 72.5t-69 187.5zM329 28q77 0 139.5 49.5t62.5 121.5v102q0 72 -62.5 121.5t-139.5 49.5q-95 0 -153 -61t-58 -161t58 -161t153 -61z
" />
    <glyph glyph-name="e" unicode="e" horiz-adv-x="634" 
d="M562 251v-6h-444q1 -103 59.5 -161t142.5 -58q82 0 134.5 43t52.5 89h47q-3 -61 -68.5 -114.5t-166.5 -53.5q-103 0 -175.5 71t-72.5 189q0 119 72.5 190t175.5 71q111 0 177 -70.5t66 -189.5zM514 273q-6 95 -58 148.5t-136 53.5q-80 0 -137.5 -54t-63.5 -148h395z" />
    <glyph glyph-name="f" unicode="f" horiz-adv-x="433" 
d="M387 672h-77q-66 0 -94.5 -31.5t-28.5 -99.5v-41h201v-38h-201v-462h-45v462h-96v38h96v46q0 164 157 164h88v-38z" />
    <glyph glyph-name="g" unicode="g" horiz-adv-x="666" 
d="M145 -162h182q104 0 154 53t50 150v78q-26 -58 -84.5 -93.5t-127.5 -35.5q-110 0 -179 72.5t-69 187.5t69 187.5t179 72.5q69 0 127.5 -35.5t84.5 -93.5v119h45v-455q0 -117 -61 -181t-186 -64h-184v38zM329 28q77 0 139.5 49.5t62.5 121.5v102q0 72 -62.5 121.5
t-139.5 49.5q-95 0 -153 -61t-58 -161t58 -161t153 -61z" />
    <glyph glyph-name="h" unicode="h" horiz-adv-x="627" 
d="M90 700h45v-324q25 60 79.5 97t121.5 37q201 0 201 -204v-306h-45v299q0 83 -37.5 128t-131.5 45q-75 0 -131.5 -53.5t-56.5 -128.5v-290h-45v700z" />
    <glyph glyph-name="i" unicode="i" horiz-adv-x="208" 
d="M64 675q0 17 11.5 28.5t29.5 11.5q17 0 28.5 -11.5t11.5 -28.5t-11.5 -29t-28.5 -12q-18 0 -29.5 12t-11.5 29zM81 500h45v-500h-45v500z" />
    <glyph glyph-name="j" unicode="j" horiz-adv-x="208" 
d="M63 675q0 17 12 28.5t29 11.5q16 0 28 -11.5t12 -28.5t-11.5 -29t-28.5 -12t-29 12t-12 29zM-102 -162h60q66 0 94.5 32.5t28.5 99.5v530h45v-536q0 -164 -157 -164h-71v38z" />
    <glyph glyph-name="k" unicode="k" horiz-adv-x="583" 
d="M90 700h45v-421h112l203 221h53l-219 -238l245 -262h-55l-225 241h-114v-241h-45v700z" />
    <glyph glyph-name="l" unicode="l" horiz-adv-x="248" 
d="M230 38v-38h-31q-66 1 -87.5 28t-21.5 100v572h45v-561q0 -58 14 -79.5t66 -21.5h15z" />
    <glyph glyph-name="m" unicode="m" horiz-adv-x="987" 
d="M90 500h45v-123q25 60 77 96.5t113 36.5q161 0 186 -146q23 65 76.5 105.5t118.5 40.5q191 0 191 -204v-306h-45v300q0 83 -35.5 127.5t-123.5 44.5q-69 0 -123 -53t-54 -128v-291h-45v300q0 83 -35.5 127.5t-123.5 44.5q-69 0 -123 -53t-54 -128v-291h-45v500z" />
    <glyph glyph-name="n" unicode="n" horiz-adv-x="627" 
d="M90 500h45v-124q25 60 79.5 97t121.5 37q201 0 201 -204v-306h-45v299q0 83 -37.5 128t-131.5 45q-75 0 -131.5 -53.5t-56.5 -128.5v-290h-45v500z" />
    <glyph glyph-name="o" unicode="o" horiz-adv-x="665" 
d="M332 28q87 0 150.5 61t63.5 161t-63.5 161t-150.5 61q-86 0 -150 -61t-64 -161t64 -161t150 -61zM332 510q105 0 183 -71.5t78 -188.5t-78 -188.5t-183 -71.5t-183 71.5t-78 188.5t78 188.5t183 71.5z" />
    <glyph glyph-name="p" unicode="p" horiz-adv-x="666" 
d="M90 500h45v-119q26 58 84.5 93.5t127.5 35.5q110 0 179 -72.5t69 -187.5t-69 -187.5t-179 -72.5q-69 0 -127.5 35.5t-84.5 93.5v-319h-45v700zM135 199q0 -72 62.5 -121.5t139.5 -49.5q95 0 153 61t58 161t-58 161t-153 61q-77 0 -139.5 -49.5t-62.5 -121.5v-102z" />
    <glyph glyph-name="q" unicode="q" horiz-adv-x="666" 
d="M576 500v-700h-45v319q-26 -58 -84.5 -93.5t-127.5 -35.5q-110 0 -179 72.5t-69 187.5t69 187.5t179 72.5q69 0 127.5 -35.5t84.5 -93.5v119h45zM329 28q77 0 139.5 49.5t62.5 121.5v102q0 72 -62.5 121.5t-139.5 49.5q-95 0 -153 -61t-58 -161t58 -161t153 -61z" />
    <glyph glyph-name="r" unicode="r" horiz-adv-x="400" 
d="M90 500h45v-120q23 59 71 94.5t109 35.5h49v-38h-59q-74 0 -122 -53t-48 -136v-283h-45v500z" />
    <glyph glyph-name="s" unicode="s" horiz-adv-x="582" 
d="M114 155q0 -53 47 -93t136 -40q82 0 126 29t44 77q0 15 -3.5 26.5t-8 19.5t-15.5 15t-18 10.5t-25 8t-27 6l-33 5.5t-34 6q-45 8 -73.5 14.5t-57.5 18.5t-45 26.5t-26 37.5t-10 53q0 65 58 100t144 35q106 0 159 -49t53 -116h-42q0 55 -41 94t-130 39q-71 0 -114 -25
t-43 -77q0 -50 39.5 -70t140.5 -37l18 -3q39 -6 57.5 -10t46.5 -14t41 -22.5t23 -35t10 -53.5q0 -62 -58 -101.5t-157 -39.5q-108 0 -166.5 50t-58.5 115h43z" />
    <glyph glyph-name="t" unicode="t" horiz-adv-x="435" 
d="M46 500h97v120h45v-120h202v-38h-202v-292q0 -67 28.5 -99.5t94.5 -32.5h78v-38h-89q-157 0 -157 164v298h-97v38z" />
    <glyph glyph-name="u" unicode="u" horiz-adv-x="650" 
d="M632 38v-38h-31q-65 1 -86.5 27t-22.5 97q-25 -60 -79.5 -97t-121.5 -37q-201 0 -201 204v306h45v-299q0 -83 37.5 -128t131.5 -45q75 0 131.5 53.5t56.5 128.5v290h45v-361q0 -58 14 -79.5t66 -21.5h15z" />
    <glyph glyph-name="v" unicode="v" horiz-adv-x="594" 
d="M45 500h46l206 -455l206 455h46l-230 -500h-44z" />
    <glyph glyph-name="w" unicode="w" horiz-adv-x="756" 
d="M45 500h46l128 -444l139 444h41l138 -443l128 443h46l-150 -500h-45l-138 445l-138 -445h-45z" />
    <glyph glyph-name="x" unicode="x" horiz-adv-x="615" 
d="M45 0l232 261l-207 239h53l185 -215l185 215h52l-207 -239l232 -261h-55l-207 237l-208 -237h-55z" />
    <glyph glyph-name="y" unicode="y" horiz-adv-x="579" 
d="M534 500l-221 -510q-40 -93 -57 -117q-40 -56 -126 -68q-33 -5 -78 -5v40q28 0 50.5 1.5t40.5 7t31 9.5t24 14t17.5 16.5t15 21.5t12 23t12 28t12.5 30l5 10l-226 499h46l202 -457l194 457h46z" />
    <glyph glyph-name="z" unicode="z" horiz-adv-x="533" 
d="M464 500v-31l-350 -431h374v-38h-434v32l351 430h-343v38h402z" />
    <glyph glyph-name="braceleft" unicode="{" 
d="M101 197q-6 0 -9 -1v-98q2 -1 9 -1q18 0 24.5 12t6.5 38t-6.5 38t-24.5 12zM253 161v-24h-40v-38h47v-24h-76v145h76v-25h-47v-34h40zM99 73q-23 0 -36 2v143q26 4 37 4q33 0 47 -18t14 -57t-14.5 -56.5t-47.5 -17.5zM286 220h39l19 -80l19 80h40q1 -21 3.5 -78.5
t2.5 -66.5h-29q0 53 -3 104l-20 -82h-27l-20 82h-1q-2 -68 -2 -104h-28q2 84 7 145zM482 73q-29 0 -41 17.5t-12 56.5t12 57t41 18t41.5 -18t12.5 -57t-12.5 -56.5t-41.5 -17.5zM482 197q-14 0 -19 -11.5t-5 -38.5q0 -50 24 -50q15 0 20 12t5 38q0 27 -5 38.5t-20 11.5z
M472 496q34 0 48 -20t14 -43q0 -21 -16.5 -35t-35.5 -17q-104 -12 -166 -72q3 8 8.5 20.5t22.5 44.5t34.5 57t42.5 45t48 20zM139 444q26 0 52 -19.5t44 -47t32 -54.5t21 -47l7 -19q-57 72 -156 72q-24 0 -43 15t-19 37q0 26 16.5 44.5t45.5 18.5zM314 593q19 -18 24 -50
t-1.5 -64t-15.5 -62t-17 -49l-9 -18q10 93 -61 161q-17 17 -20.5 40t11.5 41q18 18 41.5 19.5t47.5 -18.5z" />
    <glyph glyph-name="bar" unicode="|" 
d="M101 197q-6 0 -9 -1v-98q2 -1 9 -1q18 0 24.5 12t6.5 38t-6.5 38t-24.5 12zM253 161v-24h-40v-38h47v-24h-76v145h76v-25h-47v-34h40zM99 73q-23 0 -36 2v143q26 4 37 4q33 0 47 -18t14 -57t-14.5 -56.5t-47.5 -17.5zM286 220h39l19 -80l19 80h40q1 -21 3.5 -78.5
t2.5 -66.5h-29q0 53 -3 104l-20 -82h-27l-20 82h-1q-2 -68 -2 -104h-28q2 84 7 145zM482 73q-29 0 -41 17.5t-12 56.5t12 57t41 18t41.5 -18t12.5 -57t-12.5 -56.5t-41.5 -17.5zM482 197q-14 0 -19 -11.5t-5 -38.5q0 -50 24 -50q15 0 20 12t5 38q0 27 -5 38.5t-20 11.5z
M472 496q34 0 48 -20t14 -43q0 -21 -16.5 -35t-35.5 -17q-104 -12 -166 -72q3 8 8.5 20.5t22.5 44.5t34.5 57t42.5 45t48 20zM139 444q26 0 52 -19.5t44 -47t32 -54.5t21 -47l7 -19q-57 72 -156 72q-24 0 -43 15t-19 37q0 26 16.5 44.5t45.5 18.5zM314 593q19 -18 24 -50
t-1.5 -64t-15.5 -62t-17 -49l-9 -18q10 93 -61 161q-17 17 -20.5 40t11.5 41q18 18 41.5 19.5t47.5 -18.5z" />
    <glyph glyph-name="braceright" unicode="}" 
d="M101 197q-6 0 -9 -1v-98q2 -1 9 -1q18 0 24.5 12t6.5 38t-6.5 38t-24.5 12zM253 161v-24h-40v-38h47v-24h-76v145h76v-25h-47v-34h40zM99 73q-23 0 -36 2v143q26 4 37 4q33 0 47 -18t14 -57t-14.5 -56.5t-47.5 -17.5zM286 220h39l19 -80l19 80h40q1 -21 3.5 -78.5
t2.5 -66.5h-29q0 53 -3 104l-20 -82h-27l-20 82h-1q-2 -68 -2 -104h-28q2 84 7 145zM482 73q-29 0 -41 17.5t-12 56.5t12 57t41 18t41.5 -18t12.5 -57t-12.5 -56.5t-41.5 -17.5zM482 197q-14 0 -19 -11.5t-5 -38.5q0 -50 24 -50q15 0 20 12t5 38q0 27 -5 38.5t-20 11.5z
M472 496q34 0 48 -20t14 -43q0 -21 -16.5 -35t-35.5 -17q-104 -12 -166 -72q3 8 8.5 20.5t22.5 44.5t34.5 57t42.5 45t48 20zM139 444q26 0 52 -19.5t44 -47t32 -54.5t21 -47l7 -19q-57 72 -156 72q-24 0 -43 15t-19 37q0 26 16.5 44.5t45.5 18.5zM314 593q19 -18 24 -50
t-1.5 -64t-15.5 -62t-17 -49l-9 -18q10 93 -61 161q-17 17 -20.5 40t11.5 41q18 18 41.5 19.5t47.5 -18.5z" />
    <glyph glyph-name="asciitilde" unicode="~" 
d="M101 197q-6 0 -9 -1v-98q2 -1 9 -1q18 0 24.5 12t6.5 38t-6.5 38t-24.5 12zM253 161v-24h-40v-38h47v-24h-76v145h76v-25h-47v-34h40zM99 73q-23 0 -36 2v143q26 4 37 4q33 0 47 -18t14 -57t-14.5 -56.5t-47.5 -17.5zM286 220h39l19 -80l19 80h40q1 -21 3.5 -78.5
t2.5 -66.5h-29q0 53 -3 104l-20 -82h-27l-20 82h-1q-2 -68 -2 -104h-28q2 84 7 145zM482 73q-29 0 -41 17.5t-12 56.5t12 57t41 18t41.5 -18t12.5 -57t-12.5 -56.5t-41.5 -17.5zM482 197q-14 0 -19 -11.5t-5 -38.5q0 -50 24 -50q15 0 20 12t5 38q0 27 -5 38.5t-20 11.5z
M472 496q34 0 48 -20t14 -43q0 -21 -16.5 -35t-35.5 -17q-104 -12 -166 -72q3 8 8.5 20.5t22.5 44.5t34.5 57t42.5 45t48 20zM139 444q26 0 52 -19.5t44 -47t32 -54.5t21 -47l7 -19q-57 72 -156 72q-24 0 -43 15t-19 37q0 26 16.5 44.5t45.5 18.5zM314 593q19 -18 24 -50
t-1.5 -64t-15.5 -62t-17 -49l-9 -18q10 93 -61 161q-17 17 -20.5 40t11.5 41q18 18 41.5 19.5t47.5 -18.5z" />
    </font>
</defs>
</svg>
