<?xml version="1.0" standalone="no"?>
<!DOCTYPE svg PUBLIC "-//W3C//DTD SVG 1.1//EN" "http://www.w3.org/Graphics/SVG/1.1/DTD/svg11.dtd" >
<svg xmlns="http://www.w3.org/2000/svg" xmlns:xlink="http://www.w3.org/1999/xlink" version="1.1">
<metadata>
Created by FontForge 20230101 at Wed Dec 30 23:16:17 2020
 By Unknown
Tour de Force Font Foundry &#38; Dusan Jelesijevic
</metadata>
<defs>
<font id="FONTSPRINGDEMO-LupioExtBdItalic" horiz-adv-x="598" >
  <font-face 
    font-family="FSP DEMO - Lupio ExtBd"
    font-weight="800"
    font-style="italic"
    font-stretch="normal"
    units-per-em="1000"
    panose-1="0 0 0 0 0 0 0 0 0 0"
    ascent="800"
    descent="-200"
    x-height="500"
    cap-height="700"
    bbox="-113 -200 1200 745"
    underline-thickness="50"
    underline-position="-125"
    slope="-10"
    unicode-range="U+000D-007E"
  />
<missing-glyph 
d="M101 197q-6 0 -9 -1v-98q2 -1 9 -1q18 0 24.5 12t6.5 38t-6.5 38t-24.5 12zM253 161v-24h-40v-38h47v-24h-76v145h76v-25h-47v-34h40zM99 73q-23 0 -36 2v143q26 4 37 4q33 0 47 -18t14 -57t-14.5 -56.5t-47.5 -17.5zM286 220h39l19 -80l19 80h40q1 -21 3.5 -78.5
t2.5 -66.5h-29q0 53 -3 104l-20 -82h-27l-20 82h-1q-2 -68 -2 -104h-28q2 84 7 145zM482 73q-29 0 -41 17.5t-12 56.5t12 57t41 18t41.5 -18t12.5 -57t-12.5 -56.5t-41.5 -17.5zM482 197q-14 0 -19 -11.5t-5 -38.5q0 -50 24 -50q15 0 20 12t5 38q0 27 -5 38.5t-20 11.5z
M472 496q34 0 48 -20t14 -43q0 -21 -16.5 -35t-35.5 -17q-104 -12 -166 -72q3 8 8.5 20.5t22.5 44.5t34.5 57t42.5 45t48 20zM139 444q26 0 52 -19.5t44 -47t32 -54.5t21 -47l7 -19q-57 72 -156 72q-24 0 -43 15t-19 37q0 26 16.5 44.5t45.5 18.5zM314 593q19 -18 24 -50
t-1.5 -64t-15.5 -62t-17 -49l-9 -18q10 93 -61 161q-17 17 -20.5 40t11.5 41q18 18 41.5 19.5t47.5 -18.5z" />
    <glyph glyph-name=".notdef" 
d="M101 197q-6 0 -9 -1v-98q2 -1 9 -1q18 0 24.5 12t6.5 38t-6.5 38t-24.5 12zM253 161v-24h-40v-38h47v-24h-76v145h76v-25h-47v-34h40zM99 73q-23 0 -36 2v143q26 4 37 4q33 0 47 -18t14 -57t-14.5 -56.5t-47.5 -17.5zM286 220h39l19 -80l19 80h40q1 -21 3.5 -78.5
t2.5 -66.5h-29q0 53 -3 104l-20 -82h-27l-20 82h-1q-2 -68 -2 -104h-28q2 84 7 145zM482 73q-29 0 -41 17.5t-12 56.5t12 57t41 18t41.5 -18t12.5 -57t-12.5 -56.5t-41.5 -17.5zM482 197q-14 0 -19 -11.5t-5 -38.5q0 -50 24 -50q15 0 20 12t5 38q0 27 -5 38.5t-20 11.5z
M472 496q34 0 48 -20t14 -43q0 -21 -16.5 -35t-35.5 -17q-104 -12 -166 -72q3 8 8.5 20.5t22.5 44.5t34.5 57t42.5 45t48 20zM139 444q26 0 52 -19.5t44 -47t32 -54.5t21 -47l7 -19q-57 72 -156 72q-24 0 -43 15t-19 37q0 26 16.5 44.5t45.5 18.5zM314 593q19 -18 24 -50
t-1.5 -64t-15.5 -62t-17 -49l-9 -18q10 93 -61 161q-17 17 -20.5 40t11.5 41q18 18 41.5 19.5t47.5 -18.5z" />
    <glyph glyph-name="uni0000" horiz-adv-x="0" 
 />
    <glyph glyph-name="uni000D" unicode="&#xd;" horiz-adv-x="250" 
 />
    <glyph glyph-name="space" unicode=" " horiz-adv-x="260" 
 />
    <glyph glyph-name="exclam" unicode="!" 
d="M101 197q-6 0 -9 -1v-98q2 -1 9 -1q18 0 24.5 12t6.5 38t-6.5 38t-24.5 12zM253 161v-24h-40v-38h47v-24h-76v145h76v-25h-47v-34h40zM99 73q-23 0 -36 2v143q26 4 37 4q33 0 47 -18t14 -57t-14.5 -56.5t-47.5 -17.5zM286 220h39l19 -80l19 80h40q1 -21 3.5 -78.5
t2.5 -66.5h-29q0 53 -3 104l-20 -82h-27l-20 82h-1q-2 -68 -2 -104h-28q2 84 7 145zM482 73q-29 0 -41 17.5t-12 56.5t12 57t41 18t41.5 -18t12.5 -57t-12.5 -56.5t-41.5 -17.5zM482 197q-14 0 -19 -11.5t-5 -38.5q0 -50 24 -50q15 0 20 12t5 38q0 27 -5 38.5t-20 11.5z
M472 496q34 0 48 -20t14 -43q0 -21 -16.5 -35t-35.5 -17q-104 -12 -166 -72q3 8 8.5 20.5t22.5 44.5t34.5 57t42.5 45t48 20zM139 444q26 0 52 -19.5t44 -47t32 -54.5t21 -47l7 -19q-57 72 -156 72q-24 0 -43 15t-19 37q0 26 16.5 44.5t45.5 18.5zM314 593q19 -18 24 -50
t-1.5 -64t-15.5 -62t-17 -49l-9 -18q10 93 -61 161q-17 17 -20.5 40t11.5 41q18 18 41.5 19.5t47.5 -18.5z" />
    <glyph glyph-name="quotedbl" unicode="&#x22;" 
d="M101 197q-6 0 -9 -1v-98q2 -1 9 -1q18 0 24.5 12t6.5 38t-6.5 38t-24.5 12zM253 161v-24h-40v-38h47v-24h-76v145h76v-25h-47v-34h40zM99 73q-23 0 -36 2v143q26 4 37 4q33 0 47 -18t14 -57t-14.5 -56.5t-47.5 -17.5zM286 220h39l19 -80l19 80h40q1 -21 3.5 -78.5
t2.5 -66.5h-29q0 53 -3 104l-20 -82h-27l-20 82h-1q-2 -68 -2 -104h-28q2 84 7 145zM482 73q-29 0 -41 17.5t-12 56.5t12 57t41 18t41.5 -18t12.5 -57t-12.5 -56.5t-41.5 -17.5zM482 197q-14 0 -19 -11.5t-5 -38.5q0 -50 24 -50q15 0 20 12t5 38q0 27 -5 38.5t-20 11.5z
M472 496q34 0 48 -20t14 -43q0 -21 -16.5 -35t-35.5 -17q-104 -12 -166 -72q3 8 8.5 20.5t22.5 44.5t34.5 57t42.5 45t48 20zM139 444q26 0 52 -19.5t44 -47t32 -54.5t21 -47l7 -19q-57 72 -156 72q-24 0 -43 15t-19 37q0 26 16.5 44.5t45.5 18.5zM314 593q19 -18 24 -50
t-1.5 -64t-15.5 -62t-17 -49l-9 -18q10 93 -61 161q-17 17 -20.5 40t11.5 41q18 18 41.5 19.5t47.5 -18.5z" />
    <glyph glyph-name="numbersign" unicode="#" 
d="M101 197q-6 0 -9 -1v-98q2 -1 9 -1q18 0 24.5 12t6.5 38t-6.5 38t-24.5 12zM253 161v-24h-40v-38h47v-24h-76v145h76v-25h-47v-34h40zM99 73q-23 0 -36 2v143q26 4 37 4q33 0 47 -18t14 -57t-14.5 -56.5t-47.5 -17.5zM286 220h39l19 -80l19 80h40q1 -21 3.5 -78.5
t2.5 -66.5h-29q0 53 -3 104l-20 -82h-27l-20 82h-1q-2 -68 -2 -104h-28q2 84 7 145zM482 73q-29 0 -41 17.5t-12 56.5t12 57t41 18t41.5 -18t12.5 -57t-12.5 -56.5t-41.5 -17.5zM482 197q-14 0 -19 -11.5t-5 -38.5q0 -50 24 -50q15 0 20 12t5 38q0 27 -5 38.5t-20 11.5z
M472 496q34 0 48 -20t14 -43q0 -21 -16.5 -35t-35.5 -17q-104 -12 -166 -72q3 8 8.5 20.5t22.5 44.5t34.5 57t42.5 45t48 20zM139 444q26 0 52 -19.5t44 -47t32 -54.5t21 -47l7 -19q-57 72 -156 72q-24 0 -43 15t-19 37q0 26 16.5 44.5t45.5 18.5zM314 593q19 -18 24 -50
t-1.5 -64t-15.5 -62t-17 -49l-9 -18q10 93 -61 161q-17 17 -20.5 40t11.5 41q18 18 41.5 19.5t47.5 -18.5z" />
    <glyph glyph-name="dollar" unicode="$" 
d="M101 197q-6 0 -9 -1v-98q2 -1 9 -1q18 0 24.5 12t6.5 38t-6.5 38t-24.5 12zM253 161v-24h-40v-38h47v-24h-76v145h76v-25h-47v-34h40zM99 73q-23 0 -36 2v143q26 4 37 4q33 0 47 -18t14 -57t-14.5 -56.5t-47.5 -17.5zM286 220h39l19 -80l19 80h40q1 -21 3.5 -78.5
t2.5 -66.5h-29q0 53 -3 104l-20 -82h-27l-20 82h-1q-2 -68 -2 -104h-28q2 84 7 145zM482 73q-29 0 -41 17.5t-12 56.5t12 57t41 18t41.5 -18t12.5 -57t-12.5 -56.5t-41.5 -17.5zM482 197q-14 0 -19 -11.5t-5 -38.5q0 -50 24 -50q15 0 20 12t5 38q0 27 -5 38.5t-20 11.5z
M472 496q34 0 48 -20t14 -43q0 -21 -16.5 -35t-35.5 -17q-104 -12 -166 -72q3 8 8.5 20.5t22.5 44.5t34.5 57t42.5 45t48 20zM139 444q26 0 52 -19.5t44 -47t32 -54.5t21 -47l7 -19q-57 72 -156 72q-24 0 -43 15t-19 37q0 26 16.5 44.5t45.5 18.5zM314 593q19 -18 24 -50
t-1.5 -64t-15.5 -62t-17 -49l-9 -18q10 93 -61 161q-17 17 -20.5 40t11.5 41q18 18 41.5 19.5t47.5 -18.5z" />
    <glyph glyph-name="percent" unicode="%" 
d="M101 197q-6 0 -9 -1v-98q2 -1 9 -1q18 0 24.5 12t6.5 38t-6.5 38t-24.5 12zM253 161v-24h-40v-38h47v-24h-76v145h76v-25h-47v-34h40zM99 73q-23 0 -36 2v143q26 4 37 4q33 0 47 -18t14 -57t-14.5 -56.5t-47.5 -17.5zM286 220h39l19 -80l19 80h40q1 -21 3.5 -78.5
t2.5 -66.5h-29q0 53 -3 104l-20 -82h-27l-20 82h-1q-2 -68 -2 -104h-28q2 84 7 145zM482 73q-29 0 -41 17.5t-12 56.5t12 57t41 18t41.5 -18t12.5 -57t-12.5 -56.5t-41.5 -17.5zM482 197q-14 0 -19 -11.5t-5 -38.5q0 -50 24 -50q15 0 20 12t5 38q0 27 -5 38.5t-20 11.5z
M472 496q34 0 48 -20t14 -43q0 -21 -16.5 -35t-35.5 -17q-104 -12 -166 -72q3 8 8.5 20.5t22.5 44.5t34.5 57t42.5 45t48 20zM139 444q26 0 52 -19.5t44 -47t32 -54.5t21 -47l7 -19q-57 72 -156 72q-24 0 -43 15t-19 37q0 26 16.5 44.5t45.5 18.5zM314 593q19 -18 24 -50
t-1.5 -64t-15.5 -62t-17 -49l-9 -18q10 93 -61 161q-17 17 -20.5 40t11.5 41q18 18 41.5 19.5t47.5 -18.5z" />
    <glyph glyph-name="ampersand" unicode="&#x26;" 
d="M101 197q-6 0 -9 -1v-98q2 -1 9 -1q18 0 24.5 12t6.5 38t-6.5 38t-24.5 12zM253 161v-24h-40v-38h47v-24h-76v145h76v-25h-47v-34h40zM99 73q-23 0 -36 2v143q26 4 37 4q33 0 47 -18t14 -57t-14.5 -56.5t-47.5 -17.5zM286 220h39l19 -80l19 80h40q1 -21 3.5 -78.5
t2.5 -66.5h-29q0 53 -3 104l-20 -82h-27l-20 82h-1q-2 -68 -2 -104h-28q2 84 7 145zM482 73q-29 0 -41 17.5t-12 56.5t12 57t41 18t41.5 -18t12.5 -57t-12.5 -56.5t-41.5 -17.5zM482 197q-14 0 -19 -11.5t-5 -38.5q0 -50 24 -50q15 0 20 12t5 38q0 27 -5 38.5t-20 11.5z
M472 496q34 0 48 -20t14 -43q0 -21 -16.5 -35t-35.5 -17q-104 -12 -166 -72q3 8 8.5 20.5t22.5 44.5t34.5 57t42.5 45t48 20zM139 444q26 0 52 -19.5t44 -47t32 -54.5t21 -47l7 -19q-57 72 -156 72q-24 0 -43 15t-19 37q0 26 16.5 44.5t45.5 18.5zM314 593q19 -18 24 -50
t-1.5 -64t-15.5 -62t-17 -49l-9 -18q10 93 -61 161q-17 17 -20.5 40t11.5 41q18 18 41.5 19.5t47.5 -18.5z" />
    <glyph glyph-name="quotesingle" unicode="'" 
d="M101 197q-6 0 -9 -1v-98q2 -1 9 -1q18 0 24.5 12t6.5 38t-6.5 38t-24.5 12zM253 161v-24h-40v-38h47v-24h-76v145h76v-25h-47v-34h40zM99 73q-23 0 -36 2v143q26 4 37 4q33 0 47 -18t14 -57t-14.5 -56.5t-47.5 -17.5zM286 220h39l19 -80l19 80h40q1 -21 3.5 -78.5
t2.5 -66.5h-29q0 53 -3 104l-20 -82h-27l-20 82h-1q-2 -68 -2 -104h-28q2 84 7 145zM482 73q-29 0 -41 17.5t-12 56.5t12 57t41 18t41.5 -18t12.5 -57t-12.5 -56.5t-41.5 -17.5zM482 197q-14 0 -19 -11.5t-5 -38.5q0 -50 24 -50q15 0 20 12t5 38q0 27 -5 38.5t-20 11.5z
M472 496q34 0 48 -20t14 -43q0 -21 -16.5 -35t-35.5 -17q-104 -12 -166 -72q3 8 8.5 20.5t22.5 44.5t34.5 57t42.5 45t48 20zM139 444q26 0 52 -19.5t44 -47t32 -54.5t21 -47l7 -19q-57 72 -156 72q-24 0 -43 15t-19 37q0 26 16.5 44.5t45.5 18.5zM314 593q19 -18 24 -50
t-1.5 -64t-15.5 -62t-17 -49l-9 -18q10 93 -61 161q-17 17 -20.5 40t11.5 41q18 18 41.5 19.5t47.5 -18.5z" />
    <glyph glyph-name="parenleft" unicode="(" 
d="M101 197q-6 0 -9 -1v-98q2 -1 9 -1q18 0 24.5 12t6.5 38t-6.5 38t-24.5 12zM253 161v-24h-40v-38h47v-24h-76v145h76v-25h-47v-34h40zM99 73q-23 0 -36 2v143q26 4 37 4q33 0 47 -18t14 -57t-14.5 -56.5t-47.5 -17.5zM286 220h39l19 -80l19 80h40q1 -21 3.5 -78.5
t2.5 -66.5h-29q0 53 -3 104l-20 -82h-27l-20 82h-1q-2 -68 -2 -104h-28q2 84 7 145zM482 73q-29 0 -41 17.5t-12 56.5t12 57t41 18t41.5 -18t12.5 -57t-12.5 -56.5t-41.5 -17.5zM482 197q-14 0 -19 -11.5t-5 -38.5q0 -50 24 -50q15 0 20 12t5 38q0 27 -5 38.5t-20 11.5z
M472 496q34 0 48 -20t14 -43q0 -21 -16.5 -35t-35.5 -17q-104 -12 -166 -72q3 8 8.5 20.5t22.5 44.5t34.5 57t42.5 45t48 20zM139 444q26 0 52 -19.5t44 -47t32 -54.5t21 -47l7 -19q-57 72 -156 72q-24 0 -43 15t-19 37q0 26 16.5 44.5t45.5 18.5zM314 593q19 -18 24 -50
t-1.5 -64t-15.5 -62t-17 -49l-9 -18q10 93 -61 161q-17 17 -20.5 40t11.5 41q18 18 41.5 19.5t47.5 -18.5z" />
    <glyph glyph-name="parenright" unicode=")" 
d="M101 197q-6 0 -9 -1v-98q2 -1 9 -1q18 0 24.5 12t6.5 38t-6.5 38t-24.5 12zM253 161v-24h-40v-38h47v-24h-76v145h76v-25h-47v-34h40zM99 73q-23 0 -36 2v143q26 4 37 4q33 0 47 -18t14 -57t-14.5 -56.5t-47.5 -17.5zM286 220h39l19 -80l19 80h40q1 -21 3.5 -78.5
t2.5 -66.5h-29q0 53 -3 104l-20 -82h-27l-20 82h-1q-2 -68 -2 -104h-28q2 84 7 145zM482 73q-29 0 -41 17.5t-12 56.5t12 57t41 18t41.5 -18t12.5 -57t-12.5 -56.5t-41.5 -17.5zM482 197q-14 0 -19 -11.5t-5 -38.5q0 -50 24 -50q15 0 20 12t5 38q0 27 -5 38.5t-20 11.5z
M472 496q34 0 48 -20t14 -43q0 -21 -16.5 -35t-35.5 -17q-104 -12 -166 -72q3 8 8.5 20.5t22.5 44.5t34.5 57t42.5 45t48 20zM139 444q26 0 52 -19.5t44 -47t32 -54.5t21 -47l7 -19q-57 72 -156 72q-24 0 -43 15t-19 37q0 26 16.5 44.5t45.5 18.5zM314 593q19 -18 24 -50
t-1.5 -64t-15.5 -62t-17 -49l-9 -18q10 93 -61 161q-17 17 -20.5 40t11.5 41q18 18 41.5 19.5t47.5 -18.5z" />
    <glyph glyph-name="asterisk" unicode="*" 
d="M101 197q-6 0 -9 -1v-98q2 -1 9 -1q18 0 24.5 12t6.5 38t-6.5 38t-24.5 12zM253 161v-24h-40v-38h47v-24h-76v145h76v-25h-47v-34h40zM99 73q-23 0 -36 2v143q26 4 37 4q33 0 47 -18t14 -57t-14.5 -56.5t-47.5 -17.5zM286 220h39l19 -80l19 80h40q1 -21 3.5 -78.5
t2.5 -66.5h-29q0 53 -3 104l-20 -82h-27l-20 82h-1q-2 -68 -2 -104h-28q2 84 7 145zM482 73q-29 0 -41 17.5t-12 56.5t12 57t41 18t41.5 -18t12.5 -57t-12.5 -56.5t-41.5 -17.5zM482 197q-14 0 -19 -11.5t-5 -38.5q0 -50 24 -50q15 0 20 12t5 38q0 27 -5 38.5t-20 11.5z
M472 496q34 0 48 -20t14 -43q0 -21 -16.5 -35t-35.5 -17q-104 -12 -166 -72q3 8 8.5 20.5t22.5 44.5t34.5 57t42.5 45t48 20zM139 444q26 0 52 -19.5t44 -47t32 -54.5t21 -47l7 -19q-57 72 -156 72q-24 0 -43 15t-19 37q0 26 16.5 44.5t45.5 18.5zM314 593q19 -18 24 -50
t-1.5 -64t-15.5 -62t-17 -49l-9 -18q10 93 -61 161q-17 17 -20.5 40t11.5 41q18 18 41.5 19.5t47.5 -18.5z" />
    <glyph glyph-name="plus" unicode="+" 
d="M101 197q-6 0 -9 -1v-98q2 -1 9 -1q18 0 24.5 12t6.5 38t-6.5 38t-24.5 12zM253 161v-24h-40v-38h47v-24h-76v145h76v-25h-47v-34h40zM99 73q-23 0 -36 2v143q26 4 37 4q33 0 47 -18t14 -57t-14.5 -56.5t-47.5 -17.5zM286 220h39l19 -80l19 80h40q1 -21 3.5 -78.5
t2.5 -66.5h-29q0 53 -3 104l-20 -82h-27l-20 82h-1q-2 -68 -2 -104h-28q2 84 7 145zM482 73q-29 0 -41 17.5t-12 56.5t12 57t41 18t41.5 -18t12.5 -57t-12.5 -56.5t-41.5 -17.5zM482 197q-14 0 -19 -11.5t-5 -38.5q0 -50 24 -50q15 0 20 12t5 38q0 27 -5 38.5t-20 11.5z
M472 496q34 0 48 -20t14 -43q0 -21 -16.5 -35t-35.5 -17q-104 -12 -166 -72q3 8 8.5 20.5t22.5 44.5t34.5 57t42.5 45t48 20zM139 444q26 0 52 -19.5t44 -47t32 -54.5t21 -47l7 -19q-57 72 -156 72q-24 0 -43 15t-19 37q0 26 16.5 44.5t45.5 18.5zM314 593q19 -18 24 -50
t-1.5 -64t-15.5 -62t-17 -49l-9 -18q10 93 -61 161q-17 17 -20.5 40t11.5 41q18 18 41.5 19.5t47.5 -18.5z" />
    <glyph glyph-name="comma" unicode="," horiz-adv-x="292" 
d="M252 49l-1 -1q-1 0 -1 -1t-1 -2l-138 -195h-96l94 146q-30 11 -45 39.5t-8 65.5q8 45 44.5 75.5t83.5 30.5q44 0 70 -31t19 -75q-4 -27 -21 -52z" />
    <glyph glyph-name="hyphen" unicode="-" 
d="M101 197q-6 0 -9 -1v-98q2 -1 9 -1q18 0 24.5 12t6.5 38t-6.5 38t-24.5 12zM253 161v-24h-40v-38h47v-24h-76v145h76v-25h-47v-34h40zM99 73q-23 0 -36 2v143q26 4 37 4q33 0 47 -18t14 -57t-14.5 -56.5t-47.5 -17.5zM286 220h39l19 -80l19 80h40q1 -21 3.5 -78.5
t2.5 -66.5h-29q0 53 -3 104l-20 -82h-27l-20 82h-1q-2 -68 -2 -104h-28q2 84 7 145zM482 73q-29 0 -41 17.5t-12 56.5t12 57t41 18t41.5 -18t12.5 -57t-12.5 -56.5t-41.5 -17.5zM482 197q-14 0 -19 -11.5t-5 -38.5q0 -50 24 -50q15 0 20 12t5 38q0 27 -5 38.5t-20 11.5z
M472 496q34 0 48 -20t14 -43q0 -21 -16.5 -35t-35.5 -17q-104 -12 -166 -72q3 8 8.5 20.5t22.5 44.5t34.5 57t42.5 45t48 20zM139 444q26 0 52 -19.5t44 -47t32 -54.5t21 -47l7 -19q-57 72 -156 72q-24 0 -43 15t-19 37q0 26 16.5 44.5t45.5 18.5zM314 593q19 -18 24 -50
t-1.5 -64t-15.5 -62t-17 -49l-9 -18q10 93 -61 161q-17 17 -20.5 40t11.5 41q18 18 41.5 19.5t47.5 -18.5z" />
    <glyph glyph-name="period" unicode="." horiz-adv-x="292" 
d="M56 100q8 45 44.5 76t83.5 31q44 0 70 -31.5t19 -75.5q-8 -47 -45 -78.5t-82 -31.5q-47 0 -72.5 31.5t-17.5 78.5z" />
    <glyph glyph-name="slash" unicode="/" 
d="M101 197q-6 0 -9 -1v-98q2 -1 9 -1q18 0 24.5 12t6.5 38t-6.5 38t-24.5 12zM253 161v-24h-40v-38h47v-24h-76v145h76v-25h-47v-34h40zM99 73q-23 0 -36 2v143q26 4 37 4q33 0 47 -18t14 -57t-14.5 -56.5t-47.5 -17.5zM286 220h39l19 -80l19 80h40q1 -21 3.5 -78.5
t2.5 -66.5h-29q0 53 -3 104l-20 -82h-27l-20 82h-1q-2 -68 -2 -104h-28q2 84 7 145zM482 73q-29 0 -41 17.5t-12 56.5t12 57t41 18t41.5 -18t12.5 -57t-12.5 -56.5t-41.5 -17.5zM482 197q-14 0 -19 -11.5t-5 -38.5q0 -50 24 -50q15 0 20 12t5 38q0 27 -5 38.5t-20 11.5z
M472 496q34 0 48 -20t14 -43q0 -21 -16.5 -35t-35.5 -17q-104 -12 -166 -72q3 8 8.5 20.5t22.5 44.5t34.5 57t42.5 45t48 20zM139 444q26 0 52 -19.5t44 -47t32 -54.5t21 -47l7 -19q-57 72 -156 72q-24 0 -43 15t-19 37q0 26 16.5 44.5t45.5 18.5zM314 593q19 -18 24 -50
t-1.5 -64t-15.5 -62t-17 -49l-9 -18q10 93 -61 161q-17 17 -20.5 40t11.5 41q18 18 41.5 19.5t47.5 -18.5z" />
    <glyph glyph-name="zero" unicode="0" horiz-adv-x="734" 
d="M91 350q30 170 136 265t265 95t232 -95.5t43 -264.5t-136.5 -264.5t-265.5 -95.5t-231.5 95.5t-42.5 264.5zM464 550q-65 0 -111.5 -52.5t-62.5 -147.5q-18 -100 4.5 -150t98.5 -50q64 0 111 53t64 147q17 101 -5.5 150.5t-98.5 49.5z" />
    <glyph glyph-name="one" unicode="1" horiz-adv-x="478" 
d="M422 700h139l-123 -700h-197l90 513l-182 -77l-32 134z" />
    <glyph glyph-name="two" unicode="2" horiz-adv-x="637" 
d="M82 160l298 220q46 35 64 58t23 50q8 41 -9 56t-52 15q-80 0 -102 -125h-199q7 41 21 77.5t40 74t61 64t87.5 43.5t116.5 17q53 0 97 -11.5t80.5 -36.5t51.5 -72t4 -112q-22 -120 -220 -252l-100 -66h293l-28 -160h-555z" />
    <glyph glyph-name="three" unicode="3" horiz-adv-x="629" 
d="M281 285l24 133h76q63 0 76 71q7 38 -4.5 54t-51.5 16q-65 0 -82 -96h-199q18 107 97.5 177t210.5 70q112 0 176 -52t47 -145q-18 -104 -113 -155q120 -43 99 -162q-17 -94 -105 -149.5t-211 -55.5q-141 0 -205 71.5t-47 167.5h199q-17 -88 74 -88q35 0 64.5 23t35.5 58
q6 31 -10.5 46.5t-48.5 15.5h-102z" />
    <glyph glyph-name="four" unicode="4" 
d="M101 197q-6 0 -9 -1v-98q2 -1 9 -1q18 0 24.5 12t6.5 38t-6.5 38t-24.5 12zM253 161v-24h-40v-38h47v-24h-76v145h76v-25h-47v-34h40zM99 73q-23 0 -36 2v143q26 4 37 4q33 0 47 -18t14 -57t-14.5 -56.5t-47.5 -17.5zM286 220h39l19 -80l19 80h40q1 -21 3.5 -78.5
t2.5 -66.5h-29q0 53 -3 104l-20 -82h-27l-20 82h-1q-2 -68 -2 -104h-28q2 84 7 145zM482 73q-29 0 -41 17.5t-12 56.5t12 57t41 18t41.5 -18t12.5 -57t-12.5 -56.5t-41.5 -17.5zM482 197q-14 0 -19 -11.5t-5 -38.5q0 -50 24 -50q15 0 20 12t5 38q0 27 -5 38.5t-20 11.5z
M472 496q34 0 48 -20t14 -43q0 -21 -16.5 -35t-35.5 -17q-104 -12 -166 -72q3 8 8.5 20.5t22.5 44.5t34.5 57t42.5 45t48 20zM139 444q26 0 52 -19.5t44 -47t32 -54.5t21 -47l7 -19q-57 72 -156 72q-24 0 -43 15t-19 37q0 26 16.5 44.5t45.5 18.5zM314 593q19 -18 24 -50
t-1.5 -64t-15.5 -62t-17 -49l-9 -18q10 93 -61 161q-17 17 -20.5 40t11.5 41q18 18 41.5 19.5t47.5 -18.5z" />
    <glyph glyph-name="five" unicode="5" horiz-adv-x="621" 
d="M100 272l125 428h446l-28 -160h-268l-32 -109q43 18 97 18q39 0 76.5 -14t68 -40.5t44.5 -70.5t5 -98q-19 -106 -107.5 -171t-208.5 -65q-124 0 -196.5 63.5t-54.5 170.5h197q-14 -85 72 -85q34 0 63.5 21t36.5 59q13 81 -65 81q-36 0 -74 -28h-197z" />
    <glyph glyph-name="six" unicode="6" horiz-adv-x="641" 
d="M428 700h242l-204 -230q97 -16 150 -80t37 -157q-19 -108 -115.5 -175.5t-219.5 -67.5q-127 0 -197 67t-51 176q12 71 60 125zM345 139q34 0 69 26.5t42 67.5q8 44 -13 68.5t-66 24.5q-33 0 -68 -26t-42 -67q-8 -44 12.5 -69t65.5 -25z" />
    <glyph glyph-name="seven" unicode="7" horiz-adv-x="535" 
d="M643 700l-27 -156l-340 -544h-216l344 540h-294l28 160h505z" />
    <glyph glyph-name="eight" unicode="8" horiz-adv-x="640" 
d="M445 710q119 0 185.5 -53t50.5 -144q-16 -95 -120 -152q103 -60 85 -164q-17 -96 -111 -151.5t-217 -55.5q-122 0 -196.5 55.5t-57.5 151.5q18 104 143 165q-84 57 -68 151q16 90 101.5 143.5t204.5 53.5zM395 426q41 0 65.5 19.5t29.5 48.5q5 30 -10 48.5t-61 18.5
q-35 0 -62.5 -20t-32.5 -47q-5 -29 13 -48.5t58 -19.5zM345 139q37 0 69 22t38 55q6 34 -16 55t-65 21t-72 -20.5t-35 -55.5q-6 -36 13.5 -56.5t67.5 -20.5z" />
    <glyph glyph-name="nine" unicode="9" horiz-adv-x="641" 
d="M336 -1h-242l205 230q-98 17 -151.5 81t-36.5 157q19 107 116 174.5t219 67.5q127 0 197 -67t51 -175q-13 -73 -65 -131zM420 560q-34 0 -69 -26t-43 -67q-8 -45 13 -69.5t66 -24.5q33 0 68 26.5t42 67.5q8 44 -12 68.5t-65 24.5z" />
    <glyph glyph-name="colon" unicode=":" horiz-adv-x="292" 
d="M109 403q8 45 45 76t84 31q44 0 70 -31.5t18 -75.5q-8 -47 -44.5 -78.5t-81.5 -31.5q-47 0 -73 31.5t-18 78.5zM56 100q8 45 44.5 76t83.5 31q44 0 70 -31.5t19 -75.5q-8 -47 -45 -78.5t-82 -31.5q-47 0 -72.5 31.5t-17.5 78.5z" />
    <glyph glyph-name="semicolon" unicode=";" horiz-adv-x="292" 
d="M109 403q8 45 45 76t84 31q44 0 70 -31.5t18 -75.5q-8 -47 -44.5 -78.5t-81.5 -31.5q-47 0 -73 31.5t-18 78.5zM252 49l-1 -1q-1 0 -1 -1t-1 -2l-138 -195h-96l94 146q-30 11 -45 39.5t-8 65.5q8 45 45 76t84 31q44 0 70 -31.5t18 -75.5q-4 -27 -21 -52z" />
    <glyph glyph-name="less" unicode="&#x3c;" 
d="M101 197q-6 0 -9 -1v-98q2 -1 9 -1q18 0 24.5 12t6.5 38t-6.5 38t-24.5 12zM253 161v-24h-40v-38h47v-24h-76v145h76v-25h-47v-34h40zM99 73q-23 0 -36 2v143q26 4 37 4q33 0 47 -18t14 -57t-14.5 -56.5t-47.5 -17.5zM286 220h39l19 -80l19 80h40q1 -21 3.5 -78.5
t2.5 -66.5h-29q0 53 -3 104l-20 -82h-27l-20 82h-1q-2 -68 -2 -104h-28q2 84 7 145zM482 73q-29 0 -41 17.5t-12 56.5t12 57t41 18t41.5 -18t12.5 -57t-12.5 -56.5t-41.5 -17.5zM482 197q-14 0 -19 -11.5t-5 -38.5q0 -50 24 -50q15 0 20 12t5 38q0 27 -5 38.5t-20 11.5z
M472 496q34 0 48 -20t14 -43q0 -21 -16.5 -35t-35.5 -17q-104 -12 -166 -72q3 8 8.5 20.5t22.5 44.5t34.5 57t42.5 45t48 20zM139 444q26 0 52 -19.5t44 -47t32 -54.5t21 -47l7 -19q-57 72 -156 72q-24 0 -43 15t-19 37q0 26 16.5 44.5t45.5 18.5zM314 593q19 -18 24 -50
t-1.5 -64t-15.5 -62t-17 -49l-9 -18q10 93 -61 161q-17 17 -20.5 40t11.5 41q18 18 41.5 19.5t47.5 -18.5z" />
    <glyph glyph-name="equal" unicode="=" 
d="M101 197q-6 0 -9 -1v-98q2 -1 9 -1q18 0 24.5 12t6.5 38t-6.5 38t-24.5 12zM253 161v-24h-40v-38h47v-24h-76v145h76v-25h-47v-34h40zM99 73q-23 0 -36 2v143q26 4 37 4q33 0 47 -18t14 -57t-14.5 -56.5t-47.5 -17.5zM286 220h39l19 -80l19 80h40q1 -21 3.5 -78.5
t2.5 -66.5h-29q0 53 -3 104l-20 -82h-27l-20 82h-1q-2 -68 -2 -104h-28q2 84 7 145zM482 73q-29 0 -41 17.5t-12 56.5t12 57t41 18t41.5 -18t12.5 -57t-12.5 -56.5t-41.5 -17.5zM482 197q-14 0 -19 -11.5t-5 -38.5q0 -50 24 -50q15 0 20 12t5 38q0 27 -5 38.5t-20 11.5z
M472 496q34 0 48 -20t14 -43q0 -21 -16.5 -35t-35.5 -17q-104 -12 -166 -72q3 8 8.5 20.5t22.5 44.5t34.5 57t42.5 45t48 20zM139 444q26 0 52 -19.5t44 -47t32 -54.5t21 -47l7 -19q-57 72 -156 72q-24 0 -43 15t-19 37q0 26 16.5 44.5t45.5 18.5zM314 593q19 -18 24 -50
t-1.5 -64t-15.5 -62t-17 -49l-9 -18q10 93 -61 161q-17 17 -20.5 40t11.5 41q18 18 41.5 19.5t47.5 -18.5z" />
    <glyph glyph-name="greater" unicode="&#x3e;" 
d="M101 197q-6 0 -9 -1v-98q2 -1 9 -1q18 0 24.5 12t6.5 38t-6.5 38t-24.5 12zM253 161v-24h-40v-38h47v-24h-76v145h76v-25h-47v-34h40zM99 73q-23 0 -36 2v143q26 4 37 4q33 0 47 -18t14 -57t-14.5 -56.5t-47.5 -17.5zM286 220h39l19 -80l19 80h40q1 -21 3.5 -78.5
t2.5 -66.5h-29q0 53 -3 104l-20 -82h-27l-20 82h-1q-2 -68 -2 -104h-28q2 84 7 145zM482 73q-29 0 -41 17.5t-12 56.5t12 57t41 18t41.5 -18t12.5 -57t-12.5 -56.5t-41.5 -17.5zM482 197q-14 0 -19 -11.5t-5 -38.5q0 -50 24 -50q15 0 20 12t5 38q0 27 -5 38.5t-20 11.5z
M472 496q34 0 48 -20t14 -43q0 -21 -16.5 -35t-35.5 -17q-104 -12 -166 -72q3 8 8.5 20.5t22.5 44.5t34.5 57t42.5 45t48 20zM139 444q26 0 52 -19.5t44 -47t32 -54.5t21 -47l7 -19q-57 72 -156 72q-24 0 -43 15t-19 37q0 26 16.5 44.5t45.5 18.5zM314 593q19 -18 24 -50
t-1.5 -64t-15.5 -62t-17 -49l-9 -18q10 93 -61 161q-17 17 -20.5 40t11.5 41q18 18 41.5 19.5t47.5 -18.5z" />
    <glyph glyph-name="question" unicode="?" horiz-adv-x="622" 
d="M248 236l2 16q11 61 26 93t37 50t70 41q67 32 86 52q13 15 16 32q5 28 -9.5 38t-57.5 10q-42 0 -70 -26t-36 -69h-199q9 51 29 91t57 74.5t100.5 53.5t150.5 19q123 0 187.5 -43.5t47.5 -141.5q-11 -62 -41 -104t-97 -76q-52 -27 -73.5 -47.5t-27.5 -55.5l-1 -7h-197z
M219 92q7 43 42 72.5t79 29.5q43 0 66.5 -29.5t16.5 -72.5t-41.5 -72.5t-77.5 -29.5q-44 0 -68 29.5t-17 72.5z" />
    <glyph glyph-name="at" unicode="@" 
d="M101 197q-6 0 -9 -1v-98q2 -1 9 -1q18 0 24.5 12t6.5 38t-6.5 38t-24.5 12zM253 161v-24h-40v-38h47v-24h-76v145h76v-25h-47v-34h40zM99 73q-23 0 -36 2v143q26 4 37 4q33 0 47 -18t14 -57t-14.5 -56.5t-47.5 -17.5zM286 220h39l19 -80l19 80h40q1 -21 3.5 -78.5
t2.5 -66.5h-29q0 53 -3 104l-20 -82h-27l-20 82h-1q-2 -68 -2 -104h-28q2 84 7 145zM482 73q-29 0 -41 17.5t-12 56.5t12 57t41 18t41.5 -18t12.5 -57t-12.5 -56.5t-41.5 -17.5zM482 197q-14 0 -19 -11.5t-5 -38.5q0 -50 24 -50q15 0 20 12t5 38q0 27 -5 38.5t-20 11.5z
M472 496q34 0 48 -20t14 -43q0 -21 -16.5 -35t-35.5 -17q-104 -12 -166 -72q3 8 8.5 20.5t22.5 44.5t34.5 57t42.5 45t48 20zM139 444q26 0 52 -19.5t44 -47t32 -54.5t21 -47l7 -19q-57 72 -156 72q-24 0 -43 15t-19 37q0 26 16.5 44.5t45.5 18.5zM314 593q19 -18 24 -50
t-1.5 -64t-15.5 -62t-17 -49l-9 -18q10 93 -61 161q-17 17 -20.5 40t11.5 41q18 18 41.5 19.5t47.5 -18.5z" />
    <glyph glyph-name="A" unicode="A" horiz-adv-x="832" 
d="M441 700h197l179 -700h-207l-25 121h-276l-67 -121h-227zM393 272h162l-44 212z" />
    <glyph glyph-name="B" unicode="B" horiz-adv-x="703" 
d="M40 0l123 700h344q35 0 65 -3.5t63 -16t54.5 -32.5t32 -56t2.5 -84q-18 -101 -131 -146q138 -38 117 -156q-10 -59 -41.5 -102t-75 -64t-85 -30.5t-84.5 -9.5h-384zM311 422h130q68 0 79 61q6 34 -8 48t-49 14h-130zM264 155h161q28 0 56 16.5t33 49.5q6 35 -12.5 51
t-52.5 16h-161z" />
    <glyph glyph-name="C" unicode="C" horiz-adv-x="785" 
d="M290 350q-19 -107 22.5 -153.5t120.5 -46.5q59 0 112.5 40.5t63.5 95.5h197q-9 -51 -40.5 -102.5t-80.5 -95t-122.5 -71t-157.5 -27.5q-163 0 -253 98.5t-61 261.5t154 261.5t287 98.5q84 0 147.5 -27.5t97.5 -71t47.5 -95t4.5 -102.5h-197q10 58 -24 97t-104 39
q-30 0 -61 -10t-62.5 -31.5t-56 -62.5t-34.5 -96z" />
    <glyph glyph-name="D" unicode="D" horiz-adv-x="769" 
d="M474 700q172 0 265 -92.5t64 -257.5t-154.5 -257.5t-297.5 -92.5h-311l123 700h311zM265 158h114q87 0 147.5 49t77.5 143q17 98 -21 145t-136 47h-114z" />
    <glyph glyph-name="E" unicode="E" horiz-adv-x="599" 
d="M163 700h533l-28 -160h-336l-20 -112h306l-26 -151h-306l-21 -117h336l-28 -160h-533z" />
    <glyph glyph-name="F" unicode="F" horiz-adv-x="578" 
d="M162 700h516l-28 -160h-319l-21 -121h289l-28 -160h-289l-46 -259h-197z" />
    <glyph glyph-name="G" unicode="G" horiz-adv-x="795" 
d="M290 351q-37 -209 170 -209q62 0 110 27.5t70 82.5h-199l25 138h369l-69 -390h-165l10 57q-85 -66 -205 -66q-99 0 -177 42.5t-117.5 126t-20.5 191.5t88 191t163.5 125.5t195.5 42.5q143 0 228.5 -81.5t69.5 -173.5h-197q8 43 -27 69t-106 26q-80 0 -139.5 -50.5
t-76.5 -148.5z" />
    <glyph glyph-name="H" unicode="H" horiz-adv-x="818" 
d="M163 700h197l-46 -262h344l46 262h197l-123 -700h-197l49 278h-344l-49 -278h-197z" />
    <glyph glyph-name="I" unicode="I" horiz-adv-x="277" 
d="M163 700h197l-123 -700h-197z" />
    <glyph glyph-name="J" unicode="J" horiz-adv-x="657" 
d="M543 700h197l-75 -425q-22 -126 -108 -205.5t-232 -79.5q-150 0 -206.5 80.5t-33.5 215.5h197q-5 -37 -6.5 -67t17.5 -49.5t60 -19.5q42 0 74.5 38.5t40.5 86.5z" />
    <glyph glyph-name="K" unicode="K" horiz-adv-x="765" 
d="M163 700h197l-51 -293h62l232 293h236l-303 -362l214 -338h-247l-146 253h-75l-45 -253h-197z" />
    <glyph glyph-name="L" unicode="L" horiz-adv-x="602" 
d="M163 700h197l-95 -540h339l-28 -160h-536z" />
    <glyph glyph-name="M" unicode="M" horiz-adv-x="920" 
d="M164 700h196l134 -486l312 486h196l-123 -700h-196l57 325l-208 -325h-144l-90 346l-61 -346h-196z" />
    <glyph glyph-name="N" unicode="N" horiz-adv-x="809" 
d="M163 700h197l258 -440l77 440h197l-123 -700h-197l-260 426l-75 -426h-197z" />
    <glyph glyph-name="O" unicode="O" horiz-adv-x="837" 
d="M91 350q29 164 158 262t294 98q166 0 261 -98t66 -262t-158.5 -262t-295.5 -98q-165 0 -259.5 98t-65.5 262zM515 550q-80 0 -145 -56t-80 -144q-16 -91 23.5 -145.5t130.5 -54.5q79 0 145.5 56.5t81.5 143.5q16 91 -24.5 145.5t-131.5 54.5z" />
    <glyph glyph-name="P" unicode="P" horiz-adv-x="677" 
d="M504 700q29 0 59.5 -4.5t67 -20.5t61.5 -40.5t38 -69.5t2 -103q-10 -59 -38.5 -104t-62.5 -69.5t-76 -40t-74 -20.5t-61 -5h-144l-39 -223h-197l123 700h341zM303 378h127q38 0 67 20.5t36 63.5q15 83 -74 83h-126z" />
    <glyph glyph-name="Q" unicode="Q" horiz-adv-x="837" 
d="M591 -200l-129 192q-30 -2 -46 -2q-165 0 -259.5 98t-65.5 262t158 262t294 98q166 0 261 -98t66 -262q-17 -100 -75 -177t-144 -124l177 -249h-237zM515 550q-79 0 -144.5 -56.5t-80.5 -143.5q-16 -91 24 -145.5t130 -54.5q80 0 146 56.5t81 143.5q16 91 -24.5 145.5
t-131.5 54.5z" />
    <glyph glyph-name="R" unicode="R" horiz-adv-x="746" 
d="M530 700q34 0 66.5 -5.5t67.5 -21t59 -40t35 -66t2 -94.5q-15 -84 -66.5 -139t-122.5 -82l145 -252h-219l-128 228h-92l-40 -228h-197l123 700h367zM305 383h152q40 0 68 22t35 59q13 81 -75 81h-152z" />
    <glyph glyph-name="S" unicode="S" horiz-adv-x="730" 
d="M269 237q-8 -44 22.5 -70t100.5 -26q56 0 98.5 15.5t48.5 47.5q6 31 -21.5 42.5t-107.5 24.5q-46 7 -73 12q-121 23 -164.5 74t-28.5 137q18 100 116 158t224 58q161 0 229.5 -68t50.5 -170h-199q8 45 -15.5 66t-91.5 21q-39 0 -74 -16t-40 -42q-6 -33 19.5 -45
t138.5 -34q70 -13 104.5 -22.5t76 -31t54.5 -57t4 -89.5q-18 -104 -112.5 -168t-254.5 -64q-173 0 -247.5 72t-56.5 175h199z" />
    <glyph glyph-name="T" unicode="T" horiz-adv-x="672" 
d="M147 700h624l-28 -160h-214l-95 -540h-197l95 540h-213z" />
    <glyph glyph-name="U" unicode="U" horiz-adv-x="744" 
d="M630 700h197l-72 -410q-27 -153 -122 -226.5t-263 -73.5q-167 0 -236.5 73.5t-42.5 226.5l72 410h197l-72 -410q-13 -77 10 -108.5t100 -31.5q136 0 160 140z" />
    <glyph glyph-name="V" unicode="V" horiz-adv-x="850" 
d="M326 0l-179 700h204l101 -488l272 488h225l-426 -700h-197z" />
    <glyph glyph-name="W" unicode="W" horiz-adv-x="1101" 
d="M236 0l-89 700h188l42 -464l202 464h180l38 -445l196 445h207l-344 -700h-206l-33 378l-167 -378h-214z" />
    <glyph glyph-name="X" unicode="X" horiz-adv-x="881" 
d="M24 0l361 364l-202 336h239l103 -196l162 196h259l-305 -336l216 -364h-239l-116 228l-208 -228h-270z" />
    <glyph glyph-name="Y" unicode="Y" horiz-adv-x="827" 
d="M352 210l-205 490h217l106 -323l219 323h237l-377 -490l-37 -210h-197z" />
    <glyph glyph-name="Z" unicode="Z" horiz-adv-x="637" 
d="M710 700l-27 -156l-374 -384h332l-28 -160h-589l28 156l373 384h-298l28 160h555z" />
    <glyph glyph-name="bracketleft" unicode="[" 
d="M101 197q-6 0 -9 -1v-98q2 -1 9 -1q18 0 24.5 12t6.5 38t-6.5 38t-24.5 12zM253 161v-24h-40v-38h47v-24h-76v145h76v-25h-47v-34h40zM99 73q-23 0 -36 2v143q26 4 37 4q33 0 47 -18t14 -57t-14.5 -56.5t-47.5 -17.5zM286 220h39l19 -80l19 80h40q1 -21 3.5 -78.5
t2.5 -66.5h-29q0 53 -3 104l-20 -82h-27l-20 82h-1q-2 -68 -2 -104h-28q2 84 7 145zM482 73q-29 0 -41 17.5t-12 56.5t12 57t41 18t41.5 -18t12.5 -57t-12.5 -56.5t-41.5 -17.5zM482 197q-14 0 -19 -11.5t-5 -38.5q0 -50 24 -50q15 0 20 12t5 38q0 27 -5 38.5t-20 11.5z
M472 496q34 0 48 -20t14 -43q0 -21 -16.5 -35t-35.5 -17q-104 -12 -166 -72q3 8 8.5 20.5t22.5 44.5t34.5 57t42.5 45t48 20zM139 444q26 0 52 -19.5t44 -47t32 -54.5t21 -47l7 -19q-57 72 -156 72q-24 0 -43 15t-19 37q0 26 16.5 44.5t45.5 18.5zM314 593q19 -18 24 -50
t-1.5 -64t-15.5 -62t-17 -49l-9 -18q10 93 -61 161q-17 17 -20.5 40t11.5 41q18 18 41.5 19.5t47.5 -18.5z" />
    <glyph glyph-name="backslash" unicode="\" 
d="M101 197q-6 0 -9 -1v-98q2 -1 9 -1q18 0 24.5 12t6.5 38t-6.5 38t-24.5 12zM253 161v-24h-40v-38h47v-24h-76v145h76v-25h-47v-34h40zM99 73q-23 0 -36 2v143q26 4 37 4q33 0 47 -18t14 -57t-14.5 -56.5t-47.5 -17.5zM286 220h39l19 -80l19 80h40q1 -21 3.5 -78.5
t2.5 -66.5h-29q0 53 -3 104l-20 -82h-27l-20 82h-1q-2 -68 -2 -104h-28q2 84 7 145zM482 73q-29 0 -41 17.5t-12 56.5t12 57t41 18t41.5 -18t12.5 -57t-12.5 -56.5t-41.5 -17.5zM482 197q-14 0 -19 -11.5t-5 -38.5q0 -50 24 -50q15 0 20 12t5 38q0 27 -5 38.5t-20 11.5z
M472 496q34 0 48 -20t14 -43q0 -21 -16.5 -35t-35.5 -17q-104 -12 -166 -72q3 8 8.5 20.5t22.5 44.5t34.5 57t42.5 45t48 20zM139 444q26 0 52 -19.5t44 -47t32 -54.5t21 -47l7 -19q-57 72 -156 72q-24 0 -43 15t-19 37q0 26 16.5 44.5t45.5 18.5zM314 593q19 -18 24 -50
t-1.5 -64t-15.5 -62t-17 -49l-9 -18q10 93 -61 161q-17 17 -20.5 40t11.5 41q18 18 41.5 19.5t47.5 -18.5z" />
    <glyph glyph-name="bracketright" unicode="]" 
d="M101 197q-6 0 -9 -1v-98q2 -1 9 -1q18 0 24.5 12t6.5 38t-6.5 38t-24.5 12zM253 161v-24h-40v-38h47v-24h-76v145h76v-25h-47v-34h40zM99 73q-23 0 -36 2v143q26 4 37 4q33 0 47 -18t14 -57t-14.5 -56.5t-47.5 -17.5zM286 220h39l19 -80l19 80h40q1 -21 3.5 -78.5
t2.5 -66.5h-29q0 53 -3 104l-20 -82h-27l-20 82h-1q-2 -68 -2 -104h-28q2 84 7 145zM482 73q-29 0 -41 17.5t-12 56.5t12 57t41 18t41.5 -18t12.5 -57t-12.5 -56.5t-41.5 -17.5zM482 197q-14 0 -19 -11.5t-5 -38.5q0 -50 24 -50q15 0 20 12t5 38q0 27 -5 38.5t-20 11.5z
M472 496q34 0 48 -20t14 -43q0 -21 -16.5 -35t-35.5 -17q-104 -12 -166 -72q3 8 8.5 20.5t22.5 44.5t34.5 57t42.5 45t48 20zM139 444q26 0 52 -19.5t44 -47t32 -54.5t21 -47l7 -19q-57 72 -156 72q-24 0 -43 15t-19 37q0 26 16.5 44.5t45.5 18.5zM314 593q19 -18 24 -50
t-1.5 -64t-15.5 -62t-17 -49l-9 -18q10 93 -61 161q-17 17 -20.5 40t11.5 41q18 18 41.5 19.5t47.5 -18.5z" />
    <glyph glyph-name="asciicircum" unicode="^" 
d="M101 197q-6 0 -9 -1v-98q2 -1 9 -1q18 0 24.5 12t6.5 38t-6.5 38t-24.5 12zM253 161v-24h-40v-38h47v-24h-76v145h76v-25h-47v-34h40zM99 73q-23 0 -36 2v143q26 4 37 4q33 0 47 -18t14 -57t-14.5 -56.5t-47.5 -17.5zM286 220h39l19 -80l19 80h40q1 -21 3.5 -78.5
t2.5 -66.5h-29q0 53 -3 104l-20 -82h-27l-20 82h-1q-2 -68 -2 -104h-28q2 84 7 145zM482 73q-29 0 -41 17.5t-12 56.5t12 57t41 18t41.5 -18t12.5 -57t-12.5 -56.5t-41.5 -17.5zM482 197q-14 0 -19 -11.5t-5 -38.5q0 -50 24 -50q15 0 20 12t5 38q0 27 -5 38.5t-20 11.5z
M472 496q34 0 48 -20t14 -43q0 -21 -16.5 -35t-35.5 -17q-104 -12 -166 -72q3 8 8.5 20.5t22.5 44.5t34.5 57t42.5 45t48 20zM139 444q26 0 52 -19.5t44 -47t32 -54.5t21 -47l7 -19q-57 72 -156 72q-24 0 -43 15t-19 37q0 26 16.5 44.5t45.5 18.5zM314 593q19 -18 24 -50
t-1.5 -64t-15.5 -62t-17 -49l-9 -18q10 93 -61 161q-17 17 -20.5 40t11.5 41q18 18 41.5 19.5t47.5 -18.5z" />
    <glyph glyph-name="underscore" unicode="_" 
d="M101 197q-6 0 -9 -1v-98q2 -1 9 -1q18 0 24.5 12t6.5 38t-6.5 38t-24.5 12zM253 161v-24h-40v-38h47v-24h-76v145h76v-25h-47v-34h40zM99 73q-23 0 -36 2v143q26 4 37 4q33 0 47 -18t14 -57t-14.5 -56.5t-47.5 -17.5zM286 220h39l19 -80l19 80h40q1 -21 3.5 -78.5
t2.5 -66.5h-29q0 53 -3 104l-20 -82h-27l-20 82h-1q-2 -68 -2 -104h-28q2 84 7 145zM482 73q-29 0 -41 17.5t-12 56.5t12 57t41 18t41.5 -18t12.5 -57t-12.5 -56.5t-41.5 -17.5zM482 197q-14 0 -19 -11.5t-5 -38.5q0 -50 24 -50q15 0 20 12t5 38q0 27 -5 38.5t-20 11.5z
M472 496q34 0 48 -20t14 -43q0 -21 -16.5 -35t-35.5 -17q-104 -12 -166 -72q3 8 8.5 20.5t22.5 44.5t34.5 57t42.5 45t48 20zM139 444q26 0 52 -19.5t44 -47t32 -54.5t21 -47l7 -19q-57 72 -156 72q-24 0 -43 15t-19 37q0 26 16.5 44.5t45.5 18.5zM314 593q19 -18 24 -50
t-1.5 -64t-15.5 -62t-17 -49l-9 -18q10 93 -61 161q-17 17 -20.5 40t11.5 41q18 18 41.5 19.5t47.5 -18.5z" />
    <glyph glyph-name="grave" unicode="`" 
d="M101 197q-6 0 -9 -1v-98q2 -1 9 -1q18 0 24.5 12t6.5 38t-6.5 38t-24.5 12zM253 161v-24h-40v-38h47v-24h-76v145h76v-25h-47v-34h40zM99 73q-23 0 -36 2v143q26 4 37 4q33 0 47 -18t14 -57t-14.5 -56.5t-47.5 -17.5zM286 220h39l19 -80l19 80h40q1 -21 3.5 -78.5
t2.5 -66.5h-29q0 53 -3 104l-20 -82h-27l-20 82h-1q-2 -68 -2 -104h-28q2 84 7 145zM482 73q-29 0 -41 17.5t-12 56.5t12 57t41 18t41.5 -18t12.5 -57t-12.5 -56.5t-41.5 -17.5zM482 197q-14 0 -19 -11.5t-5 -38.5q0 -50 24 -50q15 0 20 12t5 38q0 27 -5 38.5t-20 11.5z
M472 496q34 0 48 -20t14 -43q0 -21 -16.5 -35t-35.5 -17q-104 -12 -166 -72q3 8 8.5 20.5t22.5 44.5t34.5 57t42.5 45t48 20zM139 444q26 0 52 -19.5t44 -47t32 -54.5t21 -47l7 -19q-57 72 -156 72q-24 0 -43 15t-19 37q0 26 16.5 44.5t45.5 18.5zM314 593q19 -18 24 -50
t-1.5 -64t-15.5 -62t-17 -49l-9 -18q10 93 -61 161q-17 17 -20.5 40t11.5 41q18 18 41.5 19.5t47.5 -18.5z" />
    <glyph glyph-name="a" unicode="a" horiz-adv-x="585" 
d="M174 500h215q119 0 159 -50t24 -146l-15 -83q-7 -36 4 -49.5t44 -13.5h6l-28 -158h-130q-52 0 -71 18.5t-17 59.5q-48 -88 -158 -88q-88 0 -127.5 39.5t-26.5 113.5q14 78 72.5 119.5t179.5 41.5h79q3 26 -6.5 36.5t-44.5 10.5h-185zM369 223h-70q-51 0 -59 -43
q-9 -48 47 -48q25 0 48 11.5t28 41.5z" />
    <glyph glyph-name="b" unicode="b" horiz-adv-x="636" 
d="M661 250q-20 -116 -96 -188t-181 -72q-108 0 -147 80l-12 -70h-195l123 700h195l-48 -270q66 80 176 80q105 0 155 -72t30 -188zM265 230h1l-2 -9q-5 -30 18.5 -51.5t65.5 -21.5q39 0 73.5 28t42.5 74q9 48 -13.5 75t-66.5 27q-36 0 -70.5 -21.5t-39.5 -50.5v-1l-1 -9h-1
z" />
    <glyph glyph-name="c" unicode="c" horiz-adv-x="589" 
d="M254 251q-17 -103 74 -103q30 0 57.5 20.5t31.5 48.5h191q-16 -91 -93 -159t-212 -68q-134 0 -198 69t-42 192q22 122 110 190.5t222 68.5q70 0 120 -20.5t73.5 -54t31 -72t0.5 -79.5h-191q5 29 -12 48.5t-53 19.5q-39 0 -70 -27t-40 -74z" />
    <glyph glyph-name="d" unicode="d" horiz-adv-x="636" 
d="M63 250q20 116 96 188t181 72q108 0 147 -80l47 270h195l-123 -700h-195l12 70q-67 -80 -175 -80q-105 0 -155 72t-30 188zM340 148q36 0 70.5 22t39.5 51l10 58q5 30 -18.5 51.5t-65.5 21.5q-39 0 -73 -28t-43 -74q-8 -48 14 -75t66 -27z" />
    <glyph glyph-name="e" unicode="e" horiz-adv-x="589" 
d="M256 210q-2 -43 14.5 -58.5t52.5 -15.5q73 0 81 44h197q-30 -84 -107.5 -137t-206.5 -53q-121 0 -183 70t-41 190q21 121 108 191t208 70q140 0 198 -68t38 -189l-8 -44h-351zM423 290q3 41 -11 58t-49 17q-65 0 -92 -75h152z" />
    <glyph glyph-name="f" unicode="f" horiz-adv-x="389" 
d="M471 558h-55q-31 0 -44 -7t-17 -32l-3 -19h110l-28 -158h-110l-61 -342h-195l60 342h-53l28 158h53l10 54q27 156 198 156h134z" />
    <glyph glyph-name="g" unicode="g" horiz-adv-x="636" 
d="M93 -48h226q49 0 68.5 12t26.5 55l9 51q-67 -80 -175 -80q-105 0 -155 72t-30 188t96 188t181 72q108 0 147 -80l12 70h195l-80 -455q-22 -125 -94.5 -185t-209.5 -60h-244zM340 148q36 0 70.5 22t39.5 51l10 58q5 30 -18.5 51.5t-65.5 21.5q-39 0 -73 -28t-43 -74
q-8 -48 14 -75t66 -27z" />
    <glyph glyph-name="h" unicode="h" horiz-adv-x="605" 
d="M153 700h195l-49 -283q73 93 189 93q88 0 123 -52t19 -144l-55 -314h-195l46 261q8 47 -3 69t-57 22q-34 0 -60.5 -23.5t-34.5 -68.5l-46 -260h-195z" />
    <glyph glyph-name="i" unicode="i" horiz-adv-x="253" 
d="M133 640q8 44 44.5 74.5t82.5 30.5q44 0 69 -31t18 -74q-8 -46 -44 -77.5t-80 -31.5q-46 0 -72 31.5t-18 77.5zM117 500h195l-88 -500h-195z" />
    <glyph glyph-name="j" unicode="j" horiz-adv-x="253" 
d="M131 640q8 44 44.5 74.5t82.5 30.5q44 0 69 -31t18 -74q-8 -46 -44 -77.5t-80 -31.5q-47 0 -72.5 31.5t-17.5 77.5zM-86 -48h52q31 0 44.5 9t18.5 39l88 500h195l-96 -543q-27 -157 -198 -157h-131z" />
    <glyph glyph-name="k" unicode="k" horiz-adv-x="623" 
d="M153 700h195l-64 -365h38l118 165h226l-186 -235l127 -265h-231l-74 185h-44l-33 -185h-195z" />
    <glyph glyph-name="l" unicode="l" horiz-adv-x="293" 
d="M318 158l-28 -158h-121q-73 0 -100 35.5t-14 107.5l98 557h195l-84 -479q-7 -36 3.5 -49.5t43.5 -13.5h7z" />
    <glyph glyph-name="m" unicode="m" horiz-adv-x="897" 
d="M118 500h195l-14 -77q68 87 170 87q119 0 135 -110q69 110 186 110q81 0 114.5 -52.5t17.5 -143.5l-55 -314h-195l48 270q10 43 0.5 62.5t-47.5 19.5q-26 0 -48.5 -18.5t-30.5 -58.5l-48 -275h-195l48 270q10 43 0.5 62.5t-47.5 19.5q-25 0 -47 -17.5t-31 -55.5l-49 -279
h-195z" />
    <glyph glyph-name="n" unicode="n" horiz-adv-x="605" 
d="M118 500h195l-14 -83q73 93 189 93q88 0 123 -52t19 -144l-55 -314h-195l46 261q8 47 -3.5 69t-56.5 22q-34 0 -60.5 -23.5t-34.5 -68.5l-46 -260h-195z" />
    <glyph glyph-name="o" unicode="o" horiz-adv-x="620" 
d="M336 148q42 0 73.5 31t38.5 71q8 42 -10 72t-66 30q-42 0 -73.5 -31t-38.5 -71q-8 -42 10 -72t66 -30zM400 510q126 0 196 -70.5t49 -189.5t-116 -189.5t-221 -70.5t-196 70.5t-49 189.5t116 189.5t221 70.5z" />
    <glyph glyph-name="p" unicode="p" horiz-adv-x="636" 
d="M118 500h195l-12 -70q66 80 175 80q105 0 155 -72t30 -188t-96 -188t-181 -72q-108 0 -147 80l-47 -270h-195zM275 283l-11 -62q-5 -30 18.5 -51.5t65.5 -21.5q39 0 73.5 28t42.5 74q9 48 -13.5 75t-66.5 27q-35 0 -68.5 -21t-40.5 -48z" />
    <glyph glyph-name="q" unicode="q" horiz-adv-x="636" 
d="M694 500l-123 -700h-195l47 270q-67 -80 -175 -80q-105 0 -155 72t-30 188t96 188t181 72q108 0 147 -79l12 69h195zM460 276v3q5 30 -18.5 51.5t-65.5 21.5q-39 0 -73 -28t-43 -74q-8 -48 14 -75t66 -27q36 0 70.5 21.5t39.5 50.5z" />
    <glyph glyph-name="r" unicode="r" horiz-adv-x="430" 
d="M118 500h195l-14 -81q34 42 77 66.5t81 24.5h49l-28 -158h-119q-37 0 -57.5 -18.5t-29.5 -65.5l-47 -268h-195z" />
    <glyph glyph-name="s" unicode="s" horiz-adv-x="567" 
d="M226 169q-5 -30 17 -45t71 -15q67 0 72 27q3 16 -11.5 22.5t-74.5 19.5q-17 4 -26 6q-97 21 -144.5 63t-35.5 109q9 53 54 89t100.5 50.5t117.5 14.5q116 0 174 -54.5t46 -124.5h-178q6 32 -6.5 46t-55.5 14q-60 0 -65 -27q-1 -7 1 -12t8.5 -9t13 -7t20.5 -6.5t25.5 -6
t31.5 -7t36 -8.5q94 -22 132.5 -52t26.5 -95q-14 -77 -93 -124t-199 -47q-121 0 -184 55t-51 124h177z" />
    <glyph glyph-name="t" unicode="t" horiz-adv-x="402" 
d="M104 500h58l21 120h195l-21 -120h119l-28 -158h-119l-25 -142q-5 -30 6 -39t41 -9h64l-27 -152h-142q-83 0 -120.5 39.5t-23.5 117.5l32 185h-58z" />
    <glyph glyph-name="u" unicode="u" horiz-adv-x="642" 
d="M668 158l-28 -158h-121q-113 0 -118 92q-74 -102 -196 -102q-88 0 -123 52t-19 144l55 314h195l-46 -261q-8 -47 3.5 -69t56.5 -22q34 0 60.5 23.5t34.5 68.5l46 260h195l-49 -279q-7 -36 3.5 -49.5t43.5 -13.5h7z" />
    <glyph glyph-name="v" unicode="v" horiz-adv-x="669" 
d="M103 500h186l70 -303l177 303h206l-318 -500h-180l1 1z" />
    <glyph glyph-name="w" unicode="w" horiz-adv-x="846" 
d="M103 500h186l16 -284l126 284h161l25 -274l106 274h196l-238 -500h-183l-21 284l-121 -284h-191z" />
    <glyph glyph-name="x" unicode="x" horiz-adv-x="675" 
d="M15 0l241 261l-136 239h226l54 -117l96 117h235l-220 -239l149 -261h-227l-62 134l-109 -134h-247z" />
    <glyph glyph-name="y" unicode="y" horiz-adv-x="624" 
d="M697 500l-297 -510q-37 -63 -62.5 -95.5t-67 -56.5t-95 -31t-143.5 -7l28 160q86 0 110 6.5t40 32.5l7 11l-114 490h196l49 -305l153 305h196z" />
    <glyph glyph-name="z" unicode="z" horiz-adv-x="503" 
d="M559 500l-24 -136l-231 -206h212l-28 -158h-472l24 137l230 205h-186l28 158h447z" />
    <glyph glyph-name="braceleft" unicode="{" 
d="M101 197q-6 0 -9 -1v-98q2 -1 9 -1q18 0 24.5 12t6.5 38t-6.5 38t-24.5 12zM253 161v-24h-40v-38h47v-24h-76v145h76v-25h-47v-34h40zM99 73q-23 0 -36 2v143q26 4 37 4q33 0 47 -18t14 -57t-14.5 -56.5t-47.5 -17.5zM286 220h39l19 -80l19 80h40q1 -21 3.5 -78.5
t2.5 -66.5h-29q0 53 -3 104l-20 -82h-27l-20 82h-1q-2 -68 -2 -104h-28q2 84 7 145zM482 73q-29 0 -41 17.5t-12 56.5t12 57t41 18t41.5 -18t12.5 -57t-12.5 -56.5t-41.5 -17.5zM482 197q-14 0 -19 -11.5t-5 -38.5q0 -50 24 -50q15 0 20 12t5 38q0 27 -5 38.5t-20 11.5z
M472 496q34 0 48 -20t14 -43q0 -21 -16.5 -35t-35.5 -17q-104 -12 -166 -72q3 8 8.5 20.5t22.5 44.5t34.5 57t42.5 45t48 20zM139 444q26 0 52 -19.5t44 -47t32 -54.5t21 -47l7 -19q-57 72 -156 72q-24 0 -43 15t-19 37q0 26 16.5 44.5t45.5 18.5zM314 593q19 -18 24 -50
t-1.5 -64t-15.5 -62t-17 -49l-9 -18q10 93 -61 161q-17 17 -20.5 40t11.5 41q18 18 41.5 19.5t47.5 -18.5z" />
    <glyph glyph-name="bar" unicode="|" 
d="M101 197q-6 0 -9 -1v-98q2 -1 9 -1q18 0 24.5 12t6.5 38t-6.5 38t-24.5 12zM253 161v-24h-40v-38h47v-24h-76v145h76v-25h-47v-34h40zM99 73q-23 0 -36 2v143q26 4 37 4q33 0 47 -18t14 -57t-14.5 -56.5t-47.5 -17.5zM286 220h39l19 -80l19 80h40q1 -21 3.5 -78.5
t2.5 -66.5h-29q0 53 -3 104l-20 -82h-27l-20 82h-1q-2 -68 -2 -104h-28q2 84 7 145zM482 73q-29 0 -41 17.5t-12 56.5t12 57t41 18t41.5 -18t12.5 -57t-12.5 -56.5t-41.5 -17.5zM482 197q-14 0 -19 -11.5t-5 -38.5q0 -50 24 -50q15 0 20 12t5 38q0 27 -5 38.5t-20 11.5z
M472 496q34 0 48 -20t14 -43q0 -21 -16.5 -35t-35.5 -17q-104 -12 -166 -72q3 8 8.5 20.5t22.5 44.5t34.5 57t42.5 45t48 20zM139 444q26 0 52 -19.5t44 -47t32 -54.5t21 -47l7 -19q-57 72 -156 72q-24 0 -43 15t-19 37q0 26 16.5 44.5t45.5 18.5zM314 593q19 -18 24 -50
t-1.5 -64t-15.5 -62t-17 -49l-9 -18q10 93 -61 161q-17 17 -20.5 40t11.5 41q18 18 41.5 19.5t47.5 -18.5z" />
    <glyph glyph-name="braceright" unicode="}" 
d="M101 197q-6 0 -9 -1v-98q2 -1 9 -1q18 0 24.5 12t6.5 38t-6.5 38t-24.5 12zM253 161v-24h-40v-38h47v-24h-76v145h76v-25h-47v-34h40zM99 73q-23 0 -36 2v143q26 4 37 4q33 0 47 -18t14 -57t-14.5 -56.5t-47.5 -17.5zM286 220h39l19 -80l19 80h40q1 -21 3.5 -78.5
t2.5 -66.5h-29q0 53 -3 104l-20 -82h-27l-20 82h-1q-2 -68 -2 -104h-28q2 84 7 145zM482 73q-29 0 -41 17.5t-12 56.5t12 57t41 18t41.5 -18t12.5 -57t-12.5 -56.5t-41.5 -17.5zM482 197q-14 0 -19 -11.5t-5 -38.5q0 -50 24 -50q15 0 20 12t5 38q0 27 -5 38.5t-20 11.5z
M472 496q34 0 48 -20t14 -43q0 -21 -16.5 -35t-35.5 -17q-104 -12 -166 -72q3 8 8.5 20.5t22.5 44.5t34.5 57t42.5 45t48 20zM139 444q26 0 52 -19.5t44 -47t32 -54.5t21 -47l7 -19q-57 72 -156 72q-24 0 -43 15t-19 37q0 26 16.5 44.5t45.5 18.5zM314 593q19 -18 24 -50
t-1.5 -64t-15.5 -62t-17 -49l-9 -18q10 93 -61 161q-17 17 -20.5 40t11.5 41q18 18 41.5 19.5t47.5 -18.5z" />
    <glyph glyph-name="asciitilde" unicode="~" 
d="M101 197q-6 0 -9 -1v-98q2 -1 9 -1q18 0 24.5 12t6.5 38t-6.5 38t-24.5 12zM253 161v-24h-40v-38h47v-24h-76v145h76v-25h-47v-34h40zM99 73q-23 0 -36 2v143q26 4 37 4q33 0 47 -18t14 -57t-14.5 -56.5t-47.5 -17.5zM286 220h39l19 -80l19 80h40q1 -21 3.5 -78.5
t2.5 -66.5h-29q0 53 -3 104l-20 -82h-27l-20 82h-1q-2 -68 -2 -104h-28q2 84 7 145zM482 73q-29 0 -41 17.5t-12 56.5t12 57t41 18t41.5 -18t12.5 -57t-12.5 -56.5t-41.5 -17.5zM482 197q-14 0 -19 -11.5t-5 -38.5q0 -50 24 -50q15 0 20 12t5 38q0 27 -5 38.5t-20 11.5z
M472 496q34 0 48 -20t14 -43q0 -21 -16.5 -35t-35.5 -17q-104 -12 -166 -72q3 8 8.5 20.5t22.5 44.5t34.5 57t42.5 45t48 20zM139 444q26 0 52 -19.5t44 -47t32 -54.5t21 -47l7 -19q-57 72 -156 72q-24 0 -43 15t-19 37q0 26 16.5 44.5t45.5 18.5zM314 593q19 -18 24 -50
t-1.5 -64t-15.5 -62t-17 -49l-9 -18q10 93 -61 161q-17 17 -20.5 40t11.5 41q18 18 41.5 19.5t47.5 -18.5z" />
    </font>
</defs>
</svg>
